<svg width="589" height="587" viewBox="0 0 589 587" fill="none" xmlns="http://www.w3.org/2000/svg">
<circle cx="295.5" cy="293.5" r="293.5" fill="#E8C843"/>
<mask id="mask0_9001_6398" style="mask-type:alpha" maskUnits="userSpaceOnUse" x="0" y="0" width="587" height="587">
<circle cx="293.5" cy="293.5" r="293.5" fill="#D9D9D9"/>
</mask>
<g mask="url(#mask0_9001_6398)">
<path d="M347.077 409.111C339.573 395.297 331.289 381.897 323.787 368.071C316.173 354.044 308.871 339.844 301.815 325.521C294.081 309.824 286.517 294.008 279.568 277.945C279.516 276.997 278.64 276.1 277.652 275.408C276.788 274.725 275.761 274.233 274.744 273.997C266.785 271.315 257.669 271.036 249.415 271.4C226.189 272.429 203.765 280.707 183.625 291.949C172.537 298.14 162.589 306.205 151.284 311.981C144.109 315.648 136.475 318.331 128.641 320.197C112.945 323.935 96.7338 324.3 80.6853 324.86C62.1453 325.508 43.6202 326.581 25.3838 330.192C1.93847 334.833 -20.4985 343.524 -41.4282 355.004C-64.0214 367.391 -86.6709 382.337 -103.929 401.697C-116.802 416.137 -126.553 433.137 -132.579 451.524C-144.468 487.791 -142.105 527.538 -130.048 563.431C-117.943 599.47 -95.9074 632.644 -65.9798 656.298C-51.5183 667.724 -35.0246 676.857 -17.4042 682.364C-8.66259 685.098 0.313939 686.977 9.42914 687.884C14.3333 688.364 19.6895 689.137 24.5743 688.244C46.9906 684.137 69.2155 677.937 91.1093 671.711C134.411 659.417 177.072 644.604 218.245 626.377C263.475 606.351 308.008 682.031 345.072 648.898C351.795 642.898 358.211 636.564 364.297 629.924C370.896 643.311 377.495 586.711 384.093 570.098C385.137 572.217 388.56 574.711 391.088 573.777C393.377 572.924 395.667 572.084 397.956 571.231C398.491 571.031 399.377 570.551 399.236 569.791C393.428 538.657 385.26 507.764 375.456 477.684C367.795 454.164 358.896 430.884 347.077 409.111Z" fill="#635C53"/>
<path d="M476.985 138.896C469.773 127.368 461.289 116.478 452.341 106.263C437.881 89.7562 420.252 72.4962 398.704 66.0282C375.98 59.2056 355.949 71.5842 343.625 90.4096C329.034 112.7 323.746 140.602 321.073 166.686C319.51 181.936 318.75 197.468 319.309 212.847C308.733 205.082 293.665 198.923 283.006 208.502C276.456 214.39 275.012 222.43 278.798 229.626C269.345 227.164 260.08 228.934 255.586 240.466C251.128 251.9 258.934 261.603 268.258 267.4C269.714 268.306 271.506 269.616 273.177 270.083L273.5 270.232C272.169 271.88 271.669 275.03 270.422 276.88C268.3 280.034 265.278 281.363 262.756 283.923C259.865 286.855 260.674 291.884 261.212 295.547C262.345 303.276 264.72 310.862 267.26 318.227C274.416 338.971 284.118 359.151 296.3 377.418C308.137 395.164 324.778 415.538 347.046 419.498C347.285 419.604 347.612 419.658 348.06 419.631C364.393 418.231 380.724 415.258 396.69 411.631C425.834 405.031 455.938 395.471 480.416 377.818C486.36 373.524 491.98 368.684 496.83 363.178C500.377 359.151 503.025 354.498 506.268 350.364C509.081 346.778 511.692 342.698 510.19 337.93C508.698 333.195 503.834 330.263 499.418 328.634C490.524 325.354 480.873 323.76 471.596 321.984C458.374 319.45 445.084 317.271 431.782 315.194C412.066 312.112 392.306 309.262 372.52 306.659C383.95 288.486 395.381 270.314 406.812 252.14C425.784 221.978 444.757 191.815 463.729 161.652C468.073 154.746 472.417 147.839 476.761 140.932C477.149 140.315 477.406 139.57 476.985 138.896Z" fill="#635C53"/>
<path d="M476.749 138.731C458.839 130.532 438.374 124.66 418.639 124.232C405.89 123.956 392.619 126.703 382.941 135.517C374.953 142.791 371.311 153.577 367.782 163.497C358.002 190.989 351.166 219.649 345.203 248.179C339.87 273.696 334.219 300.283 334.133 326.471C334.117 330.905 333.501 339.271 337.673 342.297C339.803 343.844 342.637 344.871 344.953 346.137C348.847 348.257 352.754 350.364 356.717 352.364C382.078 365.124 409.867 373.604 438.463 373.391C456.671 373.244 474.73 369.484 491.545 362.511C495.406 360.924 498.835 359.551 501.902 356.831C506.223 353.004 510.529 347.791 510.975 341.804C511.738 331.575 500.209 325.608 492.293 322.363C482.139 318.2 471.239 315.853 460.465 313.975C442.607 310.86 424.485 309.255 406.405 308.157C394.899 307.46 383.381 307.023 371.858 306.727C381.811 291.051 391.75 275.367 401.679 259.676C419.947 230.812 438.198 201.937 456.315 172.98C463.181 162.005 470.077 151.045 476.751 139.955C476.963 139.601 477.029 139.361 477.005 139.193C477.019 138.988 476.951 138.823 476.749 138.731Z" fill="#111111"/>
<path d="M299.795 218.979C293.651 221.255 289.934 226.564 291.507 230.815C293.083 235.064 299.362 236.671 305.506 234.395C311.65 232.119 315.367 226.81 313.793 222.559C312.218 218.31 305.939 216.703 299.795 218.979Z" fill="white"/>
<path d="M274.736 248.841C268.048 251.319 263.98 256.428 265.478 260.469C266.976 264.511 273.388 265.737 280.078 263.26C286.767 260.78 290.835 255.673 289.338 251.631C287.839 247.589 281.426 246.363 274.736 248.841Z" fill="white"/>
<path d="M310.494 225.531C310.158 224.877 309.712 224.321 309.234 223.965C308.426 223.36 307.829 223.517 307.542 223.663C307.257 223.811 306.781 224.207 306.804 225.215C306.817 225.811 307.007 226.497 307.342 227.151C308.102 228.627 309.262 229.409 310.161 229.077L310.294 229.019C311.208 228.548 311.29 227.083 310.494 225.531Z" fill="#1A1B1F"/>
<path d="M283.274 254.841C282.921 254.156 282.453 253.573 281.952 253.2C281.108 252.565 280.477 252.727 280.177 252.881C279.877 253.037 279.38 253.452 279.401 254.509C279.416 255.135 279.616 255.856 279.968 256.54C280.764 258.089 281.982 258.909 282.922 258.561L283.064 258.499C283.364 258.345 283.862 257.929 283.84 256.872C283.826 256.247 283.625 255.525 283.274 254.841Z" fill="#1A1B1F"/>
<path d="M437.906 143.3C437.546 142.448 436.659 142.137 435.769 142.467C431.459 144.063 427.151 145.659 422.842 147.256C421.127 147.517 418.978 149.564 419.909 150.989C426.405 160.941 432.898 170.892 439.393 180.843C439.778 181.432 440.759 181.469 441.349 181.251C443.818 180.336 446.287 179.421 448.757 178.507C449.674 178.167 452.062 176.765 451.463 175.347C446.943 164.664 442.425 153.983 437.906 143.3Z" fill="white"/>
<path d="M409.632 185.296C405.113 174.613 400.593 163.931 396.074 153.249C395.774 152.54 394.621 152.773 393.548 153.411C388.834 155.712 384.12 158.016 379.406 160.319C378.686 160.671 376.536 162.291 377.326 163.395C384.314 173.163 391.302 182.929 398.29 192.699C398.964 193.64 400.689 192.601 401.314 192.216C403.601 190.808 405.888 189.4 408.174 187.989C408.992 187.487 410.064 186.319 409.632 185.296Z" fill="white"/>
<path d="M470.49 319.757C468.514 320.488 466.539 321.22 464.562 321.952C463.268 322.431 461.668 323.524 461.871 325.132C462.744 332.039 463.619 338.944 464.492 345.844C464.611 346.791 465.946 346.991 466.655 346.724C469.57 345.644 472.484 344.564 475.399 343.484C476.055 343.324 476.743 342.937 477.286 342.457L477.435 342.324L477.532 342.231C477.848 341.911 478.092 341.564 478.194 341.164C478.294 340.857 478.323 340.551 478.236 340.244C476.375 333.708 474.514 327.167 472.652 320.627C472.398 319.729 471.307 319.453 470.49 319.757Z" fill="white"/>
<path d="M438.206 339.871C436.23 340.591 434.255 341.324 432.28 342.057C431.358 342.404 429.17 343.737 429.455 345.057C431.03 352.337 432.603 359.618 434.176 366.898C434.312 367.524 434.938 367.684 435.514 367.564C438.982 366.804 442.45 366.057 445.918 365.311C447.39 365.431 450.384 363.217 449.706 361.711C446.468 354.484 443.23 347.257 439.991 340.031C439.731 339.457 438.606 339.711 438.206 339.871Z" fill="white"/>
<path d="M431.164 338.184L431.171 338.181L431.173 338.18C432.617 337.652 435.103 335.933 434.692 335.041C431.82 328.804 428.948 322.567 426.076 316.328C425.953 316.063 425.216 316.328 425.116 316.367C423.14 317.097 421.164 317.829 419.19 318.561C418.232 318.916 415.4 320.395 415.668 321.7C417.059 328.485 418.449 335.272 419.839 342.057C419.896 342.337 420.772 342.031 420.799 342.017C424.238 340.751 427.678 339.471 431.116 338.201L431.164 338.184Z" fill="white"/>
<path d="M401.63 334.236C400.149 334.785 398.667 335.333 397.186 335.883C396.425 336.164 394.106 337.583 394.227 338.685C394.942 345.164 395.655 351.631 396.369 358.111C396.435 358.711 397.067 358.564 397.487 358.471C400.934 357.724 404.381 356.977 407.829 356.231C409.119 356.231 412.399 354.057 411.838 352.844C408.966 346.604 406.094 340.364 403.222 334.129C402.995 333.637 401.899 334.137 401.63 334.236Z" fill="white"/>
<path d="M260.87 288.492C252.928 288.609 244.119 285.747 235.755 285.647C229.044 285.565 220.006 286.032 214.956 291.161C209.236 296.975 215.814 304.467 221.551 307.217C229.115 310.847 238.299 308.863 245.779 306.04C251.475 303.889 257.06 301.075 262.107 297.635C263.406 297.021 264.607 295.752 264.259 294.777C263.603 292.944 262.947 291.111 262.291 289.279C262.038 288.569 261.575 288.483 260.87 288.492Z" fill="#111111"/>
<path d="M228.771 297.848C233.922 298.142 239.122 298.127 244.267 297.788C250.076 297.407 256.978 296.944 261.622 293.03C263.478 291.464 260.986 290.596 259.56 291.799C255.246 295.435 246.603 295.02 241.314 295.17C237.53 295.278 233.727 295.258 229.946 295.042C228.478 294.959 226.58 297.723 228.771 297.848Z" fill="white"/>
<path d="M394.699 72.416C390.738 74.4307 391.852 79.0413 393.754 82.1107C395.628 84.7427 398.891 87.368 402.176 85.4014C405.73 83.2734 404.743 78.7974 402.804 75.888C401.094 73.324 397.867 70.804 394.699 72.416Z" fill="white"/>
<path d="M427.18 112.221C426.705 112.397 426.464 112.925 426.64 113.399C426.814 113.873 427.341 114.115 427.816 113.939C428.289 113.763 428.532 113.237 428.356 112.763C428.181 112.288 427.653 112.045 427.18 112.221Z" fill="white"/>
<path d="M421.838 108.344C421.363 108.52 421.122 109.046 421.298 109.52C421.472 109.994 421.999 110.236 422.474 110.06C422.948 109.884 423.19 109.359 423.014 108.884C422.838 108.411 422.311 108.168 421.838 108.344Z" fill="white"/>
<path d="M413.255 111.524C412.781 111.7 412.537 112.225 412.713 112.7C412.889 113.173 413.416 113.416 413.891 113.24C414.365 113.065 414.607 112.539 414.431 112.064C414.255 111.591 413.728 111.348 413.255 111.524Z" fill="white"/>
<path d="M365.422 93.3176C361.545 95.3736 362.365 99.6336 364.312 102.779C366.208 105.44 369.314 107.812 372.566 105.831C376.072 103.699 375.338 99.5189 373.364 96.5549C371.648 93.9842 368.545 91.6616 365.422 93.3176Z" fill="white"/>
<path d="M389.219 120.428C388.746 120.603 388.503 121.13 388.678 121.603C388.854 122.078 389.38 122.319 389.855 122.144C390.33 121.968 390.571 121.442 390.395 120.968C390.22 120.494 389.694 120.252 389.219 120.428Z" fill="white"/>
<path d="M379.808 116.103C379.333 116.279 379.09 116.805 379.266 117.28C379.442 117.755 379.969 117.996 380.444 117.82C380.917 117.645 381.158 117.117 380.984 116.645C380.808 116.169 380.281 115.929 379.808 116.103Z" fill="white"/>
<path d="M375.484 125.515C375.01 125.691 374.768 126.218 374.944 126.692C375.119 127.166 375.646 127.408 376.12 127.232C376.594 127.056 376.836 126.53 376.66 126.055C376.484 125.582 375.959 125.339 375.484 125.515Z" fill="white"/>
<path d="M240.611 364.644C260.88 386.058 287.02 405.284 314.827 415.284C325.7 419.204 337.027 421.524 348.615 421.231C350.635 421.178 353.715 417.084 350.494 417.164C329.715 417.684 309.714 409.244 292.178 398.764C277.851 390.204 264.515 379.884 252.308 368.511C249.848 366.231 247.403 363.911 245.092 361.471C243.562 359.844 239.194 363.151 240.611 364.644Z" fill="white"/>
<path d="M189.619 348.111C190.559 359.738 195.635 371.591 201.559 381.444C216.617 406.484 242.515 421.978 270.373 429.031C297.057 435.804 325.114 435.738 352.338 432.964C353.634 432.831 357.299 429.311 355.679 429.471C314.906 433.631 268.917 431.991 233.982 407.831C216.449 395.698 202.997 377.991 196.802 357.524C195.619 353.618 194.549 349.524 194.218 345.444C194.121 344.231 189.502 346.671 189.619 348.111Z" fill="white"/>
</g>
</svg>
