<svg width="593" height="668" viewBox="0 0 593 668" fill="none" xmlns="http://www.w3.org/2000/svg">
<g clip-path="url(#clip0_9001_5811)">
<rect width="593" height="668" fill="white"/>
<circle cx="301.5" cy="389.5" r="246.5" fill="#007EC1" fill-opacity="0.38"/>
<circle cx="301.5" cy="389.5" r="229.5" stroke="#007EC1" stroke-opacity="0.81" stroke-width="34"/>
<mask id="mask0_9001_5811" style="mask-type:alpha" maskUnits="userSpaceOnUse" x="-60" y="-212" width="641" height="815">
<path fill-rule="evenodd" clip-rule="evenodd" d="M581 -212H-60V368.764H89.9442C89.3195 375.425 89 382.175 89 389C89 507.189 184.811 603 303 603C421.189 603 517 507.189 517 389C517 382.175 516.681 375.425 516.056 368.764H581V-212Z" fill="#D9D9D9"/>
</mask>
<g mask="url(#mask0_9001_5811)">
<path d="M456.489 314.429C449.939 307.205 442.744 300.539 435.294 294.26C406.208 269.741 371.496 250.926 333.931 243.692C310.013 239.087 285.359 239.528 261.591 244.804C247.828 247.859 234.417 252.529 221.635 258.462C210.558 263.602 198.565 269.376 188.935 276.968C185.427 279.733 182.278 283.149 179.092 286.266C171.679 293.516 164.495 300.998 157.521 308.674C136.356 331.965 116.938 357.04 100.744 384.044C82.7 414.154 68.0313 447.447 64.1217 482.618C60.0787 519.018 69.4603 554.689 91.8513 583.784C106.225 602.483 124.68 617.713 144.498 630.306C156.47 637.928 168.997 644.641 181.84 650.672C186.935 653.051 191.762 655.173 197.11 656.779C248.242 672.19 304.838 674.084 356.745 661.75C359.626 661.052 363.199 661.068 364.326 658.022C364.966 656.31 365.129 654.097 364.72 652.324C362.767 643.793 350.102 645.126 343.843 645.944C338.744 646.581 341.734 641.898 343.423 639.61C346.365 635.64 349.958 632.109 353.545 628.729C359.929 622.713 367.453 618.426 373.249 611.712C386.907 595.877 394.796 605.146 400.322 584.795C399.125 604.07 397.928 593.361 396.731 612.636C396.42 617.637 395.916 622.653 395.797 627.669C395.711 631.427 398.352 634.988 402.323 635.261C407.443 635.624 413.274 631.821 414.934 626.942C416.163 623.32 416.622 619.38 417.131 615.607C421.578 582.769 422.088 549.204 423.433 516.138C424.88 480.603 425.759 445.007 427.954 409.502C428.267 404.44 428.598 399.379 429.133 394.333C429.31 392.666 429.492 390.999 429.784 389.347C429.866 388.893 430.277 387.893 430.43 387.18C430.837 387.059 431.242 386.923 431.64 386.771C431.983 386.635 432.462 386.483 432.869 386.286C433.092 386.817 433.906 387.832 434.085 388.287C434.709 389.893 435.018 391.651 435.326 393.348C436.524 399.94 437.073 406.698 437.525 413.381C438.493 427.686 437.325 442.218 436.499 456.508C435.276 477.678 433.689 498.817 432.178 519.957C430.689 540.823 429.184 561.675 428.198 582.572C427.569 595.877 426.369 609.787 428.081 623.062C428.373 625.32 428.584 628.639 431.004 629.624C436.487 631.836 440.36 624.683 441.878 620.819C447.655 606.106 449.357 589.133 450.946 573.494C451.407 568.948 451.328 564.342 451.455 559.796C451.821 546.945 452.183 534.095 452.546 521.23C453.604 483.785 454.662 446.34 455.72 408.88C456.524 380.392 457.329 351.898 458.134 323.409C458.243 319.536 459.055 317.257 456.489 314.429Z" fill="#DF9C36"/>
<path d="M502.786 237.667C501.932 206.841 493.62 175.105 481.156 147.013C472.258 126.957 459.264 106.528 438.153 97.8469C422.19 91.2824 404.297 92.2204 387.566 94.6495C371.998 96.9089 354.706 102.325 339.127 97.8106C315.554 90.9778 296.839 72.4524 275.671 60.7962C255.912 49.9159 231.684 45.6986 212.747 60.6901C207.796 64.6089 203.964 69.6096 199.298 73.8223C195.422 77.3243 191.183 80.4096 186.769 83.1918C177.128 89.27 166.621 93.9039 156.045 98.0909C135.362 106.28 113.445 112.149 93.7405 122.638C79.6461 130.141 66.1093 141.579 68.2703 159.151C68.9855 164.961 71.4374 170.292 72.8133 175.943C74.306 182.077 74.9985 188.537 73.7756 194.78C71.8783 204.476 65.2774 211.408 58.24 217.843C52.0407 223.51 45.6913 229.155 42.5454 237.162C39.0904 246.83 40.2678 258.68 40.8527 268.706C41.5983 281.452 43.0212 294.231 45.3337 306.792C47.1233 316.52 50.0419 325.85 55.8064 334.021C63.6181 345.093 75.544 351.898 88.5474 355.08C102.49 358.495 117.753 359.555 132.093 359.01C138.529 358.752 146.721 357.07 151.965 357.373C161.127 357.888 170.51 363.253 178.534 367.329C189.543 372.936 200.147 379.27 211.025 385.104C220.298 390.09 229.87 394.5 240.11 397.076C251.59 399.97 263.606 400.5 275.371 399.455C301.106 397.167 324.979 387.362 349.466 379.891C384.582 369.178 421.167 359.495 451.978 338.725C467.096 328.536 480.259 315.504 489.15 299.483C499.609 280.638 503.377 259.052 502.786 237.667Z" fill="#B3513B"/>
<path d="M482.998 236.904C480.707 220.117 474.794 203.499 465.41 189.355C457.519 177.464 446.289 166.403 432.017 162.979C428.977 162.25 425.904 161.941 422.785 161.95C400.235 156.729 372.368 157.319 352.09 169.301C334.873 179.476 327.22 196.94 325.487 216.283C323.636 236.935 324.17 259.095 332.542 278.407C339.804 295.159 353.077 307.699 370.305 313.826C380.457 317.437 391.258 318.873 401.993 319.105C414.41 319.37 427.481 318.514 439.545 315.418C455.831 311.239 469.474 300.794 476.876 285.602C484.176 270.626 485.221 253.199 482.998 236.904Z" fill="#DF9C36"/>
<path d="M411.387 258.151C407.156 255.225 401.841 255.666 398.12 258.6C394.859 255.363 390.069 255.399 385.622 257.819C380.011 260.877 376.053 267.463 376.361 273.888C376.638 279.698 381.79 286.251 388.079 285.599C392.99 285.09 395.6 281.398 397.145 277.195C398.499 281.52 400.767 285.069 404.654 285.519C410.603 286.208 416.824 280.906 418.277 275.405C419.936 269.113 416.648 261.788 411.387 258.151Z" fill="white"/>
<path d="M372.251 226.465C372 225.188 371.569 224.013 371.037 223.156C370.122 221.677 369.187 221.613 368.714 221.706C366.994 222.045 366.747 224.92 367.245 227.449C367.496 228.725 367.926 229.901 368.457 230.757C369.211 231.98 369.98 232.237 370.492 232.237L370.78 232.208C371.254 232.115 372.095 231.702 372.383 229.984C372.548 228.991 372.503 227.741 372.251 226.465Z" fill="#040100"/>
<path d="M434.913 224.762C434.431 224.744 433.514 224.942 432.829 226.542C432.432 227.467 432.182 228.693 432.123 229.993C432.063 231.292 432.203 232.536 432.517 233.493C433.055 235.148 433.948 235.433 434.43 235.454L434.496 235.456C434.993 235.456 435.857 235.204 436.513 233.674C436.91 232.746 437.162 231.522 437.219 230.222C437.336 227.647 436.663 224.841 434.913 224.762Z" fill="#040100"/>
<path d="M419.326 162.888C413.746 161.668 408.093 160.708 402.427 159.982C398.374 159.46 394.272 159.047 390.182 159.122C387.706 159.171 384.7 159.253 382.537 160.654C382.381 160.709 382.278 160.789 382.246 160.891L382.24 160.905L382.221 160.953C382.837 175.31 383.588 189.663 384.432 204.009C385.1 215.362 385.832 226.714 386.759 238.05C387.437 246.317 388.022 254.688 389.513 262.857C389.781 264.324 389.935 267.644 391.752 267.886C393.895 268.173 396.276 267.886 398.434 267.886C400.522 267.886 402.611 267.886 404.7 267.886C404.935 267.886 405.507 267.833 405.55 267.521C407.148 255.779 408.749 244.034 410.347 232.292C412.898 213.564 415.448 194.837 417.998 176.108C418.585 171.797 419.173 167.486 419.759 163.173C419.784 162.994 419.434 162.911 419.326 162.888Z" fill="white"/>
<path d="M409.482 245.716C402.57 245.716 395.657 245.716 388.746 245.716C388.232 245.644 387.435 245.823 387.464 246.168C387.697 249.037 387.977 251.902 388.294 254.765C388.72 258.621 388.89 262.954 390.2 266.645C390.497 267.482 390.644 267.764 391.505 267.898C392.942 268.123 394.598 267.898 396.051 267.898C399.326 267.898 402.601 267.898 405.875 267.898C406.16 267.898 406.862 267.832 406.919 267.447C407.994 260.288 409.071 253.133 410.146 245.974C410.181 245.745 409.585 245.716 409.482 245.716Z" fill="#040100"/>
<path d="M416.125 286.178C412.959 287.839 409.562 288.919 406.297 286.934C403.852 285.449 402.192 282.859 401.036 280.303C399.466 276.836 398.508 272.902 398.201 269.104C398.122 268.124 394.911 268.444 394.778 269.42C393.926 275.596 391.765 286.17 384.178 287.551C381.821 287.981 379.078 287.243 377.045 286.069C376.257 285.613 373.065 286.405 374.153 287.033C377.378 288.898 381.586 289.498 385.21 288.789C391.277 287.601 394.526 282.815 396.352 277.387C396.992 279.377 397.808 281.297 398.84 283.044C403.252 290.516 411.5 290.67 418.636 286.922C420.204 286.099 416.911 285.766 416.125 286.178Z" fill="#1A1B1F"/>
<path d="M390.645 269.703C390.048 269.703 389.564 270.186 389.564 270.783C389.564 271.382 390.048 271.865 390.645 271.865C391.24 271.865 391.725 271.382 391.725 270.783C391.725 270.186 391.24 269.703 390.645 269.703Z" fill="#1A1B1F"/>
<path d="M409.012 265.022C409.012 264.425 408.529 263.94 407.934 263.94C407.336 263.94 406.852 264.425 406.852 265.022C406.852 265.619 407.336 266.101 407.934 266.101C408.529 266.101 409.012 265.619 409.012 265.022Z" fill="#1A1B1F"/>
<path d="M403.611 269.703C403.013 269.703 402.529 270.186 402.529 270.783C402.529 271.382 403.013 271.865 403.611 271.865C404.207 271.865 404.69 271.382 404.69 270.783C404.69 270.186 404.207 269.703 403.611 269.703Z" fill="#1A1B1F"/>
<path d="M408.293 269.344C408.293 269.94 408.778 270.425 409.373 270.425C409.97 270.425 410.454 269.94 410.454 269.344C410.454 268.747 409.97 268.264 409.373 268.264C408.778 268.264 408.293 268.747 408.293 269.344Z" fill="#1A1B1F"/>
<path d="M409.373 272.585C408.778 272.585 408.293 273.069 408.293 273.666C408.293 274.263 408.778 274.746 409.373 274.746C409.97 274.746 410.454 274.263 410.454 273.666C410.454 273.069 409.97 272.585 409.373 272.585Z" fill="#1A1B1F"/>
<path d="M387.764 263.94C387.165 263.94 386.682 264.425 386.682 265.022C386.682 265.619 387.165 266.101 387.764 266.101C388.359 266.101 388.843 265.619 388.843 265.022C388.843 264.425 388.359 263.94 387.764 263.94Z" fill="#1A1B1F"/>
<path d="M383.44 268.264C382.843 268.264 382.359 268.747 382.359 269.344C382.359 269.94 382.843 270.425 383.44 270.425C384.037 270.425 384.52 269.94 384.52 269.344C384.52 268.747 384.037 268.264 383.44 268.264Z" fill="#1A1B1F"/>
<path d="M386.322 272.585C385.725 272.585 385.24 273.069 385.24 273.666C385.24 274.263 385.725 274.746 386.322 274.746C386.918 274.746 387.403 274.263 387.403 273.666C387.403 273.069 386.918 272.585 386.322 272.585Z" fill="#1A1B1F"/>
<path d="M349.599 143.449C346.963 140.802 344.152 138.297 341.222 135.983C337.93 133.382 333.319 129.391 328.805 129.767C322.934 130.258 322.518 136.31 322.692 140.844C322.93 147.048 323.618 153.875 326.117 159.651C326.233 159.922 326.423 160.083 326.65 160.172C326.886 160.424 327.344 160.438 328.074 160.03C328.599 159.809 329.135 159.45 329.567 159.034C335.659 154.844 341.749 150.657 347.841 146.469C348.37 146.104 350.534 144.388 349.599 143.449Z" fill="#DF9C36"/>
<path d="M360.028 243.049C352.868 243.049 347.062 244.018 347.062 245.212C347.062 246.404 352.868 247.373 360.028 247.373C367.19 247.373 372.995 246.404 372.995 245.212C372.995 244.018 367.19 243.049 360.028 243.049Z" fill="#E06243"/>
<path d="M445.03 245.933C437.868 245.933 432.062 246.9 432.062 248.093C432.062 249.287 437.868 250.253 445.03 250.253C452.191 250.253 457.996 249.287 457.996 248.093C457.996 246.9 452.191 245.933 445.03 245.933Z" fill="#E06243"/>
<path d="M343.263 150.088C340.184 147.284 337.344 144.164 334.186 141.459C332.992 140.435 331.218 140.304 330.771 142.173C330.206 144.54 331.625 147.945 332.28 150.163C332.879 152.189 333.532 154.202 334.245 156.188C334.345 156.467 335.097 156.21 335.506 155.858C337.982 154.153 340.462 152.449 342.939 150.745C343.121 150.621 343.507 150.309 343.263 150.088Z" fill="#29100D"/>
<path d="M354.085 137.007C354.2 144.553 355.322 151.43 358.797 153.268C361.63 154.769 365.05 154.346 368.231 153.938C392.412 150.826 416.99 150.813 441.172 153.902C443.56 143.312 444.71 132.443 444.589 121.588C456.157 122.95 467.903 122.813 479.436 121.173C478.492 117.075 475.234 113.979 472.132 111.143C454.665 95.1647 437.744 77.3501 418.928 63.1162C416.809 61.5114 414.485 59.837 411.827 59.8218C410.393 59.8127 409.01 60.2991 407.658 60.778C398.846 63.9042 389.88 66.2015 381.242 69.8414C371.253 74.0511 361.324 78.4184 351.494 82.9902C342.897 86.9893 335.881 93.2568 326.81 96.5073C325.137 97.1089 323.034 98.3879 323.634 100.062C323.928 100.882 324.792 101.329 325.584 101.693C335.405 106.203 345.526 110.062 355.857 113.235C355.948 113.263 353.919 125.866 354.085 137.007Z" fill="#272525"/>
<path d="M400.534 93.7432C403.907 96.6981 409.749 93.184 407.559 88.797C406.382 86.4376 402.628 85.1874 400.517 87.0028C398.587 88.6621 398.62 92.0656 400.534 93.7432Z" fill="#070707"/>
<path d="M494.105 108.342C489.074 108.342 484.523 105.513 480.108 102.764C478.776 101.937 477.4 101.082 476.056 100.337C464.387 93.869 451.141 93.8902 437.118 93.9145C426.933 93.9266 416.409 93.9493 406.596 91.2262L407.023 89.682C416.626 92.3461 427.043 92.3294 437.115 92.3127C450.723 92.29 464.801 92.2673 476.831 98.9364C478.212 99.7017 479.605 100.567 480.953 101.405C485.693 104.352 490.594 107.404 495.839 106.61L496.078 108.194C495.411 108.294 494.755 108.342 494.105 108.342Z" fill="#F2BC41"/>
</g>
<path d="M472.692 160.568L472.722 160.448C474.252 154.87 474.274 148.747 473.899 143.041C473.561 137.894 473.067 131.67 466.33 132.564C458.361 133.62 451.411 143.319 446.833 149.222C446.442 149.729 447.03 150.427 447.452 150.647C454.385 154.249 461.319 157.851 468.252 161.454C469.523 162.299 472.225 162.212 472.592 160.96L472.692 160.568Z" fill="#DF9C36"/>
<path d="M467.4 149.571C467.347 147.53 467.085 144.611 464.27 145.084C461.972 145.469 460.03 148.334 458.707 150.015C457.482 151.571 456.322 153.19 455.25 154.857C455.183 154.96 455.312 155.098 455.514 155.222L455.573 155.266C458.364 157.09 461.157 158.915 463.948 160.738C464.198 160.901 465.074 161.217 465.271 160.827C466.988 157.452 467.496 153.299 467.4 149.571Z" fill="#29100D"/>
<path d="M497.303 119.188C500.628 123.882 504.194 128.413 507.982 132.759C508.262 133.081 508.596 133.426 509.031 133.438C509.388 133.449 509.707 133.226 509.99 133.013C513.668 130.249 517.203 127.304 520.576 124.196C520.849 123.943 521.142 123.652 521.16 123.287C521.178 122.952 520.96 122.657 520.754 122.39C519.858 121.243 518.964 120.097 518.07 118.95C515.198 115.269 512.186 111.469 507.955 109.358C499.282 105.025 491.125 110.467 497.303 119.188Z" fill="#F2BC41"/>
<path d="M492.467 107.159C491.144 109.835 492.542 113.739 496.4 113.875C502.776 114.101 503.027 104.322 496.472 104.695C494.447 104.81 493.123 105.833 492.467 107.159Z" fill="#F2BC41"/>
</g>
<defs>
<clipPath id="clip0_9001_5811">
<rect width="593" height="668" fill="white"/>
</clipPath>
</defs>
</svg>
