<svg width="266" height="138" viewBox="0 0 266 138" fill="none" xmlns="http://www.w3.org/2000/svg">
  <rect width="266" height="138" rx="8" fill="currentColor" />
  <path
    d="M45.7338 118V104.371H51.2358C52.2858 104.371 53.1573 104.535 53.8503 104.864C54.5433 105.186 55.0613 105.62 55.4043 106.166C55.7473 106.712 55.9188 107.318 55.9188 107.983C55.9188 108.753 55.7018 109.411 55.2678 109.957C54.8408 110.503 54.2388 110.888 53.4618 111.112C53.9728 111.217 54.4313 111.409 54.8373 111.689C55.2433 111.969 55.5618 112.323 55.7928 112.75C56.0308 113.177 56.1498 113.667 56.1498 114.22C56.1498 114.654 56.0728 115.091 55.9188 115.532C55.7718 115.973 55.5128 116.383 55.1418 116.761C54.7778 117.132 54.2773 117.433 53.6403 117.664C53.0103 117.888 52.2158 118 51.2568 118H45.7338ZM48.2118 115.837H51.1938C51.9848 115.837 52.5623 115.679 52.9263 115.364C53.2973 115.042 53.4828 114.612 53.4828 114.073C53.4828 113.534 53.2938 113.103 52.9158 112.781C52.5378 112.452 51.9638 112.288 51.1938 112.288H48.2118V115.837ZM48.2118 106.513V110.125H51.1308C51.8658 110.125 52.4223 109.964 52.8003 109.642C53.1853 109.313 53.3778 108.865 53.3778 108.298C53.3778 107.759 53.1888 107.328 52.8108 107.006C52.4398 106.677 51.8868 106.513 51.1518 106.513H48.2118ZM60.7999 105.946C60.3169 105.946 59.9389 105.82 59.6659 105.568C59.3999 105.309 59.2669 104.952 59.2669 104.497C59.2669 104.056 59.3999 103.706 59.6659 103.447C59.9389 103.181 60.3169 103.048 60.7999 103.048C61.2759 103.048 61.6504 103.181 61.9234 103.447C62.1964 103.706 62.3329 104.056 62.3329 104.497C62.3329 104.952 62.1964 105.309 61.9234 105.568C61.6504 105.82 61.2759 105.946 60.7999 105.946ZM59.5609 118V107.773H62.0389V118H59.5609ZM66.2416 118V103.594H68.7196V118H66.2416ZM76.399 118.294C75.545 118.294 74.7645 118.07 74.0575 117.622C73.3575 117.167 72.7975 116.533 72.3775 115.721C71.9645 114.902 71.758 113.947 71.758 112.855C71.758 111.777 71.9575 110.839 72.3565 110.041C72.7625 109.236 73.3015 108.616 73.9735 108.182C74.6525 107.741 75.405 107.521 76.231 107.521C76.987 107.521 77.6415 107.703 78.1945 108.067C78.7475 108.424 79.171 108.956 79.465 109.663C79.759 110.37 79.906 111.238 79.906 112.267H79.129C79.129 111.735 79.0205 111.283 78.8035 110.912C78.5865 110.534 78.2995 110.247 77.9425 110.051C77.5925 109.848 77.211 109.747 76.798 109.747C76.301 109.747 75.86 109.876 75.475 110.135C75.097 110.394 74.7995 110.758 74.5825 111.227C74.3655 111.689 74.257 112.232 74.257 112.855C74.257 113.499 74.3655 114.059 74.5825 114.535C74.7995 115.011 75.097 115.382 75.475 115.648C75.86 115.914 76.294 116.047 76.777 116.047C77.169 116.047 77.5435 115.942 77.9005 115.732C78.2645 115.515 78.5585 115.214 78.7825 114.829C79.0135 114.444 79.129 113.996 79.129 113.485H79.906C79.906 114.556 79.745 115.448 79.423 116.162C79.108 116.869 78.6845 117.401 78.1525 117.758C77.6205 118.115 77.036 118.294 76.399 118.294ZM79.591 118L79.129 115.48V103.594H81.628V118H79.591ZM89.3404 118.294C88.4724 118.294 87.6779 118.07 86.9569 117.622C86.2359 117.174 85.6584 116.547 85.2244 115.742C84.7904 114.93 84.5734 113.982 84.5734 112.897C84.5734 111.777 84.7869 110.814 85.2139 110.009C85.6479 109.204 86.2254 108.588 86.9464 108.161C87.6674 107.734 88.4654 107.521 89.3404 107.521C90.1524 107.521 90.8524 107.685 91.4404 108.014C92.0354 108.336 92.5114 108.777 92.8684 109.337C93.2324 109.89 93.4774 110.517 93.6034 111.217C93.7294 111.917 93.7364 112.638 93.6244 113.38H86.5474V112.036H91.8709L91.3879 112.351C91.4089 112.022 91.3914 111.689 91.3354 111.353C91.2864 111.017 91.1884 110.709 91.0414 110.429C90.8944 110.149 90.6844 109.925 90.4114 109.757C90.1454 109.582 89.8024 109.495 89.3824 109.495C88.8784 109.495 88.4514 109.621 88.1014 109.873C87.7514 110.125 87.4854 110.468 87.3034 110.902C87.1214 111.336 87.0304 111.826 87.0304 112.372V113.359C87.0304 113.933 87.1144 114.44 87.2824 114.881C87.4574 115.322 87.7129 115.669 88.0489 115.921C88.3919 116.173 88.8224 116.299 89.3404 116.299C89.8234 116.299 90.2294 116.187 90.5584 115.963C90.8874 115.739 91.0974 115.403 91.1884 114.955H93.6874C93.5824 115.613 93.3339 116.194 92.9419 116.698C92.5569 117.195 92.0564 117.587 91.4404 117.874C90.8244 118.154 90.1244 118.294 89.3404 118.294ZM96.6752 118V107.773H99.1532V118H96.6752ZM98.5442 113.527C98.5442 112.19 98.6947 111.084 98.9957 110.209C99.2967 109.334 99.6992 108.686 100.203 108.266C100.714 107.839 101.281 107.626 101.904 107.626C102.072 107.626 102.23 107.636 102.377 107.657C102.531 107.678 102.681 107.71 102.828 107.752L102.786 110.23C102.604 110.188 102.408 110.153 102.198 110.125C101.988 110.097 101.799 110.083 101.631 110.083C101.085 110.083 100.627 110.216 100.256 110.482C99.8917 110.741 99.6152 111.126 99.4262 111.637C99.2442 112.148 99.1532 112.778 99.1532 113.527H98.5442ZM117.224 118V112.036C117.224 111.28 117.042 110.709 116.678 110.324C116.314 109.939 115.838 109.747 115.25 109.747C114.753 109.747 114.312 109.883 113.927 110.156C113.549 110.429 113.251 110.842 113.034 111.395C112.817 111.941 112.709 112.624 112.709 113.443H111.89C111.89 112.12 112.054 111.021 112.383 110.146C112.712 109.264 113.178 108.606 113.78 108.172C114.382 107.738 115.089 107.521 115.901 107.521C116.741 107.521 117.441 107.71 118.001 108.088C118.568 108.459 118.991 108.984 119.271 109.663C119.558 110.342 119.702 111.133 119.702 112.036V118H117.224ZM110.231 118V103.594H112.709V118H110.231ZM124.764 105.946C124.281 105.946 123.903 105.82 123.63 105.568C123.364 105.309 123.231 104.952 123.231 104.497C123.231 104.056 123.364 103.706 123.63 103.447C123.903 103.181 124.281 103.048 124.764 103.048C125.24 103.048 125.614 103.181 125.887 103.447C126.16 103.706 126.297 104.056 126.297 104.497C126.297 104.952 126.16 105.309 125.887 105.568C125.614 105.82 125.24 105.946 124.764 105.946ZM123.525 118V107.773H126.003V118H123.525ZM137.198 118V112.036C137.198 111.28 137.016 110.709 136.652 110.324C136.288 109.939 135.812 109.747 135.224 109.747C134.727 109.747 134.286 109.883 133.901 110.156C133.523 110.429 133.226 110.842 133.009 111.395C132.792 111.941 132.683 112.624 132.683 113.443H131.864C131.864 112.12 132.029 111.021 132.358 110.146C132.687 109.264 133.152 108.606 133.754 108.172C134.356 107.738 135.063 107.521 135.875 107.521C136.715 107.521 137.415 107.71 137.975 108.088C138.542 108.459 138.966 108.984 139.246 109.663C139.533 110.342 139.676 111.133 139.676 112.036V118H137.198ZM130.205 118V107.815H132.368L132.683 109.831V118H130.205ZM142.533 118V115.984L147.825 109.81H142.533V107.815H150.555V109.81L145.431 115.984H150.555V118H142.533ZM160.47 107.773H162.948V118H160.47V107.773ZM153.477 107.773H155.955V114.031C155.955 114.696 156.119 115.196 156.448 115.532C156.777 115.861 157.229 116.026 157.803 116.026C158.293 116.026 158.737 115.9 159.136 115.648C159.542 115.389 159.864 115.011 160.102 114.514C160.347 114.01 160.47 113.387 160.47 112.645H161.142C161.142 113.891 160.981 114.923 160.659 115.742C160.337 116.561 159.892 117.174 159.325 117.58C158.758 117.986 158.104 118.189 157.362 118.189C156.634 118.189 155.976 118.06 155.388 117.8C154.8 117.541 154.334 117.125 153.991 116.551C153.648 115.977 153.477 115.221 153.477 114.283V107.773ZM167.441 118V106.576C167.441 105.841 167.584 105.242 167.871 104.78C168.158 104.318 168.536 103.979 169.005 103.762C169.481 103.538 169.996 103.426 170.549 103.426C170.892 103.426 171.245 103.45 171.609 103.499C171.973 103.548 172.327 103.608 172.67 103.678L172.187 105.589C172.012 105.526 171.83 105.477 171.641 105.442C171.452 105.4 171.27 105.379 171.095 105.379C170.899 105.379 170.713 105.417 170.538 105.494C170.363 105.564 170.22 105.69 170.108 105.872C169.996 106.054 169.94 106.303 169.94 106.618V118H167.441ZM165.929 109.453V107.815H171.809V109.453H165.929ZM181.347 107.773H183.825V118H181.347V107.773ZM174.354 107.773H176.832V114.031C176.832 114.696 176.996 115.196 177.325 115.532C177.654 115.861 178.106 116.026 178.68 116.026C179.17 116.026 179.614 115.9 180.013 115.648C180.419 115.389 180.741 115.011 180.979 114.514C181.224 114.01 181.347 113.387 181.347 112.645H182.019C182.019 113.891 181.858 114.923 181.536 115.742C181.214 116.561 180.769 117.174 180.202 117.58C179.635 117.986 178.981 118.189 178.239 118.189C177.511 118.189 176.853 118.06 176.265 117.8C175.677 117.541 175.211 117.125 174.868 116.551C174.525 115.977 174.354 115.221 174.354 114.283V107.773ZM181.368 106.009C180.962 106.009 180.615 105.876 180.328 105.61C180.041 105.344 179.898 105.011 179.898 104.612C179.898 104.213 180.041 103.881 180.328 103.615C180.615 103.342 180.962 103.205 181.368 103.205C181.802 103.205 182.159 103.342 182.439 103.615C182.719 103.881 182.859 104.213 182.859 104.612C182.859 105.011 182.719 105.344 182.439 105.61C182.159 105.876 181.802 106.009 181.368 106.009ZM177.336 106.009C176.909 106.009 176.555 105.876 176.275 105.61C176.002 105.344 175.866 105.018 175.866 104.633C175.866 104.22 176.002 103.884 176.275 103.625C176.555 103.359 176.909 103.226 177.336 103.226C177.77 103.226 178.127 103.359 178.407 103.625C178.687 103.884 178.827 104.22 178.827 104.633C178.827 105.018 178.687 105.344 178.407 105.61C178.127 105.876 177.77 106.009 177.336 106.009ZM191.657 123.271C190.488 123.271 189.487 123.11 188.654 122.788C187.828 122.466 187.194 122.043 186.753 121.518C186.312 121 186.092 120.436 186.092 119.827C186.092 119.106 186.354 118.546 186.879 118.147C187.404 117.755 188.066 117.559 188.864 117.559L190.67 118.231C189.984 118.231 189.455 118.361 189.084 118.62C188.713 118.879 188.528 119.239 188.528 119.701C188.528 120.184 188.804 120.569 189.357 120.856C189.917 121.15 190.684 121.297 191.657 121.297C192.364 121.297 192.976 121.192 193.494 120.982C194.012 120.772 194.411 120.499 194.691 120.163C194.978 119.827 195.122 119.47 195.122 119.092C195.122 118.84 195.038 118.634 194.87 118.473C194.702 118.312 194.443 118.231 194.093 118.231H190.67C189.984 118.231 189.357 118.123 188.79 117.905C188.23 117.681 187.782 117.384 187.446 117.013C187.117 116.635 186.953 116.215 186.953 115.753C186.953 115.326 187.072 114.958 187.31 114.65C187.548 114.335 187.87 114.094 188.276 113.926C188.689 113.758 189.151 113.674 189.662 113.674L190.292 114.493C190.089 114.493 189.893 114.535 189.704 114.619C189.522 114.696 189.371 114.811 189.252 114.965C189.133 115.119 189.074 115.312 189.074 115.543C189.074 115.823 189.193 116.05 189.431 116.225C189.669 116.4 190.082 116.488 190.67 116.488H194.093C195.178 116.488 196.028 116.687 196.644 117.086C197.267 117.485 197.579 118.098 197.579 118.924C197.579 119.659 197.337 120.356 196.854 121.014C196.371 121.679 195.685 122.221 194.796 122.641C193.914 123.061 192.868 123.271 191.657 123.271ZM191.783 114.85C190.978 114.85 190.239 114.699 189.567 114.398C188.902 114.09 188.37 113.663 187.971 113.117C187.572 112.571 187.373 111.931 187.373 111.196C187.373 110.447 187.572 109.796 187.971 109.243C188.37 108.69 188.902 108.266 189.567 107.972C190.239 107.671 190.978 107.521 191.783 107.521C192.567 107.521 193.291 107.671 193.956 107.972C194.621 108.266 195.157 108.69 195.563 109.243C195.969 109.796 196.172 110.447 196.172 111.196C196.172 111.931 195.969 112.571 195.563 113.117C195.157 113.663 194.621 114.09 193.956 114.398C193.291 114.699 192.567 114.85 191.783 114.85ZM191.804 113.128C192.448 113.128 192.931 112.942 193.253 112.571C193.575 112.2 193.736 111.742 193.736 111.196C193.736 110.608 193.571 110.135 193.242 109.778C192.92 109.421 192.434 109.243 191.783 109.243C191.153 109.243 190.67 109.421 190.334 109.778C189.998 110.135 189.83 110.608 189.83 111.196C189.83 111.742 189.998 112.2 190.334 112.571C190.677 112.942 191.167 113.128 191.804 113.128ZM195.395 109.159L194.261 108.508C194.261 107.899 194.401 107.367 194.681 106.912C194.968 106.45 195.346 106.093 195.815 105.841C196.291 105.589 196.816 105.463 197.39 105.463L197.264 107.836C196.655 107.836 196.189 107.944 195.867 108.161C195.552 108.371 195.395 108.704 195.395 109.159ZM203.754 118.294C202.886 118.294 202.091 118.07 201.37 117.622C200.649 117.174 200.072 116.547 199.638 115.742C199.204 114.93 198.987 113.982 198.987 112.897C198.987 111.777 199.2 110.814 199.627 110.009C200.061 109.204 200.639 108.588 201.36 108.161C202.081 107.734 202.879 107.521 203.754 107.521C204.566 107.521 205.266 107.685 205.854 108.014C206.449 108.336 206.925 108.777 207.282 109.337C207.646 109.89 207.891 110.517 208.017 111.217C208.143 111.917 208.15 112.638 208.038 113.38H200.961V112.036H206.284L205.801 112.351C205.822 112.022 205.805 111.689 205.749 111.353C205.7 111.017 205.602 110.709 205.455 110.429C205.308 110.149 205.098 109.925 204.825 109.757C204.559 109.582 204.216 109.495 203.796 109.495C203.292 109.495 202.865 109.621 202.515 109.873C202.165 110.125 201.899 110.468 201.717 110.902C201.535 111.336 201.444 111.826 201.444 112.372V113.359C201.444 113.933 201.528 114.44 201.696 114.881C201.871 115.322 202.126 115.669 202.462 115.921C202.805 116.173 203.236 116.299 203.754 116.299C204.237 116.299 204.643 116.187 204.972 115.963C205.301 115.739 205.511 115.403 205.602 114.955H208.101C207.996 115.613 207.747 116.194 207.355 116.698C206.97 117.195 206.47 117.587 205.854 117.874C205.238 118.154 204.538 118.294 203.754 118.294ZM218.081 118V112.036C218.081 111.28 217.899 110.709 217.535 110.324C217.171 109.939 216.695 109.747 216.107 109.747C215.61 109.747 215.169 109.883 214.784 110.156C214.406 110.429 214.109 110.842 213.892 111.395C213.675 111.941 213.566 112.624 213.566 113.443H212.747C212.747 112.12 212.912 111.021 213.241 110.146C213.57 109.264 214.035 108.606 214.637 108.172C215.239 107.738 215.946 107.521 216.758 107.521C217.598 107.521 218.298 107.71 218.858 108.088C219.425 108.459 219.849 108.984 220.129 109.663C220.416 110.342 220.559 111.133 220.559 112.036V118H218.081ZM211.088 118V107.815H213.251L213.566 109.831V118H211.088Z"
    fill="#404040" />
  <rect x="92" y="23" width="58" height="38" rx="3" fill="#FFF5E9" />
  <rect x="92" y="23" width="58" height="38" rx="3" stroke="#57534F" stroke-width="2" />
  <rect x="101" y="26.7363" width="42.9282" height="2.63846" fill="black" fill-opacity="0.08" />
  <rect x="115.211" y="36.375" width="13.9823" height="12.0498" fill="#57534F" />
  <path
    d="M116.044 50.625C115.54 50.625 115.108 50.4372 114.749 50.0615C114.39 49.6858 114.21 49.2348 114.211 48.7083V35.2917C114.211 34.7646 114.391 34.3132 114.75 33.9375C115.109 33.5619 115.541 33.3744 116.044 33.375H128.878C129.382 33.375 129.814 33.5628 130.173 33.9385C130.532 34.3142 130.712 34.7652 130.711 35.2917V48.7083C130.711 49.2354 130.531 49.6868 130.172 50.0625C129.813 50.4381 129.381 50.6256 128.878 50.625H116.044ZM116.961 46.7917H127.961L124.523 42L121.773 45.8333L119.711 42.9583L116.961 46.7917Z"
    fill="#FFD59D" />
  <rect x="101" y="54.625" width="42.9282" height="2.63846" fill="black" fill-opacity="0.08" />
  <rect x="104" y="35" width="58" height="38" rx="3" fill="#FFF5E9" />
  <rect x="104" y="35" width="58" height="38" rx="3" stroke="#57534F" stroke-width="2" />
  <rect x="113" y="38.7363" width="42.9282" height="2.63846" fill="black" fill-opacity="0.08" />
  <rect x="127.211" y="48.375" width="13.9823" height="12.0498" fill="#57534F" />
  <path
    d="M128.044 62.625C127.54 62.625 127.108 62.4372 126.749 62.0615C126.39 61.6858 126.21 61.2348 126.211 60.7083V47.2917C126.211 46.7646 126.391 46.3132 126.75 45.9375C127.109 45.5619 127.541 45.3744 128.044 45.375H140.878C141.382 45.375 141.814 45.5628 142.173 45.9385C142.532 46.3142 142.712 46.7652 142.711 47.2917V60.7083C142.711 61.2354 142.531 61.6868 142.172 62.0625C141.813 62.4381 141.381 62.6256 140.878 62.625H128.044ZM128.961 58.7917H139.961L136.523 54L133.773 57.8333L131.711 54.9583L128.961 58.7917Z"
    fill="#FFD59D" />
  <rect x="113" y="66.625" width="42.9282" height="2.63846" fill="black" fill-opacity="0.08" />
  <rect x="116" y="47" width="58" height="38" rx="3" fill="#FFF5E9" />
  <rect x="116" y="47" width="58" height="38" rx="3" stroke="#57534F" stroke-width="2" />
  <rect x="125" y="50.7363" width="42.9282" height="2.63846" fill="black" fill-opacity="0.08" />
  <rect x="139.211" y="60.375" width="13.9823" height="12.0498" fill="#57534F" />
  <path
    d="M140.044 74.625C139.54 74.625 139.108 74.4372 138.749 74.0615C138.39 73.6858 138.21 73.2348 138.211 72.7083V59.2917C138.211 58.7646 138.391 58.3132 138.75 57.9375C139.109 57.5619 139.541 57.3744 140.044 57.375H152.878C153.382 57.375 153.814 57.5628 154.173 57.9385C154.532 58.3142 154.712 58.7652 154.711 59.2917V72.7083C154.711 73.2354 154.531 73.6868 154.172 74.0625C153.813 74.4381 153.381 74.6256 152.878 74.625H140.044ZM140.961 70.7917H151.961L148.523 66L145.773 69.8333L143.711 66.9583L140.961 70.7917Z"
    fill="#FFD59D" />
  <rect x="125" y="78.625" width="42.9282" height="2.63846" fill="black" fill-opacity="0.08" />
</svg>