<svg viewBox="0 0 90 60" fill="none" xmlns="http://www.w3.org/2000/svg"
  preserveAspectRatio="xMidYMid meet">
  <rect width="90" height="60" rx="4.2" fill="#FFF5E9" />
  <rect x="16.9662" y="8.62242" width="19.0504" height="19.1864" rx="1.63289" fill="#FFF5E9" />
  <rect x="16.9662" y="8.62242" width="19.0504" height="19.1864" rx="1.63289" stroke="#57534F"
    stroke-width="1.08859" />
  <rect x="22.5469" y="15.1484" width="7.61051" height="6.55868" fill="#57534F" />
  <path
    d="M22.9979 22.9086C22.7235 22.9086 22.4885 22.8064 22.2929 22.6019C22.0973 22.3975 21.9997 22.152 22 21.8654V14.5628C22 14.2759 22.0978 14.0302 22.2934 13.8257C22.489 13.6212 22.7238 13.5192 22.9979 13.5195H29.983C30.2574 13.5195 30.4924 13.6218 30.688 13.8262C30.8836 14.0307 30.9812 14.2762 30.9809 14.5628V21.8654C30.9809 22.1523 30.8831 22.398 30.6875 22.6025C30.4919 22.8069 30.2571 22.909 29.983 22.9086H22.9979ZM23.4968 20.8222H29.4841L27.6131 18.2141L26.1162 20.3006L24.9936 18.7357L23.4968 20.8222Z"
    fill="#FFD59D" />
  <rect x="40.3724" y="8.62242" width="32.6578" height="19.1864" rx="1.63289" fill="#FFF5E9" />
  <rect x="40.3724" y="8.62242" width="32.6578" height="19.1864" rx="1.63289" stroke="#57534F"
    stroke-width="1.08859" />
  <rect x="52.7578" y="15.1484" width="7.61051" height="6.55868" fill="#57534F" />
  <path
    d="M53.2088 22.9086C52.9344 22.9086 52.6994 22.8064 52.5038 22.6019C52.3082 22.3975 52.2106 22.152 52.2109 21.8654V14.5628C52.2109 14.2759 52.3087 14.0302 52.5043 13.8257C52.6999 13.6212 52.9347 13.5192 53.2088 13.5195H60.194C60.4684 13.5195 60.7034 13.6218 60.899 13.8262C61.0945 14.0307 61.1922 14.2762 61.1918 14.5628V21.8654C61.1918 22.1523 61.094 22.398 60.8985 22.6025C60.7029 22.8069 60.468 22.909 60.194 22.9086H53.2088ZM53.7078 20.8222H59.695L57.824 18.2141L56.3272 20.3006L55.2046 18.7357L53.7078 20.8222Z"
    fill="#FFD59D" />
  <rect x="16.9662" y="32.1888" width="32.6578" height="19.1864" rx="1.63289" fill="#FFF5E9" />
  <rect x="16.9662" y="32.1888" width="32.6578" height="19.1864" rx="1.63289" stroke="#57534F"
    stroke-width="1.08859" />
  <rect x="29.3516" y="38.7227" width="7.61051" height="6.55868" fill="#57534F" />
  <path
    d="M29.8026 46.4751C29.5281 46.4751 29.2931 46.3728 29.0976 46.1683C28.902 45.9639 28.8044 45.7184 28.8047 45.4318V38.1292C28.8047 37.8423 28.9025 37.5966 29.0981 37.3921C29.2936 37.1877 29.5285 37.0856 29.8026 37.0859H36.7877C37.0621 37.0859 37.2971 37.1882 37.4927 37.3926C37.6883 37.5971 37.7859 37.8426 37.7856 38.1292V45.4318C37.7856 45.7187 37.6878 45.9644 37.4922 46.1689C37.2966 46.3733 37.0618 46.4754 36.7877 46.4751H29.8026ZM30.3015 44.3886H36.2888L34.4177 41.7805L32.9209 43.867L31.7983 42.3021L30.3015 44.3886Z"
    fill="#FFD59D" />
  <rect x="53.9818" y="32.1888" width="19.0504" height="19.1864" rx="1.63289" fill="#FFF5E9" />
  <rect x="53.9818" y="32.1888" width="19.0504" height="19.1864" rx="1.63289" stroke="#57534F"
    stroke-width="1.08859" />
  <rect x="59.5547" y="38.7227" width="7.61051" height="6.55868" fill="#57534F" />
  <path
    d="M60.0135 46.4751C59.7391 46.4751 59.5041 46.3728 59.3085 46.1683C59.1129 45.9639 59.0153 45.7184 59.0156 45.4318V38.1292C59.0156 37.8423 59.1134 37.5966 59.309 37.3921C59.5046 37.1877 59.7394 37.0856 60.0135 37.0859H66.9986C67.2731 37.0859 67.5081 37.1882 67.7036 37.3926C67.8992 37.5971 67.9968 37.8426 67.9965 38.1292V45.4318C67.9965 45.7187 67.8987 45.9644 67.7031 46.1689C67.5076 46.3733 67.2727 46.4754 66.9986 46.4751H60.0135ZM60.5124 44.3886H66.4997L64.6287 41.7805L63.1319 43.867L62.0093 42.3021L60.5124 44.3886Z"
    fill="#FFD59D" />
</svg>