<svg width="84" height="64" viewBox="0 0 84 64" fill="none" xmlns="http://www.w3.org/2000/svg">
  <rect x="1" y="1" width="58" height="38" rx="3" fill="#FFF5E9" />
  <rect x="1" y="1" width="58" height="38" rx="3" stroke="#57534F" stroke-width="2" />
  <rect x="10" y="4.73633" width="42.9282" height="2.63846" fill="black" fill-opacity="0.08" />
  <rect x="24.2109" y="14.375" width="13.9823" height="12.0498" fill="#57534F" />
  <path
    d="M25.0443 28.625C24.5401 28.625 24.1084 28.4372 23.749 28.0615C23.3897 27.6858 23.2103 27.2348 23.2109 26.7083V13.2917C23.2109 12.7646 23.3906 12.3132 23.7499 11.9375C24.1093 11.5619 24.5407 11.3744 25.0443 11.375H37.8776C38.3818 11.375 38.8135 11.5628 39.1729 11.9385C39.5322 12.3142 39.7115 12.7652 39.7109 13.2917V26.7083C39.7109 27.2354 39.5313 27.6868 39.1719 28.0625C38.8126 28.4381 38.3812 28.6256 37.8776 28.625H25.0443ZM25.9609 24.7917H36.9609L33.5234 20L30.7734 23.8333L28.7109 20.9583L25.9609 24.7917Z"
    fill="#FFD59D" />
  <rect x="10" y="32.625" width="42.9282" height="2.63846" fill="black" fill-opacity="0.08" />
  <rect x="13" y="13" width="58" height="38" rx="3" fill="#FFF5E9" />
  <rect x="13" y="13" width="58" height="38" rx="3" stroke="#57534F" stroke-width="2" />
  <rect x="22" y="16.7363" width="42.9282" height="2.63846" fill="black" fill-opacity="0.08" />
  <rect x="36.2109" y="26.375" width="13.9823" height="12.0498" fill="#57534F" />
  <path
    d="M37.0443 40.625C36.5401 40.625 36.1084 40.4372 35.749 40.0615C35.3897 39.6858 35.2103 39.2348 35.2109 38.7083V25.2917C35.2109 24.7646 35.3906 24.3132 35.7499 23.9375C36.1093 23.5619 36.5407 23.3744 37.0443 23.375H49.8776C50.3818 23.375 50.8135 23.5628 51.1729 23.9385C51.5322 24.3142 51.7115 24.7652 51.7109 25.2917V38.7083C51.7109 39.2354 51.5313 39.6868 51.1719 40.0625C50.8126 40.4381 50.3812 40.6256 49.8776 40.625H37.0443ZM37.9609 36.7917H48.9609L45.5234 32L42.7734 35.8333L40.7109 32.9583L37.9609 36.7917Z"
    fill="#FFD59D" />
  <rect x="22" y="44.625" width="42.9282" height="2.63846" fill="black" fill-opacity="0.08" />
  <rect x="25" y="25" width="58" height="38" rx="3" fill="#FFF5E9" />
  <rect x="25" y="25" width="58" height="38" rx="3" stroke="#57534F" stroke-width="2" />
  <rect x="34" y="28.7363" width="42.9282" height="2.63846" fill="black" fill-opacity="0.08" />
  <rect x="48.2109" y="38.375" width="13.9823" height="12.0498" fill="#57534F" />
  <path
    d="M49.0443 52.625C48.5401 52.625 48.1084 52.4372 47.749 52.0615C47.3897 51.6858 47.2103 51.2348 47.2109 50.7083V37.2917C47.2109 36.7646 47.3906 36.3132 47.7499 35.9375C48.1093 35.5619 48.5407 35.3744 49.0443 35.375H61.8776C62.3818 35.375 62.8135 35.5628 63.1729 35.9385C63.5322 36.3142 63.7115 36.7652 63.7109 37.2917V50.7083C63.7109 51.2354 63.5313 51.6868 63.1719 52.0625C62.8126 52.4381 62.3812 52.6256 61.8776 52.625H49.0443ZM49.9609 48.7917H60.9609L57.5234 44L54.7734 47.8333L52.7109 44.9583L49.9609 48.7917Z"
    fill="#FFD59D" />
  <rect x="34" y="56.625" width="42.9282" height="2.63846" fill="black" fill-opacity="0.08" />
</svg>