<svg width="354" height="132" fill="none" xmlns="http://www.w3.org/2000/svg">
    <path d="M133 .6c-.5.4-.9.4-1.3.2-.9-.6-4.7.8-5.3 1.9-.3.6-.4.4-.2-.6l.3-1.5-2.1.3c-3.2.4-4.1.5-4.7.2a10 10 0 00-4.5.4c-.4.2-.7.2-.8-.1-.2-.4-.5-.4-1.9 0-1 .3-1.9.3-2.5 0-.7-.2-1.2-.2-2 .4-.8.6-1.3.7-3 .5a13 13 0 00-2.6-.1l-3.3.2c-4.3.2-4.4.2-4.4.5 0 .1-.7.2-1.6 0-1.4 0-1.5 0-1.3.7.2.5 0 .8-.4.8s-.7-.3-.7-.6-.5-.5-1.5-.5c-.8 0-1.5.2-1.5.4 0 .3-.7.5-2 .5-2.3 0-3 .4-2 1 .6.1.6.2.2.3-.3 0-.6.2-.6.5s-.4.5-.8.5-.7-.2-.7-.5.2-.5.5-.5.5-.2.5-.4c0-.6-1.4-.4-1.7.1-.1.3-.7.5-1.4.4-1.1-.2-1.2-.1-1 1 .2 1.3 1.4 2.1 2 1.5.2-.2 1-.3 1.7-.4h2a8 8 0 011.7.1c.9.2 1.1.1 1.1-.3 0-.5.3-.5 1.3-.2 2 .5 3.7.4 3.7-.2 0-.3.5-.6 1.2-.6.8 0 1.3.3 1.3.5 0 .7 4 .8 4.3.1.1-.3.8-.5 1.5-.5 2.6 0 3.1 0 3.1-.6 0-.3.3-.5.6-.5h1.8c1 0 1-.1.6-.8-.4-.6-.4-.6.2-.5.4.1.8.5.8.7 0 .3.3.6.7.6.3 0 .8.2 1 .5.4.8 6.3.6 7.7-.3 1-.6 2.2-.8 1.8-.3-.2.2.3.4 1 .5.6.1 1.3 0 1.5-.1.1-.2.4-.3.7-.1.2 0 .5 0 .5-.2s.4-.4 1-.4c.5 0 .9.2.7.4-.2.2.5.3 1.8.3 1.4 0 1.7-.1.8-.2-1-.1-1.2-.3-1-.7.1-.3.4-.5.6-.3.4.5 2.4 1.2 3.2 1.2.4 0 1.7-.7 3-1.6 1.5-1 2.2-1.4 2.2-1 0 .4-.6 1-1.4 1.3-1.7.7-1.6 1.3.3 1.3.8 0 1-.1.9-.4-.3-.3-.1-.3.5 0 1.1.4 2.7.1 2.7-.5 0-.3.2-.5.5-.5s.5.2.5.4c0 .8 5.9.7 6.1 0 .2-.5.3-.5.3 0 0 .8 1 .9 2 .2.4-.3.5-.3.5 0 0 .5 8.7.5 9.8 0 .3-.2.7 0 .8.2.2.3.4.3.8 0 .2-.4.4-.7.2-.9-.1-.2.1-.2.6 0 .4 0 .7.3.7.6 0 .4 1 .5 4.7.5h6.5c7 .2 7.4.2 7.6-.2 0-.3.4-.3.9 0 1 .8 4 .8 6.2.1 1.4-.4 1.8-.4 2.6 0 1.2.6 2.2.7 1.4 0-.8-.5-.8-1 .1-1 .4 0 .8.3.8.6s.4.6.8.6l2.4.1c.8 0 1.6 0 1.8-.3.3-.3.4-.2.4 0 0 .3.5.5 1.1.5.8 0 1 0 .5-.3-.5-.2-.5-.4.1-.7.6-.4.8-.3 1.3.3.3.4.8.6 1.3.5.4-.1 1 0 1.3.1 1 .6 2.6.7 3.5.2.6-.4.8-.4.8-.1 0 .4 1.6.5 2.2.2.7-.6 4.2-.5 4.7 0 .4.6 2.5.7 5.7.4 1 0 2.5 0 3.3.2h1.5c0-.2.6-.3 1.2-.3.7 0 1.3.2 1.3.4 0 .6 1.8 1 2 .5.2-.2 1-.5 2-.6 1.7-.3 2-.3 2 .4 0 .6.1.7 1.8.5 1-.2 1.7-.2 1.5 0-.6.4 2.7 1.2 3.4.8.3-.2.7-.2.9 0 .2.3 1.2.4 2.2.4 1 0 2 .1 2.2.3.6.4 5.5.4 6.2 0 .4-.3.6-.2.6.2 0 .5.4.7 2.3.6l4 .2c1.1.2 1.8.1 2-.2.4-.3.6-.3 1.1 0 1 .8 3.3 1.5 3.7 1.2.6-.5 2.7-.3 3 .2.2.4.4.4 1 0 .7-.4 2-.1 1.5.4-.2.2 1.2.3 3 .1.4 0 .7-.3.7-.7 0-.5.1-.5.4 0l1 .9c.4.2.6.5.4.7-.2.3 0 .4.6.2a7 7 0 012.8.5c1 .3 2.9.6 4.2.6 1.4 0 2.5.2 2.5.3 0 .2.3.3.7.3.4 0 .8-.1.8-.4 0-.2.3-.3.7-.1.4 0 .8 0 .8-.2 0-.6 1.3-.4 1.6.2.5.9.5 1-1 1-1.1 0-1.2 0-.3.5.6.5.9.5 1 .2.2-.3.7-.1 1.9.5 1 .6 1.9.8 2.4.7.6-.2 1 0 1.3.2.3.3.9.5 1.3.5.5 0 1 .2 1 .5l.1.8c.2.8 4.5 1.5 4.5.7 0-.3.4-.1.8.3.4.5.7 1 .5 1.2-.3.4.7 1 2.4 1.2.8.2 1.9.8 2.7 1.7.7.8 1.6 1.4 2 1.4.3 0 .7.5.9 1 .2.6.7 1.4 1.2 1.8.7.4.8 1 .6 1.4-.2.4-.3 1.4-.3 2.2 0 .8-.2 1.8-.6 2.3-.4.4-.7 1-.7 1.3 0 .4-.3.6-.5.5-.3 0-.8.3-1.2.8a4 4 0 01-1.7 1.3c-.6.2-1.1.6-1.1 1 0 .3-.3.7-.7.9-.4.2-.8.8-.9 1.4 0 .8-.4 1-1.1 1.1a12 12 0 00-5.2 2l-1.4.8c-.3-.2-5 1.3-6 2-.3.2-.6.6-.6.8 0 .3-.4.4-1 .3-.4-.1-1.6.1-2.4.5-.9.4-1.9.7-2.3.7-.4 0-1.5.5-2.5 1.1-1 .7-2.3 1.2-2.8 1.1-.6 0-.9.1-.9.7s-.2.7-1.3.5c-1-.2-1.3-.2-1 .3.2.4 0 .6-.5.6s-.6-.2-.5-.5c.2-.4 0-.6-.6-.6s-1 .2-1 .3c0 .2-.3.4-.6.4-5.5.6-8.2 1.3-8.4 2.4-.2.7-.3.7-1 .2-.7-.6-.7-.6-5 .4l-3.7.5c-1 .1-2 .4-2.4.6-.3.2-1.9.4-3.5.5-1.6.2-4 .7-5.3 1.2-1.9.7-2.5.8-3 .5-.6-.3-1-.4-1.8 0-.5.1-1.7.3-2.7.3-.9 0-2.3.3-3.2.6-1 .3-3.5.6-6.6.7-2.8.1-5.4.3-5.9.5s-2.4.4-4.3.4c-1.8 0-4.3.3-5.4.6-1 .2-3.4.5-5.2.5-2.2 0-3.5.3-4.3.8-1 .5-1.3.6-2 .1-.4-.4-1-.4-1.8-.2-.7.2-2 .3-3.1.3H191c-1 0-1.8.2-2 .4-.1.2-.8.4-1.4.4a3 3 0 00-1.8.5c-.5.5-.7.5-1.2.1-.8-.6-6.5-.4-7.6.2-.5.3-.8.3-1 0-.4-.4-1.9-.5-6-.5-6 0-8 .4-8 1.4 0 .6 0 .6-.5 0s-.7-.6-1-.2c-.4.4-.5.3-.7-.2-.2-.5-.8-.8-1.8-.9-.8 0-1.4.1-1.4.3 0 .2-.7.2-1.5.2-.8-.1-1.5 0-1.5.2 0 .4-1.5.6-3 .3-1-.2-1.5 0-1.9.5-.3.3-1 .7-1.4.7-.7 0-.7-.1-.3-.5 1.3-1 .6-1.2-2.8-1.1-2 0-3.6-.1-3.8-.3-.4-.4-2.6.4-2.8 1-.2.6-.3.5-.3 0 0-.6-.5-.7-4-.6-2 0-4.3.3-4.9.4-.6.2-1.2.1-1.4 0-.1-.3-.6-.4-1-.2l-1.4-.1c-1.6-1-3.7-.6-4.4.6-.2.5-.3.4-.3 0 0-.5-.4-.7-1.4-.7H116c-1.3-.2-2 1-1 1.5.4.1.5.4.3.6-.5.6-1.3.5-1.3-.1 0-.3-.2-.5-.5-.5s-.3-.3 0-.8c.6-.8.5-.8-2-.7-1.8.1-2.4 0-2.4-.3 0-.4-.2-.4-.8 0-.4.2-.7.2-.7 0s-1.3-.4-3.1-.4l-8.7-.1c-3 0-5.4 0-5.3.1.3.4-1.2 0-2.7-.7-.8-.4-1.4-.5-2-.2a3 3 0 01-1.8.1c-1.4-.4-5.2-.4-7.4 0-1.4.4-2 .4-2.3 0-.2-.2-1.6-.4-3.2-.5-2.4 0-3.1.1-4 .8-1.4 1-2.4 1.1-1.6.1.7-.8.2-1.4-.7-.8-.8.6-1.6.5-.9-.1.4-.3.6-.6.5-.6l-3.3-.2c-2.9-.2-3.3-.1-4.5.7l-1.2.8.3-1c.4-1 .4-1-3-1.2-1.2 0-2.1.1-2.1.3 0 .2-.4 0-.8-.2-.5-.3-1.2-.6-1.7-.6L47 62c-.1-.2-1.1-.3-2.2-.4-4.7-.2-7.7-.5-8.4-1-.4-.2-.8-.2-1.4.2-.7.4-1 .4-1.5-.2-.4-.5-.7-.5-.9-.2-.2.4-.3.4-.6 0-.3-.2-1-.3-1.6-.2-.7 0-2.4-.2-4-.6-1.5-.4-3.1-.6-3.6-.5-.6.2-1 0-1-.2 0-.4 0-.4-.4 0-.4.5-.6.5-1.4-.2-.4-.5-2.1-1.2-3.7-1.6l-2.8-1c0-.2-.8-.2-1.8-.2-1.6.2-1.7.1-1.7-.8 0-.7-.3-1-1.5-1.1-1.1-.2-2-.7-2.8-1.8a6.1 6.1 0 01-1.2-1.6s-.2-.3-.6-.5c-.4-.3-.9-1.4-1-2.5-.3-1.9-.2-2.2.6-2.6.6-.2 1-.8 1-1.3 0-.4.3-.8.5-.8.3 0 .9-.6 1.3-1.3.5-.7 1.1-1.2 1.5-1.2.4 0 .7-.2.7-.5 0-.2.5-.6 1-.9.5-.2 1-.8 1-1.1 0-.4.4-.8 1-1 .9 0 1-.3.8-1-.3-1 .3-1.3 1-.6 0 .2.4.3.6.3.7 0 1.1-1 .7-1.5-.2-.3-.3-.7-.2-1 0-.4-.1-.7-.4-.7-.3 0-.5.1-.3.3.2.2-.3.5-1 .6-.6.1-1.3.5-1.5 1-.1.3-.5.6-.7.6-.3 0-.5.2-.5.5 0 .2-.6.8-1.3 1.2-.7.5-1.6 1.2-1.9 1.7a5 5 0 01-2.1 1.3c-1 .3-1.6.9-1.6 1.2 0 .4-.3.6-.8.4-.9-.2-1 .2-.3 1.5.4.8.4 1-.5 1.3-.5.2-.8.6-.6.8.1.2 0 .6-.4.9-.4.4-.5.7 0 1.2.3.4.3.8 0 1.1-.6.7-.5 2.6 0 2.6.3 0 .6.4.6 1 0 .5.2.8.3.5.3-.6 1-.6 1 0-.1.8 1.8 3.2 2.5 3.2.3 0 .6.2.6.5s.4.4 1 .3c.6 0 1.2.2 2 1 .6.6 1.5 1 2 1 .6 0 1 .3 1 .6s.3.6.7.6c.4 0 .8.2.8.4s.3.3.6.2c.3 0 .6-.3.5-.6 0-.2.2-.3.6-.1.4 0 .8.4.8.6 0 .5 2.8 1.7 3.9 1.7.3 0 .5.1.5.3 0 .1.7.3 1.6.3.8 0 1.9.3 2.4.6.6.4 1.3.5 2.2.4.7-.2 1.3-.1 1.3.1s.4.3 1 .2c1-.2 1.2-.7.3-1-.3 0-.1-.2.5-.2.7 0 1.1.2 1.1.5 0 .6 2.8 1.5 4.4 1.4.6 0 1 0 1 .2 0 .6 1.6.8 2.4.4.5-.3.7-.3.7.1 0 .5.7.7 3 .8l4.6.2c1.2 0 1.4-.2 1.1-1-.2-.8 0-1.1.5-1.3 1.1-.3 1.3-.3 1 .4-.3.4-.1.5.7.4 1.2-.3 1.2.1 0 .8-1 .5-1 .6-.2 1.2.6.4 1 .5 1.6.3.5-.2 1.1-.2 1.5 0 .4.1.9.2 1 .1.3 0 1 0 1.8.2.8.3 2.6.5 4 .6l3.3.4c.6.1.9 0 .6-.2-.5-.6.5-.5 1.2.1 1 .8 1.5.7 1.5-.2 0-.6.2-.7.6-.4l2.3.7c1.5.4 1.6.4 1.6-.4 0-.5.3-1 1-1 .8-.2.9-.1.5.3-.7 1 1 1.9 3.8 1.9 1.3 0 3.3.1 4.5.3 1.2.2 2.2.3 2.4 0 .1-.1 0-.3-.3-.3s-.5 0-.5-.2c0-.5 2.8-1.2 3.5-.9.3.2.1.4-.6.6l-1.2.2 1.2.7c1.4.9 8.4 1 8.8.2.4-.7 1.2-.7 1.2 0 0 .3.4.5 1.2.5 1 0 1.2-.1 1.2-1 0-.8-.4-1.1-1-1.2-1-.1-1-.2-.3-.6.6-.4.9-.2 2 1.3l1.1 1.7.3-1.1c.1-.6 0-1.4-.1-1.9-.3-.6-.2-.7.3-.6.4.1.7.4.7.7 0 .2.2.2.5-.1.6-.7 1.6-.2 1.3.7-.2.4-.1.7.2.7.2 0 .6.3.8.7.1.4.6.7 1 .7s.7.2.7.4c0 .5 1.8.5 3 0 .9-.3 1.2-.3 1.5 0 .4.4.4.4.5 0 0-.9 1.3-1 2.4-.2a8 8 0 002.6.7c1.5.1 1.9 0 1.9-.4 0-.5 1.2-.4 3 .3h1.8c.7-.3 1.2-.2 1.4 0 .4.5 3.6.4 3.8-.1.2-.4.4-.4 1-.1.3.2 2 .4 3.5.5 2.5 0 3 0 4-.9l1.3-1 .1.9c.2.8.4.8 3.4.8l3.7-.2 7.3.3c6.3.2 6.8.2 7-.5.2-.6.2-.6.3 0 0 .6.6.8 1.6.7l16.4-.5c.8 0 1.4-.1 1.4-.3 0-.2.4-.2 1.1 0 .7.2 1.5.2 1.9 0a2 2 0 011.5 0c.5.3 1.5.4 2.7.2 1-.2 2.2-.3 2.4-.2.3 0 .6-.2.8-.4.3-.3.6-.3 1.4 0 .6.2 1.3.3 1.6.2l3.5-.4c1.7 0 3.3-.3 3.4-.5.2-.2.8-.4 1.3-.4h3.8c.5 0 .9-.2.9-.5s.3-.5.7-.5c.4 0 .8.1.8.3 0 .2.3.4.7.4.5 0 .7-.4.7-1.5 0-.8 0-1.6.2-1.7.2-.1.3.2.3.7 0 1.1 1 2.8 1.6 2.8.9 0 2-.4 2-.9 0-.8 1-1 1.7-.3.8.7 2.4.4 2-.4-.2-.3 0-.5.4-.5s.8.2 1 .5c.1.3.7.5 1.4.5.8 0 .9 0 .2-.2-1-.2-1.1-.8-.2-.8.4 0 1 .2 1.6.5.7.3 1.2.4 1.6.1.4-.3.6-.2.6 0 0 .3.6.4 1.6.3l7.4-1 4.2-.7c.5-.2 1.5-.3 2.2-.3 1.8 0 5.1-.4 5.7-.8a3 3 0 011.4-.3c.5 0 1.5-.3 2.2-.7 1-.5 1.7-.6 2.3-.4 1.6.5 2.3.4 2-.2-.2-.3 0-.5.5-.5.4 0 .8.1.8.3 0 .2.3.4.7.4.9 0 .9 0 .3-1.3-.3-.6-.3-.9 0-.9.2 0 .5.2.5.5s.4.6 1 .6c.4 0 1 .2 1 .3.1.3 1.1.2 2.5-.2 1.7-.5 2.4-.9 2.8-1.7l.6-1.1.7.8c.8.7.9.7 2.8.2 1.1-.2 2.2-.4 2.4-.3.2 0 .3-.2.2-.7-.2-.8.9-1.8 1.2-1l.8 1c.6.5.9.6 2.6.2l4-1.2a14 14 0 012.9-.7c.4 0 1.6-.4 2.7-.9s2.3-.9 2.7-.9c.4 0 1-.2 1.4-.4.3-.3 1.4-.5 2.3-.6 1 0 2.1-.3 2.7-.6.6-.3 1.5-.6 2-.6.4 0 .8-.2.8-.5s.5-.6 1-.6c.6 0 1.2-.2 1.3-.5.2-.3.8-.6 1.5-.6.8 0 1.4-.2 1.7-.9.4-.9 1.5-1.2 1.5-.5 0 .5 1 .4 1.8-.2.4-.3 1-.5 1.6-.5.4 0 1-.4 1.3-.8.2-.5 1-1 1.5-1.2l2-1.2c.6-.5 1.3-.8 1.5-.9.3 0 1-.5 1.7-1.1.6-.6 1.8-1.6 2.6-2.1 1.8-1.3 4.7-5.5 3.3-5-1 .5-.6-1.2.6-3 .8-1 1.3-2 1-2.2-.2 0-.3-1.3-.3-2.7 0-1.7-.2-2.6-.7-2.7-.3 0-.6-.3-.6-.6 0-.2-.3-.6-.7-.7-.4 0-.8-.7-1-1.3-.2-.6-.5-1.2-.8-1.3-.3-.1-.5-.6-.5-1s-.5-1.2-1-1.7c-1.6-1.3-5-3-5-2.6 0 .2-.2.4-.7.4-.4 0-.7-.1-.7-.3 0-.2-.6-.5-1.2-.7-.7-.2-1.3-.7-1.3-1 0-.7-2.8-2-4.3-2-.4 0-1-.3-1.5-.6-.5-.5-.8-.5-1-.2-.1.3-.5.2-1.2-.3s-1.4-.7-2.2-.5c-.7 0-1.2 0-1.2-.2 0-.6-3.5-2-5.7-2.3-1-.2-2.2-.4-2.5-.6-1-.6-6.2-1.7-9.8-2l-3.7-.6c-1-.2-1.6-.1-1.6.1 0 .3-.5.1-1.1-.3a8 8 0 00-3.6-1 67 67 0 01-5-.5c-1.3-.3-3.7-.5-5.3-.6-1.6 0-3.1-.3-3.5-.5a16 16 0 00-4-.4c-3.5 0-4.3 0-5.7-.5-1.4-.4-6-.5-6-.2 0 .2-.4.2-1 0-.5-.3-1-.3-1.4 0-.4.4-.6.3-.6 0 0-.4-.1-.4-.6 0-.7.8-2.7.7-3.3 0-.3-.4-1-.4-2-.3-1 .2-1.5.1-1.2-.2.2-.2-.1-.2-.8 0-1 .5-1.3.4-1.7 0-.5-.5-.6-.5-1.2 0-.5.6-.5.6-.5 0 0-.4-.1-.7-.2-.7l-5-.2c-2.8 0-5.3-.3-5.6-.5-.4-.3-.7-.2-1 0-.2.3-1 .4-2 .2-3.2-.5-5.1-.4-5.1 0 0 .3-.2.6-.5.6s-.5-.2-.4-.5c0-.2-.4-.4-1.1-.5a19 19 0 01-2.4-.3c-.8-.2-1-.1-1 .3 0 .3.2.6.5.6s.4.1.2.3c-.2.1-.6 0-1-.4-.8-.8-3.1-.9-5.2-.1-1.3.5-1.7.5-2.2.2-.4-.4-.4-.4 0-.2.4.1.7 0 .7-.3s-.3-.6-.6-.6c-.8 0-2.9 1-3.8 1.8-.5.4-.6.4-.6-.3s-.2-.8-1-.6c-.7.2-1 0-1-.3 0-.5-.4-.6-1.6-.5-.9 0-2 .2-2.4.3-.4.2-1 .2-1 0-.2 0-2.4-.2-5-.2-3.4-.1-4.8 0-5.6.4-1 .5-1.2.5-1.5 0-.2-.5-2-.6-3-.1-.4.2-.6.4-.5.6.2.1 0 .6-.4 1-.6.6-2.2.8-3.7.5-.5-.1 2.2-.9 2.6-.8.3 0 .3-.2.1-.5l-.3-1c0-.2-1.6-.2-3.8 0-4.5.2-4.5.2-6.2-.1-1-.2-1.4-.2-1.4.3s-.1.5-1.3 0c-1.9-.7-5.6-.6-7 .1-1 .4-1.3.5-1.5.2-.3-.6-2.8-.5-3.6.1-.6.6-.7.6-1.4 0-.7-.7-1-.7-1.5-.3zm6.3 1c0 .3-.2.6-.5.6l-1 .1c-.3 0-.7.3-1 .6-.6.8-.6-.2 0-1.1.7-.8 2.5-1 2.5-.2zm-26.3.7c0 .1-.2.3-.5.4-.2.2-.5 0-.5-.1 0-.2.3-.4.5-.4l.5.1zm-14.6 2c-.5.6-1.2.1-.9-.5.2-.4.5-.5.8-.2.2.2.3.5.1.7zm121.2-.5c0 .3-.3.6-.7.6-.4 0-.6-.2-.4-.6.1-.3.5-.5.7-.5.2 0 .4.2.4.5zm5.2-.3l-.8.7c-.2.2-.4 0-.4-.3s.4-.6.8-.6c.5 0 .7.1.4.2zm-128.6.9c0 .2-.3.3-.5.3-.3 0-.5-.1-.5-.3 0-.2.2-.4.5-.4.2 0 .5.2.5.4zm15.7-.2c-.2.1-.6.2-1 0-.3 0-.2-.2.4-.2.5 0 .8.1.6.2zm120.6.6c0 .1-.3.2-.7 0-.4 0-.8-.3-.8-.5 0-.1.4-.2.8 0 .4 0 .7.3.7.5zm10.4-.4c0 .2-.3.3-.8.3-.8 0-.8 0-.2-.3 1-.5 1-.5 1 0zM87 5c.2.2 0 .4-.2.4-.3 0-.5-.2-.5-.4s0-.4.2-.4l.5.4zm129.7 0c0 .2-.3.4-.6.4s-.3-.2-.2-.4l.5-.4c.2 0 .3.2.3.4zM229 6c.5.4.5.5.1.5a1 1 0 01-.9-.5c-.1-.3-.6-.5-1-.5-.3 0-.6-.2-.6-.4 0-.5 1.5 0 2.4.9zm-6.5-.7h-1c-.4 0-.3-.2.3-.2.5 0 .8 0 .7.2zM77.2 6.4c-.7.5-.4 1.2.5 1.2.7 0 .7 0 .2-.3-.4-.2-.5-.5-.4-.7.4-.5.2-.6-.3-.2zm163.6 1c-.1.2-.6.2-1 .1-.3 0-.2-.2.4-.2.5 0 .8 0 .6.2zm1.6.6c0 .2-.2.4-.5.4-.2 0-.4-.2-.4-.4s.2-.4.4-.4c.3 0 .5.2.5.4zm5.5.2c0 .3-.2.5-.5.5s-.5-.2-.5-.5.2-.6.5-.6.5.3.5.6zm13.9.7c0 .3-.2.5-.5.4-.3-.1-.5-.4-.5-.6 0-.2.2-.3.5-.3s.5.2.5.5zm18.3 3.3c0 .3-.3.5-.7.5-.4 0-.8-.2-.8-.5s.4-.6.8-.6.7.3.7.6zm17.2 3.2c-.1.2-.2 0-.2-.5s0-.7.2-.4c.2.2.2.6 0 .9zM63.7 19.6c-.2.2 0 .4.2.4.3 0 .5-.2.5-.4s0-.3-.2-.3l-.5.3zM57 21.1c0 .5 0 .7.2.4a1 1 0 000-.9c-.1-.2-.2 0-.2.5zm-10.4.4c-.8.6-.8 1.2 0 1 .4-.1 1 0 1.5.3.4.3 1 .4 1.3.3.7-.3.7-1 0-1-.3 0-1-.2-1.4-.5-.6-.4-1-.4-1.4 0zM40 23.1c-.2.2-.2.5 0 .8.2.4-.2.4-2 .2-1.4-.1-2.3 0-2.5.2-.2.2-.1.4.2.4.2 0 .5.4.5.9 0 .7.2.9 1.2.9.9 0 1.3-.2 1.3-.7 0-.7 1.3-1.4 2.3-1.2.4.1.5 0 .3-.4-.2-.5-.1-.6.2-.4.4.1.6 0 .6-.1 0-.2-.3-.4-.8-.6-1-.2-1-.2-1.3 0zm3.1.8c0 .7 1 .9 1.9.5.7-.4.7-.4 0-.3-.4.1-1 0-1.3-.2-.4-.3-.6-.3-.6 0zm-10.6 1.2c-.2.2-.1.4.2.4.3 0 .5.2.5.5 0 .7 1.1.9 1.8.2.4-.4.4-.6 0-1-.9-.6-2.1-.6-2.5-.1zm-3.4 1c-.5 0-.9.4-.9.8s-.3.9-.8 1.2c-.7.4-.8.4-.5-.2.2-.3 0-.6-.4-.8-.4 0-.7 0-.7.2s-.4.3-.8.3-.7.2-.7.4-.3.3-.7.2c-1.1-.4-1.3.3-.3 1 .9.7 1 .7 1 .1 0-.3.3-.6.7-.6.4 0 .8.3.8.6 0 1 2.1.5 2.5-.6.2-.5.4-.6.4-.2 0 .7.8.8 1.3.2.2-.2.8-.3 1.3-.2.7.1.8 0 .4-.5-.2-.3-.3-.7-.1-.8.3-.3-.8-1.4-1.3-1.3-.2 0-.7 0-1.2.2zm3.1 1.2c-.6.3-.6.3.1.3.5 0 .9-.1.9-.3 0-.5 0-.5-1 0zm-13 2.7c-2.5 1.2-2.8 1.5-1.5 1.7H17c-1.7-.1-2.3.4-.8.8.5.2.7.5.5 1-.1.4 0 .7.2.7s.4-.3.4-.7c0-.8.4-1 1.5-.4.8.3 2.5-.3 2.5-1 0-.2.4-.3.9-.2.7.1.7.1.1-.2-.6-.3-.6-.5 0-1 .5-.4.4-.6 0-1.1-.7-.7-.9-.7-3 .4zm-10 7.8c.1.2-.2.4-.9.4-1 0-1 0-.4-.4 1-.4.9-.4 1.3 0zm289.5 9.5c.2.2 0 .3-.5.3-.4 0-.6-.1-.5-.3l.5-.4.5.4zm-8.5 3.8c-.1.3-.4.5-.5.4V51c.6-.5.9-.4.5.2zm-1.5 2.2c-.1.3-.4.5-.5.4V53c.6-.6.9-.4.5.2zm-11.5 1.3c0 .2-.3.3-.6.3s-.4-.1-.2-.3l.5-.4c.2 0 .3.2.3.4zm1.7 0c.2.2 0 .3-.5.3-.4 0-.8-.1-.8-.3 0-.2.3-.4.5-.4.3 0 .6.2.8.4zm-33 7.2c0 .2-.2.4-.5.4s-.5-.2-.5-.4.2-.3.5-.3.5.1.5.3zM54.2 65.1c.2.2 0 .4-.4.5-.5.1-.8 0-.8-.6 0-.4.2-.6.4-.4l.8.5zm8.6.6h-1c-.3-.1-.2-.2.4-.2.5 0 .8 0 .6.2zM184.4 67c0 .3-.4.6-1 .6-.9 0-1-.1-.5-.6.4-.3.9-.5 1.1-.5.2 0 .4.2.4.5zm-54.3.2c.2.2 0 .4-.5.4-.4 0-.6-.2-.5-.4l.5-.4.5.4zm-19.5.1l-.8.6c-.6.4-.7.4-.7-.1 0-.3.3-.6.7-.6l.8.1zm32.7 0c0 .1-.2.3-.5.4-.3.2-.5 0-.5-.1 0-.2.2-.4.5-.4l.5.1zm-22 1c.3 0 .7.3.7.7 0 .4-.2.7-.3.7-.6 0-1.5-.9-1.6-1.6 0-.4 0-.5.2-.3.1.3.6.5 1 .5zm-20.7.7c0 .5.3.7.7.6.3 0 .6-.3.6-.6s-.3-.5-.6-.6c-.4-.1-.7.1-.7.6zm31.6 0c-.1.4-.3.3-.3-.1s.1-.6.3-.5c.1.1.2.4 0 .7zm1.4 1.1c.2.2 0 .4-.5.4-.4 0-.7-.2-.7-.4s.2-.4.4-.4c.3 0 .6.2.8.4zM317.3 58.6v.3l.2.1h.5c.1-.1.5 0 .7.3 0 .2.2.3.3.4.3 0 .3-.1.1-.2h.4v-.1h.2c0 .2 0 .2.1.1l.3.1.2.5.3.2V60c-.1 0-.1 0 0 0a106.5 106.5 0 00.8 0c.2 0 .3.1.1.4-.2.4-.2.5.2.3l.3.1s0 .2.2.2h.2c0 .2 0 .2 0 0l.2.1c0 .1 0 .2.2.3l.4.2.6.3c.3 0 .5.2.5.2s.6.5.8.5c0 .2 1.2 1 1.5 1l.2.3.2.2c.2 0 1 .5 1 .7.2.1.2.1.4 0 .3 0 .6 0 .5.2-.2.1 0 .4.2.4s.5.3.8.7c.4.3.6.5.8.5.2 0 .2 0 .1.1s0 .2.5.3l.2.2.4.2c.3 0 .4.2.4.2v.3c.2 0 .2.2.1.4l.1.2h.2c-.2.1.1.5.3.5l.4.5.9.9.4.4.7.9.2.2.2.2v.3l.2.2.3.2c0 .2.1.2.3.2H336.8c-.4 0-.4.2.1.7l.4.6v.2c0 .1 0 .1.2 0 .3 0 .4 0 .2.2-.2.1-.2.2 0 .3l.1.3h.1l.1.2.2.2c.2 0 .3.2.3.2v.4l.2.5s0 .2.2.3c0 0 .1.1 0 .2l.1.3.1.3c0 .1 0 .2.2.2s.3.3.1.6v.2c.2 0 .4.6.4.8h.2c.2 0 .2 0 0 .1s-.2.2-.1.3l.1.3c0 .1 0 .3.2.4v.5l.2.5.1.3v.2l.1.5c0 .2 0 .5.2.6v.3l.1.4c.1 0 .1.2 0 .4v.6l.2.4.1.4c.1 0 .1 0 0 0s-.1.2 0 .8v.6l.1.5c.2 0 .2.1 0 .2V91.8l-.1 1.3c0 .5 0 1.2-.2 1.6l-.2 1.2c0 .5-.2 1.3-.4 1.4V97.9c-.2.1-.2.3-.2.3v.9a80.5 80.5 0 00-.4.4v.5c0 .2 0 .3-.2.3v.4c-.1 0-.3.3-.3.6l-.3.8c-.2.3-.2.4 0 .6v.1l-.2-.1v.2l-.2.3-.3.3c0 .2-.2.4-.3.5-.3.2-.5.6-.4.9v.1l-.6.8v.1c-.2 0-.2.3-.3.5 0 .3-.1.4-.2.4 0 .2-.1.3-.2.3v.1l-.1.1-.4.6-.4.7c-.2 0-.3.3-.5.8l-.2.3s-.2 0-.2.2-.2.3-.3.4c-.1 0-.1 0 0 .1s.1.2 0 .1c-.2 0-.5.3-.4.5.1.2-.4.7-.6.7l-.1.2c0 .2 0 .3-.2.3-.1.1-.1.1 0 .2l-.3.2c-.3.1-.3.2-.3.3 0 .1 0 .3-.4.7l-.2.3-.2.5c-.2.2-.2.3 0 .4.2.1.1.1-.1.1-.4 0-.6 0-.9.3-.1 0-.1.1 0 .2.2.1.2.3 0 .2-.2 0-.2 0-.2.2.1.1 0 .2-.2.3l-.4.5c0 .2-.1.3-.3.2-.3 0-.4.2-.2.2 0 0 .1.1 0 .2v.1c.2 0 .1.1 0 0-.2 0-.3 0-.3.3 0 .1 0 .2-.1.1h-.1c0 .2 0 .2-.2.2h-.2v.2c-.1 0-.3 0-.4.2 0 .2-.2.3-.2.3l-.3.3a1 1 0 01-.5.4l-.3.3-.2.2h-.2l.1.2v.3c-.2 0-.3.2-.4.1h-.4v.2h-.3l-.2.2-.5.4c-.2.3-.3.4-.5.4-.3 0-.8.3-.7.4 0 .1-.5.3-.7.2l-.3.1c-.1.1-.3.2-.4.1-.2-.1-.5 0-.6.2 0 .1-.1.2-.3.2-.2 0-.3.3-.1.5h-.2l-.2-.1c-.1 0-.1-.1 0-.2v-.3-.3c.1 0 .1-.1 0-.2 0-.1 0-.3.2-.4.2-.2 0-.5-.2-.3v-.4l.4-.4.1-.1h.3c.1 0 .2-.1.3-.5l-.1-.5h-.1l.4-.2c.2-.1.2-.1.1-.4l.1-.4c.2 0 .3-.1.2-.4 0-.5 0-.7.3-.7l.3-.1v-.4l-.2-.2c-.2 0-.2 0 .1-.2.2 0 .3-.2.3-.3l.3-.2-.2-.2c-.2 0-.2 0-.1-.2h.2l.2-.3c0-.3 0-.4-.2-.5-.2-.2-.2-.4 0-.4s.3 0 .3.2v-.4-.5l-.1-.1a.7.7 0 01-.3-.2c-.1-.2-.2-.2-.3-.1h-.7c-.5.1-.8.2-.7.4H321.7c0 .1-.1.2-.3.2l-.3.2c0 .1 0 .1.2 0l.2.1c0 .2-.3 1-.4.9v-.2h-.3c-.2 0-.2 0 0 .3 0 .1 0 .2-.2.3-.3 0-.3 0-.1.2.2.1.2.2 0 .2l-.1.2s0 .2-.2.3c-.2.2-.3.3-.2.5 0 .4 0 .4-.2.3-.2 0-.6.6-.5.9 0 .1 0 .1-.1 0-.1 0-.2 0-.3.2-.1.1 0 .2 0 .2.2 0 .2 0 .2.2l-.2.2h-.1c0 .2 0 .2-.3 0h-.3v.4c-.2.4-.1.5.1.6.5.2.4.4 0 .2-.6-.1-.6 0-.5.4.1.3.1.3 0 .2l-.2.1v.1c-.3 0-.3.6-.1.9.1.1.1.2 0 .2 0 0-.1-.1 0-.2h-.2c-.4.1-.4 2.5 0 2.9.1 0 .2.1.1.2 0 .2.5.7.9 1l.4.4.9.3c.7.1.8.1.8 0 0-.2.4-.2 1 0l.5-.1s.2-.1.2 0h.3l.4-.1h3.3l.7.1h1.2c.2.1.3.1.4 0h.2l.3-.1h2.8l.7-.1.6-.2h.8c0-.2 1.1 0 1.3.2.2.2.2.2.5.2.5-.1.5 0 .1 0-.4.2-.1.3.4.2h.7v-.2-.4c0-.1 0-.2-.4-.4-.3-.1-.5-.2-.6-.1-.1 0-.1 0 0 0 .3 0 .3 0 .2.2h-.2l-.1.1h-.3c-.1 0-.2 0-.1-.2 0 0 0-.2-.5-.4-.6-.3-.6-.3-.8-.2h-.4-.1l-.3.2h-.2l-.1.1-.1-.1-.2-.2h-.3-.6-.1-.1H328.9h-2.6c-.1.2-.4.1-.4 0-.1-.3-.5-.3-1.1-.2a4 4 0 01-1 0h-.4-.3c-.4-.2-1.1-.2-1.6-.1-.4 0-.8 0-.7-.3 0 0 0-.2-.2-.3a1 1 0 010-.5v-.3c.1.2.2.2.3.1h.1l.1.4.2.1c0 .2 1 .3 1.1.2h.7c.5 0 1.2-.1 1.2-.3h.2l.8-.4c0-.1.3-.2.4-.1l.4-.1.8-.4c.1 0 .4-.2.5-.5 0 0 .1-.1.2 0l.5-.2c.4-.1.6-.4.2-.4-.1 0-.1 0 0-.1l.3-.2c.3 0 .8-.4.9-.6 0-.3.3-.5.9-1 .2-.1.3-.4.4-.7.1-.5.2-.6.4-.3.1.2.1.2.1 0s.5-.5.7-.4h.2c0-.1 0-.2-.3-.1-.3 0-.5 0-.5-.2h.6c.7 0 .8-.1.5-.5-.2-.3-.2-.3 0-.2h.3l.3-.3c.3-.1.3-.2 0-.3 0-.1 0-.2.1-.1h.3l.1-.2h.2l-.1-.2v-.2c.2-.1.2-.1 0-.3l-.1-.2h.2c.2 0 .3 0 .3-.2l.3-.3.3-.3c0-.2 0-.3.2-.2.3 0 .7-.2.6-.4l.1-.2c.1 0 .2 0 .2-.2l.3-.3c.4-.2.4-.6.2-.8-.2-.2-.1-.2 0 0 .3 0 .4 0 .5-.2.1-.2.2-.3.1-.4l.3-.1.4-.5c0-.3.2-.5.2-.5.1 0 .5-.6.6-1l.2-.2c.1 0 .3-.1.3-.3l.3-.5c.2-.1.4-.5.6-.8l.5-.9.2-.6c0-.2.1-.4.3-.5.1 0 .3-.3.3-.5s.3-.4.4-.6c.3-.3.4-.6.3-.9l-.2-.1c-.1 0-.1 0 0-.1l.2-.1c.1 0 .5-.4.6-.7l.5-1.2c.3-.8.3-.8 0-.9-.3 0-.3 0 0 0 .4 0 .5-.2.4-.5v-.4c.2-.2.6-1.4.5-1.5l.1-.2c.1-.1.1-.2 0-.2v-.2c.2-.2.2-.3 0-.3-.3 0-.3 0 0 0 .1-.1.3-.2.3-.4l.2-.3c.1 0 .1-.1 0-.1l.2-1.4c.2-.7.3-1.3.2-1.4v-.5c0-.1 0-.2-.2-.2s-.2 0 0-.1c.2 0 .2-.2.4-.8v-1-.6-.5s-.1 0 0-.1v-.4c0-.2 0-.3-.2-.3s-.2 0 0 0 .3-.7.2-1.5c0-.3-.1-.7 0-.8l-.2-.5c-.1 0-.2-.2-.1-.3v-1.1c0-.1-.1-1-.3-1v-.3-.3-.3c.1-.3 0-.3-.2-.3s-.2 0 0-.1c.2-.2.2-.2 0-.4a1 1 0 01-.2-.6l-.1-.4V82v-.5c0-.2 0-.3-.2-.3v-.3l-.1-.7-.2-.4c0-.2-.2-.7-.4-.7l-.1-.2-.1-.2c-.2 0-.2 0 0 0s.3-.2 0-.3v-.2c0-.2-.2-.3-.3-.3v-.5l-.3-.5c-.1 0-.2-.2-.1-.3l-.2-.1s-.1 0 0 0c.2 0 .1-.3-.1-.4l-.2-.3a84.4 84.4 0 01-.5-1c-.6-.7-.7-.8-.7-1 0-.2-.1-.2-.4-.3-.3 0-.4-.1 0-.1V73l-.5-.4c-.3 0-.4 0-.3-.2l-.1-.3-.2-.3-.7-.8a5.3 5.3 0 01-.8-1l-.2-.3c0-.2-.2-.3-.3-.3l-.2-.2c0-.2-.1-.2-.4-.3-.3 0-.6-.2-.5-.4l-.2-.4-.2-.4h-.2a.7.7 0 01-.4-.3c-.2-.2-.6-.3-.6-.2l-.1-.1c0-.2-.2-.3-.3-.3l-.2.1c0 .2-.1.2-.2 0v-.4c0-.1-.3-.4-.6-.4-.2 0-.2 0 0-.1.2-.2 0-.4-.4-.4-.3 0-.4-.1-.4-.2 0-.3 0-.4-.3-.5l-.4-.2-.4-.3c-.2 0-.3-.1-.3-.2l-.3-.2c-.2 0-.4-.2-.5-.3l-.6-.3c-.2 0-.4-.2-.5-.3-.2-.1-.2-.1-.4 0-.3 0-.3 0 0 0s.3.1.2.1c-.2 0-.2 0 0 .1.1 0 0 .4-.3.4v-.1l-.1-.4a.6.6 0 01-.2-.4c0-.3 0-.3-.3-.4-.3 0-.6-.2-.5-.4 0-.1-.4-.3-.6-.2-.1.1-.5 0-.7-.4-.4-.3-.8-.4-1.1-.4-.3.1-.3.1-.2-.1 0-.2 0-.2-.2-.2h-.1c.2-.1-.8-.7-1.5-.9l-.7-.2-.8-.3-.8-.3c-.1-.2-1-.5-1.3-.5-.1 0-.4 0-.7-.2-.4-.2-.4-.2-.8 0-.4.1-.4.2-.3.3zm6.6 2.7v.1c0 .1 0 .2-.1.1-.1 0-.1 0 0-.1 0 0 0-.1 0 0zm2 1.4v.1h-.3c-.2 0-.2 0 0 0h.3zm1 0l.2.2h-.2s-.1 0 0-.1zm4.6 4v.2l-.2-.1h.2zm.5-.7l.2.1c0 .2-.1.1-.2 0l-.2-.2h.2zm.3.6h.1c0 .1 0 .1-.1 0h-.1.1zm0 .5l.2.1h-.2c-.1-.2-.1-.2 0-.1zm.6 0h-.1c0-.1 0-.1.1 0zm-13.6 52.7l.1.2c.1 0 .1 0 0 .1 0 0-.2-.1-.2-.3 0-.1 0-.1 0 0zm.5 1.5l.2.2h-.2l-.2-.1c0-.1.1-.1.2 0zm1.5-5.6l.2.1-.2.2-.2-.1.2-.2zm13.2-48.3c.1 0 .2 0 .1.2 0 .1 0 .1-.1 0-.1-.2-.1-.2 0-.2zm-12.2 48.2s0 .1-.1 0h-.3c0 .1 0 .1-.1 0h.1c.2-.1.3-.1.4 0zM320 123v0zm-.7 3.4l.1.2h-.1l-.1-.1h.1zm3-10c.3.2.2.2-.1 0l-.1-.2s.2 0 .3.2zm.5-.1H322.5h.3zm-.8 2.6h.2c.1 0 0-.1 0-.2h-.3l.1.2zm-.8 4v.1c.1 0 0 0 0 0h-.1v-.1zm1.4-5l.1-.2h-.2c0 .2 0 .2.1.1zm8.5-2.8v.2l-.2-.1.2-.1zm12.2-33.7c0 .1 0 .1-.1 0h-.2.3zM343 84v0zm.2-.7c.2 0 .2.2 0 .2v-.1-.1zm-1.5 9.1c-.1.2-.2.2-.2 0h.2zm-7.5 33.4c.1 0 .2 0 .1.1h-.2c-.3-.2-.2-.2 0-.1zm9-33.8v.1l-.1.1-.1-.1.1-.1zm-8.5 33.5c.1.1-.2.3-.3.2l.1-.1c.1 0 .2-.1.2 0zm.6 0h-.1.1zm7.8-26.6l.2.2s0 .1-.1 0c-.2 0-.2-.2 0-.2zm0 1.8h.1c0 .1 0 .2-.1.1h-.2l.2-.1zm-6.5 25.7c.2 0 0 .2-.1.2-.2 0-.2 0-.1-.1 0 0 .1-.1.2 0zm.6.1v-.2.1c-.1.1 0 .2 0 .1z" fill="#007ec1"/>
</svg>
