<svg class="math" xmlns="http://www.w3.org/2000/svg" height="170" width="170" viewBox="0 0 43.5 43.5"><g id="maths"> <path class="green" d="M11.65 15.48s2.73 3.39 5.33 4.58 5 2.2 5.94 2.23c.95.04 3.45.33 6.03-.62a21.24 21.24 0 0 0 5.78-3.46c.31-.37.29.07.29.07l.7.8s-.47.91-1.24 1.44c-.76.52-3.2 2.7-7.54 2.95s-6.05.6-9.32-1.07-6.52-5.43-6.79-5.67.19-.57.19-.57l.63-.68z"/> <path class="blue" d="M12.54 33.46l3.06-7.75 3.3-7.86 2.15-5.56.11-.24s.9.3 1.81.33c.92.02 2.37-.63 2.37-.63l3.5 16.99 1.4 4.62-2.2.82-.56-.25-.47-1.85-1.97-8.5-.85-4.98-.86-5.63-.26-.05-5.83 15.3-2.07 5.57-2.63-.33z" fill="#bbb"/> <path class="green" d="M24.4 5.46c-.44.03-1.33 0-1.33 0l-.15.23s-3.08.31-3.13 3c-.05 2.7.99 3.02 1.26 3.2.27.2 2.02.49 2.02.49.9-.07 3.74-.56 3.66-3.68-.09-3.13-1.9-3.26-2.34-3.24zm-.89 5.33c-1.14.29-2.34.08-2.46-1.45-.12-1.53.63-2.36 1.59-2.5 1.14-.17 2.94-.52 2.8 1-.15 1.53-.8 2.67-1.93 2.95z"/> <path d="M12.86 40.69c0 .03.03.08.06.1.15.07.28.04.45-.08-.15-.11-.3-.07-.42-.09-.03 0-.09.04-.1.07zM24.9 6.48c.07 0 .14-.06.2-.18-.1-.06-.17-.07-.23-.05-.09 0-.14.05-.12.14.02.08.08.13.15.1zm-1.99 4.84h-.01c-.07.01-.14.04-.12.14.02.08.06.13.14.11.08 0 .13-.08.14-.17v-.03c-.04-.02-.1-.06-.15-.05zm2.62-4.49c.07.01.14-.02.22-.1-.08-.07-.13-.12-.17-.13-.07 0-.17 0-.18.1 0 .09.06.14.13.13zm-4.96.99c.01.02.02.03 0-.03-.03-.02-.08-.07-.13-.06h-.01a.12.12 0 0 0-.1.15c.02.09.1.1.16.08.06-.02.1-.06.08-.14zm.23-.57c0 .06.04.12.15.18.05-.1.1-.14.1-.19 0-.1-.08-.13-.16-.11-.03 0-.06.04-.08.07v.01c0 .01-.02.03-.01.04zm6.92 26.96c.05.16.66-.13 0 0zm2.98-12.23c.21-.3-.27-.15 0 0zm.1.4c-.27-.23-.34.17 0 0zm-17.72-4.73c-.02-.02-.06.36 0 0zm11.68 4.85c-.1.04.1.18 0 0zm-1.04.97c0 .02.16-.18 0 0zm6.08-2.06c-.47.12-.07.35 0 0zm-14.4-2.22c-.02.22.3.18 0 0zm-3.22-2.71c-.4.09 0 .5 0 0zm15.54 5.62c.03.25.17-.03 0 0zm-15.56-5.89c-.16-.17-.43.18 0 0zm11.12-2.75l-.01-.07.01.07zm5.39 23.24l-.12.05c.03.13.14 0 .12-.04zm2.93-16.07c.16.15.38-.2 0 0zm3.13-2.42c-.2.26.1.07 0 0zM17.48 20.5c-.28-.18-.35.22 0 0zm8.23-17.48c-.02-.01 0 .09 0 0zm-5.63 18.65c.05.21.33.09 0 0zm2.99.82c.16.29.36.03 0 0zm2.45-18.53c-.18-.02-.03.11 0 0zM14.57 34.3c-.72-.1-.04.1 0 0zM29.6 22.77c-.28-.34-.45.1 0 0zm-17.28-5.09c.31-.15 0-.4 0 0zM25.1 3.35c.08-.02.04-.16 0 0zm-3.43 19.87c-.17-.37-.43.02 0 0zm-7.71-4.76c-.3.12.06.24 0 0zm12.08-15.1c.03-.1-.15-.1 0 0zm-4.02 19.97c.37.16.24-.3 0 0zm1.32-17.98c.1 0 .01-.1 0 0zm1.78-.56c.15.01 0-.2 0 0zM14.17 19.37c.2-.03.02-.32 0 0zM25.77 4.4c.04-.16-.1-.05 0 0zm-4.18 17.66c.02.4.36.1 0 0z"/> <path d="M35.78 18.92l-.36-.4-.44-.42c-.1-.08-.2-.12-.32-.07-.16.08-.35.13-.4.35 0 .05-.06.08-.1.12-.4.4-.8.77-1.26 1.08-.74.5-1.53.93-2.37 1.25l-2.26.88c-.19.07-.38.13-.58.15l-.05-.11c-.9-3.35-1.13-6.79-1.91-10.15-.03-.1-.01-.17.07-.24.37-.32.61-.73.78-1.18.15-.41.17-.85.23-1.27a3.8 3.8 0 0 0-.36-2.2 2.02 2.02 0 0 0-1.47-1.17 4.6 4.6 0 0 1-.53-.17c.05-.12.06-.25.12-.29.15-.09.15.14.29.17l.14-.11c.1-.08.15-.07.2.05l.06.14c.13-.05.18-.13.2-.25.01-.12.05-.24.08-.36.01-.03.06-.05.08-.08a.4.4 0 0 1 .02.23c-.03.16-.08.32-.1.48-.02.12.03.19.13.2.1.01.15-.04.16-.17 0-.16.03-.33.06-.49.07-.37.19-.72.29-1.08.07-.27.16-.53.22-.8.04-.16-.02-.22-.17-.23a.6.6 0 0 0-.19.01.86.86 0 0 1-.38-.02c.03-.15.07-.3.13-.45.03-.23.07-.45.08-.67.01-.16 0-.32-.02-.48-.03-.16-.14-.22-.3-.17a.5.5 0 0 1-.3-.01c-.18-.05-.32.06-.36.24-.07.33-.32.8-.4 1.2a.73.73 0 0 0-.04.3c-.15 0-.3 0-.43-.02-.12-.01-.18.03-.22.14-.3.75-.56 1.62-.75 2.4-.07.29-.21.4-.52.42-.47.03-.9.2-1.29.45a3.1 3.1 0 0 0-.96.92c-.09.13-.15.27-.23.4-.06.1-.09.22-.13.33l-.05.12a3.84 3.84 0 0 0-.21 1.54c.03.33.06.68.16 1 .13.4.36.78.63 1.12.08.1.18.19.28.27a3 3 0 0 0 1.58.6l.76.1-.05.13c-.17.01-.2.15-.24.25a95.69 95.69 0 0 0-3.07 8.04l-.07.16-.35 1-.11.37a134.36 134.36 0 0 1-.93 2.42l-.44 1.06-.66 1.75-.2.5a12.6 12.6 0 0 1-.53 1.52c-.2.45-.38.9-.56 1.36l-.82 2.07-.27.59h-.01c-.02.23-.16.37-.43.33-.3-.05-.6-.06-.9-.11a6.6 6.6 0 0 1-.88-.2l.09-.31.24-.66.61-1.62.7-1.73c.1-.2.15-.42.24-.63l.76-1.7c.07-.16.15-.3.19-.46.12-.46.36-.88.53-1.32.25-.67.51-1.34.8-2 .14-.32.2-.69.51-.93.04-.03.05-.1.07-.16.03-.13.04-.27.09-.4.1-.29.22-.57.34-.86.04-.1.09-.2.23-.23.07 0 .11-.08.07-.14-.1-.12-.04-.23 0-.35.17-.4.35-.8.51-1.21l.32-.85c.76-1.92 1.5-3.85 2.3-5.76.01-.04.03-.09.02-.13-.03-.06-.06-.1-.1-.1-.02-.01-.07.03-.1.06-1.65 1.98-2.07 5.82-3.22 8.12l-.47-.29c-.33-.17-.61-.43-.94-.6l-.46-.26-.07-.05a2 2 0 0 1-.42-.35c-.03-.04-.09-.05-.13-.08-.38-.27-.78-.5-1.12-.81-.3-.27-.57-.56-.85-.84l-.47-.52c-.32-.35-.67-.68-1-1.02-.17-.16-.35-.13-.47.06a.7.7 0 0 1-.12.14l-.57.5c-.07.06-.15.12-.1.21.08.17.1.36.27.48l.09.1.07.12.04.08-.14.12c.07.1.12.18.19.25.37.4.74.79 1.13 1.17a18.04 18.04 0 0 0 4.58 3.5c.12.06.14.1.1.24l-.06.13-.53 1.22c-.23.6-.47 1.19-.72 1.78l-.56 1.36-.27.68v.01c-.1.23-.19.45-.3.67-.16.3-.27.61-.4.93a37.8 37.8 0 0 0-2.03 5.21c-.03.11-.13.2-.19.31a9.2 9.2 0 0 1-.38 1.01l-.17.45c-.1.32-.1.34.23.38 0 .35.32.25.5.37v.15c-.14.66-.7 1.95-.58 2.6.01.04.06.1.1.13.07.03.14.01.17-.07.06-.13.12-.25.15-.39l.03-.1c.25-.71.42-1.44.68-2.14.05-.12.12-.18.25-.17.42.04.84-.06 1.26.03.13.03.2-.02.25-.15l.6-1.57c.1-.24.16-.5.25-.74.15-.4.33-.8.47-1.2.2-.58.48-1.12.6-1.72.04-.17.13-.34.2-.52l.3-.92.63-1.73.2-.57.3-.77.08-.26c.08-.18.16-.35.22-.53.35-1 .76-1.96 1.06-2.96l.12-.3c.63.22 1.22.51 1.85.65a9 9 0 0 0 3.83.13c.03.06.04.13.06.19.1.5.18 1 .3 1.5.14.62.3 1.23.46 1.85l.12.5.25 1.03.3 1.4.4 1.76.3 1.11.45 1.5c.06.22.15.43.21.64l.33 1.08.3.97c.02.06.06.12.1.15.11.07.25.1.34.19.09.09.17.11.28.1h.5c.25.74.46 1.5.65 2.26.02.08.06.13.14.13.07 0 .14-.02.15-.11.05-.2.1-.4.01-.6a.93.93 0 0 1-.06-.25l-.17-1.47c-.05-.43.19-.33.5-.49.17-.09.34-.17.5-.28.13-.09.16-.19.11-.34a113.84 113.84 0 0 1-.95-3.3l-.2-.72-.13-.59A228.65 228.65 0 0 0 29 27.3l-.82-3.17-.04-.17-.1-.4c.12-.06.24-.12.36-.15.39-.1.78-.2 1.17-.28.85-.18 1.66-.49 2.43-.87.94-.47 1.95-1.14 2.76-1.8.43-.37.83-.73 1.04-1.27.04-.12.04-.18-.03-.27zM17.6 20.8l-.41 1c-.08.18-.1.18-.28.1-.67-.28-1.2-.7-1.8-1.1.43-.23.7-.65 1.18-.8l-.07 1.45c.16.06.25.02.35-.04l.79-.51c.07-.09.16-.16.25-.23v.13zm-2.25-1.05c0-.17.02-.34.04-.56.3.18.55.33.8.53-.26.24-.55.38-.81.58a.67.67 0 0 1-.06-.3c0-.09.02-.17.03-.25zm1.16 1.33c-.07-.23-.01-.74.12-1.06.3.13.56.3.84.48-.35.22-.6.49-.96.58zm-1.5-2.16c-.11.13-.65.42-.85.45.02-.32.02-.64.12-.97.28.15.53.3.72.52zm.08.29c0 .08.03.14.03.2l-.04.99c0 .1-.04.19-.08.32.03-.11-.23-.23-.1-.1-.32-.24-.6-.48-.88-.75.3-.3.66-.5 1.07-.66zm-2.56-.75l-.36-.34c.25-.27.55-.38.84-.51l.06.04-.17 1.11c-.2-.02-.24-.2-.37-.3zm1.44-.31a4.4 4.4 0 0 1-.73.45c-.1-.22-.03-.7.14-1.03.15.06.42.32.54.5 0 .02.02.1.05.08zm-.02.3c.06.25-.02.94-.13 1.22l-.08-.03-.53-.48c-.06-.05-.12-.13-.04-.2.24-.2.49-.38.78-.5zm-1.64-.77c0-.4.08-.74.15-1.12.26.21.48.43.68.7-.22.21-.52.27-.83.42zm-1.37-.95l-.2-.19c.2-.3.5-.51.74-.75.1-.05.2-.07.25 0l.42.42-1.21.52zm1.23-.25c0 .5-.1.94-.2 1.4-.07-.03-.13-.03-.15-.06-.22-.3-.54-.53-.7-.9.31-.2.64-.35 1.05-.44zm22.55 1.73l.29.2c-.07.33-.16.66-.25.99-.17 0-.23-.12-.32-.2l-.27-.28.55-.71zm-.76.86c.02.1.04.15.03.2l-.3 1.25c.04-.2-.2-.16-.14-.08-.27-.13-.47-.33-.7-.52l1.11-.85zm-2.37 1.56l1.05-.57c.1.1.1.2.07.29l-.3.75c-.02.08-.09.1-.16.06-.08-.04-.17-.08-.24-.14l-.42-.39zm-.9 1.35a1.98 1.98 0 0 1-.65-.66c.34-.22.72-.32 1.1-.45-.02.27-.24.8-.45 1.11zm-.72-.3l.83.7c-.35.17-.68.23-1.02.33-.06-.37.05-.68.2-1.02zm-.47.66l-.96-.48c.42-.12.78-.33 1.25-.45a3.9 3.9 0 0 1-.3.93zM24.47 4.3c-.13-.14-.1-.23.11-.3l-.1.3zm.17-.7c.02-.01.05.01.1.04l-.12.06-.05-.04a.15.15 0 0 1 .07-.07zm-.06 1.23c.03-.28.04-.3.28-.26.02.23-.04.29-.28.26zm.16-.55c.02-.3.06-.33.3-.33.03.3-.06.4-.3.33zm.38.5c0-.18.02-.24.12-.22.03 0 .09.06.1.1 0 .1-.07.14-.22.13zm.82-1.71l.05-.03c.04.03.09.18.05.32-.15-.1-.12-.2-.1-.29zm-.01.76l-.12-.2c.17-.02.17-.02.12.2zm-.08.12c.05.17-.04.29-.08.44-.1-.04-.15-.07-.11-.16.04-.1.02-.25.2-.28zm-.14-.93c0 .09 0 .18-.02.27-.04.04-.06.05-.09.05-.02 0-.04-.03-.06-.07.02-.1.06-.18.09-.27l.08.02zm-.18-1.76l.05.01-.03.09-.03-.01v-.1zm.03 2.34c.02.01.03.03.02.06l-.12.02-.01-.07h.11zm-.04.36c-.03.11-.05.21-.1.3-.04.04-.07.05-.1.04h-.02c-.03 0-.04-.04-.05-.1 0-.06.03-.13.06-.2s.03-.06.21-.04zM25.3 3c.08.1.04.21-.02.3-.02.03-.1.03-.18.05.05-.16.04-.3.2-.35zm-.1.6c-.07.14-.14.1-.23.08.05-.13.13-.1.23-.08zm-.3-.6c0 .14-.01.24-.16.3l-.1-.28.26-.02zm-.36 0l.09.02-.28.23c-.07-.2-.02-.27.19-.25zm-.22 1.62h.03l-.02.13-.04-.01.03-.12zm-.08-1.02c.03 0 .06 0 .09.04l-.1.08c-.01 0-.04 0-.06-.03l.07-.1zm-.67 1.73l-.23.01c.01-.1.01-.15.03-.2.04-.12.1-.13.19-.03.07.08.14.09.22.03a.4.4 0 0 1 .28-.05c.06.02.1.04.15.1.01.07-.04.12-.11.12l-.53.02zm-.06-.65c0-.03.03-.07.07-.13.03.06.07.1.07.12 0 .04-.04.07-.07.1-.02-.03-.07-.06-.07-.1zm.25-.68c.03.19.03.19-.09.3-.04-.12-.02-.2.1-.3zm.33.57l-.15.3c-.1-.2-.08-.27.15-.3zm-.1-.31c.02-.12 0-.26.18-.25 0 .23 0 .26-.18.25zm.08-1.28c.06.1.03.19 0 .25a.5.5 0 0 0-.09.32.2.2 0 0 1-.11.2c.06-.02 0-.1-.02-.07-.02-.15.04-.35.22-.7zm-2.3 9.12a2.3 2.3 0 0 1-1.29-.92c-.4-.6-.6-1.25-.58-1.98.02-.56.1-1.09.32-1.6a3.37 3.37 0 0 1 2.11-1.73c.07-.02.15-.01.23-.01h.25a.8.8 0 0 1 .31.05c.07.03.15.1.22 0a.1.1 0 0 0 .01-.1V5.8l-.02-.03-.15-.15c0 .01.02 0 .03-.02.08-.1.2-.15.33-.15.26.02.52.03.78.08.44.1.86.24 1.24.48.51.33.77.83.92 1.4.12.42.2.85.15 1.3-.07.56-.09 1.13-.35 1.65-.18.35-.37.68-.7.91-.1.08-.18.19-.28.27a3.3 3.3 0 0 1-2.19.74c-.45-.01-.9-.05-1.34-.18zm1.51 1.35c.08.32.13.64.2.96l.02.12.14.98.1 1c.07.5.15.98.24 1.47l.32 1.67.33 1.84.1.55c.04.18.01.22-.17.25-.37.05-.74.05-1.1-.02-.46-.1-.92-.23-1.37-.34l-1.26-.31c-.28-.08-.55-.15-.82-.24l1.13-3 .1-.23c.2-.52.44-1.03.63-1.57.16-.48.39-.93.58-1.4.15-.36.32-.7.44-1.07l.33-.75.05.02.01.07zm-8.7 20.85l-.12.25a8.4 8.4 0 0 1-2.1-.3l.06-.28c.72.1 1.43.22 2.15.33zm-.84 2.21c-.04.13-.17.13-.28.12l-.45-.07-1-.13-.46-.04c-.05-.17 0-.3.1-.4a.37.37 0 0 0 .14-.22c.08-.3.11-.3.42-.24.35.08.7.16 1.04.2.23.03.47.02.7.02 0 .28-.12.52-.21.76zm.21-.77c-.03-.1-.1-.14-.2-.14a7.06 7.06 0 0 1-1.55-.28l-.2-.08c.03-.19.03-.19.17-.17l1.53.21c.13.02.26-.02.38.07l.04.04c-.02.13-.05.26-.16.35zm.28-.57l-.4-.07-1.58-.25-.09-.05c.03.02.04-.15.03-.12.04-.17.1-.2.28-.17.58.09 1.15.2 1.74.24l.15.04-.13.38zm5.4-12.57c-.04-.02-.07-.1-.05-.15.07-.21.16-.42.24-.62h.06l.01.06c.11.27.15.55.16.85a.86.86 0 0 1-.43-.14zm.45-.94l.97.25c-.2.33-.47.55-.69.84-.1-.36-.2-.72-.28-1.1zm.48 1.25c.19-.3.4-.55.68-.79.26.32.26.72.43 1.1-.43.01-.74-.18-1.1-.31zm1.03-.86c.36.1.7.15 1.02.3-.11.23-.5.58-.7.66-.2-.19-.3-.57-.32-.96zm1.5 1.47c-.34-.04-.7-.04-1.07-.2.24-.3.48-.54.77-.74.23.27.33.57.47.89-.07.02-.12.06-.16.05zm.4-.2c-.2-.26-.26-.55-.42-.84l.97.1c-.08.34-.33.5-.55.74zm.25.21l-.02-.07.5-.57c.16.22.32.39.44.63a2.5 2.5 0 0 1-.92.01zm1.15-.24c-.23-.18-.33-.42-.48-.68l.35-.12c.1.18.16.56.13.8zm0-1.54c-.34-1.83-.71-3.65-.98-5.49-.13-.93 0-2.74-.57-3.55-.05-.07.18-.18.47-.3.38-.07.73-.19 1.07-.37l.13-.06c.1.08.13.18.15.28l.3 1.52c.07.4.15.78.24 1.17l.3 1.4.34 1.92.3 1.47.3 1.35.12.59.22 1 .28 1.3.32 1.32.43 1.87.1.42.35 1.49.21.78c.09.33.15.67.24 1 .09.34.2.66.28.98l.16.63.3 1.07.3 1.09c.05.2.01.26-.2.32-.53.13-1.08.24-1.62.35-.13.03-.13.04-.22.19.54.06 1.6-.3 2.11-.44l.14.34c-.12.05-.22.1-.33.13l-.88.17-.7.15a.18.18 0 0 0-.1.06v.1c.01.02.04.04.07.04.52.02 1.42-.3 1.9-.4h.08c.08.19.07.24-.1.3-.63.2-1.28.38-1.92.56-.04-.09-.1-.18-.13-.28l-.22-.73a2.8 2.8 0 0 0-.14-.32c-.07-.15-.06-.19.1-.24l.42-.1 1.17-.31c.11-.03.24-.06.31-.17-.02-.1-.08-.1-.16-.09l-1 .32c-.25.07-.5.13-.77.18-.12.03-.19-.03-.22-.14l-.12-.4a6.64 6.64 0 0 0 1.87-.6.4.4 0 0 0-.3 0c-.27.08-.54.18-.82.25-.23.06-.46.1-.7.14-.07.01-.12-.03-.15-.1l-.2-.63-.14-.52-.28-1.17-.32-1.37-.21-1.04c-.08-.37-.15-.74-.24-1.1l-.43-1.54-.12-.59-.5-2.51c-.06-.3-.1-.58-.13-.87-.01-.08.03-.16.06-.26-.18-.12-.18-.34-.22-.55zm5.53 15.4c-.42.13-.83.22-1.25.33-.23.05-.26.06-.41-.2-.1-.16-.17-.35-.2-.54.07-.06.1-.06.1-.04.36-.15.73-.26 1.09-.38.24-.07.49-.14.72-.25.15-.07.2-.06.26.1l.21.65c-.12.19-.32.27-.52.33zm.71-.71l-.04-.09.03-.02.04.1-.03.01zm-3.22-13.66a2.01 2.01 0 0 1-.19-.68l.48-.1c0 .3-.15.5-.3.78zm.41.27c-.07.02-.16 0-.26 0l.03-.13.3-.64c.05-.12.14-.15.24-.11.34.13.7.25.98.59l-1.29.3zm2.57-.74c.16-.5.35-.98.55-1.47.28.18.55.37.8.58.17.12.33.05.39-.15.08-.3.2-.59.33-.92.27.19.54.31.76.51-.18-.16-.34.25-.16.15-.61.5-2.25 1.31-2.67 1.3zm4.57-2.87c-.39.48-.87.86-1.38 1.21l-.09.02c0-.39.06-.75.2-1.12-.02.12.14-.11.04-.18.18.11.35.23.5.37.17.1.3.03.32-.15.03-.22.05-.43.09-.64.01-.09.06-.17.11-.3.12.16.23.26.3.38.07.15 0 .3-.09.4z"/> <path d="M14.6 33.61c-.5-.07-1-.14-1.5-.23a.24.24 0 0 0-.2.02c-.04.02-.06.08-.1.12l.12.06c.15 0 .3 0 .46.02.32.05.64.17.97.12.03 0 .07 0 .1.02.1.08.2.04.31 0-.05-.05-.07-.12-.17-.13zm-2.73 8.16l-.01-.05c-.02-.09 0-.2-.11-.26-.05.09-.04.1-.02.1-.07.21-.05.46.08.6.05.04.1.1.17.03.03-.02.02-.12 0-.15l-.11-.27zm-1.66-2.3c-.05.14 0 .21.1.27.13.08.24.2.45.1-.16-.11-.26-.28-.45-.34 0-.01-.03-.02-.1-.03zM10.04 41c-.15 0-.2.13-.12.23l.53-.09v-.08c-.14-.02-.27-.07-.4-.07zm1.34-.54c-.06.06-.02.13.13.23.05-.1.15-.18.03-.27-.04-.02-.12 0-.16.04zm13.39-30.37c.22-.26.46-.5.56-.84.07-.24.15-.48.2-.73.11-.39.08-.78-.05-1.16-.15-.45-.44-.7-.93-.73-.11 0-.23-.01-.34-.04a3.1 3.1 0 0 0-1.27.02c-.27.05-.52.09-.73.26l-.16.08c-.15.06-.28.14-.4.26-.35.35-.6.73-.67 1.22-.02.18-.1.35-.08.52.02.37.08.73.21 1.08.23.6.62.96 1.26 1.05.23.03.43 0 .64-.05a3 3 0 0 0 1.76-.94zm-3.01.46c-.1-.1-.21-.2-.27-.33a2.5 2.5 0 0 1-.32-1.38c.07-.74.35-1.37 1.05-1.75.18-.1.35-.15.54-.2l.54-.12h.04c.41-.06.76 0 1.1.06l.34.06c.06 0 .1.01.14.03a.4.4 0 0 1 .11.1c.23.34.34.7.3 1.1-.04.4-.12.79-.27 1.16-.1.26-.28.46-.46.66l-.07.06c-.43.52-1.02.72-1.65.84-.38.07-.82-.04-1.12-.29zm.5.74c-.06 0-.05.02-.03.02-.1.03-.16.1-.15.17.02.1.1.11.18.1.1 0 .17-.09.13-.17a.47.47 0 0 0-.13-.12zm-1.9-1.68h-.01c-.04 0-.02 0 0 0-.08.02-.1.08-.1.16v.04c.01.1.08.12.16.1.1-.02.1-.1.08-.16-.02-.07-.05-.14-.13-.14zm3.3 1.5c-.03.01-.07.06-.08.1 0 .06.1.13.2.13-.01.01-.03.02.04.01.01-.04.06-.09.07-.15 0-.07-.13-.12-.23-.09zm1.64-.94c-.02-.06-.06-.09-.14-.08-.09.02-.14.06-.13.16.01.08.07.1.14.1.07-.02.13-.06.14-.15v-.02c0-.01 0-.02 0 0zm-3.94.85l-.01-.01c-.07-.02-.16-.04-.2.06-.03.1.01.13.22.2.07-.17.06-.22 0-.25h-.01zm.54-4.37c.07-.08.14-.14.11-.24-.17-.05-.25-.03-.27.06-.04.14.1.13.16.18zm2.7 4.02c-.08.01-.14.06-.27.11.12.07.18.11.24.13.09.02.13-.04.14-.11.02-.08-.04-.14-.11-.13zm-3.92-.26h-.01c-.09 0-.1.07-.1.14.01.09.08.12.15.1.05-.02.1-.07.18-.14-.09-.1-.16-.12-.22-.1zm-.31-1.47c.08-.03.11-.08.1-.14 0-.08-.05-.1-.12-.1-.1 0-.17.07-.13.14.02.05.09.09.12.12.05-.01.05-.02.03-.02zm5.7-1.41c0-.07-.06-.12-.13-.12h-.04a.11.11 0 0 0-.04.04c-.03.03-.05.06-.04.08.02.06.08.1.16.19.04-.1.08-.14.09-.2zM24 6.45c.04-.02.07-.08.1-.1-.02-.07-.02-.05-.02-.02-.02-.1-.08-.14-.16-.13-.07.01-.1.06-.09.13.01.08.1.15.16.12zm-1.22-.12c-.14-.1-.24-.12-.28-.03-.02.03 0 .1.02.14.07.07.14.04.26-.11zm3.02 3.12c.09 0 .12-.07.1-.14-.05-.14-.16-.08-.27-.07.03.17.07.22.17.21zm.05-1.06c0 .06.07.1.13.1h.04c.03-.02.08-.1.07-.12-.04-.05-.1-.08-.17-.15-.04.08-.07.12-.07.17z"/> </g></svg>