<svg version="1.1" xmlns="http://www.w3.org/2000/svg" x="0" y="0" viewBox="0 0 170 170" xml:space="preserve">
  <style>
    .inf-stroke{stroke:#1D1D1B;stroke-width:0.5843;stroke-miterlimit:10.0046;} .st4{stroke:#1D1D1B;stroke-width:1.4113;stroke-linecap:round;stroke-miterlimit:10.0046;}
  </style>
  <path class="green" d="M74.8 34.7l.1 1.1.7 1.8c1.8 3.7 3.9 5.6 6.3 9 .4.6 1.2.1 1.5-.3 1.1-1.9 2.3-3.8 3.6-5.6a35 35 0 003.6-5.8c.4-1.1-1-1.8-2.2-1.8s-2.4.7-3.7 1.7c-.7.6-1.8.7-2.6.2-1.7-1.1-2.2-1.7-4.3-1.9-2.1-.3-3.1.1-3 1.6z"/>
  <path class="green" d="M142.9 115.5v2c0 .8.3 1 1.1.9.8-.1.6-.6.6-1 0-3.6.2-7.3.6-10.9.4-2.2.4-4.5.2-6.7-.1-.8-.6-1-1.7-.9-1.1.1-.7.4-.7 1 .6 5.2.2 10.3-.1 15.6z"/>
  <path class="green" d="M22.8 102.6v-2.5c0-.2 0-.4-.2-.6a1 1 0 00-1.4.7v.2l.1 2.1.2 10.1c0 .8.6 1.2 1.5 1.1.9-.1.3-.7.3-1l-.5-10.1z"/>
  <path class="blue" d="M135.3 86.6v.6c.6 4.6.8 9.2.7 13.8-.2 5.9-.2 11.9-.3 17.8a195.6 195.6 0 01-.3 12l3.4-1.5c1.6-.6 2.7-2 2.9-3.7.4-1.8.5-3.6.6-5.4.3-7.3.9-14.6.2-21.8 0-2.1-.5-4.2-1.5-6.1-1.4-2.1-3.1-4-5-5.6-.3-.1-.5-.2-.7-.1z"/>
  <path class="blue" d="M30.7 127.1c-.2-12.9-.1-25.5.2-38.1a.8.8 0 00-.8.2l-3.5 2.6a7.6 7.6 0 00-2.9 5.6c-.2 2.1-.3 4.2-.2 6.3.2 4.1.3 8.4.7 12.5.3 4.1 2.5 7.7 5.9 10.5l.6.4z"/>
  <path class="blue" d="M88.6 143.6h23.1c3.1 0 6.3-.5 9.3-1.3 4.3-1.4 7.6-5 8.5-9.4a45 45 0 001.1-8.2c.2-6.7.1-13.3.3-19.9.1-3.5-.2-6.8-.2-10.2a33 33 0 00-.7-7.7c-.8-4.3-2.8-6.3-7.5-7.3a16 16 0 00-4.4-.4c-10.8.1-21.4-.4-32.2-.2H74.5c-7.4.4-14.8.3-22.2.6-3.1 0-6.3.4-9.3 1.1-3.7 1.2-6.5 3.5-7.4 7.4a23 23 0 00-.3 3.7l-.3 11.6v16.2c.1 2.8.2 5.3.1 8-.3 2.6-.1 5.2.7 7.7a8.5 8.5 0 006.2 6.3c2.2.7 4.5 1 6.8 1.1 5.6.6 11.2.8 16.8.9h23z"/>
  <g class="inf-stroke">
    <path d="M62.1 159a3 3 0 011-1.2c2-1.5 4.3-2.5 6.7-3l3.6-.9c.6-.1.7-.3.7-.8l.1-5c.1-1.7-.2-.8-.9-.8h-6.5a222.4 222.4 0 01-26.9-1.8 11 11 0 01-9-9.2c-.4-2.4-.6-4.8-.3-7.2.1-.5-.1-1.1-.6-1.3l-3.6-3.5a14 14 0 01-3-8.3c0-.9-.3-1.2-1.2-1.5-.9-.2-1.5-.4-1.6-2l-.2-12c0-1.2.1-1.3 1.2-1.5 1.1-.1 1.3-.4 1.3-1.3 0-3.8 2.1-6.3 5-8.1 1.8-1 3.1-2.8 3.6-4.8 1.1-4 4.3-6.2 8.1-7.4 3-.8 6-1.1 9.1-1.1 4.8-.3 9.6-.2 14.3-.3l10.8-.4h6.8c.7 0 1-.2 1-.9l.1-1.2a5 5 0 00.1-3.6c-.4-1.2-.2-2.5.4-3.6.1-.3.1-.6-.2-.8s-2-1.8-1.5-3.9c.1-.2.1-.5-.1-.6l-.1-.1a2.2 2.2 0 01-.9-2.7c.2-1 1.2-1.8 2.2-1.7.4 0 .6-.2.4-.6-.6-2.1.1-4.3.7-6.4.2-1-.1-2.1-.7-2.9a55 55 0 01-5.2-8.3c-.4-.8-.5-1.6-.4-2.5.1-1.3.8-1.9 2.2-1.7 1.5.2 2.9.8 4.1 1.7.4.3.9.3 1.2 0 1-.6 2.1-.9 3.2-1 .7-.2 1.5.1 1.9.7.6.7.2 1.3-.1 2s-2.9 4.1-4.1 6.4l-.8 1.2a3 3 0 00-.7 3.2 3 3 0 01-.3 1.9c-.6 1.8-.7 3.7-.3 5.6.1.1 0 .2 0 .4s-.1 1-1 .9c-.7-.2-1.5.2-1.7.9-.4.6-.2 1.4.3 1.9.4.4.9.4 1.3.1.4-.1 1-.2 1.1.3s-.3.8-.8.9c-.4.1-1 .1-1.1.7a2 2 0 00.3 2.1l1.2.8c.6.3.7.8.3 1.2a4.5 4.5 0 00-.4 3.9 5 5 0 01-.1 3.2c-.7 2-.6 2.1 1.6 2.1 5.7 0 11.4-.1 17.1.1l19.4.2c2.1 0 4.1.2 6.2.6a13 13 0 015.2 2.4 9 9 0 012.8 5c.2.9.7 1.6 1.3 2.2 1.6 1.3 3 2.7 4.3 4.3a13 13 0 012.6 6.8c0 .8.2 1 1 1.1.8.1 2.1.1 2.2 2.2a128 128 0 00-.9 17.2c0 1.2-.2 1.5-1.5 1.5s-1 .3-1 1.1c0 2-.2 4-.7 5.9a5.4 5.4 0 01-3.2 3.8l-2.8 1.2a2 2 0 00-1.3 1.9 17 17 0 01-2.1 6.7c-2 3.2-5.2 5.4-8.9 6.3a38 38 0 01-9.5 1.2H92.8c-.6 0-.8.2-.8.7v4.7c0 .7.4.7.9.8 2.1.2 4.1.7 6.1 1.3 1.1.4 2.2 1 3.1 1.8l.4.4c.2.2.6.6.2.8-.3.2-.4-.1-.7-.3-1-.9-2.2-1.6-3.5-2a51.3 51.3 0 00-18.3-1.7c-5.2.4-10.2 1.1-14.9 3.5a8 8 0 00-2.4 1.7c-.1.4-.3.6-.8.4zm26.5-15.4h23.1c3.1 0 6.3-.5 9.3-1.3 4.3-1.4 7.6-5 8.5-9.4a45 45 0 001.1-8.2c.2-6.7.1-13.3.3-19.9.1-3.5-.2-6.8-.2-10.2a33 33 0 00-.7-7.7c-.8-4.3-2.8-6.3-7.5-7.3a16 16 0 00-4.4-.4c-10.8.1-21.4-.4-32.2-.2H74.5c-7.4.4-14.8.3-22.2.6-3.1 0-6.3.4-9.3 1.1-3.7 1.2-6.5 3.5-7.4 7.4a23 23 0 00-.3 3.7l-.3 11.6v16.2c.1 2.8.2 5.3.1 8-.3 2.6-.1 5.2.7 7.7a8.5 8.5 0 006.2 6.3c2.2.7 4.5 1 6.8 1.1 5.6.6 11.2.8 16.8.9h23zm1.8.5H73c-3.4.1-6.7.1-10.2-.1s-9.6-.4-14.5-.9c-2.5-.1-4.9-.6-7.3-1.3a8 8 0 01-4.5-3.6c-1.1-2-1.8-4.2-2-6.5-.1-1.9 0-3.7.1-5.6-.1-4.6-.2-9.1-.1-13.7l.1-11.7c.1-3.9 0-7.3.3-11 .2-3.5 2.1-6.6 5-8.4a17 17 0 018.3-2.1c5.9-.6 11.8-.3 17.7-.6 5.9-.2 9.9-.4 14.8-.3.2 0 .5 0 .7-.2.4-.6.2-1.5-.5-1.8l-.6-.2c-5.2-.1-10.2.3-15.4.4-5.2.1-9.7 0-14.7.2-4.7.3-6.8.3-10.1 1.3-3.4 1-7.4 3.8-8.3 8.5-.3 1.1-.4 2.3-.4 3.5a1006.8 1006.8 0 00-.2 40.1 22 22 0 00.7 7.2 9.7 9.7 0 005.8 6.8l2.8.8a182.3 182.3 0 0023.5 1.7l22.9-.2 26.1.3a38 38 0 0012.1-1.7c3.6-1.3 6.4-3.9 8-7.4.9-2.2 1.4-4.5 1.6-6.8.5-4.5.7-9 .7-13.4.1-6.9.3-13.9.1-20.8-.2-3.8-.1-7.7-.9-11.5a8.9 8.9 0 00-2.8-5.7 12.8 12.8 0 00-5.9-2.4c-3.3-.4-6.7-.5-10.1-.4l-17.7-.3H83.9c-1.5 0-1.6.1-1.5 1.6v.2c.1.3.2.4.6.4h14c5.7.1 11.4.3 17 .2 2.7-.1 5.3.1 8 .3 4.7.8 7.8 2.8 8.7 8 .5 3 .8 6 .9 9.1.2 5.6-.1 11.2-.1 16.7.1 5.2-.1 10.3-.6 15.5a25 25 0 01-1.7 8 11.7 11.7 0 01-6.1 6.1 25.2 25.2 0 01-10.9 2.1c-7.6-.2-15.2-.4-21.8-.4zm44.9-57.5v.6c.6 4.6.8 9.2.7 13.8-.2 5.9-.2 11.9-.3 17.8a195.6 195.6 0 01-.3 12l3.4-1.5c1.6-.6 2.7-2 2.9-3.7.4-1.8.5-3.6.6-5.4.3-7.3.9-14.6.2-21.8 0-2.1-.5-4.2-1.5-6.1-1.4-2.1-3.1-4-5-5.6-.3-.1-.5-.2-.7-.1zM30.7 127.1c-.2-12.9-.1-25.5.2-38.1a.8.8 0 00-.8.2l-3.5 2.6a7.6 7.6 0 00-2.9 5.6c-.2 2.1-.3 4.2-.2 6.3.2 4.1.3 8.4.7 12.5.3 4.1 2.5 7.7 5.9 10.5l.6.4zm52 20c-2-.1-4.5.1-7.1.1-.7 0-.8.2-.8.8v4.5c-.1.9.1 1.1 1 1 4.9-.8 9.9-.9 14.9-.4.6 0 .8-.1.8-.7v-4.5c0-.6-.3-.8-.9-.8h-7.9zM77.3 36.4v.3l.3.9c1.1 3 3.2 5.4 4.8 8.2.2.4.6.1.7-.2l2.8-4.3c1.1-1.4 2.1-2.9 2.8-4.5.4-.8.1-1.2-.8-1.2a5 5 0 00-3.5 1c-.7.4-1 .4-1.6 0a9.9 9.9 0 00-3.9-1.8c-1.1-.2-1.6.3-1.6 1.6zm65.6 79.1v2c0 .8.3 1 1.1.9.8-.1.6-.6.6-1 0-3.6.2-7.3.6-10.9.4-2.2.4-4.5.2-6.7-.1-.8-.6-1-1.7-.9-1.1.1-.7.4-.7 1 .6 5.2.2 10.3-.1 15.6zM22.8 102.6v-2.5c0-.2 0-.4-.2-.6a1 1 0 00-1.4.7v.2l.1 2.1.2 10.1c0 .8.6 1.2 1.5 1.1.9-.1.3-.7.3-1l-.5-10.1z"/>
    <g class="sound">
      <path d="M153.5 99.9c.2-1.2.5-2.3.9-3.5.2-.5.6-.6 1-.3.7.5 1.4 1 1.9 1.7.3.3.3.7 0 .9-.9.9-1.9 1.7-3 2.4-.5.3-.8 0-.8-1.2zm.5.6c1-.6 1.9-1.3 2.7-2 .1-.1.1-.3 0-.4a6.5 6.5 0 00-1.8-1.5l-.9 3.9z"/>
      <path d="M16.4 100.4c.1.3 0 .6-.2.8-.2.1-.5 0-.7-.1l-2.9-2.2a.7.7 0 01-.2-.9l.2-.2 1.9-1.6c.1-.2.3-.4.6-.3.2.1.4.3.3.6a16 16 0 011 3.9zM15 96.6c-.7.4-1.3.8-1.8 1.3-.1.1-.2.3-.1.4l2.7 2.1c-.2-1.2-.4-2.5-.8-3.8z"/>
      <path d="M2.7 112.3h1.6c.2 0 .4 0 .6.2.1.2-.1.3-.2.4-.9.9-1.9 1.7-2.9 2.4-.4.2-.8.1-.9-.4l-.3-2c-.1-.4.1-.6.4-.6h1.7zm1.1.7c-.4-.3-.9-.4-1.5-.3-1.3 0-1.6.2-1.1 1.6.4 1.3.2.4.6.2l2-1.5z"/>
      <path d="M167.2 112.3h1.7c.4 0 .7.2.6.7l-.3 1.9c-.1.6-.4.7-.9.3-1-.6-1.9-1.3-2.8-2.1-.2-.1-.4-.3-.3-.6.1-.2.4-.2.7-.2h1.3zm-1.2.5c.5.6 1.1 1 1.8 1.5.2.2.7.6.8.1.1-.4.7-1.2 0-1.6-.8-.3-1.8-.3-2.6 0z"/>
      <path d="M15.5 112.3c0 .7-.6 1.2-1.2 1.2-.7 0-1.2-.5-1.2-1.2v-.1c0-.8.4-1.3 1.1-1.3.7 0 1.3.6 1.3 1.3v.1zm-1.9-.1c.1.3.1.8.7.8.4 0 .7-.3.7-.7 0-.4-.2-.8-.7-.8-.4 0-.6.2-.7.7z"/>
      <path d="M154.4 112.3c-.1-.7.5-1.4 1.2-1.5.7 0 1.2.5 1.2 1.2v.1c0 .7-.5 1.3-1.2 1.3a1 1 0 01-1.2-1v-.1zm.5-.1c0 .4.2.8.6.8s.7-.4.8-.8c0-.4-.3-.7-.7-.7-.4 0-.7.3-.7.7z"/>
      <path d="M9 104.3c.7.1 1.1.4 1 1 .1.6-.3 1.1-.9 1.1H9c-.7 0-.9-.4-.9-1.1 0-.7.4-.9.9-1zm.5 1.1c0-.3-.1-.4-.4-.4s-.3.1-.3.4c0 .3 0 .3.3.4.2.1.4-.1.4-.4z"/>
      <path d="M161.8 105.3c0 .7-.2 1.1-.9 1.1s-1.1-.4-1-1.1c-.1-.5.3-.9.8-1h.2c.5.1.9.5.9 1zm-.9-.3c-.3 0-.4.1-.4.3 0 .2.1.4.4.4s.3-.1.3-.3c0-.2-.1-.4-.3-.4z"/>
      <path d="M159.4 116.7c.2 0 .3.2.3.3l1 3.2c0 .2.1.4-.1.4l-.4-.2-1-3.5c0 .1 0-.2.2-.2z"/>
      <path d="M10.6 117.3c-.2 1-.7 2.1-1 3.2-.3 1.1-.1.2-.3.2-.1 0-.2-.2-.1-.3v-.1l1-3.6c0-.1.1-.2.3-.1.2.3.1.4.1.7z"/>
      <path d="M4 105.1c-.1.2-.3.3-.4.2l-2.1-1.5c-.1-.1-.2-.2-.1-.3 0-.1.2-.2.3-.1h.1l2.2 1.5v.2z"/>
      <path d="M166.2 105.3h-.3l.1-.3 2.2-1.5h.3v.3l-2.3 1.5z"/>
    </g>
    <path class="eye-open" d="M105.2 104.1c0 1.7-.3 3.4-1 4.9a6 6 0 01-.9 1.5c-.6.8-1.7 1-2.5.4l-.5-.6a6.7 6.7 0 01-1.1-4.1c.1-2 .4-4 1-5.9.3-1.2 1.5-2 2.7-1.7.7.2 1.3.7 1.6 1.3.4 1.3.7 2.7.7 4.2zm-5.3.9c1.3-.6 2.8-.9 4.3-.9.2 0 .3-.2.3-.3 0-1.3-.3-2.6-.9-3.8-.4-.7-1.3-.9-2-.5l-.5.5c-.7 1.5-1.2 3.2-1.2 5z"/>
    <path d="M63.4 104.3c0 2-.5 4-1.5 5.7-1.1 1.7-2.8 1.6-3.8-.2-.5-1-.8-2.2-.8-3.4 0-2.2.3-4.3 1-6.4.3-.8 1.1-1.4 2-1.6 1 0 2 .6 2.4 1.6.5 1.4.8 2.9.7 4.3zm-5.2.7c1.3-.6 2.7-.9 4.1-.9.2 0 .3-.2.3-.3 0-1.3-.3-2.5-.8-3.7-.4-.8-1.4-1-2.1-.6l-.4.4a9.8 9.8 0 00-1.1 5.1z"/>
    <path d="M83.9 133.9c5.2 0 9.9-3.1 11.9-8 .2-.4 0-.7-.3-.9-.3-.2-1.2-.2-1-.8.2-.6.9 0 1.2.2l2.4 1c.2.1.6.2.3.6-.2.3-.4.2-.7.1-.2-.1-1-.3-1.5.4-1.2 2.7-3.3 5-5.9 6.4a15.5 15.5 0 01-11.4.9 14 14 0 01-8.5-5.7l-.7-1c-.3-.8-.8-.8-1.3-.3l-.7.4c-.2.1-.4.2-.7 0-.2-.2.1-.4.3-.7a27 27 0 013.7-2.1c.2 0 .4-.1.6.1.1.2 0 .5-.2.6l-.4.2c-1.1.7-1.1.7-.4 1.8 2.4 3.8 5.9 5.4 10.1 6.4.9.3 2.1.4 3.2.4z"/>
  </g>
  <g class="sound green">
    <path d="M154 100.5c1-.6 1.9-1.3 2.7-2 .1-.1.1-.3 0-.4a6.5 6.5 0 00-1.8-1.5l-.9 3.9z"/><path d="M160.9 105c-.3 0-.4.1-.4.3 0 .2.1.4.4.4s.3-.1.3-.3c0-.2-.1-.4-.3-.4z"/><path d="M166 112.8c.5.6 1.1 1 1.8 1.5.2.2.7.6.8.1.1-.4.7-1.2 0-1.6-.8-.3-1.8-.3-2.6 0z"/><path d="M154.9 112.2c0 .4.2.8.6.8s.7-.4.8-.8c0-.4-.3-.7-.7-.7-.4 0-.7.3-.7.7z"/><path d="M15 96.6c-.7.4-1.3.8-1.8 1.3-.1.1-.2.3-.1.4l2.7 2.1c-.2-1.2-.4-2.5-.8-3.8z"/><path d="M9.5 105.4c0-.3-.1-.4-.4-.4s-.3.1-.3.4c0 .3 0 .3.3.4.2.1.4-.1.4-.4z"/><path d="M13.6 112.2c.1.3.1.8.7.8.4 0 .7-.3.7-.7 0-.4-.2-.8-.7-.8-.4 0-.6.2-.7.7z"/><path d="M3.8 113c-.4-.3-.9-.4-1.5-.3-1.3 0-1.6.2-1.1 1.6.4 1.3.2.4.6.2l2-1.5z"/>
  </g>
  <path class="eye-closed" d="M97.8 105.5s5.2-2.9 7.4-2.2"/>
</svg>
