<svg class="chem" xmlns="http://www.w3.org/2000/svg" width="170" height="170" viewBox="0 0 170 170"><path class="drop" d="M85 49.6a21.1 21.1 0 00-3.4 5.8 4.5 4.5 0 00-.1 3.6 3 3 0 003.6 2.2 3.7 3.7 0 003.3-3.5 7.2 7.2 0 00-.6-2.9 16.2 16.2 0 00-2.7-5z"/><path class="chem-contents blue" d="M123 152.6c-3 9.1-84.4 8-78.6-1.3h-.3c38.5-71.7 21.1-60 34.9-61.5 26-.6 17.1-3.6 23.9 17.1 6.7 15.2 12.8 29.8 19.9 44.6"/><g class="flask"><path d="M70.4 55.8c0 13.1 1.5 26.7-2.2 39.6-25.8 57.6-28.4 54.5-24.4 61.1"/><path d="M44.9 157.5c9.6 5.3 21.7 4.7 32.5 5.2s46.3-.4 47-8.8c1.5-6.5-7.5-18.3-8.4-22.1-3.6-7.1-5.9-14.4-9.1-21.5-7.3-15.1-6.9-32.1-7.3-48.5-.2-3.3 1.3-6.8 0-8.5-6.4-5-19.8-3.6-23.6-2.7-21.1 6.4 17.7 12.2 23.8 5.1M84.9 159c67.3-2.1 32.7-14.7-7.3-13.1M76.4 146c-60.8 3.1-23.9 14 8.5 13"/><path d="M97.2 54c-6.1-2.7-18.9-1.3-21.6-1.1-13.4 2.6 21.2 3.8 21.3 1.1M69 100l-18.8 40.2M97.6 61.8c1.3 13-1.2 26.8 3.9 39.3M101.9 105c5.6 12.2 10.9 24.6 16.5 36.9M72 59.5c.7 16.5 1.4 28.8-2 37.1M78.2 106.1c-3.4 1.7-6.6 4.8-9.9 6.8M77.2 110.9c-2.7 1.8-5.6 3.6-8.3 5.7M78.3 100.7c-2.6 1.2-4.9 3.9-7.6 5.3M78.9 95.1c-2.3 1.6-5 3.1-7.4 5M81.5 78.8a55.5 55.5 0 00-6.8 5.4M79.4 89.9l-6.7 5.3M79.8 71l-5.2 4.8M80.5 84.3l-4.9 4.3M80.1 74.9l-5 4.2M80 66.1a64.8 64.8 0 00-4.9 4.4M79.1 63.3L76.3 66"/></g><g class="pipette"><path class="green pipette-contents" d="M96.4 30.6l-.7.8-7.6 7.4a3.9 3.9 0 00-1.5 2.8 5.8 5.8 0 01-1.5 3.5l1.6 1.6 1.1 1.4.4-.5a6.9 6.9 0 013.7-1.3c.4-.1.9 0 1.1-.5l8.6-8.3a2 2 0 00.7-.6c-4.7-1.2-5.9-6.3-5.9-6.3z"/><path d="M114.5 27.8a9.6 9.6 0 001.3-1.1 2.6 2.6 0 00-.5-3.1c-.3-.3-.3-.5.1-.9l6.1-5a10.8 10.8 0 003.7-4.5c.4-1 .9-2 .2-3.2a2.8 2.8 0 00-2.8-1.6 9.1 9.1 0 00-5.5 2.5l-6.5 6c-2.2 2-.9.7-1.7.2a2.3 2.3 0 00-2.6-.1l-2.6 1.9c1.5 2 2.8 3.9 4.3 5.7a14.6 14.6 0 004.9 4 .9.9 0 001 0zM111.5 28l-6.8 6.6L93 45.9a1.4 1.4 0 01-1 .5 6 6 0 00-4.1 1.6h-.3c-1.1-.4-2.4-1.1-2.4-2.8"/><path d="M105.5 21.5l-.8.7-9.2 9.2-8.2 8a2.3 2.3 0 00-.7 1.7 6.3 6.3 0 01-1.3 3.5c-.4.6-.3.7.3 1.1a5.2 5.2 0 012 2.3"/><path d="M104 25.8l-6.2 6.1-4.4 4.3M91.5 38l-2 1.9"/></g></svg>