<svg version="1.1" xmlns="http://www.w3.org/2000/svg" x="0" y="0" viewBox="0 0 170 170" xml:space="preserve"><style>.st1{fill:#85bb25}.st2{fill:#1d1d1b}</style><path d="M48.5 116c-.5 0-.8.3-.9.8-.1 1.2-.5 2.6-.8 4-.9 4.9-1.1 9.8-.6 14.7.2 2.8 1.1 5.4 2.6 7.8a8 8 0 005.9 3.6c2.6.2 5.2-.3 7.5-1.4 4.2-1.8 8.2-4.2 11.6-7.2a112 112 0 0016.5-17.2l2.5-3.1-.3-.3.9-1.4 1.6 1 .6.4c5.7 2.7 11.6 4.9 17.7 6.7a70.6 70.6 0 0017.1 3.1c2.9.2 5.8-.2 8.5-1 5-1.6 7.2-4.9 6.8-10-.2-2.9-1.1-5.7-2.5-8.3a72 72 0 00-10.3-14.7l-2.7-1.4 3-.9c5.2-3 9.9-6.7 14.1-11a21 21 0 005-7.5c1.8-3.8.6-8.3-2.8-10.7a20.4 20.4 0 00-7.4-3.6 66.5 66.5 0 00-14.7-2.5h-1.9c-.5 0-.6.1-.8.6l-2.6-1.9c1.7-.1 1.7-.1 2.1-1.8a58.6 58.6 0 001.4-16.2c0-2.8-.7-5.6-2.1-8.1a8 8 0 00-8.1-4.8c-2.3.1-4.5.6-6.6 1.6-4.4 2-8.5 4.7-12.1 7.9a107.4 107.4 0 00-16.8 18.2l-1 1.3.4.3-2.6.4-.7-.5c-5.4-2.5-10.9-4.6-16.5-6.3a68.2 68.2 0 00-17.3-3.5c-3.4-.3-6.9.1-10.2 1.2a9 9 0 00-6.2 10.1c.4 2.5 1.2 4.8 2.2 7.1a64.5 64.5 0 0010.7 15.6c.2.2.5.3.8.1l-.3 2.3c-.3-.3-.4-.4-.8-.1a65.7 65.7 0 00-13.3 10.1 25 25 0 00-5.7 7.9c-1.9 4.7-.9 8.5 3.1 11.5 1.8 1.3 3.7 2.3 5.8 3a58 58 0 0015.5 2.7h2.1c.6.1.9-.1 1-.8" fill="#a8d2e9"/><path d="M46.4 116h-.9c-5.2-.2-10.4-.9-15.5-2.2-2.6-.7-5.1-1.9-7.4-3.4-5.3-3.6-6.6-8.9-3.9-14.6 1.7-3.1 3.9-5.9 6.5-8.3 3.6-3.3 7.6-6.3 11.8-8.9l.9-.5-1.4-1.6a63.6 63.6 0 01-9.4-14c-1.2-2.4-2-5.1-2.3-7.8-.6-6.1 2.3-10.3 8.1-12 3.5-1 7.1-1.3 10.7-.9 7.4.7 14.6 2.4 21.6 5L77 51.7c.5.3.8 0 1-.4 4.4-5.7 9.1-11 14.2-16 4.1-4 8.7-7.4 13.7-10.1 2.5-1.5 5.4-2.4 8.3-2.7 4.8-.7 9.4 2 11.1 6.5 1.1 2.8 1.7 5.8 1.8 8.8a71 71 0 01-1.7 15.9l-.1.5.1.3h.8c5.5.1 10.9.9 16.2 2.5 2.8.7 5.3 2 7.6 3.7 4 2.9 5.5 8.2 3.4 12.7a25 25 0 01-4.9 7.5 69.5 69.5 0 01-13.8 11l-.8.5.6.6c3.9 4.2 7.2 8.9 9.8 14 1.3 2.6 2.3 5.5 2.7 8.4.8 5.9-2.1 10.3-7.8 12.1-2.8.8-5.6 1.2-8.5 1.2a67.2 67.2 0 01-18.3-3.4c-6-1.8-11.8-4-17.4-6.6-.6-.4-.9-.3-1.3.3a113 113 0 01-17.6 19c-3.8 3.4-8 6.2-12.7 8.3a20 20 0 01-7.6 1.7c-4.2-.2-8-2.9-9.4-6.8a23 23 0 01-1.7-9.3c-.1-5 .5-10 1.6-14.9l.1-1zm35.7-5.3l3-.6 15.8-4.5c.4-.1.7-.3.9-.6l3.4-5.6c4-6.7 7.5-13.6 10.6-20.8.4-.6.3-.9-.3-1.4-3.7-2.6-7.2-5.4-11-8-3.7-2.6-9.6-5.9-14.3-8.9-.3-.2-.7-.2-1-.1-6.1 1.3-11.9 3-17.7 4.8a3 3 0 00-1.9 1.4L65 73.9c-3.5 5.9-6.5 12-9.2 18.3-.3.5-.1.8.3 1.2 4 2.8 7.8 5.8 11.9 8.5 4.1 2.7 9 5.7 13.6 8.5l.5.3zm-5.4-57.4l-.7-.4c-5.4-2.5-10.9-4.6-16.5-6.3a68.2 68.2 0 00-17.3-3.5c-3.4-.3-6.9.1-10.2 1.2a9 9 0 00-6.2 10.1c.4 2.5 1.2 4.8 2.2 7.1a64.5 64.5 0 0010.7 15.6c.2.2.5.3.8.1l3.4-1.9c8.3-4.3 16.9-8 25.7-11 .5-.2.9-.5 1.2-.9 1.7-2.3 3.2-4.8 4.9-7.2.5-1 1.2-2 2-2.9zm18.3 64l.6.4c5.7 2.7 11.6 4.9 17.7 6.7a70.6 70.6 0 0017.1 3.1c2.9.2 5.8-.2 8.5-1 5-1.6 7.2-4.9 6.8-10-.2-2.9-1.1-5.7-2.5-8.3a72 72 0 00-10.3-14.7c-.2-.3-.6-.3-.9-.1-4.1 2.2-8.1 4.4-12.4 6.3a172 172 0 01-16.8 6.6c-.3.2-.6.4-.8.8l-4 5.8-3 4.4zM78.9 52.7l.4.3 10.2 5.3h.8l4.9-.9c8.9-1.7 17.9-2.7 27-2.7 1.7-.1 1.7-.1 2.1-1.8a58.6 58.6 0 001.4-16.2c0-2.8-.7-5.6-2.1-8.1a8 8 0 00-8.1-4.8c-2.3.1-4.5.6-6.6 1.6-4.4 2-8.5 4.7-12.1 7.9A107.4 107.4 0 0080 51.5l-1.1 1.2zm13.9 65.2l-.3-.3-10.5-5.3h-.9c-4.8.9-9.6 1.8-14.5 2.5-6 .9-12.1 1.3-18.2 1.3-.5 0-.8.3-.9.8-.1 1.2-.5 2.6-.8 4-.9 4.9-1.1 9.8-.6 14.7.2 2.8 1.1 5.4 2.6 7.8a8 8 0 005.9 3.6c2.6.2 5.2-.3 7.5-1.4 4.2-1.8 8.2-4.2 11.6-7.2a112 112 0 0016.5-17.2l2.6-3.3zm34.7-62h-1.9c-.5 0-.6.1-.8.6a50 50 0 01-1.6 5.7l-5 14.1c-.4 1.2-.5.9.4 1.6l3.4 3c3.7 3.1 7.3 6.5 10.6 10.1.1.3.4.5.8.3 5.2-3 9.9-6.7 14.1-11a21 21 0 005-7.5c1.8-3.8.6-8.3-2.8-10.7a20.4 20.4 0 00-7.4-3.6 59 59 0 00-14.8-2.6zm-83.7 58.7h2.1c.6.1.9-.1 1-.8 1.7-6.5 3.8-12.9 6.3-19.1.6-1.4.6-1.4-.5-2.5-4.8-3.9-9.4-8.1-13.6-12.7-.3-.3-.4-.4-.8-.1A65.7 65.7 0 0025 89.5a25 25 0 00-5.7 7.9c-1.9 4.7-.9 8.5 3.1 11.5 1.8 1.3 3.7 2.3 5.8 3a70.9 70.9 0 0015.6 2.7zm48.1-55.2c4.1 2.7 8.4 5.3 12.5 8.1l12.3 8.8a134 134 0 006.7-20.3c-3.7-.7-28 2-31.5 3.4zM55.1 94.3c-1.4 1.9-7 18.7-6.8 20.4 10.6-.1 21.2-1.3 31.5-3.6-8.7-5-16.9-10.6-24.7-16.8zm-.7-2.3c3.9-8.9 8.3-17.6 13.4-25.8-9.7 3.2-19.1 7.3-27.9 12.4A184 184 0 0054.4 92zm49.4 12.5c9.7-3.2 19-7.3 27.8-12.4-4.5-4.8-9.3-9.3-14.3-13.4a253 253 0 01-13.5 25.8zM84 111.7c.1.2.3.3.5.3l8.7 4.5c.4.3.6 0 .9-.3l3.7-5.3 2.3-3.6-16.1 4.4zm3.5-52.9h-.3l-8.8-4.5c-.4-.3-.6-.1-.9.3l-4.8 6.7-1.3 1.9 16.1-4.4z" id="TIJ4GT.tif"/><circle class="st1" cx="27.8" cy="65.2" r="5"/><path class="st2" d="M33.2 65.2a5.6 5.6 0 01-9.5 4.1 5.5 5.5 0 01-1.6-4c0-1.4.6-2.8 1.6-3.9a6 6 0 014-1.6c1.5-.1 2.9.5 3.9 1.6a4 4 0 011.6 3.8zm-.7 0a5 5 0 00-4.7-4.4c-1.2-.1-2.4.4-3.2 1.3-.9.8-1.5 1.9-1.6 3.1a5 5 0 004.8 4.5c2.5.1 4.6-1.9 4.7-4.4v-.1z"/><ellipse transform="rotate(-7.6 142.1 56.7)" class="st1" cx="142.2" cy="56.7" rx="5.3" ry="5.4"/><path class="st2" d="M141.5 51.3c1.5-.2 3 .1 4.1 1 .6.5 1.1 1 1.6 1.7.5.6.7 1.3.8 2.1 0 1.5-.4 3-1.3 4.3a5.8 5.8 0 01-8 1.2c-1.2-1-2-2.4-2.2-3.9v-2.3c.2-.7.6-1.4 1.2-1.9a4.2 4.2 0 013.8-2.2zm0 .5c-1.3.2-2.4 1-3.1 2.1-.4.5-.6 1.1-.8 1.7l-.3 1.9c.2 1.3.9 2.5 1.9 3.2 1 .9 2.3 1.3 3.6 1.2 1.3-.2 2.5-.9 3.4-1.9.8-1.1 1.1-2.4.8-3.7l-.6-1.8c-.3-.6-.7-1.1-1.2-1.6-1-1-2.3-1.3-3.7-1.1z"/><g><ellipse transform="rotate(-7.6 86.2 83)" class="st1" cx="86.3" cy="83" rx="5.3" ry="5.4"/><path class="st2" d="M85.5 77.4c1.5-.2 3 .2 4.3 1 1.3.9 2.1 2.3 2.3 3.9 0 1.5-.4 3.1-1.2 4.4a6 6 0 01-3.9 2.1c-1.5.3-3.1-.1-4.3-1a5.5 5.5 0 01-2.3-3.9c-.2-1.5.2-3.1 1.2-4.3a6 6 0 013.9-2.2zm.1.6c-1.3.2-2.5 1-3.2 2.1a6.6 6.6 0 00-.8 3.6 4.8 4.8 0 008.7 2.4c.8-1.1 1.1-2.4.8-3.7a5 5 0 00-1.8-3.2 4.8 4.8 0 00-3.7-1.2z"/></g><g><ellipse transform="rotate(-7.5 49.8 145.5)" class="st1" cx="49.7" cy="145.5" rx="5.3" ry="5.4"/><path class="st2" d="M49.4 140a5.5 5.5 0 016.5 4.9 6 6 0 01-4.9 6.5h-2.3c-.8-.1-1.5-.4-2.1-1l-1.6-1.7-.8-2.3c-.2-1.5.3-3.1 1.3-4.3 1-1.2 2.4-2 3.9-2.1zm0 .4a5 5 0 00-3.1 2.2c-.7 1.1-1 2.3-.9 3.6.1.6.3 1.3.6 1.8.3.6.7 1 1.2 1.4l1.7.8 1.9.4a5 5 0 003.2-1.9 5 5 0 00.9-3.7 5 5 0 00-1.8-3.2c-1-1-2.3-1.5-3.7-1.4z"/></g></svg>