<svg xmlns="http://www.w3.org/2000/svg" viewBox="0 0 870 1020">
    <path d="m683 123-8-61S645 5 578 5 478 73 464 113s-42 59-69 57 15 10 15 10 43 7 82-38 62-79 105-76 79 34 86 57Z"
        fill="#494735" />
    <path
        d="M663 266c-21-15-10-53-35-70-40-26 36-33 48-60-19-115-145-67-186 14 15 87 1 114-39 141-113 73-189 122-223 235-8 35-22 86 0 115 48 64 178 44 239 35 171-2 276-146 224-311 0 0-4-81-28-99Z"
        fill="#367f67" />
    <ellipse cx="574.3" cy="127.2" rx="31.8" ry="20.1" transform="rotate(-77 574 127)" fill="#fff" />
    <path fill="#9d995c" d="m774 251-95-105-62 29 25 32 114 79-3-35" />
    <path fill="#c98c94" d="m618 314 88-89 58 20-32-46 74-75 23-15 35 2-22 42-65 77-113 102-24 12-22-30z" />
    <path fill="#494735" d="M411 683h34v55h-34zm170 34-34-5-6-36 16-14h24v55z" />
    <path fill="#9d995c"
        d="m51 620 174-101-16 94 35 55-45 66-62 43-7-8 49-50-14-2-39 30-77 26-27-6 133-87 40-42-64 27-67 20-54-3 68-28 91-44-33 3-89 16 4-9z" />
    <path d="M692 312h1a1 1 0 0 1-1 0Zm5 228a1 1 0 0 1 0-2 1 1 0 0 1 0 2Z" fill="#494735" />
    <path
        d="M848 100c-46 5-79 53-117 94-79-69-9-51-60-149-35-49-131-72-182 6-43 62-27 136-130 97-27 4 59 73 123 12 42 180-152 109-254 341-34 37-89 66-136 90-5 6-58 25-56 39s89-5 119-18c-45 27-92 42-141 60-57 24 71 36 164-24-48 50-108 79-163 117-9 29 87 8 140-32l9-7c-2 4-5 7-8 9-90 83 31 46 76-40 22-34 1-24 56-8 35 11 71 12 106 7 9-1 5 9 7 15 11 77 21-22 20 113 2 40 8 78 13 117-5 15-20 21-31 32-7 4-10 10-2 12 12-2 19-15 28-19-22 43-9 47 12 5 6 13 5 25 7 39 17 17 8-29 6-37a3 3 0 0 1-1-3 3 3 0 0 1 2 3c10 13 12 30 17 44 20 22 3-34-3-43-22-37-22 9-29-70-7-51-10-101-8-153 23-5 20-32 22-53 0-16 16-8 83-17-3 56 32 28 30 62 1 30 0 59 3 89 18 32 40 62 59 95-1 12-19 25-32 36-14 6-7 27 28-10a9 9 0 0 1 3-4c-2 13-11 21-16 32 6 21 21-15 25-22-7 54 10 45 13-7 8 11 8 22 13 33 19 16 5-22 1-31-31-39-54-80-82-121-6-32-2-68-5-101 3-7 11 1 13-15 2-19-3-36-4-55 8-7 18-11 26-19 30-24 62-50 78-86 5-15 6-6 15-41l3-11c-1-2 8-19 2-77a121 121 0 0 0-4-25l-14-89h1c12-10 24-23 36-32 38 14 45 25 30-25 26 13 39 11 14-16 13-8 149-156 75-139Zm1 29c0 11-10 20-14 30-7-13-21-23-25-35 24-16 22-9 39 6Zm-47 3c12 16 30 2-57 77-11-11-14-4 57-77Zm-399 40c68 6 59-81 118-140 43-43 156-23 158 77-20-50-89-60-132-33-48 32-75 115-144 96ZM58 623c53-32 112-56 160-97 0-1 0 1 0 0-14 31 26 69-160 97Zm-33 58c62-25 129-47 182-88 13 29-93 91-182 88Zm5 86c67-38 135-79 180-141l9 22c-44 61-110 121-189 119Zm110 0c0 1 0 0 0 0Zm0 0c32-34 67-67 89-107 24-2-40 93-89 107Zm303-70c0 54-31 54-32-1 1-7 22-4 28-6 6-1 4 5 4 7Zm134 18c-16 1-33-10-30-31 2-18 18-13 27-18 4 3 9 41 4 49Zm67-115c-54 48-76 70-181 76-58 9-246 36-245-78 0-82 51-178 134-238 46-34 102-55 136-101 11-21 12-63 5-104-5-8 35-48 56-68 31-23 99-23 118 22 12 38 12 28-46 60-27 7-3 24 10 35 21 14 6 24 26 61 0 13-26 18-26 32-9 8-23 13-13 26 31 45 27 12 46 15 28-23 15-23 23 20 17 80 33 168-43 242Zm5-292c-15-18-5-10 20-37 12-8 40-51 54-35l-74 72Zm2 20c-5 22-21-4-27-12 14-21 18 1 28 12Zm4-105 28 22-16 15c-6-11-13-26-12-37Zm0 0Zm-5-18-4-3c20 7 38 15 56 24-12 16-11 12-52-21Zm12 123c-11-19-19 0 68-86 37 3-4 24-68 86Zm77-57c2-4 6-7 10-10l5 18c-6-2-10-5-15-8Zm-99-84c-10-4-17-6-13-9 70-29 21-57 132 64-40-18-77-38-119-55Zm112 30c20-22 42-40 64-60 6-9 10 7 13 9-18 23-40 42-60 64-5 5-13-10-17-13Z"
        fill="#0e2c22" />
    <path d="M218 526s1 0 0 0Z" fill="#9d995c" />
    <path d="M140 767c0 1 0 1 0 0Z" fill="#357f66" />
    <path
        d="M548 132c-1-43 48-61 53-19 0 72-55 62-53 19Zm40-1c10-33-14-44-27-13-8 14 3 45 6 31-7-14 6-28 21-18ZM426 638c-27-2 56-41 59-52 42-12-50 56-59 52Zm193-257c-2 24-14 79-26 74-8-5 12-38 10-46 3-8 5-51 16-28Zm38 150c-3 13-39 84-46 60 33-42 39-83 46-60Zm3-103c-1 14-28 73-39 56 9-21 32-40 27-65 3-12 15-1 12 9Zm-202-67c-15 1-54-16-37-27 16 9 27 21 49 13 14 4-3 15-12 14Zm-106 92c-12-1-24-8-34-16-5-3-12-17-1-17 8 7 12 14 22 18 8 6 14 2 23 4 6 6-4 11-10 11Zm237 62c-5 8-43 57-44 34 25-26 41-53 44-34Zm-75 119c1 9-66 37-47 13 19-4 47-26 47-13Zm50-41c22 2-38 42-40 31-4-7 36-29 40-31Zm-66-69c13-17 30-45 36-36 4 7-35 56-36 36Zm-81-127c-13 1-48-21-28-27 10 8 18 18 34 16 10 3 3 12-6 11Zm44 49c-31 0-41-24-3-11 38-10 24 10 3 11Zm-12 92c-1 8-22 48-28 29 10-16 25-52 28-29Zm-157-33c-9-1-42-13-30-23 9-1 16 10 27 11 18-2 19 10 3 12Zm66-10c-9 0-34-9-18-16 7 3 45 6 18 16Z"
        fill="#0e2c22" />
</svg>