<?xml version="1.0" encoding="utf-8"?>
<svg version="1.1" id="Ebene_1" xmlns="http://www.w3.org/2000/svg" xmlns:xlink="http://www.w3.org/1999/xlink" x="0px" y="0px"
	 viewBox="-375 253.3 90 90" style="enable-background:new -375 253.3 90 90;" xml:space="preserve">
<style type="text/css">
	.st0{fill:#fff;}
</style>
<g>
	<path class="st0" d="M-291.9,312.9c-0.7-0.9-1.3-0.3-2.2,1.1c-0.7,1.2-1.6,4.9-3.2,4.8c-0.7-1.1,4.2-9.7,1.9-11
		c-1.7-1-2.1,2.4-2.4,3.3c-0.5,2-1.3,4.3-2.3,6c-0.1-3,0.4-6,0.7-8.9c0.1-0.9,0.2-3-1.1-3.1c-2.9-0.3-1.1,9.8-3.2,10.7
		c-1-1.7-0.8-5.5-1-7.4c-0.1-0.8,0.1-3.3-1.8-2.6c-1.5,0.6-1.2,5.7-1,7.3c0.2,1.7,0,2.8,0.2,4.8c-0.1,1.3-0.1,2.7-1.1,3.5
		c-1.5-0.2-4.3-5.1-6.2-4c-1.3,0.7-0.9,1.8-0.2,2.5c5.2,4.7,3.6,9.2,6.3,10.2c-0.8,4.8-0.5,5-1.7,9.7c0,0,0.1,0,0.1,0h9
		c0-0.2,0-0.4,0.1-1.8c0.2-2.2,0.5-4.1,0.7-6.2l0.1-0.2c1.9-0.2,2.9-3.3,3.9-5.3c1-2.2,0.6-4.4,1.8-6.5
		C-293.6,318.2-290.7,314.3-291.9,312.9z"/>
	<path class="st0" d="M-346.9,318.7c-2-0.8-4,4.3-5.5,4.7c-1.1-0.7-1.3-2.1-1.5-3.3c-0.1-1.9-0.4-3-0.5-4.7c-0.1-1.6-0.5-6.6-1.9-7
		c-1.9-0.5-1.5,1.9-1.4,2.7c0.1,1.9,0.8,5.6,0,7.3c-2.1-0.6-1.8-10.6-4.5-9.9c-1.2,0.2-0.8,2.2-0.6,3.1c0.7,2.8,1.7,5.6,1.9,8.5
		c-1.2-1.5-2.3-3.7-3-5.5c-0.4-0.9-1.2-4.1-2.8-2.9c-2.1,1.6,3.8,9.3,3.3,10.4c-1.6,0.3-2.9-3.2-3.8-4.2c-1.1-1.3-1.7-1.7-2.3-0.8
		c-1,1.6,2.4,4.9,3.4,6.3c1.4,1.9,1.3,4,2.6,6c1.2,1.8,2.6,4.7,4.5,4.6l0.1,0.2c0.5,1.8,1,3.6,1.4,5.4h8.9c-1.4-3.4-1.3-4-2.6-8.1
		c2.5-1.3,0.3-5.5,4.7-10.7C-345.8,320.3-345.5,319.1-346.9,318.7z"/>
	<path class="st0" d="M-313,303c-3-2.2-8.8,5.4-11.5,5.4c-1.5-1.6-1.2-4.1-1-6.3c0.8-3.3,0.7-5.3,1.4-8.1c0.7-2.7,2.3-11.4,0-12.7
		c-3.1-1.7-3.4,2.6-3.7,4c-0.8,3.3-1.2,9.8-3.4,12.4c-3.3-2,1.9-18.7-3-18.9c-2.1-0.2-2.4,3.4-2.5,5c-0.1,5.1,0.2,10.3-0.8,15.3
		c-1.2-3.1-2.1-7.3-2.5-10.7c-0.3-1.7-0.2-7.4-3.3-6.2c-4.3,1.7,2.1,17.5,0.7,19.2c-2.8-0.2-3.4-6.7-4.4-8.9
		c-1.2-2.7-2.1-3.7-3.5-2.4c-2.4,2.2,1.7,9.4,2.7,12.3c1.6,3.8,0.3,7.4,1.6,11.4c1.1,3.6,2.2,9.1,5.4,9.9l0.1,0.4
		c0,3.7,0,7-0.1,10.8c-0.2,4.4-0.2,2.1-0.3,5h15.7c-1-8.1-0.5-8.5-0.8-16.7c4.8-1.1,3-9.1,12.9-15.9C-311.9,306.4-311,304.4-313,303
		z"/>
</g>
</svg>
