<svg xmlns="http://www.w3.org/2000/svg" width="472.58" height="145.51" viewBox="0 0 472.58 145.51"><path d="M252.83,57a4.21,4.21,0,0,0-4.2-4.2H222a4.2,4.2,0,0,0-4.2,4.2V83.58h7.42v31.49h20.15V83.58h7.42V57Z"/><circle cx="235.33" cy="40.2" r="9.09"/><path d="M235.25,8.09q-27,0-45.72,18.85-19.2,19.5-19.19,46.15t19.19,45.82q19.2,19.18,45.72,19.18,26.85,0,46.54-19.34,18.54-18.36,18.55-45.66T281.46,26.94Q262.59,8.08,235.25,8.09Zm.17,11.7A50.93,50.93,0,0,1,273,35.39q15.62,15.44,15.62,37.7,0,22.43-15.3,37.21-16.1,15.93-37.9,15.93t-37.59-15.77Q182.05,94.7,182.05,73.09T198,35.39Q213.29,19.79,235.42,19.79Z"/><path d="M397.35,8.09a65.83,65.83,0,1,0,1.65,0Zm-.06,11.18c.58,0,1.13,0,1.71,0a53,53,0,1,1-1.71,0Z"/><path d="M370.8,62.5h-5.57l12.64,14.15L390.5,62.5h-4.56c1-6.91,7.06-11.35,14.08-10.79.28,0,.54,0,.82,0,11.44,0,15.94,8.64,16.32,21.39.39,13.3-7.32,21.57-16.32,21.39-9.49-.19-13.08-4.73-14.47-11.62H369.42c2.79,15.87,14.47,25.17,31,25.2,18.76,0,32.31-15.66,32.31-35,0-20.63-13.54-35-32.31-35-.55,0-1.1,0-1.65,0-.13,0-.24,0-.38,0C386.71,38.32,370.8,46.53,370.8,62.5Z"/><path d="M71.58,8A62.62,62.62,0,0,0,25.92,26.9,65.56,65.56,0,0,0,6.67,73.09a63.89,63.89,0,0,0,19.08,45.83,64.41,64.41,0,0,0,45.83,19.26,66.09,66.09,0,0,0,46.54-19.44c12.13-11.95,18.55-27.82,18.55-45.65,0-17.66-6.42-33.71-18.73-46A64.25,64.25,0,0,0,71.58,8Zm.17,11.77A53,53,0,0,1,124.9,73.09c0,14.62-5.18,27.46-15.16,37.27a54.11,54.11,0,0,1-38,15.87,52.5,52.5,0,0,1-37.44-15.69A53,53,0,0,1,18.44,73.09,53.8,53.8,0,0,1,34.31,35.28,51.13,51.13,0,0,1,71.75,19.77Z"/><path d="M70.92,62.27c-3.68-6.7-10-9.37-17.23-9.37-10.6,0-19,7.5-19,20.19,0,12.91,7.93,20.19,19.4,20.19A19.51,19.51,0,0,0,71.13,83.11L63.06,79c-1.8,4.33-4.54,5.63-8,5.63-6,0-8.73-5-8.73-11.54s2.31-11.53,8.73-11.53c1.73,0,5.19.93,7.21,5.26Z"/><path d="M108.47,62.27c-3.68-6.7-10-9.37-17.24-9.37-10.59,0-19,7.5-19,20.19,0,12.91,7.93,20.19,19.4,20.19a19.51,19.51,0,0,0,17.08-10.17L100.61,79c-1.8,4.33-4.54,5.63-8,5.63-6,0-8.73-5-8.73-11.54s2.31-11.53,8.73-11.53c1.73,0,5.19.93,7.21,5.26Z"/></svg>