<svg data-name="Ebene 1" xmlns="http://www.w3.org/2000/svg" viewBox="0 0 262.6 139.7"><defs><clipPath id="a"><path style="fill:none" d="M11.8 16.6h232.4v107.52H11.8z"/></clipPath></defs><rect y="-.1" width="262.6" height="139.68" rx="8.5" style="fill:#fff"/><g style="clip-path:url(#a)"><path d="M103.5 124.1a22.8 22.8 0 0 1-6.4-.6 15 15 0 0 1-4.6-1.7 7.5 7.5 0 0 1-2.7-2.6 5.7 5.7 0 0 1-.9-3.2 5.4 5.4 0 0 1 .5-2.2 6.5 6.5 0 0 1 1.6-1.7 10.1 10.1 0 0 1 2.4-1 16.3 16.3 0 0 1 3.1-.3 16.1 16.1 0 0 0 .6 4.4 8.5 8.5 0 0 0 1.7 3.1 6.7 6.7 0 0 0 2.5 1.9 8.7 8.7 0 0 0 3.2.6 10.5 10.5 0 0 0 3-.5 5.3 5.3 0 0 0 2.2-1.2 4.2 4.2 0 0 0 1.4-1.8 5.4 5.4 0 0 0 .5-2.2 5.7 5.7 0 0 0-.4-2.2 4.2 4.2 0 0 0-1.1-1.8 10.5 10.5 0 0 0-2.2-2c-1.2-.7-2.4-1.4-3.7-2a32.6 32.6 0 0 1-4-2.4 15 15 0 0 1-2.9-2.7 11.4 11.4 0 0 1-1.8-3.2 10.7 10.7 0 0 1-.5-4 7.9 7.9 0 0 1 1.1-4.5 8.8 8.8 0 0 1 3-3.6 13 13 0 0 1 4.9-2.3 19.1 19.1 0 0 1 6.3-.8 27.8 27.8 0 0 1 5.8.4 19.6 19.6 0 0 1 4.1 1.3 7.8 7.8 0 0 1 2.4 2 3.8 3.8 0 0 1 .9 2.5 4.2 4.2 0 0 1-1.9 3.5c-1.2.9-3.2 1.3-6 1.3a21.1 21.1 0 0 0-.2-2.6 7.7 7.7 0 0 0-1-2.5 5.2 5.2 0 0 0-1.8-1.8 4.7 4.7 0 0 0-2.9-.7l-2.3.3a5.1 5.1 0 0 0-2.1 1 6.5 6.5 0 0 0-1.5 1.8 5.1 5.1 0 0 0-.6 2.5 5.3 5.3 0 0 0 .5 2.5 4.8 4.8 0 0 0 1.5 2 20.7 20.7 0 0 0 2.4 1.7l3.5 1.8a20.3 20.3 0 0 1 6.6 5 10.3 10.3 0 0 1 2.2 6.3 11.7 11.7 0 0 1-1.2 5.2 9.4 9.4 0 0 1-3.2 3.9 16.4 16.4 0 0 1-5.2 2.4 30.8 30.8 0 0 1-6.8.8M143.4 96.7a3.8 3.8 0 0 0-2.7 1 8.5 8.5 0 0 0-2.4 2.6 24.2 24.2 0 0 0-1.8 3.6 29.8 29.8 0 0 0-1.1 4h.5a14 14 0 0 0 4.1-.5 10.1 10.1 0 0 0 3.3-1.6 7.3 7.3 0 0 0 2.2-2.4 6.9 6.9 0 0 0 .8-3.2 4.2 4.2 0 0 0-.8-2.6 2.4 2.4 0 0 0-2.1-.9m-2 23.2a8.4 8.4 0 0 0 2.7-.4 13.3 13.3 0 0 0 2.4-1 10.1 10.1 0 0 0 2-1.4 12.9 12.9 0 0 0 1.6-1.7 3.7 3.7 0 0 1 .5 1.1 5.9 5.9 0 0 1 .2 1.3 3.8 3.8 0 0 1-.7 2.1 8 8 0 0 1-2.1 2 13.1 13.1 0 0 1-3.7 1.5 18.8 18.8 0 0 1-5.3.7 22.4 22.4 0 0 1-5.1-.7 14.1 14.1 0 0 1-4.2-2.2 8.7 8.7 0 0 1-2.8-3.5 9.8 9.8 0 0 1-1-5 20.2 20.2 0 0 1 .5-4.3 17 17 0 0 1 1.8-4.4 16.5 16.5 0 0 1 2.8-4.1 18 18 0 0 1 3.9-3.4 20.4 20.4 0 0 1 5-2.3 20.8 20.8 0 0 1 6-.9 11.4 11.4 0 0 1 6.6 1.7 5.7 5.7 0 0 1 2.4 4.8 7.1 7.1 0 0 1-1.4 4.3 14.1 14.1 0 0 1-3.6 3.7 17 17 0 0 1-5.6 2.3 24.4 24.4 0 0 1-7.1 1H135a4.1 4.1 0 0 0-.1 1.1v1a7.5 7.5 0 0 0 1.6 5 6.4 6.4 0 0 0 4.9 1.8M164.6 98.8a1.5 1.5 0 0 0-.7-1.5 4.9 4.9 0 0 0-2.4-.5h-1l.5-2.9h13.1l-1.3 7.6h.3a17.5 17.5 0 0 1 2-3.5 13.1 13.1 0 0 1 2.2-2.5 9.7 9.7 0 0 1 2.8-1.6 14.9 14.9 0 0 1 3.6-.5 8.4 8.4 0 0 1 4.7 1.1 3.8 3.8 0 0 1 1.5 3.2 4.9 4.9 0 0 1-1.7 4.3 8.9 8.9 0 0 1-5.2 1.4 17.7 17.7 0 0 0-.1-2.3 6.4 6.4 0 0 0-.5-1.7 3.1 3.1 0 0 0-.9-1.1 3.3 3.3 0 0 0-1.4-.4 3.6 3.6 0 0 0-1.7.7 10.5 10.5 0 0 0-1.9 1.7 15.1 15.1 0 0 0-1.8 2.6 35.9 35.9 0 0 0-1.7 3.4l-1.5 3.7c-.4 1.4-.8 2.7-1.1 4l-2.3 9.6h-8.9l5-22.2c.1-.3.1-.7.2-1.2a6.8 6.8 0 0 0 .2-1.4M203.4 119.7a4.7 4.7 0 0 0 1.7-.3l1.8-.9 1.4 1.8a10.7 10.7 0 0 1-1.6 1.4 8.2 8.2 0 0 1-2 1.2 10.6 10.6 0 0 1-2.5.9 13.9 13.9 0 0 1-3 .3 8.1 8.1 0 0 1-5.2-1.5 5.1 5.1 0 0 1-1.8-4.2 37.4 37.4 0 0 1 .9-6.6l5.1-22.7a1.4 1.4 0 0 0 .2-.7 2.5 2.5 0 0 0 .2-.7c0-.2.1-.4.1-.6v-.3a4.3 4.3 0 0 0-.2-1.2 1.3 1.3 0 0 0-.5-.7l-1-.4h-2.7l.5-3h14.3l-7 30.4c-.2 1-.4 2-.6 2.8a10.6 10.6 0 0 0-.2 2.5 2.6 2.6 0 0 0 .5 1.9 2.2 2.2 0 0 0 1.5.6M226.1 120.1a4 4 0 0 0 2.8-.8 8.4 8.4 0 0 0 2.3-2.3 10.9 10.9 0 0 0 1.8-3.1c.5-1.2.9-2.5 1.3-3.7s.5-2.5.7-3.7.2-2.2.2-3.3-.4-3.8-1.2-4.7a4.4 4.4 0 0 0-3.2-1.5 5.4 5.4 0 0 0-2.8.8 8 8 0 0 0-2.3 2.2 14.9 14.9 0 0 0-1.8 3 23.2 23.2 0 0 0-1.3 3.7 22.1 22.1 0 0 0-.8 3.7c-.2 1.1-.2 2.2-.3 3.4a7.7 7.7 0 0 0 1.2 4.8 4 4 0 0 0 3.4 1.5m-13.6-7.6a15.4 15.4 0 0 1 .5-4.3 18.2 18.2 0 0 1 4.2-8.3 19.9 19.9 0 0 1 3.7-3.4 21.9 21.9 0 0 1 4.9-2.3 24.1 24.1 0 0 1 6-.8 15.9 15.9 0 0 1 4.8.7 12.5 12.5 0 0 1 4 2 10.8 10.8 0 0 1 2.6 3.7 12.2 12.2 0 0 1 1 5.3 18.4 18.4 0 0 1-.5 4.1 15.7 15.7 0 0 1-1.5 4.3 21.9 21.9 0 0 1-2.6 4.1 23.7 23.7 0 0 1-3.7 3.4 18.3 18.3 0 0 1-4.9 2.3 18 18 0 0 1-6.1.8 15 15 0 0 1-5.1-.7 10.3 10.3 0 0 1-4-2.1 10.8 10.8 0 0 1-2.6-3.7 17.5 17.5 0 0 1-.8-5.1M69.8 57.3h-.1l-.2-.6A35.6 35.6 0 0 0 66 50a33.1 33.1 0 0 0-4.9-5 86.9 86.9 0 0 0-9.5-6.3 50.2 50.2 0 0 1-8.5-6 20 20 0 0 1-5.2-6 20.6 20.6 0 0 1-2.9-8.3v-.7c.1-.1.2.1.5.5a18.7 18.7 0 0 0 3.8 4.6 41.3 41.3 0 0 0 9.5 6.3c3.2 1.6 8 4.2 9.4 5a46.8 46.8 0 0 1 10.2 8l2 2.2-.6.4a7.8 7.8 0 0 0-2.6 2.2h-.1a.5.5 0 0 0 .4-.2 9.7 9.7 0 0 1 2.9-1.9l.4-.2.6.8a23.3 23.3 0 0 1 1.7 2.6l.4.7s-.2 0-.2.1a7.8 7.8 0 0 0-2.2 1.2 2.4 2.4 0 0 0-1 1l.5-.2a7.3 7.3 0 0 1 2.5-.4h1.3l1.4.5-.6.4a19.4 19.4 0 0 0-3.3 2.3 6.4 6.4 0 0 0-1.9 3 1.2 1.2 0 0 1-.2.5" style="fill:#007ec1"/><path d="m69.4 69.1-1.7-3.8a23.1 23.1 0 0 0-3-12.3 39.1 39.1 0 0 0-3-4.1 47.7 47.7 0 0 0-5.2-4.8 66.5 66.5 0 0 0-5.6-3.6 64.1 64.1 0 0 1-5.7-3.7 29.9 29.9 0 0 1-6.5-6.3 23.9 23.9 0 0 1-2.8-4.9 23.4 23.4 0 0 1-1.8-6.4 27 27 0 0 0 3.2 8.3 30.2 30.2 0 0 0 4.8 5.8s2.4 2.1 4.3 3.4l.9.6 2.8 1.8a95.2 95.2 0 0 1 8.5 5.7 33.7 33.7 0 0 1 5.2 4.8 19 19 0 0 1 2.2 3.3 27.4 27.4 0 0 1 2.9 9.2l.5 7Z" style="fill:#007ec1"/><path d="M67.5 60.9a1.2 1.2 0 0 1-.5-.5 10.8 10.8 0 0 0-4.7-4.3 6.2 6.2 0 0 0-2.3-.7h-2.4v-.6a4.6 4.6 0 0 0-1.5-3.1l-.3-.3h.3a5.9 5.9 0 0 1 2.3-.5h.6c0-.1-.1 0-1-.1h-.1a8.3 8.3 0 0 0-2.2.3h-.5l-.5-.4-2.9-1.7-.8-.5 2.2-.5 3.1-.3h.9a12.3 12.3 0 0 0-2.7-.2 18.4 18.4 0 0 0-4.1.4h-.6l-1.3-.7a47.2 47.2 0 0 1-7.7-4.8 60.2 60.2 0 0 1-4.6-4.2 11.5 11.5 0 0 1-1.4-1.7l-.5-.8A17.1 17.1 0 0 1 32.4 20a22.1 22.1 0 0 1 1.8-3.4 7.6 7.6 0 0 1 .1 1.5 9.9 9.9 0 0 0 .3 2.4 24.3 24.3 0 0 0 3.7 8.8 22.8 22.8 0 0 0 2.1 3c1.6 2.1 6.4 5.8 11 8.5a61.6 61.6 0 0 1 6.3 4.1 30.2 30.2 0 0 1 4.5 4.2 25.8 25.8 0 0 1 3.2 4.9 33.5 33.5 0 0 1 1.9 5.3 7.8 7.8 0 0 1 .2 1.6M68 69.4a92 92 0 0 1-10.4-1.2 73.2 73.2 0 0 1-15.1-4 40.7 40.7 0 0 1-6.7-3.1c-2.8-1.7-4.3-3.3-4.5-4.7a2.3 2.3 0 0 1 1-2.2c1.2-.9 3.1-1.5 6-1.7l6.2-.6a12.6 12.6 0 0 0 3.3-.5l.5-.2a.8.8 0 0 0 .4-.4.4.4 0 0 0-.1-.3c-1.3-1-4.4-1.9-7.3-2.7l-.5-.2c-3.1-.9-6.8-1.8-9-2.3l-1.8-.4c.1 0 4.3.6 8.8 1.5a68.1 68.1 0 0 1 6.7 1.8 12.2 12.2 0 0 1 4.4 2.2.7.7 0 0 1 .2.7c0 .3-.4.6-1 .8a44 44 0 0 1-8.7 1.5l-3.2.5c-1.4.4-3.1 1-3.2 2.1s1.5 2.6 4 4.2a48 48 0 0 0 10.5 4.2 71.4 71.4 0 0 0 17.9 2.3ZM82.7 64.3a1.6 1.6 0 0 1-1.5-1.6 1.6 1.6 0 0 1 1.4-1.5h.1a1.6 1.6 0 0 1 1.5 1.6 1.8 1.8 0 0 1-.4 1 1.6 1.6 0 0 1-1.1.5h-.1" style="fill:#007ec1"/><path d="M66.1 82.1A35.9 35.9 0 0 1 55 79.9a61.2 61.2 0 0 1-11.6-5.4 104 104 0 0 0-10.5-5.4 55.7 55.7 0 0 0-8.1-2.9 28 28 0 0 0-7-.9H17a15 15 0 0 0-4.7.8l-.5.2.8-.8a14.4 14.4 0 0 1 5.8-2.1h3l4.1.2A54.6 54.6 0 0 1 36.1 67l6.9 3 5.1 2.2c2.2.8 7.3 2.5 9.3 3a26 26 0 0 0 6.8 1h.8a39 39 0 0 0 5.9-.4l3.6-1a29.5 29.5 0 0 0 6.6-3.4 30.6 30.6 0 0 0 5.3-4.2 10.2 10.2 0 0 1 1.8-1.3 9.3 9.3 0 0 1 2-1l.4-.2h-.2a10.2 10.2 0 0 1-3.1-3.1 8 8 0 0 0-2.1-2 6 6 0 0 0-2.9-.8h-.5a10.3 10.3 0 0 0-4.5 1.4 3.1 3.1 0 0 1-1 .5l.9-.9 1.3-1.1a15.9 15.9 0 0 1 2.9-1.5 6.2 6.2 0 0 1 1.9-.2h1.8a7.4 7.4 0 0 1 4.3 2.8c1.9 2.1 3.7 3.6 5 3.9l.4.2-.5.3c-1.2.7-2.4 1.4-3.5 2.2a21 21 0 0 0-5.2 5.5 27.2 27.2 0 0 1-6.2 6 29.3 29.3 0 0 1-8.7 3.7 17.5 17.5 0 0 1-4.6.5Z" style="fill:#007ec1"/></g></svg>