<svg width="100%" height="100%" viewBox="0 0 231 231" fill="none" xmlns="http://www.w3.org/2000/svg">
  <path d="M183.898 77.0009L191.501 60.1571L208.345 52.5534C212.099 50.8209 212.099 45.5271 208.345 43.7946L191.501 36.1909L183.898 19.2509C182.165 15.4971 176.871 15.4971 175.139 19.2509L167.535 36.0946L150.595 43.6984C146.841 45.4309 146.841 50.7246 150.595 52.4571L167.439 60.0609L175.043 77.0009C176.775 80.7546 182.165 80.7546 183.898 77.0009ZM107.283 91.4384L91.979 57.7509C88.6102 50.2434 77.8302 50.2434 74.4615 57.7509L59.1577 91.4384L25.4702 106.742C17.9627 110.207 17.9627 120.891 25.4702 124.26L59.1577 139.563L74.4615 173.251C77.9265 180.758 88.6102 180.758 91.979 173.251L107.283 139.563L140.97 124.26C148.478 120.795 148.478 110.111 140.97 106.742L107.283 91.4384ZM175.043 154.001L167.439 170.845L150.595 178.448C146.841 180.181 146.841 185.475 150.595 187.207L167.439 194.811L175.043 211.751C176.775 215.505 182.069 215.505 183.801 211.751L191.405 194.907L208.345 187.303C212.099 185.571 212.099 180.277 208.345 178.545L191.501 170.941L183.898 154.001C182.165 150.247 176.775 150.247 175.043 154.001Z" fill="url(#paint0_linear_6744_14969)"/>
  <defs>
    <linearGradient id="paint0_linear_6744_14969" x1="52.9373" y1="33.6929" x2="211.75" y2="255.068" gradientUnits="userSpaceOnUse">
      <stop stop-color="#0076B9"/>
      <stop offset="0.822917" stop-color="#2FCEB1"/>
    </linearGradient>
  </defs>
</svg>