<svg xmlns="http://www.w3.org/2000/svg" viewBox="0 0 61 40" fill="none">
  <path fill="#FFF5E9" d="M.084 0h60v40h-60z" />
  <path fill="#000" fillOpacity=".08" d="M8.584 3.712h42.928V6.35H8.584z" />
  <path fill="#FFDDB2" d="M8.584 9.35h43v21.3h-43z" />
  <path
    stroke="#57534F"
    strokeLinecap="round"
    strokeLinejoin="round"
    d="M36.473 16.004a.47.47 0 0 0-.21-.16l-6-2.27a.45.45 0 0 0-.36 0l-6 2.31a.47.47 0 0 0-.21.12.48.48 0 0 0-.11.3v7.32a.5.5 0 0 0 .32.46l6 2.31h.36l6-2.31a.5.5 0 0 0 .32-.46v-7.28a.48.48 0 0 0-.11-.34ZM30.083 26.464v-7.96m0 0-6.39-2.46m6.39 2.46 6.39-2.46"
  />
  <path
    fill="#000"
    fillOpacity=".08"
    d="M8.584 33.65h42.928v2.638H8.584z"
  />
</svg>
