<svg xmlns="http://www.w3.org/2000/svg" viewBox="0 0 61 40" fill="none">
  <path fill="#FFF5E9" d="M.084 0h60v40h-60z" />
  <path fill="#000" fillOpacity=".08" d="M8.62 3.688h42.928v2.638H8.62z" />
  <path
    fill="#57534F"
    d="M17.813 13.41c-.22 0-.403-.042-.55-.128a.791.791 0 0 1-.314-.345.903.903 0 0 1-.072-.462.851.851 0 0 1 .174-.468.916.916 0 0 1 .402-.285c.168-.066.36-.1.579-.1.128 0 .25.012.366.034a2.7 2.7 0 0 1 .339.08l.03-.287c.022-.204-.001-.355-.07-.453-.065-.098-.185-.147-.36-.147a.7.7 0 0 0-.275.05.462.462 0 0 0-.19.148.46.46 0 0 0-.083.228h-.696a.957.957 0 0 1 .204-.546.987.987 0 0 1 .444-.3c.182-.064.38-.096.597-.096.382 0 .664.094.846.282.182.186.255.472.219.858l-.174 1.854h-.552a3.272 3.272 0 0 1-.006-.198c0-.066-.002-.132-.006-.198-.102.158-.22.278-.354.36-.134.08-.3.12-.498.12Zm.18-.54a.663.663 0 0 0 .585-.33.834.834 0 0 0 .117-.353 2.37 2.37 0 0 0-.288-.066 1.574 1.574 0 0 0-.297-.03.755.755 0 0 0-.378.09c-.106.058-.165.156-.177.294a.341.341 0 0 0 .108.285c.08.074.19.11.33.11Z"
  />
  <path
    fill="#57534F"
    stroke="#57534F"
    strokeWidth=".368"
    d="M17.9 22.232v-6.72h.368v6.72z"
  />
  <path
    fill="#57534F"
    d="m18.084 24.673-1.955-3.386h3.91l-1.955 3.386ZM18.259 29.757a.697.697 0 0 1-.435-.147.847.847 0 0 1-.282-.44l-.198.503h-.414l.384-4.116h.642l-.15 1.566a.995.995 0 0 1 .342-.33.9.9 0 0 1 .447-.114c.198 0 .373.053.525.16.152.105.272.256.36.452.088.194.132.424.132.69 0 .184-.028.38-.084.585a2.095 2.095 0 0 1-.25.58c-.111.18-.252.326-.422.44-.17.114-.37.171-.597.171Zm-.036-.642a.558.558 0 0 0 .327-.096.802.802 0 0 0 .23-.252c.063-.106.109-.22.139-.345.03-.124.045-.246.045-.366 0-.226-.053-.406-.16-.54a.5.5 0 0 0-.41-.2.71.71 0 0 0-.552.297.7.7 0 0 0-.12.35l-.036.42a.795.795 0 0 0 .05.378.61.61 0 0 0 .199.261.48.48 0 0 0 .288.093Z"
  />
  <path fill="#FFDEB2" d="M22.341 10h12v4h-12z" />
  <path fill="#FFBB62" d="M22.341 18h22v4h-22z" />
  <path fill="#FFDEB2" d="M22.341 26h12v4h-12z" />
  <path fill="#000" fillOpacity=".08" d="M8.62 33.673h42.928v2.638H8.62z" />
</svg>
