<svg xmlns="http://www.w3.org/2000/svg" viewBox="0 0 61 40" fill="none">
  <path fill="#FFF5E9" d="M.084 0h60v40h-60z" />
  <path
    fill="#000"
    fillOpacity=".08"
    d="M10.084 4.737h42.928v2.638H10.084z"
  />
  <path fill="#57534F" d="M24.298 14.375H38.28v12.05H24.298z" />
  <path
    fill="#FFD59D"
    d="M25.131 28.625c-.504 0-.936-.188-1.295-.564a1.885 1.885 0 0 1-.538-1.353V13.292c0-.527.18-.979.54-1.354.358-.376.79-.564 1.293-.563h12.834c.504 0 .936.188 1.295.563.36.376.539.827.538 1.354v13.416c0 .527-.18.979-.539 1.355-.36.375-.79.563-1.294.562H25.13Zm.917-3.833h11L33.611 20l-2.75 3.833-2.063-2.875-2.75 3.834Z"
  />
  <path
    fill="#000"
    fillOpacity=".08"
    d="M10.084 32.625h42.928v2.638H10.084z"
  />
</svg>
