<svg xmlns="http://www.w3.org/2000/svg" viewBox="0 0 61 40" fill="none">
  <path fill="#FFF5E9" d="M.084 0h60v40h-60z" />
  <path
    fill="#000"
    fillOpacity=".08"
    d="M10.084 3.014h42.928v2.638H10.084z"
  />
  <path
    fill="#FFBB62"
    d="M10.084 10.153a1 1 0 0 1 1-1h40.928a1 1 0 0 1 1 1v2.692H10.084v-2.692Z"
  />
  <mask id="a" fill="#fff">
    <path d="M10.084 12.845h42.928V24.21a2 2 0 0 1-2 2H12.084a2 2 0 0 1-2-2V12.845Z" />
  </mask>
  <path
    fill="#FFBB62"
    fillRule="evenodd"
    d="M10.534 13.319h-1.35v-.474h1.8v.474h-.45Zm.45.947h-1.8v.947h1.8v-.947Zm0 1.894h-1.8v.947h1.8v-.947Zm0 1.893h-1.8V19h1.8v-.947Zm0 1.894h-1.8v.947h1.8v-.947Zm0 1.894h-1.8v.947h1.8v-.947Zm0 1.894h-1.8v.474a2.917 2.917 0 0 0 .055.565l.442-.088.883-.174.44-.088a1.115 1.115 0 0 1-.02-.215v-.474Zm-.937 1.835.748-.5.374-.25a1.1 1.1 0 0 0 .304.304l-.25.374-.5.748-.25.374a2.91 2.91 0 0 1-.8-.8l.374-.25Zm1.56 1.042.174-.883.087-.441c.07.013.141.02.216.02m.512.45v1.35h-.512a3.008 3.008 0 0 1-.565-.055l.087-.441m2.015.497h1.024v-1.8h-1.024v1.8Zm-1.025-1.35v-.45.45Zm-.512-.45h.512-.512Zm3.585 0v1.8h1.025v-1.8H15.67Zm2.05 0v1.8h1.024v-1.8h-1.025Zm2.048 0v1.8h1.025v-1.8h-1.025Zm2.049 0v1.8h1.024v-1.8h-1.024Zm2.049 0v1.8h1.024v-1.8h-1.024Zm2.049 0v1.8h1.024v-1.8h-1.024Zm2.049 0v1.8h1.024v-1.8h-1.024Zm2.049 0v1.8h1.024v-1.8h-1.024Zm2.048 0v1.8h1.025v-1.8H32.06Zm2.05 0v1.8h1.024v-1.8h-1.025Zm2.048 0v1.8h1.024v-1.8h-1.024Zm2.049 0v1.8h1.024v-1.8h-1.024Zm2.049 0v1.8h1.024v-1.8h-1.024Zm2.049 0v1.8h1.024v-1.8h-1.024Zm2.048 0v1.8h1.025v-1.8h-1.025Zm2.05 0v1.8h1.024v-1.8h-1.025Zm2.048 0v1.8h1.025v-1.8H48.45Zm2.049 0v1.8h.512a2.983 2.983 0 0 0 .565-.056l-.087-.441-.175-.883-.087-.441c-.07.013-.141.02-.216.02H50.5Zm1.874.937-.5-.748-.251-.374a1.129 1.129 0 0 0 .305-.305l.373.25.748.501.374.25a2.922 2.922 0 0 1-.799.8l-.25-.374Zm-.262-2.037c0 .074-.007.146-.02.215l.44.088.884.174.441.088a2.887 2.887 0 0 0 .055-.565v-.474h-1.8v.474Zm0-1.42h1.8v-.948h-1.8v.947Zm0-1.895h1.8v-.947h-1.8v.947Zm0-1.894h1.8v-.947h-1.8V19Zm0-1.893h1.8v-.947h-1.8v.947Zm0-1.894h1.8v-.947h-1.8v.947Zm0-1.894h1.8v-.474h-1.8v.474Z"
    clipRule="evenodd"
    mask="url(#a)"
  />
  <path fill="#57534F" d="m50.537 12.153-1.258-1.95h2.516l-1.258 1.95Z" />
  <path
    fill="#FFD59D"
    d="M14.084 15.153h24.178v2.638H14.084zM14.084 19.491h15.317v2.638H14.084z"
  />
  <path fill="#EBE1D6" d="M10.084 29.709h42.928v2.638H10.084z" />
  <path
    fill="#000"
    fillOpacity=".08"
    d="M10.084 34.347h42.928v2.638H10.084z"
  />
</svg>
