<svg xmlns="http://www.w3.org/2000/svg" viewBox="0 0 61 40" fill="none">
  <path fill="#FFF5E9" d="M.084 0h60v40h-60z" />
  <path
    fill="#000"
    fillOpacity=".08"
    d="M10.084 5.361h42.928v2.638H10.084z"
  />
  <path
    fill="#FFBB62"
    d="M10.084 13.861h22v3h-22zM10.084 18.861h24.178v2.638H10.084zM10.084 23.5h15.317v2.638H10.084z"
  />
  <path
    fill="#000"
    fillOpacity=".66"
    d="M37.856 14.847H49.72v9.78H37.856z"
  />
  <path
    fill="#FFD59D"
    d="M38.818 27c-.428 0-.794-.152-1.1-.457a1.495 1.495 0 0 1-.456-1.098v-10.89c0-.428.152-.794.457-1.099A1.495 1.495 0 0 1 38.818 13h10.89c.427 0 .793.152 1.098.457.305.305.457.67.457 1.098v10.89c0 .428-.153.794-.457 1.099a1.495 1.495 0 0 1-1.099.456h-10.89Zm.777-3.11h9.334L46.013 20l-2.334 3.111-1.75-2.333-2.334 3.111Z"
  />
  <path fill="#000" fillOpacity=".08" d="M10.084 32h42.928v2.638H10.084z" />
</svg>
