<svg xmlns="http://www.w3.org/2000/svg" width="233" height="48" fill="none"><path fill="#000" d="m50.43 21.24 2.6-14.95h3.76l3.05 8 3.18-8h3.88l2.24 14.95h-3.88l-1.06-8.6-3.65 8.6h-1.53l-3.41-8.6-1.3 8.6h-3.88ZM80.08 9.59H75.5v2.47h4.36v3.3h-4.36v2.58h4.6v3.3H71.6V6.29h8.47v3.3Zm6.24-3.3v14.95h-3.89V6.29h3.89Zm3.17 14.95V6.29h3.89l7.17 9.18V6.29h3.89v14.95h-3.89l-7.17-9.18v9.18h-3.89Zm-38.35 20V26.29h5.76c1.06 0 2.36.12 3.3 1.18.47.59.94 1.41.94 2.82 0 .6-.12 1.18-.47 1.89-.35.59-.59.94-1.18 1.17.83.12 1.53.47 2 .94.59.6.94 1.53.94 2.71 0 1.41-.59 2.35-1.06 2.94a5.65 5.65 0 0 1-4 1.41l-6.23-.11Zm3.88-9.06h.7c.36 0 1.07 0 1.42-.47.23-.24.35-.6.35-.95s-.12-.82-.35-.94c-.24-.23-.7-.47-1.41-.47h-.7v2.83Zm0 6h.82c1.06 0 2-.12 2.36-.6.23-.23.35-.58.35-.93 0-.47-.12-.83-.35-1.06-.47-.47-1.41-.47-2.36-.47h-.82v3.06ZM68.8 26.29v14.95H64.9V26.29h3.89Zm7.06 0v11.65h4.58v3.3h-8.47V26.29h3.89Zm6.58 14.95V26.29h5.06c1.53 0 4 .24 5.89 2.12a7.12 7.12 0 0 1 2.11 5.41c0 2-.47 3.77-2 5.18a8.14 8.14 0 0 1-5.76 2.24h-5.3Zm3.89-3.3h.82c.94 0 2.24-.12 3.3-1.06a4.14 4.14 0 0 0 1.17-3.06c0-1.4-.47-2.58-1.18-3.29a4.47 4.47 0 0 0-3.05-.94h-.95l-.11 8.35Zm15.53-11.65v8.83c0 .59 0 1.53.82 2.35.47.47 1.18.7 1.88.7s1.41-.23 1.77-.58c.94-.82.82-1.88.82-2.7v-8.6h3.88v8.6c0 1.52-.11 3.17-1.64 4.82-1.3 1.3-2.83 1.88-4.94 1.88-2.36 0-4-.82-4.95-1.77-1.3-1.4-1.4-3.29-1.4-4.94V26.3h3.76Zm12.23 14.95V26.29h3.89l7.17 9.18V26.3h3.88v14.95h-3.88l-7.17-9.18v9.18h-3.89Zm25.18-8.48h7.65c0 2.95-.6 5.06-2.36 6.71a7.35 7.35 0 0 1-5.29 1.88c-2.7 0-4.47-.94-5.76-2.23a7.92 7.92 0 0 1-2.12-5.41c0-2.47.94-4.36 2.23-5.65a8.15 8.15 0 0 1 5.77-2.24c1.4 0 2.82.36 4 1.06a7.54 7.54 0 0 1 2.7 3.06l-3.64 1.53c-.24-.7-.71-1.18-1.06-1.53a2.9 2.9 0 0 0-2.12-.7c-.94 0-1.88.35-2.59 1.05a5.13 5.13 0 0 0-1.3 3.42c0 1.4.48 2.47 1.18 3.17.71.83 1.53 1.18 2.71 1.18.7 0 1.41-.12 2.12-.7.35-.24.82-.83.94-1.65h-3.18l.12-2.95Zm11.06 4a5.11 5.11 0 0 0 3.41 1.53c.82 0 1.3-.23 1.53-.47.24-.23.35-.58.35-.94 0-.23-.11-.59-.47-.94-.35-.35-.94-.47-1.88-.82l-1.06-.35c-.59-.24-1.53-.6-2.12-1.18a3.95 3.95 0 0 1-.82-2.59c0-1.88.7-2.94 1.41-3.65.7-.82 2-1.4 3.77-1.4 1.4 0 3.17.46 4.59 1.17l-1.53 3.06c-1.18-.94-2-.94-2.6-.94-.35 0-.93.11-1.29.47-.23.23-.35.47-.35.82 0 .23 0 .47.24.7.11.12.35.36 1.29.71l1.18.35c.94.24 1.88.6 2.7 1.42.7.82.94 1.64.94 2.7 0 1.41-.35 2.7-1.4 3.77-1.3 1.3-2.83 1.53-4.36 1.53-.94 0-1.88-.12-2.94-.47-.24-.12-1.18-.47-2.24-1.18l1.65-3.3ZM168.2 26.3c1.06 0 2.59.12 3.65 1.3.82.82 1.3 2.12 1.3 3.3 0 1.29-.48 2.35-1.18 3.05-.6.59-1.41.94-2.12 1.06l4.7 6.12h-4.82l-3.65-5.77v5.77h-3.88V26.29h6ZM166.08 33h.71c.59 0 1.41-.12 1.88-.59.24-.23.47-.82.47-1.3 0-.46-.11-.93-.47-1.29-.35-.35-1.06-.58-1.88-.58h-.7V33Zm19.18 5.65h-5.41l-1.06 2.47h-4l5.77-14.94h4.23l5.65 14.94h-4.12l-1.06-2.47Zm-1.06-2.94-1.64-4.83-1.65 4.83h3.3Zm11.65-9.42v8.83c0 .59 0 1.53.7 2.35.48.47 1.18.7 1.89.7.7 0 1.41-.23 1.76-.58.95-.82.83-1.88.83-2.7v-8.6h3.88v8.6c0 1.52-.12 3.17-1.65 4.82-1.3 1.3-2.82 1.88-4.94 1.88-2.35 0-4-.82-4.94-1.77-1.3-1.4-1.41-3.29-1.41-4.94V26.3h3.88Zm11.65 14.95 2.47-14.95h3.76l3.06 8 3.18-8h3.88l2.24 14.95h-3.89l-1.05-8.6-3.65 8.6h-1.53l-3.41-8.6-1.3 8.6h-3.76Z"/><path fill="#AAD1E6" d="M6.55 25.94V6.3H26.2l-5.89 5.89h-7.88v7.88l-5.88 5.88Z"/><path fill="#004F79" d="M27.73 35.35h7.88v-7.88l5.88-5.88v19.65H21.84l5.89-5.89Z"/><path fill="#0077B6" d="M12.43 26.76v8.6h8.7l-5.88 5.88h-8.7v-8.6l5.88-5.88Zm15.3 8.6-5.89 5.88h7.89v-5.89h-2Zm-15.3-17.3H6.55v7.88l5.88-5.88v-2Z"/><path fill="#CD5038" d="m32.9 6.3-5.88 5.88v8.7h8.59L41.49 15V6.3H32.9Z"/></svg>