<svg xmlns="http://www.w3.org/2000/svg" viewBox="0 0 177.3 174.5">
<path d="m50.6 145-.9-3.5-1 3.5Zm.7 2.5h-3.2l-.7 2.3h-2.9l3.6-11.7h3.8l3.7 11.7h-3.7ZM63.4 145.8c.3 1.1 1.1 1.4 2.2 1.4s1.4 0 1.4-.7-.9-.8-1.5-.9c-2.2-.5-4.8-1.1-4.8-3.8a3.8 3.8 0 0 1 1.5-3 5.8 5.8 0 0 1 3.4-.9 4.7 4.7 0 0 1 4.7 2.9l-3 .9a1.8 1.8 0 0 0-1.9-1.2c-.5 0-1.1.2-1.1.8s.8.7 1.3.8a10.4 10.4 0 0 1 3.3 1 3.2 3.2 0 0 1 1.7 2.9c0 2.9-2.8 4-5.2 4s-4.7-1-5.3-3.6ZM86.3 149.8h-3.6v-4.5h-2.8v4.5h-3.6v-11.7h3.6v4.3h2.8v-4.3h3.6ZM95.6 144c0 1.1.2 3.3 1.8 3.3s1.8-2.2 1.8-3.3-.2-3.4-1.8-3.4-1.8 2.3-1.8 3.4m7.4 0c0 3.3-2 6-5.6 6s-5.6-2.7-5.6-6 2-6.1 5.6-6.1 5.6 2.6 5.6 6.1M115.1 149.8l-2-4.4-1.2 1.7v2.7h-3.4v-11.7h3.4v4.8l3.2-4.8h3.3l-3 4.3 3.7 7.4ZM129.5 145l-1-3.5-.9 3.5Zm.6 2.5H127l-.7 2.3h-3l3.7-11.7h3.8l3.7 11.7h-3.7ZM151.6 52.6c-.5.6-2.7 1.4-3.1.4s-1.4 1.6-2.4 1-3.7-1.6-3.9-.6-1.3 1.9-1.8 1.4-2.3-2.6-1.5-3.1 1-2.1-.4-1.7-1.1-2.5 0-3 1-.7 1.7.3 1.5-.2 1.5-.9.7-1.8 1.3-1.8a5.4 5.4 0 0 1 3.3 1.9c.7 1.2 1.1 3.2 2.2 3.5s3.7 1.9 3.1 2.6M137.1 54c-1.7-.6-.8 2.6-2.9 1.4s-2.2-1.7-2.3-2.8-3.3-1.2-.2-2.8c.9-.4 2.8-.5 2.7.4s-2.6 1.5.2 1.7-1.6 1.3 3.8 1c.8-.1.3 1.8-1.3 1.1m-5.2 7.7c-1 .4-1.3.9-1.7.5s1.5-2.1 2-1.9.7 1.1-.3 1.4m-2.2 2.8c-1.2 1.3-.9 1.9-.4 2.7s-2.8-1.5-1.2-3.6c.4-.6 2.8-.4 1.6.9m-2.5-14.3c-1-.4-.1-2.3.4-3.5s.6-2.4 1.5-1.2a2.7 2.7 0 0 1-.1 3.2c-.6.8.2 2.3-1.8 1.5m-1.5-1.5a1.1 1.1 0 1 1 1.2-1.1 1.2 1.2 0 0 1-1.2 1.1m-.1 18.5c-.4.5-.6-1.2-1.7-1.1s-2.3-.4-1.7-1.6 1.9-.7 2.7.4 1.1 1.9.7 2.3M122 48.3c-.7.4-.7-.7-2.6.4s-2-.3-1.7-1 1.2-1.6 2.3-1.6 3.2-.9 3.6.8 2.3 4 1.4 4.3-2.4-3.4-3-2.9m-2.5 30.8c-1.4-1.1.1-1.3.1-1.3a2.4 2.4 0 0 1 1.1.4c.6.7.3 2-1.2.9m.8 9.1c-.7.5-2.2.4-1.4-.8a.8.8 0 0 1 1.5 0s.2.6-.1.8m-3-11.6c-.5-.1-2.2-1.3-3.5-1.3s-2.2.8-2.5-.4 1.3-1.4 2-1.7 1.9-1 2.2-1.8 1.1-1 1.4.5 3.7 2.6 3.3 3.6-2.5 1.2-2.9 1.1m.9 10.9s-.4.4-.8.2-1.2-1.8.2-1.5.6 1.3.6 1.3m-2.7-8.1c-.8-.5-2-.3-2.2.5s-1.4 1.6-2.3.6-.4-3.3 1.2-2.3 3.9-1.6 4.3-1.1-.3 2.8-1 2.3m.4 6.2c-.1.9 0 1.6-.6 1.1s-.5-2.9.3-2.4.3.5.3 1.3m-5.6-47.3a2.8 2.8 0 0 1-2.4.6c-.7 0-.9 1.5-1.5.1s2.4-1.5 3.3-1.5 1.6-1.6 2.2-.8a3 3 0 0 1-.4 3.4c-1.5 1.4-.2-2.4-1.2-1.8m-3.5 38.3c-1.4-.4-3.8.5-2.4-1.3s1.6-3.2 2.7-1.6 2.2 3.6-.3 2.9m0 7c-1-.1-2.4-2.1-2-2.2s1.8-.6 2.4.1.5 2.2-.4 2.1M103 88c-1.7 2.7-3.4 1.4-3.7 1s-1.7-2.9-.2-3.9 1-2.5 2.4-1.3 3.2 1.5 1.5 4.2m-7-14.4c.8-.7.1-2.2 1.8-1s1.2 2.7.4 2.8-3.6-.5-2.2-1.8m-2.1-2.4c-.3-1.1-.6-1.9 0-2.6s1.6-.6 1.9-.2 1.6.6 1.7 1.4-1.5.8-1.9 1.2-1.5 1.3-1.7.2m.4 11c-1.3 1-2.7 1.8-3.5.9a5.4 5.4 0 0 0-2.4-1.9c-1-.3-.7-2.9-.3-3.2a4.2 4.2 0 0 1 2.3-.3c.8.1 3.3.1 4.1 1.8s1.1 1.8-.2 2.7m-9.4-13.8c-.5-1.3 1-2.6 1.2-3s1.4-2.1 2.5-1.2-.5 1.7-.6 2.5 1-.3 1.6 2.3-1.8 1.1-2.4 1.8-1.9-1.1-2.3-2.4M84 48c-.7-.3-.5-1.1-.2-1.6a.7.7 0 0 1 1-.2c0 .2 1 1.2.7 1.6a1.3 1.3 0 0 1-1.5.2m-2.2-12c-1 .2-1.3-1.5 0-1.6s1.9 2.1 1.8 2.3-.8-.9-1.8-.7m1.3 8.9c0 1.3-.3 2.1-1.1 2.1s-2.3.9-3 .9-.1.4-1.4-.6-.7-.4.2-1.8 1.5-.4 3.6-1.3 1.7-.6 1.7.7m-3.3 39.3c-.8 0-2.1-1.5-3-1.4s-1.4 1.6-2.8 1.3a2.6 2.6 0 0 1-2.1-2.5c.1-1-.8-1.7.1-2.4s2.2 1.9 3.2 1 1.9-.7 2.9-.7 4.6.5 4.4 2.1a3.5 3.5 0 0 1-2.7 2.6m-8.9-12.3c-1-.4-1.8-1.8.2-1.6s.9 1.4.9 1.4-.7.4-1.1.2m1.5.2c.7-.9 2.1 0 2.1 0s.6 2.1-.2 1.8-2.6-1-1.9-1.8m5.5-15.3c.2-1.7 3.8-1.4 4.2-.6s.5 1.5-.3 1.2-1.3.3-1.9.5-2.1-.3-2-1.1m2.4 11.8c.3 1.3-.1 1.8-.9 1.6s-1.1 1.1-2.7 1.2-2.8-2.2-2.8-2.9 2.8-1 3.8-1.6 2.3.4 2.6 1.7m-7.1-11.4c.2-1.9.7-.5 1.7 0s3 1.1.2 1.7c-.9.2-2.1.1-1.9-1.7m1.7-35.5c.9-1 .7.8 2.4.9s4.3 0 4.2 1.1 3.6 1.8 3.5 3-2.5 2.4-2.8 2.9-2.1.2-1.9 2.1-1.5-.3-1.7-1.1 1.6-2.4 1.3-3.2-1.9 1.5-2.7.6-1.8-.2-1.1-2 .3-1.6-.6-2-1-2-.6-2.3m3.4-3.7c1.2.3 3.5.7 3.2 2s-1.2 1.7-1.6.7-.1-1.5-1.8-1.5-1.9.3-1.9-.4.9-1.1 2.1-.8m9.1 14.2a5.3 5.3 0 0 1-1.1 1.4c.1 0 .3.2.5 1.2s-.4 2.8-.6 2.5-1.8-1.1-1.7-2.6 1.7-2.3.3-2.6-1.6.6-1.7-.7-.1-1.2 1.9-1.1 3.6.1 2.4 1.9m1.8 15.6c1.5 1.1 1.7-.7 2.4 0A1.4 1.4 0 0 1 91 50c-.8.4-1.6-.3-2.6-.3s-1-.1-1-.7.3-2.3 1.8-1.2m1.5-17.5c.7-1.1.2-1.9 1.5-1.6s.9 2.3.8 3-1.3.7-1.8 1.2-1.2.6-1.4-.2.1-1.4.9-2.4m2.9 22.6c-.5.9-1.2 2.2-1.8 2.2s-.7-1-1.5-1.4-1.2 0-1.1-1.2.5-1 2.1-.8 2.7.2 2.3 1.2m.3-5.2c.6.1 3.4.2 3.1 1.8s-1.2 1.8-2 1.8-1-1.6-1.6-2-.7-1.7.5-1.6M95.7 30c.5-.1-.1-3.2.5-3s1.9 1.4 3.1 1.6 1.5.7.5 1.5-1.4.8-1.5 1.7-1.2 1.1-1.3.4-.8-1.4-1.3-.7-1.8-1.1 0-1.5m3.6 25.1c-.2.6-.2 1.5-1.4 1.4s-3.6.8-1.3-1.6c.5-.6 2.8-.5 2.7.2m2.6-10.6c.9-.4 1.2 2.4.4 2.5a7.6 7.6 0 0 0-3.4 1.5c-.3.4-1.5.3-1.5-.1 0-2.2 1.3-1.1 1.9-1.1s1.7-2.3 2.6-2.8m.5-4.5c.5-.4 3.4-.8 3.2.1s-2.1 2.4-2.8 2.1-1-1.9-.4-2.2m4.4 1c.7-1.2 1.2-.2 1.2-.2a1.3 1.3 0 0 1-.1.8c-.6.6-1.8.7-1.1-.6m.3 16.8c0 1.1-.9 1.1-1.5.6s-1.3-1.6-2.9-1.4-4.5.7-2.1-2.1c.7-.8 1.8-1.4 2.5-.9s1.4 2.7 2.1 2.2 1.9.5 1.9 1.6m-.6-21.5c.8.7-1.2 3.1-2 2.1s1.2-2.8 2-2.1m6.8-4.4c.8.2.4 1.2-.2 1.6a1.3 1.3 0 0 1-1.2.3c-.7-1.1.7-2.2 1.4-1.9m.1-8.8a1 1 0 0 1 1.5-1c.5.6 1.7 2.3.8 2.7s-2.5 2.2-3.4 1.3 1.4-2 1.1-3m4.8 9.7c.5-.4 1.6 0 .4.6s.6 1.2 1.2 1.7 1.1 1.2.4 1.2-1.5.8-2.4 1-2.3-.9-2.5-3 2.5-1.1 2.9-1.5m-.4-13c1.2-.3 1.6.6 1.9 1s-2.2 2.2-2.7 1.1-.4-1.7.8-2.1m3.2 20c-.3.4-2.3.3-2.7 1s-2.5.6-2.6.2-.4-.9-.2-1.2 3.3.2 3.9-.5 2 0 1.6.5m-1.1-8.3c.1-.3 1.2-.9 1.1 0s-.5 1-1.3.8.1-.3.2-.8m1.6 9.8c.6-.8 1-.2 1-.2a1 1 0 0 1-.2.6c-.4.4-1.4.4-.8-.4m6.9-10.4c.4-.7 2.3-.1 2.1.5s-.3 2.4-1.2 1.2-1.6-.3-.9-1.7m2.8 15.9c.6-.9 1-.2 1-.2s.1.4-.1.5-1.5.5-.9-.3m1-14.8c.7-.4 1.6-1.9 1.2-.4s2 .4 1.1 2-1.7 1.8-1.7 1.5 1.2-1.6-.2-1.9-2.2 0-.4-1.2m3.1 2.4c.6-.9 1-.2 1-.2s0 .4-.2.5-1.4.5-.8-.3m1.3 15a.8.8 0 0 1-.2.5c-.4.4-1.4.5-.8-.4s1-.1 1-.1m9.8-4.8c.5-.8 1-.1 1-.1a.8.8 0 0 1-.2.5c-.5.4-1.4.5-.8-.4m-9.9 35.7c.9 0 3.1-.2 2.8.9s-2.1 1-2.1 1-1.7-1.8-.7-1.9m3.9-5.8a1.3 1.3 0 0 1 2 .1 1.4 1.4 0 0 0 1.4.8c.7 0 .7.8.3 1.5s.5 1.3-.6 1.8-1 1.6-1.9-.1 0-2.3-.8-3-1-.4-.4-1.1m5.4-1.9c.7-1.4 1.3-1.3 1.6-.6s1.6 3 .5 3.1-.7 1.9-1.8 1.1-1.6-.7-1.8-1.8.9-.3 1.5-1.8m12.8 6.4c.5.3.3 1.1-.1 1.5a1.1 1.1 0 0 1-.9.3c-.4-1 .5-2.1 1-1.8m-90.2 1.1c-1.5-.3-2.5-.9-2.6-2.3s-1.9-3.2-1.5-3.7.8-.7 1-1.1 1.3-1.7 2-.5 1.8 2 1.9 3 .7 5-.8 4.6M64 84.9c-1 .2-2.6-.6-1.1-1.1s0-2.7-.9-2.9-2.5-.3-3-1.5-2.2.1-2.3.6-.6 1.6-1.7 1.4-1.2.4-.9-.6 1.6-.2 1.7-.9.4-1.7 1.2-1.7 1.7-1.3 2.8-1 2.5 2.5 3 3.1 3.3 2.3 4.4 3.3 1.7.4 1.7 1.2-3.9-.1-4.9.1M53.7 66.6c-.5-1.1-.4 1-1.1.6s-.8-.2-.8-.9.6-.8 1.8-.9 2.8 1.8 2.5 2.2-2 .1-2.4-1m-2.2 17.1c.1 1.3-2 1.4-2.3 1a2.2 2.2 0 0 1 .4-2.7c.9-1 3.8-1.3 3.6-.7s-1.8 1.1-1.7 2.4m-2.8-20.6c.1-.4-.8-1.6-.2-2.1s2.7.9 1.9 1.6-1.8 1-1.7.5m-.6 2.8c-.6-.1-1.1-.8-.8-1.3a.7.7 0 0 1 1.3 0c.4.6.1 1.5-.5 1.3M48 82.8c-1.3 1.6-2.4 1.4-1.5-.3s2.8-1.4 1.5.3m-.2 3.6c-1.3 1.6-2.4 1.3-1.4-.3s2.7-1.4 1.4.3M45.4 69a2 2 0 0 1-.1-1.3c1.1-.6 2.2.9 1.8 1.6s-1.3.3-1.7-.3m1.1-29.3c-.5-1.3-1.4-2.4-.5-3.2s2.2 0 2.4.4 1.3 2.8.9 3.3a1.8 1.8 0 0 1-2.8-.5M44.2 26c.2-.6 2.3 1.2 1.7 2.1s-2.2-1.2-1.7-2.1m3.7.7c.3-.2 1.9-.9 2.1-.3s.2 2.3-.5 2.8-1.5.9-1.9.1-1-1.6.3-2.6m.2-5.9c.7-.4 1.5.3 2.2.2s1.6-1.5 3-1.4 2.2 1.5 1.1 2.4-1.2 1.6-2.3 1.7-1.4 1.7-2.3 1.2-.5-2-1.4-2.1-.8-1.7-.3-2M54 63.6c-.5.1-2.9.5-3.1-.5s2.5-2.3 3.1-2.2.4 2.5 0 2.7m0-11.7c0 .5.2 1.5-1.1 1.3s-2.5-.5-2.4-1.3 1-1.1 1.8-1.1 1.8-1.5 2.3-.9-.6 1.4-.6 2m2.9-16.6c.3 1.1.9 1.3.1 2.2s1.1 2.3-.5 2.6-1.9-1.5-3.3-1.6-3.5-.6-3.5-1.6-1.7-1.5-1.1-2.9 2.5.2 2.9-.4 1.2-.4 1.4.8 1 1.3 1.7.6 1.9-.8 2.3.3m2.4 14.6c.8-.1 1.1-1.5 2.1-1.3s1.2-2.7 2.4-1.5-1.8 1.7-1.9 3.7-2.4 1.4-2.7.7-.9-1.2-1.6-.3-2.3 1.2-1.8-.1a7.7 7.7 0 0 0 .4-1.6c.2-.6-.7-1.6.3-1.8s1.9 2.3 2.8 2.2m-.7-10.1c.6-.9 2.4-.5 3.5-.4a1 1 0 0 1 .5 1.9c-.6.6-.1 3-1.6 2.2s-3.8-1.5-2.4-3.7m-1.8 21.5c.3-.4 1.8.3 2.2.2s.2 1.7-.5 2.1-1.9.6-1.9.1-.2-2 .2-2.4m.4 15.6c0 .9-1.6.7-1.9.1s1.9-.9 1.9-.1m-.1-3.1c0-1.5-2.1 1-1.4-1.6.2-.7 1.3-.2 1.9-1.4s1.3-1 2.2-.4 2.3 1.6 1.9 2.3 1.2 3.2.7 3.8-3 0-3.3-.9-2-.2-2-1.8m7.3-18.2s-.7 2.5-1.8 1.9.8-2.1 1.8-1.9m.9-1.5c.5-.3 1.7-1.2 1.8-.6a3 3 0 0 1-.4 2c-.5.7-1.6.9-2 .3s.6-1.7.6-1.7m1.4-7.3c.7-.3 2.2-.3 1.7.5s-1.4 2.4-2.1 1.5.4-2 .4-2m-23.9 19c-.6.2-.6-1.1-.6-1.1s1.1.8.6 1.1m-6.3-9c-1 .6-4.6 1.6-4.7-.8 0-.8 1.7-1.1 3.2-.9s2.5 1.1 1.5 1.7m-4.7 6.8c-.5 1.2-1.2 1.7-1.9 1.1s-1.2-.5-1.9-.9 1-1.1.8-1.5a.5.5 0 0 1 .3-.7c.9-.3 1.7.5 2.4.2s.8.6.3 1.8M173 51.8c-.3-1.6-1.9-2.8-3.7-.6s-1.2 0-3 .9-2.3.4-3.9-.8-1-4.2-2.4-2.3-1.3-1.3-2.2-1.6-3.1.5-3.8 1.3-3.3.5-4.4-1.4.8-2.5 1.4-1.6 2.5-.1 1.5-1.4 3.7-2 5.4-2.6 0-1.7-1.4-1.6-2.3.3-3-1.4-1.3-1.3-1.7-.9-.9 1.7-2.9.1.7-2.3 1.6-1.5 1.4-2.3 2.9-2.2 3.8.9 5.3.8 2.5 1 .7 1.3a1.3 1.3 0 0 0-.6 2.4c.9.4 2.2-1.9 3.5-1s2.7-.4 4.9.7 2.2.3 3.2-.2 2.3-.9 2.3-2.1-2.4 0-3.5-2.1-2.3-.7-4-.4-2.4 1.9-3.1.6 4.1-2.9 4.4-4.1-.9.3-1.4-1.2-1.4-1.1-2.9-1-2.2-1.3-3.3-1.4-1.9 1.9-3.8 1.8-1.3-1.7-2.5-2.9.3-2.9 1.4-.6 1.4 1.2 2.5.5 2-1.6 3.7-.1 1.5.3 2.6-.3 1.3-1.7.6-1.7-4.3-.5-2.4-1.5 1.1-1 .2-1.8-1.4-.3-1.3-1.1-1-1.6-1.9-1.4-2.8.7-2.6-1.7-.6-.2-1.6-.4-1.7 1.9-2.2.1-3 .6-3.1.5-.5 1.6-1.6 1.4-2.9 2.1-2.6.6-.6.1-.9.1-3.8 1.3-.7 3.4.1 1.9-1.7 2.4-.9 1.9-.2 2.7-.5 2.9-1.5.9-1.4-.8-2.6.1-.7-1.2-.2-1.2.7.1 1.6-2.4-4.1-5.4-4.3-7-1.1-3-2.1-2.2-1.8.5-2.9-.8-1.4.7-2.1.5a4.2 4.2 0 0 0-3.5.9c-3.8 2.9 1 2.3 1.8 3.1s-.5 2.6-1.5 1.4-1.3-.3-1.9-.2a2.8 2.8 0 0 1-2.2-1.1c-.7-.6-1.7-1.6-2.7-.3s-1.9.6-3.6-1.1-2-.5-2.3.6-2.6.9-3.3 1.1-2.5 2.9-4.1-.5 1.4-3.5 3.5-3.1.4-2.6 3.2-2.4 1 .7 3.6 1.6 1.4-1.7 3.4-1.5.9-1.5 3.6-3.1-2.3-2.2-4.3-1.8-2.2-.4-3.4-1.1a3.1 3.1 0 0 0-3.7.2c-2.5 2.6-2.4.1-2.4-1.1s-4-3.4-5.9-3.7-5.3 3.4-6.3 2.2-2.2-.2-4.7 0-1.3 1.2-.1 2.2-.7 1.1-1.7 1-1.9 1.1.7 1.8.5 1.4-.5 1.4-2.5 1-4 2.8-2.4 1.4-4.1 1 0-3.7.9-3.5 3.6-1.4 3-3.2-.7-1.3 1.3-2.7 0-2.7-.9-3-2.6 1.6-3.5.5a3.1 3.1 0 0 0-2.9-1.1c-1.1 0-1 1.9-2.4.6a3 3 0 0 0-1.3-.9c-.4-.2-1.3-.9-1.5-.4s-2-2.8-2.2.1c-.1.7-1 .2-1.4-.2s-1.4.5-2 .4-1.7.8-2.3.6S62-.6 61 1.6s1.6.7 1.4 2.1 1.3 2.3.4 3.2-3.9 1.5-5.9-.1-3 1.4-3.4 3 2.9 1.1 3.4 2.1 3.8-.7 6.1.3-1.9.9-2.1 1.8 1.9-.2 2.5 1.1 1.4 0 2.9 1.1 2.7.3 3.9-.3 3 .9 2.8 1.8-1.2.7-2 1.6-2-1.6-3.3.4 2.5.1 3 1.3 1.7 1 2 1.5-1.9 1.9-3.2 2.5a5.8 5.8 0 0 1-4.5 1c-2.2-.3 1.1-3.2-1.6-3.4-.8-.1-2.9-.8-2.7-2s-3.7-5.2-4.8-6.1.2 3.6-1.3 3.5-3.6-3.2-6.3-5.1-2.7-.3-3.9-.7-1.7 1.2-1.8.5c-.7-2.8-1.6.8-2 .4s-1.1 1.1-1.9.5-.8 1.2-.9 2.6-1.5 1.1-4.3 1.5-2.9 3.6-2.7 4.7-.5 2-2.1 1.4.1-2.1-1.4-2.6-4.9 3.8-4.9 4.8 2.7-.5 4.3 1.8 3.7-.3 4.7.7 4-1.2 4.8-2.2 2.7-1.2 3.9-1.4 1.5 2.1 1.5 2.9 2.4.2 1.6 2.4-1.4.7-5.3 1 .9 1.4.7 2.3-3.6.6-4.5 1.7 3 3.5 4.4 4 4.9-2.5 5.8-1.6 1.2 2.4 2.7 3.5 2.1 1.5 0 3.6-5.5-.5-5.5-.5c-2.2-.5-3.4-1.7-4.7.2s-.3 3-1.4 3.8-2-1.6-3.7-1.4-2.9-2.5-4.4-3-3.9 2.7-3.8-.8-2.3.1-3-.6-3 1.9-3.8-.4-1.8.4-2.5.8 0 3.7-1.5 3.7-1.1 1-2.2 2 0 2.2-.7 2.6-.5 1.9-.1 2.1 1-2.7 2-.5-2.5 2.7-3.1 1.9-1.2-3.2-1.8-.8-2.8 2.5-2.6 3.5 2.6.2 4.2-.3 1.4 2.3 1.4 4.1 2.1 1.3 2.7 1.7a4.2 4.2 0 0 0 2.4 1.2c1 .1 2-1.7.1-2s0-1.6-2.2-1.5-.9-1.9-.4-1.2 2.6.1 4.2.4 2 2.7 3.5 2.6 1.6-.2 1.7.8-.8 2.6-.2 2.8.5-1.7 1.9-2.2 1 2.1 1.3 3.4-1.4.2-1.6 2.1 1 1.2 2 .5c2.8-2 1.9 1.3 3.4 1.5s2.1-1.8 3.8-2.1a7.3 7.3 0 0 0 3.3-1.7c.9-.7 2.5-.9 4.1.6s2.1 1.7 3.3 1.1 1.2 1.3.6 2.1-4.4.5-6.4.2-3.5 1.6-2.5 1.8 2.5 1.1 1.3 1.6-.9 1.7-2.1 1.6-2.5-2.8-3.8.3 2.3 5.2 5.3 4.1 3.8-.1 4.2 1 3.8 1.9 3.8 1.9c1.7 3.6-1.5.7-2.5.5s-2 1.9-4.1 1.6-2.7.7-2.2 1.1 1.7 1.5 0 2.2-.8 2.6-1.6 3.4-.4 2.2 1.1 2.2 5.2-.2 5.8.7 4.3 0 4.3 0c3.7 0-.2 2.2.2 3.3s7.8-.3 9.3.7-.3 3.2.7 3.7 3-1.9 1.9-3.8.7-1.1.3-2.9 3.7-2.9 5.6-2.6 3.3-.4 3 1.6 2.1.4 3.2.8 1.1-1.5-.1-2.3 1.1-2.1 1.8-2.5-1.7-1.2 2.3-2.7 7 .4 9.9 2.5 1.6 7.6.8 11.1-2.5 5.7-3.4 7.4-3.4 3.7-6.8 4.2C45.5 116.3 35.1 124 35.1 124s20.8-9 57-9c26.8 0 53.7 9 53.7 9s-13.6-7-38.4-10.1c-1.3-.9-1.5-1.3-1.6-2s-2.1-1.9-3.4-3.8-1-4.6.1-7.1 1.9-6.3 4.3-7.3 1.7-2.3 2.3-2.9 2.1-2.1 3-.2-1.2.1-2.8 1.3 1.3 1 1.8 2.3 2.2 1.3 3 1.1 1.4.3.9 1.1-1 1.3-.7 2.3 1.9.7 2.8-.2.6-1.1 1.5-.2.7-1 2-1.3.7-.9 1.2-1.6 1.7-.6 2.4-.1.2 2.2.7 1 1.5-.2 1.5-.2c1.2 1.5 1.5-.7 3.1-.4s2.4-.3 3.8-.8 1.5-.9 2.3.5.7.9 3.3 1 4.5-2.9 5.3-4 1.7-1 1-3.4-2.5.7-3.2-1.7-2.7-.7-3.4-2.5 2.2-.7 3-1.2 1.7 1.9 2.9 1.8 2.7 1.1 3.5.2-.9-1.3-1.7-2.5 1.2-1.2 2-.5 1.2.4 2.8.5 2.2 2.1 2.9 1.3-1.3-1.2.6-2.4 1.9-.2 3.5-.1 1.8-2.5 2.5-3.8.3-1.8-.8-2.4-1.6.6-2.2-1.2-1.5-2-2.7-1.5-3.8-.3-3.8-1.6-2.2-1.7-3.7-1.9-2.9-.3-3.2-1.5-.9-1.6-2.4-1.6-1.9.5-3-1-2.7-.8-3.8.2-.6 2.1-2 2.5-1.7-1.9-.4-2.9 1.9-.6 1.2-1.8 0-.8.6-2 1.9-.4 2 1 2.3.7 3.3.6 2.4-.6 2.6.6 1.3.8 3.3.1 3.9 1.5 4.6 1.7.5-1.2 1.6-2.3-.8-.4-1.3-1.8.9-1.6 2.8-.3 1 2.4 2 2.8 2.3 2 4.2 0 1.9-.3 3.8-1.5 3.9 0 4.7-1.2.9-1 3.5 0 1.6-.7 1.5-4.2 1.5-1.9 1.5-3.2-1.2-.4-1.5-1.9" style="fill:#0a3558"/>
<g>
<path d="M48.6 162.4v2.4h3.9v2.5h-3.9v4.4h-3.4V160h8.5v2.4ZM59.5 171.6v-11.7h8.9v2.5h-5.3v2.1h4.3v2.5h-4.3v2h5.3v2.6ZM74.4 171.6v-11.7h3.5v8.9h4.6v2.8ZM88.5 171.6v-11.7H92v8.9h4.6v2.8ZM113.4 165.8a10.9 10.9 0 0 1-.3 2.6 5.7 5.7 0 0 1-1 1.9 5.2 5.2 0 0 1-1.7 1.2 6.8 6.8 0 0 1-2.6.4 6.2 6.2 0 0 1-2.5-.4 4.5 4.5 0 0 1-2.7-3.1 10.9 10.9 0 0 1-.3-2.6 9.8 9.8 0 0 1 .3-2.6 3.9 3.9 0 0 1 1-1.9 3.7 3.7 0 0 1 1.7-1.3 8.7 8.7 0 0 1 2.5-.4 9.5 9.5 0 0 1 2.6.4 5.2 5.2 0 0 1 1.7 1.2 6.3 6.3 0 0 1 1 2 9.8 9.8 0 0 1 .3 2.6Zm-3.6-.1a8.1 8.1 0 0 0-.1-1.6l-.3-1.2a1.7 1.7 0 0 0-.6-.6 1.6 1.6 0 0 0-.9-.3 1.9 1.9 0 0 0-1.6.9 10.4 10.4 0 0 0-.3 1.2 8.1 8.1 0 0 0-.1 1.6 7.6 7.6 0 0 0 .1 1.6 10.4 10.4 0 0 0 .3 1.2l.6.7 1 .2.9-.2.6-.7.3-1.2a7.6 7.6 0 0 0 .1-1.6ZM131.2 171.6h-2.9l-1.7-6.4-1.6 6.4h-3.1l-3.2-11.7h3.2l1.8 6.6 1.7-6.6h2.9l1.7 6.6 1.9-6.6h2.5Z" style="fill:#1266a0"/>
</g>
</svg>