<svg width="1045" height="241" viewBox="0 0 1045 241" fill="none" xmlns="http://www.w3.org/2000/svg">
    <mask id="mask0_3620_14394" style="mask-type:luminance" maskUnits="userSpaceOnUse" x="-19" y="-30" width="1123"
        height="291">
        <path d="M-19 261L1104 261L1104 -30L-19.0001 -30L-19 261Z" fill="white" />
    </mask>
    <g mask="url(#mask0_3620_14394)">
        <mask id="mask1_3620_14394" style="mask-type:luminance" maskUnits="userSpaceOnUse" x="-19" y="-282" width="1123"
            height="795">
            <path d="M1104 512.502L1104 -281.502L-19.0001 -281.502L-19 512.502L1104 512.502Z" fill="white" />
        </mask>
        <g mask="url(#mask1_3620_14394)">
            <path d="M0.0482305 0.418554L350.178 0.418538L350.178 238.307L0.0482406 238.307L0.0482305 0.418554Z"
                fill="white" />
            <path d="M6.78148 6.94165L343.447 6.94164L343.447 231.51L6.78149 231.51L6.78148 6.94165Z" fill="#264CA4" />
            <path
                d="M167.94 55.8723L175.044 50.6854L182.149 55.8723L179.444 47.4832L186.661 42.2963L177.766 42.2963L175.044 33.8062L172.322 42.3058L163.433 42.2965L170.643 47.4834L167.94 55.8723Z"
                fill="#F5F014" />
            <path
                d="M131.177 65.7545L138.281 60.5676L145.381 65.7545L142.681 57.3653L149.893 52.1784L140.998 52.1784L138.277 43.6788L135.555 52.188L126.665 52.1787L133.875 57.3656L131.177 65.7545Z"
                fill="#F5F014" />
            <path
                d="M111.381 70.654L108.659 79.163L99.7695 79.1537L106.98 84.3406L104.277 92.7297L111.381 87.5428L118.484 92.7297L115.781 84.3406L122.992 79.1537L114.103 79.1537L111.381 70.654Z"
                fill="#F5F014" />
            <path
                d="M101.513 124.28L108.613 129.467L105.914 121.079L113.125 115.891L104.235 115.891L101.513 107.391L98.7913 115.91L89.8976 115.891L97.1128 121.079L94.4098 129.467L101.513 124.28Z"
                fill="#F5F014" />
            <path
                d="M114.103 152.739L111.381 144.239L108.659 152.748L99.7695 152.739L106.98 157.926L104.277 166.315L111.381 161.118L118.484 166.315L115.781 157.926L122.992 152.739L114.103 152.739Z"
                fill="#F5F014" />
            <path
                d="M141.054 179.704L138.332 171.214L135.614 179.714L126.72 179.704L133.931 184.891L131.233 193.28L138.336 188.093L145.435 193.28L142.737 184.891L149.947 179.704L141.054 179.704Z"
                fill="#F5F014" />
            <path
                d="M177.771 189.476L175.049 180.976L172.332 189.485L163.438 189.476L170.648 194.663L167.95 203.052L175.054 197.865L182.152 203.052L179.449 194.663L186.665 189.476L177.771 189.476Z"
                fill="#F5F014" />
            <path
                d="M214.488 179.704L211.77 171.214L209.044 179.714L200.159 179.704L207.365 184.891L204.667 193.28L211.77 188.093L218.874 193.28L216.166 184.891L223.382 179.704L214.488 179.704Z"
                fill="#F5F014" />
            <path
                d="M241.448 152.739L238.721 144.239L235.995 152.748L227.11 152.739L234.326 157.926L231.618 166.315L238.721 161.118L245.825 166.315L243.117 157.926L250.333 152.739L241.448 152.739Z"
                fill="#F5F014" />
            <path
                d="M260.099 115.789L251.205 115.789L248.478 107.289L245.761 115.798L236.867 115.789L244.082 120.976L241.383 129.365L248.478 124.168L255.582 129.365L252.883 120.976L260.099 115.789Z"
                fill="#F5F014" />
            <path
                d="M231.617 92.6179L238.72 87.431L245.825 92.6179L243.117 84.2288L250.333 79.0514L241.447 79.0514L238.72 70.5518L235.995 79.0608L227.109 79.0515L234.324 84.2289L231.617 92.6179Z"
                fill="#F5F014" />
            <path
                d="M211.873 43.6884L209.155 52.1975L200.262 52.1784L207.467 57.3749L204.769 65.764L211.882 60.5676L218.976 65.764L216.278 57.3749L223.493 52.1784L214.59 52.1784L211.873 43.6884Z"
                fill="#F5F014" />
            <path
                d="M385.068 230.857L385.068 187.532L390.949 187.532L413.705 221.547L413.705 187.532L419.202 187.532L419.202 230.857L413.321 230.857L390.565 196.812L390.565 230.857L385.068 230.857ZM449.671 220.749L455.168 221.429C454.301 224.641 452.695 227.133 450.351 228.906C448.006 230.679 445.011 231.566 441.367 231.566C436.776 231.566 433.131 230.157 430.432 227.34C427.752 224.503 426.413 220.533 426.413 215.43C426.413 210.15 427.772 206.052 430.491 203.136C433.21 200.22 436.737 198.762 441.071 198.762C445.267 198.762 448.696 200.19 451.355 203.047C454.015 205.904 455.345 209.923 455.345 215.105C455.345 215.42 455.335 215.893 455.315 216.523L431.91 216.523C432.107 219.971 433.082 222.611 434.835 224.444C436.589 226.276 438.776 227.192 441.396 227.192C443.347 227.192 445.011 226.68 446.39 225.655C447.77 224.631 448.863 222.995 449.671 220.749ZM432.205 212.15L449.73 212.15C449.494 209.51 448.824 207.529 447.72 206.209C446.026 204.16 443.829 203.136 441.13 203.136C438.687 203.136 436.628 203.954 434.954 205.589C433.299 207.224 432.382 209.411 432.205 212.15ZM458.33 230.857L469.796 214.543L459.187 199.471L465.836 199.471L470.653 206.83C471.56 208.229 472.289 209.401 472.84 210.347C473.707 209.047 474.505 207.894 475.234 206.889L480.524 199.471L486.878 199.471L476.032 214.248L487.705 230.857L481.174 230.857L474.732 221.104L473.018 218.474L464.772 230.857L458.33 230.857ZM503.753 226.099L504.521 230.797C503.024 231.113 501.684 231.27 500.502 231.27C498.571 231.27 497.074 230.965 496.01 230.354C494.946 229.743 494.197 228.945 493.764 227.96C493.33 226.956 493.114 224.857 493.114 221.666L493.114 203.609L489.213 203.609L489.213 199.471L493.114 199.471L493.114 191.699L498.404 188.507L498.404 199.471L503.753 199.471L503.753 203.609L498.404 203.609L498.404 221.961C498.404 223.478 498.492 224.453 498.67 224.887C498.867 225.32 499.172 225.665 499.586 225.921C500.019 226.177 500.63 226.305 501.418 226.305C502.009 226.305 502.787 226.236 503.753 226.099ZM529.937 213.864L529.937 208.781L548.289 208.751L548.289 224.828C545.471 227.074 542.565 228.768 539.571 229.911C536.576 231.034 533.503 231.595 530.35 231.595C526.095 231.595 522.223 230.689 518.736 228.876C515.268 227.044 512.648 224.404 510.875 220.956C509.102 217.508 508.215 213.657 508.215 209.401C508.215 205.185 509.092 201.254 510.845 197.61C512.619 193.945 515.16 191.226 518.47 189.453C521.78 187.68 525.592 186.793 529.907 186.793C533.04 186.793 535.867 187.305 538.389 188.33C540.93 189.335 542.92 190.743 544.358 192.556C545.797 194.369 546.89 196.733 547.639 199.649L542.467 201.067C541.817 198.861 541.009 197.127 540.044 195.866C539.078 194.605 537.699 193.6 535.906 192.852C534.113 192.083 532.123 191.699 529.937 191.699C527.316 191.699 525.05 192.103 523.139 192.911C521.228 193.699 519.682 194.743 518.5 196.043C517.337 197.344 516.431 198.772 515.781 200.328C514.677 203.008 514.126 205.914 514.126 209.047C514.126 212.908 514.786 216.139 516.106 218.74C517.445 221.341 519.386 223.271 521.928 224.532C524.469 225.793 527.168 226.424 530.025 226.424C532.508 226.424 534.931 225.951 537.295 225.005C539.659 224.04 541.452 223.015 542.674 221.932L542.674 213.864L529.937 213.864ZM577.576 220.749L583.073 221.429C582.206 224.641 580.6 227.133 578.255 228.906C575.911 230.679 572.916 231.566 569.271 231.566C564.681 231.566 561.036 230.157 558.337 227.34C555.657 224.503 554.318 220.533 554.318 215.43C554.318 210.15 555.677 206.052 558.396 203.136C561.115 200.22 564.641 198.762 568.976 198.762C573.172 198.762 576.601 200.19 579.26 203.047C581.92 205.904 583.25 209.923 583.25 215.105C583.25 215.42 583.24 215.893 583.22 216.523L559.814 216.523C560.011 219.971 560.987 222.611 562.74 224.444C564.494 226.276 566.681 227.192 569.301 227.192C571.251 227.192 572.916 226.68 574.295 225.655C575.675 224.631 576.768 222.995 577.576 220.749ZM560.11 212.15L577.635 212.15C577.398 209.509 576.729 207.529 575.625 206.209C573.931 204.16 571.734 203.136 569.035 203.136C566.592 203.136 564.533 203.954 562.858 205.589C561.203 207.224 560.287 209.411 560.11 212.15ZM589.781 230.857L589.781 199.471L594.569 199.471L594.569 203.934C596.874 200.486 600.203 198.762 604.558 198.762C606.449 198.762 608.183 199.107 609.759 199.796C611.355 200.466 612.547 201.353 613.335 202.456C614.123 203.56 614.674 204.87 614.99 206.387C615.187 207.372 615.285 209.096 615.285 211.558L615.285 230.857L609.966 230.857L609.966 211.765C609.966 209.598 609.759 207.983 609.345 206.919C608.931 205.835 608.193 204.978 607.129 204.348C606.084 203.697 604.853 203.372 603.435 203.372C601.169 203.372 599.208 204.091 597.553 205.53C595.918 206.968 595.101 209.697 595.101 213.716L595.101 230.857L589.781 230.857ZM644.956 220.749L650.453 221.429C649.586 224.641 647.981 227.133 645.636 228.906C643.292 230.679 640.297 231.566 636.652 231.566C632.061 231.566 628.417 230.157 625.717 227.34C623.038 224.503 621.698 220.533 621.698 215.43C621.698 210.15 623.058 206.052 625.777 203.136C628.495 200.22 632.022 198.762 636.356 198.762C640.553 198.762 643.981 200.19 646.641 203.047C649.301 205.904 650.63 209.923 650.63 215.105C650.63 215.42 650.621 215.893 650.601 216.523L627.195 216.523C627.392 219.971 628.367 222.611 630.121 224.444C631.874 226.276 634.061 227.192 636.682 227.192C638.632 227.192 640.297 226.68 641.676 225.655C643.055 224.631 644.149 222.995 644.956 220.749ZM627.491 212.15L645.015 212.15C644.779 209.509 644.109 207.529 643.006 206.209C641.311 204.16 639.115 203.136 636.416 203.136C633.973 203.136 631.914 203.954 630.239 205.589C628.584 207.224 627.668 209.411 627.491 212.15ZM657.103 230.857L657.103 199.471L661.89 199.471L661.89 204.229C663.112 202.003 664.235 200.535 665.259 199.826C666.303 199.117 667.446 198.762 668.687 198.762C670.48 198.762 672.303 199.333 674.155 200.476L672.322 205.411C671.022 204.643 669.722 204.259 668.421 204.259C667.259 204.259 666.215 204.614 665.289 205.323C664.363 206.012 663.703 206.978 663.309 208.219C662.718 210.11 662.422 212.179 662.422 214.425L662.422 230.857L657.103 230.857ZM697.797 226.985C695.827 228.66 693.925 229.842 692.093 230.531C690.281 231.221 688.33 231.566 686.242 231.566C682.794 231.566 680.144 230.728 678.292 229.054C676.44 227.359 675.514 225.202 675.514 222.582C675.514 221.045 675.859 219.646 676.548 218.385C677.258 217.105 678.174 216.08 679.297 215.312C680.439 214.543 681.72 213.962 683.139 213.568C684.183 213.292 685.759 213.026 687.867 212.77C692.162 212.258 695.324 211.647 697.354 210.938C697.373 210.209 697.383 209.746 697.383 209.549C697.383 207.382 696.881 205.855 695.876 204.968C694.517 203.766 692.497 203.165 689.818 203.165C687.315 203.165 685.463 203.609 684.262 204.495C683.08 205.362 682.203 206.909 681.631 209.135L676.43 208.426C676.903 206.2 677.681 204.407 678.765 203.047C679.848 201.668 681.415 200.614 683.464 199.885C685.513 199.136 687.887 198.762 690.586 198.762C693.265 198.762 695.442 199.077 697.117 199.708C698.792 200.338 700.023 201.136 700.811 202.102C701.599 203.047 702.151 204.249 702.466 205.707C702.644 206.613 702.732 208.249 702.732 210.613L702.732 217.705C702.732 222.651 702.841 225.783 703.057 227.103C703.294 228.404 703.747 229.655 704.417 230.857L698.861 230.857C698.309 229.753 697.954 228.463 697.797 226.985ZM697.354 215.105C695.423 215.893 692.527 216.563 688.665 217.114C686.478 217.43 684.932 217.784 684.025 218.178C683.119 218.572 682.42 219.154 681.927 219.922C681.434 220.671 681.188 221.508 681.188 222.434C681.188 223.852 681.72 225.035 682.784 225.98C683.868 226.926 685.444 227.399 687.512 227.399C689.561 227.399 691.384 226.956 692.98 226.069C694.576 225.163 695.748 223.931 696.497 222.375C697.068 221.173 697.354 219.4 697.354 217.055L697.354 215.105ZM722.621 226.099L723.39 230.797C721.892 231.113 720.553 231.27 719.371 231.27C717.44 231.27 715.942 230.965 714.878 230.354C713.815 229.743 713.066 228.945 712.632 227.96C712.199 226.956 711.982 224.857 711.982 221.666L711.982 203.609L708.081 203.609L708.081 199.471L711.982 199.471L711.982 191.699L717.272 188.507L717.272 199.471L722.621 199.471L722.621 203.609L717.272 203.609L717.272 221.961C717.272 223.478 717.361 224.453 717.538 224.887C717.735 225.32 718.041 225.665 718.454 225.921C718.888 226.177 719.499 226.305 720.287 226.305C720.878 226.305 721.656 226.236 722.621 226.099ZM727.882 193.649L727.882 187.532L733.201 187.532L733.201 193.649L727.882 193.649ZM727.882 230.857L727.882 199.471L733.201 199.471L733.201 230.857L727.882 230.857ZM739.348 215.164C739.348 209.352 740.964 205.047 744.195 202.249C746.894 199.925 750.184 198.762 754.066 198.762C758.38 198.762 761.907 200.181 764.646 203.018C767.384 205.835 768.753 209.736 768.753 214.721C768.753 218.76 768.143 221.941 766.921 224.266C765.719 226.571 763.956 228.364 761.631 229.645C759.326 230.925 756.804 231.566 754.066 231.566C749.672 231.566 746.116 230.157 743.397 227.34C740.698 224.522 739.348 220.464 739.348 215.164ZM744.816 215.164C744.816 219.183 745.692 222.198 747.446 224.207C749.199 226.197 751.406 227.192 754.066 227.192C756.706 227.192 758.902 226.187 760.656 224.178C762.409 222.168 763.286 219.104 763.286 214.987C763.286 211.105 762.4 208.17 760.626 206.18C758.873 204.17 756.686 203.165 754.066 203.165C751.406 203.165 749.199 204.16 747.446 206.15C745.692 208.14 744.816 211.145 744.816 215.164ZM775.019 230.857L775.019 199.471L779.806 199.471L779.806 203.934C782.111 200.486 785.441 198.762 789.795 198.762C791.686 198.762 793.42 199.107 794.996 199.796C796.592 200.466 797.784 201.353 798.572 202.456C799.36 203.56 799.912 204.87 800.227 206.387C800.424 207.372 800.523 209.096 800.523 211.558L800.523 230.857L795.203 230.857L795.203 211.765C795.203 209.598 794.996 207.983 794.583 206.919C794.169 205.835 793.43 204.978 792.366 204.348C791.322 203.697 790.091 203.372 788.672 203.372C786.406 203.372 784.446 204.091 782.791 205.53C781.156 206.968 780.338 209.697 780.338 213.716L780.338 230.857L775.019 230.857ZM809.507 230.857L809.507 187.532L840.833 187.532L840.833 192.645L815.24 192.645L815.24 205.914L839.207 205.914L839.207 210.997L815.24 210.997L815.24 225.744L841.838 225.744L841.838 230.857L809.507 230.857ZM878.188 187.532L883.921 187.532L883.921 212.563C883.921 216.917 883.428 220.375 882.443 222.936C881.458 225.498 879.675 227.586 877.094 229.202C874.533 230.797 871.164 231.595 866.987 231.595C862.929 231.595 859.609 230.896 857.028 229.497C854.447 228.098 852.605 226.079 851.501 223.439C850.398 220.779 849.846 217.154 849.846 212.563L849.846 187.532L855.58 187.532L855.58 212.534C855.58 216.297 855.925 219.075 856.614 220.868C857.323 222.641 858.525 224.01 860.22 224.975C861.934 225.941 864.022 226.424 866.485 226.424C870.701 226.424 873.706 225.468 875.498 223.557C877.291 221.646 878.188 217.971 878.188 212.534L878.188 187.532Z"
                fill="#505256" />
            <path
                d="M383.625 56.8369L383.625 6.71635L417.984 6.71635L417.984 15.1951L393.745 15.1951L393.745 27.0586L414.668 27.0586L414.668 35.5374L393.745 35.5374L393.745 56.8369L383.625 56.8369ZM450.19 56.8369L450.19 51.4009C448.868 53.3382 447.125 54.8653 444.959 55.9822C442.817 57.099 440.549 57.6574 438.156 57.6574C435.717 57.6574 433.529 57.1218 431.592 56.0505C429.654 54.9793 428.252 53.475 427.386 51.5376C426.52 49.6003 426.087 46.9222 426.087 43.5033L426.087 20.5286L435.694 20.5286L435.694 37.2126C435.694 42.3181 435.865 45.4521 436.207 46.6145C436.572 47.7541 437.221 48.6658 438.156 49.3496C439.09 50.0106 440.275 50.341 441.711 50.341C443.352 50.341 444.823 49.8966 446.122 49.0077C447.421 48.096 448.31 46.9792 448.788 45.6572C449.267 44.3124 449.506 41.0417 449.506 35.8451L449.506 20.5286L459.113 20.5286L459.113 56.8369L450.19 56.8369ZM502.123 56.8369L492.516 56.8369L492.516 38.3066C492.516 34.3863 492.311 31.8564 491.9 30.7168C491.49 29.5543 490.818 28.654 489.883 28.0159C488.971 27.3777 487.866 27.0586 486.567 27.0586C484.903 27.0586 483.41 27.5144 482.088 28.4261C480.766 29.3378 479.854 30.5458 479.353 32.0501C478.874 33.5544 478.635 36.3351 478.635 40.3921L478.635 56.8369L469.028 56.8369L469.028 20.5286L477.951 20.5286L477.951 25.862C481.119 21.7593 485.108 19.708 489.917 19.708C492.037 19.708 493.974 20.0955 495.729 20.8704C497.484 21.6226 498.806 22.5913 499.695 23.7765C500.607 24.9617 501.234 26.3064 501.576 27.8107C501.94 29.315 502.123 31.4689 502.123 34.2724L502.123 56.8369ZM545.2 56.8369L536.277 56.8369L536.277 51.5034C534.796 53.5776 533.041 55.1274 531.012 56.1531C529.006 57.156 526.978 57.6574 524.927 57.6574C520.755 57.6574 517.177 55.9822 514.191 52.6317C511.228 49.2584 509.747 44.5632 509.747 38.546C509.747 32.392 511.194 27.7196 514.089 24.5286C516.983 21.3149 520.642 19.708 525.063 19.708C529.12 19.708 532.63 21.3947 535.593 24.7679L535.593 6.71634L545.2 6.71634L545.2 56.8369ZM519.559 37.8964C519.559 41.7711 520.095 44.5746 521.166 46.3068C522.716 48.8139 524.881 50.0675 527.662 50.0675C529.872 50.0675 531.753 49.133 533.303 47.2641C534.853 45.3723 535.628 42.5574 535.628 38.8195C535.628 34.6485 534.875 31.6513 533.371 29.8279C531.867 27.9817 529.941 27.0586 527.593 27.0586C525.314 27.0586 523.399 27.9703 521.85 29.7937C520.322 31.5943 519.559 34.2952 519.559 37.8964ZM575.731 45.2811L585.304 46.888C584.073 50.398 582.124 53.0761 579.457 54.9223C576.813 56.7457 573.497 57.6574 569.508 57.6574C563.195 57.6574 558.523 55.5947 555.491 51.4693C553.098 48.1644 551.901 43.9933 551.901 38.9562C551.901 32.939 553.474 28.2324 556.619 24.8363C559.765 21.4175 563.742 19.708 568.551 19.708C573.953 19.708 578.215 21.4972 581.338 25.0756C584.46 28.6313 585.953 34.09 585.816 41.452L561.748 41.452C561.816 44.301 562.591 46.5233 564.072 48.1188C565.554 49.6915 567.4 50.4778 569.611 50.4778C571.115 50.4778 572.38 50.0675 573.406 49.247C574.432 48.4265 575.207 47.1045 575.731 45.2811ZM576.278 35.5715C576.209 32.7909 575.491 30.6826 574.124 29.2466C572.756 27.7879 571.093 27.0586 569.132 27.0586C567.036 27.0586 565.303 27.8221 563.936 29.3492C562.568 30.8763 561.896 32.9504 561.919 35.5715L576.278 35.5715ZM626.98 56.8369L618.056 56.8369L618.056 51.5034C616.575 53.5776 614.82 55.1274 612.791 56.1531C610.786 57.156 608.757 57.6574 606.706 57.6574C602.535 57.6574 598.956 55.9822 595.97 52.6317C593.007 49.2584 591.526 44.5632 591.526 38.546C591.526 32.392 592.973 27.7196 595.868 24.5286C598.763 21.3149 602.421 19.708 606.842 19.708C610.9 19.708 614.41 21.3947 617.373 24.7679L617.373 6.71634L626.98 6.71634L626.98 56.8369ZM601.338 37.8964C601.338 41.7711 601.874 44.5746 602.945 46.3068C604.495 48.8139 606.66 50.0675 609.441 50.0675C611.652 50.0675 613.532 49.133 615.082 47.2641C616.632 45.3723 617.407 42.5574 617.407 38.8195C617.407 34.6485 616.655 31.6512 615.15 29.8279C613.646 27.9817 611.72 27.0586 609.372 27.0586C607.093 27.0586 605.179 27.9703 603.629 29.7937C602.102 31.5943 601.338 34.2952 601.338 37.8964ZM655.561 56.8369L655.561 6.71634L665.168 6.71634L665.168 24.7679C668.131 21.3947 671.641 19.708 675.698 19.708C680.12 19.708 683.778 21.3149 686.673 24.5286C689.568 27.7196 691.015 32.3122 691.015 38.3066C691.015 44.5062 689.533 49.2812 686.57 52.6317C683.63 55.9822 680.052 57.6574 675.835 57.6574C673.761 57.6574 671.71 57.1446 669.681 56.1189C667.675 55.0705 665.943 53.532 664.485 51.5034L664.485 56.8369L655.561 56.8369ZM665.1 37.8964C665.1 41.6571 665.692 44.4378 666.878 46.2384C668.542 48.7911 670.752 50.0675 673.51 50.0675C675.63 50.0675 677.431 49.1672 678.912 47.3666C680.416 45.5432 681.169 42.6828 681.169 38.7853C681.169 34.6371 680.416 31.6512 678.912 29.8279C677.408 27.9817 675.482 27.0586 673.134 27.0586C670.832 27.0586 668.918 27.9589 667.391 29.7595C665.863 31.5373 665.1 34.2496 665.1 37.8964ZM694.229 20.5285L704.451 20.5285L713.135 46.3068L721.614 20.5285L731.563 20.5285L718.742 55.4693L716.451 61.7942C715.608 63.9139 714.799 65.5322 714.024 66.649C713.272 67.7658 712.394 68.6661 711.391 69.3499C710.411 70.0565 709.192 70.6035 707.733 70.991C706.297 71.3784 704.668 71.5722 702.844 71.5722C700.998 71.5722 699.186 71.3784 697.408 70.991L696.553 63.4695C698.058 63.7658 699.414 63.9139 700.622 63.9139C702.856 63.9139 704.508 63.2529 705.579 61.931C706.65 60.6318 707.471 58.968 708.041 56.9394L694.229 20.5285Z"
                fill="#264CA4" />
            <path
                d="M400.138 103.622L400.138 111.28L393.574 111.28L393.574 125.913C393.574 128.876 393.631 130.608 393.745 131.109C393.881 131.588 394.166 131.987 394.599 132.306C395.055 132.625 395.602 132.784 396.24 132.784C397.129 132.784 398.417 132.477 400.104 131.861L400.924 139.315C398.691 140.272 396.161 140.75 393.334 140.75C391.602 140.75 390.041 140.466 388.651 139.896C387.26 139.303 386.235 138.551 385.574 137.639C384.935 136.705 384.491 135.451 384.24 133.879C384.035 132.762 383.933 130.505 383.933 127.109L383.933 111.28L379.522 111.28L379.522 103.622L383.933 103.622L383.933 96.4078L393.574 90.8008L393.574 103.622L400.138 103.622ZM416.378 89.8094L416.378 108.237C419.477 104.613 423.181 102.801 427.489 102.801C429.7 102.801 431.694 103.211 433.472 104.032C435.25 104.852 436.583 105.901 437.472 107.177C438.384 108.454 438.999 109.867 439.318 111.417C439.66 112.966 439.831 115.371 439.831 118.63L439.831 139.93L430.224 139.93L430.224 120.75C430.224 116.944 430.042 114.528 429.677 113.502C429.312 112.476 428.663 111.667 427.728 111.075C426.817 110.459 425.666 110.152 424.275 110.152C422.68 110.152 421.255 110.539 420.002 111.314C418.748 112.089 417.825 113.263 417.232 114.835C416.663 116.385 416.378 118.687 416.378 121.742L416.378 139.93L406.771 139.93L406.771 89.8094L416.378 89.8094ZM470.635 128.374L480.208 129.981C478.977 133.491 477.028 136.169 474.362 138.015C471.718 139.839 468.401 140.75 464.413 140.75C458.099 140.75 453.427 138.688 450.395 134.562C448.002 131.257 446.805 127.086 446.805 122.049C446.805 116.032 448.378 111.325 451.524 107.929C454.669 104.51 458.646 102.801 463.455 102.801C468.857 102.801 473.119 104.59 476.242 108.169C479.364 111.724 480.857 117.183 480.721 124.545L456.652 124.545C456.72 127.394 457.495 129.616 458.977 131.212C460.458 132.784 462.304 133.571 464.515 133.571C466.019 133.571 467.284 133.161 468.31 132.34C469.336 131.519 470.111 130.198 470.635 128.374ZM471.182 118.665C471.114 115.884 470.396 113.776 469.028 112.34C467.661 110.881 465.997 110.152 464.037 110.152C461.94 110.152 460.207 110.915 458.84 112.442C457.472 113.969 456.8 116.043 456.823 118.665L471.182 118.665ZM508.14 139.93L508.14 89.8094L545.303 89.8094L545.303 98.2881L518.26 98.2881L518.26 109.399L543.423 109.399L543.423 117.844L518.26 117.844L518.26 131.485L546.26 131.485L546.26 139.93L508.14 139.93ZM578.671 139.93L578.671 134.494C577.349 136.431 575.605 137.958 573.44 139.075C571.298 140.192 569.03 140.75 566.637 140.75C564.198 140.75 562.01 140.215 560.072 139.144C558.135 138.072 556.733 136.568 555.867 134.631C555.001 132.693 554.568 130.015 554.568 126.596L554.568 103.622L564.175 103.622L564.175 120.306C564.175 125.411 564.346 128.545 564.688 129.707C565.053 130.847 565.702 131.759 566.637 132.443C567.571 133.104 568.756 133.434 570.192 133.434C571.833 133.434 573.303 132.99 574.603 132.101C575.902 131.189 576.791 130.072 577.269 128.75C577.748 127.405 577.987 124.135 577.987 118.938L577.987 103.622L587.594 103.622L587.594 139.93L578.671 139.93ZM606.774 139.93L597.167 139.93L597.167 103.622L606.09 103.622L606.09 108.784C607.617 106.345 608.985 104.738 610.193 103.963C611.424 103.189 612.814 102.801 614.364 102.801C616.552 102.801 618.66 103.405 620.689 104.613L617.714 112.989C616.096 111.941 614.592 111.417 613.202 111.417C611.857 111.417 610.717 111.793 609.783 112.545C608.848 113.274 608.107 114.608 607.56 116.545C607.036 118.482 606.774 122.539 606.774 128.716L606.774 139.93ZM622.638 121.263C622.638 118.072 623.424 114.984 624.997 111.998C626.569 109.012 628.792 106.733 631.663 105.16C634.558 103.587 637.783 102.801 641.339 102.801C646.832 102.801 651.333 104.59 654.843 108.169C658.353 111.724 660.108 116.226 660.108 121.673C660.108 127.166 658.331 131.725 654.775 135.349C651.242 138.95 646.786 140.75 641.407 140.75C638.079 140.75 634.9 139.998 631.869 138.494C628.86 136.99 626.569 134.79 624.997 131.896C623.424 128.978 622.638 125.434 622.638 121.263ZM632.484 121.776C632.484 125.377 633.339 128.135 635.048 130.049C636.758 131.964 638.866 132.921 641.373 132.921C643.88 132.921 645.977 131.964 647.664 130.049C649.373 128.135 650.228 125.354 650.228 121.707C650.228 118.152 649.373 115.417 647.664 113.502C645.977 111.588 643.88 110.63 641.373 110.63C638.866 110.63 636.758 111.588 635.048 113.502C633.339 115.417 632.484 118.175 632.484 121.776ZM667.391 103.622L676.348 103.622L676.348 108.955C677.51 107.132 679.083 105.65 681.066 104.51C683.049 103.371 685.248 102.801 687.664 102.801C691.881 102.801 695.459 104.453 698.4 107.758C701.34 111.063 702.81 115.667 702.81 121.571C702.81 127.633 701.328 132.351 698.365 135.725C695.402 139.075 691.813 140.75 687.596 140.75C685.59 140.75 683.767 140.352 682.126 139.554C680.508 138.756 678.798 137.389 676.998 135.451L676.998 153.742L667.391 153.742L667.391 103.622ZM676.895 121.16C676.895 125.24 677.704 128.26 679.322 130.22C680.941 132.158 682.912 133.126 685.237 133.126C687.471 133.126 689.328 132.237 690.81 130.46C692.291 128.659 693.032 125.719 693.032 121.639C693.032 117.833 692.268 115.006 690.741 113.16C689.214 111.314 687.322 110.391 685.066 110.391C682.718 110.391 680.77 111.303 679.22 113.126C677.67 114.927 676.895 117.605 676.895 121.16ZM731.494 128.374L741.067 129.981C739.836 133.491 737.887 136.169 735.221 138.015C732.577 139.839 729.261 140.75 725.272 140.75C718.958 140.75 714.286 138.688 711.255 134.562C708.861 131.257 707.665 127.086 707.665 122.049C707.665 116.032 709.237 111.325 712.383 107.929C715.528 104.51 719.505 102.801 724.315 102.801C729.716 102.801 733.979 104.59 737.101 108.169C740.224 111.724 741.717 117.183 741.58 124.545L717.511 124.545C717.579 127.394 718.354 129.616 719.836 131.212C721.317 132.784 723.164 133.571 725.374 133.571C726.879 133.571 728.144 133.161 729.169 132.34C730.195 131.519 730.97 130.198 731.494 128.374ZM732.041 118.665C731.973 115.884 731.255 113.776 729.887 112.34C728.52 110.881 726.856 110.152 724.896 110.152C722.799 110.152 721.067 110.915 719.699 112.442C718.332 113.969 717.659 116.043 717.682 118.665L732.041 118.665ZM756.623 114.699L747.905 113.126C748.885 109.616 750.571 107.018 752.965 105.331C755.358 103.644 758.913 102.801 763.632 102.801C767.916 102.801 771.107 103.314 773.204 104.34C775.301 105.342 776.771 106.63 777.615 108.203C778.481 109.753 778.914 112.613 778.914 116.784L778.811 127.998C778.811 131.189 778.959 133.548 779.256 135.075C779.575 136.579 780.156 138.198 780.999 139.93L771.495 139.93C771.244 139.292 770.936 138.346 770.572 137.092C770.412 136.522 770.298 136.146 770.23 135.964C768.589 137.559 766.834 138.756 764.965 139.554C763.096 140.352 761.102 140.75 758.982 140.75C755.244 140.75 752.292 139.736 750.127 137.708C747.985 135.679 746.913 133.115 746.913 130.015C746.913 127.964 747.403 126.14 748.383 124.545C749.363 122.927 750.731 121.696 752.486 120.853C754.264 119.987 756.817 119.234 760.144 118.596C764.634 117.753 767.746 116.967 769.478 116.237L769.478 115.28C769.478 113.434 769.022 112.123 768.11 111.348C767.199 110.55 765.478 110.152 762.948 110.152C761.238 110.152 759.905 110.493 758.948 111.177C757.99 111.838 757.215 113.012 756.623 114.699ZM769.478 122.494C768.247 122.904 766.298 123.394 763.632 123.964C760.965 124.534 759.221 125.092 758.401 125.639C757.147 126.528 756.52 127.656 756.52 129.024C756.52 130.368 757.022 131.531 758.025 132.511C759.027 133.491 760.304 133.981 761.854 133.981C763.586 133.981 765.238 133.411 766.811 132.272C767.973 131.406 768.737 130.346 769.102 129.092C769.352 128.272 769.478 126.71 769.478 124.408L769.478 122.494ZM821.445 139.93L811.838 139.93L811.838 121.4C811.838 117.479 811.632 114.949 811.222 113.81C810.812 112.647 810.139 111.747 809.205 111.109C808.293 110.471 807.188 110.152 805.889 110.152C804.225 110.152 802.732 110.607 801.41 111.519C800.088 112.431 799.176 113.639 798.675 115.143C798.196 116.647 797.957 119.428 797.957 123.485L797.957 139.93L788.35 139.93L788.35 103.622L797.273 103.622L797.273 108.955C800.441 104.852 804.43 102.801 809.239 102.801C811.359 102.801 813.296 103.188 815.051 103.963C816.806 104.716 818.128 105.684 819.017 106.869C819.929 108.055 820.556 109.399 820.898 110.904C821.262 112.408 821.445 114.562 821.445 117.365L821.445 139.93ZM850.71 89.8093L860.83 89.8093L860.83 116.955C860.83 121.263 860.955 124.055 861.206 125.331C861.639 127.383 862.665 129.035 864.283 130.289C865.924 131.519 868.158 132.135 870.984 132.135C873.856 132.135 876.021 131.554 877.48 130.391C878.938 129.206 879.816 127.759 880.112 126.049C880.409 124.34 880.557 121.502 880.557 117.536L880.557 89.8093L890.677 89.8093L890.677 116.135C890.677 122.152 890.403 126.403 889.856 128.887C889.309 131.371 888.295 133.468 886.813 135.178C885.354 136.887 883.394 138.255 880.933 139.28C878.471 140.283 875.257 140.785 871.292 140.785C866.505 140.785 862.87 140.238 860.385 139.144C857.924 138.027 855.975 136.591 854.539 134.836C853.103 133.058 852.157 131.2 851.701 129.263C851.04 126.391 850.71 122.152 850.71 116.545L850.71 89.8093ZM934.335 139.93L924.728 139.93L924.728 121.4C924.728 117.479 924.523 114.949 924.113 113.81C923.703 112.647 923.03 111.747 922.096 111.109C921.184 110.471 920.079 110.152 918.78 110.152C917.116 110.152 915.623 110.607 914.301 111.519C912.979 112.431 912.067 113.639 911.566 115.143C911.087 116.647 910.848 119.428 910.848 123.485L910.848 139.93L901.241 139.93L901.241 103.622L910.164 103.622L910.164 108.955C913.332 104.852 917.321 102.801 922.13 102.801C924.25 102.801 926.187 103.188 927.942 103.963C929.697 104.716 931.019 105.684 931.908 106.869C932.82 108.055 933.446 109.399 933.788 110.904C934.153 112.408 934.335 114.562 934.335 117.365L934.335 139.93ZM944.113 98.6984L944.113 89.8093L953.72 89.8093L953.72 98.6984L944.113 98.6984ZM944.113 139.93L944.113 103.622L953.72 103.622L953.72 139.93L944.113 139.93ZM961.379 121.263C961.379 118.072 962.165 114.984 963.738 111.998C965.31 109.012 967.533 106.733 970.404 105.16C973.299 103.587 976.524 102.801 980.08 102.801C985.573 102.801 990.074 104.59 993.584 108.169C997.094 111.724 998.849 116.226 998.849 121.673C998.849 127.166 997.072 131.725 993.516 135.349C989.983 138.95 985.527 140.75 980.148 140.75C976.82 140.75 973.641 139.998 970.61 138.494C967.601 136.99 965.31 134.79 963.738 131.896C962.165 128.978 961.379 125.434 961.379 121.263ZM971.225 121.776C971.225 125.377 972.08 128.135 973.789 130.049C975.499 131.964 977.607 132.921 980.114 132.921C982.621 132.921 984.718 131.964 986.405 130.049C988.114 128.135 988.969 125.354 988.969 121.707C988.969 118.152 988.114 115.417 986.405 113.502C984.718 111.587 982.621 110.63 980.114 110.63C977.607 110.63 975.499 111.587 973.789 113.502C972.08 115.417 971.225 118.175 971.225 121.776ZM1039.43 139.93L1029.82 139.93L1029.82 121.4C1029.82 117.479 1029.62 114.949 1029.21 113.81C1028.8 112.647 1028.13 111.747 1027.19 111.109C1026.28 110.471 1025.17 110.152 1023.88 110.152C1022.21 110.152 1020.72 110.607 1019.4 111.519C1018.07 112.431 1017.16 113.639 1016.66 115.143C1016.18 116.647 1015.94 119.428 1015.94 123.485L1015.94 139.93L1006.34 139.93L1006.34 103.622L1015.26 103.622L1015.26 108.955C1018.43 104.852 1022.42 102.801 1027.23 102.801C1029.35 102.801 1031.28 103.188 1033.04 103.963C1034.79 104.716 1036.11 105.684 1037 106.869C1037.92 108.055 1038.54 109.399 1038.88 110.904C1039.25 112.408 1039.43 114.562 1039.43 117.365L1039.43 139.93Z"
                fill="#264CA4" />
        </g>
    </g>
</svg>