<svg version="1.1" xmlns="http://www.w3.org/2000/svg" x="0" y="0" viewBox="0 0 168.9 117.5" style="enable-background:new 0 0 168.9 117.5" xml:space="preserve">
<style>.st0{fill:#231f20}</style>
<path class="st0" d="M58.9 76.5c0 1.3-.8 1.7-1.5 1.7-.9 0-1.3-.6-1.3-1.5v-5.2h-1.2v5.7c0 1.3.7 1.9 2 1.9.8 0 1.5-.4 1.9-1.1v.9h1.3c0-.5-.1-1-.1-1.6v-6h-1.2v5.2m8.8 2.6v-5.2c0-1.5-.4-2.5-2-2.5-1 0-1.5.3-2 1.1h-.1v-1h-1.3c0 .5.1 1 .1 1.6v6h1.2v-4.5c0-1 .2-2.2 1.5-2.2 1 0 1.3.7 1.3 1.5v5.2h1.3m6.1-4.1c0 1.5 0 3.2-1.4 3.2-1.5 0-1.5-1.6-1.5-2.8 0-2 .2-3.1 1.5-3.1 1.3.1 1.4 1.7 1.4 2.7zm0-2.7c-.5-.6-1-.9-1.7-.9-2.4 0-2.5 2.2-2.5 4 0 3.3 1.2 3.8 2.4 3.8.8 0 1.3-.3 1.7-1v.9h1.2V68.3h-1.2l.1 4m7.7 6.8v-4.9h3.8V73h-3.8v-3.5h4v-1.2H80v10.8h1.4m7.7-.9c-1.3 0-1.6-.9-1.6-3.3 0-2.1.6-2.5 1.6-2.5.9 0 1.6.4 1.6 2.5 0 2.5-.3 3.3-1.6 3.3zm0 1c1.6 0 2.9-.5 2.9-3.8 0-2.2-.3-4-2.9-4s-2.9 1.8-2.9 4c.1 3.4 1.3 3.8 2.9 3.8m6-7.7h-1.2V79h1.2v-4.4c0-1 .3-2 1.7-2 .2 0 .4 0 .7.1v-1.3c-1.2 0-1.8.1-2.3 1.3v-1.2m8.4 5.4c0-2.3-3.8-2.3-3.8-3.6 0-.7.5-1 1.2-1 .8 0 1.2.4 1.2 1.2h1.4c.1-1.5-1-2.1-2.4-2.1-2.1 0-2.6 1.3-2.6 2.1 0 2.3 3.8 2.3 3.8 3.6 0 .8-.6 1.2-1.3 1.2-1.2 0-1.3-1-1.3-1.4h-1.4c0 1.7 1 2.4 2.6 2.4 1.5-.1 2.6-.7 2.6-2.4m6.8-2.9c.1-1.7-.8-2.6-2.3-2.6-2.6 0-2.9 1.8-2.9 4 0 3.3 1.3 3.8 2.9 3.8.8 0 2.4-.5 2.4-2.7h-1.3c0 1.4-.8 1.7-1.1 1.7-1.3 0-1.6-.9-1.6-3.3 0-2.1.6-2.5 1.6-2.5.5 0 1.1.3 1 1.6h1.3m7.3 5.1v-5.3c0-1.7-.7-2.3-2-2.3-1 0-1.6.2-2 1.1h-.1v-4.2h-1.2v10.8h1.2v-4.4c0-1.3.3-2.3 1.5-2.3 1 0 1.3.7 1.3 1.6v5.1l1.3-.1m6.2-2.6c0 1.3-.8 1.7-1.5 1.7-.9 0-1.3-.6-1.3-1.5v-5.2h-1.2v5.7c0 1.3.7 1.9 2 1.9.8 0 1.5-.4 1.9-1.1v.9h1.3c0-.5-.1-1-.1-1.6v-6h-1.2l.1 5.2m8.8 2.6v-5.2c0-1.5-.4-2.5-2-2.5-1 0-1.5.3-2 1.1h-.1v-1h-1.3c0 .5.1 1 .1 1.6v6h1.2v-4.5c0-1 .2-2.2 1.5-2.2 1 0 1.3.7 1.3 1.5v5.2h1.3m6-3.8c0 1 0 2.8-1.4 2.8-.9 0-1.5-.6-1.5-3 0-1 0-2.7 1.4-2.7 1.6 0 1.5 1.8 1.5 2.9zm0-2.8a2 2 0 0 0-1.8-1.1c-.6 0-2.4.2-2.4 3.7 0 2.2.4 4 2.4 4 .7 0 1.3-.3 1.7-.9v1.6c0 .8-.5 1.3-1.3 1.3-.7 0-1.1-.4-1.1-1.1h-1.4c-.1 1.4 1 2 2.3 2 1.7 0 2.8-.4 2.8-2.1v-8.3h-1.2v.9m-84.3-17v.9h1.2V63h1.2v-6.6h1.5v-.9h-1.5v-1.3c0-.6.2-1.2 1.5-1.1v-.9h-.6c-1.1 0-2.2.3-2.2 1.8v1.5h-1.1m7.1-2.8h-1.4v1.6h1.4v-1.6zm2.6 0h-1.4v1.6h1.4v-1.6zm-.6 7.8c0 1.3-.8 1.7-1.5 1.7-.9 0-1.3-.6-1.3-1.5v-5.2h-1.2v5.7c0 1.3.7 1.9 2 1.9.8 0 1.5-.4 1.9-1.1v.9h1.3c0-.5-.1-1-.1-1.6v-6h-1.2l.1 5.2m4.7-5H67V63h1.2v-4.4c0-1 .3-2 1.7-2 .2 0 .4 0 .7.1v-1.3c-1.2 0-1.8.1-2.3 1.3v-1.2m7.3 2.5h1.5c1.4 0 2.5.3 2.5 2 0 .8-.5 1.8-2 1.8h-1.9V58zm0-4.5h1.9c1.1 0 1.7.7 1.7 1.6 0 1-.5 1.7-1.6 1.7h-2v-3.3zm2.1 9.6c1.2 0 3.2-.3 3.2-3 0-1.5-.7-2.4-2.2-2.6v-.1c1.4-.3 1.9-1.2 1.9-2.6 0-.2-.1-.8-.4-1.4-.4-.6-.9-1.1-2.4-1.1h-3.5v10.8h3.4m6.5-7.6H83V63h1.2v-7.5zm-1.3-1.9h1.4v-1.3h-1.4v1.3m4.7-1.3h-1.2v10.8h1.2V52.3m6.1 6.7c0 1.5 0 3.2-1.4 3.2-1.5 0-1.5-1.6-1.5-2.8 0-2 .2-3.1 1.5-3.1 1.4.1 1.4 1.7 1.4 2.7zm0-2.7c-.5-.6-1-.9-1.7-.9-2.4 0-2.5 2.2-2.5 4 0 3.3 1.2 3.8 2.4 3.8.8 0 1.3-.3 1.7-1v.9H95V52.3h-1.2v4m7.4 4.2c0 1.3-.8 1.7-1.5 1.7-.9 0-1.3-.6-1.3-1.5v-5.2h-1.2v5.7c0 1.3.7 1.9 2 1.9.8 0 1.5-.4 1.9-1.1v.9h1.3c0-.5-.1-1-.1-1.6v-6h-1.2v5.2m8.9 2.6v-5.2c0-1.5-.4-2.5-2-2.5-1 0-1.5.3-2 1.1h-.1v-1h-1.3c0 .5.1 1 .1 1.6v6h1.2v-4.5c0-1 .2-2.2 1.5-2.2 1 0 1.3.7 1.3 1.5v5.2h1.3m6-3.8c0 1 0 2.8-1.4 2.8-.9 0-1.5-.6-1.5-3 0-1 0-2.7 1.4-2.7 1.6 0 1.5 1.8 1.5 2.9zm0-2.8a2 2 0 0 0-1.8-1.1c-.6 0-2.4.2-2.4 3.7 0 2.2.4 4 2.4 4 .7 0 1.3-.3 1.7-.9v1.6c0 .8-.5 1.3-1.3 1.3-.7 0-1.1-.4-1.2-1.1H112c-.1 1.4 1 2 2.3 2 1.7 0 2.8-.4 2.8-2.1v-8.3H116v.9M56.3 42h1.5c1.4 0 2.5.3 2.5 2 0 .8-.5 1.8-2 1.8h-1.9V42zm0-4.5h1.9c1.1 0 1.7.7 1.7 1.6 0 1-.5 1.7-1.6 1.7h-2v-3.3zm2.1 9.6c1.2 0 3.2-.3 3.2-3 0-1.5-.7-2.4-2.2-2.6v-.1c1.4-.3 1.9-1.2 1.9-2.6 0-.2-.1-.8-.4-1.4-.4-.6-.9-1.1-2.4-1.1H55v10.8h3.4m9-2.6c0 1.3-.8 1.7-1.5 1.7-.9 0-1.3-.6-1.3-1.5v-5.2h-1.2v5.7c0 1.3.7 1.9 2 1.9.8 0 1.5-.4 1.9-1.1v.9h1.3c0-.5-.1-1-.1-1.6v-6h-1.2v5.2m8.9 2.6v-5.2c0-1.5-.4-2.5-2-2.5-1 0-1.5.3-2 1.1h-.1v-1h-1.3c0 .5.1 1 .1 1.6v6h1.2v-4.5c0-1 .2-2.2 1.5-2.2 1 0 1.3.7 1.3 1.5v5.2h1.3m6-4.1c0 1.5 0 3.2-1.4 3.2-1.5 0-1.5-1.6-1.5-2.8 0-2 .2-3.1 1.5-3.1 1.3.1 1.4 1.7 1.4 2.7zm0-2.7c-.5-.6-1-.9-1.7-.9-2.4 0-2.5 2.2-2.5 4 0 3.3 1.2 3.8 2.4 3.8.8 0 1.3-.3 1.7-1v.9h1.2V36.3h-1.2l.1 4m4.4 2.5c0-2.1.7-2.5 1.4-2.5.9 0 1.5.3 1.5 2.5h-2.9zm4.2.9v-.6c0-2.5-.5-3.7-2.7-3.7-2.6 0-2.9 1.8-2.9 4 0 3.3 1.3 3.8 2.9 3.8 1.6 0 2.6-.8 2.6-2.4h-1.3c0 .8-.5 1.4-1.3 1.4-1 0-1.5-.4-1.5-2.5h4.2m6.8 1.2c0-2.3-3.8-2.3-3.8-3.6 0-.7.5-1 1.2-1 .8 0 1.2.4 1.2 1.2h1.4c.1-1.5-1-2.1-2.4-2.1-2.1 0-2.6 1.3-2.6 2.1 0 2.3 3.8 2.3 3.8 3.6 0 .8-.6 1.2-1.3 1.2-1.2 0-1.3-1-1.3-1.4h-1.4c0 1.7 1 2.4 2.6 2.4 1.4-.1 2.6-.7 2.6-2.4m6.8 2.2V42c0-.3.1-1 .4-1.3.3-.3.5-.3.9-.3 1 0 1.2.7 1.2 1.5v5.2h1.2v-5.7c0-1.8-1.3-2-2.1-2-.7 0-1.4.2-1.8 1-.3-.7-1.1-1-1.8-1-.9 0-1.5.3-1.9 1.1v-.9h-1.3c0 .5.1 1 .1 1.6v6h1.2V42c0-.3.1-.7.3-1.1.2-.3.7-.5 1.1-.5 1 0 1.2.7 1.2 1.5v5.2h1.3m7.2-7.6h-1.2V47h1.2v-7.5zm-1.3-1.9h1.4v-1.3h-1.4v1.3m8.8 9.5v-5.2c0-1.5-.4-2.5-2-2.5-1 0-1.5.3-2 1.1h-.1v-1h-1.3c0 .5.1 1 .1 1.6v6h1.2v-4.5c0-1 .2-2.2 1.5-2.2 1 0 1.3.7 1.3 1.5v5.2h1.3m3.4-7.6h-1.2V47h1.2v-7.5zm-1.3-1.9h1.4v-1.3h-1.4v1.3m8.2 7.3c0-2.3-3.8-2.3-3.8-3.6 0-.7.5-1 1.2-1 .8 0 1.2.4 1.2 1.2h1.4c.1-1.5-1-2.1-2.4-2.1-2.1 0-2.6 1.3-2.6 2.1 0 2.3 3.8 2.3 3.8 3.6 0 .8-.6 1.2-1.3 1.2-1.2 0-1.3-1-1.3-1.4h-1.4c0 1.7 1 2.4 2.6 2.4 1.5-.1 2.6-.7 2.6-2.4m.9-5.4v.9h1.2v5.4c0 .9.5 1.3 1.7 1.3.4 0 .8-.1 1.2-.1v-.9c-.3 0-.5.1-.6.1-1.1 0-1.1-.6-1.1-1.1v-4.6h1.6v-.9h-1.6v-2l-1.2.6v1.4l-1.2-.1m6.4 3.3c0-2.1.7-2.5 1.4-2.5.9 0 1.5.3 1.5 2.5h-2.9zm4.3.9v-.6c0-2.5-.5-3.7-2.7-3.7-2.6 0-2.9 1.8-2.9 4 0 3.3 1.3 3.8 2.9 3.8 1.6 0 2.6-.8 2.6-2.4h-1.3c0 .8-.5 1.4-1.3 1.4-1 0-1.5-.4-1.5-2.5h4.2m3-4.2h-1.2V47h1.2v-4.4c0-1 .3-2 1.7-2 .2 0 .4 0 .7.1v-1.3c-1.2 0-1.8.1-2.3 1.3l-.1-1.2m4.9 0h-1.2V47h1.2v-7.5zm-1.3-1.9h1.4v-1.3h-1.4v1.3m7.4 6.9c0 1.3-.8 1.7-1.5 1.7-.9 0-1.3-.6-1.3-1.5v-5.2H151v5.7c0 1.3.7 1.9 2 1.9.8 0 1.5-.4 1.9-1.1v.9h1.3c0-.5-.1-1-.1-1.6v-6H155v5.2m8.4 2.6V42c0-.3.1-1 .4-1.3.3-.3.5-.3.9-.3 1 0 1.2.7 1.2 1.5v5.2h1.2v-5.7c0-1.8-1.3-2-2.1-2-.7 0-1.4.2-1.8 1-.3-.7-1.1-1-1.8-1-.9 0-1.5.3-1.9 1.1v-.9h-1.3c0 .5.1 1 .1 1.6v6h1.2V42c0-.3.1-.7.3-1.1.2-.3.7-.5 1.1-.5 1 0 1.2.7 1.2 1.5v5.2h1.3"/>
<path d="M40.8 89.8h4.7v26.7h-4.7V89.8" style="fill:#f2cf04"/>
<path d="M40.8 63h4.7v26.8h-4.7V63" style="fill:#ed1c24"/>
<path class="st0" d="M40.8 36.4h4.7v26.7h-4.7V36.4zM26 40.9c0-1.5-1.1-2.7-1.5-3.1l-.3.1c.4.5 1.1 1.3 1.1 2.5 0 2.2-2.3 4.1-5 4.2v.6c0 .3 0 .6-.1.9 3.2-.1 5.8-2.5 5.8-5.2zm-4.1 18.3c-1.3 0-1.6-.1-1.9-.1-.2 0-.4 0-.4.3 0 .2.2.5.5.7.3-.3.7-.4 1.4-.4.3 0 .7.1.9.1 0 .2-.1.4-.1.8v.6c0 .8-.1 1.2-.4 1.5.1 0 .2.1.3.1.5 0 .6-.3.6-1.5v-.8c.7.5 1.4 1.5 1.4 2.1.2-.1.5-.5.5-.7 0-.5-.8-1.1-1.6-2 .1 0 .4-.1.7-.1.6 0 1.2.1 1.5.5.1-.1.2-.5.2-.7 0-.4-.2-.4-.4-.4-.7 0-1.5.1-2.1.2-.2-.3-1.6-2.2-2-3.2-.1 0-.2-.1-.4-.1-.3 0-.4.2-.5.6.8.7 1.5 1.7 1.8 2.5zm-7.7-2.7c-.1-.3-.2-.6-.5-.6-.2 0-.3 0-.4.1-.4 1-1.8 2.9-2 3.2-.6-.1-1.4-.2-2.1-.2-.2 0-.4 0-.4.4 0 .2.1.6.2.7.3-.4.8-.5 1.5-.5.3 0 .6.1.7.1-.8.8-1.6 1.5-1.6 2 0 .3.3.6.5.7 0-.7.7-1.6 1.4-2.1v.8c0 1.3.1 1.5.6 1.5.1 0 .2 0 .3-.1-.3-.3-.4-.7-.4-1.5v-.6c0-.3 0-.6-.1-.8.2 0 .6-.1.9-.1.7 0 1.1.1 1.4.4.2-.2.5-.5.5-.7 0-.3-.2-.3-.4-.3-.3 0-.6.1-1.9.1.3-.6 1-1.6 1.8-2.5zM8.9 40.4c0-1.1.7-2 1.1-2.5l-.3-.1c-.4.3-1.5 1.5-1.5 3.1 0 2.7 2.7 5.1 5.7 5.1 0-.3-.1-.6-.1-.9v-.6c-2.5.1-4.9-1.9-4.9-4.1zm8.2-2c.1-.3.3-.7.3-1.1 0-1.2-1-1.7-2.2-1.7-.7 0-1 .2-1 .4s.2.7.3.8c.2-.1.7-.2.9-.2.9 0 1.5.9 1.7 1.8zm.6-1.5c.7.1 1.3-.8.5-1 .1.3-.4.5-.4.5s-.2-.4.1-.7c-.4-.2-.5 0-.6.3.2.3.4.6.4.9zm2.4 6.5h.4c2.1 0 4.2-1.4 4.2-3.1 0-.9-.4-1.6-.9-2.3-.3 0-.5.1-.8.1-1 0-1.5-.5-1.5-1s.4-.8.9-.8c.9 0 2.5.8 4.1.8-.2.1-.4.2-.7.4.9.9 1.6 2 1.8 3.2l2.5 4c.4.7 1.3 2 2.6 3-1.6 0-2.7 0-4-2.1l-1.3-2c-.1.3-.2.5-.3.8l2.5 4.1c.4.7 1.3 2 2.6 3-1.6 0-2.7 0-4-2.1L26 45.8l-.5.5 3.1 4.9c.4.7 1.3 2 2.6 3-1.6 0-2.7 0-4-2.1l-3-4.8c-.2.1-.4.2-.6.4l3.7 5.9c.4.7 1.3 2 2.6 3-1.6 0-2.7 0-4-2.1L22 48.4c-.2.1-.5.2-.7.2l4.3 6.8c.4.7 1.3 2 2.6 3-1.6 0-2.7 0-4-2.1L19.6 49h-.1c-.1.4-.2.8-.2 1.1 0 2.3 1.5 4.3 3.3 5.9-.1 0-.3.1-.5.1-.4 0-.6 0-.8-.1.4 1 1.3 2.2 1.8 2.8.6-.1 1.5-.2 2-.2.6 0 .7.3.7.7 0 .5-.3 1-.5 1.2-.1-.3-.3-.6-1.4-.6h-.1c.3.4 1.3 1.2 1.3 1.8 0 .4-.5 1.1-1.1 1.1v-.4c0-.5-.5-1.1-.9-1.6v.3c0 1.2-.1 1.8-.9 1.8-.4 0-.7-.2-.7-.3.5-.5.5-.8.5-1.5V60h-.6s-1.1-.1-1.4.5c-.3-.3-.7-.7-.7-1.1 0-.3.1-.6.7-.6.2 0 .9.1 1.5.1-.2-.3-.8-1.3-1.4-2.1-.1.3-.3.6-.5.8 0-.5-.3-2-1.1-2.8-.1.6-.2 1.2-.2 2.5 0 3.1.7 5.4 2.3 5.8-.2.4-.6.7-1.1.7-.6 0-.9-.7-1.2-1.3-.2.5-.6 1.6-1.1 1.6-.5 0-.9-1.1-1.1-1.6-.3.6-.6 1.3-1.2 1.3-.4 0-.9-.3-1.1-.7 1.6-.4 2.3-2.7 2.3-5.8 0-1.3-.1-1.9-.2-2.5-.7.9-1 2.3-1.1 2.8-.3-.2-.5-.5-.5-.8-.6.7-1.3 1.7-1.4 2.1.6 0 1.3-.1 1.5-.1.6 0 .7.3.7.6 0 .4-.4.8-.7 1.1-.4-.6-1.5-.5-1.5-.5h-.6v1.1c0 .7 0 1.1.5 1.5-.1.1-.4.3-.7.3-.8 0-.9-.6-.9-1.8v-.3c-.4.4-.9 1-.9 1.6v.4c-.6 0-1.1-.6-1.1-1.1 0-.6 1-1.5 1.3-1.8h-.1c-1.1 0-1.3.4-1.4.6-.3-.2-.5-.7-.5-1.2 0-.3.1-.7.7-.7s1.4.1 2 .2A15 15 0 0 0 13 56c-.3 0-.5.1-.8.1-.2 0-.4 0-.5-.1 1.8-1.6 3.3-3.6 3.3-5.9 0-.4-.1-.7-.2-1.1h-.1l-4.6 7.3c-1.4 2.2-2.4 2.1-4 2.1 1.3-1 2.2-2.3 2.6-3l4.3-6.8c-.2-.1-.5-.2-.7-.2l-3.8 6.1c-1.4 2.2-2.4 2.1-4 2.1 1.3-1 2.2-2.3 2.6-3l3.7-5.9c-.2-.1-.4-.2-.6-.4l-3 4.8c-1.4 2.2-2.4 2.1-4 2.1 1.3-1 2.2-2.3 2.6-3l3.1-4.9c-.2-.2-.4-.3-.5-.5l-2.2 3.5c-1.4 2.2-2.4 2.1-4 2.1 1.3-1 2.2-2.3 2.6-3l2.5-4.1c-.1-.2-.3-.5-.3-.8l-1.3 2c-1.4 2.2-2.4 2.1-4 2.1 1.3-1 2.2-2.3 2.6-3l2.5-4c.2-1.2.9-2.4 1.8-3.2-.3-.1-.6-.2-.7-.4 1.6 0 3.2-.8 4.1-.8.6 0 .9.3.9.8s-.6 1-1.5 1c-.3 0-.5 0-.8-.1-.5.7-.9 1.4-.9 2.3 0 1.7 2.1 3.1 4.2 3.1h.4c.4-1.4 1.3-2.3 2-3.3-.9-.3-1.8-1.1-1.8-1.5.1-.1 1.7.5 1.9.5h.1c.2-.1.4-.4.4-.4a13 13 0 0 1-1.9-.4c-.5-.2-.8-.5-.8-.7.2 0 .8.3 1.8.3.4 0 .4 0 .8-.1-.2-.6-.7-1.1-1.2-1.1-.2 0-.7.1-1 .3-.3-.4-.5-1-.5-1.3 0-.3.3-.8 1.3-.8.3 0 .5 0 .8.1.2 0 .4.1.5.1v-.1c0-.1.1-.3.6-.3.8 0 1.6.3 2.6.3.3 0 .4 0 .6-.1-.1.2-.3.5-.6.7.2.2.6.7.6 1.6 0 1.4-.9 2.5-.9 3.9-.3 1.3.3 2 .5 2.4M58.2 4.8c0-.8-.3-1.2-1.2-1.2-.3 0-1.2 0-1.2 1.5v2.3c0 1.5.4 1.8 1.2 1.8.6 0 1-.2 1.2-.3v-2H57v-.8h2v3.3c-.6.3-1.3.5-2.1.5-1.4 0-2.1-.7-2.1-2.6V5.1c0-1.3.7-2.2 2.1-2.2 1.5 0 2.1.5 2.1 1.9h-.8m2.4 5V3h3.5v.7h-2.6v2.2h2.4v.7h-2.4V9h2.7v.7l-3.6.1m4.6 0V3h3.3v.7H66v2.2h2.4v.7H66v3.1l-.8.1m4.2-2.5V5.1c0-1.3.7-2.2 2.1-2.2 1.4 0 2.1.9 2.1 2.2v2.2c0 1.9-.7 2.6-2.1 2.6-1.4 0-2.1-.7-2.1-2.6zm1.8-5.1h-.9v-1h.9v1zm1.6 5.1V5.1c0-1.4-1-1.5-1.2-1.5-.3 0-1.2 0-1.2 1.5v2.3c0 1.5.4 1.8 1.2 1.8.7 0 1.2-.4 1.2-1.9zm0-5.1h-.9v-1h.9v1M76 6.7v3.1h-.9V3h2.3c1.2 0 1.6.8 1.6 1.7 0 .8-.4 1.4-1.2 1.5.8.1 1.1.4 1.1 1.7 0 .3.1 1.3.2 1.8h-.9c-.2-.4-.1-1.3-.2-2.2-.1-.8-.7-.9-1-.9h-1zm0-.8h1.3c.6 0 .9-.5.9-1.1 0-.5-.2-1-.9-1H76v2.1M80.4 3h2.1c.9 0 1.5.3 1.8 1 .3.6.3 1.9.3 2.1 0 1.4-.1 2.3-.4 2.7-.4.6-1 .9-2.2.9h-1.5V3zm.8 6h.8c1.2 0 1.6-.4 1.6-2V5.6c0-1.4-.4-1.9-1.3-1.9h-1.1V9m4.8.8V3h3.5v.7h-2.6v2.2h2.4v.7h-2.4V9h2.7v.7l-3.6.1m5.5-3.1v3.1h-.9V3H93c1.2 0 1.6.8 1.6 1.7 0 .8-.4 1.4-1.2 1.5.8.1 1.1.4 1.1 1.7 0 .3.1 1.3.2 1.8h-.9c-.2-.5-.2-1.3-.3-2.2-.1-.8-.7-.9-1-.9h-1zm0-.8h1.3c.6 0 .9-.5.9-1.1 0-.5-.2-1-.9-1h-1.3v2.1M99.7 3v.7h-1.8v6H97v-6h-1.8V3h4.5m5.3 6.8h-1L102 3h.9l1.5 5.9L106 3h.9L105 9.8m2.8-2.5V5.1c0-1.3.7-2.2 2.1-2.2 1.4 0 2.1.9 2.1 2.2v2.2c0 1.9-.7 2.6-2.1 2.6-1.4 0-2.1-.7-2.1-2.6zm3.4 0V5.1c0-1.4-1-1.5-1.2-1.5-.3 0-1.2 0-1.2 1.5v2.3c0 1.5.4 1.8 1.2 1.8.7 0 1.2-.4 1.2-1.9m3.1 2.5h-.8V3h1.4l1.7 5.7 1.7-5.7h1.4v6.7h-.9v-6l-1.9 6h-.8l-1.8-6v6.1"/>
</svg>