<svg xmlns="http://www.w3.org/2000/svg" viewBox="0 0 476.46 176.7">
    <defs>
        <style>
            .cls-4 {
                isolation: isolate
            }

            .cls-5 {
                fill: #181917
            }
        </style>
    </defs>
    <path id="Fill-12" d="M81.86 99.76 63.7 68.63 81.86 37.5h36.33l18.16 31.13-18.16 31.13H81.86"
        style="fill:#4e798e" />
    <path id="Fill-13" d="M18.16 62.67 0 31.54 18.16.41h36.33l18.16 31.13-18.16 31.13H18.16" style="fill:#91bdcb" />
    <path id="Fill-14" d="M18.16 136.84 0 105.72l18.16-31.13h36.33l18.16 31.13-18.16 31.12H18.16"
        style="fill:#274f66" />
    <g id="edu-sharing" class="cls-4">
        <g class="cls-4">
            <path
                d="M123.61 142.9a3.76 3.76 0 0 1-.8 2.64 2.85 2.85 0 0 1-2.19.85H99.55a14.38 14.38 0 0 0 .52 4 7.65 7.65 0 0 0 1.67 3.07 7.26 7.26 0 0 0 2.95 1.92 12.62 12.62 0 0 0 4.33.66 24.23 24.23 0 0 0 4.5-.37 29.7 29.7 0 0 0 3.36-.81q1.42-.45 2.35-.81a4.35 4.35 0 0 1 1.51-.37 1.15 1.15 0 0 1 .58.14 1 1 0 0 1 .39.49 3.25 3.25 0 0 1 .21 1q.06.64.06 1.61t0 1.46a9.24 9.24 0 0 1-.12 1 2.48 2.48 0 0 1-.23.72 2.68 2.68 0 0 1-.41.56 4.75 4.75 0 0 1-1.38.74 21.73 21.73 0 0 1-2.87.91 39.13 39.13 0 0 1-4 .78 33.24 33.24 0 0 1-4.81.33 25.46 25.46 0 0 1-8.09-1.16 14.41 14.41 0 0 1-5.8-3.53 14.69 14.69 0 0 1-3.47-6 28.05 28.05 0 0 1-1.14-8.46 26.88 26.88 0 0 1 1.2-8.32 17.45 17.45 0 0 1 3.49-6.29 15 15 0 0 1 5.57-3.94 19.16 19.16 0 0 1 7.39-1.36 19.37 19.37 0 0 1 7.43 1.28 13.4 13.4 0 0 1 5.06 3.55 14.33 14.33 0 0 1 2.91 5.38 23.4 23.4 0 0 1 .93 6.75v1.55Zm-9.47-2.79a10 10 0 0 0-1.65-6.46 6.38 6.38 0 0 0-5.49-2.35 7.07 7.07 0 0 0-3.24.7 6.64 6.64 0 0 0-2.29 1.88 8.58 8.58 0 0 0-1.4 2.79 13.87 13.87 0 0 0-.56 3.43h14.59ZM164.47 161.22a1.27 1.27 0 0 1-.19.72 1.42 1.42 0 0 1-.66.49 4.53 4.53 0 0 1-1.26.27q-.8.08-2 .08t-2-.08a4.74 4.74 0 0 1-1.26-.27 1.55 1.55 0 0 1-.7-.49 1.18 1.18 0 0 1-.21-.72v-3.84a22.25 22.25 0 0 1-5.61 4.46 14.71 14.71 0 0 1-13.19.06 12.76 12.76 0 0 1-4.46-4.13 17.91 17.91 0 0 1-2.5-6.07 33.42 33.42 0 0 1-.78-7.32 32.06 32.06 0 0 1 1-8.3 18.78 18.78 0 0 1 2.89-6.29 12.82 12.82 0 0 1 4.73-4 14.56 14.56 0 0 1 6.52-1.4 11.63 11.63 0 0 1 5.28 1.18 18.76 18.76 0 0 1 4.7 3.47V110.3a1.21 1.21 0 0 1 .21-.7 1.6 1.6 0 0 1 .78-.52 6.61 6.61 0 0 1 1.49-.33 24.17 24.17 0 0 1 4.73 0 6.27 6.27 0 0 1 1.47.33 1.74 1.74 0 0 1 .78.52 1.14 1.14 0 0 1 .23.7v50.91Zm-9.7-23.13a21.5 21.5 0 0 0-4-4 6.73 6.73 0 0 0-4-1.4 5.63 5.63 0 0 0-3.28 1 7 7 0 0 0-2.21 2.54 13.54 13.54 0 0 0-1.28 3.47 19.69 19.69 0 0 0-.41 4 25.21 25.21 0 0 0 .35 4.23 13.25 13.25 0 0 0 1.14 3.67 7 7 0 0 0 2.12 2.58 5.48 5.48 0 0 0 3.34 1 6.65 6.65 0 0 0 2-.29 7.46 7.46 0 0 0 1.94-1 13 13 0 0 0 2-1.73q1-1.07 2.29-2.62v-11.45ZM207.12 161.22a1.2 1.2 0 0 1-.19.68 1.42 1.42 0 0 1-.68.49 5.21 5.21 0 0 1-1.28.29 17.06 17.06 0 0 1-2 .1 17.89 17.89 0 0 1-2.08-.1 4.89 4.89 0 0 1-1.26-.29 1.41 1.41 0 0 1-.66-.49 1.19 1.19 0 0 1-.19-.68v-4a22 22 0 0 1-5.84 4.66 13.11 13.11 0 0 1-6.15 1.55 13.8 13.8 0 0 1-6-1.16 10.35 10.35 0 0 1-3.92-3.18 12.78 12.78 0 0 1-2.13-4.68 28.79 28.79 0 0 1-.64-6.62V126.6a1.12 1.12 0 0 1 .21-.68 1.58 1.58 0 0 1 .78-.48 7 7 0 0 1 1.51-.29q1-.1 2.35-.1a23.65 23.65 0 0 1 2.37.1 6.94 6.94 0 0 1 1.49.29 1.72 1.72 0 0 1 .8.48 1.06 1.06 0 0 1 .23.68v19.56a18.69 18.69 0 0 0 .35 4.15 7.24 7.24 0 0 0 1.07 2.46 4.9 4.9 0 0 0 1.82 1.59 5.61 5.61 0 0 0 2.58.56 6.39 6.39 0 0 0 3.74-1.36 22.39 22.39 0 0 0 4-4v-23a1.12 1.12 0 0 1 .21-.68 1.58 1.58 0 0 1 .78-.48 6.93 6.93 0 0 1 1.49-.29 28.74 28.74 0 0 1 4.73 0 6.58 6.58 0 0 1 1.47.29 1.72 1.72 0 0 1 .78.48 1.06 1.06 0 0 1 .23.68v34.61ZM234.09 143a8.05 8.05 0 0 1-.43 3.14 1.42 1.42 0 0 1-1.36.89h-16.14a1.44 1.44 0 0 1-1.4-.91 8.06 8.06 0 0 1-.43-3.12 7.77 7.77 0 0 1 .43-3.07 1.45 1.45 0 0 1 1.4-.89h16.14a1.55 1.55 0 0 1 .8.19 1.53 1.53 0 0 1 .56.66 3.89 3.89 0 0 1 .33 1.24 15.35 15.35 0 0 1 .1 1.87ZM265.63 151.44a11.66 11.66 0 0 1-1.11 5.2 10.35 10.35 0 0 1-3.12 3.76 14.06 14.06 0 0 1-4.77 2.27 22.5 22.5 0 0 1-6 .76 23.13 23.13 0 0 1-6.87-1 16.47 16.47 0 0 1-2.33-.91 5.74 5.74 0 0 1-1.36-.87 2.7 2.7 0 0 1-.66-1.28 10.72 10.72 0 0 1-.23-2.58 16.65 16.65 0 0 1 .08-1.8 4.61 4.61 0 0 1 .23-1.09 1 1 0 0 1 .39-.54 1.14 1.14 0 0 1 .58-.14 2.9 2.9 0 0 1 1.26.49q.83.49 2.08 1.07a22 22 0 0 0 2.89 1.09 12.81 12.81 0 0 0 3.74.5 9.19 9.19 0 0 0 2.35-.27 5.89 5.89 0 0 0 1.79-.78 3.29 3.29 0 0 0 1.15-1.28 4 4 0 0 0 .39-1.79 3 3 0 0 0-.72-2 6.42 6.42 0 0 0-1.9-1.46 22.15 22.15 0 0 0-2.68-1.16q-1.49-.54-3.07-1.2a28.16 28.16 0 0 1-3.07-1.51 11.69 11.69 0 0 1-2.68-2.1 9.52 9.52 0 0 1-1.9-3 11 11 0 0 1-.72-4.19 10.63 10.63 0 0 1 1-4.56 9.91 9.91 0 0 1 2.79-3.55 13.24 13.24 0 0 1 4.44-2.29 19.76 19.76 0 0 1 5.88-.81 21 21 0 0 1 3.16.23 23.16 23.16 0 0 1 2.78.58 13.36 13.36 0 0 1 2.1.76 7 7 0 0 1 1.22.7 1.93 1.93 0 0 1 .52.58 2.42 2.42 0 0 1 .23.7 15.3 15.3 0 0 1 .2 2.49c0 .59 0 1.27-.06 1.71a4.39 4.39 0 0 1-.2 1 .93.93 0 0 1-.37.52 1.06 1.06 0 0 1-.54.14 2.64 2.64 0 0 1-1.09-.41 19.67 19.67 0 0 0-1.84-.87 21.61 21.61 0 0 0-2.56-.87 12.34 12.34 0 0 0-3.32-.41 8.56 8.56 0 0 0-2.29.27 4.36 4.36 0 0 0-1.59.78 3.26 3.26 0 0 0-.93 1.18 3.45 3.45 0 0 0-.31 1.46 2.89 2.89 0 0 0 .74 2 6.74 6.74 0 0 0 1.94 1.44 21.94 21.94 0 0 0 2.73 1.2q1.54.54 3.11 1.18a28.55 28.55 0 0 1 3.1 1.49 11.79 11.79 0 0 1 2.74 2.1 9.69 9.69 0 0 1 1.94 3 10.37 10.37 0 0 1 .74 4.07ZM306 161.22a1.05 1.05 0 0 1-.23.68 1.7 1.7 0 0 1-.78.49 6.57 6.57 0 0 1-1.49.29q-1 .1-2.35.1t-2.39-.1a6.55 6.55 0 0 1-1.49-.29 1.7 1.7 0 0 1-.78-.49 1.05 1.05 0 0 1-.23-.68v-19.76a16.63 16.63 0 0 0-.37-4 7.81 7.81 0 0 0-1.07-2.46 4.76 4.76 0 0 0-1.8-1.59 5.63 5.63 0 0 0-2.58-.56 6.46 6.46 0 0 0-3.76 1.36 20.35 20.35 0 0 0-4 4v23a1.05 1.05 0 0 1-.23.68 1.71 1.71 0 0 1-.8.49 6.88 6.88 0 0 1-1.49.29q-.93.1-2.37.1a23.68 23.68 0 0 1-2.37-.1 6.87 6.87 0 0 1-1.49-.29 1.71 1.71 0 0 1-.8-.49 1.05 1.05 0 0 1-.23-.68v-51a1.14 1.14 0 0 1 .23-.7 1.73 1.73 0 0 1 .87-.51 6.61 6.61 0 0 1 1.49-.33 24.17 24.17 0 0 1 4.73 0 6.62 6.62 0 0 1 1.49.33 1.73 1.73 0 0 1 .8.52 1.14 1.14 0 0 1 .23.7v19.13a18.67 18.67 0 0 1 5.14-3.71 12.74 12.74 0 0 1 5.45-1.22 13.7 13.7 0 0 1 6 1.16 10.37 10.37 0 0 1 3.92 3.18 13.06 13.06 0 0 1 2.15 4.71 27.94 27.94 0 0 1 .6 6.53v21.23ZM345.11 161.33a1 1 0 0 1-.39.85 2.65 2.65 0 0 1-1.22.45 16.54 16.54 0 0 1-2.46.14 16.76 16.76 0 0 1-2.54-.14 2.18 2.18 0 0 1-1.13-.45 1.11 1.11 0 0 1-.33-.85v-2.75a15.75 15.75 0 0 1-4.87 3.57 14.15 14.15 0 0 1-6.07 1.28 17 17 0 0 1-5.06-.72 11.4 11.4 0 0 1-4-2.13 9.6 9.6 0 0 1-2.62-3.51 11.94 11.94 0 0 1-.93-4.89 11.07 11.07 0 0 1 1.18-5.26 9.62 9.62 0 0 1 3.53-3.69 17.57 17.57 0 0 1 5.84-2.15 41.71 41.71 0 0 1 8.11-.7h3.38v-2.09a11 11 0 0 0-.33-2.85 4.74 4.74 0 0 0-1.09-2 4.48 4.48 0 0 0-2-1.2 10.76 10.76 0 0 0-3.12-.39 16.05 16.05 0 0 0-4.37.54 25.08 25.08 0 0 0-3.4 1.2q-1.48.66-2.46 1.2a3.61 3.61 0 0 1-1.61.54 1.16 1.16 0 0 1-.76-.27 2 2 0 0 1-.54-.78 5.32 5.32 0 0 1-.33-1.24 10.42 10.42 0 0 1-.12-1.63 7.37 7.37 0 0 1 .19-1.9 2.93 2.93 0 0 1 .74-1.26 7.27 7.27 0 0 1 1.9-1.24 22.32 22.32 0 0 1 3.18-1.26 29.46 29.46 0 0 1 4-1 29.26 29.26 0 0 1 11.41.43 11.76 11.76 0 0 1 4.75 2.45 9.51 9.51 0 0 1 2.72 4.25 19.85 19.85 0 0 1 .85 6.17v23.28Zm-9.58-14.82h-3.73a20.05 20.05 0 0 0-4 .35 7.74 7.74 0 0 0-2.72 1 4.32 4.32 0 0 0-1.53 1.69 5.09 5.09 0 0 0-.48 2.27 4.36 4.36 0 0 0 1.38 3.42 5.5 5.5 0 0 0 3.82 1.24 7.16 7.16 0 0 0 3.78-1 15.72 15.72 0 0 0 3.51-3.07v-5.9ZM377.08 129.82q0 1.4-.08 2.29a7 7 0 0 1-.23 1.4 1.36 1.36 0 0 1-.41.7 1 1 0 0 1-.64.19 2.13 2.13 0 0 1-.7-.14l-.87-.29q-.49-.16-1.07-.29a5.62 5.62 0 0 0-1.28-.14 4.33 4.33 0 0 0-1.63.33 6.91 6.91 0 0 0-1.69 1 12.49 12.49 0 0 0-1.82 1.86 30.27 30.27 0 0 0-2 2.87v21.58a1.05 1.05 0 0 1-.23.68 1.71 1.71 0 0 1-.8.49 6.88 6.88 0 0 1-1.49.29q-.93.1-2.37.1a23.68 23.68 0 0 1-2.37-.1 6.87 6.87 0 0 1-1.49-.29 1.71 1.71 0 0 1-.8-.49 1.05 1.05 0 0 1-.23-.68V126.6a1.19 1.19 0 0 1 .19-.68 1.42 1.42 0 0 1 .7-.48 5.58 5.58 0 0 1 1.3-.29 17 17 0 0 1 2-.1 18 18 0 0 1 2.06.1 4.67 4.67 0 0 1 1.26.29 1.44 1.44 0 0 1 .64.48 1.2 1.2 0 0 1 .19.68v4.31a27.57 27.57 0 0 1 2.56-3.2 14.49 14.49 0 0 1 2.29-2 7.22 7.22 0 0 1 2.17-1 8.35 8.35 0 0 1 2.17-.29q.5 0 1.09.06a10.75 10.75 0 0 1 1.2.19 8 8 0 0 1 1.09.31 2.13 2.13 0 0 1 .68.37 1.19 1.19 0 0 1 .31.43 3.37 3.37 0 0 1 .17.64 9.61 9.61 0 0 1 .12 1.22l.01 2.18ZM393.61 114.88q0 3-1.2 4.08t-4.46 1.13q-3.3 0-4.44-1.09t-1.14-3.92q0-2.95 1.18-4.09t4.48-1.14q3.26 0 4.42 1.11t1.16 3.92Zm-.74 46.33a1.05 1.05 0 0 1-.23.68 1.71 1.71 0 0 1-.8.49 6.88 6.88 0 0 1-1.49.29q-.93.1-2.37.1a23.68 23.68 0 0 1-2.37-.1 6.87 6.87 0 0 1-1.49-.29 1.71 1.71 0 0 1-.8-.49 1.05 1.05 0 0 1-.23-.68v-34.53a1.06 1.06 0 0 1 .23-.68 1.84 1.84 0 0 1 .8-.5 6.67 6.67 0 0 1 1.49-.33 24 24 0 0 1 4.73 0 6.68 6.68 0 0 1 1.49.33 1.84 1.84 0 0 1 .8.5 1.06 1.06 0 0 1 .23.68v34.54ZM435.68 161.22a1.05 1.05 0 0 1-.23.68 1.7 1.7 0 0 1-.78.49 6.57 6.57 0 0 1-1.49.29q-1 .1-2.35.1t-2.39-.1a6.55 6.55 0 0 1-1.49-.29 1.7 1.7 0 0 1-.78-.49 1.05 1.05 0 0 1-.23-.68v-19.76a16.63 16.63 0 0 0-.37-4 7.81 7.81 0 0 0-1.07-2.46 4.76 4.76 0 0 0-1.8-1.59 5.63 5.63 0 0 0-2.58-.56 6.46 6.46 0 0 0-3.76 1.36 20.35 20.35 0 0 0-4 4v23a1.05 1.05 0 0 1-.23.68 1.71 1.71 0 0 1-.8.49 6.88 6.88 0 0 1-1.49.29q-.93.1-2.37.1a23.68 23.68 0 0 1-2.37-.1 6.87 6.87 0 0 1-1.49-.29 1.71 1.71 0 0 1-.8-.49 1.05 1.05 0 0 1-.23-.68V126.6a1.19 1.19 0 0 1 .19-.68 1.42 1.42 0 0 1 .7-.48 5.58 5.58 0 0 1 1.3-.29 17 17 0 0 1 2-.1 18 18 0 0 1 2.06.1 4.67 4.67 0 0 1 1.26.29 1.44 1.44 0 0 1 .64.48 1.2 1.2 0 0 1 .19.68v4a22 22 0 0 1 5.84-4.66 13.19 13.19 0 0 1 6.19-1.55 13.7 13.7 0 0 1 6 1.16 10.45 10.45 0 0 1 3.92 3.16 12.87 12.87 0 0 1 2.15 4.68 27.29 27.29 0 0 1 .66 6.44v21.38ZM476.46 129a6.72 6.72 0 0 1-.43 2.75 1.25 1.25 0 0 1-1 .89h-4.07a5.55 5.55 0 0 1 1.22 2.11 8.23 8.23 0 0 1 .37 2.46 13.51 13.51 0 0 1-1 5.37 10.68 10.68 0 0 1-2.89 4 12.77 12.77 0 0 1-4.54 2.45 19.69 19.69 0 0 1-5.92.83 12.19 12.19 0 0 1-3.18-.41 8 8 0 0 1-2.33-1 5.67 5.67 0 0 0-.83 1.2 3.27 3.27 0 0 0-.37 1.55 2.19 2.19 0 0 0 1 1.84 5 5 0 0 0 2.77.8l8.42.31a20.44 20.44 0 0 1 5.26.83 11.27 11.27 0 0 1 3.88 2 8.72 8.72 0 0 1 2.41 3.12 9.89 9.89 0 0 1 .83 4.15 10.74 10.74 0 0 1-1.12 4.83 11 11 0 0 1-3.38 3.94 17.46 17.46 0 0 1-5.65 2.64 29 29 0 0 1-7.94 1 35.16 35.16 0 0 1-7.55-.7 16.57 16.57 0 0 1-5.12-1.94 7.87 7.87 0 0 1-2.91-3 8 8 0 0 1-.91-3.78 8.9 8.9 0 0 1 .33-2.45 9.16 9.16 0 0 1 1-2.23 11.53 11.53 0 0 1 1.57-2 17 17 0 0 1 2.13-1.86 6.45 6.45 0 0 1-3.49-5.78 8.43 8.43 0 0 1 1-4.17 13.33 13.33 0 0 1 2.72-3.4 10.25 10.25 0 0 1-2.17-3.26 12.05 12.05 0 0 1-.82-4.73 13.12 13.12 0 0 1 1.07-5.41 11.45 11.45 0 0 1 3-4 13.12 13.12 0 0 1 4.54-2.52 18.44 18.44 0 0 1 5.82-.87 24.33 24.33 0 0 1 3.12.19 20.7 20.7 0 0 1 2.78.54h11a1.22 1.22 0 0 1 1.07.85 7.24 7.24 0 0 1 .31 2.86Zm-10.24 35.82a3 3 0 0 0-1.4-2.68 7.3 7.3 0 0 0-3.84-1l-6.95-.19a10.19 10.19 0 0 0-1.61 1.42 8.55 8.55 0 0 0-1 1.3 3.86 3.86 0 0 0-.49 1.2 6.16 6.16 0 0 0-.12 1.2 3.18 3.18 0 0 0 2 2.95 12.29 12.29 0 0 0 5.53 1 13.37 13.37 0 0 0 3.73-.45 7.19 7.19 0 0 0 2.44-1.18 4.23 4.23 0 0 0 1.32-1.65 4.85 4.85 0 0 0 .39-1.92Zm-2.29-27.63a5.39 5.39 0 0 0-5.94-5.9 6.13 6.13 0 0 0-2.52.49 5.05 5.05 0 0 0-1.8 1.32 5.44 5.44 0 0 0-1.07 1.9 7.63 7.63 0 0 0-.35 2.31 5.6 5.6 0 0 0 1.55 4.17 5.86 5.86 0 0 0 4.31 1.53 6.47 6.47 0 0 0 2.56-.47 5 5 0 0 0 1.8-1.28 5.56 5.56 0 0 0 1.09-1.88 6.8 6.8 0 0 0 .37-2.18Z"
                class="cls-5" />
        </g>
    </g>
</svg>