<?xml version="1.0" encoding="UTF-8"?>
<svg version="1.1" xmlns="http://www.w3.org/2000/svg" width="1772" height="1772">
<path d="M0 0 C584.76 0 1169.52 0 1772 0 C1772 584.76 1772 1169.52 1772 1772 C1187.24 1772 602.48 1772 0 1772 C0 1187.24 0 602.48 0 0 Z " fill="#FE6600" transform="translate(0,0)"/>
<path d="M0 0 C584.76 0 1169.52 0 1772 0 C1772 584.76 1772 1169.52 1772 1772 C1187.24 1772 602.48 1772 0 1772 C0 1187.24 0 602.48 0 0 Z M812 131 C811.17471802 131.09192627 810.34943604 131.18385254 809.49914551 131.27856445 C796.97600923 132.68085328 784.48103385 134.26355833 772 136 C770.76523926 136.17144531 769.53047852 136.34289062 768.25830078 136.51953125 C753.04942623 138.68186799 738.12153436 141.80301461 723.16162109 145.27392578 C720.25373473 145.94172918 717.34199804 146.58457987 714.42578125 147.21484375 C659.51294071 159.15066532 604.0556134 177.92053686 554.12255859 203.91308594 C551.60238244 205.20361093 549.06238193 206.4500642 546.51953125 207.6953125 C532.37853224 214.63673361 518.61657572 222.08228708 505 230 C504.20303711 230.45745605 503.40607422 230.91491211 502.58496094 231.38623047 C474.1018588 247.75769665 446.86423704 266.77242732 421 287 C419.86097352 287.8805919 418.72164244 288.76078993 417.58203125 289.640625 C409.76451695 295.69974298 402.20836592 302.01276451 394.74121094 308.49707031 C393.02746245 309.97629573 391.30156722 311.4397591 389.5703125 312.8984375 C374.75067277 325.40438612 360.91051022 338.92085086 347.22387695 352.64575195 C344.91147277 354.96358838 342.59367102 357.27593304 340.27539062 359.58789062 C338.77572043 361.08822064 337.27635994 362.5888603 335.77734375 364.08984375 C334.75845314 365.10569801 334.75845314 365.10569801 333.71897888 366.14207458 C329.81839114 370.0616203 326.09549537 374.08642209 322.48594666 378.27593994 C320.57443576 380.49375817 318.60044557 382.65161988 316.625 384.8125 C312.70622541 389.15564274 308.97860098 393.6238285 305.30078125 398.171875 C302.98418987 401.01943385 300.62026355 403.82203891 298.25 406.625 C292.50918288 413.50866498 287.07064463 420.60923118 281.68115234 427.77001953 C280.59439069 429.21156484 279.50382302 430.65025219 278.40869141 432.08544922 C261.47544965 454.2837807 245.93186473 477.80977098 232 502 C231.01338898 503.68901719 230.02639809 505.37781252 229.0390625 507.06640625 C222.1441628 518.92696502 215.67909286 530.98703797 209.43505859 543.20166016 C208.09099798 545.82255548 206.72893969 548.43328324 205.36328125 551.04296875 C184.3168654 591.68296214 168.52914017 635.04945175 156 679 C155.70834961 680.00401855 155.41669922 681.00803711 155.11621094 682.04248047 C148.56711751 704.61754438 143.41603412 727.63620853 139.82421875 750.86328125 C139.30630579 754.20893023 138.70661789 757.51794234 138.015625 760.83203125 C133.85020754 781.20761525 131.8745511 802.30664714 130 823 C129.89413574 824.15064941 129.78827148 825.30129883 129.67919922 826.48681641 C126.32564121 864.93846802 126.2238897 904.59148703 129.73095703 943.03320312 C129.98346605 945.81767642 130.19925608 948.60217442 130.40234375 951.390625 C133.25172154 988.60405903 139.10865504 1026.04972504 148.30615234 1062.21386719 C148.9748125 1064.89886003 149.6000153 1067.58953187 150.20703125 1070.2890625 C153.3970811 1084.43554194 157.55925171 1098.19985115 162 1112 C162.4366095 1113.36938684 162.87296193 1114.73885566 163.30908203 1116.10839844 C172.77277983 1145.75245057 183.68299645 1174.85356568 197 1203 C197.46647949 1203.99177246 197.93295898 1204.98354492 198.41357422 1206.00537109 C204.30593795 1218.50747917 210.33101958 1230.8925344 217 1243 C217.47308594 1243.87269531 217.94617188 1244.74539063 218.43359375 1245.64453125 C219.36905968 1247.36971063 220.3093282 1249.09229283 221.25390625 1250.8125 C222.66651693 1253.39122554 224.06770261 1255.97539634 225.46484375 1258.5625 C243.08254807 1291.0697822 264.23377827 1321.88968782 287 1351 C287.8805919 1352.13902648 288.76078993 1353.27835756 289.640625 1354.41796875 C295.68423435 1362.21578894 301.971422 1369.7637003 308.4453125 1377.20703125 C310.02356618 1379.02717809 311.59096504 1380.85619371 313.15625 1382.6875 C325.67495741 1397.30094657 338.94770166 1411.11584876 352.5703125 1424.70068359 C354.89701445 1427.02196315 357.21823828 1429.34862663 359.5390625 1431.67578125 C361.04394988 1433.18000867 362.54914697 1434.68392631 364.0546875 1436.1875 C364.73506073 1436.86989746 365.41543396 1437.55229492 366.11642456 1438.25537109 C370.03790166 1442.15797435 374.06288259 1445.88403386 378.2558136 1449.493927 C380.65749978 1451.56773901 382.98185755 1453.72196483 385.3125 1455.875 C390.71476571 1460.79624205 396.31305671 1465.4139906 402 1470 C403.18326549 1470.97407866 404.36550053 1471.94941 405.546875 1472.92578125 C416.11089512 1481.63072838 426.98855219 1489.87124536 438 1498 C438.73412109 1498.54624023 439.46824219 1499.09248047 440.22460938 1499.65527344 C467.00622696 1519.56384095 495.59795439 1537.23628998 525 1553 C525.82516113 1553.4434375 526.65032227 1553.886875 527.50048828 1554.34375 C605.56359525 1596.1088899 689.75978186 1624.0795741 787 1638 C788.19270508 1638.16773926 789.38541016 1638.33547852 790.61425781 1638.50830078 C797.72965905 1639.48863022 804.85302143 1640.28867481 812 1641 C813.30340332 1641.13535156 814.60680664 1641.27070312 815.94970703 1641.41015625 C867.73799181 1646.69540772 921.29508117 1645.84304102 972.96337891 1639.37353516 C975.8626002 1639.01690157 978.76339126 1638.69627689 981.66796875 1638.38671875 C1008.75883516 1635.39910149 1035.75157001 1630.16234367 1062.20947266 1623.67333984 C1064.87736883 1623.02959027 1067.55059066 1622.42366627 1070.23046875 1621.83203125 C1085.4270124 1618.44094663 1100.18833703 1613.7728381 1115 1609 C1116.21896973 1608.61183105 1117.43793945 1608.22366211 1118.69384766 1607.82373047 C1173.83190376 1590.2221075 1227.65646498 1566.27957608 1277 1536 C1278.49539307 1535.08468506 1278.49539307 1535.08468506 1280.02099609 1534.15087891 C1291.9178138 1526.84797419 1303.68248691 1519.40370269 1315.0859375 1511.34912109 C1317.1027982 1509.927543 1319.12885404 1508.51978719 1321.15625 1507.11328125 C1336.35482233 1496.53098392 1350.92003221 1485.20703785 1365.2265625 1473.453125 C1366.8432593 1472.12843071 1368.46808288 1470.8136704 1370.09375 1469.5 C1375.43054086 1465.18259616 1380.60007006 1460.73090167 1385.67578125 1456.109375 C1387.72042335 1454.25373343 1389.78784149 1452.43243624 1391.875 1450.625 C1402.97939764 1440.91156508 1413.48592707 1430.67208594 1423.90161133 1420.22875977 C1426.32194526 1417.8030337 1428.7476222 1415.38274202 1431.17382812 1412.96289062 C1432.73730012 1411.39875825 1434.30046212 1409.83431594 1435.86328125 1408.26953125 C1436.57696365 1407.55787308 1437.29064606 1406.8462149 1438.0259552 1406.11299133 C1442.01642082 1402.10406812 1445.8360773 1397.99853154 1449.52668762 1393.71142578 C1451.43304344 1391.49696906 1453.40354823 1389.34401142 1455.375 1387.1875 C1459.19597138 1382.94911157 1462.84247331 1378.60120897 1466.4296875 1374.1640625 C1468.35180461 1371.7871519 1470.29965269 1369.43324057 1472.2578125 1367.0859375 C1479.6123334 1358.25682594 1486.71767987 1349.29847376 1493.51123047 1340.03027344 C1494.50171812 1338.67951986 1495.49552569 1337.33119431 1496.49267578 1335.98535156 C1510.56887761 1316.98361611 1523.75898791 1297.2421958 1535.85009766 1276.91894531 C1536.92839988 1275.11948555 1538.02740272 1273.33514744 1539.13671875 1271.5546875 C1575.55193008 1212.7385526 1602.93691744 1145.41821575 1619.9375 1078.4375 C1620.14966156 1077.60572235 1620.36182312 1076.7739447 1620.58041382 1075.91696167 C1627.62324131 1048.21215324 1633.0380425 1020.30600451 1637 992 C1637.14018555 991.00259796 1637.14018555 991.00259796 1637.28320312 989.98504639 C1640.0255423 970.38027637 1641.96805955 950.77434328 1643 931 C1643.06305328 929.83920929 1643.06305328 929.83920929 1643.12738037 928.65496826 C1647.51433419 846.84863081 1639.53512354 765.09118612 1618 686 C1617.71979004 684.96472168 1617.43958008 683.92944336 1617.15087891 682.86279297 C1604.35916188 636.12764077 1586.26667093 591.47869009 1565 548 C1564.57364258 547.12005371 1564.14728516 546.24010742 1563.70800781 545.33349609 C1547.91218899 512.74600785 1528.90148303 481.55688921 1508 452 C1507.22785411 450.89844484 1506.455719 449.79688213 1505.68359375 448.6953125 C1499.04333944 439.26809014 1492.05877248 430.11631103 1485 421 C1484.27828613 420.06341553 1484.27828613 420.06341553 1483.54199219 419.10791016 C1477.99875564 411.91957152 1472.29474356 404.91079047 1466.34838867 398.05151367 C1463.24091958 394.46558254 1460.22098355 390.82596748 1457.25 387.125 C1454.07833928 383.21481178 1450.76879947 379.60950528 1447.1171875 376.14453125 C1445.28673379 374.29043699 1443.60619704 372.3957646 1441.91235352 370.41894531 C1437.88774518 365.8063315 1433.61809862 361.47389505 1429.28515625 357.15234375 C1428.47058456 356.33681534 1427.65601288 355.52128693 1426.8167572 354.68104553 C1425.10440807 352.96801992 1423.39081158 351.25624035 1421.67602539 349.5456543 C1419.06997985 346.94496448 1416.46931478 344.33898044 1413.86914062 341.73242188 C1412.19563301 340.05957514 1410.52181518 338.38703866 1408.84765625 336.71484375 C1408.0797023 335.94486557 1407.31174835 335.17488739 1406.52052307 334.38157654 C1401.83977278 329.72082986 1397.02562937 325.28588811 1392 321 C1390.89451429 320.04949889 1389.78904269 319.09898137 1388.68359375 318.1484375 C1387.60191531 317.22354556 1386.51987502 316.29907666 1385.4375 315.375 C1381.67996566 312.16593993 1377.93184318 308.94796405 1374.21875 305.6875 C1366.96565441 299.32487234 1359.62006839 293.20374523 1351.89355469 287.42089844 C1349.73713272 285.80274786 1347.59134302 284.17096757 1345.4453125 282.5390625 C1321.25288567 264.19759315 1296.19921067 247.34092509 1270 232 C1269.15856445 231.5064502 1268.31712891 231.01290039 1267.45019531 230.50439453 C1189.19406984 184.76816905 1102.51582732 153.01005689 992 135 C990.98030121 134.84757843 990.98030121 134.84757843 989.94000244 134.69207764 C931.68528111 126.04067075 870.56080408 124.39961425 812 131 Z " fill="#FE6601" transform="translate(0,0)"/>
<path d="M0 0 C1.96117767 0.00140488 1.96117767 0.00140488 3.9619751 0.00283813 C40.79455901 0.04951788 76.88244081 2.29014328 113.42834473 6.86651611 C115.85629187 7.16956292 118.28492974 7.46624307 120.71386719 7.76123047 C161.40947635 12.74772342 202.81178157 21.40578743 241.71533203 34.44116211 C244.51972149 35.35727865 247.33878933 36.2196279 250.16015625 37.08203125 C291.55515288 49.77168432 331.11365326 66.16715751 370 85.1875 C370.73444336 85.54376465 371.46888672 85.9000293 372.22558594 86.26708984 C394.51983753 97.08523013 415.95689913 109.29856172 437.00976562 122.33691406 C439.51631464 123.88815847 442.02901157 125.42817363 444.546875 126.9609375 C467.36685293 140.92548601 488.85254498 156.84051219 510 173.1875 C510.94238525 173.91501465 510.94238525 173.91501465 511.90380859 174.65722656 C519.88798734 180.83370699 527.68364255 187.19583327 535.34375 193.76953125 C537.04685578 195.22761474 538.75709274 196.67696852 540.46875 198.125 C547.32843536 203.94294847 554.03485102 209.89327932 560.60888672 216.03198242 C562.71772119 217.99901057 564.83510948 219.95549843 566.96704102 221.89746094 C574.69363706 228.94581333 582.17720309 236.20837462 589.55908203 243.61621094 C591.39110995 245.4536576 593.22850605 247.2856165 595.06640625 249.1171875 C600.38370275 254.4314811 605.64695845 259.73699077 610.52294922 265.46533203 C613.04135312 268.4016661 615.72118937 271.18657083 618.375 274 C623.04683901 278.99295284 627.49800315 284.09318757 631.7734375 289.43359375 C633.76706588 291.89939727 635.81026579 294.31341321 637.87866211 296.71655273 C644.39728793 304.3028545 650.45249483 312.20886786 656.48046875 320.1875 C657.84948237 321.98938939 659.23183908 323.77925403 660.625 325.5625 C666.84379327 333.53531188 672.70490617 341.72545689 678.48583984 350.01928711 C679.54487285 351.53577729 680.60804349 353.04938258 681.67431641 354.56079102 C715.7518118 402.93145391 743.86507563 455.5886933 766.375 510.25 C766.71216034 511.06676208 767.04932068 511.88352417 767.396698 512.72503662 C771.66953998 523.10277887 775.64841048 533.53999384 779.29766846 544.15286255 C780.21653623 546.81480021 781.15525306 549.46954711 782.09352112 552.12469482 C787.40628306 567.18492682 792.35122175 582.21510356 796.33496094 597.68994141 C796.99441848 600.16653856 797.70758756 602.6198835 798.4453125 605.07421875 C802.63635413 619.03242506 805.77554693 633.16753122 808.77651978 647.418396 C809.60329798 651.34187671 810.45817898 655.25736764 811.34375 659.16796875 C817.30367218 685.87368235 821.12459928 713.38342744 823.66015625 740.6171875 C823.9585949 743.75250846 824.28926611 746.88297736 824.62580872 750.01437378 C829.601314 797.48563383 829.68059773 847.69530005 824.2310791 895.12426758 C823.90349546 898.0491586 823.6111378 900.97729572 823.31706238 903.90571594 C822.40715092 912.95034512 821.38145623 921.97787084 820.26959229 930.99981689 C820.09116744 932.44769592 819.91402413 933.8957335 819.73822021 935.34393311 C816.66421022 960.62609697 811.67287168 985.36824259 806 1010.1875 C805.73897995 1011.33551086 805.73897995 1011.33551086 805.47268677 1012.50671387 C803.42651038 1021.48021398 801.20928943 1030.36896259 798.5625 1039.1875 C798.28857422 1040.11304688 798.01464844 1041.03859375 797.73242188 1041.9921875 C797.15003919 1043.95922833 796.56479138 1045.92542258 795.97705078 1047.89086914 C795.27739717 1050.25154448 794.58961767 1052.61575181 793.90966797 1054.98217773 C790.59120031 1066.51415812 786.8705312 1077.89234548 783 1089.25 C782.51244736 1090.68307999 782.51244736 1090.68307999 782.01504517 1092.14511108 C775.99385582 1109.78437018 769.31443463 1127.04853796 762 1144.1875 C761.53722656 1145.28368652 761.07445312 1146.37987305 760.59765625 1147.50927734 C756.16207511 1158.00842647 751.58317194 1168.39711347 746.37109375 1178.53515625 C744.41994416 1182.33248029 742.53587769 1186.16114282 740.66015625 1189.99609375 C733.21988088 1205.16774749 725.36847332 1219.92881079 716.65136719 1234.41845703 C715.07375394 1237.06382803 713.53429265 1239.72721005 712.0078125 1242.40234375 C698.53367229 1265.89277607 683.17774427 1288.47932714 667 1310.1875 C666.00220736 1311.54267668 665.00481639 1312.89814918 664.0078125 1314.25390625 C654.7735976 1326.7508671 644.97290024 1338.77234068 634.89135742 1350.59301758 C631.95444312 1354.039292 629.09017239 1357.53627245 626.25 1361.0625 C623.22890363 1364.77705088 620.09752347 1368.20740894 616.66015625 1371.53515625 C614.95615774 1373.23113594 613.38285917 1374.99239696 611.8125 1376.8125 C602.96876199 1387.05526931 593.58133926 1396.77149576 583.99853516 1406.31933594 C582.23351456 1408.0789348 580.47398867 1409.84390397 578.71484375 1411.609375 C573.52415531 1416.80311382 568.33181202 1421.92675551 562.73974609 1426.69287109 C559.79919658 1429.21911922 557.00697919 1431.90295951 554.1875 1434.5625 C549.21681045 1439.21389178 544.13778808 1443.6390005 538.8203125 1447.89453125 C536.2031062 1450.02237072 533.65489876 1452.20796803 531.11303711 1454.42407227 C523.33047898 1461.20087769 515.22429115 1467.4765527 506.98388672 1473.68408203 C505.18768579 1475.045269 503.40479293 1476.42106558 501.62890625 1477.80859375 C462.32816942 1508.47396269 419.19275285 1534.10389801 374.86865234 1556.72167969 C372.51825838 1557.922681 370.17365539 1559.1336096 367.83203125 1560.3515625 C323.06458823 1583.44397173 274.71950532 1601.2988251 226.19091797 1614.57910156 C223.17384251 1615.41691659 220.18407297 1616.34194758 217.1875 1617.25 C207.04893644 1620.13265355 196.70224158 1622.23384722 186.40283203 1624.45263672 C183.32762576 1625.11674713 180.25545091 1625.79326747 177.18359375 1626.47265625 C145.08260571 1633.47788101 112.6535564 1637.76880587 80 1641.1875 C78.77345703 1641.31640625 77.54691406 1641.4453125 76.28320312 1641.578125 C69.86198716 1642.23550726 63.4418211 1642.77900024 57 1643.1875 C56.13197754 1643.24389648 55.26395508 1643.30029297 54.36962891 1643.35839844 C-18.6526323 1647.78081813 -94.42458024 1643.3045467 -165.83496094 1626.90917969 C-168.9003366 1626.21022485 -171.96983588 1625.53370439 -175.04119873 1624.86172485 C-203.61318457 1618.60030642 -231.44871871 1610.63883828 -259.12400818 1601.18508911 C-263.25172884 1599.77593623 -267.38842204 1598.39939174 -271.53515625 1597.046875 C-319.46466542 1581.23187821 -366.05395943 1558.50682607 -409.35644531 1532.75097656 C-411.68317652 1531.37487879 -414.01999638 1530.02046972 -416.3671875 1528.6796875 C-442.40931919 1513.75405722 -467.15644719 1496.38338307 -491 1478.1875 C-492.10534548 1477.35009768 -493.21080972 1476.51285209 -494.31640625 1475.67578125 C-502.41459006 1469.51977957 -510.30601802 1463.12015884 -518.17529297 1456.67578125 C-519.77770072 1455.36881341 -521.39003018 1454.07402979 -523.00390625 1452.78125 C-529.25929847 1447.75508332 -535.15780842 1442.42552119 -541.01953125 1436.953125 C-543.26598689 1434.85839076 -545.54473428 1432.81420331 -547.875 1430.8125 C-559.55431005 1420.63481553 -570.54023478 1409.75086081 -581.5 1398.8125 C-582.1139563 1398.2011319 -582.7279126 1397.58976379 -583.36047363 1396.95986938 C-595.23423349 1385.12555658 -595.23423349 1385.12555658 -600.54980469 1378.8828125 C-602.9032005 1376.13163732 -605.39866992 1373.51505783 -607.875 1370.875 C-612.3337948 1366.08235085 -616.56120791 1361.16560172 -620.66015625 1356.05859375 C-622.85852463 1353.36109665 -625.1105405 1350.72443739 -627.39038086 1348.09619141 C-633.06011091 1341.55949459 -638.44262446 1334.87274524 -643.65332031 1327.96386719 C-645.1096125 1326.04291324 -646.58072547 1324.13398875 -648.0546875 1322.2265625 C-659.56320365 1307.31871512 -670.49232503 1292.12814323 -680.8125 1276.375 C-681.21092102 1275.76724731 -681.60934204 1275.15949463 -682.01983643 1274.5333252 C-689.2567282 1263.47560274 -696.25482901 1252.27789058 -702.9375 1240.875 C-703.56289673 1239.80971069 -703.56289673 1239.80971069 -704.20092773 1238.72290039 C-707.80398783 1232.56384076 -711.3192363 1226.35775531 -714.79296875 1220.125 C-716.23037937 1217.54818626 -717.69088494 1214.98722765 -719.17578125 1212.4375 C-725.2090052 1202.02234939 -730.41332809 1191.2737615 -735.50683594 1180.37255859 C-737.03503803 1177.11276061 -738.58280388 1173.86276019 -740.1328125 1170.61328125 C-752.22357661 1145.11622513 -762.6341141 1119.07206378 -771.87548828 1092.41259766 C-772.95964248 1089.3032453 -774.0673938 1086.20344153 -775.18359375 1083.10546875 C-779.15296645 1072.02395657 -782.59694769 1060.91414929 -785.578125 1049.52734375 C-786.46510821 1046.14404958 -787.40270452 1042.78721729 -788.421875 1039.44140625 C-793.7288578 1021.95419821 -797.33304655 1004.07512493 -801 986.1875 C-801.14264282 985.4968042 -801.28528564 984.8061084 -801.43225098 984.09448242 C-808.70003071 948.87618548 -813.48799657 913.08324789 -815.86639404 877.20187378 C-815.95545086 875.85916635 -816.04745072 874.51665089 -816.14239502 873.17434692 C-817.2860397 856.72160264 -817.245539 840.23419622 -817.25 823.75 C-817.25044186 823.0002314 -817.25088371 822.2504628 -817.25133896 821.47797394 C-817.25930764 795.61560124 -816.59257267 769.93676892 -814 744.1875 C-813.8691803 742.88020935 -813.8691803 742.88020935 -813.73571777 741.54650879 C-807.59063773 680.82693705 -795.39295414 621.08855209 -776 563.1875 C-775.63326172 562.07552246 -775.26652344 560.96354492 -774.88867188 559.81787109 C-759.98167517 514.69961329 -740.80680159 470.45858225 -717.57861328 429.01220703 C-715.8915429 425.99343123 -714.22429335 422.96420936 -712.55859375 419.93359375 C-705.85134541 407.77797609 -698.87892871 395.87533185 -691.32128906 384.22900391 C-690.10599257 382.35126754 -688.90511234 380.46543397 -687.7109375 378.57421875 C-664.94482963 342.60366556 -638.96174576 308.16327242 -610.265625 276.69921875 C-608.36211126 274.58894403 -606.48771535 272.45915531 -604.62109375 270.31640625 C-594.10014163 258.27706719 -582.85250341 246.93715323 -571.5625 235.625 C-570.95290436 235.01281616 -570.34330872 234.40063232 -569.71524048 233.76989746 C-557.94550184 221.96078986 -557.94550184 221.96078986 -551.69750977 216.63989258 C-548.94580174 214.28552597 -546.32831552 211.78954079 -543.6875 209.3125 C-538.89004372 204.84923293 -533.96837627 200.61775571 -528.85546875 196.515625 C-526.22788515 194.37329965 -523.66584482 192.17596249 -521.11083984 189.94873047 C-513.32695087 183.1720395 -505.22044799 176.89493938 -496.97949219 170.68652344 C-495.19764758 169.33717392 -493.42751878 167.97480718 -491.6640625 166.6015625 C-478.82383317 156.6075301 -465.64971234 147.04783959 -452 138.1875 C-450.64840881 137.30473142 -449.29684847 136.42191562 -447.9453125 135.5390625 C-439.37555895 129.95508089 -430.74660871 124.49106714 -422 119.1875 C-420.38738281 118.1975 -420.38738281 118.1975 -418.7421875 117.1875 C-348.89858533 74.52966761 -271.9036974 42.48301272 -172.14941406 18.85058594 C-169.04218324 18.19638137 -165.93891793 17.52560705 -162.8359375 16.8515625 C-124.33090718 8.55673643 -85.35205198 3.87965425 -46.07727051 1.32852173 C-44.15047606 1.19771552 -42.225039 1.04731603 -40.29980469 0.89526367 C-26.88247664 -0.10365302 -13.44740583 -0.0124173 0 0 Z M-69 67.1875 C-69.82528198 67.27942627 -70.65056396 67.37135254 -71.50085449 67.46606445 C-84.02399077 68.86835328 -96.51896615 70.45105833 -109 72.1875 C-110.23476074 72.35894531 -111.46952148 72.53039062 -112.74169922 72.70703125 C-127.95057377 74.86936799 -142.87846564 77.99051461 -157.83837891 81.46142578 C-160.74626527 82.12922918 -163.65800196 82.77207987 -166.57421875 83.40234375 C-221.48705929 95.33816532 -276.9443866 114.10803686 -326.87744141 140.10058594 C-329.39761756 141.39111093 -331.93761807 142.6375642 -334.48046875 143.8828125 C-348.62146776 150.82423361 -362.38342428 158.26978708 -376 166.1875 C-376.79696289 166.64495605 -377.59392578 167.10241211 -378.41503906 167.57373047 C-406.8981412 183.94519665 -434.13576296 202.95992732 -460 223.1875 C-461.13902648 224.0680919 -462.27835756 224.94828993 -463.41796875 225.828125 C-471.23548305 231.88724298 -478.79163408 238.20026451 -486.25878906 244.68457031 C-487.97253755 246.16379573 -489.69843278 247.6272591 -491.4296875 249.0859375 C-506.24932723 261.59188612 -520.08948978 275.10835086 -533.77612305 288.83325195 C-536.08852723 291.15108838 -538.40632898 293.46343304 -540.72460938 295.77539062 C-542.22427957 297.27572064 -543.72364006 298.7763603 -545.22265625 300.27734375 C-546.24154686 301.29319801 -546.24154686 301.29319801 -547.28102112 302.32957458 C-551.18160886 306.2491203 -554.90450463 310.27392209 -558.51405334 314.46343994 C-560.42556424 316.68125817 -562.39955443 318.83911988 -564.375 321 C-568.29377459 325.34314274 -572.02139902 329.8113285 -575.69921875 334.359375 C-578.01581013 337.20693385 -580.37973645 340.00953891 -582.75 342.8125 C-588.49081712 349.69616498 -593.92935537 356.79673118 -599.31884766 363.95751953 C-600.40560931 365.39906484 -601.49617698 366.83775219 -602.59130859 368.27294922 C-619.52455035 390.4712807 -635.06813527 413.99727098 -649 438.1875 C-649.98661102 439.87651719 -650.97360191 441.56531252 -651.9609375 443.25390625 C-658.8558372 455.11446502 -665.32090714 467.17453797 -671.56494141 479.38916016 C-672.90900202 482.01005548 -674.27106031 484.62078324 -675.63671875 487.23046875 C-696.6831346 527.87046214 -712.47085983 571.23695175 -725 615.1875 C-725.29165039 616.19151855 -725.58330078 617.19553711 -725.88378906 618.22998047 C-732.43288249 640.80504438 -737.58396588 663.82370853 -741.17578125 687.05078125 C-741.69369421 690.39643023 -742.29338211 693.70544234 -742.984375 697.01953125 C-747.14979246 717.39511525 -749.1254489 738.49414714 -751 759.1875 C-751.10586426 760.33814941 -751.21172852 761.48879883 -751.32080078 762.67431641 C-754.67435879 801.12596802 -754.7761103 840.77898703 -751.26904297 879.22070312 C-751.01653395 882.00517642 -750.80074392 884.78967442 -750.59765625 887.578125 C-747.74827846 924.79155903 -741.89134496 962.23722504 -732.69384766 998.40136719 C-732.0251875 1001.08636003 -731.3999847 1003.77703187 -730.79296875 1006.4765625 C-727.6029189 1020.62304194 -723.44074829 1034.38735115 -719 1048.1875 C-718.5633905 1049.55688684 -718.12703807 1050.92635566 -717.69091797 1052.29589844 C-708.22722017 1081.93995057 -697.31700355 1111.04106568 -684 1139.1875 C-683.53352051 1140.17927246 -683.06704102 1141.17104492 -682.58642578 1142.19287109 C-676.69406205 1154.69497917 -670.66898042 1167.0800344 -664 1179.1875 C-663.52691406 1180.06019531 -663.05382812 1180.93289063 -662.56640625 1181.83203125 C-661.63094032 1183.55721063 -660.6906718 1185.27979283 -659.74609375 1187 C-658.33348307 1189.57872554 -656.93229739 1192.16289634 -655.53515625 1194.75 C-637.91745193 1227.2572822 -616.76622173 1258.07718782 -594 1287.1875 C-593.1194081 1288.32652648 -592.23921007 1289.46585756 -591.359375 1290.60546875 C-585.31576565 1298.40328894 -579.028578 1305.9512003 -572.5546875 1313.39453125 C-570.97643382 1315.21467809 -569.40903496 1317.04369371 -567.84375 1318.875 C-555.32504259 1333.48844657 -542.05229834 1347.30334876 -528.4296875 1360.88818359 C-526.10298555 1363.20946315 -523.78176172 1365.53612663 -521.4609375 1367.86328125 C-519.95605012 1369.36750867 -518.45085303 1370.87142631 -516.9453125 1372.375 C-516.26493927 1373.05739746 -515.58456604 1373.73979492 -514.88357544 1374.44287109 C-510.96209834 1378.34547435 -506.93711741 1382.07153386 -502.7441864 1385.681427 C-500.34250022 1387.75523901 -498.01814245 1389.90946483 -495.6875 1392.0625 C-490.28523429 1396.98374205 -484.68694329 1401.6014906 -479 1406.1875 C-477.81673451 1407.16157866 -476.63449947 1408.13691 -475.453125 1409.11328125 C-464.88910488 1417.81822838 -454.01144781 1426.05874536 -443 1434.1875 C-442.26587891 1434.73374023 -441.53175781 1435.27998047 -440.77539062 1435.84277344 C-413.99377304 1455.75134095 -385.40204561 1473.42378998 -356 1489.1875 C-355.17483887 1489.6309375 -354.34967773 1490.074375 -353.49951172 1490.53125 C-275.43640475 1532.2963899 -191.24021814 1560.2670741 -94 1574.1875 C-92.80729492 1574.35523926 -91.61458984 1574.52297852 -90.38574219 1574.69580078 C-83.27034095 1575.67613022 -76.14697857 1576.47617481 -69 1577.1875 C-67.69659668 1577.32285156 -66.39319336 1577.45820312 -65.05029297 1577.59765625 C-13.26200819 1582.88290772 40.29508117 1582.03054102 91.96337891 1575.56103516 C94.8626002 1575.20440157 97.76339126 1574.88377689 100.66796875 1574.57421875 C127.75883516 1571.58660149 154.75157001 1566.34984367 181.20947266 1559.86083984 C183.87736883 1559.21709027 186.55059066 1558.61116627 189.23046875 1558.01953125 C204.4270124 1554.62844663 219.18833703 1549.9603381 234 1545.1875 C235.21896973 1544.79933105 236.43793945 1544.41116211 237.69384766 1544.01123047 C292.83190376 1526.4096075 346.65646498 1502.46707608 396 1472.1875 C397.49539307 1471.27218506 397.49539307 1471.27218506 399.02099609 1470.33837891 C410.9178138 1463.03547419 422.68248691 1455.59120269 434.0859375 1447.53662109 C436.1027982 1446.115043 438.12885404 1444.70728719 440.15625 1443.30078125 C455.35482233 1432.71848392 469.92003221 1421.39453785 484.2265625 1409.640625 C485.8432593 1408.31593071 487.46808288 1407.0011704 489.09375 1405.6875 C494.43054086 1401.37009616 499.60007006 1396.91840167 504.67578125 1392.296875 C506.72042335 1390.44123343 508.78784149 1388.61993624 510.875 1386.8125 C521.97939764 1377.09906508 532.48592707 1366.85958594 542.90161133 1356.41625977 C545.32194526 1353.9905337 547.7476222 1351.57024202 550.17382812 1349.15039062 C551.73730012 1347.58625825 553.30046212 1346.02181594 554.86328125 1344.45703125 C555.57696365 1343.74537308 556.29064606 1343.0337149 557.0259552 1342.30049133 C561.01642082 1338.29156812 564.8360773 1334.18603154 568.52668762 1329.89892578 C570.43304344 1327.68446906 572.40354823 1325.53151142 574.375 1323.375 C578.19597138 1319.13661157 581.84247331 1314.78870897 585.4296875 1310.3515625 C587.35180461 1307.9746519 589.29965269 1305.62074057 591.2578125 1303.2734375 C598.6123334 1294.44432594 605.71767987 1285.48597376 612.51123047 1276.21777344 C613.50171812 1274.86701986 614.49552569 1273.51869431 615.49267578 1272.17285156 C629.56887761 1253.17111611 642.75898791 1233.4296958 654.85009766 1213.10644531 C655.92839988 1211.30698555 657.02740272 1209.52264744 658.13671875 1207.7421875 C694.55193008 1148.9260526 721.93691744 1081.60571575 738.9375 1014.625 C739.14966156 1013.79322235 739.36182312 1012.9614447 739.58041382 1012.10446167 C746.62324131 984.39965324 752.0380425 956.49350451 756 928.1875 C756.14018555 927.19009796 756.14018555 927.19009796 756.28320312 926.17254639 C759.0255423 906.56777637 760.96805955 886.96184328 762 867.1875 C762.06305328 866.02670929 762.06305328 866.02670929 762.12738037 864.84246826 C766.51433419 783.03613081 758.53512354 701.27868612 737 622.1875 C736.71979004 621.15222168 736.43958008 620.11694336 736.15087891 619.05029297 C723.35916188 572.31514077 705.26667093 527.66619009 684 484.1875 C683.57364258 483.30755371 683.14728516 482.42760742 682.70800781 481.52099609 C666.91218899 448.93350785 647.90148303 417.74438921 627 388.1875 C626.22785411 387.08594484 625.455719 385.98438213 624.68359375 384.8828125 C618.04333944 375.45559014 611.05877248 366.30381103 604 357.1875 C603.27828613 356.25091553 603.27828613 356.25091553 602.54199219 355.29541016 C596.99875564 348.10707152 591.29474356 341.09829047 585.34838867 334.23901367 C582.24091958 330.65308254 579.22098355 327.01346748 576.25 323.3125 C573.07833928 319.40231178 569.76879947 315.79700528 566.1171875 312.33203125 C564.28673379 310.47793699 562.60619704 308.5832646 560.91235352 306.60644531 C556.88774518 301.9938315 552.61809862 297.66139505 548.28515625 293.33984375 C547.47058456 292.52431534 546.65601288 291.70878693 545.8167572 290.86854553 C544.10440807 289.15551992 542.39081158 287.44374035 540.67602539 285.7331543 C538.06997985 283.13246448 535.46931478 280.52648044 532.86914062 277.91992188 C531.19563301 276.24707514 529.52181518 274.57453866 527.84765625 272.90234375 C527.0797023 272.13236557 526.31174835 271.36238739 525.52052307 270.56907654 C520.83977278 265.90832986 516.02562937 261.47338811 511 257.1875 C509.89451429 256.23699889 508.78904269 255.28648137 507.68359375 254.3359375 C506.60191531 253.41104556 505.51987502 252.48657666 504.4375 251.5625 C500.67996566 248.35343993 496.93184318 245.13546405 493.21875 241.875 C485.96565441 235.51237234 478.62006839 229.39124523 470.89355469 223.60839844 C468.73713272 221.99024786 466.59134302 220.35846757 464.4453125 218.7265625 C440.25288567 200.38509315 415.19921067 183.52842509 389 168.1875 C388.15856445 167.6939502 387.31712891 167.20040039 386.45019531 166.69189453 C308.19406984 120.95566905 221.51582732 89.19755689 111 71.1875 C109.98030121 71.03507843 109.98030121 71.03507843 108.94000244 70.87957764 C50.68528111 62.22817075 -10.43919592 60.58711425 -69 67.1875 Z " fill="#FEFEFD" transform="translate(881,63.8125)"/>
<path d="M0 0 C0.33 0 0.66 0 1 0 C1 280.17 1 560.34 1 849 C-279.17 849 -559.34 849 -848 849 C-848 848.67 -848 848.34 -848 848 C-847.20980469 847.96036133 -846.41960938 847.92072266 -845.60546875 847.87988281 C-762.15982562 843.56455098 -680.20198313 828.79867983 -601 802 C-598.79304067 801.26671061 -596.58601083 800.53363335 -594.37890625 799.80078125 C-511.44135532 771.97140387 -433.00042546 729.73853219 -331 654 C-330.14535156 653.30777344 -329.29070313 652.61554687 -328.41015625 651.90234375 C-321.76570218 646.49717093 -315.21153474 640.99084507 -308.69140625 635.43701172 C-307.00707393 634.00600998 -305.3165372 632.58262965 -303.625 631.16015625 C-295.16818057 624.01878838 -287.0718524 616.54278478 -279.04101562 608.92773438 C-277.01026004 607.00969058 -274.96833718 605.10439235 -272.921875 603.203125 C-256.61590654 588.1115805 -256.61590654 588.1115805 -241.5703125 571.7890625 C-239.79534619 569.7668372 -237.91700977 567.88785373 -236 566 C-232.78565269 562.8288397 -229.78249037 559.54417247 -226.83984375 556.12109375 C-224.80491181 553.77508942 -222.71709033 551.4826355 -220.625 549.1875 C-216.7295343 544.87090287 -213.03141782 540.4259887 -209.375 535.90625 C-207.28354086 533.34696447 -205.15918985 530.82390104 -203.01220703 528.31152344 C-187.3517283 509.97757333 -172.99816108 490.53169158 -159.22363281 470.75390625 C-158.17330541 469.24840903 -157.11479534 467.74862634 -156.0546875 466.25 C-144.99322203 450.60960231 -134.90675857 434.38910844 -125 418 C-124.11006348 416.52829346 -124.11006348 416.52829346 -123.20214844 415.02685547 C-100.29632378 376.93987175 -81.06696463 336.99585261 -64 296 C-63.2567749 294.21940186 -63.2567749 294.21940186 -62.49853516 292.40283203 C-56.74696474 278.55000135 -51.64451837 264.57423011 -47.0625 250.29345703 C-45.91296125 246.73020387 -44.73889915 243.1755654 -43.5625 239.62109375 C-37.82443863 222.22177974 -32.66435718 204.72208281 -28 187 C-27.70528809 185.8975293 -27.41057617 184.79505859 -27.10693359 183.65917969 C-11.13645139 123.67422648 -3.10563972 61.91080157 0 0 Z " fill="#FEFEFE" transform="translate(1771,923)"/>
<path d="M0 0 C0.33 0 0.66 0 1 0 C1.06469482 1.13276367 1.12938965 2.26552734 1.19604492 3.43261719 C3.56613451 44.27489 7.4743567 84.76312662 15 125 C15.12763733 125.6859021 15.25527466 126.3718042 15.38677979 127.07849121 C22.01559498 162.54911223 30.67377862 197.73516802 42 232 C42.771016 234.36582589 43.5418468 236.73171215 44.3125 239.09765625 C69.74982129 316.71176232 105.65881474 391.65598414 152 459 C152.51353027 459.74636719 153.02706055 460.49273438 153.55615234 461.26171875 C168.99329676 483.6273453 185.33001232 505.14498004 202.51904297 526.18261719 C203.8427907 527.80707781 205.15828809 529.43825346 206.47265625 531.0703125 C211.0256753 536.70738371 215.76342865 542.11915512 220.66796875 547.453125 C222.62405252 549.58941749 224.54187697 551.74780657 226.4375 553.9375 C242.28333249 572.13086323 258.77398612 590.81712016 277.2109375 606.4296875 C279.2331628 608.20465381 281.11214627 610.08299023 283 612 C286.1711603 615.21434731 289.45582753 618.21750963 292.87890625 621.16015625 C295.22491058 623.19508819 297.5173645 625.28290967 299.8125 627.375 C304.12909713 631.2704657 308.5740113 634.96858218 313.09375 638.625 C315.65357074 640.71689652 318.17709641 642.84180019 320.69018555 644.98901367 C327.41982844 650.73832634 334.30151882 656.26155297 341.29882812 661.68115234 C342.91635606 662.93515434 344.52863917 664.19591298 346.140625 665.45703125 C413.25227135 717.64561051 488.8825936 759.2307384 568 790 C568.79083984 790.3098584 569.58167969 790.6197168 570.39648438 790.93896484 C589.57746137 798.43471309 609.25766772 805.15416595 629 811 C629.71800781 811.21543457 630.43601562 811.43086914 631.17578125 811.65283203 C647.96801743 816.67286398 664.97243236 820.86713882 682 825 C683.0120752 825.24637207 684.02415039 825.49274414 685.06689453 825.74658203 C738.97522707 838.75695744 793.75063631 844.71080606 849 848 C849 848.33 849 848.66 849 849 C568.83 849 288.66 849 0 849 C0 568.83 0 288.66 0 0 Z " fill="#FEFEFE" transform="translate(0,923)"/>
<path d="M0 0 C280.17 0 560.34 0 849 0 C849 280.17 849 560.34 849 849 C848.67 849 848.34 849 848 849 C847.93530518 847.86723633 847.87061035 846.73447266 847.80395508 845.56738281 C845.22807077 801.18596556 840.26811221 757.69145787 832 714 C831.7628125 712.74300293 831.525625 711.48600586 831.28125 710.19091797 C825.20483332 678.52234324 816.65670981 647.48874538 807 616.75 C806.74851196 615.94793121 806.49702393 615.14586243 806.23791504 614.31948853 C800.75878182 596.88127376 794.65756263 579.74816367 787.9375 562.75 C787.61429779 561.9311734 787.29109558 561.1123468 786.95809937 560.26870728 C780.76760633 544.62264534 774.12032919 529.24750507 767 514 C766.50967285 512.94635254 766.0193457 511.89270508 765.51416016 510.80712891 C754.02287234 486.21799686 741.62551313 462.16731738 727.70410156 438.86425781 C725.98126173 435.96850468 724.28076496 433.06066255 722.5859375 430.1484375 C716.74700227 420.13544001 710.74383215 410.31594557 704.19287109 400.75341797 C702.97372373 398.96137614 701.77508537 397.15716167 700.58203125 395.34765625 C676.26027821 358.45974503 648.75867345 323.64531726 619 291 C618.19691406 290.11570312 617.39382813 289.23140625 616.56640625 288.3203125 C595.65947495 265.0550454 595.65947495 265.0550454 572.890625 243.671875 C570.66352921 241.70245971 568.58785046 239.61625658 566.5 237.5 C563.14743221 234.10731601 559.70524318 230.90899316 556.0859375 227.8046875 C553.74974499 225.78348724 551.47035149 223.70621161 549.1875 221.625 C544.87090287 217.7295343 540.4259887 214.03141782 535.90625 210.375 C533.34705412 208.28361412 530.8240847 206.15932636 528.31176758 204.01245117 C521.03388184 197.79567308 513.57724658 191.84677208 506 186 C504.80745605 185.07646729 504.80745605 185.07646729 503.59082031 184.13427734 C492.81480916 175.80069291 481.94617426 167.70874205 470.63964844 160.109375 C468.3836035 158.58295031 466.16036872 157.01172834 463.9375 155.4375 C451.38441969 146.64618713 438.48369576 138.46874401 425.41113281 130.47509766 C423.3620612 129.22150402 421.31721078 127.96141595 419.2734375 126.69921875 C379.408821 102.36805626 337.33750178 81.89655359 294.05625916 64.45321655 C290.56267649 63.04448409 287.07674244 61.61996452 283.60058594 60.16870117 C275.76862547 56.90118239 267.95849189 53.79090876 259.875 51.1875 C258.89200928 50.86547607 257.90901855 50.54345215 256.89624023 50.21166992 C253.59964609 49.13438322 250.2998293 48.06733273 247 47 C245.06108007 46.36842549 243.12254725 45.73567173 241.184021 45.10289001 C238.47607581 44.21963718 235.76716082 43.33939069 233.05792236 42.46011353 C231.1378441 41.8369529 229.21808535 41.21280804 227.29833984 40.58862305 C210.27100131 35.09444751 193.12949046 30.37824211 175.75 26.125 C174.68129669 25.86298798 173.61259338 25.60097595 172.51150513 25.33102417 C153.46277673 20.6802058 134.37628487 16.64377653 115.0480957 13.35101318 C113.06285413 13.01077227 111.07924355 12.66105711 109.09570312 12.31103516 C73.09286069 5.99434108 36.49725459 2.67789919 0 1 C0 0.67 0 0.34 0 0 Z " fill="#FEFEFE" transform="translate(923,0)"/>
<path d="M0 0 C280.17 0 560.34 0 849 0 C849 0.33 849 0.66 849 1 C847.83170654 1.06469482 846.66341309 1.12938965 845.4597168 1.19604492 C784.05102464 4.65495066 722.16657905 11.69058472 662.9140625 28.88671875 C658.94713397 30.0337943 654.94949135 31.02454499 650.9375 32 C581.29500001 49.1689874 512.64794958 78.5003226 450.671875 114.45898438 C448.02133076 115.98769739 445.35747558 117.48989752 442.6875 118.984375 C429.82620868 126.20276284 417.3550306 133.94802701 405 142 C404.38302246 142.40202637 403.76604492 142.80405273 403.13037109 143.21826172 C399.72924653 145.44361291 396.35926623 147.71206732 393 150 C392.42185547 150.391875 391.84371094 150.78375 391.24804688 151.1875 C369.77134895 165.75700759 348.8098573 181.04699489 328.77197266 197.54394531 C327.20075905 198.83503349 325.62237609 200.11738584 324.04296875 201.3984375 C313.56959001 209.89368175 303.34883605 218.64662693 293.48413086 227.84204102 C290.59640501 230.53365645 287.68099944 233.17664083 284.6875 235.75 C281.37145232 238.61417535 278.29291904 241.66090528 275.25 244.8125 C273.31164789 246.69700899 271.33163123 248.45864466 269.28515625 250.22265625 C264.81160715 254.10995187 260.61546958 258.23684461 256.4375 262.4375 C255.72142578 263.14970703 255.00535156 263.86191406 254.26757812 264.59570312 C250.18125217 268.68946553 246.28815305 272.88892056 242.51196289 277.26977539 C240.75998173 279.27466647 238.91509037 281.15094723 237 283 C233.78565269 286.1711603 230.78249037 289.45582753 227.83984375 292.87890625 C225.80491181 295.22491058 223.71709033 297.5173645 221.625 299.8125 C217.75088119 304.10473618 214.07982452 308.52778674 210.4453125 313.0234375 C208.20327534 315.7525626 205.91565264 318.43059312 203.60229492 321.09887695 C197.88445182 327.6942961 192.46072175 334.44580284 187.20458984 341.41308594 C185.22320805 344.02333759 183.20008875 346.60127484 181.1875 349.1875 C168.7647433 365.27493278 157.17226483 382.02714429 146 399 C145.41726318 399.87954346 145.41726318 399.87954346 144.82275391 400.77685547 C100.30622575 468.0684669 66.31368628 541.34533668 41.63806152 618.02197266 C41.0456704 619.85841913 40.44739599 621.69296496 39.84863281 623.52734375 C34.01911037 641.42961912 29.40867486 659.59018036 24.99902344 677.8828125 C24.16292916 681.34524507 23.29411635 684.79844939 22.4140625 688.25 C9.28721616 740.84213226 3.98916964 795.01998878 1 849 C0.67 849 0.34 849 0 849 C0 568.83 0 288.66 0 0 Z " fill="#FEFEFE" transform="translate(0,0)"/>
<path d="M0 0 C22.77 0 45.54 0 69 0 C70.32 6.496875 71.64 12.99375 73 19.6875 C76.06542457 34.72222679 79.20946167 49.73560193 82.48654175 64.7255249 C85.29060591 77.56561932 87.94848296 90.43246487 90.5625 103.3125 C93.41816348 117.38249418 96.36584405 131.42421264 99.47021484 145.44140625 C101.92601697 156.56331503 104.23922271 167.71185595 106.51611328 178.87158203 C106.64970749 179.52606323 106.7833017 180.18054443 106.92094421 180.8548584 C107.19083494 182.17807763 107.46020971 183.50140219 107.7290802 184.8248291 C108.45534112 188.38718541 109.20036467 191.94450926 109.97094727 195.49755859 C112.51828292 207.28093426 114.62212026 219.10278117 116.5625 231 C116.85575208 232.77610242 117.14937137 234.55214425 117.44335938 236.328125 C122.5382253 267.18494969 122.5382253 267.18494969 124.6875 282.5 C124.81705078 283.37140625 124.94660156 284.2428125 125.08007812 285.140625 C125.96318067 291.45784535 126.1443849 297.62567408 126 304 C126.66 304 127.32 304 128 304 C128.09498779 303.33919434 128.18997559 302.67838867 128.2878418 301.99755859 C130.83628998 284.34747536 133.62253546 266.7472718 136.62957764 249.16973877 C137.0193366 246.8867364 137.40656472 244.60331405 137.79345703 242.31982422 C141.73179067 219.10916514 146.04539925 196.01553066 151 173 C151.13966187 172.35085632 151.27932373 171.70171265 151.42321777 171.03289795 C153.41958648 161.76636664 155.45623169 152.50876851 157.50201416 143.25305176 C159.19202182 135.60690114 160.87896121 127.96007756 162.5625 120.3125 C162.75565796 119.43554474 162.94881592 118.55858948 163.14782715 117.65505981 C165.80317111 105.58912672 168.36592441 93.50946838 170.83227539 81.40332031 C172.86988388 71.46795539 175.11829771 61.58451432 177.38623047 51.69995117 C179.78466522 41.16135407 181.93483234 30.58533697 183.95898438 19.96899414 C184.18392578 18.80746826 184.40886719 17.64594238 184.640625 16.44921875 C184.92728027 14.93847778 184.92728027 14.93847778 185.21972656 13.3972168 C186.25842368 8.87485434 187.66667318 4.44442274 189 0 C211.44 0 233.88 0 257 0 C258.33323936 4.66633776 259.5319507 9.18494119 260.55078125 13.91015625 C260.68978851 14.55087067 260.82879578 15.19158508 260.97201538 15.85171509 C261.42082421 17.92155361 261.86666114 19.99201994 262.3125 22.0625 C262.93867159 24.95604085 263.5666353 27.84919008 264.1953125 30.7421875 C264.35031723 31.45604111 264.50532196 32.16989471 264.6650238 32.90538025 C265.95803911 38.84398823 267.31505971 44.76677406 268.6875 50.6875 C270.23354909 57.39320316 271.62551715 64.10795328 272.875 70.875 C274.51634185 79.74622355 276.37739292 88.56390527 278.3125 97.375 C278.46134644 98.05287567 278.61019287 98.73075134 278.7635498 99.4291687 C280.42496096 106.98131156 282.11398132 114.5269506 283.83203125 122.06640625 C283.98112442 122.72084213 284.13021759 123.37527802 284.28382874 124.04954529 C284.43210617 124.70036575 284.58038361 125.35118622 284.7331543 126.02172852 C285.03047132 127.32697768 285.32775332 128.63223482 285.625 129.9375 C285.77232574 130.58419647 285.91965149 131.23089294 286.07144165 131.89718628 C288.23091113 141.39418562 290.22837089 150.91067966 292.09082031 160.4699707 C293.44861948 167.39003035 294.93838334 174.27198449 296.484375 181.15234375 C300.74526104 200.12924147 304.23667428 219.21094755 307.54632568 238.37438965 C308.01465277 241.08480192 308.48496064 243.79486532 308.95556641 246.50488281 C309.91300464 252.02321028 310.86423431 257.54258955 311.8125 263.0625 C311.95961426 263.91713837 312.10672852 264.77177673 312.25830078 265.65231323 C317.34860421 295.28489483 317.34860421 295.28489483 317 304 C317.66 304 318.32 304 319 304 C319.16435547 302.29070312 319.16435547 302.29070312 319.33203125 300.546875 C320.40689376 289.68669662 321.82937833 278.92571948 323.51416016 268.14501953 C324.087975 264.43050557 324.64427947 260.71346157 325.19921875 256.99609375 C325.52483158 254.8216889 325.85067883 252.6473193 326.17660522 250.47296143 C326.38765715 249.0630143 326.59815238 247.65298369 326.80801392 246.24285889 C329.30800951 229.46679163 332.35569227 212.81725337 335.6875 196.1875 C335.85885468 195.32927643 336.03020935 194.47105286 336.20675659 193.58682251 C338.82310166 180.50750174 341.62388195 167.47838118 344.56399536 154.46838379 C347.08105714 143.32133015 349.41782509 132.14993624 351.625 120.9375 C354.08783485 108.43072297 356.72816839 95.97878096 359.53125 83.54296875 C363.27474963 66.93494264 366.80706912 50.27927697 370.08813477 33.57373047 C372.29657898 22.36101552 374.66851179 11.19114341 377 0 C399.77 0 422.54 0 446 0 C442.63267705 16.83661475 442.63267705 16.83661475 441.203125 22.55859375 C440.72987793 24.47406006 440.72987793 24.47406006 440.24707031 26.42822266 C440.08452759 27.08139465 439.92198486 27.73456665 439.7545166 28.40753174 C436.40580758 41.88136592 433.30895862 55.39549582 430.43457031 68.97827148 C428.82111777 76.53202763 426.97618704 83.98290301 424.95068359 91.43652344 C423.56854215 96.61724673 422.36914729 101.8330463 421.1875 107.0625 C420.66965321 109.32951446 420.15140788 111.59643792 419.6328125 113.86328125 C419.36629883 115.03068848 419.09978516 116.1980957 418.82519531 117.40087891 C417.42191037 123.52136015 415.99181959 129.63555562 414.5625 135.75 C414.27084961 136.99885986 413.97919922 138.24771973 413.67871094 139.53442383 C412.48779196 144.63374019 411.29611365 149.73287901 410.10449219 154.83203125 C409.21521227 158.63795492 408.32624798 162.44395208 407.4375 166.25 C407.14480225 167.50329102 406.85210449 168.75658203 406.55053711 170.04785156 C404.96719827 176.83371569 403.39444517 183.62187076 401.83422852 190.41308594 C398.91458302 203.12083039 395.91993372 215.80991353 392.9072876 228.49584961 C390.33387229 239.33436295 387.79151445 250.17893939 385.30419922 261.03759766 C383.86791476 267.28948713 382.40244173 273.5337888 380.9140625 279.7734375 C380.15095243 282.97393707 379.38784346 286.17443687 378.625 289.375 C378.43377563 290.17726013 378.24255127 290.97952026 378.04553223 291.80609131 C375.16965143 303.888848 372.4174068 315.9946157 369.75 328.125 C367.37253553 338.93571301 364.91209094 349.71094412 362.16015625 360.43359375 C360.15813635 368.23957126 358.34172604 376.09211568 356.49316406 383.93554688 C356.00945278 385.96042935 355.50492432 387.98030273 355 390 C330.25 390 305.5 390 280 390 C275.37747685 369.19864584 275.37747685 369.19864584 273.59765625 360.83984375 C273.39498138 359.89036362 273.19230652 358.94088348 272.98348999 357.96263123 C272.34197905 354.95450415 271.70198201 351.94605901 271.0625 348.9375 C270.84079132 347.89499084 270.61908264 346.85248169 270.39065552 345.77838135 C267.41008223 331.75340186 264.48271415 317.72168171 261.72070312 303.65185547 C260.25434692 296.2217213 258.7618246 288.7967804 257.27481079 281.37075806 C256.29589368 276.48166601 255.31781166 271.59240699 254.33984375 266.703125 C254.1447673 265.72793411 253.94969086 264.75274323 253.748703 263.7480011 C252.61403426 258.07448102 251.48122964 252.40059321 250.35041809 246.7263031 C249.64984851 243.21116414 248.94855396 239.69616996 248.2472229 236.18118286 C247.9250536 234.56543253 247.60323377 232.94961247 247.28182983 231.33370972 C246.82946821 229.05952059 246.37606112 226.78554419 245.921875 224.51171875 C245.77163376 223.75952057 245.62139252 223.00732239 245.46659851 222.23233032 C244.60581903 217.94612038 243.72213318 213.66547813 242.81689453 209.38842773 C239.96781512 195.91934396 237.35684834 182.42459156 234.94238281 168.87084961 C234.37193651 165.67031204 233.79571327 162.4708529 233.21875 159.27148438 C231.10595765 147.5078179 229.11723669 135.73299762 227.2980957 123.92044067 C226.8964117 121.33264661 226.47519714 118.74821528 226.05078125 116.1640625 C225.92509766 115.390625 225.79941406 114.6171875 225.66992188 113.8203125 C225.42266378 112.30163438 225.17247093 110.78343223 224.91992188 109.265625 C224.30734327 105.46698945 223.83837333 101.86364698 224 98 C223.34 98 222.68 98 222 98 C221.85304688 99.6396875 221.85304688 99.6396875 221.703125 101.3125 C220.81509596 110.6846535 219.61705415 119.96412985 218.0625 129.25 C217.82611816 130.66539062 217.82611816 130.66539062 217.58496094 132.109375 C216.68778076 137.34502368 215.69028834 142.55070947 214.62109375 147.75390625 C213.30649925 154.25777668 212.15888592 160.78020583 211.0625 167.32421875 C210.89451401 168.32645477 210.72652802 169.3286908 210.55345154 170.36129761 C209.85855064 174.51965419 209.16669436 178.67849872 208.47949219 182.83813477 C205.0864484 203.33537809 205.0864484 203.33537809 202.73779297 212.09985352 C201.26105322 217.90468194 200.19135621 223.80599416 199.04098511 229.68273926 C195.47200493 247.89935675 191.71819429 266.07634242 187.9375 284.25 C184.25721131 301.95103458 180.64572206 319.66005132 177.23901367 337.41577148 C175.28216161 347.61073937 173.20945741 357.77707813 171.0625 367.93359375 C169.83774042 373.73261163 168.69787566 379.54708814 167.578125 385.3671875 C167 388 167 388 166 390 C141.25 390 116.5 390 91 390 C83.06908611 358.27634446 83.06908611 358.27634446 79.96865845 344.16537476 C77.18822623 331.52171667 74.30454523 318.91975265 71.09301758 306.37768555 C69.00795776 298.18231216 67.1895982 289.93736861 65.38549805 281.67626953 C63.42700467 272.77219786 61.29983417 263.91539124 59.125 255.0625 C56.30962768 243.59301134 53.65400609 232.09841732 51.125 220.5625 C48.21032643 207.28135374 45.15874489 194.03775763 42 180.8125 C41.78782837 179.92392303 41.57565674 179.03534607 41.35705566 178.11984253 C39.21633646 169.16421524 37.05754383 160.21315007 34.8671875 151.26953125 C34.20279821 148.55476733 33.53873625 145.83992366 32.875 143.125 C32.71420959 142.46788025 32.55341919 141.8107605 32.38775635 141.13372803 C29.54648782 129.49865295 26.93277621 117.81869123 24.36669922 106.12020874 C22.12200731 95.89458662 19.73959211 85.72285223 17.14355469 75.57958984 C15.04738032 67.33813567 13.21177088 59.04918393 11.40112305 50.7409668 C8.99234641 39.77463222 6.33169077 28.8733779 3.62744141 17.97680664 C3.46034164 17.29814041 3.29324188 16.61947418 3.12107849 15.92024231 C2.66747626 14.07803965 2.21021365 12.23673937 1.75268555 10.39550781 C0.99217802 6.96471354 0.49696521 3.47875648 0 0 Z " fill="#FEFEFD" transform="translate(663,691)"/>
<path d="M0 0 C21.12 0 42.24 0 64 0 C64.01458252 8.24154053 64.02916504 16.48308105 64.04418945 24.97436523 C64.09302576 51.39361781 64.1564566 77.8128162 64.22898628 104.23201373 C64.24025342 108.34095481 64.25139204 112.44989624 64.26245117 116.55883789 C64.26465486 117.37679768 64.26685854 118.19475746 64.269129 119.03750391 C64.304428 132.25328932 64.32933379 145.46907469 64.35034702 158.68488967 C64.37216818 172.26210826 64.40527809 185.83926608 64.44870156 199.41643292 C64.47510992 207.78318939 64.49288474 216.14987026 64.49934604 224.5166663 C64.50463323 230.26688253 64.52096067 236.01700391 64.54566566 241.76716917 C64.55956782 245.07662297 64.56724805 248.38576472 64.56500816 251.69526863 C64.55462397 274.13116043 64.91565481 299.75846629 80 318 C94.15453351 331.69196706 111.18729799 334.17708322 130.25 334.1875 C131.41402344 334.19974609 132.57804688 334.21199219 133.77734375 334.22460938 C151.05919762 334.25363824 168.78930027 330.0655239 181.47265625 317.5625 C200.29606972 295.94228553 200.45134318 267.28949651 200.43237305 240.21972656 C200.4414093 237.58625451 200.45161286 234.9528106 200.46325684 232.3193512 C200.48585222 226.69225709 200.49789455 221.06522407 200.50238609 215.43808746 C200.50889563 207.30260903 200.53191606 199.16724016 200.55872939 191.03180632 C200.60181388 177.82672104 200.63188476 164.62164043 200.65356445 151.41650391 C200.67462951 138.60300407 200.70195236 125.78954228 200.73754883 112.97607422 C200.73974765 112.18380087 200.74194648 111.39152752 200.74421193 110.57524589 C200.75528296 106.59991126 200.76647551 102.62457699 200.77772844 98.64924288 C200.87065339 65.7661851 200.93993614 32.8831383 201 0 C221.79 0 242.58 0 264 0 C264.06622182 36.78231466 264.12158137 73.56457278 264.15319599 110.34693005 C264.1569478 114.69621194 264.1608308 119.0454937 264.16479492 123.39477539 C264.16558185 124.26058501 264.16636878 125.12639463 264.16717956 126.01844091 C264.180209 140.0102391 264.20384918 154.00200005 264.23145839 167.99377619 C264.25958128 182.36648368 264.27619077 196.73917176 264.28226548 211.11190563 C264.28636769 219.97004745 264.2992916 228.82808397 264.3237494 237.68619335 C264.33969172 243.77276903 264.34438129 249.85929083 264.34050413 255.94588583 C264.3385957 259.44974997 264.34137713 262.95343103 264.35761642 266.45726204 C264.47604529 296.43797365 260.54900045 324.09871745 241 348 C239.91138672 349.35158203 239.91138672 349.35158203 238.80078125 350.73046875 C218.20382254 374.86806168 185.54932669 386.31186224 154.70727539 389.32128906 C114.10548127 392.49237187 66.78322661 390.01592562 34.125 362.5625 C14.28747578 345.29721684 2.74788005 321.10855352 0 295 C-0.50567351 286.07913705 -0.38895529 277.1345489 -0.34819686 268.20276809 C-0.3350974 264.5942915 -0.33963566 260.9858283 -0.34190369 257.37733459 C-0.34346774 251.14335736 -0.33415012 244.90947518 -0.31719017 238.67552185 C-0.29268586 229.66257106 -0.28498329 220.64966568 -0.2812262 211.63668519 C-0.27467953 197.00955452 -0.25476709 182.38247437 -0.22631836 167.75537109 C-0.19873139 153.55648041 -0.17752058 139.35760352 -0.16479492 125.15869141 C-0.16400675 124.28173129 -0.16321858 123.40477117 -0.16240653 122.5012365 C-0.15849108 118.10126572 -0.15470003 113.70129484 -0.15097082 109.30132389 C-0.11993053 72.86750436 -0.06465769 36.43377842 0 0 Z " fill="#FEFEFE" transform="translate(754,1145)"/>
<path d="M0 0 C73.92 0 147.84 0 224 0 C224 11.83835352 224 11.83835352 222.57470703 18.1875 C221.20148946 24.90774913 220.53419515 31.77741 219.67456055 38.58105469 C219.42007891 40.58565982 219.16128088 42.58971552 218.90234375 44.59375 C218.75273193 45.77646484 218.60312012 46.95917969 218.44897461 48.17773438 C218 51 218 51 217 53 C166.18 53 115.36 53 63 53 C63 87.65 63 122.3 63 158 C105.9 158 148.8 158 193 158 C193 175.49 193 192.98 193 211 C150.1 211 107.2 211 63 211 C63 270.07 63 329.14 63 390 C42.21 390 21.42 390 0 390 C0 261.3 0 132.6 0 0 Z " fill="#FEFEFE" transform="translate(800,237)"/>
<path d="M0 0 C0.66 0.66 1.32 1.32 2 2 C-0.15672794 4.15672794 -2.31608367 6.30818157 -4.5 8.4375 C-9.06833832 12.58146054 -9.06833832 12.58146054 -11 18 C-13.90548882 20.04169485 -15.40142046 21 -19 21 C-18.13117188 20.07058594 -17.26234375 19.14117187 -16.3671875 18.18359375 C-15.20305167 16.93496419 -14.03899332 15.6862624 -12.875 14.4375 C-12.30523437 13.82841797 -11.73546875 13.21933594 -11.1484375 12.59179688 C-7.32166254 8.48236241 -3.62896953 4.28527253 0 0 Z " fill="#FDECDF" transform="translate(279,331)"/>
<path d="M0 0 C0.33 0.66 0.66 1.32 1 2 C1.66 2.33 2.32 2.66 3 3 C-0.3 5.64 -3.6 8.28 -7 11 C-7.33 10.01 -7.66 9.02 -8 8 C-7.01 7.67 -6.02 7.34 -5 7 C-5 5.35 -5 3.7 -5 2 C-3.35 1.34 -1.7 0.68 0 0 Z " fill="#FC6C0E" transform="translate(1366,1468)"/>
<path d="M0 0 C0.66 1.32 1.32 2.64 2 4 C-0.02882906 6.94180214 -2.05819786 8.97117094 -5 11 C-5.66 10.67 -6.32 10.34 -7 10 C-3.535 5.05 -3.535 5.05 0 0 Z " fill="#FD6E11" transform="translate(264,452)"/>
<path d="M0 0 C1.32 0.66 2.64 1.32 4 2 C4 2.66 4 3.32 4 4 C3.67 4.33 3.34 4.66 3 5 C3.495 5.45375 3.99 5.9075 4.5 6.375 C6 8 6 8 6 10 C1.79373966 8.49776416 0.26099979 5.71449966 -2 2 C-1.34 1.34 -0.68 0.68 0 0 Z " fill="#FC6B0B" transform="translate(1529,369)"/>
<path d="M0 0 C0 4.26861765 -1.65525557 6.48288335 -4 10 C-6.625 10.6875 -6.625 10.6875 -9 11 C-8.06558465 9.72689688 -7.12732889 8.456612 -6.1875 7.1875 C-5.66542969 6.47980469 -5.14335938 5.77210937 -4.60546875 5.04296875 C-3.16871123 3.21468607 -1.68184237 1.60103312 0 0 Z " fill="#FD751A" transform="translate(1525,1403)"/>
<path d="M0 0 C-0.1875 1.8125 -0.1875 1.8125 -1 4 C-3.5625 5.75 -3.5625 5.75 -6 7 C-6.66 6.01 -7.32 5.02 -8 4 C-4.5 0 -4.5 0 0 0 Z " fill="#FC6B0C" transform="translate(354,257)"/>
<path d="M0 0 C0.99 0.33 1.98 0.66 3 1 C2.67 2.98 2.34 4.96 2 7 C1.01 7 0.02 7 -1 7 C-1.66 6.34 -2.32 5.68 -3 5 C-2 2 -2 2 0 0 Z " fill="#FC6B0B" transform="translate(260,1506)"/>
<path d="M0 0 C0.66 0 1.32 0 2 0 C2.33 2.97 2.66 5.94 3 9 C1.68 9.33 0.36 9.66 -1 10 C-0.67 6.7 -0.34 3.4 0 0 Z " fill="#FD7B24" transform="translate(885,789)"/>
<path d="M0 0 C0.66 0.33 1.32 0.66 2 1 C2 1.66 2 2.32 2 3 C1.175 3.804375 0.35 4.60875 -0.5 5.4375 C-3.34916193 7.76122416 -3.34916193 7.76122416 -3 11 C-4.98 11.99 -6.96 12.98 -9 14 C-7.45158425 10.65291949 -5.50894136 7.75332488 -3.375 4.75 C-2.74335938 3.85796875 -2.11171875 2.9659375 -1.4609375 2.046875 C-0.73777344 1.03367187 -0.73777344 1.03367187 0 0 Z " fill="#FC7117" transform="translate(277,434)"/>
<path d="M0 0 C1.32 0.33 2.64 0.66 4 1 C4 1.66 4 2.32 4 3 C4.66 3 5.32 3 6 3 C6 4.32 6 5.64 6 7 C2.54074837 5.7508258 -0.14693203 4.32472205 -3 2 C-2.01 2 -1.02 2 0 2 C0 1.34 0 0.68 0 0 Z " fill="#FC7012" transform="translate(1297,170)"/>
<path d="M0 0 C0.66 0.33 1.32 0.66 2 1 C0.625 3.5 0.625 3.5 -1 6 C-1.66 6 -2.32 6 -3 6 C-3.33 7.32 -3.66 8.64 -4 10 C-5.32 10.33 -6.64 10.66 -8 11 C-7.04454634 9.53977837 -6.08553322 8.08188532 -5.125 6.625 C-4.59132813 5.81289062 -4.05765625 5.00078125 -3.5078125 4.1640625 C-2 2 -2 2 0 0 Z " fill="#FC7317" transform="translate(1542,1381)"/>
<path d="M0 0 C6.0546875 -0.1953125 6.0546875 -0.1953125 8 0 C8.66 0.66 9.32 1.32 10 2 C3.375 5 3.375 5 0 5 C0 3.35 0 1.7 0 0 Z " fill="#FD6D0F" transform="translate(554,128)"/>
<path d="M0 0 C0.66 0.66 1.32 1.32 2 2 C0.02 4.31 -1.96 6.62 -4 9 C-4.66 8.01 -5.32 7.02 -6 6 C-5.34 6 -4.68 6 -4 6 C-4 4.68 -4 3.36 -4 2 C-2.68 1.34 -1.36 0.68 0 0 Z " fill="#FC6E11" transform="translate(1565,1452)"/>
<path d="M0 0 C0.66 0.66 1.32 1.32 2 2 C1.61121812 5.01305957 0.73543126 6.39685311 -1 9 C-1.99 9.33 -2.98 9.66 -4 10 C-2.8905928 6.51329166 -1.73662334 3.22515763 0 0 Z " fill="#FD7419" transform="translate(218,526)"/>
<path d="M0 0 C2 3 2 3 2 5 C1.34 5 0.68 5 0 5 C-0.33 5.66 -0.66 6.32 -1 7 C-3.5625 7.625 -3.5625 7.625 -6 8 C-4.02 5.36 -2.04 2.72 0 0 Z " fill="#FD7117" transform="translate(291,416)"/>
<path d="M0 0 C0.99 0 1.98 0 3 0 C2 2 2 2 0 5 C-0.66 5 -1.32 5 -2 5 C-2 5.66 -2 6.32 -2 7 C-3.65 7.33 -5.3 7.66 -7 8 C-6.02133662 6.85373678 -5.04205413 5.70800212 -4.0625 4.5625 C-3.51722656 3.92441406 -2.97195313 3.28632813 -2.41015625 2.62890625 C-1.63204305 1.73008851 -0.84063472 0.84063472 0 0 Z " fill="#FD6C0E" transform="translate(339,361)"/>
<path d="M0 0 C1.0625 1.8125 1.0625 1.8125 2 4 C1.67 4.99 1.34 5.98 1 7 C-1.5625 8.1875 -1.5625 8.1875 -4 9 C-2.80100302 5.9168649 -1.52299523 2.93720508 0 0 Z " fill="#FD7014" transform="translate(1589,1311)"/>
<path d="M0 0 C0.66 0.33 1.32 0.66 2 1 C1.42655063 3.86724686 1.1385485 4.8614515 -1 7 C-1.99 6.34 -2.98 5.68 -4 5 C-4 4.34 -4 3.68 -4 3 C-2 1.375 -2 1.375 0 0 Z " fill="#FD6D0F" transform="translate(189,444)"/>
<path d="M0 0 C0.66 0.33 1.32 0.66 2 1 C1.360625 1.433125 0.72125 1.86625 0.0625 2.3125 C-2.26746003 3.91239177 -2.26746003 3.91239177 -3 7 C-3.99 7.33 -4.98 7.66 -6 8 C-6 7.34 -6 6.68 -6 6 C-6.66 5.67 -7.32 5.34 -8 5 C-6.71475739 4.13619741 -5.42157581 3.28419631 -4.125 2.4375 C-3.04605469 1.72400391 -3.04605469 1.72400391 -1.9453125 0.99609375 C-1.30335938 0.66738281 -0.66140625 0.33867187 0 0 Z " fill="#FB7216" transform="translate(490,239)"/>
<path d="M0 0 C0.66 0.33 1.32 0.66 2 1 C1.01 2.485 1.01 2.485 0 4 C0.33 4.66 0.66 5.32 1 6 C-1.375 6.625 -1.375 6.625 -4 7 C-4.66 6.34 -5.32 5.68 -6 5 C-4.02 3.35 -2.04 1.7 0 0 Z " fill="#FC6F11" transform="translate(1396,1530)"/>
<path d="M0 0 C2.31 0.66 4.62 1.32 7 2 C6.01 3.485 6.01 3.485 5 5 C3.68 4.67 2.36 4.34 1 4 C0.67 2.68 0.34 1.36 0 0 Z " fill="#FC6F10" transform="translate(579,1649)"/>
<path d="M0 0 C0.99 0.99 1.98 1.98 3 3 C2.34 4.32 1.68 5.64 1 7 C-0.32 6.67 -1.64 6.34 -3 6 C-3 5.34 -3 4.68 -3 4 C-2.34 4 -1.68 4 -1 4 C-0.67 2.68 -0.34 1.36 0 0 Z " fill="#FC6E11" transform="translate(188,1321)"/>
<path d="M0 0 C0.66 0.99 1.32 1.98 2 3 C0.71034824 4.37562854 -0.62689293 5.70766393 -2 7 C-2.66 7 -3.32 7 -4 7 C-2.92598892 4.08482708 -2.22189824 2.22189824 0 0 Z " fill="#FD7014" transform="translate(331,369)"/>
<path d="M0 0 C0 3.39593478 -0.52165948 4.06619881 -2.5 6.6875 C-2.9640625 7.31011719 -3.428125 7.93273437 -3.90625 8.57421875 C-4.2671875 9.04472656 -4.628125 9.51523437 -5 10 C-5.66 9.01 -6.32 8.02 -7 7 C-4.69 4.69 -2.38 2.38 0 0 Z " fill="#FC6F11" transform="translate(241,278)"/>
<path d="M0 0 C0.66 0.33 1.32 0.66 2 1 C-2.455 3.97 -2.455 3.97 -7 7 C-7.66 6.34 -8.32 5.68 -9 5 C-7.54735962 4.1361871 -6.0876837 3.28419546 -4.625 2.4375 C-3.40683594 1.72400391 -3.40683594 1.72400391 -2.1640625 0.99609375 C-1.44992187 0.66738281 -0.73578125 0.33867188 0 0 Z " fill="#FD751E" transform="translate(1278,1608)"/>
<path d="M0 0 C1.65 1.32 3.3 2.64 5 4 C4.01 4 3.02 4 2 4 C1.67 4.66 1.34 5.32 1 6 C0.01 4.68 -0.98 3.36 -2 2 C-1.34 1.34 -0.68 0.68 0 0 Z " fill="#FC6C0E" transform="translate(371,1527)"/>
<path d="M0 0 C1.9375 0.75 1.9375 0.75 4 2 C4.75 4.125 4.75 4.125 5 6 C4.01 6.33 3.02 6.66 2 7 C1.34 4.69 0.68 2.38 0 0 Z " fill="#FB6F11" transform="translate(1649,579)"/>
<path d="M0 0 C0.33 0.66 0.66 1.32 1 2 C1.99 2.33 2.98 2.66 4 3 C3.67 4.65 3.34 6.3 3 8 C0.9375 5.6875 0.9375 5.6875 -1 3 C-0.67 2.01 -0.34 1.02 0 0 Z " fill="#FDF6F0" transform="translate(1595,350)"/>
<path d="M0 0 C1.32 1.32 2.64 2.64 4 4 C2.02 4.99 2.02 4.99 0 6 C-0.38218767 4.34385343 -0.71395102 2.67542976 -1 1 C-0.67 0.67 -0.34 0.34 0 0 Z " fill="#FCF9F3" transform="translate(301,1552)"/>
<path d="M0 0 C2.97 0.495 2.97 0.495 6 1 C4.35 2.65 2.7 4.3 1 6 C0.67 4.02 0.34 2.04 0 0 Z " fill="#FC6D0E" transform="translate(1434,1402)"/>
<path d="M0 0 C0.66 0.33 1.32 0.66 2 1 C0.84826645 3.46800047 -0.04783565 5.04783565 -2 7 C-2.33 5.35 -2.66 3.7 -3 2 C-2.01 1.34 -1.02 0.68 0 0 Z " fill="#FCF7F3" transform="translate(1547,1370)"/>
<path d="M0 0 C1.32 1.65 2.64 3.3 4 5 C2.68 5.33 1.36 5.66 0 6 C-1.125 2.25 -1.125 2.25 0 0 Z " fill="#FC6F15" transform="translate(203,1344)"/>
<path d="M0 0 C1.98 0.495 1.98 0.495 4 1 C3.01 2.98 2.02 4.96 1 7 C-1 4 -1 4 -0.625 1.8125 C-0.41875 1.214375 -0.2125 0.61625 0 0 Z " fill="#FE7218" transform="translate(1682,1268)"/>
<path d="M0 0 C0.33 0.66 0.66 1.32 1 2 C1.99 2.33 2.98 2.66 4 3 C3.01 3.99 2.02 4.98 1 6 C0.01 5.01 -0.98 4.02 -2 3 C-1.34 2.01 -0.68 1.02 0 0 Z " fill="#FCFAF3" transform="translate(1554,298)"/>
<path d="M0 0 C0.66 0.99 1.32 1.98 2 3 C1.67 3.66 1.34 4.32 1 5 C-1.31 5 -3.62 5 -6 5 C-5.195625 4.360625 -4.39125 3.72125 -3.5625 3.0625 C-1.7249496 1.59396498 -1.7249496 1.59396498 0 0 Z " fill="#FD6F15" transform="translate(462,257)"/>
</svg>
