<svg xmlns="http://www.w3.org/2000/svg" width="588.33" height="203.79">
   <path
      d="M2013.94 624.6c10.68 0 16.44-5.75 16.44-16.43V596.1c0-10.68-5.76-16.45-16.44-16.45h-258.89c-10.68 0-16.44 5.77-16.44 16.45v12.06c0 10.68 5.76 16.44 16.44 16.44h258.89M2013.94 740c10.68 0 16.44-5.76 16.44-16.45V711.5c0-10.68-5.76-16.45-16.44-16.45h-258.89c-10.68 0-16.44 5.77-16.44 16.45v12.05c0 10.69 5.76 16.45 16.44 16.45h258.89M2013.94 855.39c10.68 0 16.44-5.77 16.44-16.45V826.9c0-10.68-5.76-16.45-16.44-16.45h-258.89c-10.68 0-16.44 5.77-16.44 16.45v12.05c0 10.68 5.76 16.45 16.44 16.45h258.89M2013.94 50.47c10.68 0 16.44-5.76 16.44-16.44V21.97c0-10.68-5.76-16.44-16.44-16.44h-258.89c-10.68 0-16.44 5.76-16.44 16.44v12.06c0 10.68 5.76 16.44 16.44 16.44h258.89M2013.94 165.86c10.68 0 16.44-5.76 16.44-16.44v-12.06c0-10.68-5.76-16.44-16.44-16.44h-258.89c-10.68 0-16.44 5.76-16.44 16.44v12.06c0 10.68 5.76 16.44 16.44 16.44h258.89"
      style="fill:#b0131d;fill-opacity:1;fill-rule:nonzero;stroke:none"
      transform="matrix(.23744 0 0 -.23744 -.64 204.1)" />
   <path
      d="M2272.34 442.62h-78.33c-15.66 0-23.09-7.43-23.09-23.1V257.97h-52.94v162.47c0 45.25 21.88 67.14 67.13 67.14h87.23v-44.95M913.06 302.9v-44.94H835.1c-45.24 0-67.13 21.89-67.13 67.13v212.3l52.61.01v-49.83h86.13v-44.95h-86.13V326c0-15.66 7.44-23.1 23.1-23.1h69.38M2476.25 302.9v-44.94h-77.96c-45.24 0-67.13 21.89-67.13 67.13v212.3l52.61.01v-49.83h86.12v-44.95h-86.12V326c0-15.66 7.43-23.1 23.09-23.1h69.39"
      style="fill:#545f6a;fill-opacity:1;fill-rule:nonzero;stroke:none"
      transform="matrix(.23744 0 0 -.23744 -.64 204.1)" />
   <path
      d="M1726.52 420.43c0 45.25 21.89 67.14 67.13 67.14h181.69c45.25 0 67.13-21.89 67.13-67.14V325.1c0-45.24-21.88-67.13-67.13-67.13h-181.69c-45.24 0-67.13 21.89-67.13 67.13v95.34zm75.7 22.2c-15.66 0-23.09-7.44-23.09-23.1V326c0-15.66 7.43-23.1 23.09-23.1h164.55c15.66 0 23.09 7.44 23.09 23.1v93.53c0 15.66-7.43 23.1-23.09 23.1h-164.55M433.8 325.17c0-15.66 7.44-23.1 23.1-23.1h181.24v58.24H456.9c-15.66 0-23.1-7.44-23.1-23.1v-12.04zm14.53-67.2c-45.24 0-67.13 21.88-67.13 67.12v12.2c0 45.24 21.89 67.13 67.13 67.13h189.8v15.93c0 15.67-7.43 23.1-23.09 23.1h-183.5v44.12h192.08c45.24 0 67.13-21.89 67.13-67.14V257.96H448.33M1009.71 325.17c0-15.66 7.44-23.1 23.1-23.1h181.23v58.24h-181.23c-15.66 0-23.1-7.44-23.1-23.1v-12.04zm14.52-67.2c-45.24 0-67.13 21.88-67.13 67.12v12.2c0 45.24 21.9 67.13 67.13 67.13h189.81v15.93c0 15.67-7.43 23.1-23.09 23.1h-183.5v44.12h192.07c45.25 0 67.13-21.89 67.13-67.14V257.96h-242.42M263.09 487.57v83.05h52.6V257.96H74.03c-45.24 0-67.13 21.9-67.13 67.13v95.34c0 45.25 21.9 67.14 67.13 67.14H263.1zm0-184.66v139.71H82.59c-15.65 0-23.09-7.43-23.09-23.1V326c0-15.66 7.44-23.1 23.1-23.1h180.49M1399.46 257.96V171l-52.61.01v316.56h241.67c45.24 0 67.13-21.89 67.13-67.14V325.1c0-45.24-21.89-67.13-67.13-67.13h-189.06zm0 184.66V302.91h180.49c15.66 0 23.09 7.43 23.09 23.09v93.53c0 15.66-7.43 23.1-23.09 23.1h-180.49"
      style="fill:#545f6a;fill-opacity:1;fill-rule:evenodd;stroke:none"
      transform="matrix(.23744 0 0 -.23744 -.64 204.1)" />
</svg>