<svg xmlns="http://www.w3.org/2000/svg" xml:space="preserve" width="539.40" height="167.4" x="0" y="0" version="1.1"
	viewBox="0 0 539.4 167.4">
	<style>
		.st1 {
			fill: #603352
		}

		.st2 {
			fill: #fff
		}
	</style>
	<path d="M48.1 4.7c-24 0-43.6 19.6-43.6 43.6v71.1c0 24 19.6 43.6 43.6 43.6h71.1c24 0 43.6-19.6 43.6-43.6V4.7H48.1z"
		style="fill:#f47920" />
	<path
		d="M265.5 108.7c-1.3-1-3.1-.9-4.2.7-3.1 4.2-8.4 8.4-14.9 8.4-10.5-.1-14.4-7.3-14.4-14.2v-1.3l25.7-13.7.2-.1c5.6-3 8.5-8.1 8.6-14.7.1-8.6-6.5-17.7-19.5-17.8h-2.1c-13 .1-19.6 9.2-19.6 17.8V104c.1 11.4 8 19.8 21.1 19.9 9.3.1 16.3-5.4 19.7-10.8.8-1.4 1-3.2-.6-4.4zm-33.6-35.1c0-3.8 2.5-11.5 12.9-11.7h2.2c10.4.2 13 7.9 13 11.7 0 4.5-2.2 6.8-4.4 8.2l-23.8 12.7c0-8.8.1-20.9.1-20.9zM316.4 71.6c0-7.8-7.9-15.8-19.9-15.8-1.5 0-3.7.2-5.6.8-2.9.7-6.5 2.5-8.7 4.6-1.3 1.3-1.3 3.2 0 4.4 1.2 1.2 3 1.2 4.8-.2 2.6-2.1 5.5-3.5 9.5-3.5 10.6.1 13.2 7.9 13.2 11.7v.8S288 86.1 283.3 88.6c-4.7 2.5-8.2 7.5-8.3 14.8-.1 10.8 6.8 19.1 18.4 20.2 1.5.1 3.7.1 4.6 0 11.1-1.1 18.5-9.5 18.5-18.9 0-9.4-.1-26-.1-33.1zm-6.6 31.9c0 6.7-3.9 13.7-14.1 14-10.1-.3-13.8-7.3-13.9-14-.1-6.5 4.4-8.7 7.3-10.3 2.9-1.6 20.7-11.1 20.7-11.1v21.4zM515.3 55.9h-2.1c-13 .1-19.5 9.2-19.5 17.8v32.4c-.1 8.6 6.5 17.7 19.5 17.8h2.1c5.4 0 9.6-1.7 12.8-4.2v6.9c.1 6.5-4.4 8.6-8 10.6-2 1.1-15.7 8.4-16.6 8.9-1 .6-2 2.5-1 4.4 1 1.9 3.1 2 4.1 1.5 1.1-.5 19.8-10.6 19.8-10.6l.1-.1c4.9-2.8 8.5-7.4 8.5-14.7l.1-3.7V74.4c0-9.4-6.8-18.4-19.8-18.5zm13.1 50.2c0 3.8-2.6 11.5-12.9 11.7h-2.3c-10.4-.2-13-7.8-12.9-11.6V73.5c0-3.8 2.6-11.4 12.9-11.6h2.3c10.4.2 13 7.9 12.9 11.7v32.5z"
		class="st1" />
	<path
		d="M116.9 124c-9.3.1-16.3-5.4-19.7-10.9-.9-1.4-1-3.2.5-4.4 1.3-1 3.1-.9 4.3.7 3.1 4.2 8.4 8.4 14.9 8.4 10.5-.1 14.5-7.5 14.4-14.2-.1-12.2-14.7-12.3-14.7-12.3-12.4-.6-19.7-7.3-19.8-17.5-.1-8.6 6.5-17.7 19.5-17.8 5.7 0 11.2 2.3 14.3 5.4 1.3 1.2 1.3 3.2 0 4.4-1.2 1.1-3 1.2-4.8-.2-2.6-2.1-5.6-3.5-9.5-3.5-10.6.1-13.2 7.9-13.2 11.7.1 10.6 13.2 11.5 13.2 11.5 11.3.6 21.4 5.5 21.5 18.3.2 11.4-7.7 20.3-20.9 20.4zM43 40.8c0-2.5-2-4.4-4.5-4.4s-4.4 2-4.4 4.5 2 4.4 4.5 4.4 4.4-2 4.4-4.5zM38.5 123.9c-1.8 0-3.2-1.3-3.2-2.9V58.8c0-1.6 1.5-2.9 3.2-2.9s3.2 1.3 3.2 2.9v62.1c.1 1.7-1.4 3-3.2 3zM88.6 118.8c-.4-1.7-2.2-2.7-3.9-2.3-6.8 1.8-12 1.4-15.4-1-2.2-1.6-4.9-5-5.3-12.3v-.2c-.1-1.4-.1-20.6 0-40.7h21.2c1.8 0 3.2-1.4 3.2-3.2 0-1.8-1.4-3.2-3.2-3.2H63.9V38.2c0-1.8-1.4-3.2-3.2-3.2-1.8 0-3.2 1.4-3.2 3.2 0 6.4-.2 62.6 0 65.2v.2c.5 9.8 4.6 14.7 7.9 17.1 3.1 2.3 7 3.4 11.5 3.4 2.8 0 6-.4 9.4-1.3 1.7-.6 2.7-2.3 2.3-4z"
		class="st2" />
	<path
		d="M215.8 116.5c-6.8 1.8-12 1.4-15.4-1-2.2-1.6-4.9-5-5.3-12.3v-.2c-.1-1.4-.1-20.6 0-40.7V38.2c0-1.8-1.4-3.2-3.2-3.2-1.8 0-3.2 1.4-3.2 3.2 0 6.4-.1 62.6 0 65.2v.2c.5 9.8 4.6 14.7 7.9 17.1 3.1 2.3 7 3.4 11.5 3.4 2.9 0 6-.4 9.4-1.3 1.7-.5 2.7-2.2 2.3-3.9-.5-1.9-2.3-2.9-4-2.4zM331.4 123.8c-1.8 0-3.2-1.4-3.2-3.2l.1-43.4c0-1.1-.1-11.5 7.3-17.4 5.2-4.1 12.5-5 21.7-2.6 1.7.5 2.8 2.2 2.3 3.9-.5 1.7-2.2 2.8-3.9 2.3-7.1-1.9-12.5-1.4-16 1.4-5.1 4.1-4.9 12.1-4.9 12.2v.1l-.1 43.4a3.4 3.4 0 0 1-3.3 3.3zM429.2 40.6c0-2.5-2-4.4-4.5-4.4s-4.4 2-4.4 4.5 2 4.4 4.5 4.4c2.6-.1 4.5-2 4.4-4.5zM424.8 123.9c-1.8 0-3.2-1.3-3.2-2.9V58.8c0-1.6 1.5-2.9 3.2-2.9 1.8 0 3.2 1.3 3.2 2.9v62.1c.1 1.7-1.4 3-3.2 3zM405.8 123.9c-1.8 0-3.2-1.4-3.2-3.2 0-.2.1-24.2 0-47.2 0-7.3-7.3-11.1-14.5-11.1-6.8 0-13.7 3.3-13.8 10.8-.3 22.6-.5 47.3-.5 47.5 0 1.8-1.5 3.2-3.2 3.2-1.8 0-3.2-1.5-3.2-3.2 0-.2.2-24.9.5-47.5 0-8.3 6.4-17.2 20.2-17.2 10.4 0 20.9 6 21 17.5.1 23.1 0 47 0 47.3-.1 1.6-1.5 3.1-3.3 3.1zM478.6 123.9c-1.8 0-3.2-1.4-3.2-3.2 0-.2.1-24.2 0-47.2 0-7.3-7.3-11.1-14.5-11.1-6.8 0-13.7 3.3-13.8 10.8-.3 22.6-.5 47.3-.5 47.5 0 1.8-1.5 3.2-3.2 3.2-1.8 0-3.2-1.5-3.2-3.2 0-.2.2-24.9.5-47.5 0-8.3 6.4-17.2 20.2-17.2 10.4 0 20.9 6 21 17.5.1 23.1 0 47 0 47.3-.1 1.6-1.5 3.1-3.3 3.1z"
		class="st1" />
</svg>