<svg class="bio" xmlns="http://www.w3.org/2000/svg" height="170" width="170" xmlns:xlink="http://www.w3.org/1999/xlink" viewBox="0 0 43.5 43.5"><g id="bio"> <path class="blue" d="M33.5 20.6l-.7 2c-.1.4-1 1.8-1 1.8s-.6.5-2.6 1.2-6.5 1.5-8.2 1.6c-1.6 0-5.3.2-7.4-.6s-2.8-1.3-2.8-1.3-1-.5-1.2-1-.6-.9-.6-.9-.5-.9-.3-1.7.5-2.3 2-4.7 3.3-3.7 4.7-3.9 3.4-1 5.2-.7c1.7.3 6.9 2.2 8.3 3.9 1.5 1.7 4.6 4.3 4.6 4.3z" transform="matrix(1.1 0 0 1.1 -3.9 -1.7)"/> <path class="green" d="M14 26.8s1.4 2.3 3.5 2.4 1.3 0 1.3 0l-1.3-2s-2.4 0-3.5-.4zm6.6-14.4a15 15 0 0 0 2.1-2.3c0-.2 0-.2-.8 0s-2 .9-2.3.9c-.3 0-2.2 1.4-2.2 1.4l-.1.2 3.3-.2z" transform="matrix(1.1 0 0 1.1 -3.9 -1.7)"/> <path d="M14.5 18.4v-1c0-.4-.4-.6-.8-.4-.5.2-.8.8-.6 1.4h1.4z" fill="#eee" transform="matrix(1.1 0 0 1.1 -3.9 -1.7)"/> <path class="blue" d="M31.8 24.4s.5-.3.7 0c.3.2 2.5 1.9 4.1 2.3 1.7.4 1.8.3 1.8-.2s-.7-3-1-3.3c-.5-.4-.9-1-.9-1l2.2-3c.5-.6.4-2.6.2-2.4a22 22 0 0 0-3.1 2.3l-1.6 1.8-.7-.3-1.7 3.8z" transform="matrix(1.1 0 0 1.1 -3.9 -1.7)"/> <path class="green" id="star" d="M24.2 32.7c.5 0 1 .2 1.3.4l1 .5v.3c0 .2-.1.2-.3.2H26l-1.5-.5h-.3v.4l.2.4c.2.4.4.9.4 1.3l-.1.4c-.2 0-.3 0-.4-.2l-.7-.9-.6-1-.1-.1-1 .6-1.1.5c-.3-.3-.2-.6-.1-.8.1-.4.3-.7.7-.8l.4-.2-.3-.2-1.4-.8-.4-.3-.2-.4h.6c.5 0 1 .1 1.4.4l1 .5-.1-.4-.1-1.4c0-.2 0-.4.2-.6.2-.2.3-.3.5 0l.4.7.2 1v.3c.2 0 .3-.1.3-.2l.9-.8.2-.1s.1.2 0 .2c-.1.5-.3 1-.6 1.4l-.2.3z" transform="matrix(1.1 0 0 1.1 -3.9 -1.7)"/> <g transform="matrix(1.1 0 0 1.1 -3.9 -1.7)"> <path id="XMLID_179_" d="M17.8 27.5l.4.4.8 1.1c.1.2 0 .4-.3.5a5.2 5.2 0 0 1-4.9-2.6l-.2-.2-2-.8a5 5 0 0 1-2.4-2l-.2-.3-.3.4-.5.9c-.3.5-.7.6-1.2.7-.6 0-.9-.4-.8-1 .1-.5.4-1 .7-1.4l-.4-1.1V21c0-.6.6-.9 1.1-.7.4.2.7.5.9.9 0 0 0 .2.2.3l.3-1c.6-1.8 1.4-3.5 2.7-5 .8-1 1.8-1.7 3-2.1l1.6-.6 1-.5a8 8 0 0 1 2.4-1.5l3.1-1.2h.1l-.1.6-1.4 1.7-.4.4 1.2.4a16 16 0 0 1 5.3 2.4c1.4 1 2.5 2.2 3.8 3.3l2.5 2.1c.4.3.4.3.7 0l1.3-1.5c.9-.9 1.8-1.6 2.8-2.2l.5-.2.1.7c0 .7-.2 1.4-.6 2l-1.8 2.8v.4c.6.4 1 1 1.2 1.6l.5 2c0 .3 0 .7-.2 1l-1.5-.3c-1.2-.3-2.3-.8-3.4-1.4a4 4 0 0 1-.8-.7c-.4-.3-.4-.4-.8-.2l-1.9 1-3 .8a28 28 0 0 1-9 1.1v.1zm19-4.6l-.3-.4V22l.6-.8.7-1c-.3-.1-.2-.3-.1-.6l.5-1.7v-.6l-.9.6c.2.5 0 .9-.1 1.3l-.4 1.3-.5 1.2L36 23l-.6 1.2c-.1.4-.2.8-.5 1.2-.2-.3 0-.5 0-.7l2.3-6v-.5l-.8.6-.1.2v.6L35 23l-.7 1.9c0 .2-.2.3-.4.2.4-1 .8-2 1-2.9.4-1 .8-2 .8-3-.5.5-1 1-1 1.8v.1l-1.1 3-.3.7c-.3-.2-.1-.4 0-.6l1-2.6.2-.6c-.4-.1-.5 0-.5.3-.2.8-.7 1.6-1 2.3-.1.3-.3.4-.5.5l.2-.6 1-2.4c.1-.2 0-.3-.2-.3l-.6 1.6L32 24c-.2-.3 0-.5 0-.7.6-.7 1-1.5 1.2-2.4 0-.2 0-.4-.2-.6l-1-.7-2.7-2.6a16.5 16.5 0 0 0-8-4.3h-.9c.6 1.7.7 3.4.9 5.2.6-.2 1.1-.3 1.6-.8.4-.4.5-.9.4-1.4-.2-.6-.6-.9-1.1-1h-1c.4-.3.9-.2 1.3-.1.7.1 1 .7 1.1 1.2h.8c.9.2 1.7 1 1.5 2 0 .4-.3.8-.5 1.1l-.6.8c.8.2.8.2 1.4.9h.5c.7-.1 1.2-.8 1.1-1.5 0-.7-.4-1-1-1H26l.3-.2c.9-.3 1.7.1 1.9 1 .2.8-.2 1.5-1 1.8-.2.2-.5.2-.7.3v.3c0 1.1-.6 1.6-1.6 2h-.4c-.3.1-.5.2-.5.6-.2.6-.5 1-1.2 1.2l-1.6.2c-.1 0-.4.1-.4-.2 0-.2.3-.1.4-.1.5 0 1 0 1.5-.2.7-.1 1-.8 1-1.4 0-.7-.6-1.3-1.3-1.4-.2 0-.4 0-.5-.4l.3-.1.8-.3c1-.4 1-1.4.4-2.2-.6-.5-1.2-.8-2-.9 0 1 0 2-.2 3 0 1-.2 2-.4 3l-.9 3h.2l3.2-.2h.3c1-.3 2.2-.4 3.3-.8l1.7-.4c1.1-.4 2.2-.9 3.2-1.5.3-.1.5-.2.8 0l.6.7 1.8 1 .3.1.2-.3 1-2.3c0-.2.2-.3.3-.5l-.1.6-1 2.6c.4.3 1 .4 1.4.5h.4c.2-.3.2-.7.7-.9l-.7-2c-.1-.3-.3-.7-.7-.8zm-27.9.3l.4.5c.3.5.7 1 1.3 1.3l1.8 1c2.1 1 4.4 1.3 6.8 1.2.1 0 .3 0 .4-.3l.8-2 .3-1.5a22 22 0 0 0-.3-10.3c-.1-.4-.2-.5-.7-.5a12 12 0 0 0-6.6 1.8c-1 .7-1.8 1.7-2.5 2.8l-1.1 2.4-.6 2.4c0 .1 0 .3-.3.3l-.2-.8c-.1-.4-.4-.7-.7-.9-.4-.2-.8 0-1 .4v1l.5 1.3-.2.3c-.3.3-.4.7-.5 1 0 .5.1.7.5.7s.7-.1.9-.4l.8-1.2.2-.5zm15.2-3.4l.3-.1c.6-.4 1-.9 1.2-1.5.2-.5.3-1-.1-1.5-.3-.3-.7-.5-1-.6-.6 0-.8 0-1 .6l-.5.7-.7.5c.8.5 1.5 1 1.8 1.9zm0 3.4l1-.3c1-.3 1.2-1.2 1-2a1 1 0 0 0-.6-.7c-.4-.2-.9-.2-1.3 0-.1.7-.7 1.1-1.4 1.4l1.3 1.6zm-6.5-10.9l.1.1h1.9c.6 0 1-.2 1.5-.6l1.2-1.3.1-.4-1.2.3-2 .9c-.7.2-1 .7-1.6 1zm1 16.8c-.2-.5-1-1.5-1.5-1.7H17c-.7 0-1.5-.1-2.2-.4h-.4a4.3 4.3 0 0 0 4.3 2zm20.3-12c-.3 0-.4.1-.4.3l-.4 1.7-.2.8c.6-.4 1.1-2 1-2.8zm-.7 9.6l-.1-.6-.3.6h.4z"/> <path id="XMLID_176_" d="M12.9 18.2V18c-.1-.6.3-.9.7-1.2.4-.2.9 0 1 .4l.1.3c0 .7 0 1.4-.3 2-.1.4-.3.7-.7.7-.4 0-.5-.4-.6-.7-.2-.4-.2-.8-.2-1.3zm1.6.1v-1c-.1-.3-.4-.4-.8-.3-.5.2-.7.8-.5 1.3h1.3z"/> <path id="XMLID_175_" d="M36.2 26l1-2.5c.2.3 0 .5 0 .7-.4 1.3-.6 1.7-1 1.8z"/> <path id="XMLID_174_" d="M37.6 25c0 .4-.1.9-.5 1.3 0 0-.1-.2 0-.2 0-.4.2-.8.5-1.2z"/> <path d="M24.3 32.7c.6 0 1 .1 1.5.3l1 .7.1.3-.3.2h-.2l-1.8-.5-.3-.1.1.5.2.4.4 1.5-.1.3c-.2.1-.3 0-.4 0l-.8-1.1L23 34l-.1-.2-1.1.7-1.2.6a1 1 0 0 1-.2-1c.2-.4.5-.6.8-.8l.5-.2-.4-.2c-.5-.2-1-.6-1.4-.9l-.5-.3c-.2-.1-.2-.2-.2-.4.2-.2.4-.2.6-.2.6 0 1 .3 1.6.5l1 .6v-.4l-.2-1.6.3-.7c.1-.2.3-.2.5 0l.4.8.3 1.2v.2c.2 0 .3 0 .4-.2l.9-.9s.2-.2.3 0v.2c-.2.5-.4 1-.8 1.5l-.2.4zm-.9-1c0-.5-.1-1.1-.4-1.7l-.1-.2h-.3l-.1.4v1.1l.3.9c0 .1.1.2.3.1.3 0 .3-.1.3-.6zm-.7 1.7c-1.1-.2-2.2.4-2 1.2.2.1.4 0 .6-.2.5-.2 1-.5 1.4-1zm-.1-.5l-.4-.3c-.5-.7-1.3-1-2-1.1h-.4c.3.5 1.9 1.3 2.8 1.4zm.7 1.2c.1.5 1 1.6 1.4 1.7v-.2l-.8-1.4-.2-.2h-.4zm3.2-.2c0-.2-.1-.3-.2-.3-.4-.3-.8-.5-1.3-.6h-.8c.4.5 1.9 1 2.3.9zm-1.8-2.6h-.2a12.7 12.7 0 0 0-.7 1.1v.2c.5-.3 1-1 1-1.3zm-1 1.5c-.3-.2-.5-.2-.6 0-.1 0 0 .2 0 .4h.4l.1-.4z"/> </g> </g> <g id="XMLID_41_" class="st2"> <defs> <path id="XMLID_39_" d="M1963.5-1954.6h237v279h-237z"/> </defs> <clipPath id="XMLID_2_" class="st3"> <use xlink:href="#XMLID_39_" overflow="visible"/> </clipPath> </g> </svg>