<svg version="1.1" xmlns="http://www.w3.org/2000/svg" x="0" y="0" viewBox="0 0 170.1 170.1" xml:space="preserve">
  <path class="st0" style="fill:#007ec1;" d="M73.1 52l-.3.2c-.3-.2-1.4-.2-1.8 0-.3.1-.5.2-.9.1a15.7 15.7 0 00-4.7.2c-.1-.2-2.7.1-2.7.3h-.3c-.4-.1-1.6.2-2 .6-.2.2-.4.2-.7.1-.4-.2-1.3-.1-1.1.2.1.1 0 .1-.2.1-.3-.1-.3-.1-.2.1.1.1 0 .3-.1.3s-.1.1.1.2c.3.2.3.2-.2.2l-.5-.1c0-.2-.8-.2-1.1.1-.2.2-.3.2-.6.1-.6-.2-.7-.2-.6.1.1.2 0 .2-.2.2-.3 0-.3 0 0 .2.2.2.4.2.7 0l.5-.3c.1-.1.2 0 .3.3.2.4.2.4-.1.6-.2.2-.4.2-.4 0-.1-.2-.5-.3-.5 0l.3.6c.2.4.3.5.9.5l.7-.2.6-.1c.3.1.4 0 .4 0-.1-.2.6-.1.8.1l.2.1c0-.1.6-.2 1.5-.2 2.7 0 4.1-.1 4.1-.3 0-.2.4-.3.5 0 .1.2 1.3.4 1.4.2h1.2c1.4.2 3.3.1 3.4-.1.1-.3.4-.3.4 0l.2.2c.2 0 .2-.1.2-.4V56l.3.2.2.2c0 .2.2.2.6.2.5 0 .6-.1.6-.2 0-.3.1-.3.5 0 .2.1.7.3 1.3.3.9 0 1 0 1.4-.4l.4-.5-.3-.5-.3-.6c.1-.1.9.7.9.9l.2.2c.3 0 .1.3-.2.4-.8.2-.2.4 1.1.4l1.4.1c.1.1.7.2.7 0s1.6-.1 1.9.1c.1.1.2 0 .3-.1.1-.3.5-.3.5 0 0 .2.1.2.3.1l.5-.1c.1.1.2 0 .2-.2 0-.3.1-.3.5.2.4.4.5.4.6.2.1-.3.1-.3.5 0 .3.3 1.5.3 1.4 0-.1-.3.3-.3.5 0l1 .2c.4 0 .7.1.7.2s.1.1.2 0 .2-.2.3-.1c.1.1 1.6.3 3.3.3 1.2 0 1.8.1 1.9.3.1.2.7.3 1.7.1.5-.1.6-.1.5.1-.1.1 0 .2.1.1s.3 0 .4 0l.3.1h.4c.3.2.8.2.8 0 0-.1.1-.1.2 0l.6.2c.2 0 .7.1 1 .3l1 .2c.2-.1.6 0 .8.1h.5c0-.1.2-.1.4 0l.5.1c.1-.1.2 0 .2.2s.1.3.4.3l.4-.2c0-.1.1-.1.3.1.3.3.6.4.5.1 0-.1 0-.2.2-.3.2-.2.2-.1.2.2 0 .4.2.5.4.2.1-.1.2-.2.3-.1.1 0 .1 0 0 .1-.4.2-.2.4.3.4l.6.2.3.1c.1-.1.3 0 .4.1l1.1.2 1.1.2.5.2.5.2c.2.2.2.1.4-.1.2-.3.5-.4.3-.1-.1.1 0 .2.1.2.5.1 1.3.5 1.2.7-.1.1 0 .2.7.2l.4.1c.1.1.2.1.2 0l.4.1.6.2.2.2c0 .1.1.2.4.3.3.2.4.1.4-.1s0-.2.3 0l.5.3.2.1c0 .2 1.3.8 1.8.8.3 0 .5.1.6.3.1.2.3.3.5.3s.2-.1.2-.2c-.1-.1 0-.2 0-.2.2 0 .5.4.5.7 0 .3.2.4 1 .5l.5.2.7.2c.1 0 .2.1.2.3 0 .2.1.2.2.2.1-.1.3 0 .3.1l.3.2c.1 0 .6.4 1.1 1l1.1.9.4.3.5.3c.1 0 .3.1.4.4.1.3.2.3.3.2.1-.4.4-.2.4.3l.2.7.3.6c0 .3.2.5.5.6.6.3 1.4 1.2 1.4 1.5 0 .3.3.4.4.1.1-.1.1-.1.1 0s.2.4.5.6c.3.3.5.6.5 1s.1.6.4.7c.2.1.3.2.4.5 0 .2.4.8.8 1.3a6.3 6.3 0 011.3 2.3l.5 1c.1 0 .3.2.3.4.1.6.1.6-.3.5-.3-.1-.3-.1-.1.1.2.1.3.3.3.4 0 .4.4 1.1.7 1.1.2.1.3.2.3.9l.2 1.2c.2.3.1.5 0 .6-.2.1-.2.2.1.4.3.2.3.2 0 .3-.2.1-.2.2.2.6l.4.7.1.7c.2.9.1 1.8-.2 1.9-.2.1-.2.2 0 .6l.4.4.1.4-.1 1.1-.2.8c-.1.1 0 .3.2.5.2.4.2.4-.1.8l-.3.5c.1.1 0 .2-.1.2-.2.1-.2.2 0 .5.1.3.2.5 0 .8-.1.2-.1.3.1.4.1.1.2.2.1.4-.1.4-.4.4-.4 0 0-.2-.1-.1-.2.2-.2.3-.2.5-.1.6l.1.3c-.1.1 0 .3.1.4.2.3.2.7-.1 1-.1.1-.1.1 0 .1l.1.4c0 .3-.2.4-.4.4s-.3.1-.2.4c0 .2 0 .5-.2.5l-.2.6c0 .8-.2 1.5-.3 1.5-.1 0-.2 0-.2.2-.1.1 0 .2.1.2v.3c-.1.2-.3.3-.5.2-.4-.1-.4.1-.1.4.2.2.2.2 0 .3l-.2.3-.3.5c-.3.2-.3.4-.2.9.1.5.1.7-.2.9-.2.2-.3.3-.2.4.1.1 0 .1-.1.1s-.3.2-.3.5c-.1.3-.2.6-.5.7-.4.2-.8.8-.7.9.1.1.2 0 .2-.1.1-.2.2-.2.2 0l-.3.5-.3.5-.2.2c-.3 0-.6.5-.4.8.1.1.1.2 0 .2s-.2.1-.1.2 0 .2-.1.2l-.2.2c0 .1-.1.3-.3.3-.2.1-.3.2-.3.4s-.1.3-.2.3l-.1.2c.1.1 0 .2-.1.3-.1.1-.2 0-.3-.1-.1-.1-.2.1-.3.5-.1.4-.3.7-.5.7-.1 0-.5.2-.7.5l-.6.5-.1.3-.2.5-.2.4-.2.2c-.1 0-.3.2-.3.4-.1.4-1.2 1.4-1.6 1.4-.2 0-2.6 2.3-2.7 2.7-.1.2-.2.2-.3.2-.1-.1-.3.1-.5.4-.3.4-.4.5-.5.3-.1-.2-.2-.1-.6.3-.2.3-.5.5-.6.5l-.5.4-.5.4-.4.2-.9.6-.7.5-.2.1-.4.2c-.1.1-.5.5-1.1.8l-1.1.9c-.1.2-.4.3-.7.4l-1 .5-.7.4a3 3 0 00-.9.4l-.8.4c-.2 0-1.1.5-1.1.7 0 .3-.5.6-1 .6a3 3 0 00-1.3.5c-.4.3-.9.5-1.1.5l-1.1.5c-.4.3-1 .5-1.3.6l-.9.5c-.4.4-.6.4-1.2.4l-1.1.4-1.7.7-1.1.5a1 1 0 01-.6.2c-.6 0-2.2.4-3 .8a3 3 0 01-1.2.3c-.4 0-.6.1-.6.2 0 .2-.2.2-.9.2l-1 .2-.4.2-.6.3c-.2.2-.4.2-.6.2h-.5l-.7.1c-.5 0-.6 0-.5.4.1.4.1.4-.1.2-.2-.3-.8-.5-.8-.3l-.3.3c-.3.2-.4.2-.6 0-.3-.2-1.1.1-1.5.5-.1.2-.2.2-.2 0 0-.3-1.1-.2-1.3 0-.1.1-.2.1-.3-.1-.1-.2-.2-.2-.2 0l-1 .2-1.1.2-2.4.3a11 11 0 00-2.3.3l-1.8.2c-.9 0-1.7.1-1.7.2-.1.1-.2 0-.3-.1h-.6l-1.3.1-1.1.1-.6.1c-1-.2-1.3-.3-1.5-.2h-1.4l-1.2.2c-.1.1-.1.1-.1 0s-.1-.2-.2-.1l-.2.3-.3.4c-.3.2-.3.1-.2-.3.1-.4 0-.5-.2-.6-.4-.1-1.1 0-1.4.2-.2.1-.3.1-.5-.1l-1.3-.2-1.3-.2c-.2-.1-.4-.2-.6-.1-.2 0-.5 0-.8-.2l-.9-.3c-.3 0-.4.1-.3.3.1.2 0 .2-.2-.1-.2-.3-.5-.4-1-.4s-.8.1-.8.2l-.1-.2-.3-.4-.4-.1c-.2-.1-.3-.1-.4 0-.1.1-.2 0-.2-.1 0-.3-.6-.2-.7.1-.1.2-.1.2-.1 0s-.2-.3-.7-.4c-.5-.1-.7-.2-.7-.3 0-.1-.1-.2-.2-.1-.2.1-.2.1-.1.3.1.1.1.2 0 .2-.2 0-.7-.5-.7-.8 0-.3-.8-.2-1.2.1-.5.3-.7.2-.4-.2.2-.2.1-.3-.2-.3-.2-.1-.5-.2-.6-.4-.1-.2-.2-.2-.3 0-.1.2-.1.1-.1-.3.1-.4 0-.5-.1-.5l-.3-.2-.5-.2c-.9-.1-1-.2-1.4-.6l-.7-.4c-.4 0-.9-.3-1.3-.9l-.6-.4a.8.8 0 01-.4-.2c-.2-.2-.2-.2-.2 0 0 .5-.9.3-1.5-.4-.3-.3-.6-.6-.5-.7l-.1-.3a.8.8 0 01-.2-.4v-.1c-.2.3-.4.1-.4-.3s-.1-.4-.4-.5l-.5-.2-.2-.2-.1.2c.1.1 0 .2 0 .2-.3 0-.3-.6 0-.8.5-.3.4-.7-.1-.6-.3.1-.5 0-.8-.3-.2-.2-.4-.4-.3-.5 0 0 0-.2-.2-.3-.2-.1-.3-.3-.3-.4l-.2-.2-.3-.3-.5-.6c-.3-.2-.4-.5-.4-.9 0-.5-.2-.8-.6-1.2-.5-.5-.6-.7-.6-1.6 0-.9-.1-1.1-.4-1.4-.4-.4-.4-.4-.1-.5.3-.1.3-.2.2-.4l-.2-1.2c0-.7-.1-.9-.3-.9l-.4-.4c-.2-.6-.3-1.7-.1-1.7.1 0 .1-.2 0-.4l-.2-.6c0-.2.1-.5.4-.8.5-.6.6-.8.3-.8-.1 0-.2-.3-.2-1.2a4 4 0 00-.1-1.1c-.1.1-.1-.1 0-.4l.2-1 .2-.5c.1 0 .2-.3.2-2.3 0-.8 0-1.1.2-1 .3.1.4-.3.2-.8-.2-.4-.1-.9.2-.9l.2.2.1-.3v-.5l-.1-.4c0-.2 0-.3.1-.2.1.2.1.1.4-.1.4-.4.4-.7 0-.7-.2 0-.3.1-.3.3 0 .2 0 .2-.2 0-.3-.3-.3-.4 0-.4l.2-.2.3-.1c.4.1 1-.9 1-1.5 0-.3.1-.5.2-.5.2 0 .5-.5.4-.8l.4-.7c.4-.5.4-.5.2-.7-.4-.3-.3-.4.2-.5.5-.1.7-.6.3-.8l-.1-.3c.1-.1 0-.2-.1-.3-.1-.1-.1-.2.1-.3.3-.2.3-.2.3 0 0 .4.3.3.5-.2.1-.3.3-.5.5-.5s.3-.1.2-.3c-.1-.2 0-.4.2-.5.2-.1.3-.3.2-.5 0-.2 0-.3.1-.2.3.1.8-1.1.8-2 0-.5.1-.8.3-.8.2-.1.2 0 0 .1s-.2.2 0 .6l.2.4.4-.5.3-.8c0-.2 0-.3.1-.2.3.1 1-.6 1-1s.5-1 .8-1l.2-.2.2-.2c.3 0 .8-1.1.7-1.5-.1-.3-.1-.3.1-.1.2.3.7 0 .9-.4l.3-.2.2-.2c-.1-.1 0-.1.2-.1.2.1.2 0 .2-.6 0-.8-.2-1-.7-.5l-.4.2c-.3-.2-.2-.4.4-.5l1-.5c.4-.3.5-.3.7-.2l.4.2c.1 0 .1-.1 0-.1-.2-.1-.1-.7.1-.7.1 0 .1-.2 0-.4-.2-.4-.1-.7.2-.7l.1.3.1.3c.4 0 .4 0 .4-.2l-.2-.2-.1-.1c.1-.1.2 0 .3.2.1.2.2.2.3.1.1-.1.1-.1.2 0s.2.2.3 0l.6-.2.8-.4.7-.5c.2-.1.4-.3.4-.5l.2-.4.1-.1.2-.1.3-.1c0-.3-.4-.5-.6-.4-.2.1-.2 0-.1-.2l.3-.3.1-.2c-.1-.2 0-.2.2-.2l.4-.2c.1-.2 1.1-.2 1.2 0h.5c.4-.1.4-.2.4-.6 0-.7.2-.8.4-.4.2.3.6.4.4.1l-.1-.6c.1.1.2.2.3.1.2-.1.2-.1 0-.3-.2-.1-.2-.4-.2-.7.1-.6.5-.9.5-.3 0 .2.1.3.3.2.2-.1.2-.2-.1-.5-.4-.4-.4-.4-.7-.1-.2.2-.2.4-.2.6.1.2 0 .4-.1.4l-.2.3c.2.4-.6.2-1-.3-.4-.4-.4-.5-.6-.2-.1.2-.3.3-.4.3l-.2.2c0 .2.1.2.6.1l.6-.1-.4.3c-.3.3-.4.3-.1.3.2 0 .3.1.3.4 0 .3-.1.4-.5.4-.5 0-.7-.2-.3-.3.1 0 .1-.1-.1-.2s-.3 0-.3.1c0 .3-.4.3-.5 0l-.3-.2-.1.2c.1.1 0 .2-.2.1s-.3 0-.3.2c0 .3-.6.7-.8.6-.1-.1-.2.2-.2.6l-.2 1.3c-.1.3-.2.6-.1.7h-.3c-.3-.1-.3-.1-.1-.4.2-.4.4-2 .2-2s-.8.6-.8.8c0 .1-.2.2-.5.2s-.5.1-.5.2-.2.4-.5.5c-.3.2-.5.4-.5.7l-.2.4c-.3 0-.3-.3 0-.4.1-.1 0 0-.2 0-.6.1-1.1.9-.6.9.1 0 .1 0 0 .1l-.3.5c-.1.3-.1.4.1.3.1-.1.3 0 .3.1l-.3.1c-.2 0-.3-.2-.3-.3 0-.2-.1-.3-.4-.3-.6 0-.9.4-.7.9.3.6.2.6-.5.3-.6-.3-.6-.3-.8.4l.1.4c.1.2.2.2.4-.1.3-.5.5-.5.5 0 0 .4-.1.5-.7.4-.4 0-.4.3.1.6.5.4.6.4.7 0 .1-.3.1-.3.1 0 0 .4-.4.8-.9.8s-.6-.1-.4-.5c.1-.2.1-.4-.3-.8s-.5-.4-.4-.2c.1.3 0 .4-.4.4l-.1.1-.2.5c-.2.3-.3.3-.4.2-.2-.2-.2-.1-.2.1l-.2.3c-.1 0-.4-.1-.4.2 0 .4 0 .5-.2.3-.1-.2-.2-.2-.3 0-.1.2-.3.3-.4.3l-.5.4c-.2.3-.2.5-.1.8.1.3.1.4 0 .4v.3c.1.3.1.3-.4.2-.6-.1-.8-.4-.3-.4.2 0 .2 0 0-.2h-.3l-.3.1-.2.1-.3.5c-.3.3-.3.5-.2.8.1.3 0 .5-.1.5l-.1-.2c.1-.1 0-.2-.1-.2l-.2.4c0 .3-.1.4-.2.4l-.2.2-.4.7-.4.8c0 .2-.1.3-.3.3-.3 0-.7.6-.8 1.1 0 .7-.1.8-.3.8l-.1-.4c.1-.3.1-.3-.1-.1-.1.2-.2.4-.1.5.1.1-.1.3-.3.3-.4.1-.5.3-.4 1.1 0 .3 0 .4-.2.4l-.3.2-.2.2-.1.3c.1.2 0 .4-.3.7-.4.3-.6.8-.3.8s.2.3-.2.5c-.2.1-.4.3-.4.5l-.3.6c-.2.2-.3.3-.1.5.1.2.1.2-.1.2s-.2 0-.1.2c.1.1.1.3-.1.5-.3.3-.3.8.1.8.3 0-.1.8-.4.9-.4.1-.4.9 0 .9.2 0 .1.1-.2.2-.5.1-.5.2-.5.8 0 .5 0 .6-.2.5-.2-.1-.2.1-.1 1.3v1.4c-.2 0-.4 1-.2 1.2.1.1.1.2-.1.5s-.3.4-.1.6c.1.2.2.2.3.1.1-.1.1-.1.2 0 .1.2-.1.2-.5.2-.1 0-.2.1-.1.2v.3l-.1.4-.1.9c-.1.4 0 .8.1 1 .1.3.2.6.1.9-.1.3 0 .5.1.6.2.1.2.2 0 .3-.2.1-.2.2 0 .3.2.1.3.5.4 1 .1.6.1.8-.1.8l-.1-.3c.1-.3-.4-.3-.7-.1-.1.1-.1.3.1.8.2.4.3.7.2 1-.1.3 0 .5.2.6l.2.6.4 1 .2.6c-.1 0-.2.1-.2.3 0 .2.1.2.2.2.2-.1.2 0 .1.2s0 .2.1.1c.2-.1.2-.1 0 .5-.2.4-.1.6.2 1.2l1.3 1.7c1 1.1 1 1.2.7 1.1-.1-.1-.2 0-.2.1 0 .3.2.5.5.7.2.1.3.2.2.5l.1.5.2.3.1.2c.1-.1.7.4.7.6 0 .2.6.7.8.7.2 0 .3.1.3.2 0 .3.4.3.5 0 .1-.2.1-.2.1.1l-.2.5c-.3.2-.2.4.3.4.4.1.7.5.7 1 0 .3.1.4.3.5.2 0 .4.2.5.3l.2.1.2-.3c.2-.1.2 0 .1.2s0 .3.3.3.3.1.3.4c0 .2 0 .4.1.3.3-.2.8.1.8.5 0 .3.2.5.6.7.4.2.5.4.5.6-.1.2 0 .2.2.1.1-.1.4.1.6.2.2.2.4.3.6.2.2-.1.2 0 .1.2s0 .2.4.2c.3-.1.5 0 .4 0l.1.4c.1.2.1.2.2 0 0-.4.5-.3.7.2.3.6.3.6.4.4.2-.3.8.5.8.9 0 .2.7.5 1 .5l.4-.4.3-.4v.7c0 .7 0 .7.4.8l.4-.1c-.1-.1 0-.1.1-.1l.2.3c0 .1.1.3.3.3s.3.2.3.3c0 .1.2.2.5.2s.6.1.8.3c.2.2.3.2.4.1.2-.3 1-.1 1 .2 0 .2.9.2 1.3 0 .1-.1.2 0 .2.1 0 .3.3.3.4.1 0-.1.2 0 .5.3.2.2.6.5.9.5l.5.1.8.1.8-.1.7-.1c.7 0 .7 0 .4.2-.3.2-.2.2.3.2l.9.2h.3c0-.2 0-.2.1 0 .1.1.2.2.3.1.1-.1.2 0 .3.2.2.4.5.4.9 0 .3-.3.3-.3.8.1.4.4.6.5 1 .4.2 0 .2-.1 0-.2-.1-.2-.1-.2.1-.3.1-.1.3-.1.4 0l-.1.1-.1.2c.1.3.9.4.9.2 0-.1.1-.1.1 0l.3.2h.3l.2.1.4.2c.2.1.5 0 .8-.1.3-.2.5-.2.5-.1l.3.1.2.1c0 .1 3.4.2 3.9.1.2 0 .1-.3-.2-.4-.4-.1-.4-.4 0-.4l.7-.1c.3-.1.3-.1.1.1a1 1 0 00-.2.6c.1.3.2.3 1.2.3.9 0 1.1 0 1.1-.2s.1-.2.4-.1l1.4.2c.9.1 1.1 0 1.4-.3l.5-.2c.1.3 1.3.2 1.6-.1.1-.1.3-.2.4-.1.3.2.6.2.9 0l.6-.1c.5.1 1-.2 1-.5 0-.1.1-.2.3-.2.2 0 .2.1.2.3-.1.4.4.4.9.1.2-.2.5-.3 1-.2l1-.2c.2-.2.3-.2.3 0 .1.2.8.3.9 0l.3-.1.5-.1.4-.1c.1.1.3-.1.7-.3l.6-.2c0 .2 1.2.1 1.6-.1l.7-.2.8-.2c.2-.1.8-.3 1.3-.3.5-.1.9-.2 1-.4.1-.2.2-.2.2-.1 0 .3 1.1.1 1.3-.1l.7-.2c1-.1 1.5-.3 1.7-.5.2-.2.2-.2.4-.1.3.3.8.2.9-.1.1-.2.2-.3.4-.3l.9-.2c.3-.1.6-.2.8-.1l.5-.2c.2-.2.3-.2.3-.1.1.3.2.3.8-.2l.8-.4c.2 0 .3-.1.3-.2 0-.2.2-.2.7-.2.6 0 2-.5 3.2-1.1l.5-.2c.1 0 .4-.1.5-.3.2-.2.4-.3.5-.2l.2-.1c0-.1.2-.3.6-.3l.7-.3c0-.1.2-.2.3-.1l.2-.1c0-.1.1-.2.3-.2.2 0 .2 0 .1-.1l-.2-.3c0-.3.7-.3.8 0 .1.1.2.1.4-.1l.6-.3.4-.2.5-.2c.3 0 .4-.1.3-.2-.1-.2 0-.2.4-.2l.7-.2.5-.2c.2 0 .3-.1.2-.3-.1-.2.1-.4 1-.7.8-.3 1.3-.6 1.8-1.1l.9-.7.4-.2.4-.2c.1 0 .4-.2.6-.5.2-.3.5-.5.7-.5.2 0 .6-.2.9-.5l.6-.5c.2 0 1.2-.9 1.2-1.1l.2-.2.4-.2c.1-.1.4-.4.8-.5.7-.3 1.4-1.1 1.5-1.5v-.6c0-.3.1-.4.6-.3.5.1.6 0 1.1-.5l.9-.7.4-.3.6-.7.7-.8.3-.3.4-.6.3-.6c.2 0 .9-.7 1-.9.1-.4.2-.5.5-.6l.3-.3c0-.3 1-1.4 1.3-1.4.1 0 .2-.1.1-.4-.1-.4.2-.8.7-.9.2 0 .3-.2.3-.6 0-.7.2-1.1.4-.8.1.2.1.1.1-.1l.2-.4.2-.2.3-.5c.2-.2.3-.4.2-.5l.3-.4c.3-.1.4-.3.4-1 0-.4.2-.9.3-1.1.2-.2.2-.4.1-.7-.1-.3 0-.4.2-.6.2-.1.3-.3.2-.5-.1-.2 0-.3.1-.2.1.1.2 0 .2-.1l.2-.3.1-.2.2-.6c.2-.2.3-.5.3-.9 0-.5 0-.6.3-.5.2.1.2 0 .2-.4-.1-.4 0-.5.2-.6.3-.1.3-.2.2-.5l-.1-.7-.2-.4c-.3-.1-.3-.4 0-.4.4 0 .6-.7.4-1.1-.1-.2-.1-.4.2-1l.5-.7.2-.6-.1-.5c-.1.1-.1-.1 0-.4l.1-1.3c0-.6.1-.8.3-.7.2.1.2 0 .1-.1v-.3V96c.3-.2 0-.7-.3-.6-.3.1-.3-.1-.1-.3.1-.1.1-.2 0-.4-.1-.3-.1-1.3.1-1.4l-.1-.4c-.1-.2-.1-.3.2-.5.2-.1.3-.3.2-.5l-.1-.8-.1-.7-.1-.5c0-.5 0-.8-.2-.7-.1.1-.2 0-.2-.1-.1-.1 0-.2.1-.3.3-.2.2-.5-.1-.3-.2.1-.2-.1-.1-1.2.1-1 .1-1.3-.1-1.3-.1 0-.2-.1-.1-.3.1-.2 0-.7-.1-1.1-.1-.4-.2-.8-.1-.9.1-.1 0-.1-.1-.1s-.2-.1-.1-.2c.1-.3-.2-.5-.3-.2v-.3c.1-.4 0-.5-.2-.5s-.3-.2-.4-.6c-.1-.7-.4-1.2-.7-1.2-.2 0-.2 0 0-.1s.2-.2-.1-.6l-.5-1.2-.5-1.1-.3-.6c0-.2-.1-.3-.2-.2-.2.1-.2 0-.2-.4s-.1-.5-.3-.4c-.2.1-.2 0-.2-.2.1-.1 0-.3-.1-.3a.2.2 0 01-.2-.2l.2-.2.1-.2-.3-.2a.2.2 0 01-.2-.2l-.2-.2-.2-.2c0-.1-.1-.4-.3-.5a6 6 0 01-1.2-1.9c0-.3-.3-.6-.7-.6l-.4-.2-.3-.2c-.1 0-.3-.3-.4-.7-.1-.5-.3-.7-.5-.7l-.9-.2-.3-.7c-.2-.5-.3-.6-.6-.6s-.4-.1-.5-.5c-.1-.4-.2-.5-.5-.5-2.1-.2-2.1-.2-1.9-.5l.4-.2.1-.2c-.1-.2-.3-.2-.7-.2-.5 0-.6-.1-.6-.3 0-.3-.1-.3-.3-.2-.2.1-.3 0-.3-.1 0-.2-1.1-.7-1.3-.6l-.1-.3v-.5c0-.2-.8-.5-1.1-.4-.1 0-.2-.1-.2-.3 0-.2 0-.3-.2 0-.1.2-.2.2-.3 0-.1-.2-.2-.2-.4.1-.3.4-.3.2 0-.2.2-.2.1-.4-.1-.6l-.4-.3a.2.2 0 01-.2-.2l-.5-.2-.7-.2-.7-.2-.7-.3c-.2-.3-.4-.3-.8-.2-.4.1-.6 0-.8-.2-.2-.3-.4-.3-.8-.2-.4.1-.5.1-.3-.2.2-.2.2-.3-.2-.3a1 1 0 01-.7-.3c-.3-.2-.5-.3-1.2-.3s-.9 0-.8-.2l-.1-.4c-.3-.2-1.6-.6-1.9-.5l-.9-.2-1-.3c-.7-.1-1.1-.3-1.2-.4-.1-.1-.3-.1-.6.1l-.6.2.1-.1.2-.2-.4-.2c-.2 0-.7-.1-1-.3l-1-.3-1.3-.2-1.3-.1c-.2.1-.4 0-.4-.1l-.9-.2-1-.2-.7-.1-.8-.1-1.6-.2-1.8-.2c-.4-.2-4.2-.4-5.6-.3l-.5-.1-1-.2-1.3-.1c-.2-.1-.4 0-.6.1-.2.1-.4.1-.8 0h-.6-.3l-1.9-.2c-2.2 0-2.1 0-2.1.3s-.5.3-.8-.1c-.1-.2-.5-.2-1.2-.2l-1.2-.2c-.1-.1-.2-.2-.2 0 0 .1-.2.2-.6.2l-1.1.1c-.4.1-.5.1-.6-.1-.1-.2-.2-.2-.4-.1a1 1 0 01-.9 0c-.5-2.3-.7-2.3-.8-2.1zm9.7 1.9c0 .1-.1.2-.3.2-.2 0-.2 0-.1-.2l.3-.2.1.2zm-24.2 1.3c-.1.1-.1.1 0 0v-.3.3zm-5.5 0l.5.2c.4 0 .4.4.1.5-.5.1-.4.3.1.6.4.2.5.2.6 0 .1-.1.1-.2 0-.2a.2.2 0 01-.2-.2l.3-.1c.2.1.3 0 .4-.2.1-.3-.3-.7-.4-.5-.1.1 0 .2.1.2l.1.2c-.2.3-.4.2-.4-.2s-.1-.4-.7-.4c-.5-.1-.6-.1-.5.1zm4.6.4c0 .3-.1.4-.3.4-.2 0-.2 0-.1-.1l.2-.4.1-.3.1.4zm64.9 5.2l-.2.3c-.1.1-.2 0-.2-.2l.2-.3.2.2zm4.4 2.9c0 .2-.1.3-.2.2l-.1-.3c.2-.3.3-.3.3.1zm3.8 3c-.1.1-.1.1 0 0v-.3.3zm-57 3.1c.1.4 0 .8-.2.8a.2.2 0 01-.2-.2l-.2-.3c-.3-.1-.5.3-.2.4.1.1.1.1 0 .1s-.2.1-.2.3l-.2.2a.2.2 0 01-.2-.2l-.2-.2c-.1 0-.2-.1-.1-.2.1-.3-.2-.5-.5-.2a1 1 0 01-.6.2c-.2 0-.3.1-.3.4 0 .3 0 .3-.2.1-.2-.3-.4-.1-.2.3l.1.5.1.4c.3.4-.1.4-.5 0s-.9-.6-.9-.2c0 .1-.1.1-.2 0-.4-.3-.3-.6.2-.7.4-.1.6-.4.2-.4l-.8.6c-.3.4-.6.6-.7.6l-.3.5c-.1.4-.2.5-.6.5-.3 0-.5.1-.5.2s-.1.1-.2 0c-.3-.2 0-.5.3-.3l.2-.1-.2-.2-.1-.3c.1-.2 0-.2-.1 0-.2.3-.3.3-.4.1-.1-.2-.2-.2-.2 0v.3l.1.8v.7l.6-.1.7-.2.6-.2c.4-.1.5-.2.4-.6V73c.1.3.1.2.6-.2.6-.5.8-.6.8-.2l.2.2.1.2c-.1.2 0 .2.5 0 .7-.3.8-.3.7 0-.1.1 0 .2.1.2l.2-.2c0-.2.2-.2.9-.2.5 0 .9-.1.9-.2s.2-.2.5-.2.5-.1.5-.2c0-.3.3-.3.4-.1l.3.1c.1 0 .3 0 .5.2s.2.2.2 0c0-.3.4-.4.6-.2l.5.4.4.4c.1.6.3.9.5.9l.2.2c0 .1.2.3.5.4.4.2.5.2 1-.1.5-.3.6-.4.3-.7l-.3-.6c-.1-.6-.9-1.5-1.2-1.5a.2.2 0 01-.2-.2c0-.1-.2-.3-.4-.3l-.8-.5-.7-.4c-.2 0-.2 0-.1.1.3.1.2.3-.1.4-.2.1-.3 0-.4-.4-.1-.4-.2-.5-.7-.5-.6-.2-.9-.2-.8 0zm1 .9c.1.1 0 .2-.1.2l-.3-.2c-.1-.1 0-.2.1-.2l.3.2zm-10.7 1.8a3 3 0 01-1 .3l-.5.1.6.3c.5.3.5.3.1.2-.3-.1-.6 0-.7.1-.2.1-.3.1-.4 0-.3-.3-.5-.2-.3.1l.3.2c.1 0 .2.1.1.2-.1.2 0 .2.2.2s.2.1.2.5c-.1.6 0 .6.3.2.1-.2.2-.3 0-.5-.1-.2-.1-.2.3-.2.3 0 .4.1.4.2-.1.3.4.3.7.1.2-.1.2-.2 0-.4-.1-.2-.1-.3.1-.5s.3-.2.3-.1.1.2.3.2c.2 0 .3-.1.2-.2l-.5-.2c-.2 0-.7-.1-.8-.3-.1-.1 0-.2.1-.2l.3.2.1-.2c.1-.6.1-.5-.4-.3zm.8.3c-.1.1-.2.2 0 .2l.3-.2c.1-.2 0-.2-.3 0zm-4.1.7c-.3.1-.6.4-.6.6-.1.5.1.7.3.4.1-.2.3-.3.5-.3.5 0 .9-.3.7-.4l-.2-.3h-.7zm-.1 1.6l-.2.1c-.1-.1-.2 0-.2.1l.2.3c.1 0 .2.2.1.3-.1.2 0 .2.2.1l.6-.2.6-.2c.3-.2.2-.2-.5-.2l-.7-.1-.1-.2c.1-.2 0-.1 0 0zm-3.8.7l.3.2c.7.1.8.1.7.3-.1.2 0 .2.2.1s.2 0 .2.1c-.1.1 0 .2.1.3.1.1 0 .2-.3.3-.3.1-.5.3-.5.4 0 .2.3.2.5-.1l.5-.3c.2 0 .4-.2.4-.4.1-.3.1-.4-.2-.5-.2 0-.3-.2-.2-.3.1-.2-.4-.4-1.2-.4-.4 0-.5.1-.5.3zm2.8.1c-.3.4-.3.6.1.3.2-.1.3-.3.2-.4 0-.2-.1-.1-.3.1zm-3.8.1c-.2.1-.2.2 0 .6.1.3.2.5.3.4l.3.1.5.1c.2-.1.2-.1 0-.4l-.3-.4c0-.2-.5-.5-.8-.4zm-2.1 1.5c-.2.1-.2.2-.1.3.2.2.5.1.5-.3.1-.2 0-.2-.4 0zm2 .5c-.1.6 0 .9.2.4l.3-.3c.3.1.3-.1 0-.4-.2-.3-.4-.2-.5.3zm-5.4 3.7l-.1.5a.2.2 0 01-.2-.2c0-.1-.1-.2-.3-.2-.2 0-.2 0 0-.3.2-.2.3-.3.1-.3l-.2-.3c0-.3.4-.4.5-.1.2.2.2.6.2.9zm-1.8 0c.1.1 0 .1-.1.1-.2 0-.3-.1-.3-.3l.1-.1.3.3zm-2.3 2.6l-.2.2c-.1 0-.2-.1-.2-.3l.2-.2.2.3zm1 .2c-.2.3-.2.4 0 .4s.6-.5.6-.7c0-.2-.3 0-.6.3zm-2.1 1.2c-.1.1 0 .2.2.2l.3-.2-.2-.2-.3.2zm.6.5l-.3.4.5-.4.3-.4c-.1-.1-.3.1-.5.4zm93 2.8c-.1.1 0 .2.1.3.1.1.2 0 .2-.2-.1-.3-.2-.3-.3-.1zM38.5 91.5h-.3c-.1-.1-.1-.1.1-.1l.2.1zm-1.4 1.7c-.2.2-.2.4-.1.6.3.4.3.4-.2.4-.3 0-.3 0-.1-.1.2-.1.2-.2 0-.3-.2-.1-.2-.2 0-.7.2-.4.2-.5.4-.4.3.2.2.3 0 .5zm-.5 0l-.2.2a.2.2 0 01-.2-.2l.2-.2.2.2zm-3.4 4.1l-.2.2c-.1.1-.2 0-.2-.1l.2-.2.2.1zm.9 2.9c-.1.2-.2.1-.2-.2 0-.3 0-.3.2-.2.1.2.1.2 0 .4zm-2.9 4.6l-.3.1-.3-.1.3-.1.3.1zm.3.9c0 .2-.1.3-.2.2l-.1-.3c.2-.4.3-.3.3.1zm95.5 15.1c-.2.3-.2.3 0 0v-.5c0-.1 0-.1.1 0l-.1.5zm-5.7 6.6c-.2.4-.5.7-.5.4 0-.2.5-1 .6-.9.1.1 0 .3-.1.5zm-8.9 3.9h-.3c-.1-.1-.1-.1.1-.1l.2.1zm-2.6 3.2l-.2.2c-.1.1-.2 0-.2-.1l.2-.2.2.1zm1.8.5c0 .1-.1.1 0 0v-.3.3zm-72.8 0c.1.1 0 .2-.1.2a.2.2 0 01-.2-.2l.1-.2.2.2zm71.4 1.1c.2.3 0 .3-.2.1-.1-.1-.1-.2 0-.2l.2.1zm-73.3.6l.2.2.1-.2-.2-.2-.1.2zm64.9 2c.1.1 0 .2-.2.2l-.3-.2.2-.2.3.2zm.6 1.4c.1.1 0 .2-.2.2a.2.2 0 01-.2-.2l.2-.2.2.2zm-6 1.4l-.1.3c.1.1 0 .1-.1.1-.2 0-.2 0-.1-.4l.3-.3c.2.1.1.2 0 .3zm-39.4.4l-.2.2a.2.2 0 01-.2-.2l.2-.2.2.2zm26.4 1l-.1.2-.2-.2c-.1-.1 0-.2.1-.2l.2.2zm-23.2.2c.1.1 0 .2-.1.2l-.2-.2.1-.2.2.2zm.9.1h-.4l.2-.1c.2 0 .3 0 .2.1zm22 .4l-.2.3c-.2.1-.2 0-.1-.2 0-.4.3-.4.3-.1zm-19.6.3l-.2.2-.2-.2.2-.2.2.2zm18.4.7c.1.2.1.4 0 .4a.2.2 0 01-.2-.2l-.2-.2-.1-.2c.3-.3.3-.3.5.2zm.5-.2l-.2.2-.1-.2.2-.2.1.2zm-26.7.9l.2.2.2-.2-.2-.2-.2.2zm6.8.3l-.2.2c-.1.1-.2 0-.2-.1l.2-.2.2.1zm-3.1.3l-.2.1a.2.2 0 01-.2-.2l.2-.1.2.2z"/>
</svg>