<svg xmlns="http://www.w3.org/2000/svg" width="170" height="170" viewBox="0 0 170 170">
<defs><clipPath id="a"><path d="M0 0h170v170H0z"/></clipPath></defs>
<g style="clip-path:url(#a)"><g style="transform:rotate(45deg);transform-origin:54% 50%"><g class="world">
<path class="blue" d="M42.9 43.5h185.8v92.9H42.9z"/><path d="M203.6,76.2c-5.5-2.6,2.2-5.7,4.3-8.1a5,5,0,0,1,1.5-4.2c1.4-.1.4,2.3.7,3.6,0,4.4.5,4.4-3.7,5.5C204.8,73.5,205.9,76.3,203.6,76.2Zm5.6-9.9c-.2,4.8-5.5,4.5-6.5,7.9,1.8,3.1,1.3-1.7,3.2-2C210.3,71.1,208.9,70.4,209.2,66.3Z"/><path d="M209.2,66.3c-.4,4.7,1.3,4.5-3.8,6-1.3.4-.9,4.9-2.7,1.9C203.6,70.7,209.1,71.1,209.2,66.3Z" style="fill: #e5fcc0"/><path d="M220.7,60.1c0,2.2-1.5,2.6-2.7,4.1-1,5.3-6.3-.9-.1-3C218.5,60.4,220.5,57.6,220.7,60.1Zm-2.3,2.1c-1.4.5-3.5,1.2-1.8,3.1.3-2.6,2.6-2.8,2.9-4.5Z"/><path d="M218.5,62.3c-1.2.5-1.6,1.7-1.9,3-1.6-1.6,0-2.5,1.8-3.1Z" style="fill: #e5fcc0"/><path d="M206.2,91.5c3.4-.1,2,2.1,4.4,1.6,6.7-1.9,3.9,6.4.2,3.6-1.5-1.2-2.7,1-4.1.3C205,93.9,201.3,91.8,206.2,91.5Zm.1,1h0c-.3.1.1-.2-1.1.3.9.7,1.2,2.9,2.4,3.3,1.9-2.1,6.5,2,5.7-2.1C205.8,94.7,210.7,93.5,206.3,92.5Z"/><path d="M206.3,92.5c.6.1,1-.1,1.8.6,1.4,2.6,3.2,0,5.5,1.1-.5,4.1-3.5-.4-6.2,1.9-.9-.7-1.2-2.2-2.2-3.3s-.1-.2,1.1-.3Z" class="green"/><path d="M194.2,108.5c1.5-3.2-2.9-3.3-1.2-5.4,7.1-3.3,11.6-9.8,12.9-3.9,2.2,3.3,1.6-4,4.6-1.5,1.4,4.4,3.5,5.2,4.3,8.4s-.4,4.7-2.4,6.2-1.4-.8-3.3.4c-5.8-5.9-2.1-.2-6.4-4.1-1.5.3-2.6,2.3-4.6,1.2C196.7,110.7,194.3,111,194.2,108.5Zm1,0c.6,2.2,1.2,0,4.9.3,1.1-.6,2.9-2.5,4.2-.1,4.9-.3,2.9,3.6,5.9,2.3,2.9.8,4.6-2.3,3.5-5.1s-4-3.9-3.6-7.1c-1-1.5-1.2,1.5-1.7,2.2-4.7,1.1-2.7-4-5.2-3C186.9,108.4,196.8,100.7,195.2,108.5Z"/><path d="M195.2,108.5c2-6-7.5-2.2,5.6-8.5.9-.4.3-1.2,1.5-1.6s1.1-.9,1.9-.5c4.4,8.9,5.2-3.2,6,1.7-.3,2.3,2.7,3.4,3.4,5.9,1.4,4.5-.5,5.5-4.5,5.9-4.7-5.7-2.9-.4-5.4-3.5-1.4-1.3-2.7,1-4.4,1.2S195.6,110.9,195.2,108.5Z" style="fill: #e6fcc1"/>
<path d="M42.9 136.4c.4-1.4 2.9-.6 6.2-.6s7.3-1.1 10.1-.7h.7c-.7-.7-7.3-1.5-.5-3.1-2.5-3.2 19.9-1.6 21.1-1.9a83 83 0 0 1 17.4-1.3c2.6-3.5 3-3.4 6.7-4.6 2.8 1.1-1.2 1.5-1.5 2.7 2.5 4.9-5.2 5.4-8.7 6.3 4 .8 10.2.3 14.6 0 .6-2.6 3.4-2 4.8-.1 1.1-.1 3.1-.1 4.4-.3-2.1-2.6 5.5-1.4 6.7-2.5 2.7-3.1 6.8-2 10.8-2.4s6.4-1 10 0c5.5-1 10.3-.4 15.9-2.2 2.9.1 12.4.1 10.6 3.3 7.5-1.4 15.5-4.6 23.3-3.6 4.8 1.9 39.3 1.1 24.8 5.4 2.9 2.1-1.1 1.8-2.8 2.6 12 3.3 8.3 3.3 11-.1-.2.3.1 2.3 0 3.2" style="fill:#e5fcc0"/><path d="M42.7 137.1c-1-3.5 27.8 2 15.5-3.9v-.2c1.5-.4 2.7-.1 2.2-1.8 7.6-.4 14.6-.3 22.2-.5 5.1-1.3 9.2-1.2 14.4-1s1.7-3 5.6-3.8c1.5 6.2-3.8 4.5-7.8 6.3-2.3 3.5 9.4 1.7 14.1 1.9 2.4.1.4-1.8 1.8-1.9s1.7.7 2.2 1.4 9.5.5 6.1-1.6c14-.8-4-3.4 29.7-3.9 7.3.4 12.3-2.9 22.6-.8.8.6-1.8 2.4.5 2.4 9.5-2 18.9-5.5 28.5-2.6 3.8 1 12.1-.3 22.8 1.7v.2c-1.7.5-5 .6-2.8 2.3h-.1c-9 2.4 2.6 3.7 5.6 5.2s1.8-1.7 2.9-2.1a2.4 2.4 0 0 0-.2-1.4c-4.3 3.4 1.8 3.4-10.2.1 1.6-.9 5.5-.6 2.6-2.7 14.5-4.2-20.6-3.4-25.3-5.4-7.9-1-15.7 2-23.2 3.4 1.8-3.1-7.9-3-10.8-3-5.6 1.7-10.4 1.2-15.8 2.1-3.7-1-6.4-.2-10.1 0s-8.1-.6-10.7 2.5c-1.3 1.1-9.2-.1-7.1 2.4a31.5 31.5 0 0 1-4 .3c-1.4-1.9-4.3-2.5-4.9.2-4.4.2-9.5.8-13.5-.1 3.5-.9 10.5-1.3 8-6.2.3-1.3 5.3-2.2 2.4-3.3-3.7 1.2-5.4 1.7-8 5.1a82.9 82.9 0 0 0-17.4 1.4c-1.2.3-23.8-1.3-21.2 1.8-6.8 1.6-.6 2.5 0 3.1-5.3-.6-11.9 1.2-16.3-.4Zm8.6-75.2c-2.3-.9-1.1-1.3-.2-3.5-7.6-3.2 9.9-6 11.8-5s5.2.3 8 .4c4.6 2.4 9.7-.4 14.6 2.1 3.7.1 14.3-2.6 5.9 2.4-2.2.1-3.4.5-4.8 2.5 3.7.8 10.4 7.9 7.4-1 3.7-2.2 5.9 1.7 10.3 1.3 7.5 5.7-1.9 3.9-4.4 6.2 2.4 2.4-2.9 2.3-3.4 4.5s-1.4 3.6-2.9 5c0 .6 1.3 2.3-.1 2.4-8-6.2-12.7 3.1-5.5 1 .5 0 .7.3.9 1.1 1.6-1.7 2-2 3.1 1.2 1 .7 2.6 1 1.9 2.7s2.6 1 .7 2.4-4.6-2.1-7.4-2.9-3.1-.7-4.6-1.7-2.3-.9-3.5-2 .2-3.2-1.6-3.7C71 74 75 72.7 69.6 70c-1.1-1.2 1.3-2.7.3-3.8a2.8 2.8 0 0 1-2.2-1.9c-.5-5-7.2-2.3-10.8-3.5a31.5 31.5 0 0 1-5.7 3.3c-3.2 1.6-1.8-.7.1-2.2Zm39.1 19.4c-.9 1.2-4.3 4-2.7 0-9.2 1.5-1.9-9.3 4.9-4-.7-2 1.4-1.2 1.3-2.9s.7-1.2 1.4-2.2c.7-2.8 1.9-2.4 4.1-3.9-4.8-2.2 5.8-3.2 6.4-4.2-1.5-3.3-3.4-1.9-6.3-2-.3-1.6-2.4-2.2-4.5-1.7 2.2 1.8.5 5.2-2.2 5.1s-2-2.1-3.7-2.5c-8.7-2.7-.4-5 3.7-6.6-3.2 0-7.1 1.7-10.3-.4-3.1-.5-6.1.2-9.3 0s-4.9-.6-8-.5c-4.9-1.9-9.8-.9-14.9 1.2 5.5 2.3 1.6.5 1.5 4.3.4.1 1.7.3.8 1.4 1.7-.3 2.7-2.4 4.8-2.6 3.7 1.4 10.9-1.5 11.3 4.5 5.2 3.5 1.1 1.8 2 5.5 3.8.9 2.4 5 8.2 7 1.3.7-.5 2.8 1.1 3.7A78 78 0 0 1 92.9 87c-.7-.8-.4-.9.1-2.3s-2.4-1.2-2.6-3.4Zm43-9.4c13.7-1.1 6.1.7 13.8 2.1 10 3.1 6.6 7.3 9.2 9.7 4.1 3.3 8.3.5 6.3 3.7-6 5.1-7.6 5.6-7.1 12.8-.9 2.6-2.8.9-1.8 4-4 5.6-3.2 6.3-10.2 5.4-1.5-1.2.2-3-.5-4.9s-3-4.9-2.6-8.1-1.1-7.5-5.7-7.5c-1.5-1.8-4.4 1.5-6-.9-4.5-9.6-1.2-11.9 4.7-16.3Zm28.7 14.7h-.1c-2.5.6-5-1.1-7.1-2.8a13.5 13.5 0 0 0-3.2-6.7 35 35 0 0 0-7.7-2.8c-1.6-.7-2.3-2.2-4.4-1.8s-4.4.3-6.7.8c-2.8 4.3-6.6 3.5-4.7 10.6 1.4 4.7 1.2 4.9 5.6 3.5a8.5 8.5 0 0 0 4.6 1.1c1.7 1.3 4 4.1 3.8 5.9-2.6 7 3.2 7.8 1.9 14 .1 1.4 2.3.4 3.7.5 4-.3 2-2.4 4.9-5-1.5-2.2 1.4-2.3 2-4.1-1.1-8.2 3.4-9.3 7.4-13.2Zm-61.8 31.6c5 3.3-1.2 3.3-3.4.8-1-5.9 2.1-9.9 1.6-15.6s-.1-2.3-3-5.5c-4.9-4.3-1.6-6.3.4-11.3 3.8-4 11.5 0 14.3 3.8 2.1 1.7 5.9 2.2 7.1 4.5s-1.1 3.2-1.5 5-.2 3.4-1.9 4.2c-5.2 1.1-4.1 6.7-8.2 6.1.8 2.3-2.8 2.1-3.5 3.4a22.4 22.4 0 0 1-1.9 4.6Zm-1 .8h.1c-.9-1.4 1.2-1.5.4-3.3.7-1.3 1.4-.7 1.3-2.8s3-.8 3.5-2c-.2-4 2.4 1 4.9-5.4 1-1.8 4.2-1.6 5.1-3.6-.2-4.6 4.2-5.6.2-8s-6.1-2.8-8.5-6.1c-2.1-1.1-7.6-2.6-9.1-1.1-5.8 9.4-2.4 8.1 2.7 13.8 0 8.1-4.2 19-.6 18.5Zm28.1-68.5c7.2.3-2.9 2.3-3.8 4s-.3 1.3-1.6 1.5 0 1.8-4.3 2.2c-4.1 3.4-4-.1-6.5 3.2-3.2-4.3-4.2-1.7-4-5.7-.8-.8-1.8-1.5-1.9-2.8-2.1-.6-4.9.5-6.8-1.2-4.1-5.1 42.3-4.8 28.9-1.3Zm-.7-1c-6.9-1.3-28.9-.3-26.8 2 1.7.5 7.2-.8 6.7 2.2 3.2 2.6.6 6 6.6 5.2 1.9.2 2.8-.8 4.3-1.8s2.1.3 2.7-.9 1.5-.7 2.3-1.6 2.4-1.6 3.4-2.9c-1-1-.7-1.4.8-2.2Z"/><path d="M87.4 51c-5.9-2.3 14.1-4.5 11.2-1.7-1 1.5-2.9 2-4.4 3.4s-.4 1.2-1.1 1.3c-3.3 1.3-9.8 1.1-5.7-3Zm1.8-1.1c.9.3 1.5 1-.1 1.6-5.7 2.6 3 2.9 4 .9s2.7-1.3 3.9-3v-.2c-2.3-.1-5.3-.4-7.8.7Zm14.2 8.9c-5.8-.9-3.2 1.5-6.5-.3-1.4-.5-.7-1.8-1.5-3.1s-1.4-2.3 1.3-2.2 4.8 1.6 6.6 3.1 4.1 1.9.1 2.5Zm.1-1c-1.1-1.2-5.8-4.5-7.8-3.4 3.6 6.1 0 2.6 7.8 3.4Zm43.2-8.9c10.4.7-2.6 4.8-5.2 3.6s3.5-3.6 5.2-3.7Zm2.8 1.6v-.3a11 11 0 0 0-7.8 1.2c3.2 1.5 4.6-1.8 7.8-.9ZM99.1 83.2c-1.9.1-9.8-1-5.9-3.5 2.3-.7 14 2.9 5.9 3.5Zm-5.8-2.4c1.8 1.6 4.1 1.3 6.6 1.4-1-1.2-2.2-.6-3.7-.9s-1.6-1.3-2.9-.5Zm65.7 23.6c-2.5-.3-.9-3.5-.7-5.3 5.3-3.3 3.5-.4 2.6 3.6a2.1 2.1 0 0 1-1.9 1.7Zm1.6-5.1c-1.8.2-1.6 1.2-2 3.8 1.3 1.4 1.6-2.6 2-3.8Zm-34.1-43.1c.8.2 2.3-.5 2.2 1.2.3 5.4-11.1-.9-2.2-1.2Zm-.5 1c-6.1 1.2 6 1.8 0 0Z"/><path d="M80.9 51.3c-.7-2.1 4-1.7 4.4.4s-4.6 1.8-4.4-.4Zm2.5.2c.3-.6-2-1.1-1.4.2s.5 0 1.4-.2Z"/><path d="M200.3 54.2c-2.1 2.2 1.5.8 4.2.3s5.4.3 8.1-1.3c14.7 4.4 13.3 1.5 15 4.4-.7 3-3 .9-5.3 2.4-.9-2.9-2.1-2.8-4.5-1.3s-4.1 1.4-7.2 3.5c-1-.4-3.3-.8-4.1.7a9.5 9.5 0 0 1-2.5 5.8c-4.7-.2-1.8-1.8-4.6 5-6.4-1.7-.7 1-6 6.9-8.8-.2-.5 2.9-4.6 6.6-1.6-1-3.2-8.6-4.8-5.3-3.5-5.2-8.5.9-8.1 5.3-3.4-4.1.2-6.6-2.7-8-12.4-2.1-12.4-7.4-13.3-3.5s8.1 4.6 3.6 6.9c-2.5 1.2-2-2-3.7 0s-3.6-6.4-6.3-8c.1-.8 1.1-2.3-.2-2.6s-2.8.2-4.1-.6-3-2.5-3.8-.4h-.1c.3-3.2-4.7-6-5.8-1.4-1.8-2.1-8.6 3-9.9 2.2-.2-2.5 10.7-2.5 1.3-6.8.8-.7 2.6-.6 3.6-1.5s0-3.4 1.5-.9 3.2 1.5 5 1.1-.1-2.8.2-4.6 6.8-3.1 8.8-4.2 3.7 2.3 6.2 1.3 3 1.2 6.7-1.4c.3 2.2 2.8 1.4 4.6 1.9 5.4 1.3 1.1-4.7 7.5.1 1.6-.5 1.8-3.3 4.1-3 0 0 11.3-1.9 13.5-1.7a42.8 42.8 0 0 0 8 0c2.1-.4 1.9-.2-.3 2.1Z" style="fill:#84c500;stroke:#000;stroke-miterlimit:10;stroke-width:0.9468293892072699px"/><path d="M90.4 81.3c.5 3.4 3.6 1.7 2.2 4.3a1 1 0 0 0 .3 1.2 32.4 32.4 0 0 0-9.5-4.7c-.3-.6-.5-1.2-1.3-1.3-6-.9.4-3.5-5.4-5.1-5.7-4.9-.7-3.7-6.2-6.3.8-5.3 1.9-1.9-1.9-5.6-.6-5.7-7.7-2.8-11.6-4.1-2.1.4-2.2 1.9-4.4 2.5.2-.5.8-1.3-.8-1.4-.7-3.1 4.5-2-1.5-4.3 12-4.9 14 .1 18.8-1.7 1.8-.5 2.8.6 4.6 1.1s4.3-.5 7.1-.2c7 1.8 7.8.7 12 .5-4.2 1.7-12.7 4-3.2 6.8 5.5 5 7.9-.3 5.4-2.8a3.9 3.9 0 0 1 4.8 1.8c1.9-.6 6.8-.2 5.7 2.4-1.3 0-10.6 1.9-6.1 3.7-1.5 1.1-3.8 1.4-4.1 3.9s-1.9.7-1.3 2.6-2 1-1.4 2.5c-8.4-5.3-13.2 6-4.9 4-1.3 3.5 1 2.4 2.7.2Z" class="green"/><path d="M162.1 86.6c-13.9 10.6-3.3 11.5-9.5 15.2-.9.6.4 1.8 0 2.4s-1.4 3-2.9 4.2-6 1.4-5.6-.5c.9-6.2-4.6-8-1.8-14.1-.8-3.2-3.5-5.9-6.9-5.6-1.5-1.9-3.4.4-5.4-.3-2.5-3-3.3-9.6-.2-11.7 5.7-3.2-.1-3.1 7.6-3.3 3.9-1.3 4.3.1 7 1.5s4.7 1.6 7.3 2.6c3.2 3.6 1.9 3.7 3.5 7 4 2.1 2.1 2.8 6.8 2.5Z" style="fill:#e5fcc0"/><path d="M99.3 119c-3.9.7 1.8-16.6.3-19S93 94.6 94 93.6c2.4-3.9 1.3-9 8-7.2 4.7 1.1 4.1 1.2 7.3 4.8 1.9 1.5 4.1 1.7 6.3 3.3s.3 2.8-.6 4.4c-.4 7-4.3 2.9-6.1 7.9s-3.9 1-4.3 3.1-3.2.1-3.9 4.8c-1.2.7-.8 1-.7 2.2s-1.2 1.1-.6 2.1Zm27.4-69.5c-.6.4-2.3 1.2-.8 2.2-.8 1.2-3.7 1-3.5 3.1-.6.5-1.8-.1-2.6 1.9-4.1.8-7.8 4.8-11.5.5.4-2.3-.9-2.3-1.8-3.8.8-3.1-6.7-.7-6.7-2.4 5.9-3 23.8-2.1 26.9-1.5Zm-37.5.4c2.2-1 5-.8 7.8-.7v.2c-1 1.4-3.7 1.5-4.1 3.6-2.9 1.1-9.3 1.1-3.1-1.9.5-.5.2-1-.6-1.2Z" class="green"/><path d="M103.5 57.8c-8.1-.8-4.3 2.5-7.8-3.4 2.4-.8 5.5 1.4 7.8 3.4Z" style="fill:#e5fcc0"/><path d="M149.5 50.5c-2.4-.9-5.1 2.4-7.8.9a11.4 11.4 0 0 1 7.8-1.2Z" style="fill:#fff"/><path d="M93.3 80.8c.4-.5 6 .7 6.6 1.4-2.1-.1-4.8.3-6.6-1.4Zm67.3 18.5c-.1.5-.9 5.8-2 3.5.5-1.1-.1-3.5 2-3.5Z" style="fill:#e5fcc0"/><path d="M126 57.2c5.9 1.7-5.8 1.4 0 0Z" style="fill:#fff"/><path d="M83.4 51.5c-.3.3-2.3.3-1.2-.6s1.3 0 1.2.6Z" style="fill:#e5fcc0"/>
</g></g></g>
<path d="M0 0v170h170V0Zm89.4 137.1a46.4 46.4 0 1 1 46.3-46.4 46.3 46.3 0 0 1-46.3 46.4Z" style="fill:#fff"/><path d="M129.5 51.7a35.6 35.6 0 0 1 3.1-2.6l1.9-1.5c-.2-.9-.6-1.3-1.2-1.4s-2.2 1.1-3.3 2.4a12 12 0 0 1-1.7 1.6c-1.1-1.7-2.1-2.4-2.6-2.4h-.1a.7.7 0 0 0-.5.4c-.2.5 0 1.7 1.3 3.2s-1.3 2-2.5 2.9a9.9 9.9 0 0 0-1.8 1.7 49 49 0 0 0-34.9-12 48.1 48.1 0 0 0-30.7 13.2 44.5 44.5 0 0 0-14.1 29.1 54.7 54.7 0 0 0 12.4 37.3 35.2 35.2 0 0 1-5.5 5.3c-1.4-1.9-2.5-2.4-3-2.3s-.3.1-.4.3.5 1.9 2.1 3.3c-3.1 2.6-4.3 4.6-4.2 5.3a.8.8 0 0 0 .4.4c.9.2 3.1-1.3 5.7-4.1 8.6 8.1 21 12.9 38 14.8a33.9 33.9 0 0 0-.2 4.6c.1 2.7.1 5.4-.8 7.1h-2.2c-8.8.3-19.2 1-20.1 3.3-.2.4-.1.8.3 1.3s4.1 1.3 7.1 1.7a175.8 175.8 0 0 0 17.6.9c10.3 0 20.4-1 23.1-3.8-1-3-11-3.2-19.7-3.4h-4.4l.2-6.8c0-5 0-5 3.6-5.3s10-.9 22.7-6.2a51.9 51.9 0 0 0 28.5-35 65.7 65.7 0 0 0-14.1-53.3Zm-2.8 64.7c-9.1 12.7-14.5 17.6-34 20.2-15.6.5-23.1-2.9-33.2-11.1s-15-19.6-15.9-31.4A46.7 46.7 0 0 1 53 62a48 48 0 0 1 34.5-17.2 47.6 47.6 0 0 1 25.6 6 52.6 52.6 0 0 1 16.8 17.3 44.7 44.7 0 0 1-3.2 48.3Zm-13 15a52.9 52.9 0 0 0 22.2-38.3 48 48 0 0 0-12.1-35.7l4-3.9a63.6 63.6 0 0 1 12.8 26.2 62.2 62.2 0 0 1-.3 29.1 52.2 52.2 0 0 1-35.3 33.1 60.1 60.1 0 0 1-53.8-11.2l5.3-5.3c6.3 6.1 15.9 10.5 26.3 11.9s22.2-.6 30.9-5.9Zm-48.1 30.7c3.3-1.4 16.7-4 22.3-1.9h.1l.7-.8h3.5c6.6.1 13.5.1 19.4 2.3-4.4 2.4-32.5 4.8-46 .4ZM42.3 61.2l-1-.5-2.9 5.1 1 .5 2.9-5.1zm-8.2 22.2h.1l1.1-5.8-1.2-.3a5.1 5.1 0 0 1-.4 2.2c-.3 1.4-.7 2.9-.2 3.5a.6.6 0 0 0 .6.4Zm13.2-28.7-.8-.8-3.7 4.6 1 .5 3.5-4.3zm58.7-17a5.9 5.9 0 0 0 2.3.7h.6a.8.8 0 0 0 .3-.7h.1l-5.1-1.7-.2 1.2h.1a13.7 13.7 0 0 1 1.9.5Zm-47.4 7.1-.5-1-4.2 3.1.6 1 4.1-3.1zM33.9 91.2a13.1 13.1 0 0 1 0-2c.1-1.1.2-2.4-.3-2.9s-.4-.2-.7-.2h-.1v5.3h1.1Zm44.5-54.5-.3-1.1-4.8 1.2.3 1.1 4.8-1.2zm-41.5 74.1 2.2 4.5.9-.6-2.1-4.4-1 .5z"/><path d="m123.7 45-4.3-2.8-.5 1 4.1 2.7.7-.9zm-24-9.9-4.9-.6v1.2l4.7.5.2-1.1zM52.6 49.4l-.8-.8-3.5 3.4.7.8 3.6-3.4zM92 35.5l-.1-1.1h-4.6l.1 1.1H92zM34.1 95.3l-1.2.1.7 4.5h1.1l-.6-4.6zm10.6 28.8.9-.6-2.4-3.9-1 .6 2.4 3.8.1.1zm26.8-85.5-.3-1.1-4.3 1.7.4 1 4.2-1.6zm-35.4 66.5c-.2-1-.4-1.9-.9-2.2a.8.8 0 0 0-.8.1h-.1l1.3 4.3 1-.4a6.9 6.9 0 0 1-.5-1.8Zm80.5-64.4-4-1.9-.4 1.1 4 1.8.4-1zm-51.8.6-.5-1-3.8 2.1.5 1 3.8-2.1zM38 69.3l-1-.4-1.5 4-.1.1 1.1.3 1.5-4zm47.2-33.6-.1-1.1-4.3.5.2 1.1 4.2-.5z"/>
</svg>