<svg version="1" xmlns="http://www.w3.org/2000/svg" width="800" height="800" viewBox="0 0 600.000000 600.000000"><path d="M284.5.7c-62 3.8-116.1 23.5-165.1 60.3C62.7 103.6 21.2 168.9 7.2 237.5c-5 24.1-5.7 31.8-5.7 61.5 0 30.6.6 37.4 5.6 62.5 8.7 43.2 31 90.4 59.9 126.5 10.8 13.4 31.6 34.2 45 45 37.3 29.8 84.2 51.8 128.8 60.4 23.7 4.5 30.3 5.1 60.7 5 24.9 0 31-.3 43.4-2.2 45.8-7.2 90.3-25 127.5-51 29.1-20.4 57.9-50 77.7-80 44.3-66.9 59.9-148.8 43.3-227.5C571.3 133.2 494.8 48 393.4 15 358.9 3.8 319.2-1.5 284.5.7zM224 60.1c0 .5-1.3 6-3 12.2-3.8 14.5-5.4 30.7-4.6 47.7.8 18.1 2.8 28.6 8.6 46.3 11.5 34.4 28.4 61.9 66.2 107.2 33.8 40.6 53.4 68.4 66.4 94.5 9.9 19.9 14.4 34.8 17.5 58 1.8 13.2 1.5 41.1-.5 54-1.8 12-15.8 66.3-16.7 65.2-.4-.4-1.3-7.5-2-15.9l-1.3-15.2 3.2-10.3c1.7-5.7 3.8-13.3 4.6-17.1 1.3-6.3 1.2-7.2-.9-14.6-2.6-9.3-7.9-20.8-13.1-28.7-9.2-13.9-20.3-22.6-35.8-28-6.2-2.2-9-3.6-8.7-4.6.3-.7.7-5.4.9-10.4.3-8 .1-9.9-2.2-15.6-1.4-3.5-2.6-6.8-2.6-7.3 0-.7 12.5-.1 19.5 1 1.7.3.3-.4-3-1.6-3.3-1.1-9.1-2.2-13-2.6l-7-.6-6.3-7.6c-3.4-4.2-9.2-10.9-12.8-14.9l-6.7-7.2h5.5c7.8 0 22.9 2.7 33.3 6.1 4.9 1.5 9.1 2.7 9.2 2.5.2-.2-4.3-2.2-10-4.4-11.3-4.5-27.2-8.7-38.6-10.1l-7.3-.9-8.7-9.4c-24.7-26.3-41-46.8-52.5-66.1-21.7-36.3-30.7-64.2-30.7-95.2 0-27.8 7.8-53.2 23.4-76.5 4.8-7.1 27-31 28.9-31 .4 0 .8.5.8 1.1zm7 18.4c6 23.8 19.4 48.9 40.5 76 10.2 13.2 17.3 21.1 39.4 43.9 54.1 56.1 70.2 75.5 90.2 108.8 13.1 21.9 27.8 52.3 26.1 54-.4.3-3.6 1.4-7.2 2.3-6.3 1.6-20.4 7.4-19.7 8.2.2.1 2.9-.6 5.9-1.6 5.4-1.9 12.4-3.4 20-4.5l3.8-.5 4 12.7c2.2 7 4.6 15.5 5.4 18.8l1.4 6.2-6.2.6c-8 .9-17.1 3.3-21.6 5.6l-3.5 1.9 5.6.1c11.9.1 27.3 5.7 33.8 12.4l3.2 3.3-8.8 1.7c-22.9 4.5-40.6 13.7-48.7 25.5-1.6 2.3-3.2 4.1-3.6 4.1-.4 0-1.2-6.6-1.8-14.8-2.7-33.9-8-53.1-22.9-82.5-12.6-24.8-26.2-43.3-64.2-87.7-45-52.4-68.3-91.4-75.5-126-5.9-28.8-6.1-66.7-.4-77.3 1.4-2.7 2.2-1.3 4.8 8.8z"/></svg>