<svg xmlns="http://www.w3.org/2000/svg" width="2327.33" height="1184.44" version="1.0" viewBox="0 0 1745.5 888.33">
   <path
      d="M690.2.51c-31.8 4.4-56.4 27.6-68 64-8.7 27.1-10.3 63.7-4.2 95.2 6.2 32.4 20.6 56.1 41.2 68.3 23.5 13.9 58.2 13.7 88.4-.4 13.2-6.2 30.4-18.7 30.4-22.1 0-2.6-5.5-10.5-9.4-13.5-3.9-3-3.5-3.1-12.1 3.5-17.7 13.7-34.1 20-52.5 20-25.1 0-42.7-12.7-53-38.2-6.5-16.4-9-32.9-9-59.8 0-28.9 3.2-46.4 11.5-63.5 11-22.6 26-32.6 49.1-32.7 21.7-.1 38.5 9.4 46.9 26.6 3.6 7.3 6.5 18.2 6.5 24.8 0 3.2.4 3.9 2.8 4.5 1.5.5 5.4.8 8.7.8 10.4-.1 14.1-4.6 13.9-16.7-.4-16.6-10-33.7-24.9-44.3-14.4-10.3-31-15.9-49.6-16.9-5.7-.2-13.3-.1-16.7.4zM1334.7.51c-30.5 3.8-54.7 23.4-67.2 54.2-16 39.7-14.7 100.4 2.8 135.3 7.5 15 20.9 30.1 33.2 37.3 23.3 13.6 57.6 14.8 82.3 2.6 35-17.1 54-60.2 51.9-117.9-.3-8.8-1.3-20.3-2.2-25.5-8.1-45.4-31.4-75.1-66.1-84-8.6-2.2-25.3-3.2-34.7-2zm23.8 21.6c20.7 2.6 38.1 20.8 46 48 7.4 25.6 7.6 67 .5 94.8-7 27.5-20.6 43.9-41.5 50.2-8.9 2.7-26.8 2.4-35.4-.5-26.7-9.2-41.4-36.9-44-82.4-.9-18 .2-39 2.9-51.2 5.8-26.4 14.8-42.1 29.3-51.6 11.7-7.6 23.7-9.7 42.2-7.3zM216.6 3.21c-11.9.2-19.4.8-20.3 1.4-2 1.8-1.9 227.1.1 228.8 1.1.9 12.8 1.3 43.8 1.4l42.3.2 9.9-2.7c21.3-5.9 34.9-15.4 46.1-32.3 13.3-20 17.8-39.7 17.9-78.5.1-35.1-3.4-54.3-13.4-74.5-12.8-26-34.1-40.2-65-43.5-9-.9-16.8-.9-61.4-.3zm65.9 22.7c15.7 4.2 27.9 14 35.3 28.4 8.1 15.5 11.4 35.5 11.5 68.7.1 27.7-2.8 43.8-10.5 59.5-5.4 10.8-15.3 21.2-24.8 25.8-11 5.4-17.7 6.3-47.3 6l-26.2-.3-.3-94c-.1-51.7 0-94.6.3-95.4.8-2.1 53.5-1 62 1.3zM405.3 3.61c-1.7 1.7-1.9 151-.2 165.7 3.9 35.3 23.4 58.1 56.7 66.4 12.5 3.2 35.9 3.1 48.5 0 29.8-7.4 47-25 55.4-56.2 1.5-5.9 1.7-14.7 2-91.2l.4-84.6-8.3-.7c-4.6-.3-10.3-.2-12.8.2l-4.5.9-.5 84.9-.5 85-2.8 7.8c-6.9 19.7-19.7 30.7-39.9 34.3-9.3 1.7-21.8 1.3-30.7-1.1-17.5-4.6-30.2-17.7-35.8-37-1.6-5.4-1.8-14.2-2.3-86.5-.5-85.4-.4-83.9-5.3-86.9-3-1.9-17.8-2.7-19.4-1zM884.5 3.21l-4 .4-38.7 114.7c-23.5 69.6-38.3 115.1-37.8 115.6 1.2 1.2 21.1 2 22.6.9.7-.4 5.5-14.2 10.9-30.6l9.6-29.7H939.8l9.2 27.4c5 15.1 10 28.6 11.1 30 2.1 2.7 7.3 4.6 12.7 4.6 4.8 0 12.3-2.1 12.9-3.6.5-1.3-75.2-227.1-76.6-228.7-.9-.9-18.8-1.7-24.6-1zm10.5 30.8c0 2.4 11 37.5 24.5 78.2l13.3 40.3h-38.9c-21.4 0-38.9-.3-38.9-.6s6.7-21.2 14.9-46.3c8.2-25.1 16.6-51.7 18.6-59.1 2-7.4 3.9-13.8 4.2-14.3.6-1.1 2.3.2 2.3 1.8zM1183.8 3.21l-3.8.4v230.6l3.1.7c1.7.3 6 .6 9.4.6 3.4 0 7.7-.3 9.4-.6l3.1-.7V3.81l-5.2-.7c-5.4-.6-9.3-.6-16 .1zM1492.3 3.21l-4.3.4v230.6l3.1.7c4 .8 11.3.8 16.3-.1l3.8-.6-.5-97.1c-.3-53.4-.8-98.2-1.3-99.5-.5-1.6-.3-2.2.5-2 .6.2 4.5 7.4 8.6 15.9 8.6 18 12.9 26.1 61 115.8l36 67.1 6.4.7c6.4.7 23.8.1 24.7-.8.6-.7.5-229.8-.2-230.9-.8-1.3-11.3-1-15.3.4a14 14 0 0 0-5.5 4c-2.1 2.8-2.1 3.8-2.4 59.5-.3 51.2 1.1 129.3 2.5 134.9 1.4 6.1-2 .6-10-16-4.8-10-28.6-55.2-52.8-100.3l-44.1-82.1-6.6-.7c-6.8-.6-12.2-.6-19.9.1zM9.1 4.91c-.8 1-1.1 29.5-.9 110.2.3 107.4.3 108.9 2.3 112.4 4.3 7.3 2.1 7.1 67 6.8 53.9-.3 58.2-.4 61.3-2.1 4.3-2.4 7.1-8.5 7.2-15.5v-5.4l-56.5.4-56.5.3v-83.5h44.9c40 0 45-.2 45.5-1.6.8-2 .8-16.8 0-18.8-.5-1.4-5.5-1.6-45.5-1.6H33v-80h53c49.6 0 53.1-.1 53.8-1.8.4-.9.7-6 .7-11.2v-9.5l-65.1-.3c-54.4-.2-65.3 0-66.3 1.2zM992.4 4.81c-.2.7-.3 5.8-.2 11.3l.3 9.9 30.8-.2 30.7-.2v208.6l3.8.7c2 .3 6.2.6 9.2.6 3 0 7.2-.3 9.3-.6l3.7-.7V25.81l26.8.1c25.2.1 26.9 0 30.2-1.9 4.9-3 6.5-7.6 5-14.9l-1.1-5.6h-74c-60.4 0-74.1.2-74.5 1.3zM602.7 327.51c-26 5.5-47.2 24.1-58.6 51.4-12.1 29-15.2 70.5-8 105.8 8.3 41.4 33.5 70.3 67.1 77.2 10.1 2.1 29.5 2.1 39.6 0 30-6.1 52.2-27.8 63.3-61.6 5.7-17.4 7.3-29.8 7.4-54.8 0-23.4-.6-29.2-5-47-7.9-32-27.4-56.9-52.6-67.1-14.7-6-36-7.5-53.2-3.9zm34.4 20.4c9.7 2.1 16.5 6 24.5 14 15.1 15.2 22 34.8 24.3 68.9 2 30.1-2.9 61.8-12.7 81.2-7.5 15-22.2 26.5-38 29.5-8.7 1.8-25.1.8-32.7-1.9-12.5-4.4-23.6-15.4-31-30.6-8.2-17-11.6-36.1-11.6-66 0-20.7.9-28.5 5.2-44.4 5.6-21.1 13.1-33.7 25-42.1 6.4-4.4 15.2-8.2 21.9-9.3 5.7-1 18.9-.6 25.1.7zM1429.8 326.51c-39.2 7.1-63.8 36.2-72.6 86-2.3 13.4-2.3 51.6 0 65 6.6 37.1 23.6 64.2 48.7 77.4 10.6 5.5 19.7 7.7 34.9 8.3 21.4.9 36.6-2.7 51-12 13.1-8.5 20.8-17.1 28.8-32.2 21.3-40 21.5-107.1.4-147.4-11.3-21.6-29.3-36.8-51-43.1-8.3-2.4-31.5-3.6-40.2-2zm31.7 22c23.5 6 39.1 27.7 45.2 62.8 2.5 14.2 2.4 52-.1 65.7-4.2 23-11.2 39.2-21.6 49.5-11.1 11.1-23.2 16-39.5 16-17.4 0-27.5-4.1-39.2-15.6-5.6-5.7-8.1-9.1-11.7-16.5-9-18.5-12.1-36.3-12-68.4.1-18.7.4-23.5 2.3-32.4 2.9-13.8 8-28.6 12.2-35.8 4.7-7.9 14.1-17.2 21.7-21.1 11.8-6.3 28.3-7.9 42.7-4.2zM739.8 329.21c-2.7.9-4.8 2.1-4.8 2.7 0 1.2 63.4 212.4 65.5 218.2 3.4 9.3 11.4 12.4 28 10.8l9-.9 34.4-114.3c27.1-90 34.2-114.5 33.2-115.5-1.9-1.9-20.4-2.3-22.2-.5-.8.8-14.4 47.2-30.4 103.1-18.6 65.1-29.4 101.7-30.2 101.7-.7 0-1.3-.2-1.3-.5 0-3.7-54.4-190.3-57.6-197.7-2.8-6.3-5.6-8.2-12.7-8.5-3.8-.1-8.1.4-10.9 1.4zM11.3 329.21c-1 .4-1.3 24.5-1.3 115.9v115.5l12.3-.3 12.2-.3.3-114.9c.2-91.3 0-115.1-1-115.8-1.4-.8-20.5-1-22.5-.1zM101.2 329.31c-1 .7-1.2 24.5-1 115.8l.3 114.9h23l.3-61c.2-33.6-.2-78.3-.8-99.3-.6-21.1-.9-38.6-.7-38.9.3-.2 4.5 7.9 9.5 18 10.1 20.8 95 179.8 96.7 180.9.5.5 7.8.7 16 .5l15-.2v-231h-8.7c-8.2 0-8.9.2-11.5 2.8l-2.8 2.7-.3 72.3c-.2 41.9.1 82.6.8 97.1.6 13.7.8 25.1.5 25.4-.2.3-4-6.9-8.3-15.9-6.3-13.1-96.2-182-97.9-183.9-.8-.9-28.8-1.1-30.1-.2zM324.7 329.21c-1.6.4-1.7 6.5-1.5 115.6l.3 115.2h23l.3-67c.2-36.9-.2-81.6-.8-99.4-.5-17.8-.8-32.6-.5-32.9.3-.3 4.2 7.3 8.8 16.9 7.8 16.1 94.6 178.8 96.9 181.7.8.9 4.9 1.2 16.2 1l15.1-.3v-231h-8.6c-9.9 0-12.2 1.2-13.9 7.4-1.4 4.9-1.3 132.3.1 165.9.6 14.5.8 26.6.6 26.9-.3.2-4.2-7.1-8.7-16.4-4.4-9.2-28.2-54.2-52.7-100-33.6-62.7-45.1-83.3-46.7-83.7-2.4-.7-25.3-.6-27.9.1zM979.8 329.71c-.8.7-18.8 52.5-39.8 115.1-30.5 90.7-38.1 114-37 114.7 2.2 1.4 15.1 2.2 19.4 1.3l4-.9 9.6-29.9 9.7-29.9h92.8l8.7 25.9c10.8 32.1 10.5 31.3 14.2 33.6 4.6 2.8 19.8 2.3 23.5-.7.8-.7-76.3-228-77.7-229.2-1.1-.8-5.5-1.2-13.7-1.2s-12.6.4-13.7 1.2zm14.3 32c3.1 11.8 32.8 104.7 36.6 114.3.4 1.3-4.6 1.5-38.1 1.5-25.8 0-38.6-.3-38.6-1 0-.6 6.1-19.6 13.5-42.3 12-36.4 18.8-58.5 22.5-72.5.6-2.3 1.5-4.2 2-4.2s1.4 1.9 2.1 4.2zM1280.3 329.21c-1 .4-1.3 24.5-1.3 115.9v115.5l12.3-.3 12.2-.3.3-114.9c.2-91.3 0-115.1-1-115.8-1.4-.8-20.5-1-22.5-.1zM1587.7 329.21c-1.6.4-1.7 6.5-1.5 115.6l.3 115.2h23l.3-65.5c.2-36-.2-80.8-.8-99.4-.6-18.6-.8-34.1-.5-34.4.2-.3 4.1 7 8.5 16.2 7.2 15.1 90.1 170.8 95.7 179.9l2.4 3.8 15.2-.3 15.2-.3v-231l-7.5-.3c-8.8-.3-11.8.9-14.2 5.8-1.7 3.2-1.8 8.9-1.8 73.7 0 38.6.5 81.5 1.1 95.4.6 13.8.8 25.3.5 25.6-.2.3-3.9-6.6-8.1-15.3-4.2-8.8-27.9-53.8-52.7-100.1-33.6-62.7-45.7-84.3-47.2-84.7-2.5-.7-25.3-.6-27.9.1zM1090.6 332.61c-.3 1.7-.6 5.3-.6 7.9 0 2.6.3 6.2.6 7.9l.7 3.1h61.7v209.1l12.3-.3 12.2-.3.3-104.3.2-104.2h25.8c14.5 0 27.3-.5 29.4-1 6.8-1.9 9.2-7.9 7.2-17.9l-.6-3.1h-148.5zM1.3 653.61c-1 1-1.3 23.2-1.3 103.9 0 91.5.2 103.2 1.6 108.1 3 10 9.3 16.3 19.3 19.3 8 2.3 89.6 2.4 98.6.1 11.3-3 19.7-10.5 22.4-20 .6-2.2 1.4-8.9 1.8-14.9l.6-10.9-42.9.6c-23.6.3-43.9.9-45.1 1.3l-2.2.6-.3-82.3c-.3-74.8-.5-82.9-2.1-87.5-2.6-7.8-6.7-12.8-13.4-16-5.5-2.7-6.7-2.9-20.8-3.2-11.3-.3-15.3 0-16.2.9zM250.1 653.61c-5.7.4-10.8 1.2-11.3 1.7-.4.4-17.4 51.4-37.7 113.3-25.5 77.8-36.6 112.9-36 114 1.6 3.1 10.4 4.4 29.6 4.4 11.4 0 18.6-.4 19.2-1 .6-.6 4.3-11.9 8.2-25l7.1-24H304l1.5 5.5c7.3 26 12 36.4 18.4 40.7 4.6 3.1 9.1 4.3 19.2 5 9.2.6 20-1.2 27-4.5l3.7-1.7-36.3-112.8c-19.9-62.1-36.7-113.3-37.1-113.7-1.1-1.1-24.2-3.1-33.3-2.9-3.6.1-11.3.5-17 1zm18.8 54.6c6.9 26.9 10.3 39.6 16.2 60.7 3.8 13.7 6.9 25.1 6.9 25.2 0 .2-11.3.4-25.1.4-23.4 0-25-.1-24.5-1.8a1543 1543 0 0 0 17.1-62.7c3.1-12.7 5.8-23.6 6-24.3.8-2.4 2.4-1.2 3.4 2.5zM431.5 653.41c-16.5.4-30.6 1-31.2 1.4-2 1.2-1.9 229 0 230.6 1 .7 16.8 1.1 51.8 1.3 45.5.3 51.3.1 59.4-1.5 30.7-6.3 48.8-21.1 55-45.2 2.5-9.5 3-23.8 1.1-32.5-4.1-19.3-18.5-38.3-34-44.6-2.5-1.1-4.6-2.1-4.6-2.4 0-.3 2-1.6 4.5-2.9 2.5-1.3 7.2-5.2 10.4-8.7 9.5-10.1 14.1-21.6 14.1-35.4-.1-31.7-18.5-51.6-54.1-58.5-10.5-2-33.1-2.5-72.4-1.6zm60 40.4c9 4 13.7 12.4 13.7 24.2 0 8.8-2.8 16-8.2 20.9-5.9 5.3-9.5 6.1-28 6.1h-16.5l-.3-26c-.1-14.3-.1-26.4.2-27 .2-.6 6.4-.8 17.7-.5 13.5.5 18.3 1 21.4 2.3zm3.6 92.1c13.4 4.9 21.6 20.7 19.1 36.7-2 12.3-6 18.2-15.9 23.1l-6.8 3.3-19.7.4-19.8.3v-32.4c0-17.9.3-32.8.8-33.2.4-.5 9-.6 19.2-.3 13.9.3 19.7.9 23.1 2.1z" />
</svg>