<svg xmlns="http://www.w3.org/2000/svg" width="992" height="730">
    <path
        d="M564.1 70.6a65.58 65.58 0 0 1-65.57 65.58 65.58 65.58 0 0 1-65.58-65.57 65.58 65.58 0 0 1 65.58-65.58 65.58 65.58 0 0 1 65.57 65.58zm46.8 33.44c30.1 29.96 46.55 69.95 46.55 112.38 0 42.43-16.58 82.42-46.54 112.38a158.06 158.06 0 0 1-112.38 46.54 158.06 158.06 0 0 1-112.38-46.54 158.06 158.06 0 0 1-46.55-112.38c0-42.43 16.59-82.42 46.55-112.38 2.57-2.57 5.27-5.02 7.97-7.46l-36.26-36.26a208.5 208.5 0 0 0-52.85 74.32 209.84 209.84 0 0 0-16.58 81.78c0 28.41 5.53 55.93 16.58 81.78a208.49 208.49 0 0 0 45 66.86 208.49 208.49 0 0 0 66.87 45 209.84 209.84 0 0 0 81.78 16.59c28.41 0 55.93-5.53 81.77-16.59a208.49 208.49 0 0 0 66.87-45 208.49 208.49 0 0 0 45-66.86 209.84 209.84 0 0 0 16.59-81.78c0-28.42-5.53-55.93-16.59-81.78a208.5 208.5 0 0 0-52.85-74.32L603.2 96.58c2.57 2.44 5.15 4.89 7.72 7.46zM480.28 344.6V182.86l-65.19-65.2c-28.03 23.8-45.9 59.16-45.9 98.89 0 65.19 48.34 119.2 111.09 128.06zm36.52 0c62.74-8.87 111.1-62.87 111.1-128.06 0-39.6-17.88-75.1-45.91-98.88l-65.2 65.19Zm405.93 332.51c4.75 4.25 7.07 10.16 7.07 17.75 0 7.58-2.32 13.63-6.82 18-4.63 4.37-11.57 6.68-20.96 6.68h-16.2V670.7h16.85c8.61 0 15.43 2.19 20.06 6.43zm-1.16 18c0-11.18-6.43-16.84-19.29-16.84h-8.23v33.43h9.13c5.92 0 10.42-1.41 13.63-4.24 3.09-2.7 4.76-6.82 4.76-12.35zm-89.5-24.43h8.24v48.86h-9l-27.65-35.61v35.61h-8.23V670.7h8.23l28.42 36.52zm-113.53 37.8-4.89 11.06h-8.87l21.47-48.86h8.88l21.47 48.86h-8.87l-4.89-11.05zm21.09-7.58-8.87-20.19-8.88 20.19zm-99.65 18.64V670.7h8.23v41.02h22.24v7.84zm-86.28 0V670.7h8.23v21.22h24.3v-21.22h8.23v48.86h-8.23V699.5h-24.3v20.05zm-61.08-7.45c2.83 0 5.28-.52 7.33-1.42 2.06-.9 4.25-2.44 6.43-4.63l5.27 5.4c-5.14 5.79-11.44 8.62-18.9 8.62-7.33 0-13.5-2.32-18.38-7.07-4.9-4.76-7.33-10.8-7.33-18 0-7.2 2.44-13.38 7.45-18.13 5.02-4.76 11.19-7.33 18.78-7.33 7.58 0 13.88 2.83 19.03 8.35l-5.28 5.79c-2.31-2.19-4.5-3.86-6.55-4.63a20.75 20.75 0 0 0-7.33-1.28c-4.89 0-9.13 1.54-12.47 4.75-3.35 3.22-5.02 7.33-5.02 12.22 0 5.01 1.67 9.13 5.02 12.47 3.47 3.21 7.45 4.89 11.95 4.89zm-83.44-34.98c-2.45 0-4.38.52-5.92 1.42a4.97 4.97 0 0 0-2.31 4.5c0 1.93.77 3.47 2.31 4.5 1.54 1.03 4.76 2.18 9.77 3.34 5.02 1.16 8.75 2.96 11.32 5.14 2.57 2.19 3.85 5.4 3.85 9.65 0 4.24-1.67 7.71-4.88 10.41-3.22 2.7-7.46 3.99-12.6 3.99-7.59 0-14.4-2.57-20.32-7.84l5.15-6.18c4.88 4.25 10.02 6.43 15.43 6.43 2.7 0 4.75-.51 6.3-1.67a5.43 5.43 0 0 0 2.31-4.5c0-1.93-.77-3.34-2.19-4.37-1.41-1.03-3.98-2.06-7.58-2.83-3.6-.9-6.3-1.67-8.23-2.31a21.12 21.12 0 0 1-5.02-2.83c-2.82-2.19-4.37-5.53-4.37-10.03 0-4.5 1.67-7.97 4.89-10.42 3.34-2.44 7.33-3.73 12.21-3.73 3.09 0 6.18.52 9.26 1.55a22.76 22.76 0 0 1 7.97 4.37l-4.37 6.17c-1.41-1.29-3.34-2.31-5.91-3.21a17.56 17.56 0 0 0-7.07-1.55zm-70.6 1.16v41.27h-8.22v-41.27h-14.8v-7.59h37.94v7.59zm-93.09 30.09c2.19 2.57 5.27 3.86 9.13 3.86 3.86 0 6.82-1.3 9.13-3.86 2.31-2.57 3.34-6.17 3.34-10.67v-27h8.23v27.38c0 7.07-1.93 12.47-5.78 16.2-3.86 3.86-8.88 5.66-14.92 5.66-6.04 0-11.06-1.93-14.91-5.66-3.86-3.86-5.79-9.26-5.79-16.2V670.7h8.23v27c0 4.63 1.03 8.1 3.34 10.68zm-54.39-37.68v7.72H165v12.98h23.4v7.33H165v13.12h26.87v7.71h-35.23V670.7zm-83.96 6.43c4.76 4.25 7.07 10.16 7.07 17.75 0 7.58-2.31 13.63-6.81 18-4.63 4.37-11.58 6.68-20.96 6.68h-16.2V670.7h16.84c8.62 0 15.43 2.19 20.06 6.43zm-1.29 18c0-11.18-6.43-16.84-19.28-16.84h-8.1v33.43h9.12c5.92 0 10.42-1.41 13.63-4.24 3.09-2.7 4.63-6.82 4.63-12.35zm855.32-87.43-10.93-25.33h-49.12l-10.92 25.33h-27.9l50.65-117.27h25.33l50.67 117.27zm-35.49-82.3-14.78 34.08h29.31Zm-103.12-34.97h26.1V607.7h-26.23V490.42Zm-39.47 15.43c11.18 10.29 16.84 24.43 16.84 42.7 0 18.25-5.4 32.65-16.33 43.32-10.93 10.68-27.51 15.95-49.89 15.95H693.6V490.55h41.4c20.83-.13 36.9 5.02 48.09 15.3zm-19.29 69.7c6.43-6.05 9.64-14.8 9.64-26.37s-3.21-20.44-9.64-26.61c-6.43-6.17-16.33-9.26-29.57-9.26h-14.66v71.36h16.59c12.08-.13 21.21-3.08 27.64-9.13zm-95.54-85.13v23.28h-58.37v24.17h52.46v22.37h-52.46v24.3h60.3v23.15h-86.4V490.42Zm-139.63 43.46-31.76 64.17H481.3l-31.5-64.17v73.8h-26.23V490.43h35.48l30.22 64.42 30.35-64.42h35.23V607.7h-26.23Zm-160.09-43.46h26.23V607.7h-26.23zm-119.06 0h26.23v48.22l44.36-48.22h32.27l-46.67 51.82c3.98 5.66 11.44 16.07 22.37 31.25 10.8 15.3 18.9 26.61 24.3 34.2h-30.6l-34.46-46.29-11.7 13.12v33.17h-26.1zm-55.03 0h26.23V607.7h-26.23Zm-134.5 67.5 20.83-67.5h27.39l20.7 67.5 23.27-67.5h28.42L139.66 607.7h-19.42l-25.71-81.52-25.46 81.52H49.65L8.76 490.42h28.42Z"
        style="stroke-width:1.28581" />
</svg>