<svg xmlns="http://www.w3.org/2000/svg" width="168" height="104">
    <path
        d="M67.75 23.88c0 .29-.04.54-.1.75a1.62 1.62 0 0 1-.73.93c-.16.1-.33.17-.5.22v.02a1.8 1.8 0 0 1 1.08.64c.14.17.25.36.34.59a2.32 2.32 0 0 1-.04 1.64c-.12.27-.29.5-.52.7-.24.2-.53.35-.89.46s-.78.17-1.27.17h-1.68v-8.21h1.58c.49 0 .9.05 1.25.15.34.1.63.24.85.42s.38.4.48.66c.1.26.15.55.15.86zm-1.05.04c0-.38-.13-.7-.4-.94s-.7-.37-1.28-.37h-.54v2.83H65c.56 0 .98-.13 1.26-.4s.43-.65.43-1.12zm.16 3.78c0-.44-.15-.8-.44-1.05-.29-.26-.7-.39-1.24-.39h-.7v2.88h.64c.6 0 1.05-.12 1.33-.36.27-.24.4-.6.4-1.08zm6.37 2.3h-.88v-.64h-.02l-.16.2c-.07.1-.18.18-.3.27-.12.08-.27.15-.44.22s-.37.1-.59.1c-.25 0-.48-.05-.68-.12-.2-.08-.38-.2-.52-.36s-.25-.39-.33-.65c-.07-.27-.11-.6-.11-.98v-3.75h.96v3.67c0 .48.08.82.24 1.02.15.2.39.3.72.3.27 0 .5-.06.7-.2.19-.14.34-.28.45-.41v-4.38h.96V30zm4.6 0v-3.68c0-.48-.08-.83-.25-1.04-.16-.2-.4-.31-.74-.31-.29 0-.52.07-.71.21s-.35.28-.46.42V30h-.96v-5.71h.88v.64h.02c.03-.05.08-.12.16-.2.08-.1.18-.19.3-.27s.29-.16.46-.22.37-.1.6-.1a2 2 0 0 1 .69.12c.2.07.38.2.52.36s.25.38.33.65c.08.27.12.6.12.98V30h-.96zm2.14-2.77c0-.58.07-1.07.23-1.45s.34-.7.58-.95.5-.4.8-.5a2.88 2.88 0 0 1 1.39-.1c.13.02.24.05.33.1v-2.74l.97-.11V30h-.89v-.6h-.02a1.37 1.37 0 0 1-.4.44c-.1.08-.24.15-.4.21a1.87 1.87 0 0 1-1.35-.07c-.25-.1-.46-.28-.65-.51-.18-.23-.32-.54-.43-.9s-.16-.82-.16-1.34zm2.26 2.06a1.28 1.28 0 0 0 1.07-.56V25.2a1.35 1.35 0 0 0-.74-.2c-.22 0-.43.04-.62.11-.2.08-.36.2-.5.38s-.26.4-.35.68-.12.62-.12 1.02.03.73.1 1c.07.26.16.47.28.64.12.16.25.28.4.35s.31.1.48.1zm7.18-3.07a7.3 7.3 0 0 1-.08 1.1h-2.91c.03.68.18 1.17.43 1.49.26.32.63.48 1.12.48a1.6 1.6 0 0 0 1.05-.37l.15-.13.36.67-.18.18a1.6 1.6 0 0 1-.32.22 2.3 2.3 0 0 1-1.2.28c-.36 0-.69-.06-.98-.18-.29-.12-.53-.3-.73-.55s-.36-.57-.47-.95a5.04 5.04 0 0 1-.17-1.39c0-.5.06-.94.17-1.31.12-.37.27-.68.47-.91s.43-.42.7-.53c.25-.12.54-.18.84-.18.54 0 .97.18 1.28.52s.47.87.47 1.56zm-1.81-1.29c-.34 0-.62.14-.82.43s-.33.7-.36 1.24h2.08l.02-.18v-.24c0-.4-.07-.7-.23-.92a.8.8 0 0 0-.7-.33zm5.55.51a2.43 2.43 0 0 0-.34-.29 1.08 1.08 0 0 0-.66-.18c-.25 0-.44.06-.58.17s-.2.27-.2.43c0 .22.06.4.18.53.13.14.32.29.57.45l.36.21c.38.23.69.48.91.75.22.26.34.6.34 1.03 0 .45-.16.83-.47 1.14-.32.3-.77.46-1.35.46a2.32 2.32 0 0 1-1.4-.44 2.17 2.17 0 0 1-.21-.21l.46-.76.18.16c.06.07.14.13.24.19s.2.1.32.15.26.06.42.06c.28 0 .5-.07.65-.2s.23-.28.23-.46c0-.13-.02-.25-.06-.35-.03-.1-.09-.19-.16-.27s-.16-.15-.26-.22l-.36-.24-.35-.23a3.45 3.45 0 0 1-.84-.72c-.2-.26-.3-.58-.3-.98a1.38 1.38 0 0 1 .47-1.05 1.84 1.84 0 0 1 1.18-.42c.22 0 .41.02.57.06a1.7 1.7 0 0 1 .7.37l.18.17-.42.7zm4.7 4.56v-3.68c0-.47-.06-.8-.2-1S97.3 25 97 25a1.37 1.37 0 0 0-1 .4l-.18.2V30h-.96v-5.71h.88v.64h.02a1.95 1.95 0 0 1 .48-.5 1.7 1.7 0 0 1 .95-.29c.65 0 1.1.26 1.38.77a1.78 1.78 0 0 1 .56-.5 1.91 1.91 0 0 1 .95-.27c1.16 0 1.74.68 1.74 2.03V30h-.97v-3.68c0-.47-.08-.8-.25-1s-.4-.32-.73-.32c-.27 0-.5.07-.68.2-.17.13-.32.25-.42.37a2.8 2.8 0 0 1 .05.6V30h-.96zm6.37 0h-.96v-5.71h.96V30zm-.47-7.1c-.2 0-.36-.06-.48-.18s-.18-.3-.18-.5.06-.36.18-.5.28-.18.48-.18c.19 0 .34.06.46.19s.18.29.18.49-.06.37-.18.5-.27.19-.46.19zm5.06 7.1v-3.68c0-.48-.08-.83-.24-1.04-.16-.2-.41-.31-.74-.31-.29 0-.53.07-.72.21s-.34.28-.45.42V30h-.96v-5.71h.88v.64h.02c.03-.05.08-.12.16-.2.08-.1.18-.19.3-.27s.28-.16.46-.22.37-.1.6-.1a2 2 0 0 1 .68.12c.2.07.38.2.53.36s.25.38.33.65c.08.27.12.6.12.98V30h-.97zm3.37 0h-.96v-5.71h.96V30zm-.47-7.1c-.2 0-.36-.06-.48-.18s-.18-.3-.18-.5.06-.36.18-.5.28-.18.48-.18c.19 0 .34.06.46.19s.18.29.18.49-.06.37-.18.5-.27.19-.46.19zm4.41 2.54a2.43 2.43 0 0 0-.34-.29 1.08 1.08 0 0 0-.66-.18c-.25 0-.45.06-.58.17s-.2.27-.2.43c0 .22.06.4.18.53.12.14.31.29.57.45l.35.21c.4.23.7.48.92.75.22.26.33.6.33 1.03 0 .45-.15.83-.47 1.14-.31.3-.76.46-1.35.46a2.32 2.32 0 0 1-1.39-.44 2.17 2.17 0 0 1-.21-.21l.46-.76.17.16c.07.07.15.13.25.19s.2.1.32.15.26.06.41.06c.29 0 .5-.07.66-.2s.22-.28.22-.46c0-.13-.01-.25-.05-.35-.03-.1-.09-.19-.16-.27s-.16-.15-.26-.22l-.36-.24-.36-.23a3.45 3.45 0 0 1-.83-.72c-.2-.26-.3-.58-.3-.98a1.38 1.38 0 0 1 .47-1.05 1.84 1.84 0 0 1 1.18-.42c.22 0 .4.02.57.06a1.7 1.7 0 0 1 .7.37l.18.17-.42.7zm4.14-.37h-1.25v3.17c0 .4.05.68.16.83.1.14.28.22.52.22.14 0 .27-.02.37-.06l.23-.11.13.77-.29.15c-.15.07-.35.1-.6.1-.5 0-.87-.13-1.11-.4-.25-.28-.37-.74-.37-1.37v-3.3h-.7v-.64l.7-.14.1-1.6h.86v1.6h1.37l-.12.78zm4.68 1.15a7.3 7.3 0 0 1-.07 1.1h-2.92c.03.68.18 1.17.44 1.49.25.32.63.48 1.11.48a1.6 1.6 0 0 0 1.05-.37l.15-.13.36.67-.18.18a1.6 1.6 0 0 1-.32.22 2.3 2.3 0 0 1-1.2.28c-.36 0-.68-.06-.97-.18-.3-.12-.54-.3-.74-.55s-.36-.57-.47-.95a5.04 5.04 0 0 1-.17-1.39c0-.5.06-.94.18-1.31.11-.37.27-.68.47-.91s.42-.42.69-.53c.26-.12.54-.18.84-.18.55 0 .98.18 1.29.52s.46.87.46 1.56zm-1.8-1.29c-.35 0-.62.14-.83.43s-.33.7-.36 1.24h2.08l.02-.18v-.24c0-.4-.07-.7-.23-.92a.8.8 0 0 0-.69-.33zm5.6.2-.16-.06a.96.96 0 0 0-.32-.03c-.3 0-.54.08-.7.24-.18.16-.3.34-.37.53V30h-.97v-5.71h.89v.77h.02l.15-.33a1.05 1.05 0 0 1 .58-.48c.13-.05.29-.07.47-.07.14 0 .24.01.33.04l.2.06-.12.85zm1.91 4.87h-.96v-5.71h.96V30zm-.47-7.1c-.2 0-.36-.06-.48-.18s-.18-.3-.18-.5.06-.36.18-.5.28-.18.48-.18c.19 0 .34.06.46.19s.18.29.18.49-.06.37-.18.5-.27.19-.46.19zm5.95 7.1h-.89v-.64h-.02l-.15.2c-.08.1-.18.18-.3.27-.13.08-.28.15-.45.22s-.37.1-.59.1c-.25 0-.48-.05-.68-.12-.2-.08-.38-.2-.52-.36s-.25-.39-.33-.65c-.07-.27-.1-.6-.1-.98v-3.75h.96v3.67c0 .48.07.82.23 1.02.15.2.4.3.72.3.27 0 .5-.06.7-.2.19-.14.34-.28.45-.41v-4.38h.97V30zm4.47 0v-3.68c0-.47-.07-.8-.2-1s-.36-.32-.66-.32a1.37 1.37 0 0 0-1 .4l-.18.2V30h-.96v-5.71h.88v.64h.03a1.95 1.95 0 0 1 .47-.5 1.7 1.7 0 0 1 .95-.29c.65 0 1.11.26 1.38.77a1.78 1.78 0 0 1 .56-.5 1.91 1.91 0 0 1 .96-.27c1.15 0 1.73.68 1.73 2.03V30h-.96v-3.68c0-.47-.08-.8-.25-1s-.41-.32-.74-.32c-.27 0-.5.07-.67.2-.18.13-.32.25-.42.37a2.8 2.8 0 0 1 .04.6V30h-.96zm-74.96 7.07h-1.16V42h-.97v-4.93h-.69v-.64l.7-.13v-1.14c0-.31.04-.58.12-.8s.2-.4.35-.55.3-.24.5-.3.39-.1.6-.1a1.45 1.45 0 0 1 .81.21l-.2.8c-.05-.03-.11-.07-.2-.1s-.2-.06-.32-.06c-.23 0-.4.08-.53.22s-.17.4-.17.78v1.03h1.28l-.12.78zM70.6 42h-.88v-.64h-.02l-.16.2c-.08.1-.18.18-.3.27-.12.08-.27.15-.45.22s-.37.1-.58.1c-.25 0-.48-.05-.68-.12-.2-.08-.38-.2-.52-.36s-.25-.39-.33-.65c-.07-.27-.11-.6-.11-.98v-3.75h.96v3.67c0 .48.08.82.23 1.02.16.2.4.3.72.3.28 0 .52-.06.7-.2.2-.14.35-.28.46-.41v-4.38h.96V42zm-2.37-7.35c0 .18-.05.32-.16.44s-.25.16-.4.16-.3-.05-.41-.16-.17-.26-.17-.44.06-.33.17-.44.24-.17.4-.17.3.05.4.17.17.25.17.44zm1.84 0c0 .18-.06.32-.17.44s-.25.16-.4.16-.3-.05-.4-.16-.18-.26-.18-.44.06-.33.17-.44.25-.17.4-.17.3.05.41.17.17.25.17.44zm4.52 2.48-.16-.06a.96.96 0 0 0-.32-.03c-.3 0-.53.08-.7.24-.18.16-.3.34-.37.53V42h-.96v-5.71h.88v.77h.02c.04-.11.1-.22.16-.33s.14-.2.23-.28.21-.15.34-.2c.14-.05.3-.07.47-.07.14 0 .25.01.33.04l.2.06-.12.85zm7.71-1.25c0 .29-.04.54-.1.75a1.62 1.62 0 0 1-.73.93c-.16.1-.33.17-.5.22v.02a1.8 1.8 0 0 1 1.09.64 2.14 2.14 0 0 1 .46 1.33c0 .33-.06.63-.17.9s-.29.5-.52.7c-.23.2-.53.35-.89.46s-.78.17-1.27.17h-1.68v-8.21h1.58c.49 0 .9.05 1.25.15.34.1.63.24.85.42s.38.4.48.66c.1.26.15.55.15.86zm-1.05.04c0-.38-.13-.7-.4-.94s-.7-.37-1.28-.37h-.54v2.83h.53c.56 0 .98-.13 1.26-.4s.43-.65.43-1.12zm.16 3.78c0-.44-.15-.8-.44-1.05-.29-.26-.7-.39-1.24-.39h-.7v2.88h.64c.61 0 1.05-.12 1.33-.36.27-.24.4-.6.4-1.08zm3.34 2.3h-.96v-5.71h.96V42zm-.47-7.1c-.2 0-.36-.06-.48-.18s-.18-.3-.18-.5.06-.36.18-.5.28-.18.48-.18c.19 0 .34.06.46.19s.18.29.18.49-.06.37-.18.5-.27.19-.46.19zm2.9 5.77c0 .23.03.4.1.5.07.1.18.14.35.14a.87.87 0 0 0 .36-.07l.08.71a1.77 1.77 0 0 1-.77.15c-.33 0-.59-.1-.79-.3s-.3-.54-.3-1.05v-7.16l.97-.11v7.19zm1.5-1.44c0-.58.07-1.07.22-1.45s.35-.7.59-.95.5-.4.8-.5a2.88 2.88 0 0 1 1.39-.1c.13.02.24.05.33.1v-2.74l.96-.11V42h-.88v-.6h-.02a1.37 1.37 0 0 1-.4.44c-.1.08-.24.15-.4.21a1.87 1.87 0 0 1-1.35-.07c-.25-.1-.46-.28-.65-.51-.18-.23-.32-.54-.43-.9s-.16-.82-.16-1.34zm2.26 2.06a1.28 1.28 0 0 0 1.07-.56V37.2a1.35 1.35 0 0 0-.74-.2c-.22 0-.43.04-.62.11-.2.08-.37.2-.5.38s-.26.4-.35.68-.12.62-.12 1.02.03.73.1 1c.07.26.16.47.28.64.12.16.25.28.4.35s.31.1.48.1zm7.5.71h-.87v-.64h-.03l-.15.2c-.08.1-.18.18-.3.27-.13.08-.28.15-.45.22s-.37.1-.58.1c-.26 0-.49-.05-.69-.12-.2-.08-.37-.2-.52-.36s-.25-.39-.32-.65c-.08-.27-.12-.6-.12-.98v-3.75h.97v3.67c0 .48.08.82.23 1.02.15.2.4.3.72.3.28 0 .51-.06.7-.2.2-.14.34-.28.45-.41v-4.38h.97V42zm4.6 0v-3.68c0-.48-.08-.83-.24-1.04-.17-.2-.41-.31-.75-.31-.28 0-.52.07-.71.21s-.34.28-.45.42V42h-.97v-5.71h.88v.64h.03a1.5 1.5 0 0 1 .46-.47 1.8 1.8 0 0 1 1.05-.32 2 2 0 0 1 .69.12c.2.07.38.2.52.36s.26.38.34.65c.08.27.12.6.12.98V42h-.97zm6.5-4.96h-.72a2.13 2.13 0 0 1 .13 1.84 1.72 1.72 0 0 1-1.05.99c-.24.09-.5.13-.78.13h-.15l-.16-.01c-.1.04-.2.1-.3.19s-.15.2-.15.34c0 .12.05.22.14.3.09.07.24.1.44.1h.73c.27 0 .52.04.75.1s.43.14.6.26c.17.12.3.28.4.47s.14.42.14.69c0 .3-.06.6-.2.84s-.3.48-.55.66-.52.32-.87.43-.72.15-1.14.15c-.6 0-1.07-.13-1.39-.4-.32-.26-.48-.64-.48-1.14 0-.22.04-.4.12-.56a1.75 1.75 0 0 1 .84-.84v-.02a.93.93 0 0 1-.37-.8c0-.15.03-.28.09-.4s.12-.2.2-.26a1.22 1.22 0 0 1 .4-.27v-.02c-.3-.13-.53-.35-.71-.64a2.1 2.1 0 0 1-.27-1.1c0-.33.05-.6.16-.85a1.7 1.7 0 0 1 1.03-.96 2.34 2.34 0 0 1 1.51.03h1.74l-.13.75zm-2.65 4.78c-.17 0-.32-.01-.44-.03a1.4 1.4 0 0 0-.21.14 1 1 0 0 0-.32.48c-.04.1-.06.23-.06.37 0 .62.34.92 1.01.92.58 0 1.01-.11 1.29-.34s.42-.48.42-.78c0-.28-.1-.47-.27-.59-.17-.11-.4-.17-.7-.17h-.72zm1.27-3.76c0-.41-.1-.7-.3-.88a1 1 0 0 0-.68-.26c-.27 0-.51.09-.71.26s-.3.47-.3.88.1.7.3.88.43.26.69.26c.28 0 .51-.08.7-.26.2-.17.3-.47.3-.88zM67.24 54h-.88v-.64h-.03l-.15.2c-.08.1-.18.18-.3.27-.13.08-.28.15-.45.22s-.37.1-.59.1c-.25 0-.48-.05-.68-.12-.2-.08-.37-.2-.52-.36s-.25-.39-.32-.65c-.08-.27-.12-.6-.12-.98v-3.75h.97v3.67c0 .48.07.82.23 1.02.15.2.4.3.72.3.28 0 .51-.06.7-.2.2-.14.34-.28.45-.41v-4.38h.97V54zm4.59 0v-3.68c0-.48-.08-.83-.24-1.04-.17-.2-.41-.31-.75-.31-.28 0-.52.07-.71.21s-.34.28-.45.42V54h-.97v-5.71h.88v.64h.03a1.5 1.5 0 0 1 .46-.47 1.8 1.8 0 0 1 1.05-.32 2 2 0 0 1 .69.12c.2.07.38.2.52.36s.26.38.33.65c.08.27.12.6.12.98V54h-.96zm2.14-2.77c0-.58.08-1.07.23-1.45s.34-.7.58-.94.5-.41.81-.51a2.88 2.88 0 0 1 1.38-.1c.14.02.25.05.33.1v-2.74l.97-.11V54h-.88v-.6h-.03a1.37 1.37 0 0 1-.39.44 1.73 1.73 0 0 1-1 .3c-.27 0-.52-.05-.77-.16-.24-.1-.45-.28-.63-.51-.19-.23-.33-.54-.44-.9s-.16-.82-.16-1.34zm2.26 2.06a1.28 1.28 0 0 0 1.07-.56V49.2a1.35 1.35 0 0 0-.74-.2c-.22 0-.42.04-.62.11-.2.08-.36.2-.5.38s-.26.4-.34.68-.13.62-.13 1.02.04.73.1 1c.07.26.16.47.28.64.12.16.26.28.4.35s.32.1.48.1zm6.24.71v-8.21h4.03l-.07.82H83.5v3.03h2.7v.83h-2.7V54h-1.03zm4.76-2.86c0-.52.06-.97.18-1.35.13-.38.3-.7.5-.94.21-.24.46-.42.73-.53a2.22 2.22 0 0 1 1.76 0c.26.11.5.3.7.53.2.24.35.56.47.94.11.38.17.83.17 1.35 0 .54-.06 1-.18 1.37s-.28.7-.5.94c-.2.24-.45.41-.73.53s-.57.16-.88.16c-.31 0-.6-.05-.88-.16s-.5-.3-.7-.53c-.2-.25-.35-.56-.47-.93a4.75 4.75 0 0 1-.17-1.38zm3.5 0c0-.76-.1-1.31-.32-1.66-.23-.34-.54-.51-.93-.51s-.7.17-.92.51c-.22.35-.33.9-.33 1.66s.1 1.31.33 1.65.53.5.93.5.7-.17.92-.5c.22-.34.33-.88.33-1.65zm4.73-2-.15-.07a.96.96 0 0 0-.32-.03c-.3 0-.54.08-.71.24-.17.16-.3.34-.36.53V54h-.97v-5.71h.88v.77h.03l.15-.33a1.05 1.05 0 0 1 .58-.48c.13-.05.29-.07.47-.07.13 0 .24.01.33.04l.2.06-.13.85zm3.37.3a2.43 2.43 0 0 0-.34-.29 1.08 1.08 0 0 0-.66-.18c-.25 0-.45.06-.58.17s-.2.27-.2.43c0 .22.06.4.18.53.12.14.31.29.57.45l.35.21c.4.23.7.48.92.75.22.26.33.6.33 1.03 0 .45-.15.83-.47 1.14-.31.3-.76.46-1.35.46a2.32 2.32 0 0 1-1.4-.44 2.17 2.17 0 0 1-.2-.21l.46-.76.17.16c.07.07.15.13.25.19s.2.1.32.15.25.06.41.06c.29 0 .5-.07.66-.2s.22-.28.22-.46c0-.13-.01-.25-.05-.35-.04-.1-.09-.19-.16-.27s-.16-.15-.26-.22l-.36-.24-.36-.23a3.45 3.45 0 0 1-.83-.72c-.2-.26-.3-.58-.3-.98a1.38 1.38 0 0 1 .47-1.05 1.84 1.84 0 0 1 1.18-.42c.22 0 .4.02.57.06a1.7 1.7 0 0 1 .7.37l.18.17-.42.7zm4.88-.05a4.4 4.4 0 0 0-.3-.25l-.3-.12a1.47 1.47 0 0 0-.96.06c-.17.07-.33.2-.46.36s-.23.38-.3.65a4.7 4.7 0 0 0-.01 2.03 2 2 0 0 0 .27.68c.12.17.27.3.44.37.17.08.35.12.56.12.3 0 .52-.06.67-.16s.27-.19.33-.25l.4.67a1.75 1.75 0 0 1-.47.37 2.39 2.39 0 0 1-1.02.23c-.32 0-.62-.06-.9-.16s-.52-.28-.72-.51-.37-.55-.49-.93-.18-.85-.18-1.42c0-.55.07-1.01.22-1.4s.32-.68.55-.91c.23-.24.49-.4.77-.51a2.38 2.38 0 0 1 1.83.04c.12.06.21.13.29.2.08.06.14.12.18.17l-.4.67zm4.53 4.61v-3.68c0-.48-.08-.83-.24-1.04-.16-.2-.41-.31-.74-.31-.29 0-.53.07-.72.21s-.34.28-.45.42V54h-.96v-8.41l.96-.11v3.4h.02l.15-.2c.07-.08.16-.16.28-.24a1.92 1.92 0 0 1 1.04-.3c.5 0 .9.17 1.19.5s.44.86.44 1.61V54h-.97zm6.4 0h-.87v-.64h-.03l-.15.2c-.08.1-.18.18-.3.27-.13.08-.28.15-.45.22s-.37.1-.59.1c-.25 0-.48-.05-.68-.12-.2-.08-.37-.2-.52-.36s-.25-.39-.32-.65c-.08-.27-.12-.6-.12-.98v-3.75h.97v3.67c0 .48.07.82.23 1.02.15.2.4.3.72.3.28 0 .51-.06.7-.2.19-.14.34-.28.45-.41v-4.38h.97V54zm4.6 0v-3.68c0-.48-.08-.83-.24-1.04-.17-.2-.41-.31-.75-.31-.28 0-.52.07-.71.21s-.34.28-.45.42V54h-.97v-5.71h.88v.64h.03a1.5 1.5 0 0 1 .46-.47 1.8 1.8 0 0 1 1.05-.32 2 2 0 0 1 .69.12c.2.07.38.2.52.36s.26.38.33.65c.08.27.12.6.12.98V54h-.96zm6.5-4.96h-.72a2.13 2.13 0 0 1 .13 1.84 1.72 1.72 0 0 1-1.05.99c-.24.09-.5.13-.78.13h-.15l-.16-.01c-.1.04-.2.1-.3.19s-.15.2-.15.34c0 .12.05.22.14.3.09.07.24.1.44.1h.73c.27 0 .52.04.75.1s.43.14.6.26c.17.12.3.28.4.47s.14.42.14.69c0 .3-.06.6-.2.84s-.31.48-.55.66-.53.32-.87.43-.72.15-1.14.15c-.61 0-1.07-.13-1.4-.4-.31-.26-.47-.64-.47-1.14 0-.22.04-.4.11-.56a1.75 1.75 0 0 1 .84-.84v-.02a.93.93 0 0 1-.37-.8c0-.15.03-.28.1-.4a1.16 1.16 0 0 1 .6-.53v-.02c-.3-.13-.53-.35-.71-.64a2.1 2.1 0 0 1-.27-1.1c0-.33.05-.6.15-.85a1.7 1.7 0 0 1 1.03-.96 2.34 2.34 0 0 1 1.52.03h1.74l-.13.75zm-2.66 4.78c-.16 0-.31-.01-.44-.03a1.4 1.4 0 0 0-.2.14 1 1 0 0 0-.33.48c-.03.1-.05.23-.05.38 0 .6.34.91 1.01.91.58 0 1-.11 1.29-.34s.41-.48.41-.78c0-.27-.08-.47-.26-.59-.17-.11-.4-.17-.7-.17h-.73zm1.28-3.76c0-.41-.1-.7-.3-.88a1 1 0 0 0-.68-.26c-.28 0-.51.09-.71.26s-.3.47-.3.88.1.7.3.88.43.26.69.26c.27 0 .51-.08.7-.26.2-.17.3-.47.3-.88zM37.17 29.34c.03-.23.05-.46.05-.7 0-.12 0-.27-.02-.44 2-.03 3.74-1.47 3.74-3.12 0-.84-.55-1.47-.85-1.85l.2-.05c.3.26 1.13 1.16 1.13 2.3 0 1.98-1.99 3.82-4.25 3.86m-2-6.9a1.36 1.36 0 0 0-.25-.6c0-.2.09-.39.41-.23-.18.18-.04.5-.04.5s.36-.17.29-.4c.53.12.15.84-.42.73m-.46 1.02c-.07-.3-.22-.6-.41-.83-.18-.21-.47-.46-.86-.46-.18 0-.48.09-.67.17a1.83 1.83 0 0 1-.21-.59c0-.14.24-.29.71-.29 1.03 0 1.65.47 1.65 1.25 0 .27-.11.52-.2.75m2.64 13.3c.12 0 .18.02.25.04.3.81 1.44 2.33 1.49 2.4l.01.01h.02c.28-.04 1-.15 1.6-.15.07 0 .15 0 .2.04.03.04.05.11.05.2 0 .16-.06.41-.14.52-.2-.23-.55-.33-1.1-.33-.16 0-.35.05-.46.07l-.04.01-.05.02.32.31c.48.49.9.9.9 1.19 0 .16-.16.38-.31.48-.03-.51-.55-1.2-1.05-1.58l-.05-.03v.18l-.02.5c0 .97-.1 1.12-.44 1.12a.62.62 0 0 1-.18-.03c.2-.24.27-.55.27-1.09v-.45c0-.23.01-.4.03-.52l.01-.08h-.05a5.46 5.46 0 0 0-.68-.07c-.48 0-.8.05-1.04.27-.16-.13-.32-.35-.32-.48 0-.2.13-.22.3-.22l.27.02c.2.03.51.08 1.16.08h.04l-.02-.04a7.78 7.78 0 0 0-1.32-2c.06-.24.13-.4.35-.4m-6.17 2.4-.02.04h.04c.64 0 .96-.04 1.16-.08l.27-.02c.17 0 .3.02.3.22 0 .14-.16.35-.32.48-.24-.22-.56-.27-1.04-.27-.23 0-.52.04-.68.06h-.02l-.03.01v.08c.03.13.05.3.05.52v.45c0 .54.07.85.26 1.09a.63.63 0 0 1-.18.03c-.34 0-.44-.15-.44-1.12l-.01-.5-.01-.18-.05.03c-.5.39-1.02 1.07-1.05 1.58-.15-.1-.31-.32-.31-.48 0-.28.42-.7.9-1.19l.32-.31-.1-.02c-.1-.03-.3-.08-.46-.08-.54 0-.88.1-1.1.33-.07-.1-.13-.36-.13-.51 0-.1.02-.17.06-.2.04-.05.12-.05.18-.05h.02c.6 0 1.31.1 1.6.15h.01l.01-.01c.05-.06 1.2-1.59 1.5-2.4a.6.6 0 0 1 .24-.04c.22 0 .29.15.35.38a7.76 7.76 0 0 0-1.32 2.01m-3.1-13.67c0-1.14.84-2.04 1.13-2.3l.2.05c-.3.38-.85 1.01-.85 1.85 0 1.67 1.78 3.12 3.8 3.12a4.96 4.96 0 0 0 .02 1.14c-2.29-.02-4.3-1.87-4.3-3.86m15.31 3.51c1.03 1.62 1.83 1.6 3.04 1.6a8.65 8.65 0 0 1-1.98-2.26l-1.87-3a4.43 4.43 0 0 0-1.38-2.42c.24-.1.44-.19.56-.28-1.22 0-2.43-.62-3.1-.62-.42 0-.7.26-.7.6.03.37.42.75 1.13.75.17 0 .37-.02.6-.05.4.54.7 1.03.7 1.72 0 1.31-1.56 2.33-3.14 2.33h-.27c-.14-.33-.62-.88-.62-1.5 0-1.04.68-1.89.68-2.92 0-.64-.31-1.04-.43-1.2.2-.18.4-.4.46-.55-.12.04-.25.05-.45.05-.75 0-1.37-.2-1.97-.2-.35 0-.44.11-.44.21l.01.1a3.05 3.05 0 0 0-.96-.16c-.73 0-1 .3-1 .56 0 .23.18.63.38.94.29-.14.63-.24.79-.24.39 0 .73.37.91.8-.26.04-.3.05-.57.05-.71 0-1.2-.25-1.3-.25 0 0-.03 0-.03.02 0 .1.2.36.6.5.53.2 1.31.28 1.45.3 0 .02-.14.27-.29.32a6.56 6.56 0 0 1-1.49-.41c-.02-.01-.03 0-.03.02 0 .28.71.88 1.35 1.12-.53.68-1.2 1.37-1.51 2.43l-.27.01c-1.58 0-3.14-1.02-3.14-2.33 0-.7.31-1.18.7-1.72.23.03.43.05.6.05.71 0 1.1-.38 1.13-.76 0-.33-.28-.59-.7-.59-.67 0-1.88.62-3.1.62.12.1.32.19.56.28-.72.64-1.2 1.5-1.38 2.43l-1.87 3c-.31.5-.98 1.48-1.98 2.24 1.21 0 2.01.03 3.04-1.59l.96-1.53c.07.2.16.39.26.58l-1.9 3.05c-.33.5-.98 1.48-1.99 2.25 1.21 0 2.01.03 3.04-1.59l1.64-2.62.39.38-2.32 3.7c-.32.51-.97 1.48-1.98 2.25 1.21 0 2.01.03 3.04-1.59l2.26-3.61c.14.1.3.18.45.27l-2.75 4.41a8.6 8.6 0 0 1-1.98 2.25c1.2 0 2.01.03 3.03-1.59l2.84-4.54.51.18-3.2 5.13c-.32.5-.99 1.49-1.98 2.25 1.2 0 2.01.03 3.03-1.59l3.42-5.47.1.02c.1.3.16.57.16.85 0 1.72-1.13 3.23-2.48 4.4.09.04.24.06.38.06.28 0 .46-.02.58-.04-.31.71-.98 1.63-1.32 2.11a9.88 9.88 0 0 0-1.51-.14c-.45 0-.5.26-.5.49 0 .4.2.72.41.9.08-.21.25-.48 1.06-.48h.08c-.23.27-.98.87-.98 1.36 0 .32.35.8.82.8-.03-.1-.03-.2-.03-.27 0-.4.35-.85.65-1.18v.2c0 .93.08 1.36.67 1.36.29 0 .49-.16.56-.2-.39-.36-.4-.64-.4-1.16a115.9 115.9 0 0 1-.02-.84c.2-.03.3-.03.46-.03 0 0 .84-.07 1.04.37.23-.21.56-.5.56-.83 0-.22-.1-.46-.54-.46-.16 0-.68.1-1.1.1.11-.26.62-1.01 1.07-1.56.07.21.18.44.4.63.04-.35.25-1.46.8-2.12.06.44.15.9.15 1.85 0 2.31-.56 4.02-1.74 4.35.15.26.48.5.82.5.43 0 .66-.49.9-.95.13.34.47 1.18.82 1.18s.7-.84.82-1.18c.24.46.47.95.9.95.34 0 .67-.24.82-.5-1.18-.33-1.74-2.04-1.74-4.35 0-.95.09-1.4.15-1.85.55.66.76 1.77.8 2.12.23-.19.33-.42.4-.63.45.55.96 1.3 1.08 1.56-.43 0-.95-.1-1.11-.1-.43 0-.54.24-.54.46 0 .32.33.62.56.83.2-.44 1.04-.37 1.04-.37.17 0 .25 0 .46.03-.02.11-.02.27-.02.39v.45c0 .52-.01.8-.4 1.15.07.05.27.21.56.21.6 0 .68-.43.68-1.36v-.2c.29.32.64.79.64 1.18 0 .07 0 .17-.03.27.47 0 .82-.48.82-.8 0-.49-.74-1.1-.98-1.36h.08c.81 0 .98.27 1.06.47.22-.17.4-.5.4-.9 0-.22-.04-.48-.49-.48a9.9 9.9 0 0 0-1.5.14c-.35-.48-1.02-1.4-1.33-2.11.12.02.3.04.58.04.14 0 .3-.02.38-.05-1.35-1.18-2.48-2.7-2.48-4.41 0-.28.06-.55.16-.85l.1-.02 3.42 5.47c1.02 1.62 1.82 1.6 3.03 1.6a8.65 8.65 0 0 1-1.97-2.26l-3.21-5.13.51-.18 2.84 4.54c1.02 1.62 1.82 1.6 3.03 1.6a8.6 8.6 0 0 1-1.98-2.26l-2.75-4.41.46-.27 2.25 3.61c1.03 1.62 1.83 1.6 3.04 1.6a8.58 8.58 0 0 1-1.98-2.26l-2.32-3.7.4-.39 1.63 2.63c1.03 1.62 1.83 1.6 3.04 1.6a8.62 8.62 0 0 1-1.98-2.26l-1.9-3.05c.1-.19.18-.38.25-.58zM56 42h-3.5V22H56z" />
    <path fill="red" d="M56 62h-3.5V42H56z" />
    <path fill="#fc0" d="M56 82h-3.5V62H56z" />
</svg>