<svg xmlns="http://www.w3.org/2000/svg" width="593" height="668" fill="none"><g clip-path="url(#a)"><path fill="#fff" d="M0 0h593v668H0z"/><circle cx="301.5" cy="389.5" r="246.5" fill="#7FC1F0"/><circle cx="301.5" cy="389.5" r="229.5" stroke="#fff" stroke-opacity=".4" stroke-width="34"/><mask id="b" width="497" height="611" x="19" y="-8" maskUnits="userSpaceOnUse" style="mask-type:alpha"><path fill="#9ECEE7" fill-rule="evenodd" d="M430-8H19v301h94a213 213 0 1 0 317-74V-8Z" clip-rule="evenodd"/></mask><g mask="url(#b)"><path fill="#272525" d="M323 234c-7 2-14 6-14 10-1 3 1 7 2 10 12 23 20 47 26 73 11-2 22-4 33-8 3 12 7 24 13 35 4-3 6-7 7-11 10-23 22-46 30-70 1-3 2-6 1-9l-3-3-18-24-23-25c-7-7-16-12-23-20-1-1-3-3-4-2l-1 3c-1 11-2 23-1 34 0 0-14 2-25 7Z"/><path fill="#C1172C" d="m430 350-1 2c-11-7-20-20-26-41l-3-11c-3-12-6-24-13-35l1-1c7 11 11 24 14 36l3 11c5 20 14 33 25 39Z"/><path fill="#C1172C" d="M427 358a191 191 0 0 0 15 13h1a143 143 0 0 0 10-12l-1-1-3-3c-4-4-7-8-12-9-10-4-18 3-10 12Z"/><path fill="#C1172C" d="M420 345c-1 3 1 7 5 7 7-1 6-11-1-10-2 0-3 2-4 3Z"/><path fill="#070707" d="M383 265c-2 4 4 9 7 5 2-2 2-6 0-7-3-2-6-1-7 2Z"/><path fill="#7CC0A7" d="m106 180 15-2-10 12-5-10Zm15 35 18-4-13 14-5-10Zm14 32 21-4-15 16-6-12Zm17 37 26-5-18 20-8-15Zm17 32 28-4-18 22-10-18Zm21 33 28-16-15 30-13-14Zm31 25 21-24-2 33-19-9Zm42-305-13-8 15-3-2 11Zm2 37-17-12 18-4-1 16Zm-2 35-17-12 17-4v16Zm1 41-26-14 26-8v22Zm4 37-29-13 28-8 1 21Zm8 37-31-11 26-10 5 21Zm4 46-36-8 35-12 1 20Zm9 53-30-9 29-11 1 20Z"/><path fill="#0F774B" d="M288 23s76-4 15 46c0 0 64-5-4 44l3 79s79 20 19 81c0 0 67 35 11 97 0 0-57 119-145 12L86 191s-6-26 15-17c20 9 47 150 107 192 61 43 78-13 78-13s-58-341 2-330Z"/><path fill="#1A1B1F" d="M332 349c9-19-2-40-17-51a40 40 0 0 0 17 51Z"/><path fill="#fff" d="M326 329c-5 2-10 2-10 0-1-1 2-5 7-7s10-2 11 0c0 2-3 5-8 7Z"/><path fill="#1A1B1F" d="m324 212-1-1c-10 9-16 21-14 35 1 6 3 12 6 17h1c16-12 16-34 8-51Z"/><path fill="#fff" d="M319 243c-5 0-9-2-9-4s4-4 10-3c5 0 9 2 9 4s-5 4-10 3Zm-9-195a6 6 0 1 1-7-11 6 6 0 0 1 7 11Zm1 47a6 6 0 1 1-6-10 6 6 0 0 1 6 10Z"/><path fill="#0F774B" d="M892 674a862 862 0 0 0-219-283c-14-8-32-24-51-43l-62 33c30 51 56 93 60 108 13 41 37 121-42 131-54 8-249-258-249-258-63 112-139 20-139 20s340 714 587 651 143-288 115-359Z"/><path fill="#7CC0A7" d="m333 367 37-11-25 30-12-19Zm22 46 37-11-25 30-12-19Z"/></g></g><defs><clipPath id="a"><path fill="#fff" d="M0 0h593v668H0z"/></clipPath></defs></svg>