<svg xmlns="http://www.w3.org/2000/svg" width="593" height="668" fill="none">
    <circle cx="301.5" cy="389.5" r="246.5" fill="#9983F0" />
    <circle cx="301.5" cy="389.5" r="229.5" stroke="#fff" stroke-opacity=".4" stroke-width="34" />
    <mask id="a" width="486" height="534" x="29" y="69" maskUnits="userSpaceOnUse" style="mask-type:alpha">
        <path fill="#D9D9D9" fill-rule="evenodd" d="M361 69H29v281h64a213 213 0 1 0 268-165V69Z" clip-rule="evenodd" />
    </mask>
    <g mask="url(#a)">
        <path fill="#F2BC41"
            d="M485 510c-3-38-16-72-31-107l-44-107c-5-14-10-28-17-41-5-10-12-18-20-26l-22-24c-16-17-35-32-56-42-20-11-42-18-64-19-20-1-37 6-55 12-27 9-51 22-60 51-5 18-4 39-3 58 1 2 2 4 4 4l27 7c15 5 32 11 44 22 5 5 9 10 8 17 0 4-1 8-3 11l-10 22c-11 24-19 49-8 74 5 10 15 19 16 31 0 9-5 16-10 23-10 13-25 23-40 30-16 9-29 24-40 39-12 19-19 40-19 62-1 30 11 60 27 85h-3a1954 1954 0 0 0 50 47 448 448 0 0 0 216-50c42-22 81-54 101-99 10-25 14-53 12-80Z" />
        <path fill="#040100"
            d="M266 170c-6-11-20-23-34-23-10 0-18 8-24 16-4 6-7 13-9 20l2 3 36 32 2 1h3c17-10 35-29 24-49Z" />
        <path fill="#fff"
            d="M250 177c-5-7-14-14-23-14-6 1-11 5-15 11l-6 13a284736 284736 0 0 1 28 23c11-6 23-19 16-33Z" />
        <path fill="#040100"
            d="M159 180c-2-14-9-33-24-38-12-4-27 3-36 12-10 9-12 21-5 33 4 9 11 16 18 21l4 1h2a354032 354032 0 0 1 41-29Z" />
        <path fill="#fff" d="M151 182c-2-13-10-27-26-22-9 3-20 11-17 23 1 6 7 13 12 17h3l2-1 25-16 1-1Z" />
        <path fill="#C99732"
            d="M214 436c-2-19-4-39-4-59l1-28 4-32a247 247 0 0 0-1-88h-1l-2-2-5-1-23 53-5 10c-2 5 1 8 1 13 1 14-5 26-11 39-10 27-16 59-6 87 3 10 10 19 9 30-1 15-13 28-23 38l-36 35c-1 2-7 7-7 9 1 2 7 4 8 5 28 12 57 3 79-16 26-22 24-62 22-93Z" />
        <path fill="#EFC048"
            d="M249 245c-3-29-20-67-52-70-20-5-45-7-63 2s-24 26-27 44c-2 18-2 37 5 54 14 36 60 45 95 38 33-6 45-38 42-68Z" />
        <path fill="#fff"
            d="M170 263s-3 28-14 17c-10-11 9-31 14-17Zm0 0s0 28 12 18c12-9-4-31-12-18Zm-51-34s21-21 41 6c0 0-25 16-41-6Z" />
        <path fill="#040100" d="m151 233-2-5c-1-2-2-3-3-2l-2 2v6c0 3 2 7 4 7 3-1 3-4 3-8Z" />
        <path fill="#fff" d="M192 235s18-21 38 6c0 0-22 15-38-6Z" />
        <path fill="#040100" d="m224 238-2-5-2-2c-1 0-2 0-3 3v5c1 3 2 7 4 7 3 0 3-4 3-8Z" />
        <path fill="#fff" d="M164 173s-2 89 1 94l11 1 19-91s-26-8-31-4Z" />
        <path fill="#1A1B1F"
            d="m180 250-17-1v8l1 10 4 1 9 1v-1a50067 50067 0 0 1 3-18Zm0 16a1 1 0 1 0-2 0 1 1 0 0 0 2 0Zm-5 4a1 1 0 1 0 0 2 1 1 0 0 0 0-2Zm4 0a1 1 0 1 0 2 0 1 1 0 0 0-2 0Zm1 3a1 1 0 1 0 0 2 1 1 0 0 0 0-2Zm-16-4a1 1 0 1 0 0 2 1 1 0 0 0 0-2Zm-2-5a1 1 0 1 0 0 2 1 1 0 0 0 0-2Zm-4 3a1 1 0 1 0-1 2 1 1 0 0 0 1-2Zm2 4a1 1 0 1 0 0 2 1 1 0 0 0 0-2Zm-32-17-51-4a1 1 0 0 1 0-1l51 3a1 1 0 0 1 0 2Zm-48 21a1 1 0 0 1 0-1l46-12a1 1 0 0 1 0 1l-45 12h-1Zm21 17a1 1 0 0 1 0-2l26-20h1v1l-26 20-1 1Zm176-32-52-4a1 1 0 1 1 1-1l51 3a1 1 0 0 1 0 2Zm-7 24h-1l-43-18a1 1 0 0 1 0-2l44 18a1 1 0 0 1 0 2Zm-23 13h-1l-22-24a1 1 0 0 1 1-1l23 24a1 1 0 0 1-1 1Z" />
        <path fill="#1A1B1F" d="M170 283h-2l2-19 1 1-1 18Z" />
        <path fill="#1A1B1F"
            d="m156 292 6-7c8-5 15 2 20 8h3c-5-6-13-13-22-11-4 2-7 5-10 9l3 1Zm6-11c-10-7-12-19-6-30 4-7 9-12 4-20-12-16-30-13-44-1h5c9-8 20-12 30-3 4 5 9 11 5 18-3 5-7 9-8 16-1 9 2 16 9 21 1 1 6 0 5-1Z" />
        <path fill="#1A1B1F"
            d="M176 284c17-1 15-21 13-34-2-8 2-14 9-19 10-6 22 0 29 10 1 1 5 0 4-1-6-10-15-14-27-13-7 1-16 6-19 14-2 5-1 9 0 14 1 7 3 26-8 27-2 0-5 2-1 2Z" />
        <path fill="#000"
            d="M409 382a8 8 0 1 1-16-1 8 8 0 0 1 16 1Zm-90-53c0 4-3 7-7 7-3-1-6-4-5-8 0-3 3-6 6-6 4 0 6 4 6 7Zm37 0a3 3 0 1 1-7-1 3 3 0 0 1 7 1Zm21 97a8 8 0 1 1-16-1 8 8 0 0 1 16 1Zm27-106a8 8 0 1 1-16-1 8 8 0 0 1 16 1Zm25 113a8 8 0 1 1-7 15 8 8 0 0 1 7-15Zm-86 41a4 4 0 1 1-8-1 4 4 0 0 1 8 1Zm-47 51a4 4 0 1 1-8 0 4 4 0 0 1 8 0Zm-61-40a4 4 0 1 1 1 8 4 4 0 0 1-1-8Zm53-5a7 7 0 1 1-14-1 7 7 0 0 1 14 1Zm-38 66a7 7 0 1 1-14-1 7 7 0 0 1 14 1Zm68-114a7 7 0 1 1-13-1 7 7 0 0 1 13 1Zm-49-197a5 5 0 1 1-10-1 5 5 0 0 1 10 1Zm-71-28a2 2 0 1 1-4 0 2 2 0 0 1 4 0Zm49 117a5 5 0 1 1-11-1 5 5 0 0 1 11 1Zm-92-117a3 3 0 1 1-6 0 3 3 0 0 1 6 0Zm262 146a3 3 0 1 1-6 0 3 3 0 0 1 6 0ZM121 208a3 3 0 1 1-6-1 3 3 0 0 1 6 1Zm60-39a4 4 0 1 1 0-9 4 4 0 0 1 0 9Zm-30 11a3 3 0 1 1-5 0 3 3 0 0 1 5 0Zm127-7a3 3 0 1 1-7 0 3 3 0 0 1 7 0Zm88 111a7 7 0 1 1-10 10 7 7 0 0 1 10-10Zm-30 87a7 7 0 1 1-10 10 7 7 0 0 1 10-10Zm52 104a7 7 0 1 1-9 9 7 7 0 0 1 9-9Zm-138-59a7 7 0 1 1-10 9 7 7 0 0 1 10-9Zm-43 151a7 7 0 1 1-10 10 7 7 0 0 1 10-10Zm114-363a7 7 0 1 1-14-1 7 7 0 0 1 14 1Zm-1 62a4 4 0 1 1-8-1 4 4 0 0 1 8 1Zm-29 14a6 6 0 1 1-12-1 6 6 0 0 1 12 1Zm44-50a5 5 0 1 1-9 0 5 5 0 0 1 9 0Zm42 13a5 5 0 1 1-11-1 5 5 0 0 1 11 1Zm76 178a3 3 0 1 1-7 0 3 3 0 0 1 7 0Zm-49 126a3 3 0 1 1-7-1 3 3 0 0 1 7 1Zm66-59a5 5 0 1 1-10-1 5 5 0 0 1 10 1ZM221 200a4 4 0 1 1-9-1 4 4 0 0 1 9 1Zm212 303a10 10 0 1 1-21-1 10 10 0 0 1 21 1Zm-110 73a10 10 0 1 1-21-1 10 10 0 0 1 21 1Zm33-36a10 10 0 1 1-21-1 10 10 0 0 1 21 1ZM255 379a10 10 0 1 1 9-17 10 10 0 0 1-9 17ZM139 583a10 10 0 1 1 9-17 10 10 0 0 1-9 17Zm299-15a10 10 0 1 1 9-17 10 10 0 0 1-9 17Z" />
        <path fill="#333131"
            d="M146 161c-1 5 0 11 2 12 2 2 5 2 7 2 19-1 38 1 57 5 3-8 4-16 5-25l27 3c0-4-3-6-5-9-12-13-24-28-38-41-1-1-3-3-5-3h-3l-21 6-24 8-20 8c-2 0-3 1-3 3l1 1 23 11s-3 10-3 19Z" />
        <path fill="#C1172C" d="m235 135-8-1c-6-1-13-2-20-1v1a120 120 0 0 1 28 3c16 1 27-1 35-7l-1-1c-7 6-18 8-34 6Z" />
        <path fill="#C1172C"
            d="M273 133a139 139 0 0 0 14-6 107 107 0 0 0-6-11 10550 10550 0 0 0-13 7c-5 6-3 13 5 10Z" />
        <path fill="#C1172C" d="M263 134c2 2 5 2 6-1 2-5-6-7-7-2l1 3Z" />
        <path fill="#262525" d="M184 134c3 2 7 0 6-4-1-1-4-3-5-1-2 1-2 3-1 5Z" />
    </g>
</svg>