<svg xmlns="http://www.w3.org/2000/svg" width="593" height="668" fill="none"><g clip-path="url(#a)"><path fill="#fff" d="M0 0h593v668H0z"/><circle cx="301.5" cy="389.5" r="246.5" fill="#7A95F6"/><circle cx="301.5" cy="389.5" r="229.5" stroke="#fff" stroke-opacity=".4" stroke-width="34"/><mask id="b" width="641" height="815" x="-60" y="-212" maskUnits="userSpaceOnUse" style="mask-type:alpha"><path fill="#D9D9D9" fill-rule="evenodd" d="M581-212H-60v581H90l-1 20a214 214 0 1 0 427-20h65v-581Z" clip-rule="evenodd"/></mask><g mask="url(#b)"><path fill="#DF9C36" d="m456 314-21-20c-29-24-64-43-101-50a178 178 0 0 0-112 14c-11 6-23 11-33 19l-10 9a527 527 0 0 0-78 98c-18 30-33 63-37 99s5 72 28 101c14 18 33 34 52 46a333 333 0 0 0 53 27c51 15 108 17 160 5 3-1 6-1 7-4l1-6c-2-8-15-7-21-6-5 1-2-4-1-6l11-11 19-17c14-16 22-7 27-27-1 19-2 8-3 28l-1 15c0 3 2 7 6 7 5 1 11-3 13-8l2-11c5-33 5-67 6-100l5-106a347 347 0 0 1 2-21v-2h2l1-1 1 2 1 5 3 20-2 44-4 63-4 63c0 13-2 27 0 40 0 2 1 6 3 7 5 2 9-5 11-9 6-15 7-32 9-48v-13l2-39a9940758 9940758 0 0 0 5-198c0-3 1-6-2-9Z"/><path fill="#B3513B" d="M503 238c-1-31-9-63-22-91-9-20-22-40-43-49-16-7-34-6-50-3-16 2-33 7-49 3-23-7-42-26-63-37-20-11-44-15-63 0l-14 13-12 9c-10 6-20 11-31 15-21 8-43 14-62 25-14 7-28 19-26 36l5 17c1 6 2 13 1 19-2 9-9 16-16 23-6 6-12 11-15 19-4 10-3 22-2 32l4 38a56 56 0 0 0 44 48c13 3 29 5 43 4l20-2c9 1 19 6 27 10l32 18a106 106 0 0 0 64 14c26-2 50-12 74-19 36-11 72-21 103-41 15-10 28-23 37-40 11-18 14-40 14-61Z"/><path fill="#DF9C36" d="M483 237c-2-17-8-34-18-48-7-12-19-23-33-26l-9-1c-23-5-51-5-71 7-17 10-25 28-27 47-1 21-1 43 8 62 7 17 20 30 37 36a141 141 0 0 0 69 2c17-5 30-15 38-30 7-15 8-33 6-49Z"/><path fill="#fff" d="M411 258c-4-3-9-2-13 1-3-4-8-4-12-1-6 3-10 9-10 16 1 6 6 12 12 12 5-1 8-5 9-9 1 5 4 8 8 9 6 0 12-5 13-11 2-6-1-13-7-17Z"/><path fill="#040100" d="m372 226-1-3-2-1c-2 0-2 3-2 5l1 4 2 1h1l1-2v-4Zm63-1-2 2-1 3 1 3 1 2 3-1v-4c0-2 0-5-2-5Z"/><path fill="#fff" d="M419 163a196 196 0 0 0-29-4c-2 0-5 0-7 2h-1a2714 2714 0 0 0 5 77c0 8 1 17 3 25 0 1 0 5 2 5h14l4-36 8-56 2-13h-1Z"/><path fill="#040100" d="M409 246h-22l1 9 2 12 2 1h14l1-1 3-21h-1Z"/><path fill="#1A1B1F" d="M416 286c-3 2-6 3-10 1l-5-7c-2-3-2-7-3-11h-3c-1 7-3 17-11 19l-7-2c-1 0-4 0-3 1 3 2 8 2 11 2 6-1 10-6 11-12l3 6c4 8 13 8 20 4 1-1-2-1-3-1Z"/><path fill="#1A1B1F" d="M391 270a1 1 0 1 0 0 2 1 1 0 0 0 0-2Zm18-5a1 1 0 1 0-2 0 1 1 0 0 0 2 0Zm-5 5a1 1 0 1 0 0 2 1 1 0 0 0 0-2Zm4-1a1 1 0 1 0 2 0 1 1 0 0 0-2 0Zm1 4a1 1 0 1 0 0 2 1 1 0 0 0 0-2Zm-21-9a1 1 0 1 0 0 2 1 1 0 0 0 0-2Zm-5 4a1 1 0 1 0 0 2 1 1 0 0 0 0-2Zm3 5a1 1 0 1 0 0 2 1 1 0 0 0 0-2Z"/><path fill="#DF9C36" d="m350 143-9-7c-3-3-8-7-12-6-6 0-6 6-6 11 0 6 1 13 3 19h2l2-1a99477 99477 0 0 1 20-16Z"/><path fill="#E06243" d="M360 243c-7 0-13 1-13 2s6 2 13 2 13-1 13-2-6-2-13-2Zm85 3c-7 0-13 1-13 2s6 2 13 2 13-1 13-2-6-2-13-2Z"/><path fill="#29100D" d="m343 150-9-9c-1-1-3-1-3 1-1 3 1 6 1 8l2 6h2l7-5v-1Z"/><path fill="#272525" d="M354 137c0 8 1 14 5 16 3 2 6 1 9 1 24-3 49-3 73 0 3-11 4-22 4-32 11 1 23 1 34-1-1-4-4-7-7-10-17-16-34-34-53-48l-7-3-4 1-27 9-30 13c-8 4-15 10-24 14-2 0-4 1-3 3l2 2 30 11-2 24Z"/><path fill="#070707" d="M401 94c3 3 9-1 7-5-2-3-5-4-7-2s-2 5 0 7Z"/><path fill="#C1172C" d="M494 108c-5 0-9-2-14-5l-4-3c-12-6-25-6-39-6-10 0-21 0-30-3v-1c10 2 20 2 30 2 14 0 28 0 40 7l4 2c5 3 10 6 15 6v1h-2Z"/></g><path fill="#DF9C36" d="M473 161v-1l1-17c0-5-1-11-8-10-8 1-15 10-19 16v2l21 10h5Z"/><path fill="#29100D" d="M467 150c0-2 0-5-3-5-2 0-4 3-5 5l-4 5h1a39851 39851 0 0 0 9 6c2-4 2-8 2-11Z"/><path fill="#C1172C" d="M497 119a172 172 0 0 0 12 14h1a138 138 0 0 0 11-10v-1a4024 4024 0 0 1-13-13c-9-4-17 1-11 10Z"/><path fill="#C1172C" d="M492 107c-1 3 1 7 4 7 7 0 7-10 0-9l-4 2Z"/></g><defs><clipPath id="a"><path fill="#fff" d="M0 0h593v668H0z"/></clipPath></defs></svg>