<svg xmlns="http://www.w3.org/2000/svg" width="593" height="668" fill="none">
    <g clip-path="url(#a)">
        <circle cx="301.5" cy="389.5" r="246.5" fill="#9ED67C" />
        <circle cx="301.5" cy="389.5" r="229.5" stroke="#fff" stroke-opacity=".4" stroke-width="34" />
        <mask id="b" width="569" height="503" x="-9" y="99" maskUnits="userSpaceOnUse" style="mask-type:alpha">
            <path fill="#54E9AA" fill-rule="evenodd"
                d="M-9 99h296v78a216 216 0 0 1 135 36v-91h138v172h-67a213 213 0 0 1-349 238H-9V99Z"
                clip-rule="evenodd" />
        </mask>
        <g mask="url(#b)">
            <path fill="#3B2A15"
                d="M439 545c-2-18-3-37-8-53-3-12-12-22-13-36a115 115 0 0 0-10-42l-5-10-7-13-3-5c-2-5-1-11 4-14l18-9 23-11c17-9 33-22 40-41 5-10 6-22 5-33l-2-45c1-17 2-46 21-52l17-3c5-1 11-3 16-7 6-4 12-11 13-19 0-6-3-12-10-12-5 0-11 3-15 5l-21 9-23 8-16 5c-8 3-15 9-19 17s-4 18-5 27l1 31c0 11 0 23-3 34-1 8-4 19-11 24l-20 11a1567 1567 0 0 1-42 20c-7-15-19-31-35-37-27-12-56 10-69 32l-8 18c-15-4-25-21-28-35l-4-22-5-13c-4-7-9-14-11-22-3-14 2-29 7-42 3-10 2-22 0-33l-4-11-6-12c-3-6-1-13 3-18s10-7 16-6l9 3 10 4c7 2 15-4 12-12-5-10-16-17-26-20-11-2-24 2-33 7-11 6-18 15-21 27v47c0 18-1 35-4 53-2 10-4 20-4 30s1 20 4 30c7 26 22 50 39 72 8 12 19 22 26 35 3 7 5 15 3 22s-7 13-11 18l-14 19a80 80 0 0 0-7 67l10 23 13 19 9 21c1 6 1 11-1 17-2 7-1 15-1 22l1 33c2 23 5 45 6 68l-1 11 1 11c4 6 14 5 20 5 8-1 17-4 26-4 5 0 8 2 12 3 4 2 9 0 12-3 2-3 4-7 3-10-1-5-6-5-10-6l-17-1c-3 0-6-1-7-4-2-5-2-12-2-17a226 226 0 0 1 6-58c3-8 6-17 11-24 7-9 22-7 32-7 17 1 66-14 79-7 14 9 13 53 18 69 3 9 8 19 18 21 6 1 13-2 19 0l11 9c9 6 21 4 32 2 2-1 5-1 7-3 5-4 2-13-3-17-6-3-13-3-20-3-6-1-13-2-18-7l-4-12c-9-42-17-85-24-127l-2-11Z" />
            <path fill="#3B2A15"
                d="M69 440c0 1 0 1 0 0Zm303 129a125 125 0 0 1-37 19l-10 2a50 50 0 0 1-28-6c-3-1-5-42-6-43-33-76-41-17-70-23-13-9-27-11-43-13-12-2-24-1-35-2-12-1-23-3-34-8-16-6-30-17-37-33-2-7-3-13-3-20v-2a56 56 0 0 1 2-10l1-2 2-5 1-2 2-3 4-5 2-1 1-1 5-2h5l6 2c3 1 7 3 10 6 6 4 11 10 14 18l1 7h-3l-6-3c-6-4-18 11-10 15 7 4 17 6 24 0 10-7 13-20 8-31-7-17-26-32-45-29-22 3-36 28-39 48-2 17 3 35 15 48 15 17 38 25 60 28l22 2h17l24 6c29 13 43 8 71 17 12 10 29 61 45 63 19 2 37-6 53-15l16-11c3-2 7-7 5-11s-10 0-10 0Z" />
            <path fill="#B9A88D"
                d="m347 357-2-2-1-2v-1c-1 0-1 0 0 0l4-4 4-5c2-5 4-10 2-16-3-13-22-21-34-13-5 3-8 8-10 14l-4-2v-1h-1c-10-5-23-3-31 6-9 11-10 27 5 32 8 2 16 1 24 0 3 0 4 0 2 3l-2 5c-4 9-6 21-2 30 5 12 21 17 33 14s22-14 23-27c1-7 0-14-3-21l-7-10Z" />
            <path fill="#fff" d="M308 347a11 11 0 1 1-21 3 11 11 0 0 1 21-3Z" />
            <path fill="#1D0104" d="m328 377 2 1-1-2-2-1 1 2Zm5-2v2c1 1 1 0 1-1v-2c-1-1-1 0-1 1Z" />
            <path fill="#fff" d="M347 335a11 11 0 1 1-22 2 11 11 0 0 1 22-2Z" />
            <path fill="#1D0104" d="m300 351 1 4c2 2 3 3 4 2s0-2-1-4l-4-2Z" />
            <path fill="#1D0104"
                d="m301 352 1 3 2 1-1-2-2-2Zm4 6h-2l-2-2c-2-2-2-4-1-5s3 0 5 2c1 2 2 4 1 5h-1Zm35-17-3-2v4c1 2 3 3 4 2l-1-4Z" />
            <path fill="#1D0104" d="m337 340 1 3 2 1-1-2-2-2Zm3 6h-1l-2-2-2-3 1-3 3 1 2 2c1 2 2 4 0 5h-1Z" />
            <path fill="#fff" d="M327 404c3 1 7 1 10-5 3-5-1-11-7-10-7 1-9 11-3 15Z" />
            <path fill="#B9A88D" d="m364 330-1 16s15 12 21-3c5-15-9-27-20-13Z" />
            <path fill="#B9A88D"
                d="M364 346c1 1 7 5 12 4 3-1 5-3 7-7 3-8 0-15-4-17-6-3-11 0-15 4v16Zm12 5c-7 1-13-4-13-5h-1l1-16c6-8 12-8 16-5 5 2 9 10 5 19-2 4-4 6-7 7h-1Zm-119-5 4 15s-11 15-20 2c-10-13 1-29 16-17Z" />
            <path fill="#B9A88D"
                d="M246 343c-2 0-3 0-5 2-4 3-5 11 0 18 3 3 5 5 8 5 6 0 10-6 11-7l-4-15c-3-2-7-4-10-3Zm4 26h-1c-3 0-6-2-9-5-5-8-4-16 0-20 4-3 10-5 17 1l5 16c-1 0-6 7-12 8Z" />
            <path fill="#1D0104"
                d="M254 354h-9l1-6h-2v8c0 3 1 5 3 7 1 1 2 0 2-1l-4-7h8l1-1Zm123-20c0-3 0-5-2-7h-2l3 6-9 2c-1 1 0 1 1 1 2-1 5-2 8-1l-2 8 2-1 1-7v-1Z" />
            <path fill="#272525"
                d="M261 309c2 6 5 11 8 12l8-2c19-9 38-16 59-20l-6-27c10-2 19-5 28-10-2-3-5-4-8-6-19-8-37-18-56-24-3-1-5-2-7-1l-3 2-19 14-21 19-16 17c-1 1-3 3-2 4l2 1 28 1 5 20Z" />
            <path fill="#C1172C"
                d="m210 244-1-1c11-4 23-3 39 3l8 3c10 4 19 8 29 9v2c-10-1-20-5-29-9l-8-4c-16-6-28-7-38-3Z" />
            <path fill="#C1172C"
                d="M207 238a152 152 0 0 0-16 3v1a117 117 0 0 0 2 12h1a2290 2290 0 0 1 16-3c7-5 6-13-3-13Z" />
            <path fill="#C1172C" d="M218 240c-1-2-5-3-6-1-3 3 5 7 7 4l-1-3Z" />
            <path fill="#070707" d="M287 261c3 2 7-3 4-6-1-1-5-1-6 1s0 4 2 5Z" />
        </g>
    </g>
    <defs>
        <clipPath id="a">
            <path fill="#fff" d="M0 0h593v668H0z" />
        </clipPath>
    </defs>
</svg>