<svg xmlns="http://www.w3.org/2000/svg" width="593" height="668" fill="none">
    <path fill="#91DCF3" d="M548 389.5a246.5 246.5 0 1 1-493 0 246.5 246.5 0 0 1 493 0Z" />
    <path stroke="#fff" stroke-opacity=".5" stroke-width="34"
        d="M531 389.5a229.5 229.5 0 1 1-459 0 229.5 229.5 0 0 1 459 0Z" />
    <mask id="a" width="426" height="508" x="89" y="94" maskUnits="userSpaceOnUse" style="mask-type:alpha">
        <path fill="#54E9AA" fill-rule="evenodd" d="M450 94H155v140.9a213 213 0 1 0 295 1V94Z" clip-rule="evenodd" />
    </mask>
    <g mask="url(#a)">
        <path fill="#070707"
            d="M359.8 233.8s-20 20.1 0 85C380 383.5 489.5 493 449.2 571.2c0 0-19.5 28.7-20 15.6-.4-8.3 26.9-39-15.7-58 0 0 9 100.5-109.5 125 0 0-9 18-2.3 24.7 6.7 6.7 15.7 6.7 11.2 15.6 0 0-4.5 2.2-11.2 0 0 0-2.2 6.7-11.1 4.5-9-2.3-11.2-4.5-11.2-4.5s4.5 4.5-2.3 4.5c-6.7 0-22.3-2.3-11.1-17.9 11.1-15.6 9-29 9-29s-33.6 4.4-58.2-2.3c0 0 0 22.4 6.7 31.3 6.7 9 20.1 13.4 11.2 20.1 0 0-9 2.2-15.7-2.2 0 0 0 6.7-13.4 4.4 0 0-9 0-6.7-4.4 0 0-6.7 9-15.6 2.2-9-6.7 11.2-6.7 11.2-22.3 0-2 .3-7.3-4.2-10C69.3 595.9-4.5 426 233.1 271.4c2.5-1.6 4-4.2 6-6.3 0 0 53.7-125.2 116.3-100.6l33.5-15.6-29 31.3 46.9-2.3-35.8 18s2.2 11-11.2 38Z" />
        <path fill="#070707"
            d="M180.5 318c0-.3-3-65.8 15.3-87 18.3-21.3 12.1-29.3-5.8-19.5-18 9.7-62.4 106.6-47.7 150.6l38.2-44.1Z" />
        <path fill="#fff"
            d="M310.7 289.7s20-17.9 26.8 11.2c6.7 29 78.2 131.8 53.6 248 0 .6 2.8 19.4-24.5 58.1-3.7 5.2-38 26.9-60.4 33.6-20.2 6-116.2 9-145.3-15.7-16-13.6-109.5-107.3-26.8-221.2 69.5-95.9 108.1-123.3 119.4-131.6 3.5-2.5 9.3-.3 12.5 2 2 1.3 5.3 8.4 6.7 11.1 4.4 9 24.6 17.9 38 4.5ZM342 182.4s-24.6-9-35.8 9c0 0 20.1 11.1 35.8-9Z" />
        <path fill="#070707"
            d="M322 187.8c1 3.7 2.8 6.4 4.2 6 1.5-.3 1.8-3.6.8-7.3-1-3.8-2.9-6.5-4.3-6.1-1.4.4-1.7 3.7-.8 7.4Z" />
        <path fill="#272525"
            d="M263.8 189.5c3.8 6.4 8 11.8 12 11.7 3.1 0 5.9-2 8.4-4a284.2 284.2 0 0 1 63-35.3c-3-10.3-7.3-20.2-12.7-29.5a134 134 0 0 0 29.9-17.2c-2.8-3.1-7.1-4.2-11.2-5.2-22.8-5.3-46-12.5-69.1-15.7-2.6-.3-5.4-.7-7.7.6-1.3.7-2.2 1.8-3.2 2.9-6 7-12.7 13.2-18.4 20.6-6.6 8.4-13 17-19.3 25.7-5.5 7.6-8.5 16.4-14.8 23.6-1.1 1.3-2.3 3.5-1 4.6.6.6 1.6.5 2.5.5 10.6-.9 21.2-2.4 31.7-4.7 0 0 4.4 11.8 10 21.4Z" />
        <path fill="#C1172C"
            d="m195 144.4-1.1-1.1c9-9.2 23-13.8 42.8-14.3l10.3-.1c11.7 0 23.7 0 34.9-3.7l.5 1.5c-11.4 3.8-23.6 3.8-35.4 3.8h-10.2c-19.5.5-33.1 5-41.8 13.9Z" />
        <path fill="#C1172C"
            d="M189 139.8c-5.1 2.7-10.1 5.7-15 8.9-.3.2-.7.5-.8 1l.3 1c2.4 3.9 5 7.7 7.6 11.4.3.3.5.6.9.7a12869.4 12869.4 0 0 0 4.8-2.5 32 32 0 0 0 10.9-8.9c5.4-8 1-16.6-8.6-11.6Z" />
        <path fill="#C1172C" d="M201.8 136.5c-2.5-1.6-6.7-.7-7.3 3-1 6.3 8.9 7.7 9.3 1.2.2-2-.7-3.4-2-4.2Z" />
        <path fill="#070707" d="M283 129.7c4.3.9 7.7-5 3.7-7.7-2.2-1.5-6-.7-7 1.8-.8 2.4.9 5.3 3.3 5.9Z" />
    </g>
</svg>