<svg xmlns="http://www.w3.org/2000/svg" width="593" height="668" fill="none">
    <circle cx="301.5" cy="389.5" r="246.5" fill="#7CAFEC" />
    <circle cx="301.5" cy="389.5" r="229.5" stroke="#fff" stroke-opacity=".4" stroke-width="34" />
    <mask id="a" width="481" height="510" x="89" y="92" maskUnits="userSpaceOnUse" style="mask-type:alpha">
        <path fill="#F8C8C8" fill-rule="evenodd" d="M570 92H272v86.1A213 213 0 1 0 515 391h55V92Z"
            clip-rule="evenodd" />
    </mask>
    <g mask="url(#a)">
        <path fill="#fff"
            d="M408 588.3a559 559 0 0 0-7-21.1c-3.7-9.5-13.7-12.7-23-9.8-7.4 2.3-10.2 8.2-9.8 15.7.4 5.8 2.3 11.6 3.5 17.3a11582.2 11582.2 0 0 1 25.8 121.8l9.2 44.5c1 4.8 2.1 9.5 3 14.3.5 3.2.3 6.3-1.2 9.2-.7 1.5-1.7 3.1-1.6 4.9.3 3.7 5.2 4.7 8.2 4.8 8.9.3 11-7.6 12.6-14.8 3-13.7 3.4-28 3.4-42-.1-49-9-98-23.1-144.8Zm54.6-14.7a556.4 556.4 0 0 0-7.2-21.9c-3.5-8.3-12.4-15.9-22-13.1-7.5 2.1-9.2 9.7-8.5 16.7.5 5.7 2.2 11.3 3.5 16.9l4 18.3c7.5 34.5 14.7 69 21.8 103.5l9.2 44.5c1 4.9 2.4 9.9 3 14.8.4 3.1-.5 5.8-1.8 8.6-.8 1.5-1.3 3-1 4.8.4 4.1 4.3 7.1 8 8 8 2 9.8-8 11-14 2.9-13.9 3.4-28.4 3.3-42.6a503 503 0 0 0-23.3-144.5Z" />
        <path fill="#fff"
            d="M471.3 408.8a757.2 757.2 0 0 0-32.7-119c-3.5-9.5-7.2-18.8-11.2-28-2.4-5.4-4.4-11.5-7.7-16.4a64.1 64.1 0 0 0-13.3-13.8 53.3 53.3 0 0 0-28.9-12.4c-14-1-28 5-39.1 12.8-6 4.2-10.7 10-16.4 14.4a216 216 0 0 1-21 14.7c-9 5.6-18.5 10.2-27.4 16-10.5 6.8-23 16.3-26.4 29-2.8 10.7 4.4 18.6 13.5 23.2 15 7.6 32.9 3.3 47.3-3.8 6.6-3.3 12.6-7.6 19.1-11.1 5-2.7 9-.3 11.3 4.6 2 4.2 2.8 9 4.1 13.4 1.3 4.4 2.5 8.8 3.5 13.2a70 70 0 0 1 1.8 27.7 29 29 0 0 1-17.2 22.4c-7.7 3-16.3 3.7-24.5 4-9.3.4-18.7 0-28-.7-19.1-1.4-38-4.3-57-6.1a187 187 0 0 0-52.3.8 90.9 90.9 0 0 0-52.3 29.9C86 457.1 64.3 501.9 64 547.8c0 16 2.6 31.9 7.6 47a205.7 205.7 0 0 0 45.2 79.3 148 148 0 0 0 61.6 38.3c46 14.7 96.6 8 142.2-5 23.9-6.8 48.1-15 70.3-26.4a170.2 170.2 0 0 0 94.9-159 757 757 0 0 0-14.5-113.2Z" />
        <path fill="#1A1B1F"
            d="M510.1 375.3c-2.8-3.3-9.2-4.1-13.1-4.9a215 215 0 0 0-19.6-2.8l-3.7-.4c14-4.7 37.9-14 31.1-21.3-3-3.3-9.6-3.7-13.7-4.2a181.3 181.3 0 0 0-24.6-1c14-6.7 40.9-21 32.5-28.4-3.7-3.4-11-3-15.6-3a181.9 181.9 0 0 0-26.2 1.9c13.4-8.4 40.5-26.4 31.8-31.7-4-2.5-11-.8-15.4 0a204.4 204.4 0 0 0-26.3 6.3c11.6-10.5 36.6-34.2 27.6-38.4-4.3-2-11 .8-15 2.3-6.6 2.3-13 5.3-19.3 8.3l-3.8 2c8-10 16-20 22.2-31.1 1.5-2.7 6.2-10.5.8-12-4.4-1.1-10.4 3.1-13.9 5.3a210 210 0 0 0-17.3 12.1l-3.3 2.6c5.6-11 11.2-22.2 15-33.8 1-3 3.7-11.3-2.4-10.3-4.6.7-8.8 6-11.8 9.1a275 275 0 0 0-14 16.4 534.3 534.3 0 0 0-8.7 11.5c0 .3 0 .6.2.8l.3.3a89 89 0 0 1 20.8 29.8c7 14.1 12.6 29 17.5 43.9a821.5 821.5 0 0 1 26.8 104c.2.9.9 1.3 1.8 1.3 11.2-.5 23.2-.5 34-3.4 2.7-.7 9.3-3 6.5-6.8-2.2-3.2-8.2-4.3-11.6-5.2a220.5 220.5 0 0 0-20-4.6c14-2.7 36-8.1 30.4-14.6ZM329.4 255.8c-1.5-.3-3 1.4-3.4 3.8a7 7 0 0 0 0 3c.3 1 .9 1.8 1.7 1.9h.6c.6 0 1.1-.5 1.6-1.1a7 7 0 0 0 1.2-2.8c.2-1 .2-2.1 0-3-.4-1-1-1.7-1.7-1.8Zm40.1 12.5c-.3-1-1-1.7-1.7-1.8-1.5-.3-3 1.4-3.4 3.8-.5 2.5.3 4.6 1.7 4.9h.6c1.2-.2 2.4-1.7 2.8-3.9.2-1 .2-2.1 0-3ZM309.2 287c-1.5-6.2-3.9-13.6-9.5-17.3-6-3.9-13.5-.6-18.9 2.8a91 91 0 0 0-30.6 24.8c-4.4 6-7.3 13.6-3.7 20.7 4.3 8.5 13.6 12.8 22.6 14.2a66.5 66.5 0 0 0 40-7c1.6-.8 3-1.5 3.4-3.2.9-4.2 0-9.4-.3-13.6a119 119 0 0 0-3-21.4Z" />
        <path fill="#fff"
            d="M265.8 294.3a6.5 6.5 0 0 0-5.3 5.1c-.4 2.2 0 4.8 2.7 4.3a6.5 6.5 0 0 0 5.4-5.1c.3-2.2 0-4.9-2.8-4.3Zm18 12c-2.8.4-4.5 2.9-5 5.4-.3 2.2.2 5.2 3 5 3-.3 4.6-2.9 5.2-5.5.4-2.4-.2-5.3-3.2-4.9Z" />
        <path fill="#1A1B1F"
            d="M123.7 415c-13.7 8.2-26.3 19-37.8 30a224.7 224.7 0 0 0-56.3 83.8A179 179 0 0 0 19.2 598c.1 2.5 7.1-1.3 7-4a181 181 0 0 1 31-108.7 238 238 0 0 1 65.2-65.2l.7-.5 1-.6c1-.6 3.8-2.5 3.3-4-.5-1.6-2.7-.7-3.7 0ZM418 253.9c-2 4.5-5 8.7-7.7 12.8-5 7.4-10.4 14.5-16.4 21.1-13.5 15-30.9 29.6-51.7 31.7-2 .2 2.4 6.6 4.8 6.4 21-2 38.8-16.8 52.5-32 6.2-6.8 11.8-14.1 16.8-21.8 2.8-4 5.7-8.3 7.6-12.9.9-2-5-7.5-6-5.3Zm27.3 61.5c-2.2 2.8-6.7 5.2-9.9 7.1-7 4.3-14.3 8-22 11.1a122 122 0 0 1-66.8 9.3c-1.5-.2-2.6 0-2.3 1.5.4 1.4 3.8 2.5 5 2.7 23.4 4.1 47.2 0 69-8.7a157 157 0 0 0 24.1-12c3.5-2 8-4.4 10.5-7.7 1.1-1.4-6-5.4-7.6-3.3Zm16.4 52.9c-25 7.2-52.9 11.1-78.8 8.1-10-1.1-20-3.6-28.9-8.5-3.2-1.8-9.4 1.3-4.6 4 16.8 9.3 37.1 11 56 10.5a259 259 0 0 0 60-9.2c5.2-1.5-.1-6-3.7-5Zm-129.1 27.2c9.8 8.9 21.8 16 33 22.5a217 217 0 0 0 63.6 26.3c12.3 2.6 25 3.5 37.5 1.4 1.4-.2 4.7-.9 5.2-2.4s-.7-2-2.2-1.7c-22.3 3.8-45.3-2.8-65.8-11.4a283.7 283.7 0 0 1-51.8-29c-4.1-2.8-8.5-5.7-12.2-9.2-1.8-1.6-9 1.9-7.3 3.5Zm-19.5 6.3a384.8 384.8 0 0 0 25.1 45.4c17.6 27.8 38.3 55 64.8 74.8 14.3 10.8 30.7 19 48.5 21.7.9.1 4.7.7 5.1-.5.5-1.3-1.8-1.7-2.7-1.8-31.8-4.9-57.9-29.5-77.8-53a398.8 398.8 0 0 1-55-86.6c-.8-2-8.7-1.7-8 0Zm-21.3 1.7a831.2 831.2 0 0 0 16.1 60.9c11 36.8 23.8 74 42.9 107.6 8.6 15.3 19 30.8 33.5 41 3.8 2.7 8.6-4 4.6-6.7a108.4 108.4 0 0 1-28.7-34.3 360.5 360.5 0 0 1-24.5-51.5 808.5 808.5 0 0 1-36.2-119.1c-1-5-8.7-2.3-7.7 2.1Zm-40.4-4.3c.3 21 2 42.1 4 63 3.8 36.2 8.8 74 23 107.7 5.9 13.9 14.2 28.6 28.2 35.6 1.7 1 4-.2 4.5-2 .6-2.3-1-4.2-2.9-5.1-10.6-5.4-17.3-17.8-22-28.5-7-15.5-11.2-32.3-14.6-49A670.8 670.8 0 0 1 259 400.2c-.1-4.5-7.7-6.3-7.6-1Zm-45.7-4.7c-7 13.3-11.6 28.1-15.3 42.6-8.1 31.5-10 65-2.8 96.8 5 22.4 14.7 43.4 28 62 2.1 3.1 9.8.2 7.4-3.2a173.5 173.5 0 0 1-31.6-106.9 229.8 229.8 0 0 1 21.9-90c2.1-4-6-4.6-7.6-1.3Z" />
        <path fill="#1A1B1F"
            d="M121.2 414a227.3 227.3 0 0 0-6.4 133.7 226.7 226.7 0 0 0 27.6 63c.6.9 2.5 4 4 3.5 1.3-.5.3-2.6-.3-3.5A218.8 218.8 0 0 1 126.6 420c.9-2-4.5-8-5.4-5.9ZM64.3 552.4a133.6 133.6 0 0 0 35.7 58.5 87.9 87.9 0 0 0 25.2 16.5c4.6 2 6.5-3 1.8-5-18.8-8.1-32.7-24.5-42.7-42-5-8.7-9.5-18.3-12.3-28-1-3.3-9-4.3-7.7 0Z" />
        <path fill="#272525"
            d="M327.2 218.4c.1 7.2 1.2 13.9 4.6 15.6 2.7 1.5 6 1 9 .7 23.4-3 47-3 70.3 0 2.3-10.3 3.4-20.7 3.3-31.2 11.2 1.3 22.5 1.2 33.6-.4-1-4-4-7-7-9.6-16.9-15.4-33.2-32.6-51.3-46.3-2-1.6-4.3-3.2-6.8-3.2a12 12 0 0 0-4 1c-8.6 3-17.2 5.1-25.5 8.7-9.6 4-19.2 8.2-28.7 12.6-8.3 3.9-15 10-23.8 13-1.6.6-3.6 1.9-3 3.5.3.8 1 1.2 1.9 1.5a233 233 0 0 0 29.1 11.2c.1 0-1.8 12.1-1.7 22.9Z" />
        <path fill="#C1172C"
            d="m436.5 231.8-.3 1.5c-12.2-2-23.8-10.7-35.2-26.3-2-2.7-3.9-5.5-5.7-8.2-6.5-9.4-13.2-19-22.3-25.9l1-1.2c9.2 7 16 16.8 22.5 26.2l5.8 8.2c11.1 15.3 22.3 23.7 34.2 25.7Z" />
        <path fill="#C1172C"
            d="M436.1 239.1c5 2.6 10.2 5 15.5 7.1.4.2.8.3 1.2.2a132.3 132.3 0 0 0 5.5-13.3c.2-.3.3-.7.1-1-.1-.4-.4-.5-.7-.7l-4-1.8c-4.1-2-8.5-3.9-13-3.9-9.5.1-14 8.5-4.6 13.4Z" />
        <path fill="#C1172C" d="M426.4 230.7c.1 3 3.1 5.8 6.5 4.2 5.5-2.7 1.2-11.4-4.2-8.1a4.3 4.3 0 0 0-2.3 4Z" />
        <path fill="#070707" d="M372 176.7c3.2 2.8 8.9-.6 6.7-4.8-1-2.3-4.7-3.5-6.7-1.7-2 1.6-1.9 4.9 0 6.5Z" />
    </g>
</svg>