<?xml version="1.0" encoding="utf-8"?>
<!-- Generator: Adobe Illustrator 22.0.1, SVG Export Plug-In . SVG Version: 6.00 Build 0)  -->
<svg version="1.1" id="Ebene_1" xmlns="http://www.w3.org/2000/svg" xmlns:xlink="http://www.w3.org/1999/xlink" x="0px" y="0px"
	 viewBox="0 0 100 100" style="enable-background:new 0 0 100 100;" xml:space="preserve">
<style type="text/css">
	.st0{fill:#FFFFFF;}
</style>
<path d="M-566.6-294.5c-0.2-6.1-5.3-10.8-11.4-10.6c-4.9,0.2-9.2,3.7-10.3,8.5c-1.3-5.9-7.2-9.7-13.1-8.4c-5.4,1.2-9,6.2-8.6,11.7
	c1.2,12.6,21.5,24.2,21.5,24.2s20.7-11.6,21.9-24.2V-294.5z M-588.7-333.5h1.5v14.5h-1.5V-333.5z M-588.7-259h1.5v14.5h-1.5V-259z
	 M-558-289.7h14.5v1.5H-558V-289.7z M-632.5-289.7h14.5v1.5h-14.5V-289.7z M-566.3-309.7l-1-1l10.1-10.3l1,1L-566.3-309.7z
	 M-609.7-268.4l1,1l-10.1,10.4l-1-1L-609.7-268.4z M-609.7-309.6L-620-320l1-1l10.3,10.2L-609.7-309.6z M-566.4-268.4L-556-258l-1,1
	l-10.3-10.2L-566.4-268.4z"/>
<g>
	<path class="st0" d="M71.4,44.5c-0.2-6.1-5.3-10.8-11.4-10.6c-4.9,0.2-9.2,3.7-10.3,8.5c-1.3-5.9-7.2-9.7-13.1-8.4
		c-5.4,1.2-9,6.2-8.6,11.7c1.2,12.6,21.5,24.2,21.5,24.2s20.7-11.6,21.9-24.2V44.5z M49.3,5.5h1.5V20h-1.5V5.5z M49.3,80h1.5v14.5
		h-1.5V80z M80,49.3h14.5v1.5H80V49.3z M5.5,49.3H20v1.5H5.5V49.3z M71.7,29.3l-1-1L80.8,18l1,1L71.7,29.3z M28.3,70.6l1,1L19.2,82
		l-1-1L28.3,70.6z M28.3,29.4L18,19l1-1l10.3,10.2L28.3,29.4z M71.6,70.6L82,81l-1,1L70.7,71.8L71.6,70.6z"/>
</g>
</svg>
