<svg xmlns="http://www.w3.org/2000/svg" version="1.1" id="Ebene_1" x="0" y="0" viewBox="148 -89 426.611 282.943" xml:space="preserve" width="426.611" height="282.943"><style type="text/css" id="style3">.st0{fill:#fff}.st3{fill:#007dc2}</style><g id="layer2" transform="translate(3.635 3.787)" font-style="normal" font-weight="400" font-size="40" font-family="sans-serif" letter-spacing="0" word-spacing="0" fill="#000" fill-opacity="1" stroke="none"><text xml:space="preserve" style="line-height:1.25" x="354.898" y="-73.593" id="text1118-3"><tspan x="354.898" y="-73.593" style="-inkscape-font-specification:'Open Sans, Normal';font-variant-ligatures:normal;font-variant-caps:normal;font-variant-numeric:normal;font-feature-settings:normal;text-align:center" id="tspan846" font-style="normal" font-variant="normal" font-weight="400" font-stretch="normal" font-size="12" font-family="Open Sans" writing-mode="lr-tb" text-anchor="middle" fill="#fff" fill-opacity="1">demokratisch organisiert</tspan></text><g id="g1283" transform="translate(6.742)"><text id="text1118" y="-2.39" x="229.978" style="line-height:1.25" xml:space="preserve"><tspan style="-inkscape-font-specification:'Open Sans, Normal';font-variant-ligatures:normal;font-variant-caps:normal;font-variant-numeric:normal;font-feature-settings:normal;text-align:end" y="-2.39" x="229.978" id="tspan1116" font-style="normal" font-variant="normal" font-weight="400" font-stretch="normal" font-size="12" font-family="Open Sans" writing-mode="lr-tb" text-anchor="end" fill="#fff" fill-opacity="1">kostenlos</tspan></text><text id="text1118-0" y="100.909" x="229.586" style="line-height:1.25" xml:space="preserve"><tspan style="-inkscape-font-specification:'Open Sans, Normal';font-variant-ligatures:normal;font-variant-caps:normal;font-variant-numeric:normal;font-feature-settings:normal;text-align:end" y="100.909" x="229.586" id="tspan850" font-style="normal" font-variant="normal" font-weight="400" font-stretch="normal" font-size="12" font-family="Open Sans" writing-mode="lr-tb" text-anchor="end" fill="#fff" fill-opacity="1">werbefrei</tspan></text></g><text id="text1257" y="180.039" x="354.898" style="line-height:1.25" xml:space="preserve"><tspan style="-inkscape-font-specification:'Open Sans, Normal';font-variant-ligatures:normal;font-variant-caps:normal;font-variant-numeric:normal;font-feature-settings:normal;text-align:center" y="180.039" x="354.898" id="tspan1255" font-style="normal" font-variant="normal" font-weight="400" font-stretch="normal" font-size="12" font-family="Open Sans" writing-mode="lr-tb" text-anchor="middle" fill="#fff" fill-opacity="1">frei lizensiert</tspan></text><g id="g1277" transform="translate(10.074)"><text id="text1261" y="102.159" x="463.939" style="line-height:1.25" xml:space="preserve"><tspan style="-inkscape-font-specification:'Open Sans, Normal';font-variant-ligatures:normal;font-variant-caps:normal;font-variant-numeric:normal;font-feature-settings:normal;text-align:start" y="102.159" x="463.939" id="tspan1259" font-style="normal" font-variant="normal" font-weight="400" font-stretch="normal" font-size="12" font-family="Open Sans" writing-mode="lr-tb" text-anchor="start" fill="#fff" fill-opacity="1">transparent</tspan></text><text xml:space="preserve" style="line-height:1.25" x="463.499" y="-2.793" id="text1265"><tspan id="tspan1263" x="463.499" y="-2.793" style="-inkscape-font-specification:'Open Sans, Normal';font-variant-ligatures:normal;font-variant-caps:normal;font-variant-numeric:normal;font-feature-settings:normal;text-align:start" font-style="normal" font-variant="normal" font-weight="400" font-stretch="normal" font-size="12" font-family="Open Sans" writing-mode="lr-tb" text-anchor="start" fill="#fff" fill-opacity="1">non-profit</tspan></text></g></g><g id="layer1" transform="translate(3.635 3.787)" display="inline"><g id="g1203" transform="translate(8.171)"><path id="XMLID_100_" class="st0" d="M293.1 49.9c0 29.6 24 53.6 53.6 53.6s53.6-24 53.6-53.6-24-53.6-53.6-53.6-53.6 24-53.6 53.6" fill="#fff"/><path class="st0" d="M353-60.4c-7.1-3.3-15.5-.2-18.7 6.9-3.3 7.1-.2 15.5 6.9 18.7 1.1.5 2.3.9 3.4 1.1.6 1.4 1.4 3.2 2.4 5.4 0 0 .2.4.3.4.1 0 1.3-2.9 2.8-5.9 4.2-.9 7.8-3.7 9.8-7.9 3.3-7.1.2-15.5-6.9-18.7zm-8.1 18.7c-1 0-2.1-.1-3-.4l-3 1.5c-.2.1-.4.1-.3-.2l.7-2.6c-1.2-1-2-2.1-2-3.5 0-2.2 2-4 4.7-4.8-.2.5-.3 1.1-.3 1.6 0 3.6 3.9 6.4 8.7 6.4h.4c-1.4 1.2-3.5 2-5.9 2zM356-47l.8 2.6c.1.2-.1.3-.3.2l-2.9-1.5c-.9.3-1.9.4-3 .4-4.1 0-7.3-2.3-7.3-5.1s3.3-5.1 7.3-5.1c4.1 0 7.3 2.3 7.3 5.1 0 1.4-.8 2.5-1.9 3.4z" id="path8" fill="#fff"/><path class="st0" d="M353 133.9c-1.1-.5-2.3-.9-3.4-1.1-.6-1.4-1.4-3.2-2.4-5.4 0 0-.2-.4-.3-.4-.1 0-1.3 2.9-2.8 5.9-4.2.9-7.8 3.7-9.8 7.9-3.3 7.1-.2 15.5 6.9 18.7 7.1 3.3 15.5.2 18.7-6.9 3.3-7.1.2-15.5-6.9-18.7zm-2.6 20.9l-2.2-5.5c1-.4 1.7-1.4 1.7-2.5 0-1.5-1.2-2.7-2.7-2.7-1.5 0-2.7 1.2-2.7 2.7 0 1.1.7 2.1 1.7 2.5l-2.2 5.5c-3.2-1.3-5.5-4.4-5.5-8.1 0-4.8 3.9-8.7 8.7-8.7 4.8 0 8.7 3.9 8.7 8.7 0 3.6-2.3 6.7-5.5 8.1z" id="path10" fill="#fff"/><path class="st0" d="M272.6 87.8c0-.1-.5-.1-.5-.1-2.4.1-4.3.2-5.9.3-.7-1-1.5-1.8-2.5-2.6-6.1-4.9-15-3.8-19.8 2.3-4.8 6.2-3.7 15.1 2.3 19.9 6.1 4.9 15 3.8 19.8-2.3 2.9-3.6 3.7-8.2 2.6-12.3 2.1-2.7 4-5.1 4-5.2zm-8.9 11.9c0 .9-.8.9-.8.9h-3v2.8h-1v-2.8h-7.7v2.8h-1v-2.8h-3c-.8 0-.8-.9-.8-.9V91c0-.9.8-.9.8-.9h15.7c.8 0 .8.9.8.9z" id="path12" fill="#fff"/><g id="g14"><path class="st0" d="M257.5-12.6c-.9.4-1.5 1.1-2.1 1.8.5 0 1 .1 1.4 0 .6-.1 1.7-.1 2.1-.5.4-.6-.4-1.8-1.4-1.3z" id="path16" fill="#fff"/><path class="st0" d="M270.5 5.5c-1.2-2-2.3-3.7-3.1-5 .5-1 .8-2.2 1-3.4 1.2-7.7-4-14.9-11.7-16.2-7.7-1.2-14.9 4-16.3 11.6-1.2 7.7 4 14.9 11.7 16.2 4.5.7 8.9-.8 12-3.7 3.4.5 6.5 1.1 6.5 1 .1-.1-.1-.5-.1-.5zm-16.4-4.4h-5.6c-.4 0-.7-.3-.7-.7v-6.8h6.3zm7.4-.7c0 .4-.3.7-.7.7h-5.6v-7.5h6.3zm.6-7.4h-6.9v-3.4c-.2.1-.3.1-.5.1s-.4.1-.7.1v3.3h-6.9v-2.7c0-.4.3-.8.8-.8h3.1c-.8-.2-1.5-.5-1.5-1.2 0-.8.9-2.1 2.2-1.8 1.3.3 2.3 1.3 3 2.2.7-.9 1.7-2.1 3.1-2.3 1.2-.1 2.1 1 2 1.8-.1.7-.8 1-1.6 1.2h3.1c.4 0 .8.3.8.8z" id="path18" fill="#fff"/><path class="st0" d="M251.8-12.6c-.6-.3-1 0-1.3.5-.1.2-.3.5-.1.8.6.6 2.3.6 3.5.5-.5-.7-1.2-1.4-2.1-1.8z" id="path20" fill="#fff"/></g><path class="st0" d="M454.3-7.5c-1.3-7.6-8.6-12.8-16.3-11.6-7.7 1.3-12.9 8.5-11.7 16.2.2 1.2.5 2.4 1 3.4-.8 1.3-1.9 3-3.1 5 0 0-.2.4-.1.5 0 .1 3.1-.5 6.5-1 3.1 2.9 7.5 4.4 12 3.7 7.7-1.3 12.9-8.5 11.7-16.2zM440.6 3.3c-3.4-4.7-8.1-7.3-8.1-10.2 0-3.8 5.4-6.6 8.1-2.4 2.9-4.2 8.1-1.4 8.1 2.4 0 2.9-4.7 5.5-8.1 10.2z" id="path22" fill="#fff"/><path id="XMLID_6_" class="st3" d="M361.2 52.3c-.1-.1-.2-.3-.3-.6-.6-1.8-1.9-4.4-3.1-6.1-.9-1.2-3-3.4-4.4-4.5-2.1-1.7-4.7-3.4-8.6-5.6-3-1.7-5.6-3.6-7.7-5.4-2.3-2-3.6-3.5-4.7-5.5-1.6-2.9-2.5-5.6-2.6-7.4v-.7c.1-.1.2.1.4.5.8 1.4 2.1 2.9 3.4 4.1 2.3 2.1 5 3.9 8.6 5.7 2.9 1.5 7.2 3.8 8.5 4.6 3.3 1.9 6.6 4.6 9.2 7.2.5.6 1.6 1.8 1.7 1.9 0 .1-.2.2-.5.4-1 .6-1.9 1.4-2.4 2 0 .1-.1.1-.1.1s.2-.1.3-.3c.6-.6 1.6-1.2 2.6-1.7l.4-.2.5.7c.8 1 1.2 1.7 1.6 2.3.1.3.3.6.3.6s-.1.1-.2.1c-.4.1-1.5.7-2 1.1-.5.4-.9.8-.9.9 0 0 .2-.1.5-.1.7-.3 1.5-.4 2.3-.4.4 0 .8 0 1.1.1.4.1 1.2.4 1.2.5l-.6.3c-1 .5-2.2 1.4-2.9 2.1-.9.9-1.5 1.8-1.7 2.7.2.5.2.6.1.6" fill="#007dc2"/><path id="XMLID_5_" class="st3" d="M360.5 56.6c-.5-3.6-1.7-6.5-2.7-8.3-1-1.9-2-3-2-3-1.1-1.3-2.9-3-4.7-4.4-3.5-2.7-7.6-5.1-7.6-5.1-.5-.3-1.7-1-2.6-1.6 0 0-.5-.3-.7-.5-1.7-1.2-3.9-3.1-3.9-3.1-1.8-1.7-3.3-3.5-4.3-5.2-.5-.9-1-1.8-1.3-2.7-.5-1.2-.9-2.5-1.1-3.7-.1-.6-.2-1.2-.2-2.1l-.1-1.3c-.2 0-1.2 2-1.6 3-.8 2.1-1.1 4-1 6.2.1 2.9 1 5.5 2.7 8.1.3.4.5.7.5.7 0 .1.7 1 1.2 1.6.7.8 3.1 3 4.1 3.8 2.1 1.6 3.7 2.6 7 4.3l1.2.6.5-.1c1.2-.2 2.4-.4 3.7-.4.9 0 1.7.1 2.4.2.4.1.6.1.6.1h-.1c-.3 0-.8-.1-1.3-.1-.9 0-1.9.1-2.8.2-.8.1-2 .4-2 .5 0 0 .4.3.7.4.9.5 2 1.1 2.6 1.5l.5.3.5-.1c.7-.2 1.3-.3 1.9-.3h.2c.8 0 .9.1.9.1s-.1.1-.6.1c-.8.1-1.6.3-2.1.5l-.2.1.2.2c.8.8 1.3 1.9 1.3 2.8l-.1.5h2.3c.6.1 1.6.4 2.1.6 1.5.7 3.3 2.3 4.3 3.9.2.2.3.5.4.5.2 1.3.3 2.6.2 4l1.5 3.4z" fill="#007dc2"/><path id="XMLID_4_" class="st3" d="M359.7 63.2c-1.7-.1-5.2-.4-9.4-1.1-5.1-.8-9.6-2.1-13.6-3.6-1.6-.6-4-1.6-6-2.8-2.5-1.5-3.9-2.9-4.1-4.3-.1-.8.2-1.4 1-1.9 1.1-.8 2.8-1.3 5.4-1.6 0 0 3.2-.2 5.6-.5 1.3-.1 2.3-.3 3-.5.1 0 .3-.1.5-.2s.3-.2.3-.3c0-.1 0-.2-.1-.3-1.2-1-4-1.7-6.6-2.5-.2-.1-.3-.1-.5-.1-2.8-.8-6.1-1.6-8.1-2.1-.7-.2-1.3-.3-1.6-.4 0 0 3.8.6 7.9 1.4 2.4.5 4.4 1.1 6 1.6 2 .7 3.3 1.4 4 2 .2.2.2.4.2.6-.1.3-.4.5-.9.7-1.4.5-4.1 1-7.8 1.4 0 0-1.4.1-2.8.4-1.3.3-2.9.9-2.9 1.9 0 1 1.3 2.4 3.6 3.7 2.4 1.4 5.7 2.7 9.4 3.8 4.8 1.4 10.2 2.1 16.1 2.1z" fill="#007dc2"/><path id="XMLID_3_" class="st3" d="M372.8 58.6c-.7 0-1.4-.6-1.4-1.3 0-.8.6-1.4 1.3-1.4h.1c.8 0 1.4.6 1.4 1.3 0 .4-.1.7-.4 1-.2.2-.5.4-1 .4.1 0 .1 0 0 0" fill="#007dc2"/><path id="XMLID_2_" class="st3" d="M358.8 74.6h-.9c-3.2-.1-6.7-.7-10-2-4.4-1.6-7.2-3-10.4-4.9-3.2-1.9-6.8-3.8-9.4-4.9-2.6-1.1-5.1-1.9-7.4-2.5-2.3-.6-4.4-.8-6.3-.8h-.7c-1.7.1-3.1.3-4.3.8-.2.1-.4.1-.4.1 0-.1.3-.4.7-.7 1.2-.9 3.1-1.6 5.2-1.9.7-.1 1.6-.1 2.7-.1 1.4 0 2.8.1 3.7.2 2.4.4 5.6 1.4 9.6 3 1.5.6 4.9 2.1 6.2 2.8 1.5.7 3.3 1.5 4.5 2 2 .7 6.6 2.3 8.4 2.8 1.9.5 3.9.8 6.2.9h.7c1.8 0 4.3-.2 5.3-.4 1.5-.3 2-.5 3.2-.9 2-.7 3.4-1.4 5.9-3.1 2.3-1.5 3.2-2.2 4.8-3.7.6-.6.9-.8 1.6-1.2.6-.4 1.3-.7 1.9-.9l.4-.1-.2-.2c-1.1-.6-2-1.6-2.8-2.8-.4-.7-1.3-1.5-1.9-1.8-.9-.5-1.6-.7-2.6-.7h-.4c-1.4.1-2.4.4-4.1 1.2-.5.3-.8.4-.9.4 0-.1.2-.3.8-.8.4-.4.9-.8 1.2-1 .7-.5 1.8-1.1 2.6-1.3.6-.2.7-.2 1.7-.2h.7c.4 0 .6 0 .9.1 1.5.3 2.6 1.1 3.9 2.5 1.7 1.9 3.3 3.2 4.5 3.5.1 0 .4.1.4.1s-.3.2-.5.3c-.8.4-2.4 1.4-3.2 1.9-1.7 1.3-3.2 2.8-4.7 5-1.4 2-3.5 4-5.6 5.4-2.9 1.9-5.9 3.1-9.4 3.6-.6.3-.9.3-1.6.3" fill="#007dc2"/><path class="st0" d="M451.5 87.7c-4.8-6.1-13.7-7.2-19.8-2.3-1 .8-1.8 1.6-2.5 2.6-1.6-.1-3.5-.2-5.9-.3 0 0-.5 0-.5.1s1.9 2.5 4 5.2c-1.1 4.1-.3 8.7 2.6 12.3 4.8 6.1 13.7 7.2 19.8 2.3 6.1-4.8 7.2-13.7 2.3-19.9zm-1.2 6l-2.1.6c-.2-.7-.4-1.3-.8-1.9l1.9-1.1c.4.8.8 1.6 1 2.4zm-9.7-7.4c.9 0 1.7.1 2.5.3l-.5 2.2c-.6-.2-1.3-.3-2-.3zm-2.6.4l.6 2.1c-.7.2-1.3.5-1.9.8l-1.1-1.9c.8-.4 1.6-.8 2.4-1zm-4.5 2.6l1.5 1.5c-.4.6-.8 1.1-1.2 1.7l-1.9-1.1c.4-.8 1-1.4 1.6-2.1zm-2.6 4.5l2.1.6c-.2.7-.3 1.3-.3 2h-2.1c0-.9.1-1.7.3-2.6zm.1 5.2l2.1-.6c.2.7.4 1.3.8 1.9l-1.9 1.1c-.4-.8-.8-1.6-1-2.4zm4.6 6c-.8-.4-1.4-1-2.1-1.6l1.5-1.5c.5.5 1 .9 1.6 1.2zm5 1.4c-.9 0-1.7-.1-2.6-.3l.6-2.1c.7.2 1.3.3 2 .3zm2.6-.4l-.6-2.1c.7-.2 1.3-.4 1.9-.8l1.1 1.9c-.8.5-1.6.8-2.4 1zm1.3-16.4l1.1-1.9c.8.4 1.4 1 2.1 1.6l-1.6 1.5c-.5-.5-1-.9-1.6-1.2zm3.2 13.8l-1.5-1.5c.5-.5.9-1 1.2-1.6l1.9 1.1c-.5.7-1 1.4-1.6 2zm2.5-4.4l-2.1-.6c.2-.7.3-1.3.3-2h2.2c0 .9-.1 1.7-.4 2.6z" id="path55" fill="#fff"/></g></g></svg>