<svg xmlns="http://www.w3.org/2000/svg" xmlns:xlink="http://www.w3.org/1999/xlink" viewBox="0 0 237 110"><defs><style>.cls-1{fill:none;}.cls-2{clip-path:url(#clip-path);}.cls-3{fill:#007ec1;}</style><clipPath id="clip-path"><rect class="cls-1" y="0.48" width="232.4" height="107.52"/></clipPath></defs><title>Zeichenfläche 1</title><g class="cls-2"><path class="cls-3" d="M91.7,108a28.5,28.5,0,0,1-6.43-.62,16.57,16.57,0,0,1-4.56-1.68A7.9,7.9,0,0,1,78,103.09a6.06,6.06,0,0,1-.9-3.2,4.61,4.61,0,0,1,.54-2.26A5.42,5.42,0,0,1,79.22,96a7.73,7.73,0,0,1,2.42-1,13.26,13.26,0,0,1,3.12-.31,14.9,14.9,0,0,0,.59,4.41A8.59,8.59,0,0,0,87,102.19a6.41,6.41,0,0,0,2.5,1.83,8.48,8.48,0,0,0,3.2.59,10.24,10.24,0,0,0,3-.43A7.38,7.38,0,0,0,97.9,103a5,5,0,0,0,1.41-1.83,5.5,5.5,0,0,0,.46-2.23,7.28,7.28,0,0,0-.31-2.14,4.61,4.61,0,0,0-1.13-1.87A10.57,10.57,0,0,0,96.11,93,33.66,33.66,0,0,0,92.44,91a36.9,36.9,0,0,1-4-2.46,14,14,0,0,1-2.93-2.73,10.2,10.2,0,0,1-1.75-3.2,12.25,12.25,0,0,1-.59-3.93,9.33,9.33,0,0,1,1.1-4.57,9.89,9.89,0,0,1,3.08-3.58,13.3,13.3,0,0,1,4.83-2.3,22.7,22.7,0,0,1,6.36-.82,31.66,31.66,0,0,1,5.77.46,15.83,15.83,0,0,1,4.09,1.33,6.82,6.82,0,0,1,2.46,2,4,4,0,0,1,.82,2.42,4.22,4.22,0,0,1-1.83,3.55q-1.81,1.27-6,1.28a12.44,12.44,0,0,0-.27-2.61,6.73,6.73,0,0,0-.94-2.46,5.4,5.4,0,0,0-1.79-1.83,5,5,0,0,0-2.89-.74,8.25,8.25,0,0,0-2.34.35,6.47,6.47,0,0,0-2.1,1A5.49,5.49,0,0,0,92,73.92a5.17,5.17,0,0,0-.59,2.53A5.5,5.5,0,0,0,91.9,79a6.14,6.14,0,0,0,1.48,1.91,16.34,16.34,0,0,0,2.46,1.71c1,.55,2.14,1.17,3.47,1.84a19.89,19.89,0,0,1,6.63,5,9.92,9.92,0,0,1,2.14,6.32,11.81,11.81,0,0,1-1.13,5.22,10.27,10.27,0,0,1-3.28,3.86,15.08,15.08,0,0,1-5.14,2.38,28.42,28.42,0,0,1-6.83.78"/><path class="cls-3" d="M131.63,80.51a4.56,4.56,0,0,0-2.76,1,11.07,11.07,0,0,0-2.34,2.65,19.49,19.49,0,0,0-1.8,3.63,21.7,21.7,0,0,0-1.09,4h.51a15.09,15.09,0,0,0,4.09-.55,10.29,10.29,0,0,0,3.28-1.56,7.57,7.57,0,0,0,2.18-2.42,6.05,6.05,0,0,0,.78-3.16,4.12,4.12,0,0,0-.74-2.65,2.48,2.48,0,0,0-2.11-.93m-2.06,23.24a9.46,9.46,0,0,0,2.77-.39,15.83,15.83,0,0,0,2.41-1,10.6,10.6,0,0,0,2-1.45,13.43,13.43,0,0,0,1.52-1.64,2.73,2.73,0,0,1,.55,1.06,4.84,4.84,0,0,1,.19,1.32,3.94,3.94,0,0,1-.7,2.11,6.46,6.46,0,0,1-2.14,2,12.55,12.55,0,0,1-3.67,1.52,20.68,20.68,0,0,1-5.26.62,18.08,18.08,0,0,1-5.11-.7,12.06,12.06,0,0,1-4.21-2.14,9.85,9.85,0,0,1-2.85-3.55,11.42,11.42,0,0,1-1-5,16.86,16.86,0,0,1,.58-4.29,21.76,21.76,0,0,1,1.72-4.41,20.94,20.94,0,0,1,2.85-4.09,18.47,18.47,0,0,1,3.93-3.4,19.22,19.22,0,0,1,5-2.3,21.33,21.33,0,0,1,6-.86,11,11,0,0,1,6.59,1.72,5.58,5.58,0,0,1,2.34,4.8A7.7,7.7,0,0,1,141.73,88a12.89,12.89,0,0,1-3.66,3.62A18.65,18.65,0,0,1,132.49,94a25.43,25.43,0,0,1-7.06.94h-1.09a10,10,0,0,1-1.13-.08,10,10,0,0,0-.08,1.09v1a7.16,7.16,0,0,0,1.6,5,6.07,6.07,0,0,0,4.84,1.79"/><path class="cls-3" d="M152.85,82.61a1.64,1.64,0,0,0-.7-1.48,4.81,4.81,0,0,0-2.42-.43h-1l.5-2.92h13.11L161,85.38h.27a30.58,30.58,0,0,1,2-3.51,13,13,0,0,1,2.26-2.53,8.76,8.76,0,0,1,2.81-1.56,11.47,11.47,0,0,1,3.62-.51,8,8,0,0,1,4.68,1.09,3.77,3.77,0,0,1,1.52,3.24,5,5,0,0,1-1.79,4.25,8.27,8.27,0,0,1-5.19,1.4A13.18,13.18,0,0,0,171.1,85a5.32,5.32,0,0,0-.47-1.71,2.8,2.8,0,0,0-.9-1.1,2.71,2.71,0,0,0-1.4-.39,3.13,3.13,0,0,0-1.76.63,10,10,0,0,0-1.87,1.75,17.57,17.57,0,0,0-1.79,2.62,32,32,0,0,0-1.68,3.31,38.56,38.56,0,0,0-1.48,3.78c-.43,1.33-.82,2.65-1.13,4l-2.26,9.59h-8.93l5-22.22c.08-.32.12-.71.23-1.21a6.87,6.87,0,0,0,.16-1.41"/><path class="cls-3" d="M191.61,103.55a4.9,4.9,0,0,0,1.72-.31,9.68,9.68,0,0,0,1.79-.93l1.4,1.87a10.47,10.47,0,0,1-1.6,1.36,12.37,12.37,0,0,1-2,1.25,9.79,9.79,0,0,1-2.46.86,12.24,12.24,0,0,1-3,.31,8,8,0,0,1-5.23-1.52,5.07,5.07,0,0,1-1.83-4.17,31.93,31.93,0,0,1,.94-6.59L186.46,73c.08-.23.12-.47.2-.74s.11-.47.15-.7a3.88,3.88,0,0,0,.08-.59c0-.15,0-.27,0-.35a3.48,3.48,0,0,0-.16-1.21,1.43,1.43,0,0,0-.54-.7,2.36,2.36,0,0,0-1-.31,14.12,14.12,0,0,0-1.44-.08h-1.25l.55-2.92h14.31l-7.06,30.38c-.23,1-.43,1.94-.58,2.8a13.46,13.46,0,0,0-.24,2.46,2.89,2.89,0,0,0,.55,1.87,1.86,1.86,0,0,0,1.52.66"/><path class="cls-3" d="M214.27,104a5,5,0,0,0,2.88-.86,8.8,8.8,0,0,0,2.3-2.26,15.57,15.57,0,0,0,1.8-3.16,29.74,29.74,0,0,0,1.24-3.7,32.05,32.05,0,0,0,.71-3.7,27.48,27.48,0,0,0,.23-3.28c0-2.18-.39-3.74-1.21-4.68A4.06,4.06,0,0,0,219,80.9a5.24,5.24,0,0,0-2.77.78,9,9,0,0,0-2.3,2.14,13.78,13.78,0,0,0-1.8,3.08,28,28,0,0,0-1.32,3.63,25.74,25.74,0,0,0-.78,3.7,26.36,26.36,0,0,0-.28,3.4c0,2.22.39,3.86,1.21,4.83a4,4,0,0,0,3.36,1.52m-13.65-7.64a18.43,18.43,0,0,1,.5-4.29,20.61,20.61,0,0,1,1.56-4.33,19.53,19.53,0,0,1,2.66-4,17.08,17.08,0,0,1,3.74-3.32A18,18,0,0,1,214,78.09a21.07,21.07,0,0,1,6-.82,17.65,17.65,0,0,1,4.79.66A10.69,10.69,0,0,1,228.77,80a9.35,9.35,0,0,1,2.65,3.63,12.73,12.73,0,0,1,1,5.3,17.66,17.66,0,0,1-.51,4.17,17.44,17.44,0,0,1-1.52,4.29,21.68,21.68,0,0,1-2.61,4.06,17.66,17.66,0,0,1-3.71,3.39,17.23,17.23,0,0,1-4.87,2.3,19.59,19.59,0,0,1-6.08.86,17.68,17.68,0,0,1-5.11-.7,11.5,11.5,0,0,1-4-2.15,10,10,0,0,1-2.57-3.66,15.94,15.94,0,0,1-.82-5.15"/><path class="cls-3" d="M58,41.18s0,0-.06,0-.12-.28-.23-.59a30,30,0,0,0-3.49-6.73,32.84,32.84,0,0,0-4.89-5,80,80,0,0,0-9.52-6.27,57.64,57.64,0,0,1-8.53-6,20.62,20.62,0,0,1-5.19-6.08c-1.75-3.19-2.81-6.18-2.9-8.22,0-.46,0-.67.05-.73s.2.06.48.52a20.6,20.6,0,0,0,3.76,4.56A42.42,42.42,0,0,0,37,12.92c3.23,1.64,8,4.2,9.45,5.06a51.3,51.3,0,0,1,10.2,8c.6.61,1.8,1.95,1.93,2.14a0,0,0,0,1,0,0c0,.06-.2.21-.54.41a8.66,8.66,0,0,0-2.61,2.26l-.08.11a2.69,2.69,0,0,0,.35-.29,11.52,11.52,0,0,1,2.88-1.85l.42-.19h0l.6.78A29.25,29.25,0,0,1,61.35,32c.16.28.35.61.35.62s-.14.08-.2.09a10.38,10.38,0,0,0-2.23,1.21,4,4,0,0,0-1,1h0a2.85,2.85,0,0,0,.54-.16,7.62,7.62,0,0,1,2.54-.45,5.82,5.82,0,0,1,1.25.14A4.81,4.81,0,0,1,64,35a3.57,3.57,0,0,1-.62.38,15.68,15.68,0,0,0-3.26,2.32,6.65,6.65,0,0,0-1.94,3c-.08.35-.14.48-.21.48"/><path class="cls-3" d="M57.62,53l-1.68-3.81a23.45,23.45,0,0,0-3-12.31,32.77,32.77,0,0,0-3-4.1A37.15,37.15,0,0,0,44.75,28a66.78,66.78,0,0,0-5.68-3.61s-3-1.78-5.66-3.76a28.17,28.17,0,0,1-6.5-6.31A23.68,23.68,0,0,1,24.1,9.47a22.35,22.35,0,0,1-1.76-6.41h0a27.33,27.33,0,0,0,3.18,8.34,30.29,30.29,0,0,0,4.82,5.76h0s2.41,2.12,4.32,3.43l.81.54c1,.66,2.33,1.51,2.89,1.82,0,0,4.51,2.69,8.44,5.67A35.55,35.55,0,0,1,52,33.44a20.87,20.87,0,0,1,2.21,3.34,26.53,26.53,0,0,1,2.94,9.16L57.64,53Z"/><path class="cls-3" d="M55.68,44.77h0a1.94,1.94,0,0,1-.42-.55v0a12.14,12.14,0,0,0-4.73-4.31,10.33,10.33,0,0,0-2.33-.65,8.25,8.25,0,0,0-1-.05h-.44l-.92,0h0l0-.53a4.83,4.83,0,0,0-1.55-3.16L44,35.27h0l.27-.12a7.55,7.55,0,0,1,2.31-.54c.6,0,.68-.08.68-.1s-.11,0-1-.07H46.1a8,8,0,0,0-2.14.32l-.51.13h0l-.58-.39A30,30,0,0,0,40,32.84a5.17,5.17,0,0,1-.76-.44,9.55,9.55,0,0,1,2.22-.55,17.58,17.58,0,0,1,3.09-.27,11.49,11.49,0,0,1,1.46.09l.13,0h0a5.83,5.83,0,0,0-.72-.15,16.26,16.26,0,0,0-2.69-.2,19.81,19.81,0,0,0-4.13.42l-.62.14h0l-1.28-.69A52.47,52.47,0,0,1,29,26.37a50.07,50.07,0,0,1-4.55-4.17A21.27,21.27,0,0,1,23,20.47s-.21-.33-.53-.81A17,17,0,0,1,20.65,3.83,15.33,15.33,0,0,1,22.41.48a10.85,10.85,0,0,1,.13,1.44,13.81,13.81,0,0,0,.25,2.39,26.34,26.34,0,0,0,3.69,8.89c.56.89,1.52,2.23,2.09,2.93,1.68,2.1,6.49,5.82,11,8.51a63.42,63.42,0,0,1,6.34,4.15A25.45,25.45,0,0,1,50.42,33a24.77,24.77,0,0,1,3.18,4.89,23,23,0,0,1,1.87,5.29,5.22,5.22,0,0,1,.24,1.55h0"/><path class="cls-3" d="M56.24,53.24h0a101.32,101.32,0,0,1-10.41-1.17,77.61,77.61,0,0,1-15.12-4A45,45,0,0,1,24,44.93c-2.79-1.66-4.31-3.26-4.53-4.72a2.33,2.33,0,0,1,1.06-2.15c1.2-.92,3.1-1.47,5.95-1.75,0,0,3.58-.23,6.26-.51a17,17,0,0,0,3.3-.55,1.9,1.9,0,0,0,.52-.18.65.65,0,0,0,.37-.38.41.41,0,0,0-.07-.33c-1.36-1-4.42-1.91-7.38-2.73L29,31.48c-3.12-.88-6.81-1.78-9-2.33l-1.75-.43h0c.05,0,4.25.61,8.79,1.58,2.65.59,4.91,1.18,6.69,1.77a12,12,0,0,1,4.42,2.23.75.75,0,0,1,.2.67c-.08.29-.42.57-1,.78h-.06a43.92,43.92,0,0,1-8.67,1.53,21.49,21.49,0,0,0-3.16.49c-1.44.36-3.17,1-3.22,2.09s1.44,2.64,4,4.16a47.21,47.21,0,0,0,10.44,4.2A68.31,68.31,0,0,0,54.6,50.59h0Z"/><path class="cls-3" d="M70.87,48.16a1.54,1.54,0,0,1-.05-3.07h.06A1.54,1.54,0,0,1,72,47.67a1.57,1.57,0,0,1-1.07.49h-.07"/><path class="cls-3" d="M55.33,66h-1a34.81,34.81,0,0,1-11.13-2.2,63,63,0,0,1-11.58-5.43,91.09,91.09,0,0,0-10.46-5.44A56.17,56.17,0,0,0,13,50.09a29.82,29.82,0,0,0-7-.93l-.75,0A15,15,0,0,0,.5,50a1.7,1.7,0,0,1-.46.14H0s0,0,0,0,.32-.41.8-.77a13.11,13.11,0,0,1,5.79-2.07,24.09,24.09,0,0,1,3-.16,28.48,28.48,0,0,1,4.12.26,51.63,51.63,0,0,1,10.65,3.35c1.64.67,5.43,2.37,6.87,3.07,1.66.81,3.65,1.67,5.05,2.21,2.19.83,7.31,2.53,9.3,3.07a31.12,31.12,0,0,0,6.88,1l.77,0a38,38,0,0,0,5.85-.45,26.69,26.69,0,0,0,3.61-1,27.45,27.45,0,0,0,6.58-3.42,32.29,32.29,0,0,0,5.37-4.13,8.88,8.88,0,0,1,1.8-1.38,10.46,10.46,0,0,1,2-1l.4-.13-.27-.17a9.33,9.33,0,0,1-3.05-3.1,6.84,6.84,0,0,0-2.15-2,5.51,5.51,0,0,0-2.85-.73l-.48,0A9.9,9.9,0,0,0,65.56,44a5,5,0,0,1-1,.46s0,0,0,0,.23-.31.84-.88c.44-.39,1-.9,1.36-1.13A12.11,12.11,0,0,1,69.63,41a5.7,5.7,0,0,1,1.89-.27l.8,0a3.75,3.75,0,0,1,1,.12,7.61,7.61,0,0,1,4.32,2.81c1.84,2.11,3.71,3.58,5,3.93.14,0,.41.12.41.16s-.38.24-.58.34A30.23,30.23,0,0,0,79,50.21a22.43,22.43,0,0,0-5.2,5.5,24.62,24.62,0,0,1-6.2,6,25.41,25.41,0,0,1-10.46,4,9.89,9.89,0,0,1-1.76.15"/></g></svg>
