<svg class="sus" xmlns="http://www.w3.org/2000/svg" height="170" width="170" viewBox="0 0 43.5 43.5"><g id="sustain"> <path class="blue" d="M36.4 32.72l-2.81-17.33s-2.54.73-6.44.57c-3.06-.13-5.23-.83-5.9-1.05s-1.22.96-1.22.96l-3 16.85s.26 1.61 9.37 1.44c9.12-.17 10-1.44 10-1.44z"/> <path class="green" d="M32.71 12.99l-.02-.22-.12-1.44-.05-.44-.04-.5c-.07-.97-.16-2.18-.76-2.83-.3-.32-.65-.46-1.04-.4-1.84.26-4.08 4.84-5.04 6.79l-.28.56-.45.81c-.43.77-.83 1.5-1.13 2.37l-.1.28c-.18.5-.42 1.12-.22 1.57a1.13 1.13 0 0 0 1.09.62.7.7 0 0 0 .54-.31c.03 0 .05-.04.07-.1l.03-.1.01-.08.03-.09.02-.1.14-.7c.14-.7.27-1.37.56-2.05.2-.45.38-.92.56-1.37l.54-1.35c.56-1.3 1.44-3.14 2.57-4.27.4-.4.79-.54 1.12-.4.43.16.74.8.77 1.57 0 .17-.02.42-.05.68-.1.85-.22 2 .64 2.15.27.04.43.02.52-.07.13-.13.12-.33.09-.58z"/> <path class="blue" d="M19.26 19.57L9.22 15.62l-1 1.61 1.77 1.48 8.44 5.98z"/> <path class="green" d="M6.77 12.25c-1.28.5-2.65 1.6-2.65 4.25s.9 2.75.9 2.75l.56-.24.04.37s2.74-1.84 3.15-3.04c.42-1.2.37-3.2-.25-3.62s-1.75-.47-1.75-.47zm33.31 4.57c-.05-1.1-1.47-2.28-2.87-1.91-1.4.37-2.9 3.47-2.9 3.47l.12.97s.24-.76.75-1.47c.52-.72 2.12-2.37 2.75-2.01s1.1 1.05.78 2.55c-.31 1.5-2.04 4.48-2.32 5.07-.28.6-1.16 2.7-1.16 2.7l.32 2.1s.15-.16.43-1.28a23.4 23.4 0 0 1 2.75-5.27 8.84 8.84 0 0 0 1.35-4.92z"/> <path d="M 30.6 13.53 L 31.05 13.6 L 30.6 13.53 Z M 39.16 15.17 C 37.08 13.61 35.11 16.4 34.28 18.12 L 34.22 18.12 C 34.12 17.54 34.02 16.95 33.95 16.36 C 33.92 16.1 33.85 15.84 33.83 15.58 C 33.82 15.34 34.03 14.94 34.01 14.78 C 33.97 14.45 34.07 14.69 33.85 14.46 C 33.519 14.263 33.162 14.111 32.79 14.01 C 32.75 13.93 32.85 13.36 32.86 13.24 C 32.86 12.84 32.81 12.42 32.79 12.01 C 32.755 11.295 32.695 10.581 32.61 9.87 C 32.48 8.86 32.31 7.17 31.07 6.95 C 29.97 6.77 28.75 8.21 28.17 8.96 C 27.27 10.14 26.71 11.54 25.91 12.78 C 24.934 12.708 23.953 12.806 23.01 13.07 C 22.41 13.25 20.93 13.71 20.85 14.47 C 21.22 14.35 21.55 14 21.91 13.82 C 22.34 13.59 22.78 13.42 23.24 13.28 C 24.058 13.028 24.92 12.949 25.77 13.05 C 25.77 13.08 25.75 13.1 25.74 13.13 C 25.64 13.49 25.39 14.43 25.14 14.66 C 24.57 14.6 20.99 14.2 20.79 14.7 C 20.52 15.34 24.04 15.82 24.39 15.89 C 23.96 16.96 22.05 19.84 24.05 20.41 C 24.97 20.68 25.41 19.91 25.52 19.09 C 25.67 18.03 26.02 17.12 26.42 16.11 C 27.03 15.87 28.2 16.13 28.87 16.13 C 29.71 16.13 30.52 16.08 31.36 15.98 C 31.82 15.92 32.28 15.89 32.72 15.76 C 32.88 15.71 33.23 15.46 33.37 15.5 C 33.76 15.61 33.74 16.96 33.8 17.35 C 34.03 19.06 34.3 20.78 34.6 22.48 C 34.85 23.98 35.18 25.7 35.18 27.22 C 33.35 27.64 31.68 28.6 29.8 28.95 C 28.056 29.268 26.297 29.495 24.53 29.63 C 22.72 30.02 20.17 29.98 18.38 29.45 C 17.47 29.19 17.83 28.68 17.98 27.86 C 18.14 26.99 18.18 26.01 18.46 25.18 C 18.54 24.95 18.66 24.88 18.7 24.7 C 18.57 24.6 18.53 24.47 18.59 24.31 L 18.73 23.51 L 19.24 20.66 C 19.42 19.68 19.62 18.71 19.85 17.75 C 20.08 16.84 20.71 15.62 20.59 14.69 C 19.75 15.89 19.6 17.94 19.25 19.36 C 17.13 18.86 15.12 17.62 13.06 16.89 C 12.49 16.69 11.94 16.44 11.38 16.22 C 10.86 16.02 10.12 15.93 9.68 15.62 C 8.93 15.11 9.22 13.97 8.88 13.17 C 7.91 10.84 5.38 12.29 4.57 13.94 C 4.111 14.916 3.911 15.994 3.99 17.07 C 4.03 17.62 4.15 18.29 4.41 18.78 C 4.71 19.34 4.94 19.56 5.44 19.15 L 5.48 19.2 C 5.26 19.37 5.35 19.5 5.58 19.56 C 5.61 19.57 6.32 18.98 6.28 19.01 L 8.28 17.51 C 11.08 19.73 14.06 21.61 16.93 23.74 C 17.5 24.17 18.21 24.45 18.19 25.2 C 18.17 26.03 17.85 26.94 17.71 27.77 C 17.59 28.5 17.41 29.22 17.29 29.95 C 17.23 30.27 17.24 31.12 17.03 31.39 C 16.85 31.64 16.56 31.59 16.27 31.72 C 14.53 32.47 15.22 34.38 16.69 34.93 C 18.32 35.55 20.19 35.68 21.91 35.97 C 25.19 36.53 28.73 36.01 32.01 35.67 C 33.91 35.47 35.84 35.35 37.37 34.07 C 37.85 33.67 38.18 33.17 38.07 32.52 C 37.97 31.9 37.23 31.11 36.57 31.46 C 36.79 31.83 37.3 31.73 37.57 32.12 C 37.91 32.59 37.77 33.16 37.42 33.56 C 36.564 34.394 35.464 34.934 34.28 35.1 C 31.77 35.55 29.15 35.64 26.61 35.81 C 24.01 35.99 21.56 35.74 19.01 35.18 C 18.01 34.96 16.59 34.91 15.84 34.09 C 15.01 33.18 15.84 32.03 16.86 31.8 L 16.91 31.86 C 16.64 32.8 16.53 33.18 17.51 33.56 C 18.34 33.86 19.25 33.98 20.11 34.13 C 22.03 34.48 23.91 34.66 25.86 34.68 C 27.74 34.7 29.61 34.44 31.49 34.3 C 32.94 34.2 35.54 34.1 36.62 32.94 C 36.08 32.59 36.1 31.59 36.02 31.01 C 35.9 30.27 35.73 29.51 35.77 28.76 C 35.87 27.02 36.81 25.4 37.65 23.92 C 38.81 21.86 41.9 17.22 39.16 15.17 L 39.16 15.17 Z M 33.2 14.55 L 33.28 14.59 L 33.26 14.68 C 31.18 15.03 29.06 14.82 26.95 14.82 L 27.68 13.32 C 29.48 13.72 31.56 13.69 33.2 14.55 Z M 30.63 13.53 C 29.77 13.4 28.91 13.25 28.05 13.1 L 30.6 13.53 C 29.7 13.35 28.7 13.17 27.82 13.03 C 28.19 12.35 28.55 11.66 28.96 11 C 29.26 10.52 29.64 9.74 30.21 9.53 C 30.91 9.29 31.21 9.83 31.17 10.49 L 31.33 13.48 L 31.3 13.65 L 31.53 13.72 C 31.23 13.654 30.93 13.591 30.63 13.53 L 30.63 13.53 Z M 24.4 15.6 C 23.46 15.49 22.45 15.37 21.56 15 L 21.58 14.9 C 22.65 14.83 23.78 14.98 24.84 14.85 L 24.52 15.62 L 24.4 15.6 L 24.4 15.6 Z M 25.1 19.66 C 24.92 20.46 23.84 20.22 23.57 19.61 C 23.36 19.12 23.73 18.34 23.9 17.85 C 24.3 16.67 24.9 15.75 25.46 14.68 C 26.06 13.56 29.62 5.56 31.65 7.75 C 32.33 8.5 32.33 10.05 32.42 11.02 C 32.48 11.64 32.55 12.27 32.59 12.89 C 32.62 13.44 32.76 13.75 32.13 13.65 C 31.13 13.48 31.65 11.66 31.63 10.92 C 31.58 9.62 30.73 8.52 29.55 9.68 C 28.45 10.78 27.57 12.56 26.95 13.98 C 26.57 14.88 26.25 15.81 25.85 16.71 C 25.43 17.68 25.35 18.64 25.1 19.66 C 24.95 20.32 25.26 19 25.1 19.66 L 25.1 19.66 Z M 32.26 15.57 C 30.41 15.91 28.44 15.93 26.56 15.77 C 26.59 15.72 26.62 15.67 26.64 15.67 C 26.77 15.39 26.84 15.22 26.88 15.09 C 29.06 15.29 31.46 15.36 33.6 14.91 C 33.3 15.43 32.75 15.49 32.26 15.57 L 32.26 15.57 Z M 8.99 15.14 C 9.07 15.34 8.86 15.77 8.81 15.95 L 8.75 15.95 L 8.75 15.17 L 8.89 15.27 L 8.99 15.14 C 9 15.17 8.96 15.19 8.99 15.14 Z M 8.82 13.86 C 8.83 14.11 8.99 14.36 8.76 14.62 L 8.76 13.86 L 8.82 13.86 C 8.83 14.11 8.8 13.86 8.82 13.86 Z M 8.65 13.38 L 8.78 13.52 L 8.7 13.53 C 8.6 13.65 8.52 13.79 8.45 13.93 C 8.42 13.92 8.392 13.903 8.37 13.88 C 8.413 13.69 8.51 13.516 8.65 13.38 C 8.69 13.43 8.61 13.43 8.65 13.38 Z M 4.73 16.48 L 4.63 18.22 C 3.98 17.19 4.33 13.97 5.73 12.95 C 5.155 14.041 4.814 15.24 4.73 16.47 C 4.69 17.07 4.79 15.56 4.73 16.47 L 4.73 16.48 Z M 7.03 18.1 L 6.98 18.07 L 7.02 17.67 L 7.46 17.69 L 7.46 17.76 L 7.04 18.1 C 7.02 18.1 7.18 17.99 7.04 18.1 L 7.03 18.1 Z M 7.2 15.77 L 7.2 16.2 C 7 16.06 7.06 15.94 7.2 15.77 L 7.2 15.77 Z M 7.6 17.65 L 7.55 17.63 L 7.69 16.03 C 7.77 16.48 7.57 16.93 7.81 17.42 L 7.61 17.65 C 7.59 17.65 7.69 17.55 7.61 17.65 L 7.6 17.65 Z M 6.57 16.27 C 6.07 17.19 5.68 18.17 5.19 19.12 C 4.57 17.82 4.98 15.23 5.58 13.92 C 5.86 13.28 6.38 12.72 7.08 12.58 C 7.58 12.48 8.12 13.04 8.46 12.82 C 8.46 13.92 7.08 15.32 6.57 16.27 L 6.57 16.27 Z M 8.24 16.89 C 7.57 16.72 7.96 14.63 8.2 14.13 C 8.2 14.43 8.2 16.63 8.24 16.61 C 8.71 16.34 8.24 14.58 8.48 14.11 L 8.54 14.11 C 8.54 15.06 8.76 16.11 8.24 16.89 C 7.92 16.81 8.34 16.74 8.24 16.89 Z M 17.31 23.7 C 15.31 22.27 13.13 21.01 11.21 19.48 C 10.44 18.88 9.37 18.25 8.75 17.48 C 8.42 17.06 8.47 17.12 8.79 16.6 C 9.14 16.04 9.27 15.9 9.91 16.04 C 11.14 16.29 12.4 16.93 13.55 17.4 C 14.83 17.93 16.1 18.45 17.39 18.95 C 17.81 19.12 18.61 19.25 18.93 19.58 C 19.26 19.92 19.12 20.1 19.02 20.61 C 18.78 21.85 18.69 23.21 18.3 24.4 L 17.3 23.7 L 17.31 23.7 Z M 17.69 29.58 C 20.85 30.38 24.18 30.04 27.37 29.62 C 28.74 29.44 30.17 29.27 31.47 28.85 C 32.63 28.48 34.23 28.15 35.18 27.41 C 35.45 27.85 32.08 28.91 31.65 29.03 C 30.09 29.43 28.49 29.78 26.9 30.02 C 25.31 30.26 23.74 30.52 22.14 30.52 C 20.97 30.52 18.48 30.61 17.64 29.62 L 17.69 29.58 C 17.99 29.66 17.67 29.59 17.69 29.58 L 17.69 29.58 Z M 35.97 32.88 C 35.3 33.18 34.33 33.18 33.62 33.3 C 32.17 33.54 30.72 33.77 29.26 33.95 C 26.45 34.32 23.69 34.18 20.88 33.78 C 20.01 33.66 18.37 33.65 17.62 33.11 C 17 32.67 17.33 31.34 17.55 30.67 C 17.69 30.2 17.57 30.32 17.95 30.25 C 18.41 30.16 19.26 30.53 19.73 30.62 C 21.64 30.95 23.51 31.01 25.43 30.65 C 27.27 30.29 29.21 30.02 31.03 29.55 C 31.9 29.34 32.73 28.95 33.55 28.61 C 33.91 28.46 34.75 27.94 35.16 28.12 C 35.23 28.56 36.15 32.8 35.97 32.88 L 35.97 32.88 Z M 38.97 21 C 37.78 23.15 36.33 25.3 35.65 27.68 L 35.6 27.68 C 35.18 26.08 36.13 24.25 36.88 22.88 C 37.64 21.48 38.46 20.18 38.83 18.62 C 39.1 17.47 39.13 15.14 37.29 15.76 C 36.21 16.12 34.43 17.97 34.48 19.14 C 34.95 18.77 35.17 18.08 35.55 17.6 C 35.93 17.14 36.35 16.67 36.85 16.34 C 38.37 15.31 38.73 16.78 38.63 18.08 C 38.51 19.51 37.78 20.68 37.09 21.88 C 36.42 23.08 35.91 24.28 35.36 25.52 L 35.28 25.52 C 34.99 23.84 34.86 22.14 34.58 20.46 C 34.225 18.986 34.63 17.432 35.66 16.32 C 36.71 15.05 38.59 14.3 39.59 16.02 C 40.44 17.49 39.71 19.65 38.97 21 C 38.5 21.85 39.57 19.9 38.97 21 L 38.97 21 Z"></path><path class="blue water" d="M 2.81 17.1 C 2.58 16.71 1.25 18.99 1.86 19.5 C 2.26 19.83 3.14 17.64 2.81 17.1 Z M 1.69 24.24 C 1.58 23.49 0.96 24.34 0.85 24.61 C 0.71 24.95 0.49 25.83 0.61 26.17 C 0.7 26.42 0.53 26.55 0.93 26.3 C 1.41 26 1.61 25 1.73 24.5 L 1.7 24.5 L 1.68 24.24 L 1.69 24.24 Z M 2.98 20.59 C 2.33 20.99 2.32 21.73 2.19 22.42 L 2.25 22.43 C 2.23 22.59 2.3 22.73 2.43 22.85 C 2.81 22.6 3.05 22.13 3.19 21.7 C 3.25 21.53 3.42 20.32 2.98 20.59 Z M 1.22 21.18 L 1.15 21.16 C 1.15 20.5 0.74 20.55 0.45 21.03 C 0.16 21.5 0 22.16 0.25 22.63 C 0.81 22.33 0.96 21.75 1.22 21.18 C 1.2 21.18 1.07 21.5 1.22 21.18 Z"></path></g> </svg>