<svg class="abc" xmlns="http://www.w3.org/2000/svg" height="170" width="170" viewBox="0 0 43.5 43.5"> <path class="blue" d="M10.37 37.08c-.67-2.1 1-4.4.34-6.5-.22-.67-.66-1.25-1.06-1.83-1.46-2.08-2.59-4.45-2.95-6.97s.1-5.2 1.56-7.29c1.98-2.83 5.47-4.2 8.86-4.9 2.97-.6 6.03-.83 9.07-.65 2.74.17 5.6.72 7.73 2.45 1.94 1.59 3.07 4 3.62 6.45.26 1.12.4 2.3.2 3.42a8.47 8.47 0 0 1-2.04 3.86c-3.87 4.54-9.9 6.8-15.84 7.28-1.07.09-2.18.12-3.18.53-.7.28-1.3.72-1.91 1.16l-4.18 3.03" fill="#bbb"/> <path fill="#eee" d="M16.02 26.77l-1.48 3.18-.15.89 1.15-.12 2.94-1.91-.12-1.03-.93.15-.24-.08-.01-.91z"/> <path class="green" fill="#bbb" d="M16.02 26.77l1.16.17.11.92 1.07-.08.11.79 5.12-5.52 3.28-3.24 4.63-4.77-.67-1.01-.76-.63-2.53 2.12-.1.25-3.85 3.59z"/> <path class="st4" d="M8.25 18.67c1.74-2.16 5.64-3.83 7.2-6.38l-7.2 6.38zm2.23 5.18c3.67-3.7 8.57-5.6 12.64-8.97l-12.64 8.97zm12.17 5.05a2.97 2.97 0 0 0 1.5-.69c2.65-1.95 4.67-4.72 7.57-6.26l-9.07 6.95zm7.52-1.04a13.73 13.73 0 0 0 4.22-4.27l-4.22 4.27z"/> <path d="M31.39 14.64l.14.22c.1.17.1.24-.04.38l-1.12 1.14-.8.83-1.31 1.44-.28.27-1.44 1.42c-.51.5-1.04.98-1.56 1.48l-.7.74c-.57.57-1.15 1.13-1.7 1.7-.19.18-.35.38-.52.57l-.25.28-1.31 1.43-.71.8-.32.34c-.23.26-.4.57-.67.8-.05.05-.08.12-.13.18l-.15.14-.04.01c-.2.27-.53.4-.79.6a20.83 20.83 0 0 1-2.26 1.43c-.45.24-.92.45-1.38.67-.07.03-.13.05-.18-.02-.05-.06-.05-.13 0-.2l.15-.27c.14-.21.21-.45.25-.7.02-.1.04-.2.11-.29.05-.05.07-.13.09-.2.15-.52.36-1.02.63-1.5.18-.33.33-.67.51-1l.32-.5c.02-.03.06-.04.1-.06.02-.02.07-.03.09-.06.16-.2.36-.37.56-.53.2-.16.37-.36.55-.54l.6-.63.86-.95c.23-.26.47-.53.72-.78.35-.34.72-.67 1.07-1.02l.9-.92.94-.94 1.16-1.1c.23-.21.47-.4.7-.62l1.1-1 .52-.48.7-.7.45-.46c.12-.12.21-.27.33-.4.15-.16.3-.32.48-.46.22-.19.47-.36.7-.55.1-.08.19-.19.29-.29l.43-.43a2.55 2.55 0 0 1 .7-.53c.07-.05.3-.1.39-.11.1-.02.2-.04.27-.1.22-.19.48-.33.66-.56.02-.03.06-.05.1-.06.13-.07.07.09.13-.07.01-.02.27-.17.3-.18.22-.1-.16.42-.05.2.02-.04.08.24.12.22l-.4.25c.09-.05.24-.72.33-.67.17.1.35.18.5.3.18.15.34.33.5.5.1.11.08.23.02.36-.11.2-.28.36-.47.5-.38.3.57-.38.16-.12-.37.22-.7.5-1.05.8zm-.92-.81l-.2.18-.1.08-.88.92c-.2.22-.39.47-.6.68l-1.67 1.55-.95.86c-.16.14-.33.27-.48.43-.34.36-.68.73-1.07 1.05-.23.2-.47.39-.68.6-.53.5-1.04 1.03-1.56 1.54l-.96.9c-.26.25-.5.52-.77.77l-1.22 1.22c-.22.22-.4.45-.62.66a17.72 17.72 0 0 0-1.41 1.52c.05.21-.03.42 0 .63 0 .09.01.18.04.27 0 .04.07.1.1.09l.67-.06c.03 0 .07-.02.08-.05.04-.16.19-.25.28-.37l.74-1c.3-.41.63-.8.97-1.16l1-1.06 1.42-1.43.9-.92.6-.65c.27-.29.52-.6.8-.88l1.52-1.6.74-.78.6-.57c.28-.29.58-.55.85-.85.4-.45.82-.89 1.24-1.33.23-.24.49-.47.73-.7l.22-.25-.33-.3zm.44.47l-.14.14-.56.57-.83.82c-.3.31-.57.64-.87.95l-.9.9c-.31.3-.61.62-.91.93l-1.6 1.7c-.48.5-.95 1.04-1.44 1.55-.57.6-1.17 1.17-1.75 1.76-.37.37-.72.76-1.1 1.13a19.7 19.7 0 0 0-2.25 2.8c-.05.06-.1.16-.09.24.02.18.07.35.1.52l.08.07c.1-.12.21-.22.3-.34l.95-1.14c.1-.13.24-.24.36-.36l.98-1.06.45-.49c.13-.14.24-.3.37-.43.26-.3.52-.59.8-.88l.64-.64.75-.72c.36-.37.72-.75 1.09-1.11l.75-.72 1.26-1.25.98-.97.22-.25.55-.56.6-.63.56-.63.45-.46.55-.6c.1-.1.08-.19 0-.3-.04-.04-.08-.08-.1-.12l-.25-.42zM16.45 26.73c0 .01 0 .03.02.04l.42.03c.05 0 .1-.04.13-.07.11-.1.22-.2.32-.32l.25-.25.64-.7c.16-.15.33-.3.48-.46.25-.25.5-.51.73-.77l.22-.25.6-.58c.23-.2.41-.45.65-.65.27-.23.53-.5.78-.74l1.3-1.27.88-.85c.26-.23.53-.45.78-.69.26-.24.5-.5.75-.76l.24-.23c.41-.37.85-.7 1.23-1.1l.37-.36 1.13-1.02c.27-.25.5-.53.74-.82.25-.3.54-.59.81-.88.12-.13.26-.24.38-.36-.15-.18-.2-.2-.4-.09-.08.05-.17.1-.24.16l-.83.79-.35.34-.97.8-.07.1c0 .1-.08.16-.14.23l-1.1 1.05c-.38.36-.74.74-1.13 1.1-.49.46-1 .89-1.5 1.35l-1.92 1.87a232.82 232.82 0 0 0-2.4 2.39l-.61.64c-.12.12-.25.23-.36.36-.25.28-.47.58-.77.81-.03.02-.05.06-.08.1l-.25.3-.52.54-.21.22zm-.37.23c-.13.2-.3.43-.42.67-.23.44-.44.88-.63 1.32-.14.3-.25.6-.37.91-.1.23-.1.42.13.58.13.08.2.22.36.28.09-.04.18-.07.26-.12.27-.16.56-.29.82-.47.4-.28.82-.52 1.23-.8.23-.14.45-.3.68-.46.1-.08.25-.12.17-.3v-.04c.1-.15.03-.3 0-.46-.03-.14-.08-.17-.22-.15l-.57.07-.28-.01c-.08-.01-.12-.07-.12-.15l-.02-.47-.03-.37-.99-.03z"/> <path d="M23.64 22.63c-.15-.06-.19-.11-.14-.18.03-.03.1-.06.13-.04.12.06.04.14 0 .22zm-3.23 3.45c-.04-.02-.1-.02-.13-.05-.05-.04-.07-.1-.01-.15.04-.04.09-.05.13 0 .05.05.09.1.01.2zm2.73-3c-.07.08-.13.06-.17.01-.02-.02-.01-.08-.02-.12h.18c.02 0 .01.09.01.11zm5.44-5.98c.16.09.16.09.12.24-.18-.03-.19-.04-.12-.23zm-4.35 4.54c.1 0 .18.02.17.14 0 .03-.04.07-.08.08-.07.02-.1-.06-.1-.22zm1.73-1.46l-.16-.01c-.06-.05-.07-.12-.02-.17.02-.02.1-.03.1-.01.04.04.05.1.08.2zm4.72-5.24c.08.02.17.03.15.15-.01.06-.06.07-.12.06-.08-.03-.09-.07-.03-.21zm-11.24 12.2c-.07-.01-.14 0-.15-.03-.03-.03-.03-.1 0-.13.04-.06.1-.04.14 0 .02.03 0 .09 0 .16zm8.47-9.21c.01-.08 0-.14.03-.16.02-.03.1-.02.13 0 .06.03.06.1.01.14-.03.03-.09.01-.17.02zm-5.66 5.77c.1-.05.17-.03.2.06 0 .02-.04.1-.06.1-.1 0-.15-.05-.14-.17zm7.91-7.93c-.1.03-.17.03-.2-.07 0-.07.03-.1.1-.1.1 0 .11.08.1.17zM18.93 27.6c-.08.01-.13.12-.21.03-.02-.02-.01-.1 0-.12.08-.04.15-.04.2.08zm6.3-7.1c.07-.03.14-.07.19.01.03.06 0 .12-.07.14-.1.02-.12-.05-.12-.15zm-.32.71c-.12 0-.17-.05-.16-.15.18-.07.2-.06.16.15zm4.17-4.5c0-.06-.03-.13-.01-.17.02-.05.09-.03.13.01.05.05.05.1 0 .15-.01.02-.06.01-.12.01zm-1.48 1.53l-.04.19-.1.01c0-.05-.02-.1 0-.15 0-.02.06-.03.14-.05zm-5.67 6.15c-.08-.04-.14-.05-.16-.08-.02-.02-.02-.09 0-.12.05-.05.1-.04.14.02.02.03.01.09.02.18zm4.56-4.74c-.08-.02-.13-.02-.16-.04-.05-.04-.06-.1-.01-.15.02-.02.1-.02.11 0 .03.04.04.1.06.2zm.56-.63h-.15c-.02-.04-.02-.1-.03-.14.04 0 .1-.02.12 0 .03.02.03.07.06.14zm2.7-2.86c-.1.02-.17 0-.17-.1 0-.03.06-.07.09-.07.1.01.08.09.08.17zm-9.88 10.37c0 .06 0 .11-.02.15 0 .01-.07.02-.1 0-.05-.02-.05-.12-.01-.14.03-.02.07 0 .13 0zm1.36-1.45a10.5 10.5 0 0 1-.11-.14c.08-.08.14-.05.19 0 .02.03-.02.09-.03.13h-.05zm-.47.49l-.12-.08.03-.06c.04 0 .1-.02.12 0 .02.03.01.08.02.12l-.05.02z"/> <path class="st4" d="M37.99 19.58c-.11-1.48-.5-2.9-1.06-4.3a10.57 10.57 0 0 0-2.51-3.73 9.78 9.78 0 0 0-3.97-2.16 19.11 19.11 0 0 0-4.43-.7 34.7 34.7 0 0 0-4.44.06c-2.92.25-5.8.75-8.4 1.83-2.6 1.05-4.87 2.92-5.85 5.36-1 2.4-.95 4.98-.39 7.14.58 2.17 1.6 3.99 2.63 5.47.52.74 1.05 1.42 1.2 2.18a5.3 5.3 0 0 1-.06 2.11c-.27 1.27-.52 2.27-.48 2.98a3.32 3.32 0 0 0 .16 1.06l.06-.02-.07-.26a3.27 3.27 0 0 1-.08-.78c-.03-.7.23-1.69.5-2.95.13-.64.25-1.38.1-2.16-.15-.8-.7-1.51-1.2-2.24-1.01-1.49-2-3.3-2.55-5.45-.53-2.13-.55-4.64.45-6.96a8.63 8.63 0 0 1 2.26-3.08 12 12 0 0 1 3.45-2.07 27.84 27.84 0 0 1 8.3-1.74c1.45-.1 2.92-.1 4.38-.01 1.47.08 2.93.28 4.32.7a9.25 9.25 0 0 1 3.75 2.1 9.97 9.97 0 0 1 2.33 3.55c.53 1.32.88 2.74.99 4.1.11 1.4-.3 2.71-1.04 3.84a17.63 17.63 0 0 1-5.76 5.28A23.9 23.9 0 0 1 24 31.36c-1.07.26-2.11.43-3.11.57-1 .13-1.96.16-2.87.3-.91.14-1.75.48-2.4.93-.66.44-1.22.9-1.74 1.28l-3.26 2.46.04.05L14 34.6c1.09-.69 2.28-1.85 4.07-2.04.88-.12 1.85-.14 2.87-.25a30.5 30.5 0 0 0 3.17-.53 24.44 24.44 0 0 0 6.77-2.55 17.5 17.5 0 0 0 5.98-5.46 6.78 6.78 0 0 0 1.13-4.2z"/> </svg>