<svg version="1.1" id="Ebene_1" xmlns="http://www.w3.org/2000/svg" x="0" y="0" viewBox="-375 253.3 90 90" xml:space="preserve"><style>.st0{fill:#fff}</style><path class="st0" d="M-291.9 312.9c-.7-.9-1.3-.3-2.2 1.1-.7 1.2-1.6 4.9-3.2 4.8-.7-1.1 4.2-9.7 1.9-11-1.7-1-2.1 2.4-2.4 3.3a24 24 0 01-2.3 6c-.1-3 .4-6 .7-8.9.1-.9.2-3-1.1-3.1-2.9-.3-1.1 9.8-3.2 10.7-1-1.7-.8-5.5-1-7.4-.1-.8.1-3.3-1.8-2.6-1.5.6-1.2 5.7-1 7.3.2 1.7 0 2.8.2 4.8-.1 1.3-.1 2.7-1.1 3.5-1.5-.2-4.3-5.1-6.2-4-1.3.7-.9 1.8-.2 2.5 5.2 4.7 3.6 9.2 6.3 10.2-.8 4.8-.5 5-1.7 9.7h9.1l.1-1.8.7-6.2.1-.2c1.9-.2 2.9-3.3 3.9-5.3 1-2.2.6-4.4 1.8-6.5.9-1.6 3.8-5.5 2.6-6.9zM-346.9 318.7c-2-.8-4 4.3-5.5 4.7-1.1-.7-1.3-2.1-1.5-3.3-.1-1.9-.4-3-.5-4.7-.1-1.6-.5-6.6-1.9-7-1.9-.5-1.5 1.9-1.4 2.7.1 1.9.8 5.6 0 7.3-2.1-.6-1.8-10.6-4.5-9.9-1.2.2-.8 2.2-.6 3.1.7 2.8 1.7 5.6 1.9 8.5a22.6 22.6 0 01-3-5.5c-.4-.9-1.2-4.1-2.8-2.9-2.1 1.6 3.8 9.3 3.3 10.4-1.6.3-2.9-3.2-3.8-4.2-1.1-1.3-1.7-1.7-2.3-.8-1 1.6 2.4 4.9 3.4 6.3 1.4 1.9 1.3 4 2.6 6 1.2 1.8 2.6 4.7 4.5 4.6l.1.2 1.4 5.4h8.9c-1.4-3.4-1.3-4-2.6-8.1 2.5-1.3.3-5.5 4.7-10.7.7-.5 1-1.7-.4-2.1zM-313 303c-3-2.2-8.8 5.4-11.5 5.4-1.5-1.6-1.2-4.1-1-6.3.8-3.3.7-5.3 1.4-8.1.7-2.7 2.3-11.4 0-12.7-3.1-1.7-3.4 2.6-3.7 4-.8 3.3-1.2 9.8-3.4 12.4-3.3-2 1.9-18.7-3-18.9-2.1-.2-2.4 3.4-2.5 5-.1 5.1.2 10.3-.8 15.3a47.7 47.7 0 01-2.5-10.7c-.3-1.7-.2-7.4-3.3-6.2-4.3 1.7 2.1 17.5.7 19.2-2.8-.2-3.4-6.7-4.4-8.9-1.2-2.7-2.1-3.7-3.5-2.4-2.4 2.2 1.7 9.4 2.7 12.3 1.6 3.8.3 7.4 1.6 11.4 1.1 3.6 2.2 9.1 5.4 9.9l.1.4-.1 10.8-.3 5h15.7c-1-8.1-.5-8.5-.8-16.7 4.8-1.1 3-9.1 12.9-15.9 1.4-.9 2.3-2.9.3-4.3z"/></svg>