<svg xmlns="http://www.w3.org/2000/svg" viewBox="0 0 100 100"><style>.st0{fill:#fff}</style><path d="M-566.6-294.5a11 11 0 00-21.7-2.1 11 11 0 00-13.1-8.4 11 11 0 00-8.6 11.7c1.2 12.6 21.5 24.2 21.5 24.2s20.7-11.6 21.9-24.2v-1.2zm-22.1-39h1.5v14.5h-1.5v-14.5zm0 74.5h1.5v14.5h-1.5V-259zm30.7-30.7h14.5v1.5H-558v-1.5zm-74.5 0h14.5v1.5h-14.5v-1.5zm66.2-20l-1-1 10.1-10.3 1 1-10.1 10.3zm-43.4 41.3l1 1-10.1 10.4-1-1 10.1-10.4zm0-41.2L-620-320l1-1 10.3 10.2-1 1.2zm43.3 41.2L-556-258l-1 1-10.3-10.2.9-1.2z"/><path d="M71.4 44.5a11 11 0 00-21.7-2.1A11 11 0 0036.6 34 11 11 0 0028 45.7c1.2 12.6 21.5 24.2 21.5 24.2s20.7-11.6 21.9-24.2v-1.2zm-22.1-39h1.5V20h-1.5V5.5zm0 74.5h1.5v14.5h-1.5V80zM80 49.3h14.5v1.5H80v-1.5zm-74.5 0H20v1.5H5.5v-1.5zm66.2-20l-1-1L80.8 18l1 1-10.1 10.3zM28.3 70.6l1 1L19.2 82l-1-1 10.1-10.4zm0-41.2L18 19l1-1 10.3 10.2-1 1.2zm43.3 41.2L82 81l-1 1-10.3-10.2.9-1.2z" class="st0"/></svg>