<svg viewBox="0 0 90 60" fill="none" xmlns="http://www.w3.org/2000/svg">
<rect width="90" height="60" rx="4.2" fill="#FFF5E9"/>
<rect x="12.75" y="5.56641" width="64.3923" height="3.95769" fill="black" fill-opacity="0.08"/>
<rect width="64.5" height="31.95" transform="translate(12.75 14.0234)" fill="#FFDDB2"/>
<path d="M52.1075 25.9995L52.8975 24.2495L54.6475 23.4595C55.0375 23.2795 55.0375 22.7295 54.6475 22.5495L52.8975 21.7595L52.1075 19.9995C51.9275 19.6095 51.3775 19.6095 51.1975 19.9995L50.4075 21.7495L48.6475 22.5395C48.2575 22.7195 48.2575 23.2695 48.6475 23.4495L50.3975 24.2395L51.1875 25.9995C51.3675 26.3895 51.9275 26.3895 52.1075 25.9995ZM44.1475 27.4995L42.5575 23.9995C42.2075 23.2195 41.0875 23.2195 40.7375 23.9995L39.1475 27.4995L35.6475 29.0895C34.8675 29.4495 34.8675 30.5595 35.6475 30.9095L39.1475 32.4995L40.7375 35.9995C41.0975 36.7795 42.2075 36.7795 42.5575 35.9995L44.1475 32.4995L47.6475 30.9095C48.4275 30.5495 48.4275 29.4395 47.6475 29.0895L44.1475 27.4995ZM51.1875 33.9995L50.3975 35.7495L48.6475 36.5395C48.2575 36.7195 48.2575 37.2695 48.6475 37.4495L50.3975 38.2395L51.1875 39.9995C51.3675 40.3895 51.9175 40.3895 52.0975 39.9995L52.8875 38.2495L54.6475 37.4595C55.0375 37.2795 55.0375 36.7295 54.6475 36.5495L52.8975 35.7595L52.1075 33.9995C51.9275 33.6095 51.3675 33.6095 51.1875 33.9995Z" fill="url(#paint0_linear_11114_34625)"/>
<rect x="12.75" y="50.4727" width="64.3923" height="3.95769" fill="black" fill-opacity="0.08"/>
<defs>
<linearGradient id="paint0_linear_11114_34625" x1="35" y1="30" x2="58.5" y2="30" gradientUnits="userSpaceOnUse">
<stop stop-color="#D4B3FF"/>
<stop offset="1" stop-color="#9747FF"/>
</linearGradient>
</defs>
</svg>
