<svg viewBox="0 0 90 60" fill="none" xmlns="http://www.w3.org/2000/svg"
  preserveAspectRatio="xMidYMid meet">
  <g clip-path="url(#clip0_10649_33094)">
    <rect width="90" height="60" fill="#FFEFDA" />
    <path
      d="M22.5 30.0121V20.1738H28.5997V28.6349H35.1914V20.1738H40.1144L40.0615 20.3952C39.9589 20.8252 38.1582 28.7964 37.9391 29.7907C37.8169 30.3454 37.7408 30.8231 37.77 30.8524C37.7992 30.8816 39.0039 31.0683 40.447 31.2672L43.0709 31.629L43.471 31.1609C44.6007 29.8393 46.5207 29.8168 47.6294 31.1122C49.0826 32.8098 47.8207 35.4606 45.564 35.4505C44.7633 35.4469 44.1222 35.1523 43.5202 34.5111L43.0437 34.0036L40.4232 34.375C38.982 34.5792 37.7807 34.7684 37.7538 34.7953C37.6511 34.898 38.1784 36.1915 38.6019 36.8757C39.38 38.1329 40.3178 38.9319 41.6897 39.5066C42.0387 39.6528 42.3426 39.7899 42.3651 39.8112C42.3877 39.8326 40.7828 39.8501 38.7987 39.8501H35.1914V32.5697H28.5997V39.8501H22.5L22.5 30.0121Z"
      fill="#FFBE5D" stroke="#FFBE5D" stroke-width="1.21655" />
    <path
      d="M49.5097 39.7646C49.5611 39.7171 49.8291 39.605 50.1054 39.5155C52.4599 38.7521 54.2734 35.8371 54.2755 32.8125C54.2767 31.066 53.75 29.7079 52.6034 28.5009C51.8248 27.6812 50.997 27.1594 49.8981 26.7954C49.176 26.5563 48.9731 26.5341 47.4386 26.5274C45.8699 26.5205 45.7126 26.5371 44.9043 26.794C44.4303 26.9448 43.976 27.0936 43.8947 27.1247C43.7993 27.1614 43.7624 27.134 43.7904 27.0475C43.8143 26.9738 43.9735 26.3048 44.1443 25.5608L44.4548 24.2081H53.3906V20.1504L57.9901 20.1994C62.2779 20.2451 62.643 20.2626 63.3765 20.4575C65.4166 20.9995 66.6181 22.0912 67.2331 23.962C67.4602 24.6527 67.4928 24.9176 67.5 26.1264C67.5061 27.1546 67.4642 27.6659 67.3349 28.1432C66.7717 30.2218 65.2726 31.679 63.1304 32.23C62.3428 32.4326 60.4786 32.5607 58.2358 32.5663L56.5387 32.5706V39.8509H52.9772C50.9302 39.8509 49.4555 39.8142 49.5092 39.7646L49.5097 39.7646ZM60.0887 28.3776C60.7746 28.174 61.3902 27.5803 61.5567 26.9619C61.8693 25.8009 61.222 24.6267 60.0923 24.3055C59.8965 24.2499 59.017 24.1761 58.1377 24.1415L56.5389 24.0787V28.6657L58.048 28.6006C58.9599 28.5613 59.7675 28.4731 60.0887 28.3777L60.0887 28.3776Z"
      fill="#FFBE5D" stroke="#FFBE5D" stroke-width="1.21655" />
  </g>
  <defs>
    <clipPath id="clip0_10649_33094">
      <rect width="90" height="60" rx="4" fill="white" />
    </clipPath>
  </defs>
</svg>