<svg viewBox="0 0 90 60" fill="none" xmlns="http://www.w3.org/2000/svg">
<g clip-path="url(#clip0_11269_34883)">
<rect width="90" height="60" rx="4" fill="#FFEFDA"/>
<rect width="90" height="60" fill="#FFEFDA"/>
<path d="M32.0833 10.5H23.9167C23.275 10.5 22.75 11.025 22.75 11.6667V19.8333C22.75 20.475 23.275 21 23.9167 21H32.0833C32.725 21 33.25 20.475 33.25 19.8333V11.6667C33.25 11.025 32.725 10.5 32.0833 10.5ZM27.2475 18.2525C27.02 18.48 26.6525 18.48 26.425 18.2525L24.3308 16.1583C24.1033 15.9308 24.1033 15.5633 24.3308 15.3358C24.5583 15.1083 24.9258 15.1083 25.1533 15.3358L26.8333 17.0158L30.8467 13.0025C31.0742 12.775 31.4417 12.775 31.6692 13.0025C31.8967 13.23 31.8967 13.5975 31.6692 13.825L27.2475 18.2525Z" fill="#FFBE5D"/>
<rect x="37.25" y="16.5" width="20" height="2" fill="#FFBE5D"/>
<rect x="37.25" y="13" width="30" height="2" fill="#FFBE5D"/>
<rect x="23.25" y="25.5" width="9" height="9" rx="1.5" stroke="#FFBE5D"/>
<rect x="36.75" y="30.75" width="20" height="2" fill="#FFBE5D"/>
<rect x="36.75" y="27.25" width="30" height="2" fill="#FFBE5D"/>
<path d="M32.0833 39H23.9167C23.275 39 22.75 39.525 22.75 40.1667V48.3333C22.75 48.975 23.275 49.5 23.9167 49.5H32.0833C32.725 49.5 33.25 48.975 33.25 48.3333V40.1667C33.25 39.525 32.725 39 32.0833 39ZM27.2475 46.7525C27.02 46.98 26.6525 46.98 26.425 46.7525L24.3308 44.6583C24.1033 44.4308 24.1033 44.0633 24.3308 43.8358C24.5583 43.6083 24.9258 43.6083 25.1533 43.8358L26.8333 45.5158L30.8467 41.5025C31.0742 41.275 31.4417 41.275 31.6692 41.5025C31.8967 41.73 31.8967 42.0975 31.6692 42.325L27.2475 46.7525Z" fill="#FFBE5D"/>
<rect x="37.25" y="45" width="20" height="2" fill="#FFBE5D"/>
<rect x="37.25" y="41.5" width="30" height="2" fill="#FFBE5D"/>
</g>
<defs>
<clipPath id="clip0_11269_34883">
<rect width="90" height="60" rx="4" fill="white"/>
</clipPath>
</defs>
</svg>
