<svg viewBox="0 0 108 60" fill="none" xmlns="http://www.w3.org/2000/svg" width="108" height="60">
  <g clip-path="url(#clip0_10177_31860)">
    <path width="180" height="100" fill="#FFEFDA" d="M0 0h108v60H0z" />
    <path x="15" y="14" width="150" height="72" rx="2" fill="#FFD59D"
      d="M10.2 8.4h87.6a1.2 1.2 0 0 1 1.2 1.2v40.8a1.2 1.2 0 0 1 -1.2 1.2h-87.6a1.2 1.2 0 0 1 -1.2 -1.2V9.6a1.2 1.2 0 0 1 1.2 -1.2" />
    <path d="M49.714 28.372 45.6 34.2h17.143l-5.485 -7.2 -4.115 5.828z" fill="#575350"
      stroke="#575350" stroke-linejoin="round" stroke-width="0.6" />
    <path x="30.175" y="30.175" width="40.65" height="14.65" rx="0.825" stroke="#57534F"
      stroke-width="0.21" stroke-dasharray="2 2"
      d="M18.6 18.106H42a0.492 0.492 0 0 1 0.496 0.494V26.4a0.492 0.492 0 0 1 -0.496 0.496H18.6a0.492 0.492 0 0 1 -0.494 -0.496v-7.8a0.492 0.492 0 0 1 0.494 -0.494z" />
    <path
      d="M87.9 53.7 87.6 54l0.3 0.9 0.9 0.9 1.5 0.9 2.4 0.9 1.2 0.6v0.6l0.9 0.9 0.9 -0.3L97.2 57.9l1.2 -0.9 0.3 -0.9 -0.6 -0.6 -0.6 -0.3 -0.3 -0.3 -0.6 -2.4 -1.2 -2.1 -1.2 -1.8h-0.9l-0.6 0.6 -0.9 -0.3 -0.9 0.6 -0.6 -0.3 -0.6 0.6h-0.3l-0.6 -0.9 -0.6 -0.6H87.6l-0.3 0.6 0.3 1.2 1.2 1.2 0.9 1.5 0.6 0.9 0.3 0.9 -0.6 -0.3 -0.6 -0.3 -0.9 -0.3z"
      fill="#FFEFDA" />
    <path
      d="m63.581 43.762 0.58 -0.58 0.581 -0.29h26.129l0.871 0.58 0.581 0.871v4.645h-0.581l-0.581 0.581 -0.871 -0.29 -0.871 0.871 -0.581 -1.452 -0.871 -0.581 -0.581 0.29 -0.29 0.871 2.614 3.774 0.871 1.452 -0.29 -0.29h-0.871l-0.581 -0.581h-0.871l-0.29 0.29v1.162H64.159l-0.58 -0.581 -0.29 -0.289v-9.293z"
      fill="#FFEFDA" />
    <path
      d="M86.455 54.793c0.137 0 0.234 0.121 0.234 0.242s-0.097 0.242 -0.214 0.242h-1.321c-0.137 0 -0.234 -0.121 -0.234 -0.242s0.097 -0.242 0.214 -0.242h1.322m2.314 -6.389 0.875 1.29a0.78 0.78 0 0 1 0.349 -0.443 1.068 1.068 0 0 1 1.166 0 0.888 0.888 0 0 1 0.331 -0.463c0.37 -0.262 0.972 -0.181 1.283 0.101a0.924 0.924 0 0 1 0.331 -0.444c0.409 -0.282 1.088 -0.161 1.361 0.203v0.02l0.118 0.121a12.84 12.84 0 0 1 1.42 1.975l0.078 0.14 0.116 0.222 0.118 0.221 0.097 0.202c0.467 0.887 0.68 1.512 0.972 2.7q0.088 0.424 0.234 0.786a0.84 0.84 0 0 1 0.757 0.262l0.02 0.041 0.427 0.545a0.872 0.872 0 0 1 -0.097 1.169l-0.04 0.02 -3.306 2.761a0.799 0.799 0 0 1 -1.128 -0.101l-0.019 -0.041 -0.427 -0.545a0.828 0.828 0 0 1 -0.137 -0.806h-0.04a2.64 2.64 0 0 0 -0.739 -0.262l-0.097 -0.02h-0.02c-2.236 -0.605 -5.19 -2.56 -5.464 -3.487 -0.252 -0.827 0.35 -1.29 1.05 -1.189 0.214 0.041 0.739 0.221 1.555 0.604l0.272 0.121 -0.04 -0.041c-0.311 -0.485 -0.602 -0.887 -0.856 -1.29l-0.505 -0.766 -0.661 -0.967a54 54 0 0 1 -0.972 -1.452c-0.331 -0.504 -0.234 -1.189 0.214 -1.512 0.446 -0.302 1.069 -0.161 1.4 0.323m8.786 7.135 -0.019 0.02 -3.325 2.782c-0.137 0.121 -0.174 0.323 -0.059 0.464l0.019 0.02 0.427 0.545c0.118 0.14 0.312 0.181 0.448 0.06l0.019 -0.02 3.325 -2.78c0.137 -0.121 0.174 -0.323 0.059 -0.464l-0.02 -0.02 -0.408 -0.544c-0.116 -0.142 -0.311 -0.162 -0.467 -0.061m-9.914 -7.034c-0.234 0.162 -0.272 0.524 -0.097 0.806l0.953 1.391 0.545 0.827c0.137 0.202 0.252 0.383 0.37 0.564l0.174 0.262c0.448 0.685 0.972 1.411 1.555 2.197 0.156 0.202 -0.059 0.484 -0.292 0.383l-0.564 -0.262 -0.37 -0.161c-0.894 -0.403 -1.438 -0.605 -1.614 -0.644 -0.389 -0.061 -0.622 0.14 -0.505 0.545 0.214 0.706 2.975 2.539 5.056 3.144l0.059 0.02 0.078 0.02c0.292 0.06 0.545 0.162 0.797 0.282l0.078 0.041c0.019 0.02 0.059 0.041 0.078 0.06l3.246 -2.72a9.6 9.6 0 0 1 -0.272 -0.887l-0.059 -0.242c-0.312 -1.229 -0.545 -1.794 -1.205 -2.942a12 12 0 0 0 -1.439 -2.035l-0.116 -0.202 -0.02 -0.02c-0.097 -0.14 -0.505 -0.222 -0.7 -0.082 -0.194 0.121 -0.252 0.485 -0.156 0.665l0.019 0.02 0.486 0.726a0.258 0.258 0 0 1 -0.059 0.342 0.24 0.24 0 0 1 -0.331 -0.04l-0.019 -0.02 -0.312 -0.484 -0.04 -0.02 -0.505 -0.766c-0.097 -0.14 -0.505 -0.222 -0.72 -0.082 -0.174 0.121 -0.234 0.485 -0.137 0.644l0.02 0.02 0.778 1.189 0.116 0.162a0.258 0.258 0 0 1 -0.059 0.342 0.24 0.24 0 0 1 -0.331 -0.041l-0.019 -0.02 -1.166 -1.794c-0.097 -0.14 -0.486 -0.202 -0.701 -0.041 -0.194 0.14 -0.252 0.464 -0.156 0.624l0.019 0.02 1.283 1.975v0.02l0.019 0.02v0.162l-0.019 0.02 -0.02 0.02 -0.019 0.02v0.041l-0.019 0.02 -0.02 0.02s-0.019 0.02 -0.04 0.02h-0.156c-0.019 0 -0.019 0 -0.04 -0.02l-0.038 -0.02 -0.02 -0.02v0.02l-0.019 -0.02 -0.02 -0.02 -0.019 -0.02 -2.567 -3.81c-0.194 -0.282 -0.545 -0.383 -0.758 -0.221m3.047 -5.905c0.972 0 1.769 0.806 1.788 1.814v2.902a0.24 0.24 0 0 1 -0.234 0.242c-0.116 0 -0.234 -0.101 -0.234 -0.221v-2.884c0 -0.726 -0.563 -1.331 -1.264 -1.35h-0.04l-25.885 0.08c-0.7 0 -1.283 0.584 -1.302 1.309v9.01c0 0.726 0.564 1.331 1.265 1.35h0.038l19.489 -0.08c0.137 0 0.234 0.121 0.234 0.242s-0.097 0.242 -0.214 0.242h-0.02l-19.508 0.08c-0.972 0 -1.769 -0.805 -1.788 -1.814v-8.989c0 -1.008 0.778 -1.834 1.75 -1.854h0.059z"
      fill="#57534F" />
  </g>
  <defs>
    <clipPath id="clip0_10177_31860">
      <path width="180" height="100" fill="white" d="M0 0h108v60H0z" />
    </clipPath>
  </defs>
</svg>