<svg width="136" height="90" viewBox="0 0 136 90" fill="none" xmlns="http://www.w3.org/2000/svg">
<g clip-path="url(#clip0_10837_45923)">
<rect width="135" height="90" transform="translate(0.5)" fill="#FFEFDA"/>
<path d="M61.3359 56.48V53.28C61.3359 50.96 61.6026 49.0533 62.1359 47.56C62.6959 46.0667 63.5493 44.8133 64.6959 43.8C65.8693 42.76 67.4159 41.76 69.3359 40.8C71.0159 39.9467 72.3226 39.16 73.2559 38.44C74.1893 37.6933 74.8293 36.9333 75.1759 36.16C75.5493 35.3867 75.7359 34.48 75.7359 33.44C75.7359 31.76 75.0559 30.3733 73.6959 29.28C72.3359 28.16 70.4826 27.6 68.1359 27.6C65.3359 27.6 63.1759 28.2267 61.6559 29.48C60.1626 30.7067 59.3093 32.3467 59.0959 34.4H49.2559C49.5493 29.76 51.2559 26.04 54.3759 23.24C57.5226 20.44 61.9759 19.04 67.7359 19.04C71.5226 19.04 74.7893 19.68 77.5359 20.96C80.2826 22.24 82.4026 23.9733 83.8959 26.16C85.3893 28.3467 86.1359 30.8 86.1359 33.52C86.1359 36.2933 85.4293 38.64 84.0159 40.56C82.6293 42.48 80.4559 44.1867 77.4959 45.68C75.7626 46.56 74.4026 47.3867 73.4159 48.16C72.4559 48.9333 71.7759 49.7867 71.3759 50.72C70.9759 51.6267 70.7759 52.7733 70.7759 54.16V56.48H61.3359ZM66.2959 73.12C64.3493 73.12 62.7626 72.52 61.5359 71.32C60.3359 70.12 59.7359 68.6533 59.7359 66.92C59.7359 65.1067 60.3359 63.6 61.5359 62.4C62.7626 61.1733 64.3359 60.56 66.2559 60.56C68.2026 60.56 69.8159 61.1733 71.0959 62.4C72.3759 63.6 73.0159 65.0933 73.0159 66.88C73.0159 68.64 72.3759 70.12 71.0959 71.32C69.8159 72.52 68.2159 73.12 66.2959 73.12Z" fill="#FFBE5D"/>
</g>
<defs>
<clipPath id="clip0_10837_45923">
<rect x="0.5" width="135" height="90" rx="6" fill="white"/>
</clipPath>
</defs>
</svg>
