<svg width="90" height="60" viewBox="0 0 90 60" fill="none" xmlns="http://www.w3.org/2000/svg">
<rect width="90" height="60" rx="4.2" fill="#FFF5E9"/>
<rect x="12.75" y="5.56641" width="64.3923" height="3.95769" fill="black" fill-opacity="0.08"/>
<rect width="64.5" height="31.95" transform="translate(12.75 14.0234)" fill="#FFDDB2"/>
<path d="M52.5025 25.5L53.4425 23.44L55.5025 22.5L53.4425 21.56L52.5025 19.5L51.5625 21.56L49.5025 22.5L51.5625 23.44L52.5025 25.5Z" fill="#57534F"/>
<path d="M41.0025 25.5L41.9425 23.44L44.0025 22.5L41.9425 21.56L41.0025 19.5L40.0625 21.56L38.0025 22.5L40.0625 23.44L41.0025 25.5Z" fill="#57534F"/>
<path d="M52.5025 31L51.5625 33.06L49.5025 34L51.5625 34.94L52.5025 37L53.4425 34.94L55.5025 34L53.4425 33.06L52.5025 31Z" fill="#57534F"/>
<path d="M50.2125 27.62L47.3825 24.79C47.1825 24.6 46.9325 24.5 46.6725 24.5C46.4125 24.5 46.1625 24.6 45.9625 24.79L34.7925 35.96C34.4025 36.35 34.4025 36.98 34.7925 37.37L37.6225 40.2C37.8225 40.4 38.0725 40.5 38.3325 40.5C38.5925 40.5 38.8425 40.4 39.0425 40.21L50.2125 29.04C50.6025 28.65 50.6025 28.01 50.2125 27.62ZM46.6725 26.92L48.0825 28.33L46.9125 29.5L45.5025 28.09L46.6725 26.92ZM38.3325 38.09L36.9225 36.68L44.0925 29.5L45.5025 30.91L38.3325 38.09Z" fill="#57534F"/>
<rect x="12.75" y="50.4727" width="64.3923" height="3.95769" fill="black" fill-opacity="0.08"/>
</svg>
