<svg width="100%" height="100%" viewBox="0 0 90 60" fill="none" xmlns="http://www.w3.org/2000/svg">
<rect width="90" height="60" rx="4" fill="#FFEFDA"/>
<rect width="90" height="50" transform="translate(0 5)" fill="#FFEFDA"/>
<rect x="22.5" y="21" width="9" height="3" fill="#FFBE5D"/>
<rect x="32.65" y="21.15" width="9.7" height="2.7" rx="0.35" stroke="#57534F" stroke-width="0.3" stroke-dasharray="1 1"/>
<rect x="43.5" y="21" width="24" height="3" fill="#FFBE5D"/>
<rect x="22.5" y="26" width="45" height="3" fill="#FFBE5D"/>
<rect x="22.5" y="31" width="24" height="3" fill="#FFBE5D"/>
<rect x="47.65" y="31.15" width="9.7" height="2.7" rx="0.35" stroke="#57534F" stroke-width="0.3" stroke-dasharray="1 1"/>
<rect x="58.5" y="31" width="9" height="3" fill="#FFBE5D"/>
<rect x="22.5" y="36" width="13" height="3" fill="#FFBE5D"/>
<rect x="36.65" y="36.15" width="9.7" height="2.7" rx="0.35" stroke="#57534F" stroke-width="0.3" stroke-dasharray="1 1"/>
<path d="M48.4841 36.468L48.968 35.9841L49.4519 35.7422H51.1454H68.5648H71.2261L71.9519 36.2261L72.4357 36.9519V39.3712V40.8228H71.9519L71.468 41.3067L70.7422 41.0648L70.0164 41.7906L69.5325 40.5809L68.8067 40.097L68.3228 40.339L68.0809 41.0648L70.2583 44.2099L70.9841 45.4196L70.7422 45.1777H70.0164L69.5325 44.6938H68.8067L68.5648 44.9357V45.4196V45.9035H55.0164H51.8712H49.6938H48.968L48.4841 45.4196L48.2422 45.1777V43.968V43.0003V41.7906V40.339V38.8873V37.4357L48.4841 36.468Z" fill="#FFEFDA"/>
<path d="M67.5459 45.6614C67.6593 45.6614 67.7403 45.7622 67.7403 45.863C67.7403 45.9638 67.6593 46.0645 67.5621 46.0645H67.5459H66.4604C66.347 46.0645 66.266 45.9638 66.266 45.863C66.266 45.7622 66.347 45.6614 66.4442 45.6614H66.4604H67.5459ZM69.4738 40.3372L70.2028 41.4121C70.2514 41.2609 70.3487 41.1266 70.4945 41.0426C70.7861 40.8411 71.2073 40.8578 71.4665 41.0426C71.5151 40.8914 71.6123 40.7403 71.742 40.6563C72.0498 40.438 72.552 40.5051 72.8112 40.7403C72.8598 40.5891 72.957 40.4715 73.0866 40.3708C73.4269 40.1356 73.9939 40.2364 74.2207 40.5387V40.5555L74.3179 40.6563C74.7878 41.1938 75.1766 41.748 75.5006 42.3023L75.5654 42.4199L75.6626 42.6046L75.7598 42.7894L75.8408 42.9573C76.2297 43.6963 76.4079 44.217 76.6509 45.208C76.6995 45.4431 76.7643 45.6614 76.8453 45.863C77.0721 45.8294 77.3151 45.8966 77.4771 46.0813L77.4933 46.1149L77.8498 46.5684C78.0766 46.8707 78.0442 47.2906 77.7688 47.5426L77.7364 47.5594L74.9822 49.8604C74.6906 50.0955 74.2855 50.0619 74.0425 49.7764L74.0263 49.7428L73.6699 49.2893C73.5079 49.0878 73.4755 48.8358 73.5565 48.6175H73.5403H73.5241C73.3459 48.5167 73.1352 48.4495 72.9084 48.3991L72.8274 48.3824H72.8112C70.9481 47.8785 68.4855 46.2493 68.2587 45.4767C68.0481 44.7881 68.5503 44.4018 69.1336 44.4857C69.3118 44.5193 69.7492 44.6705 70.4297 44.9896L70.6565 45.0904L70.6241 45.0568C70.3649 44.6537 70.1218 44.3178 69.9112 43.9819L69.49 43.3436L68.9392 42.5374C68.6961 42.1847 68.4207 41.7816 68.1291 41.3281C67.8537 40.9082 67.9347 40.3372 68.3073 40.0684C68.6799 39.8165 69.1984 39.9341 69.4738 40.3372ZM76.7967 46.2829L76.7805 46.2997L74.0101 48.6175C73.8967 48.7183 73.8643 48.8862 73.9615 49.0038L73.9777 49.0206L74.3341 49.4741C74.4313 49.5916 74.5933 49.6252 74.7068 49.5245L74.723 49.5077L77.4933 47.1899C77.6067 47.0891 77.6392 46.9211 77.5419 46.8036L77.5257 46.7868L77.1855 46.3333C77.0883 46.2157 76.9263 46.1989 76.7967 46.2829ZM68.5341 40.4212C68.3397 40.5555 68.3073 40.8578 68.4531 41.093L69.247 42.2519L69.7006 42.9405C69.814 43.1085 69.9112 43.2596 70.0084 43.4108L70.1542 43.6292C70.5269 44.2002 70.9643 44.8049 71.4503 45.4599C71.5799 45.6278 71.4017 45.863 71.2073 45.779L70.7375 45.5607L70.4297 45.4263C69.6844 45.0904 69.2308 44.9224 69.085 44.8888C68.7609 44.8384 68.5665 45.0064 68.6637 45.3423C68.8419 45.9302 71.1425 47.4586 72.876 47.9625L72.9246 47.9793L72.9894 47.9961C73.2325 48.0464 73.4431 48.1304 73.6537 48.2312L73.7185 48.2648C73.7347 48.2816 73.7671 48.2984 73.7833 48.3152L76.4889 46.0477C76.4079 45.8126 76.3269 45.5775 76.2621 45.3087L76.2135 45.1072C75.9542 44.0826 75.7598 43.6124 75.209 42.655C74.885 42.0839 74.4961 41.5129 74.0101 40.9586L73.9129 40.7907L73.8967 40.7739C73.8157 40.6563 73.4755 40.5891 73.3135 40.7067C73.1515 40.8075 73.1028 41.1098 73.1839 41.2609L73.2001 41.2777L73.6051 41.8824C73.6699 41.9832 73.6375 42.1007 73.5565 42.1679C73.4755 42.2351 73.3459 42.2183 73.2811 42.1343L73.2649 42.1175L73.0056 41.7144L72.9732 41.6976L72.552 41.0594C72.471 40.9418 72.1308 40.8746 71.9526 40.9922C71.8068 41.093 71.7582 41.3953 71.8392 41.5297L71.8554 41.5465L72.5034 42.5374L72.6006 42.6718C72.6654 42.7726 72.633 42.8901 72.552 42.9573C72.471 43.0245 72.3414 43.0077 72.2766 42.9237L72.2604 42.9069L71.2883 41.4121C71.2073 41.2945 70.8833 41.2442 70.7051 41.3785C70.5431 41.4961 70.4945 41.7648 70.5755 41.8992L70.5917 41.916L71.6609 43.562V43.5788L71.6771 43.5956V43.6124V43.6292C71.6771 43.6459 71.6771 43.6459 71.6771 43.6627V43.6795V43.6963V43.7131V43.7299L71.6609 43.7467L71.6447 43.7635L71.6285 43.7803V43.8139L71.6123 43.8307L71.5961 43.8475C71.5961 43.8475 71.5799 43.8643 71.5637 43.8643H71.5475H71.5313H71.5151H71.4827H71.4665H71.4503H71.4341C71.4179 43.8643 71.4179 43.8643 71.4017 43.8475L71.3693 43.8307L71.3531 43.8139V43.8307L71.3369 43.8139L71.3207 43.7971L71.3045 43.7803L69.166 40.6059C69.004 40.3708 68.7123 40.2868 68.5341 40.4212ZM71.0615 35.5C71.8716 35.5 72.5358 36.1718 72.552 37.0116V37.062V39.4302C72.552 39.5478 72.4548 39.6318 72.3576 39.6318C72.2604 39.6318 72.1632 39.5478 72.1632 39.447V39.4302V37.0452C72.1632 36.4406 71.6933 35.9367 71.1101 35.9199H71.0777L49.5067 35.9868C48.9235 35.9868 48.4374 36.4739 48.4212 37.0786V37.1122V44.5863C48.4212 45.1909 48.8911 45.6948 49.4743 45.7116H49.5067L65.7476 45.6446C65.861 45.6446 65.942 45.7454 65.942 45.8462C65.942 45.947 65.861 46.0477 65.7638 46.0477H65.7476L49.4905 46.1147C48.6805 46.1147 48.0162 45.4429 48 44.6031V44.5527V37.1122C48 36.2724 48.648 35.5837 49.4581 35.5669H49.5067L71.0615 35.5Z" fill="#57534F"/>
</svg>
