<svg viewBox="0 0 180 100" fill="none" xmlns="http://www.w3.org/2000/svg">
  <g clip-path="url(#clip0_10177_31860)">
    <rect width="180" height="100" fill="#FFEFDA" />
    <rect x="15" y="14" width="150" height="72" rx="2" fill="#FFD59D" />
    <path d="M82.8571 47.2857L76 57H104.571L95.4286 45L88.5714 54.7143L82.8571 47.2857Z"
      fill="#575350" stroke="#575350" stroke-linejoin="round" />
    <rect x="30.175" y="30.175" width="40.65" height="14.65" rx="0.825" stroke="#57534F"
      stroke-width="0.35" stroke-dasharray="2 2" />
    <path
      d="M146.5 89.5L146 90L146.5 91.5L148 93L150.5 94.5L154.5 96L156.5 97V98L158 99.5L159.5 99L162 96.5L164 95L164.5 93.5L163.5 92.5L162.5 92L162 91.5L161 87.5L159 84L157 81H155.5L154.5 82L153 81.5L151.5 82.5L150.5 82L149.5 83H149L148 81.5L147 80.5H146L145.5 81.5L146 83.5L148 85.5L149.5 88L150.5 89.5L151 91L150 90.5L149 90L147.5 89.5H146.5Z"
      fill="#FFEFDA" />
    <path
      d="M105.968 72.9353L106.935 71.9676L107.903 71.4837H111.29H146.129H151.451L152.903 72.4514L153.871 73.9031V78.7418V81.645H152.903L151.935 82.6127L150.484 82.1289L149.032 83.5805L148.064 81.1611L146.613 80.1934L145.645 80.6773L145.161 82.1289L149.516 88.4192L150.968 90.8385L150.484 90.3547H149.032L148.064 89.3869H146.613L146.129 89.8708V90.8385V91.8063H119.032H112.742H108.387H106.935L105.968 90.8385L105.484 90.3547V87.9353V85.9998V83.5805V80.6773V77.774V74.8708L105.968 72.9353Z"
      fill="#FFEFDA" />
    <path
      d="M144.092 91.3229C144.319 91.3229 144.481 91.5244 144.481 91.726C144.481 91.9275 144.319 92.1291 144.124 92.1291H144.092H141.921C141.694 92.1291 141.532 91.9275 141.532 91.726C141.532 91.5244 141.694 91.3229 141.888 91.3229H141.921H144.092ZM147.948 80.6744L149.406 82.8242C149.503 82.5219 149.697 82.2532 149.989 82.0852C150.572 81.6821 151.415 81.7157 151.933 82.0852C152.03 81.7829 152.225 81.4806 152.484 81.3126C153.1 80.8759 154.104 81.0103 154.622 81.4806C154.72 81.1782 154.914 80.9431 155.173 80.7415C155.854 80.2713 156.988 80.4728 157.441 81.0775V81.1111L157.636 81.3126C158.576 82.3875 159.353 83.4961 160.001 84.6046L160.131 84.8397L160.325 85.2092L160.52 85.5787L160.682 85.9146C161.459 87.3927 161.816 88.434 162.302 90.4159C162.399 90.8862 162.529 91.3229 162.691 91.726C163.144 91.6588 163.63 91.7932 163.954 92.1627L163.987 92.2299L164.7 93.1368C165.153 93.7415 165.088 94.5813 164.538 95.0851L164.473 95.1187L158.964 99.7208C158.381 100.191 157.571 100.124 157.085 99.5528L157.053 99.4856L156.34 98.5786C156.016 98.1756 155.951 97.6717 156.113 97.235H156.081H156.048C155.692 97.0334 155.27 96.8991 154.817 96.7983L154.655 96.7647H154.622C150.896 95.757 145.971 92.4986 145.517 90.9534C145.096 89.5761 146.101 88.8035 147.267 88.9715C147.624 89.0387 148.498 89.341 149.859 89.9792L150.313 90.1808L150.248 90.1136C149.73 89.3074 149.244 88.6356 148.822 87.9637L147.98 86.6872L146.878 85.0749C146.392 84.3694 145.841 83.5632 145.258 82.6563C144.707 81.8165 144.869 80.6744 145.615 80.1369C146.36 79.633 147.397 79.8682 147.948 80.6744ZM162.593 92.5658L162.561 92.5994L157.02 97.235C156.793 97.4365 156.729 97.7725 156.923 98.0076L156.955 98.0412L157.668 98.9482C157.863 99.1833 158.187 99.2505 158.414 99.0489L158.446 99.0153L163.987 94.3797C164.214 94.1782 164.278 93.8422 164.084 93.6071L164.051 93.5735L163.371 92.6665C163.177 92.4314 162.853 92.3978 162.593 92.5658ZM146.068 80.8423C145.679 81.1111 145.615 81.7157 145.906 82.186L147.494 84.5038L148.401 85.8811C148.628 86.217 148.822 86.5193 149.017 86.8216L149.308 87.2583C150.054 88.4004 150.929 89.6097 151.901 90.9198C152.16 91.2557 151.803 91.726 151.415 91.558L150.475 91.1213L149.859 90.8526C148.369 90.1808 147.462 89.8448 147.17 89.7777C146.522 89.6769 146.133 90.0128 146.327 90.6846C146.684 91.8603 151.285 94.9172 154.752 95.9249L154.849 95.9585L154.979 95.9921C155.465 96.0929 155.886 96.2608 156.307 96.4624L156.437 96.5296C156.469 96.5632 156.534 96.5967 156.567 96.6303L161.978 92.0955C161.816 91.6252 161.654 91.1549 161.524 90.6175L161.427 90.2144C160.908 88.1653 160.52 87.2247 159.418 85.31C158.77 84.1679 157.992 83.0258 157.02 81.9172L156.826 81.5813L156.793 81.5477C156.631 81.3126 155.951 81.1782 155.627 81.4134C155.303 81.6149 155.206 82.2196 155.368 82.5219L155.4 82.5555L156.21 83.7648C156.34 83.9663 156.275 84.2015 156.113 84.3358C155.951 84.4702 155.692 84.4366 155.562 84.2687L155.53 84.2351L155.011 83.4289L154.946 83.3953L154.104 82.1188C153.942 81.8837 153.262 81.7493 152.905 81.9844C152.614 82.186 152.516 82.7906 152.678 83.0594L152.711 83.093L154.007 85.0749L154.201 85.3436C154.331 85.5451 154.266 85.7803 154.104 85.9146C153.942 86.049 153.683 86.0154 153.553 85.8475L153.521 85.8139L151.577 82.8242C151.415 82.5891 150.767 82.4883 150.41 82.757C150.086 82.9922 149.989 83.5296 150.151 83.7984L150.183 83.832L152.322 87.1239V87.1575L152.354 87.1911V87.2247V87.2583C152.354 87.2919 152.354 87.2919 152.354 87.3255V87.3591V87.3927V87.4263V87.4599L152.322 87.4934L152.289 87.527L152.257 87.5606V87.6278L152.225 87.6614L152.192 87.695C152.192 87.695 152.16 87.7286 152.127 87.7286H152.095H152.063H152.03H151.965H151.933H151.901H151.868C151.836 87.7286 151.836 87.7286 151.803 87.695L151.739 87.6614L151.706 87.6278V87.6614L151.674 87.6278L151.641 87.5942L151.609 87.5606L147.332 81.2118C147.008 80.7415 146.425 80.5736 146.068 80.8423ZM151.123 71C152.743 71 154.072 72.3437 154.104 74.0232V74.124V78.8604C154.104 79.0956 153.91 79.2635 153.715 79.2635C153.521 79.2635 153.326 79.0956 153.326 78.894V78.8604V74.0904C153.326 72.8811 152.387 71.8734 151.22 71.8398H151.155L108.013 71.9737C106.847 71.9737 105.875 72.9478 105.842 74.1571V74.2243V89.1725C105.842 90.3818 106.782 91.3896 107.949 91.4232H108.013L140.495 91.2893C140.722 91.2893 140.884 91.4908 140.884 91.6924C140.884 91.8939 140.722 92.0955 140.528 92.0955H140.495L107.981 92.2294C106.361 92.2294 105.032 90.8857 105 89.2061V89.1054V74.2243C105 72.5447 106.296 71.1675 107.916 71.1339H108.013L151.123 71Z"
      fill="#57534F" />
  </g>
  <defs>
    <clipPath id="clip0_10177_31860">
      <rect width="180" height="100" fill="white" />
    </clipPath>
  </defs>
</svg>