<svg viewBox="0 0 90 60" fill="none" xmlns="http://www.w3.org/2000/svg"
  preserveAspectRatio="xMidYMid meet">
  <rect width="90" height="60" rx="4" fill="#FFEFDA" />
  <g clip-path="url(#clip0_10788_34096)">
    <rect width="90" height="50" transform="translate(0 5)" fill="#FFEFDA" />
    <rect x="7.5" y="12" width="75" height="36" rx="1" fill="#FFD59D" />
    <path d="M41.4286 28.6429L38 33.5H52.2857L47.7143 27.5L44.2857 32.3571L41.4286 28.6429Z"
      fill="#575350" stroke="#575350" stroke-width="0.5" stroke-linejoin="round" />
    <rect x="15.25" y="20.25" width="20" height="7" rx="0.25" stroke="#57534F" stroke-width="0.5"
      stroke-dasharray="1 1" />
    <path
      d="M73.25 49.75L73 50L73.25 50.75L74 51.5L75.25 52.25L77.25 53L78.25 53.5V54L79 54.75L79.75 54.5L81 53.25L82 52.5L82.25 51.75L81.75 51.25L81.25 51L81 50.75L80.5 48.75L79.5 47L78.5 45.5H77.75L77.25 46L76.5 45.75L75.75 46.25L75.25 46L74.75 46.5H74.5L74 45.75L73.5 45.25H73L72.75 45.75L73 46.75L74 47.75L74.75 49L75.25 49.75L75.5 50.5L75 50.25L74.5 50L73.75 49.75H73.25Z"
      fill="#FFEFDA" />
    <path
      d="M52.9841 41.468L53.468 40.9841L53.9519 40.7422H55.6454H73.0648H75.7261L76.4519 41.2261L76.9357 41.9519V44.3712V45.8228H76.4519L75.968 46.3067L75.2422 46.0648L74.5164 46.7906L74.0325 45.5809L73.3067 45.097L72.8228 45.339L72.5809 46.0648L74.7583 49.2099L75.4841 50.4196L75.2422 50.1777H74.5164L74.0325 49.6938H73.3067L73.0648 49.9357V50.4196V50.9035H59.5164H56.3712H54.1938H53.468L52.9841 50.4196L52.7422 50.1777V48.968V48.0003V46.7906V45.339V43.8873V42.4357L52.9841 41.468Z"
      fill="#FFEFDA" />
    <path
      d="M72.0459 50.6614C72.1593 50.6614 72.2403 50.7622 72.2403 50.863C72.2403 50.9638 72.1593 51.0645 72.0621 51.0645H72.0459H70.9604C70.847 51.0645 70.766 50.9638 70.766 50.863C70.766 50.7622 70.847 50.6614 70.9442 50.6614H70.9604H72.0459ZM73.9738 45.3372L74.7028 46.4121C74.7514 46.2609 74.8487 46.1266 74.9945 46.0426C75.2861 45.8411 75.7073 45.8578 75.9665 46.0426C76.0151 45.8914 76.1123 45.7403 76.242 45.6563C76.5498 45.438 77.052 45.5051 77.3112 45.7403C77.3598 45.5891 77.457 45.4715 77.5866 45.3708C77.9269 45.1356 78.4939 45.2364 78.7207 45.5387V45.5555L78.8179 45.6563C79.2878 46.1938 79.6766 46.748 80.0006 47.3023L80.0654 47.4199L80.1626 47.6046L80.2598 47.7894L80.3408 47.9573C80.7297 48.6963 80.9079 49.217 81.1509 50.208C81.1995 50.4431 81.2643 50.6614 81.3453 50.863C81.5721 50.8294 81.8151 50.8966 81.9771 51.0813L81.9933 51.1149L82.3498 51.5684C82.5766 51.8707 82.5442 52.2906 82.2688 52.5426L82.2364 52.5594L79.4822 54.8604C79.1906 55.0955 78.7855 55.0619 78.5425 54.7764L78.5263 54.7428L78.1699 54.2893C78.0079 54.0878 77.9755 53.8358 78.0565 53.6175H78.0403H78.0241C77.8459 53.5167 77.6352 53.4495 77.4084 53.3991L77.3274 53.3824H77.3112C75.4481 52.8785 72.9855 51.2493 72.7587 50.4767C72.5481 49.7881 73.0503 49.4018 73.6336 49.4857C73.8118 49.5193 74.2492 49.6705 74.9297 49.9896L75.1565 50.0904L75.1241 50.0568C74.8649 49.6537 74.6218 49.3178 74.4112 48.9819L73.99 48.3436L73.4392 47.5374C73.1961 47.1847 72.9207 46.7816 72.6291 46.3281C72.3537 45.9082 72.4347 45.3372 72.8073 45.0684C73.1799 44.8165 73.6984 44.9341 73.9738 45.3372ZM81.2967 51.2829L81.2805 51.2997L78.5101 53.6175C78.3967 53.7183 78.3643 53.8862 78.4615 54.0038L78.4777 54.0206L78.8341 54.4741C78.9313 54.5916 79.0933 54.6252 79.2068 54.5245L79.223 54.5077L81.9933 52.1899C82.1067 52.0891 82.1392 51.9211 82.0419 51.8036L82.0257 51.7868L81.6855 51.3333C81.5883 51.2157 81.4263 51.1989 81.2967 51.2829ZM73.0341 45.4212C72.8397 45.5555 72.8073 45.8578 72.9531 46.093L73.747 47.2519L74.2006 47.9405C74.314 48.1085 74.4112 48.2596 74.5084 48.4108L74.6542 48.6292C75.0269 49.2002 75.4643 49.8049 75.9503 50.4599C76.0799 50.6278 75.9017 50.863 75.7073 50.779L75.2375 50.5607L74.9297 50.4263C74.1844 50.0904 73.7308 49.9224 73.585 49.8888C73.2609 49.8384 73.0665 50.0064 73.1637 50.3423C73.342 50.9302 75.6425 52.4586 77.376 52.9625L77.4246 52.9793L77.4894 52.9961C77.7325 53.0464 77.9431 53.1304 78.1537 53.2312L78.2185 53.2648C78.2347 53.2816 78.2671 53.2984 78.2833 53.3152L80.9889 51.0477C80.9079 50.8126 80.8269 50.5775 80.7621 50.3087L80.7135 50.1072C80.4542 49.0826 80.2598 48.6124 79.709 47.655C79.385 47.0839 78.9961 46.5129 78.5101 45.9586L78.4129 45.7907L78.3967 45.7739C78.3157 45.6563 77.9755 45.5891 77.8135 45.7067C77.6515 45.8075 77.6028 46.1098 77.6839 46.2609L77.7001 46.2777L78.1051 46.8824C78.1699 46.9832 78.1375 47.1007 78.0565 47.1679C77.9755 47.2351 77.8459 47.2183 77.7811 47.1343L77.7649 47.1175L77.5056 46.7144L77.4732 46.6976L77.052 46.0594C76.971 45.9418 76.6308 45.8746 76.4526 45.9922C76.3068 46.093 76.2582 46.3953 76.3392 46.5297L76.3554 46.5465L77.0034 47.5374L77.1006 47.6718C77.1654 47.7726 77.133 47.8901 77.052 47.9573C76.971 48.0245 76.8414 48.0077 76.7766 47.9237L76.7604 47.9069L75.7883 46.4121C75.7073 46.2945 75.3833 46.2442 75.2051 46.3785C75.0431 46.4961 74.9945 46.7648 75.0755 46.8992L75.0917 46.916L76.1609 48.562V48.5788L76.1771 48.5956V48.6124V48.6292C76.1771 48.6459 76.1771 48.6459 76.1771 48.6627V48.6795V48.6963V48.7131V48.7299L76.1609 48.7467L76.1447 48.7635L76.1285 48.7803V48.8139L76.1123 48.8307L76.0961 48.8475C76.0961 48.8475 76.0799 48.8643 76.0637 48.8643H76.0475H76.0313H76.0151H75.9827H75.9665H75.9503H75.9341C75.9179 48.8643 75.9179 48.8643 75.9017 48.8475L75.8693 48.8307L75.8531 48.8139V48.8307L75.8369 48.8139L75.8207 48.7971L75.8045 48.7803L73.666 45.6059C73.504 45.3708 73.2123 45.2868 73.0341 45.4212ZM75.5615 40.5C76.3716 40.5 77.0358 41.1718 77.052 42.0116V42.062V44.4302C77.052 44.5478 76.9548 44.6318 76.8576 44.6318C76.7604 44.6318 76.6632 44.5478 76.6632 44.447V44.4302V42.0452C76.6632 41.4406 76.1933 40.9367 75.6101 40.9199H75.5777L54.0067 40.9868C53.4235 40.9868 52.9374 41.4739 52.9212 42.0786V42.1122V49.5863C52.9212 50.1909 53.3911 50.6948 53.9743 50.7116H54.0067L70.2476 50.6446C70.361 50.6446 70.442 50.7454 70.442 50.8462C70.442 50.947 70.361 51.0477 70.2638 51.0477H70.2476L53.9905 51.1147C53.1805 51.1147 52.5162 50.4429 52.5 49.6031V49.5527V42.1122C52.5 41.2724 53.148 40.5837 53.9581 40.5669H54.0067L75.5615 40.5Z"
      fill="#57534F" />
  </g>
  <defs>
    <clipPath id="clip0_10788_34096">
      <rect width="90" height="50" fill="white" transform="translate(0 5)" />
    </clipPath>
  </defs>
</svg>