<svg xmlns="http://www.w3.org/2000/svg" viewBox="0 0 300 300"><path d="M51.7 128.1a9.7 9.7 0 0 1 5.4 3.6c-.9.6-1 1.3 0 1.9a16.1 16.1 0 0 1 5.7 5.9c.2.3.9.4 1.3.6s.4-1 .2-1.4a13.4 13.4 0 0 0-1.3-2.3c1.5-.3 1.9-1.6 2.7-2.5l1.4-1a49.1 49.1 0 0 1 4.4-3.1 21.9 21.9 0 0 1 3.8-1.7l5.8-.7.5.5c2.5 2.3 4.8 4.7 5.6 8.2.2 1.1 1 .9 1.8.4a8.9 8.9 0 0 1-.2 6.6c-1.2-.7-1.6-.6-1.9.8a23.6 23.6 0 0 1-3 8c-.2.4 0 1 0 1.5a39.7 39.7 0 0 0-2 3.5 19.2 19.2 0 0 0-1.2 2.5c-.8-.2-1.4-.1-1.7.7a19.6 19.6 0 0 1-6.5 8c-.7.5-1 1.1-.4 1.9l-1.9 1.7c-1.2-.3-2.5-.7-3.8-.9a2.7 2.7 0 0 0-1.2.2 6.1 6.1 0 0 0 .3 1.3c.1.2.5.3.8.5-1.6.5-3-.1-4.4-.8l-2.7-1.9 1.3-.9a13.1 13.1 0 0 0-1.1-1.2l-8.4-4.4a1.4 1.4 0 0 0-1.7-.1l-4.3-2.7a1.3 1.3 0 0 0-.2-1.8c-2-2.2-4.2-4.3-5.3-7.2-.1-.3-.7-.4-1.1-.6s-.5.9-.4 1.2a12.2 12.2 0 0 0 1 2.4l1.6 2.4c.6.8-1.2-.3-1.5-.7-4.5-5-7.2-10.7-6.5-17.5.1-1.2-.1-2.7 1.6-3.2a17 17 0 0 0-.6 7.1 5.8 5.8 0 0 0 .3 1.4c.2.4.6 1 .9 1s.9-.7.8-1.3a1.1 1.1 0 0 1-.1-.5 13.8 13.8 0 0 1 1.1-8.5 1.1 1.1 0 0 0-.7-1.7c.2-.5.3-1.1.7-1.4a17.1 17.1 0 0 1 2.3-1.3c.6.8 1.4.6 2.2.2a12.3 12.3 0 0 1 9.2-1.4c1 .3 1.5-.1 1.4-1.3Z" fill="#e4eca7"/><path d="m150.9 154.6.5-18.6a4 4 0 0 0-1.2-2.9l-19.1-20.3c-.3-.4-.8-1.2-.6-1.4a2 2 0 0 1 1.5-.9l36.3-3.8 48.2-5.1 35.9-3.8 14.8-1.6a10.5 10.5 0 0 1 2.5-.1 4.5 4.5 0 0 1 1.1.3l-.5 1.2-3.7 4.6-66.9 87.8-1.3 1.7q-1.2 1.5-2.4 0c-1.4-1.6-2.6-3.3-3.8-4.9l-17.8-23.2c-1.1-1.4-1.1-1.4-2.6-.5L153 174.8a6 6 0 0 1-1.1.6c-.8.2-1.3-.1-1.4-.9a3.4 3.4 0 0 1 0-1l.4-18.9Zm-16.8-41.4.2.2 7.3 8 10.4 11a1.7 1.7 0 0 0 2.2.5 2.9 2.9 0 0 1 1-.3l90.9-28.3 15.9-5 1.5-.4.7-.4h-.7l-27.6 2.9-35.8 3.7-53 5.6-12.9 1.4c-1.1.1-1 .5-.3 1h.2Zm130.1-10.9c-.2-.1-.4-.2-.5-.1l-1.3.5-82.3 37.6c-4.8 2.2-9.6 4.5-14.5 6.6-1 .5-1.2.8-.4 1.6l.5.8 30 39.2c1.5 1.9 1.5 1.9 3-.1l53.4-70.2 11.3-14.8a7.6 7.6 0 0 1 .8-1.1Zm-111.4 50.4h-.1v5.3l-.3 11.2a.9.9 0 0 0 .3.5l.3-.4.4-1.1 7.5-19.2a5.5 5.5 0 0 1 3.1-3.4l38.2-17.4 43.3-19.8 11.4-5.2.6-.5h-.7l-1.3.5-42.3 13.1-58.7 18.2a1.7 1.7 0 0 0-1.4 1.9c0 5.5-.2 10.9-.3 16.3Zm19.3 7.9-.6-.8-7.6-10c-.8-1-1-1-1.5.3l-4.6 11.9-3.2 8.2-.2 1.3 1.3-.5 2.8-1.8 12.4-7.7Zm-84.2 12.8a20.6 20.6 0 0 0 8.2-.6c.7-.2 1.4-.3 1.6.5s-.4 1.2-1.1 1.3-4.3.7-6.5.8l-6-.3-.8-.2a2 2 0 0 1-.6-1.1c0-.2.6-.6.9-.6Z" fill="#131312"/><path d="m148.6 157.7-1.1 1.1a43.9 43.9 0 0 1-11.5 4.6 1.7 1.7 0 0 1-1 .1 1.2 1.2 0 0 1-.7-.7 1.7 1.7 0 0 1 .4-.7l1.1-.5a41 41 0 0 0 10.6-4.4c.3-.1.7-.4 1-.3Zm-47.2 15.4c-.3-.3-.9-.6-.9-.9a1.3 1.3 0 0 1 .9-1l4.8-.7 5.2-1c.5-.1 1-.4 1.4-.3s.7.6 1.1.9-.5.7-.9.9l-2.9.7Zm17.2-4.3c-.2-.2-.8-.5-.9-.9a1.7 1.7 0 0 1 .8-.9 9.3 9.3 0 0 1 2.3-.4 23.8 23.8 0 0 0 7.4-2.4c.2-.1.5-.4.8-.4a2 2 0 0 1 1.1.6c.1.1-.1.8-.4 1a14.8 14.8 0 0 1-1.3.8c-3 1.5-6.3 2-9.8 2.6Zm-72.3 23.1c-.2-.2-.8-.4-.8-.7a1.3 1.3 0 0 1 .6-1.1c3.4-.8 5.9-3.1 8.4-5.3a3.8 3.8 0 0 1 1.3-.6 1.4 1.4 0 0 1 .8.6c.1.1 0 .6-.1.7-2.9 2.5-5.6 5.2-9.5 6.2Zm-15.9 8-1-.9c.3-.3.6-.8 1-1l8.5-3.7c.3-.1.5-.4.7-.3s1.2-.1 1.5.2 0 1.1-.6 1.3l-8.3 3.9a7.8 7.8 0 0 1-1.8.5ZM72.1 170c-.6-.8-.3-1.4.4-1.9a19.6 19.6 0 0 0 6.5-8c.3-.8.9-.9 1.7-.7s.2.9 0 1.3a21.2 21.2 0 0 1-7.4 9.1c-.3.2-.8.1-1.2.2Zm-20.4-41.9c.1 1.2-.4 1.6-1.4 1.3a12.3 12.3 0 0 0-9.2 1.4c-.8.4-1.6.6-2.2-.2a3 3 0 0 1 .7-1.1c3.3-1.8 6.7-2.9 10.5-2Zm14.6 44.7c-.3-.2-.7-.3-.8-.5a6.1 6.1 0 0 1-.3-1.3 2.7 2.7 0 0 1 1.2-.2c1.3.2 2.6.6 3.8.9a15.7 15.7 0 0 0 6.1.7c.7-.1 1.4 0 1.4.8s-.8 1-1.2 1c-2.2-.1-4.4-.4-6.6-.7s-2.4-.5-3.6-.7ZM89 136.5c-.8.5-1.6.7-1.8-.4-.8-3.5-3.1-5.9-5.6-8.2l-.5-.5c.5-1.2.9-1.4 1.7-.8 3.1 2.6 5.8 5.5 6.2 9.9Zm-39.7 27a1.4 1.4 0 0 1 1.7.1l8.4 4.4a13.1 13.1 0 0 1 1.1 1.2l-1.3.9-8.4-4.4c-.8-.5-1.6-1-1.5-2.2Zm10.1 18.9c-.3-.1-.8-.3-.8-.5a1.7 1.7 0 0 1 .4-1.2c.8-.6 1.8-1.1 2.6-1.8l3.9-3.5.6-.7 1.4-.2c0 .5.2 1-.1 1.3a18 18 0 0 1-2.6 2.9 35.4 35.4 0 0 1-4.4 3.2Zm15.9-54.3a21.9 21.9 0 0 0-3.8 1.7 49.1 49.1 0 0 0-4.4 3.1l-1.4 1a1.3 1.3 0 0 1 0-2.1 18.4 18.4 0 0 1 8.2-5c1.1-.3 1.3 0 1.4 1.3Zm-39.4 5.2a1.1 1.1 0 0 1 .7 1.7 13.8 13.8 0 0 0-1.1 8.5 1.1 1.1 0 0 0 .1.5c.1.6 0 1.3-.8 1.3s-.7-.6-.9-1a5.8 5.8 0 0 1-.3-1.4 17 17 0 0 1 .6-7.1 2.4 2.4 0 0 1 .2-.8l1-1.4.5-.2Zm48 20.1c0-.5-.2-1.1 0-1.5a23.6 23.6 0 0 0 3-8c.3-1.4.7-1.5 1.9-.8a23.8 23.8 0 0 1-2.9 9c-.4.8-.9 1.6-2 1.3Zm-43.3 3.8-1.6-2.4a12.2 12.2 0 0 1-1-2.4c-.1-.3.3-.8.4-1.2s1 .3 1.1.6c1.1 2.9 3.3 5 5.3 7.2a1.3 1.3 0 0 1 .2 1.8l-2-1-1.4-1.4-.4-.5-.3-.4-.3-.4ZM63 136.4a13.4 13.4 0 0 1 1.3 2.3c.2.4-.1.9-.2 1.4s-1.1-.3-1.3-.6a16.1 16.1 0 0 0-5.7-5.9c-1-.6-.9-1.3 0-1.9l4.6 3.3a8.6 8.6 0 0 1 1.3 1.4Z" fill="#131312"/><path d="M34.4 134.9a2.4 2.4 0 0 0-.2.8 2.4 2.4 0 0 1 .2-.8Zm1.5-1.6-.5.2Zm4.7 23.9.3.4Zm.3.4.3.4Zm.3.3.4.5Z" fill="#e4eca7"/><path d="m152.8 152.7.3-16.2a1.7 1.7 0 0 1 1.4-1.9l58.7-18.2 42.3-13.1 1.3-.5h.7l-.6.5-11.4 5.2-43.3 19.8-38.2 17.3a5.5 5.5 0 0 0-3.1 3.4l-7.5 19.2-.4 1.1-.3.4a.9.9 0 0 1-.3-.5l.3-11.2v-5.3Z" fill="#0079c0"/><path d="m172.1 160.6-1.2.9-12.4 7.7-2.8 1.8-1.3.5.2-1.3 3.2-8.2 4.6-11.9c.5-1.3.7-1.3 1.5-.3l7.6 10Z" fill="#0079c0"/><path d="M262 99.3c-1.8.1-3.5 0-5.2.2l-8.8.9-11.8 1.3-8.2.8-12.3 1.4-11.1 1.1-12.3 1.4-7.9.8-12.4 1.3-7.7.8-12.7 1.3-11.7 1.2-4.4.4a8.9 8.9 0 0 0-1.6.9c-.7-.5-.8-.9.3-1l12.9-1.4 53-5.6 35.8-3.7 27.6-2.9h.7l-.7.4Zm-127.9 13.9a.2.2 0 0 1 .2.2Z" fill="#e4eca7"/></svg>