<svg xmlns="http://www.w3.org/2000/svg" viewBox="0 0 300 300"><path d="M204.4 59.2a74.5 74.5 0 0 1 13.5 16.1l.4.9.5.7.7 1.3h-.1l.5.8.4.8.4.8h-.1l.6 1.5a73.9 73.9 0 0 1 5.4 41.7 90.4 90.4 0 0 1-42.8 64.4l-.9.7-2.1 1.2c-.9.3-1.9.5-.3 1.4s1.5 2 .3 3.3-.6.7-.9.8c-2.2.9-2.6 2.6-2.2 4.7a.6.6 0 0 1 .1.4c-.3 2.7-.2 4.7 3.3 5.7s2.9 3.5.3 5.2a1.8 1.8 0 0 1-1 .6c-2.6.7-3.3 2.4-3.4 4.8a33.1 33.1 0 0 1-.7 5.5c-.3 1.3-.1 1.9 1.3 2.2a20.2 20.2 0 0 1 5.3 2.1c2.6 1.6 2.6 4.1-.1 5.4a50.1 50.1 0 0 1-7.7 2.7c-1.2.4-2.2.7-2.4 2.1s-.2.5-.2.8-1 1.8-.8 2.6 1.3.8 2.1 1.2c3.3 1.9 3.4 5.1 0 7a28.3 28.3 0 0 1-5.7 2.3 6.9 6.9 0 0 0-3.5 2.6 56.2 56.2 0 0 1-7.4 8c-8.5 7.1-18.3 6.7-26.6-.6a10.7 10.7 0 0 1-1.8-1.9c-1.5-2.5-3.9-3.1-6.6-3.4a22 22 0 0 1-5.2-1.3c-7.6-3-9.2-11.2-3.4-16.9.6-.6 1.7-1.1 1.8-1.8s-1-1.2-1.6-1.9a8.9 8.9 0 0 1-.4-10.7c1.3-2.2 1.1-2.7-1.2-3.6a18.9 18.9 0 0 1-4.6-2.6c-2.5-2-3-4.9-1-7.4a31.5 31.5 0 0 1 5.4-4.9 4.2 4.2 0 0 0 2-3.1c.3-2.5-.4-3.9-2.8-4.8a8.9 8.9 0 0 1-2.8-2.1c-.3-.2-.2-.9-.3-1.3a2.8 2.8 0 0 1 1.3.4 30.6 30.6 0 0 0 2.9 2.1c.5.3 1.3 1.4 2 .3s.3-2.2-.9-2.8c-17.6-9-28.7-23.3-33.7-42.3s-2.4-38.9 6.4-57.3c1.2-2.5 2.6-4.9 3.9-7.4l.8-1.3L92 83l1.4-1.7a87.9 87.9 0 0 1 39.1-31.7c16.5-6.7 33.3-8 50.4-2.4 4.1 1.4 7.9 3.4 11.9 5.1l3.2 2 .4.3.8.5.4.3 1.2.9.4.4 1.2.9.4.3.4.4Zm-46.3 137a12.3 12.3 0 0 0-.2 1.9c-.1 1.9-.1 2 1.7 1.7 4.4-.8 8.8-1.5 13.1-2.5s3.8-.9 3-4.7c.3-1.5-.8-1.4-1.6-1.4-3.9 0-7.9-.1-11.9.2s-4.1-.6-4.1 4.8Zm-76.3-87.4h.1a11.5 11.5 0 0 0-.6 1.7 76.9 76.9 0 0 0-1.6 34.4 65.2 65.2 0 0 0 18.5 35.9 63.8 63.8 0 0 0 14.9 10.8c1.8.9 1.8.9 2.2-1.1l.6-3 1.2.8-1.3 8c-.1.4.1 1.1.3 1.1 2.5.6 5.1 1.9 7.3 1.5 3.9-.7 7.7-2.5 11.5-3.8 1.5.2 1.9-.6 2-2l.4-16.5.9-41.8a6.5 6.5 0 0 1 .4-2l9.1-20.1 3.8-8.3c.2-.4.6-.6 1-.9s.6.6.7 1a22.5 22.5 0 0 1 .9 3.5l5.3 21.6c.4 1.7 1.3 3.1 1.1 5l-.4 6.6-1.9 47.1c0 2.1 0 2 2.1 1.9l13.3-.3c1.2 0 2.1.1 1.7-1.5s.3-.7.5-1l.7.8.1.6c.4 1.7.4 1.7 2 .9l1.6-.9a88.2 88.2 0 0 0 37-39.2c8.6-17.5 11.4-35.9 6.7-55S207 59 187.6 50.5a66 66 0 0 0-47.9-2 86.7 86.7 0 0 0-52 45.1c-2.2 4.2-3.6 8.9-5.3 13.4Zm56.8 65.2h.1l-.7 24.9c0 1.1.2 1.7 1.5 1.7l15.3-.3c1.5 0 1.7-.7 1.8-2l.6-16.5 1-27.1.8-20.5a3.7 3.7 0 0 0-.2-1.4 9.3 9.3 0 0 0-2.9.1c-.3 0-.5.8-.5 1.3l-.5 9.7-1.8 36.6-.8 14.7c0 .5-.4.9-.6 1.3s-.5-.8-.7-1.3a1.7 1.7 0 0 1 .1-1l1.4-27.7 1.5-32.4c.1-1-.2-1.4-1.2-1.3s-2.3.3-3.5.3-1.7.4-1.8 1.7l-.8 30.1-.9 30.1v.5a8.6 8.6 0 0 1-.7 1 4.7 4.7 0 0 1-.6-.9v-2.4l.9-28.1.8-30.2c.1-1.6-.5-2.1-1.8-1.4a1.7 1.7 0 0 0-.7 1.4l-.4 10.3-1.4 39.9-.4 11.1c0 .4-.4.9-.6 1.3a3.3 3.3 0 0 1-.7-1.3 5.7 5.7 0 0 1 0-1.3l.4-9.2.5-17.7 1.2-32.9c0-.8.2-1.6-1.1-1.5s-1.7.3-1.7 1.5Zm-3.3 80.8v.2l3.4-.2a111.5 111.5 0 0 0 24.9-4 3.7 3.7 0 0 0 2.2-1.7c1.9-3.9 3.6-7.9 5.4-11.9.6-1.2.3-1.5-1.1-1.3a191.6 191.6 0 0 1-27.3 3c-7.8.3-15.5.5-23.1-1.5-1.2-.3-.9.2-.7.9a54.5 54.5 0 0 0 7.3 15.4 2.5 2.5 0 0 0 1.8 1.1Zm2.3-16.6v-.6h3.6a197 197 0 0 0 29.6-3.2 2.1 2.1 0 0 0 1.5-1.2c.7-2.2 1.2-4.5 1.8-6.7s-.1-1.2-1-1.3a80.9 80.9 0 0 0-8.5-.6 166.6 166.6 0 0 0-17.2 1.6 88.8 88.8 0 0 0-26.7 8.1 8 8 0 0 0-1.9 1.3 18 18 0 0 0 2.1.8Zm-9-18.6c12.4.1 31.2-2.5 43.3-5.7 4.7-1.3 4.7-1.3 4.5-6.3 0-1-.2-1.5-1.2-1.5l-4.8-.4a107.5 107.5 0 0 0-39.3 7.4c-3.7 1.4-7.1 3.5-10.6 5.3a3.4 3.4 0 0 0-.9.8l1.2.3Zm-10.3 1.1a2.3 2.3 0 0 0-2.5 2.7l1.7 9.4c.2 1.4.7 1.3 1.8.8a99.5 99.5 0 0 1 54.2-9.7c.9.1 1.3 0 1.4-1l1-7.5c.4-2.5-.2-1.2-1.2-.9-4.5 1-8.9 2.2-13.4 3a163.3 163.3 0 0 1-43 3.2Zm-3.3-9.3h-.1c.1 1.9.1 3.8.3 5.6s.3 1.8.6 1.8a3.9 3.9 0 0 0 2.3-.5c2.7-1.4 5.2-3.3 8-4.5a101 101 0 0 1 49.4-9c.6.1 1 .1 1-.7l-.2-5.4c0-.2-.7-.7-.9-.7a96.8 96.8 0 0 1-19.2 3.5c-.7.1-1.2.3-1.1 1.2s-.6 1.9-2 2c-3.8.2-7.7.6-11.5 1s-2.5.1-2.3-2.3-.1-1.5-1.3-1.6l-13.9-1.1a3.2 3.2 0 0 0-1.7.2c-2.2.9-4.3 1.8-6.4 2.9a2.1 2.1 0 0 0-.9 1.5l-.1 6.1Zm20.5 44.9h-6.1a3.2 3.2 0 0 0-.9.3l.4.6a65.8 65.8 0 0 0 5.7 5c5.8 3.8 11.8 4 17.9.9a29.6 29.6 0 0 0 10.4-9.5l.6-1.1-1.4.2a133.3 133.3 0 0 1-26.6 3.6Zm6.8-124.1 14.8-.9c1 0 1.3-.2 1.1-1.2l-2.6-10.6c-.2-.7-.3-1.1-1.2-.9a8.9 8.9 0 0 1-6.2-.7c-.9-.4-1.3-.3-1.6.6l-5.7 12.5c-.6 1.3 0 1.4 1.4 1.2Zm-30.8 113a7.7 7.7 0 0 0 3.9 6.8 20.8 20.8 0 0 0 8.7 2.5c1 .2.8-.3.5-.8a58.4 58.4 0 0 1-3.5-6.5c-1.4-3.1-2.5-6.3-3.6-9.4-.4-1-.7-1.3-1.6-.6a10.3 10.3 0 0 0-4.4 8Zm2-33.3h.1v-5.6c0-.5.1-1.3-.7-.7s-4.3 2.7-5.5 5-.9 3.6.7 4.9a42.5 42.5 0 0 0 4.6 2.7c1.1.5 1.2 0 1.2-1l-.4-5.3Zm60.8 22.2c2.9-1.1 5.5-1.9 7.9-3.1s1.6-2.1 0-3a38.3 38.3 0 0 0-5.6-2.2c-.2-.1-.9.4-1 .7l-1.6 6.4c-.1.3.1.6.3 1.2Zm-21.7-116.6c2.2 0 2.4-.3 1.9-2.4l-1.9-7.7a3.5 3.5 0 0 0-.5-.8l-.4.6a54.5 54.5 0 0 0-2.5 5.5c-.4 1.2-2.1 2.5-.9 3.6s2.7.8 4.1 1.2ZM175 245.7c0-1.8-2.5-3.9-3.8-3.6a1.6 1.6 0 0 0-.7.7l-2.9 6c-.1.2.3.8.4.8l6.1-2.8c.5-.3.7-.9.9-1.1Zm-42.1-45.4 2.2.2c.5 0 1.5-.2 1.5-.4a23.2 23.2 0 0 0-.1-3.7h-.5l-8.9 2.8c-.2 0-.3.2-.5.3l.6.3Zm-19.8 27.2a8.4 8.4 0 0 0 2.4 6c.1.2.4.3.6.4s.2-.5.1-.7l-1.6-8.3c0-.2-.2-.3-.3-.5s-.3.2-.4.4Zm64.6-18.2h-.1a13.4 13.4 0 0 0 .1 2c0 .2.4.5.5.4a23.9 23.9 0 0 0 3.4-2.1c.2-.1.1-1 0-1.2l-3.5-1.7-.4 2.4Zm-62.5-7.9c-.3 1 0 1.4 1.3.6l1.1-.5 2.5-1.4-2.7-.8c-2-.6-2-.6-2.2 1.3Zm61.9-8.3.7 2.2 2.3-2-2.3-1.4Z" fill="#191916"/><path d="M194.8 52.3c-4-1.7-7.8-3.7-11.9-5.1a71.2 71.2 0 0 0-50.4 2.4 87.9 87.9 0 0 0-39.1 31.7L92 83c.6-1.3 1-2.6 1.7-3.8a82.2 82.2 0 0 1 28.8-27.7 72.9 72.9 0 0 1 26.3-9.1 66.5 66.5 0 0 1 37.1 4.8 85.2 85.2 0 0 1 8 4c.4.2.6.7.9 1.1Zm-11.9 136.6.9-.7a90.4 90.4 0 0 0 42.8-64.4 73.9 73.9 0 0 0-5.4-41.7l-.6-1.5a7.9 7.9 0 0 1 1.4 1.8 75.9 75.9 0 0 1 6.4 22.9c.3 3.4.7 6.8.7 10.2a89.7 89.7 0 0 1-3.5 23.1 85.9 85.9 0 0 1-13.6 26.8 77.6 77.6 0 0 1-23.8 21.1c-1.7 1-3.6 1.6-5.3 2.4Z" fill="#e1f2ba"/><path d="M213.5 53.4c-.2-.6-.4-1-.3-1.3a2 2 0 0 1 .8-.8l18.4-15.2c.4-.4 1.1-.4 1.7-.6s-.4 1.2-.9 1.6l-18.3 15.3Zm18.8 30.1-1-.7a5.4 5.4 0 0 1 1.3-.7l23-2.3c.4 0 .9.4 1.4.5s-.8.8-1.3.9Zm21.7 41.6-19.5-2c-.5-.1-.9-.6-1.4-.9s1-.6 1.5-.5l19.3 2h.2l1.6.8-1.6.8Zm-15-63.5a3.3 3.3 0 0 1-1 .6l-10.8 4.4c-.4.2-.8 0-1.2 0s.3-1 .7-1.2l10.8-4.4a6.6 6.6 0 0 1 1.4.1Zm1 40.4h4.9c.4 0 .7.4 1 .6s-.6.7-.9.7h-10.1c-.4 0-.7-.5-1-.7s.7-.7 1.1-.7h5Zm-35.4-67.9a8.6 8.6 0 0 1-.7 1l-5.9 6.5a3.4 3.4 0 0 1-1.4.5c.1-.5.1-1.1.4-1.4l6-6.7 1.2-.5.4.6Zm35 108.1-8.8-2.3c-.3 0-.5-.5-.7-.8s.6-.4.8-.4a1.6 1.6 0 0 1 1 .1l7.7 2a2.1 2.1 0 0 1 1 .9Z" fill="#191916"/><path d="m198 54.3-3.2-2a3 3 0 0 1 3.2 2ZM92 83l-1.2 1.9c0-.9.1-1.8 1.2-1.9Zm88.8 107.1 2.1-1.2Zm21.6-132.6-1.2-.9Zm-1.6-1.2-1.2-.9Zm-110 28.6-.8 1.3Zm128.7-6.7-.7-1.3a5.4 5.4 0 0 0 .7 1.3Zm-15.1-19-1.2-1Zm16.3 21.4-.4-.8a3 3 0 0 0 .4.8Zm-.4-.8-.4-.8Zm-21.1-24.7-.8-.5ZM219.9 79l-.5-.8Zm-1.1-2.1-.5-.7Zm-.5-.7-.4-.9Zm-17.1-19.6-.4-.4Zm-1.6-1.2-.4-.3Zm-1.2-.8-.4-.3Zm4.8 3.6-.4-.4Zm-.4-.4-.4-.3Z" fill="#e1f2ba"/><path d="M82.4 107c1.7-4.5 3.1-9.2 5.3-13.4a86.7 86.7 0 0 1 52-45.1 66 66 0 0 1 47.9 2c19.4 8.5 31.3 23.6 36.3 44s1.9 37.5-6.7 55a88.2 88.2 0 0 1-37 39.2l-1.6.9c-1.6.8-1.6.8-2-.9l-.1-.6-.7-.8c-.2.3-.6.7-.5 1s-.5 1.5-1.7 1.5l-13.3.3c-2.1.1-2.1.2-2.1-1.9l1.9-47.1c.1-2.2.1-4.4.4-6.6s-.7-3.3-1.1-5l-5.3-21.6a22.5 22.5 0 0 0-.9-3.5c-.1-.4-.5-.7-.7-1s-.8.5-1 .9l-3.8 8.3-9.1 20.1a6.5 6.5 0 0 0-.4 2l-.9 41.8-.4 16.5c-.1 1.4-.5 2.2-2 2-3.3-1-6.6-2-9.8-3.2s-5.3-2.4-8-3.6l-1.2-.8-.9-.7c-3.8-2.9-7.9-5.5-11.5-8.8a69.1 69.1 0 0 1-16-22.9 79.4 79.4 0 0 1-6.6-30.3c-.1-4.1.5-8.3.7-12.4l.3-3.6h-.1Z" fill="#e4eca7"/><path d="m138.6 174 .9-38.9c0-1.2.5-1.5 1.7-1.5s1.1.7 1.1 1.5l-1.2 32.9-.5 17.7-.4 9.2a5.7 5.7 0 0 0 0 1.3 3.3 3.3 0 0 0 .7 1.3c.2-.4.6-.9.6-1.3l.4-11.1 1.4-39.9.4-10.3a1.7 1.7 0 0 1 .7-1.4c1.3-.7 1.9-.2 1.8 1.4l-.8 30.2-.9 28.1v2.4a4.7 4.7 0 0 0 .6.9 8.6 8.6 0 0 0 .7-1v-.5l.9-30.1.8-30.1c.1-1.3.5-1.7 1.8-1.7s2.4-.2 3.5-.3 1.3.3 1.2 1.3l-1.5 32.4-1.4 27.7a1.7 1.7 0 0 0-.1 1l.7 1.3c.2.4.6-.8.6-1.3l.8-14.7 1.8-36.6.5-9.7c0-.5.2-1.3.5-1.3a9.3 9.3 0 0 1 2.9-.1 3.7 3.7 0 0 1 .2 1.4l-.8 20.5-1 27.1-.6 16.5c-.1 1.3-.3 2-1.8 2l-15.3.3c-1.3 0-1.5-.6-1.5-1.7l.7-24.9Z" fill="#0077bd"/><path d="M142.3 132.2c-1.4.2-2 .1-1.4-1.2l5.7-12.5c.3-.9.7-1 1.6-.6a8.9 8.9 0 0 0 6.2.7c.9-.2 1 .2 1.2.9l2.6 10.6c.2 1-.1 1.2-1.1 1.2Zm33.4 60.4c-3.1.8-6.2 1.8-9.4 2.4s-5.4.8-8.2 1.2c0-5.4-.8-4.5 4.1-4.8s8-.2 11.9-.2c.8 0 1.9-.1 1.6 1.4Z" fill="#e1f2ba"/><path d="M152.6 117.5h-.2c-1.4-.4-3.2-.3-4.1-1.2s.5-2.4.9-3.6a54.5 54.5 0 0 1 2.5-5.5l.4-.6a3.5 3.5 0 0 1 .5.8l1.9 7.7c.6 2.6.3 2.4-1.9 2.4Z" fill="#0077bd"/><path d="M140.5 202.8s-.2-.4.7-.4 11.8-.7 12.3-.5.4.8.3 1.1 0 .6-.9.8-11.9 1.1-12.2.8-.2-1.8-.2-1.8Z" fill="#85c400"/></svg>