<svg xmlns="http://www.w3.org/2000/svg" viewBox="0 0 300 300"><path d="m209.4 258.5-.9 1a5.2 5.2 0 0 1-.6-1.3l-4.6-33.9c-.2-1-.4-1.3-1.6-1.2l-6.7.4v-.9l6.9-.5c.3 0 .6-.3 1-.5l-1.2-.3-5.1.3c-.3 0-.7-.3-1.1-.4s.7-.5 1.1-.5l5.2-.4c.6 0 .9-.1.8-.8l-2.4-17.6-.3-.9-.3.9-2.8 13.1-1.8 7.6-.3 1.2-2.9 12.7-4.5 20.4a5.2 5.2 0 0 1-.6 1.3 10.1 10.1 0 0 1-1.3-.9l-9.6-12c-1-.9-1.4.3-2 .5l-1.3.7-11.9 6.7-.9.4c-.7.3-1 0-.9-.7l.5-1.1 14.1-35.7 8.6-21.9v-.3h-.3l-1.3.3a27.8 27.8 0 0 1-4.9-.8 2.9 2.9 0 0 1-2.3-3.3l.6-1.6a2 2 0 0 0-.8-2.8l-2.6-2.3a29.4 29.4 0 0 1-3.1-3c-2.1-2.6-2-5.4.3-7.9l.6-.6a1.9 1.9 0 0 0 .2-2.8l-1.9-2.8c-1.8-2.6-1.7-3.8.8-5.7a5.3 5.3 0 0 0 2-5.6l-.8-4.5c-.2-1.5.1-2.4 2-2.9l.8-.2a2.8 2.8 0 0 0 2.3-2.4l.6-2.9c.6-2.3 1.2-2.8 3.6-2.6a4.5 4.5 0 0 0 4.4-1.9 38.8 38.8 0 0 1 2.6-3.1c1.6-1.9 3.5-2.9 6-2s4.5 1.3 6.7 0 2.8-1.8 4.1-2.8 2.8-1.7 4.9.2a10.1 10.1 0 0 0 9.4 2.5c.8-.2 1.1-.5 1.1-1.3l.1-38.4.1-11.2.2-8.1v-6.9l.3-7.2c.1-.9 0-1.3-1.1-.9l-11.9 4c-3.2 1-3.6.7-4.1-2.7s-1-4.9-1.5-7.4a1.5 1.5 0 0 0-1.7-1.2c-9.3-.3-18.6-.1-27.9.4l-21.9 1.1-19.2.6c-10.2.2-20.4.8-30.6-.2-3.3-.3-6.6.3-9.9.6s-2.4 1-2.4 2.7v8.4l-.1 21.9-.2 5-.1 15.3-.1 1.2v18.4l-.6 47.3-.1 5.6a8.8 8.8 0 0 1-.2 1.7l-.9 17-.5 13.5-.3 4.2c-.1 1 .3 1.3 1.1 1.3l8.1.4 16 .7c8 .5 16 1.3 24 1.5 12.8.4 25.6.4 38.4.6l-.3.9-21.7-.2-23.6-.6c-10.2-.5-20.5-1.3-30.8-1.9l-7.3-.4 2.1.4 16.3 1.1c4.8.5 9.6 1.2 14.3 1.5 8.9.5 17.9.5 26.7 1.8s15.3.6 22.9.6l-.4 1c-3.4 0-6.8.1-10.3-.1-5.5-.2-11-.7-16.5-1.1l-13-.9c-7.2-.2-14.3-.9-21.4-1.6-4.5-.4-8.9-.4-13.4-.8l-10.9-1.5-.9-.3-.4-2.7.9-18.7c.5-10.1 1-20.2 1.3-30.3.3-7 .3-13.9.3-20.9l.2-46.4c0-12.8.2-25.6.4-38.5l-.1-4.9c0-1.7.7-2.7 2.5-3.1a26.4 26.4 0 0 1 4.9-.8 67.7 67.7 0 0 1 7.8.1 164.7 164.7 0 0 0 23.3.1 2.7 2.7 0 0 0 .9 0l39.9-1.5 27.1-.8h6.9a12.2 12.2 0 0 1 4.9 1.2c4.3 1.7 8.6 3.6 13.2 4.5l1.8.5a2.4 2.4 0 0 1 1.5 1.7c1.7 5.9 1.5 12 1.1 18.1l-.1 1.7a3609.2 3609.2 0 0 1-.9 52.6c0 .8-.1 1.5 1 1.8s.7.7 1 1.1a9.4 9.4 0 0 1 .6 1.5 10.8 10.8 0 0 0 7.4 7.7l3.4 1.3a3.1 3.1 0 0 1 2.1 3.3 11.4 11.4 0 0 0 3.2 8.5 17.2 17.2 0 0 1 2.6 4 5.4 5.4 0 0 1 .2 5.1 13.3 13.3 0 0 1-.9 2.1 17 17 0 0 0-1.4 11.5 20 20 0 0 1 .4 2.4 6.4 6.4 0 0 1-2.1 6l-3.6 3.1a5.5 5.5 0 0 0-2.2 4.1v.3c-.5 3.7-1.3 4.4-5.1 4.2a4.9 4.9 0 0 0-4 1.1 5 5 0 0 1-2.8.5c-1.2 0-1.4.1-1 1.2l5.8 16.3 4.5 12.7 6.9 19.4a2.9 2.9 0 0 1 .3 1c.2 1.3-.4 1.7-1.6 1.2l-12.8-5.2a17.6 17.6 0 0 0-2-.9 1.3 1.3 0 0 0-1.1.3Zm-25.8-68.2h-.1l1.5 1.2 1 .9a29.4 29.4 0 0 0 41-40.8 41.5 41.5 0 0 0-2.7-3.2 28.4 28.4 0 0 0-26.3-8.9 29.3 29.3 0 0 0-22.3 39.7 25.7 25.7 0 0 0 7.6 10.9Zm53.3-34-.4-.5a11.3 11.3 0 0 1-2.8-7.9 4.4 4.4 0 0 0-.2-1 1.9 1.9 0 0 0-1.4-2l-4.1-1.5a13 13 0 0 1-7.6-9l-.1-.4a1.2 1.2 0 0 0-1.5-.9l-2.9.5c-3.2.6-6.3.3-9-1.9-.9-.7-1.9-1.9-2.9-1.9s-2.1 1.1-3 1.9c-3.3 2.7-6.7 3.7-10.8 1.9a3 3 0 0 0-3.6.8 19.2 19.2 0 0 0-3 3.4c-1.6 2.3-3.6 3.5-6.5 2.9-.9-.3-1.3.1-1.5.9l-.7 3a4.6 4.6 0 0 1-4 4.2c-1.2 0-1.5.5-1.3 1.7l1 5.3a6.2 6.2 0 0 1-2.8 5.8l-.6.6a1.8 1.8 0 0 0-.4 2.5 22.6 22.6 0 0 0 1.6 2.6c2.1 2.8 2.3 4-.2 6.3a3.7 3.7 0 0 0-.8 4.9 12.8 12.8 0 0 0 2.3 2.9l4.1 3.5a3.3 3.3 0 0 1 1 4.1 10.3 10.3 0 0 0-.4 1.4 2.3 2.3 0 0 0 .4 1.4c1.3 1.6 5.8 1.9 7.4.5s.6-.9 0-1.4a30.6 30.6 0 0 1-9.9-20.8 72 72 0 0 1 .7-8 30.5 30.5 0 0 1 27.8-24.4 35.7 35.7 0 0 1 11.3 1.3l2.9 1.1c11.1 5.1 17.6 13.8 18.4 26s-4.8 22.9-16.3 29.4c-.4.3-1.1.7-1.1 1a4.9 4.9 0 0 0 .9 2.2c.7.7 4 .4 4.7-.3a4 4 0 0 1 3.1-1.1l1.7.2c2.4.2 3.1-.4 3.3-2.7a1.3 1.3 0 0 0 .1-.6 7.1 7.1 0 0 1 2.9-5.5 32.7 32.7 0 0 0 3.5-3 4.7 4.7 0 0 0 1.6-3.9 21.3 21.3 0 0 0-.3-2.5 17.9 17.9 0 0 1 1.6-13.4 5.6 5.6 0 0 0 .4-1.2 4.4 4.4 0 0 0 .1-4.3 29 29 0 0 0-2.7-4.1ZM161 251.6l13.1-7.3c1.6-.9 1.6-.9 2.8.5l8.4 10.6.8.7a3.1 3.1 0 0 0 .2-.8c.5-1.7 1-3.4 1.3-5l11.2-49.9c.4-1.6.4-1.6-1.2-1.9a31.4 31.4 0 0 1-12.5-5.2c-1.2-.9-1.2-.9-1.7.5L170 227.7l-9.3 23.6v.4Zm42.6-52.6h-.9c-1.8 0-1.8-.1-1.6 1.8l3.4 24.7 4.1 30.4.3 1 .8-.8 7.4-10.7a1.7 1.7 0 0 1 2.4-.7c4.3 1.9 8.7 3.6 13 5.4a3.8 3.8 0 0 0 1 .3 4.5 4.5 0 0 0-.1-1.1l-18.2-51.6c-.3-.9-.6-1-1.5-.7a29.3 29.3 0 0 1-10.1 2Zm-1.2-136.9 1.9-.5 9.6-3.1 2.4-.9.4-.3-.5-.3-.7-.2c-4.9-.8-9.4-2.9-13.9-4.8l-1.7-.4a8.3 8.3 0 0 1 .4 1.5l.4 1.3 1.1 6.5a6.7 6.7 0 0 0 .6 1.2Zm15.7 37.3h.1v18.1l.1 1.6a7.8 7.8 0 0 0 .2-1.6l.6-28.3.1-13.9V63.7a9 9 0 0 0-.3-1.6 1.7 1.7 0 0 0-.2-.5.9.9 0 0 1-.1.5c-.1 2.8-.4 5.7-.3 8.6s0 8.2-.1 12.4l-.1 16.3Z" fill="#181a15"/><path d="M168.2 224.8a6.9 6.9 0 0 0 .4-1l1.1-2.5.3-.9.5-.9 8-19.8 1.9-5.4 1.3-.3.3.2-8.6 21.9-14.1 35.7-.5 1.1c-.1.7.2 1 .9.7l.9-.4 11.9-6.7 1.3-.7a5.3 5.3 0 0 1-1.3 1.3l-15 9.3-.5.3-1.2.2a4 4 0 0 1 0-1.1l3.3-8.2 8.8-21.6Z" fill="#c2e2f0"/><path d="M197.7 50.2h-6.9l-27.1.8-39.9 1.5a2.7 2.7 0 0 1-.9 0l1.1-.3 11.9-.6c5.6-.3 11.3-.7 16.9-1.2s9.4-.9 14.1-1.1 12.2-.7 18.3-.5c4.2 0 8.3.9 12.5 1.4Z" fill="#e4eca7"/><path d="m209.4 258.5 8.6-12.4a1.3 1.3 0 0 1 1.1-.3 17.6 17.6 0 0 1 2 .9 31.1 31.1 0 0 0-2.3 2.8l-7.4 10.2a3.9 3.9 0 0 1-1 .8l-.6-1.2a3 3 0 0 1-.4-.8Z" fill="#c2e2f0"/><path d="m81.4 215.8.4 2.7a1.4 1.4 0 0 1-1.7-1.4c0-.4.8-.8 1.3-1.3Z" fill="#e4eca7"/><path d="M173.8 245.8c.6-.2 1-1.4 2-.5Z" fill="#c2e2f0"/><path d="M195 222.6v.9l-.3.3.3-1.2Zm-14.6-28.3-1.9 5.4-8 19.8-.5.9c-12.8-.2-25.6-.2-38.4-.6-8-.2-16-1-24-1.5l-16-.7-8.1-.4c-.8 0-1.2-.3-1.1-1.3l.3-4.2a18.9 18.9 0 0 0 .5-2.3c.4-5.5.9-10.9 1.1-16.4s0-9 0-13.5l.1-5.6.6-47.3v-18.4l.1-1.2a2.1 2.1 0 0 0 .4-1l.3-7.2V88.2a8.3 8.3 0 0 0-.4-1.5l.1-21.9v-8.4c-.1-2.8.5-2.5 2.4-2.7s6.6-.9 9.9-.6c10.2 1 20.4.4 30.6.2l19.2-.6 21.9-1.1c9.3-.5 18.6-.7 27.9-.4a1.5 1.5 0 0 1 1.7 1.2c.5 2.5 1.1 4.9 1.5 7.4s.9 3.7 4.1 2.7l11.9-4c1.1-.4 1.2 0 1.1.9l-.3 7.2v6.9l-.2 8.1-.1 11.2-.1 38.4c0 .8-.3 1.1-1.1 1.3a10.1 10.1 0 0 1-9.4-2.5c-2.1-1.9-2.6-1.9-4.9-.2s-2.7 1.9-4.1 2.8c-2.2-1.1-4.4-.7-6.7 0-2.5-.9-4.4.1-6 2a38.8 38.8 0 0 0-2.6 3.1 4.5 4.5 0 0 1-4.4 1.9c-2.4-.2-3 .3-3.6 2.6l-.6 2.9a2.8 2.8 0 0 1-2.3 2.4l-.8.2c-1.9.5-2.2.9-2 2.9s.6 3 .8 4.5a5.3 5.3 0 0 1-2 5.6c-2.5 1.9-2.6 3.1-.8 5.7l1.9 2.8a1.9 1.9 0 0 1-.2 2.8l-.6.6c-2.3 2.5-2.4 5.3-.3 7.9a29.4 29.4 0 0 0 3.1 3l2.6 2.3c-.3 1.5-.7 3 .2 4.4a2.9 2.9 0 0 0 2.3 3.3 27.8 27.8 0 0 0 4.9.8Zm-61.9-12.5h-3.1l-.3.2.3.4h9.6l3.2-.3.3-.4-.2-.2-3.3.5Zm67.7-96.6 11.8-1.4 3.7-.7c.3 0 .5-.5.7-.8l-.9-.2-15.1 1.3a4.5 4.5 0 0 1-2.4-.4c-1.9-1.8-3.8-1.8-6-.6s-1.4-.1-1.2-1.2a6.4 6.4 0 0 0 .6-1.8 1.5 1.5 0 0 0-.5-1.4c-.2-.2-.9.1-1.4.3s-.2.4-.4.6c-1.9 1.6-3.7 3.4-5.7 4.8a4.8 4.8 0 0 1-4.2.8c-2.2-.4-2.9-2.4-1.7-4.2s1.8-3 2.6-4.6a6.4 6.4 0 0 0 .5-2.4 1.5 1.5 0 0 0-2.3-1.5 5.5 5.5 0 0 0-2 1.7 11.6 11.6 0 0 0-2.5 7.1 2.2 2.2 0 0 1-.3 1.4 17.9 17.9 0 0 1-7.5 5.5 7.5 7.5 0 0 1-3 .3 2.1 2.1 0 0 1-1.1-3.5c1.9-2.6 3.8-5.1 5.5-7.8a19.7 19.7 0 0 0 1.8-4.2c.3-1.2.6-2.6-.7-3.6s-2.1-.3-3.5 1l-.3.2a21.6 21.6 0 0 0-6.4 14.6 1.4 1.4 0 0 1-.4 1.1l-3.5 2.3c-.9.5-1.7.2-2.3-.8s-1.5-1.8-3.2-.8l-.9.5c-1.3.7-1.4.6-1.4-.8s-.2-1.6-.6-1.7a2.6 2.6 0 0 0-1.8.5c-1 .5-1.9 1.3-2.9 1.9s-1.5.2-1.5-1a8.3 8.3 0 0 1 1.5-4.5c.4-.5.7-1.2 0-1.6s-1.2-.1-1.7.5a2.1 2.1 0 0 1-.4.6 26.1 26.1 0 0 1-7.6 7.2 10.6 10.6 0 0 1-2.5.9c-.9.2-1.5-.3-2-1.1s.2-1.1.6-1.6a66.6 66.6 0 0 0 5-5.6 33.6 33.6 0 0 0 3.5-4.9 8.3 8.3 0 0 0 1-3.5 2.4 2.4 0 0 0-3.1-2.5 7.2 7.2 0 0 0-2.5 1.2 19.1 19.1 0 0 0-7.3 14.1 3.7 3.7 0 0 1-1.6 3.4l-1.6 1.5c-3.5 2.7-6.8 5.9-11 7.5-.2 0-.5.4-.4.5a.6.6 0 0 0 .5.5 4.7 4.7 0 0 0 1.7-.2 15.1 15.1 0 0 0 3.1-1.6l9.2-7.1c.4-.2.5-.9 1.2-.3 2.2 2.2 3.7 2.6 6.3 1a61.3 61.3 0 0 0 5.1-3.8c.6-.6.9-1 1.1.3s1.9 2.6 3.8 1.8a8.2 8.2 0 0 0 2-1.2c.6-.4.9-.6 1.2.4s1.2 1.6 2.5 1.1a7.5 7.5 0 0 0 2-1c.6-.4.9-.3 1.3.4a3.1 3.1 0 0 0 4.2 1.4 14 14 0 0 0 3-1.5c.6-.4.9-.8 1.5.2a4.2 4.2 0 0 0 4.4 2.3 15.2 15.2 0 0 0 4.7-1.5 37.8 37.8 0 0 0 5.4-4.3c.6-.5.8-.6 1.3.1a5.3 5.3 0 0 0 5.7 2.1 14.6 14.6 0 0 0 4.3-1.8A13.7 13.7 0 0 0 174 83c.4-.4.6-.4 1 .1a2.6 2.6 0 0 0 3.5 1.2 11.5 11.5 0 0 1 1.7-.6 2.2 2.2 0 0 1 1.4.1 7.6 7.6 0 0 0 4.6 1.4Zm-64.7 70.1-1.5-.3c-1.8-.8-2.1-2.1-1.1-3.7l2.5-4.5a7.3 7.3 0 0 0 .6-2.1c0-.4-.2-1-.5-1.1a1.9 1.9 0 0 0-1.3 0 3.4 3.4 0 0 0-.9.8 11.5 11.5 0 0 0-2.8 7.1 2 2 0 0 1-.2 1.1c-.7 1.4-3.9 2.9-5.5 2.6s-1.6-1-2-2a1.9 1.9 0 0 1 .5-2.3 34.2 34.2 0 0 0 4.1-5.3 35.6 35.6 0 0 0 3.3-6.8c.7-1.8.2-3.1-.7-3.5s-2.4.5-3.1 1.4a23.5 23.5 0 0 0-5.9 14 1.7 1.7 0 0 1-.4 1.2 29.6 29.6 0 0 1-8.1 5.9c-.5.2-1.1.7-1.5-.1h-.5a1.7 1.7 0 0 0-.2.5c.4.3.9.8 1.2.8a5.3 5.3 0 0 0 2.5-.8c2.2-1.4 4.4-2.9 6.5-4.5s.7-.5 1.1.2c1.1 2.5 3 3.3 5.5 2.3a19.8 19.8 0 0 0 3.1-1.9c.5-.3.7-.6 1.1.1a4.8 4.8 0 0 0 4.4 2.1 11 11 0 0 0 5.8-2.3c.6-.5.9-.7 1.3.3a2.6 2.6 0 0 0 3 1.5l2.2-.7c.3 0 .9 0 1.1.2 2 1.5 3 1.6 5.1.2a2.4 2.4 0 0 1 1.3-.5l9.5-.8h5.6c.2 0 .6-.1.5-.2a1.1 1.1 0 0 0-.2-.8 5 5 0 0 0-3.8-.8c-3.6.5-7.3.8-10.9 1.1a4.7 4.7 0 0 0-3.2 1.2c-1.1 1.1-2 .9-3-.3a1.3 1.3 0 0 0-1.8-.6 6.2 6.2 0 0 1-1.9.7 2.8 2.8 0 0 1-2-.4c-.3-.3 0-1.2 0-1.8s.3-.5.3-.7a1.4 1.4 0 0 0-.3-.9c-.1-.1-.6 0-.8.2l-.6.6c-2.1 1.8-4.2 3.4-7.4 3.6Zm55.4-47.6v-.4a5.6 5.6 0 0 0-1.2-.4h-5a346.4 346.4 0 0 0-67.4 4c-.3 0-.6.3-.8.5a1.9 1.9 0 0 0 .8.3l3.4-.4a273.6 273.6 0 0 1 31.3-2.8c9.9-.3 19.8-.4 29.7-.5h8.4Zm-48.6 86.6 1.9-.3.3-.4-.5-.2-2.9-.3a1.2 1.2 0 0 1-1.1-.7c-.4-.9-1.1-1-1.9-1.1l-4.5-.2c-.7 0-1.4.1-1.1-1s-.2-.6-.4-.6a.8.8 0 0 0-.8.2l-.5.9a32.1 32.1 0 0 1-1.9 3.1l-.5.4v-.6a12.4 12.4 0 0 1 .4-1.6 22.9 22.9 0 0 0 .8-2.8 5.4 5.4 0 0 0-.3-1l-1 .5a14 14 0 0 0-1 1.6l-.7.5a1.7 1.7 0 0 0-.1-.7 4.1 4.1 0 0 1-.5-.9 3.3 3.3 0 0 0-1 .6 15.1 15.1 0 0 0-1 1.7l-.4.5-.3-.6c-.4-1-.9-1.1-1.8-.4l-.8.8-1.1.9v-1.3l-.4-1a2.1 2.1 0 0 0-1.1.4 6.1 6.1 0 0 0-.7 1l-.5.2c0-.2-.2-.4-.1-.5l.7-2.6c.2-.9-.1-.4-.1-.6s-.6.1-.6.3c-.6 1.9-1.3 3.8-1.7 5.7s.7 1.2 1.4.6 1-1.2 1.7-.1.9.1 1.3-.1a6.7 6.7 0 0 0 1.4-1.1c.5-.5.9-1.2 1.2.2s.7.6.8.5 1-.9 1.6-1 1 .9 1.7.2.7 0 .7.5-.2.5-.1.7a12.2 12.2 0 0 0 .7 1.7c.5-.3 1.2-.4 1.6-.8l1.9-2.7c.7-.9.7-.7 1-.7l5.2.4c.5 0 1.2 0 1.3.2.7 1.8 2.3 1.3 3.8 1.6Zm11.2-79.5h35.3c.5 0 1-.4 1.6-.6l-1.5-.3c-19-.2-38-.3-57 .6l-12.8.5a12.4 12.4 0 0 0-1.6.4l1.6.3Zm1.2 5.5v-.4h32.5a8.5 8.5 0 0 0 1.7-.4 4.9 4.9 0 0 0-1.6-.5h-16.9l-36.5.8-10.7.2c-1.1.1-2.2-.1-3.3-.1l-.5.3.5.2 2.7.3Zm-33.2 58.5 6-.3 11.4-.4.9-.3-.8-.2h-11.6l-8.4.5c-.3 0-.6.3-.9.5l1 .3Zm7.8 4.9h-10.2l-1.2.3 1.3.3h20.3l1.5-.3c.2 0 .2-.3.3-.5h-.5a7 7 0 0 1-1.4.3Zm1-4.5h-8.8l-.9.3.8.4h.3l16.6-.3h.5l.4-.3-.5-.2Zm-6.6 3.1h4.2a.9.9 0 0 0 .5-.3l-.5-.2h-8.3a.9.9 0 0 0-.5.3l.6.3Zm-6.1.1 1.3-.4-.8-.3-1.2.4Z" fill="#e4eca7"/><path d="M183.3 190a25.7 25.7 0 0 1-7.6-10.9 29.3 29.3 0 0 1 22.3-39.7 28.4 28.4 0 0 1 26.3 8.9 41.5 41.5 0 0 1 2.7 3.2 4.2 4.2 0 0 0 .3 1.3 30.3 30.3 0 0 1 3.1 18.2 28.9 28.9 0 0 1-43.9 21 9.4 9.4 0 0 0-1.5-.6l-1.5-1.2h.1Zm-.3-26.2c.4.8.5 2 1.2 2.4s1.5-.5 2.1-1.1l.2-.2c.2 0 .6-.1.7.1s1.9.6 2.6-.2 1.2-.8 2 0 3.5 2.2 5.6.2l1.5-1.5a1.1 1.1 0 0 1 .8-.1c1.9 1.7 4 1.4 6.1.3a1.1 1.1 0 0 1 1.5.2 3.2 3.2 0 0 0 3.5.5 25.3 25.3 0 0 0 2.3-1.2 2.5 2.5 0 0 1 1.2-.2h11a1.8 1.8 0 0 0 1-.6l-1-.3-5.4-.5h-3.3c-.7 0-1.2.2-1.4-.7s-.9-1-1.5-.4l-.9.8a24.9 24.9 0 0 1-2.8 1.5 1.9 1.9 0 0 1-1.5-.6c-.2-.1.2-.9.4-1.3a22.9 22.9 0 0 0 1.4-2.7 2.5 2.5 0 0 0-.5-1.9c-.7-.7-1.5-.2-2.1.4a6.1 6.1 0 0 0-1.7 4.1 1.4 1.4 0 0 1-.4 1.1 4 4 0 0 1-3.5.8c-1.3-.3-1.6-1.3-1-2.5l2.8-6.6a4.6 4.6 0 0 0 .3-2.3c-.1-1.1-.9-1.5-1.9-.9a3.4 3.4 0 0 0-.9.8 13.5 13.5 0 0 0-2.9 9.2 2.8 2.8 0 0 1-.5 1.6 9 9 0 0 1-1.6 1.8c-1.6 1.4-2.5 1.3-3.9-.4s-1.4-1.7-3.2-.3-.7.5-1.1-.1-1.3-1.1-2.2-.1l-.6.8-.6.5-.3-.8a10.1 10.1 0 0 1-.7-1.5Zm3.1 13 3.5-.3 34-2.7 2.9-.3.9-.5a2.9 2.9 0 0 0-1-.3H225l-9.7.8L186 176l-2 .4Zm1.2-4.2h.8l20.5-1.7c3.1-.3 6.1-.8 9.1-1.2.4-.1.7-.6 1.1-.9a4.2 4.2 0 0 0-1.5-.4 32 32 0 0 1-3.3.7c-4.2.4-8.5.5-12.7 1l-13.8 1.7c-.4.1-.6.4-1 .6Zm6.1 10.5 18.5-2.2 5.7-1c.2 0 .4-.3.6-.5l-.7-.4h-.6l-19.1 2.6-4.9.7-.5.3.6.3Zm1 4.6 9.6-1.2 6.3-1c.2 0 .4-.4.6-.6l-.8-.2-15.4 2.1a5.9 5.9 0 0 0-1.4.6Zm-8.2-7.3 9.1-.8 7.1-1 .7-.5a1.1 1.1 0 0 0-.8-.2l-6 .6-9.9 1.2c-.3 0-.5.3-.8.4Z" fill="#037cc4"/><path d="m160.7 251.3 9.3-23.6 13.4-33.9c.5-1.4.5-1.4 1.7-.5a31.4 31.4 0 0 0 12.5 5.2c1.6.3 1.6.3 1.2 1.9l-11.2 49.9c-.3 1.6-.8 3.3-1.3 5a3.1 3.1 0 0 1-.2.8l-.8-.7-8.4-10.6c-1.2-1.4-1.2-1.4-2.8-.5l-13.1 7.3Zm42.9-52.3a29.3 29.3 0 0 0 10.1-2c.9-.3 1.2-.2 1.5.7l18.2 51.6a4.5 4.5 0 0 1 .1 1.1 3.8 3.8 0 0 1-1-.3c-4.3-1.8-8.7-3.5-13-5.4a1.7 1.7 0 0 0-2.4.7l-7.4 10.7-.8.8-.3-1-4.1-30.4-3.4-24.7c-.2-1.9-.2-1.8 1.6-1.8Z" fill="#c2e2f0"/><path d="M172.3 170.1c.7 8.2 3.8 15.2 9.9 20.8.6.5.6.9 0 1.4s-6.1 1.1-7.4-.5a2.3 2.3 0 0 1-.4-1.4 10.3 10.3 0 0 1 .4-1.4 3.3 3.3 0 0 0-1-4.1l-4.1-3.5a12.8 12.8 0 0 1-2.3-2.9 3.7 3.7 0 0 1 .8-4.9c2.5-2.3 2.3-3.5.2-6.3a22.6 22.6 0 0 1-1.6-2.6 1.8 1.8 0 0 1 .4-2.5l.6-.6a6.2 6.2 0 0 0 2.8-5.8 13.7 13.7 0 0 0 .5-2.8 29.5 29.5 0 0 0-.2-4.2 4.6 4.6 0 0 0 4-4.2c1.7-.8 1.8-2.4 2.2-3.9 2.9.6 4.9-.6 6.5-2.9a19.2 19.2 0 0 1 3-3.4 3 3 0 0 1 3.6-.8c4.1 1.8 7.5.8 10.8-1.9.9-.8 2-1.9 3-1.9s2 1.2 2.9 1.9c2.7 2.2 5.8 2.5 9 1.9l2.9-.5a1.2 1.2 0 0 1 1.5.9l.1.4a13 13 0 0 0 7.6 9l5.5 3.5a4.4 4.4 0 0 1 .2 1 11.3 11.3 0 0 0 2.8 7.9l.4.5.9 3.3 1.7 5.1a5.6 5.6 0 0 1-.4 1.2 17.9 17.9 0 0 0-1.6 13.4 21.3 21.3 0 0 1 .3 2.5 4.7 4.7 0 0 1-1.6 3.9 32.7 32.7 0 0 1-3.5 3 7.1 7.1 0 0 0-2.9 5.5 1.3 1.3 0 0 1-.1.6c-.2 2.3-.9 2.9-3.3 2.7l-1.7-.2a4 4 0 0 0-3.1 1.1c-.7.7-4 1-4.7.3a4.9 4.9 0 0 1-.9-2.2c0-.3.7-.7 1.1-1 11.5-6.5 17.2-16.3 16.3-29.4s-7.3-20.9-18.4-26l-2.9-1.1a23 23 0 0 0-8.9-2.3 28.7 28.7 0 0 0-28.6 17.1 27.8 27.8 0 0 0-2.3 16.3Z" fill="#c2e2f0"/><path d="m169.7 221.3-1.1 2.5c-7.6 0-15.3.5-22.9-.6s-17.8-1.3-26.7-1.8c-4.7-.3-9.5-1-14.3-1.5l-16.3-1.1-2.1-.4 7.3.4c10.3.6 20.6 1.4 30.8 1.9l23.6.6Z" fill="#e4eca7"/><path d="M185 191.4a9.4 9.4 0 0 1 1.5.6 28.9 28.9 0 0 0 43.9-21 30.3 30.3 0 0 0-3.1-18.2 4.2 4.2 0 0 1-.3-1.3 29.4 29.4 0 0 1-41 40.8Z" fill="#c2e2f0"/><path d="M202.4 62.1a6.7 6.7 0 0 1-.6-1.2l-1.1-6.5-.4-1.3a8.3 8.3 0 0 0-.4-1.5l1.7.4c4.5 1.9 9 4 13.9 4.8l.7.2.5.3-.4.3-2.4.9-9.6 3.1ZM195 222.6l1.8-7.6 2.8-13.1.3-.9.3.9 2.4 17.6c.1.7-.2.8-.8.8l-5.2.4c-.4 0-.7.3-1.1.5s.8.4 1.1.4l5.1-.3 1.2.3c-.4.2-.7.5-1 .5l-6.9.5Z" fill="#e4eca7"/><path d="M172.3 170.1a27.8 27.8 0 0 1 2.3-16.3 28.7 28.7 0 0 1 28.6-17.1 23 23 0 0 1 8.9 2.3 35.7 35.7 0 0 0-11.3-1.3 30.5 30.5 0 0 0-27.8 24.4 72 72 0 0 0-.7 8Z" fill="#037cc4"/><path d="M218.1 99.4c0-5.5-.2-10.9.1-16.3s.3-8.3.1-12.4.2-5.8.3-8.6a.9.9 0 0 0 .1-.5 1.7 1.7 0 0 1 .2.5 9 9 0 0 1 .3 1.6v11.6l-.1 13.9-.6 28.3a7.8 7.8 0 0 1-.2 1.6l-.1-1.6V99.4Zm-47.2 49.4a29.5 29.5 0 0 1 .2 4.2 13.7 13.7 0 0 1-.5 2.8l-1-5.3c-.4-1.7.1-1.7 1.3-1.7Z" fill="#e4eca7"/><path d="M190.8 132.6c2.3-.7 4.5-1.1 6.7 0-2.2 1.3-4.4 1-6.7 0Z" fill="#c2e2f0"/><path d="M177.1 140.7c-.4 1.5-.5 3.1-2.2 3.9l.7-3c.3-1 .6-1.2 1.5-.9Z" fill="#e4eca7"/><path d="M173.2 190.2c-.9-1.4-.5-2.9-.2-4.4a2 2 0 0 1 .8 2.8Zm10.3 0 1.5 1.2Zm-1.8 3.8h.3v.3Zm1.6-4 .3.3ZM161 251.6h-.3v-.4Z" fill="#c2e2f0"/><path d="M186.2 85.2a7.6 7.6 0 0 1-4.6-1.4 2.2 2.2 0 0 0-1.4-.1 11.5 11.5 0 0 0-1.7.6 2.6 2.6 0 0 1-3.5-1.2c-.4-.5-.6-.5-1-.1a13.7 13.7 0 0 1-2.8 2.1 14.6 14.6 0 0 1-4.3 1.8 5.3 5.3 0 0 1-5.7-2.1c-.5-.7-.7-.6-1.3-.1a37.8 37.8 0 0 1-5.4 4.3 15.2 15.2 0 0 1-4.7 1.5 4.2 4.2 0 0 1-4.4-2.3c-.6-1-.9-.6-1.5-.2a14 14 0 0 1-3 1.5 3.1 3.1 0 0 1-4.2-1.4c-.4-.7-.7-.8-1.3-.4a7.5 7.5 0 0 1-2 1c-1.3.5-2.2.2-2.5-1.1s-.6-.8-1.2-.4a8.2 8.2 0 0 1-2 1.2c-1.9.8-3.4.2-3.8-1.8s-.5-.9-1.1-.3a61.3 61.3 0 0 1-5.1 3.8c-2.6 1.6-4.1 1.2-6.3-1-.7-.6-.8.1-1.2.3l-9.2 7.1a15.1 15.1 0 0 1-3.1 1.6 4.7 4.7 0 0 1-1.7.2.6.6 0 0 1-.5-.5c-.1-.1.2-.5.4-.5 4.2-1.6 7.5-4.8 11-7.5l1.6-1.5a3.7 3.7 0 0 0 1.6-3.4 19.1 19.1 0 0 1 7.3-14.1 7.2 7.2 0 0 1 2.5-1.2 2.4 2.4 0 0 1 3.1 2.5 8.3 8.3 0 0 1-1 3.5 33.6 33.6 0 0 1-3.5 4.9 66.6 66.6 0 0 1-5 5.6c-.4.5-1.1.8-.6 1.6s1.1 1.3 2 1.1a10.6 10.6 0 0 0 2.5-.9 26.1 26.1 0 0 0 7.6-7.2 2.1 2.1 0 0 0 .4-.6c.5-.6 1-1 1.7-.5s.4 1.1 0 1.6a8.3 8.3 0 0 0-1.5 4.5c0 1.2.5 1.5 1.5 1s1.9-1.4 2.9-1.9a2.6 2.6 0 0 1 1.8-.5c.4.1.6 1.1.6 1.7s.1 1.5 1.4.8l.9-.5c1.7-1 2.1-.9 3.2.8s1.4 1.3 2.3.8l3.5-2.3a1.4 1.4 0 0 0 .4-1.1c.1-5.8 2.6-10.5 6.4-14.6l.3-.2c1.4-1.3 2.6-1.7 3.5-1s1 2.4.7 3.6a19.7 19.7 0 0 1-1.8 4.2c-1.7 2.7-3.6 5.2-5.5 7.8a2.1 2.1 0 0 0 1.1 3.5 7.5 7.5 0 0 0 3-.3c3.1-1 5.4-3.2 7.5-5.5a2.2 2.2 0 0 0 .3-1.4 11.6 11.6 0 0 1 2.5-7.1 5.5 5.5 0 0 1 2-1.7 1.5 1.5 0 0 1 2.3 1.5 6.4 6.4 0 0 1-.5 2.4l-2.6 4.6c-.9 1.5-.5 3.8 1.7 4.2a4.8 4.8 0 0 0 4.2-.8c2-1.4 3.8-3.2 5.7-4.8.2-.2.2-.5.4-.6s1.2-.5 1.4-.3a1.5 1.5 0 0 1 .5 1.4 6.4 6.4 0 0 1-.6 1.8c-.2 1.1.3 1.6 1.2 1.2s4.1-1.2 6 .6a4.5 4.5 0 0 0 2.4.4l15.1-1.3.9.2c-.2.3-.4.8-.7.8l-3.7.7Zm-65-12.4c.1-1.1-.2-1.3-1.1-1l-1 .6a19.3 19.3 0 0 0-6.4 11.3 1.1 1.1 0 0 0 .1.5l.4-.3a43.7 43.7 0 0 0 7.4-9.7 5.3 5.3 0 0 0 .6-1.4Zm26.2 9.2.7-.8 4-6.3a20.4 20.4 0 0 0 .9-2.2l.2-1.4a4.8 4.8 0 0 0-1.1.9 78.6 78.6 0 0 0-3.5 5.7 18.5 18.5 0 0 0-1.2 3.3Z" fill="#0e0e08"/><path d="M121.5 155.3c3.2-.2 5.3-1.8 7.4-3.7l.6-.6c.2-.2.7-.3.8-.2a1.4 1.4 0 0 1 .3.9c0 .2-.3.4-.3.7s-.3 1.5 0 1.8a2.8 2.8 0 0 0 2 .4 6.2 6.2 0 0 0 1.9-.7 1.3 1.3 0 0 1 1.8.6c1 1.2 1.9 1.4 3 .3a4.7 4.7 0 0 1 3.2-1.2c3.6-.3 7.3-.6 10.9-1.1a5 5 0 0 1 3.8.8 1.1 1.1 0 0 1 .2.8c.1.1-.3.2-.5.2H151l-9.5.8a2.4 2.4 0 0 0-1.3.5c-2.1 1.4-3.1 1.3-5.1-.2-.2-.2-.8-.2-1.1-.2l-2.2.7a2.6 2.6 0 0 1-3-1.5c-.4-1-.7-.8-1.3-.3a11 11 0 0 1-5.8 2.3 4.8 4.8 0 0 1-4.4-2.1c-.4-.7-.6-.4-1.1-.1a19.8 19.8 0 0 1-3.1 1.9c-2.5 1-4.4.2-5.5-2.3-.4-.7-.5-.7-1.1-.2s-4.3 3.1-6.5 4.5a5.3 5.3 0 0 1-2.5.8c-.3 0-.8-.5-1.2-.8a1.7 1.7 0 0 1 .2-.5h.5c.4.8 1 .3 1.5.1a29.6 29.6 0 0 0 8.1-5.9 1.7 1.7 0 0 0 .4-1.2 23.5 23.5 0 0 1 5.9-14c.7-.9 1.7-1.9 3.1-1.4s1.4 1.7.7 3.5a35.6 35.6 0 0 1-3.3 6.8 34.2 34.2 0 0 1-4.1 5.3 1.9 1.9 0 0 0-.5 2.3c.4 1 .9 1.8 2 2s4.8-1.2 5.5-2.6a2 2 0 0 0 .2-1.1 11.5 11.5 0 0 1 2.8-7.1 3.4 3.4 0 0 1 .9-.8 1.9 1.9 0 0 1 1.3 0c.3.1.5.7.5 1.1a7.3 7.3 0 0 1-.6 2.1l-2.5 4.5c-.9 1.5-.7 2.9 1.1 3.7Zm-3.3-5.1 2.6-4.7a4.3 4.3 0 0 1-.1-.5l-.3.2c-1.1 1.6-2.1 3.1-2.1 5Zm-2.3-12.6-.4-1-1 .4-.7.7a26.6 26.6 0 0 0-5.2 11.3v.7l.7-.5a31.3 31.3 0 0 0 5.5-8.4 30.1 30.1 0 0 0 1.1-3.2Zm61-29.9-.8.3h-8.4c-9.9.1-19.8.2-29.7.5a273.6 273.6 0 0 0-31.3 2.8l-3.4.4a1.9 1.9 0 0 1-.8-.3c.2-.2.5-.5.8-.5a346.4 346.4 0 0 1 67.4-4h5a5.6 5.6 0 0 1 1.2.4Z" fill="#181a15"/><path d="M128.3 194.3c-1.5-.3-3.1.2-3.8-1.6-.1-.2-.8-.2-1.3-.2l-5.2-.4c-.3 0-.7.4-1 .7s-1.2 1.9-1.9 2.7-1.1.5-1.6.8a12.2 12.2 0 0 1-.7-1.7c-.1-.2.1-.4.1-.7s.2-1.2-.7-.5-1.2-.3-1.7-.2-1 .8-1.6 1-.8-.3-.8-.5-.7-.7-1.2-.2a6.7 6.7 0 0 1-1.4 1.1c-.4.2-1.2.3-1.3.1s-1.1-.4-1.7.1-1.6.2-1.4-.6l1.7-5.7c0-.2.4-.2.6-.3s.1.5.1.6l-.7 2.6c-.2.9.1.3.1.5l.5-.2a6.1 6.1 0 0 1 .7-1 2.1 2.1 0 0 1 1.1-.4l.4 1v1.3l1.1-.9.8-.8c.9-.7 1.4-.6 1.8.4l.3.6.4-.5a15.1 15.1 0 0 1 1-1.7 3.3 3.3 0 0 1 1-.6 4.1 4.1 0 0 0 .5.9 1.7 1.7 0 0 1 .1.7l.7-.5a14 14 0 0 1 1-1.6l1-.5a5.4 5.4 0 0 1 .3 1 22.9 22.9 0 0 1-.8 2.8 12.4 12.4 0 0 0-.4 1.6v.6l.5-.4a32.1 32.1 0 0 0 1.9-3.1l.5-.9a.8.8 0 0 1 .8-.2c.2 0 .4.4.4.6s.4 1 1.1 1l4.5.2c.8.1 1.5.2 1.9 1.1a1.2 1.2 0 0 0 1.1.7l2.9.3.5.2-.3.4Zm-25.3-2.1-.2-.2-.2.3.2.3Zm9.4-1.3v.2h.1v-.2Z" fill="#0e0e08"/><path d="m139.5 114.8-34.4.9-1.6-.3a12.4 12.4 0 0 1 1.6-.4l12.8-.5c19-.9 38-.8 57-.6l1.5.3c-.6.2-1.1.6-1.6.6h-35.3Zm1.2 5.5-32.1.4-2.7-.3-.5-.2.5-.3c1.1 0 2.2.2 3.3.1l10.7-.2 36.5-.8h16.9a4.9 4.9 0 0 1 1.6.5 8.5 8.5 0 0 1-1.7.4h-32.5Zm-33.2 58.5h-2.4l-1-.3c.3-.2.6-.5.9-.5l8.4-.5H125l.8.2-.9.3-11.4.4-6 .3Zm7.8 4.9h10.1a7 7 0 0 0 1.4-.3h.5c-.1.2-.1.5-.3.5l-1.5.3h-20.3l-1.3-.3 1.2-.3Zm1-4.5h8.4l.5.2-.4.3h-.5l-16.6.3h-.3l-.8-.4.9-.3h8.8Z" fill="#181a15"/><path d="M109.7 182.3h-4l-.6-.3a.9.9 0 0 1 .5-.3h8.3l.5.2a.9.9 0 0 1-.5.3Zm15.3 0h-6.5v-.5h6.5Z" fill="#0e0e08"/><path d="M125 182.3v-.4l3.3-.5.2.2-.3.4Zm-6.5-.5v.5h-3.1l-.3-.4.3-.2Z" fill="#181a15"/><path d="m103.6 182.4-.7-.3 1.2-.4.8.3Z" fill="#0e0e08"/><path d="m183 163.8.8-1.8a10.1 10.1 0 0 0 .7 1.5l.3.8.6-.5.6-.8c.9-1 1.5-1 2.2.1s.6.5 1.1.1 1.9-1.4 3.2.3 2.3 1.8 3.9.4a9 9 0 0 0 1.6-1.8 2.8 2.8 0 0 0 .5-1.6 13.5 13.5 0 0 1 2.9-9.2 3.4 3.4 0 0 1 .9-.8c1-.6 1.8-.2 1.9.9a4.6 4.6 0 0 1-.3 2.3l-2.8 6.6c-1 2.2-.3 2.2 1 2.5a4 4 0 0 0 3.5-.8 1.4 1.4 0 0 0 .4-1.1 6.1 6.1 0 0 1 1.7-4.1c.6-.6 1.4-1.1 2.1-.4a2.5 2.5 0 0 1 .5 1.9 22.9 22.9 0 0 1-1.4 2.7c-.2.4-.6 1.2-.4 1.3a1.9 1.9 0 0 0 1.5.6 24.9 24.9 0 0 0 2.8-1.5l.9-.8c.6-.6 1.4-.5 1.5.4s.7.7 1.4.7h3.3l5.4.5 1 .3a1.8 1.8 0 0 1-1 .6h-11a2.5 2.5 0 0 0-1.2.2 25.3 25.3 0 0 1-2.3 1.2 3.2 3.2 0 0 1-3.5-.5 1.1 1.1 0 0 0-1.5-.2c-2.1 1.1-4.2 1.4-6.1-.3a1.1 1.1 0 0 0-.8.1l-1.5 1.5c-2.1 2-3.7 2-5.6-.2s-1.2-.8-2 0-1.6 1.2-2.6.2-.5-.1-.7-.1l-.2.2c-.6.6-1.2 1.7-2.1 1.1s-.8-1.7-1.2-2.5Zm19.7-11.3-2.2 5.2c-.1.1 0 .3 0 .4l.3-.2 1.9-5.4Zm-16.6 24.3-2.1-.4 2-.4 29.3-2.6 9.7-.8h1.4a2.9 2.9 0 0 1 1 .3l-.9.5-2.9.3-34 2.7-3.5.3Zm1.2-4.2-.8-.3c.4-.2.6-.5 1-.6 4.6-.6 9.2-1.3 13.8-1.7l12.7-1a32 32 0 0 0 3.3-.7 4.2 4.2 0 0 1 1.5.4c-.4.3-.7.8-1.1.9-3 .4-6 .9-9.1 1.2l-20.5 1.7Zm6.1 10.5h-.4l-.6-.3.5-.3 4.9-.7 19.1-2.6h.6l.7.4c-.2.2-.4.5-.6.5l-5.7 1-18.5 2.2Zm1 4.6-1.1-.3a5.9 5.9 0 0 1 1.4-.6l15.4-2.1.8.2c-.2.2-.4.6-.6.6l-6.3 1Zm-8.2-7.3-.6-.3c.3-.1.5-.4.8-.4l9.9-1.2 6-.6a1.1 1.1 0 0 1 .8.2l-.7.5-7.1 1Zm-65-107.6a5.3 5.3 0 0 1-.6 1.4 43.7 43.7 0 0 1-7.4 9.7l-.4.3a1.1 1.1 0 0 1-.1-.5 19.3 19.3 0 0 1 6.4-11.3l1-.6c.9-.3 1.2-.1 1.1 1Zm26.2 9.2v-.8a18.5 18.5 0 0 1 1.2-3.3c1.1-2 2.3-3.9 3.5-5.7a4.8 4.8 0 0 1 1.1-.9l-.2 1.4a20.4 20.4 0 0 1-.9 2.2l-4 6.3Zm-31.5 55.6a30.1 30.1 0 0 1-1.1 3.2 31.3 31.3 0 0 1-5.5 8.4l-.7.5v-.7a26.6 26.6 0 0 1 5.2-11.3l.7-.7 1-.4Zm2.4 12.6c0-1.9 1-3.4 2.1-5l.3-.2a4.3 4.3 0 0 0 .1.5l-2.6 4.7Zm-.1 0h.1-.1zm-15.2 42-.2.4-.2-.3.2-.3Zm9.4-1.3h.1v.2h-.1Z" fill="#e4eca7"/><path d="m202.7 152.5-1.9 5.4-.3.2c0-.1-.1-.3 0-.4l2.2-5.2Zm0 0Z" fill="#037cc4"/></svg>