<svg xmlns="http://www.w3.org/2000/svg" viewBox="0 0 61 40" fill="none">
  <path fill="#FFF5E9" d="M.084 0h60v40h-60z" />
  <path
    fill="#000"
    fillOpacity=".08"
    d="M10.084 3.565h42.928v2.638H10.084z"
  />
  <path
    fill="#57534F"
    d="M18.77 17.52a.235.235 0 0 0 .204-.12.265.265 0 0 0 .032-.117.212.212 0 0 0-.033-.123l-2.218-3.837a.249.249 0 0 0-.21-.12.248.248 0 0 0-.21.12l-2.218 3.837a.216.216 0 0 0-.033.123.26.26 0 0 0 .033.117.235.235 0 0 0 .204.12h4.449Zm-2.225-.72a.233.233 0 0 1-.17-.069.231.231 0 0 1-.07-.17c0-.068.023-.125.07-.171a.23.23 0 0 1 .17-.07c.068 0 .125.024.171.07a.231.231 0 0 1 .07.17.232.232 0 0 1-.07.172.231.231 0 0 1-.17.068Zm0-.719a.233.233 0 0 1-.17-.07.232.232 0 0 1-.07-.17v-.72c0-.067.023-.124.07-.17a.231.231 0 0 1 .17-.07c.068 0 .125.024.171.07a.231.231 0 0 1 .07.17v.72a.232.232 0 0 1-.07.171.231.231 0 0 1-.17.069Z"
  />
  <path
    fill="#FFD59D"
    d="M14.084 20.52h24.178v2.638H14.084zM14.084 24.158h15.317v2.638H14.084z"
  />
  <rect
    width="42.1"
    height="18.693"
    x="10.534"
    y="10.653"
    stroke="#FFBB62"
    strokeWidth=".9"
    rx="1.55"
  />
  <path
    fill="#000"
    fillOpacity=".08"
    d="M10.084 33.797h42.928v2.638H10.084z"
  />
</svg>
