<svg xmlns="http://www.w3.org/2000/svg" viewBox="0 0 61 40" fill="none">
  <path fill="#FFF5E9" d="M.084 0h60v40h-60z" />
  <path fill="#000" fillOpacity=".08" d="M8.584 3.712h42.928V6.35H8.584z" />
  <path fill="#FFDDB2" d="M8.584 9.35h43v21.3h-43z" />
  <path
    stroke="#57534F"
    d="M34.833 16.528c1.546 2.113.822 5.444-1.869 7.411-2.69 1.967-6.084 1.647-7.63-.467-1.545-2.113-.82-5.444 1.87-7.411 2.69-1.967 6.084-1.647 7.63.467Z"
  />
  <circle
    cx="29.782"
    cy="15"
    r="1.518"
    fill="#FFBB62"
    stroke="#9E8461"
    strokeWidth=".58"
  />
  <circle
    cx="35.618"
    cy="18.062"
    r="1.518"
    fill="#FFBB62"
    stroke="#9E8461"
    strokeWidth=".58"
  />
  <circle
    cx="33.319"
    cy="23.811"
    r="1.518"
    fill="#FFBB62"
    stroke="#9E8461"
    strokeWidth=".58"
  />
  <circle
    cx="26.878"
    cy="24.616"
    r="1.518"
    fill="#FFBB62"
    stroke="#9E8461"
    strokeWidth=".58"
  />
  <circle
    cx="24.636"
    cy="19.039"
    r="1.518"
    fill="#FFBB62"
    stroke="#9E8461"
    strokeWidth=".58"
  />
  <path
    fill="#000"
    fillOpacity=".08"
    d="M8.584 33.65h42.928v2.638H8.584z"
  />
</svg>
