<svg width="337" height="170" fill="none" xmlns="http://www.w3.org/2000/svg"><path fill="#fff" d="M0 0h337v170H0z"/><path stroke="#EDEDED" stroke-width="2" d="M71 0v170M177 0v170"/><circle cx="34.5" cy="25.5" r="12.5" fill="#2FCEB1" fill-opacity=".2"/><text fill="#404040" style="white-space:pre" font-family="Karla" font-size="22.2" font-weight="bold" letter-spacing="-.05em"><tspan x="30.544" y="32.382">1</tspan></text><circle cx="122.5" cy="25.5" r="12.5" fill="#2FCEB1" fill-opacity=".2"/><text fill="#404040" style="white-space:pre" font-family="Karla" font-size="22.2" font-weight="bold" letter-spacing="-.05em"><tspan x="115.779" y="32.382">2</tspan></text><circle cx="256.5" cy="25.5" r="12.5" fill="#2FCEB1" fill-opacity=".2"/><text fill="#404040" style="white-space:pre" font-family="Karla" font-size="22.2" font-weight="bold" letter-spacing="-.05em"><tspan x="249.595" y="32.382">3</tspan></text><g stroke="#404040" stroke-width="3"><path d="M36.63 105.29l12.25-12.249M21.041 120.879L33.29 108.63M36.63 105.29l12.25-12.249M21.041 120.879L33.29 108.63M36.63 108.63l12.25 12.249M36.63 108.63l12.25 12.249M36.63 105.29l12.25-12.249M36.63 105.29l12.25-12.249M36.63 108.63l12.25 12.249M36.63 108.63l12.25 12.249M33.29 105.29L21.04 93.041"/></g><g stroke="#404040" stroke-width="3"><path d="M20 115.621V98.299M49.92 115.621V98.299M43.621 121.92H26.3M43.621 92H26.3"/></g><g stroke="#404040" stroke-width="3"><path d="M121.143 106.7l-12.249 12.248M106.109 121.732l-12.248 12.249M121.143 106.7l-12.249 12.248M106.109 121.732l-12.248 12.249M151.764 76.078l-12.249 12.249M136.732 91.11l-12.248 12.249M124.482 106.7l12.249 12.248M139.516 121.732l12.248 12.249M124.482 106.7l12.249 12.248M139.516 121.732l12.248 12.249M93.861 76.078l12.249 12.249M108.895 91.11l12.248 12.249"/></g><g stroke="#404040" stroke-width="3"><path d="M93.002 83.661v17.322M93 108.858v17.322M152.842 83.66v17.323M152.842 108.858v17.322M101.66 134.841h17.322M126.859 134.841h17.323M101.66 75h17.322M126.859 75h17.323"/></g><g stroke="#404040" stroke-width="3"><path d="M212 68.48v16.535M212 96.038v17.322M212 124.384v17.322M301.762 68.48v16.535M301.762 96.038v17.322M301.762 124.384v17.322M293.494 61h-16.535M265.936 61h-17.323M237.59 61h-17.322M293.494 149.973h-16.535M265.936 149.973h-17.323M237.59 149.973h-17.322"/></g><g stroke="#404040" stroke-width="3"><path d="M255.213 107.157l-12.249 12.248M240.18 122.189l-12.249 12.249M225.146 137.222l-12.248 12.248M255.213 107.157l-12.249 12.248M240.18 122.189l-12.249 12.249M225.146 137.222l-12.248 12.248M300.865 61.503l-12.248 12.249M285.834 76.535l-12.249 12.249M270.801 91.568l-12.249 12.248M258.553 107.157l12.248 12.248M273.584 122.189l12.249 12.249M288.617 137.222l12.249 12.248M258.553 107.157l12.248 12.248M273.584 122.189l12.249 12.249M288.617 137.222l12.249 12.248M212.898 61.503l12.249 12.249M227.932 76.535l12.248 12.249M242.963 91.568l12.249 12.248"/></g></svg>