<svg width="337" height="170" fill="none" xmlns="http://www.w3.org/2000/svg"><path fill="#fff" d="M0 0h337v170H0z"/><path stroke="#EDEDED" stroke-width="2" d="M71 0v170M177 0v170"/><circle cx="34.5" cy="25.5" r="12.5" fill="#2FCEB1" fill-opacity=".2"/><text fill="#404040" style="white-space:pre" font-family="Karla" font-size="22.2" font-weight="bold" letter-spacing="-.05em"><tspan x="30.544" y="32.382">1</tspan></text><circle cx="122.5" cy="25.5" r="12.5" fill="#2FCEB1" fill-opacity=".2"/><text fill="#404040" style="white-space:pre" font-family="Karla" font-size="22.2" font-weight="bold" letter-spacing="-.05em"><tspan x="115.779" y="32.382">2</tspan></text><circle cx="256.5" cy="25.5" r="12.5" fill="#2FCEB1" fill-opacity=".2"/><text fill="#404040" style="white-space:pre" font-family="Karla" font-size="22.2" font-weight="bold" letter-spacing="-.05em"><tspan x="249.595" y="32.382">3</tspan></text><g stroke="#404040" stroke-width="3"><path d="M230.762 99.186L217.84 86.265M253.08 76.868l-12.921-12.922M253.08 86.264l-12.921 12.922M227.439 60.623l-12.921 12.922M252 121h-18M275 80v18M214.264 104.9l12.921 12.921M258.902 60.262l12.922 12.922M258.902 117.821l12.922-12.921M214.264 73.184l12.921-12.922M254 53h-18M278 53h-18M254 153h-18M278 153h-18M207 106v18M207 82v18M307 106v18M307 82v18M214.654 73.367l12.922-12.922M287.168 145.902l12.921-12.922M287.178 60.456l12.921 12.921M214.643 132.97l12.921 12.921"/></g><g stroke="#404040" stroke-width="3"><path d="M110.408 114.307l-12.921-12.922M132.729 91.988l-12.922-12.921M132.727 101.385l-12.922 12.922M107.086 75.744L94.165 88.665M132 73h-18M132 136h-18M91 95v18M154 95v18M93.912 120.021l12.922 12.921M138.549 75.383l12.921 12.921M138.549 132.942l12.921-12.921M93.912 88.304l12.922-12.921"/></g><g><g stroke="#404040" stroke-width="3"><path d="M30.62 121.939l-12.922-12.921M52.94 99.62L40.017 86.7M52.938 109.018l-12.922 12.921M30.62 86.699L17.697 99.621"/></g></g></svg>