<svg width="337" height="170" fill="none" xmlns="http://www.w3.org/2000/svg"><path fill="#fff" d="M0 0h337v170H0z"/><path stroke="#EDEDED" stroke-width="2" d="M71 0v170M177 0v170"/><circle cx="34.5" cy="25.5" r="12.5" fill="#2FCEB1" fill-opacity=".2"/><text fill="#404040" style="white-space:pre" font-family="Karla" font-size="22.2" font-weight="bold" letter-spacing="-.05em"><tspan x="30.544" y="32.382">1</tspan></text><circle cx="122.5" cy="25.5" r="12.5" fill="#2FCEB1" fill-opacity=".2"/><text fill="#404040" style="white-space:pre" font-family="Karla" font-size="22.2" font-weight="bold" letter-spacing="-.05em"><tspan x="115.779" y="32.382">2</tspan></text><circle cx="256.5" cy="25.5" r="12.5" fill="#2FCEB1" fill-opacity=".2"/><text fill="#404040" style="white-space:pre" font-family="Karla" font-size="22.2" font-weight="bold" letter-spacing="-.05em"><tspan x="249.595" y="32.382">3</tspan></text><path d="M123.139 102V78M92.139 102V78M119.139 74h-24M119.139 105h-24M153.139 102V78M150.139 74h-24M150.139 105h-24M123.139 132v-24M92.139 132v-24M119.139 136h-24M153.139 132v-24M150.139 136h-24" stroke="#404040" stroke-width="3"/><g stroke="#404040" stroke-width="3"><path d="M241.666 88.381V64.286M211 88.381V64.286M238.381 61h-24.095M238.381 91.667h-24.095M238.381 122.333h-24.095M272.334 88.381V64.286M269.047 91.667h-24.095M241.666 119.048V94.952M211 119.048V94.952M272.334 119.048V94.952M269.047 122.333h-24.095M269.047 61h-24.095M299.715 91.667H275.62M303 119.048V94.952M299.715 122.333H275.62M241.666 149.714v-24.095M211 149.714v-24.095M238.381 153h-24.095M272.334 149.714v-24.095M269.047 153h-24.095M303 88.381V64.286M299.715 61H275.62M303 149.714v-24.095M299.715 153H275.62"/></g><g stroke="#404040" stroke-width="3"><path d="M50.666 119.048V94.952M20 119.048V94.952M47.38 91.667H23.287M47.38 122.333H23.287"/></g></svg>