<svg width="337" height="170" fill="none" xmlns="http://www.w3.org/2000/svg"><path fill="#fff" d="M0 0h337v170H0z"/><path stroke="#EDEDED" stroke-width="2" d="M71 0v170M177 0v170"/><circle cx="34.5" cy="25.5" r="12.5" fill="#2FCEB1" fill-opacity=".2"/><text fill="#404040" style="white-space:pre" font-family="Karla" font-size="22.2" font-weight="bold" letter-spacing="-.05em"><tspan x="30.544" y="32.382">1</tspan></text><circle cx="122.5" cy="25.5" r="12.5" fill="#2FCEB1" fill-opacity=".2"/><text fill="#404040" style="white-space:pre" font-family="Karla" font-size="22.2" font-weight="bold" letter-spacing="-.05em"><tspan x="115.779" y="32.382">2</tspan></text><circle cx="256.5" cy="25.5" r="12.5" fill="#2FCEB1" fill-opacity=".2"/><text fill="#404040" style="white-space:pre" font-family="Karla" font-size="22.2" font-weight="bold" letter-spacing="-.05em"><tspan x="249.595" y="32.382">3</tspan></text><g stroke="#404040" stroke-width="3"><path d="M274 49h22M299 74V52M271 74V52M243 74V52M274 105h22M271 102V80M246 49h22M243 102V80M299 102V80M246 133h22M243 130v-22M246 161h22M218 49h22M274 133h22M299 130v-22M215 130v-22M215 74V52M215 102V80M274 161h22M299 158v-22M218 161h22M215 158v-22"/></g><g stroke="#404040" stroke-width="3"><path d="M126 63h22M151 88V66M123 88V66M95 88V66M126 119h22M123 116V94M98 63h22M95 116V94M151 116V94M98 147h22M95 144v-22M126 147h22M151 144v-22"/></g><g stroke="#404040" stroke-width="3"><path d="M24 74h22M49 99V77M21 99V77M24 130h22M49 127v-22M21 127v-22"/></g></svg>