<svg viewBox="0 0 1855 74" fill="none" xmlns="http://www.w3.org/2000/svg">
  <path d="M1406.2 1.5c.2 1 .5 1.4 1.3 1.2.8 0 1.1.1 1.1.5 0 .8 1.1.9 2.1.3.6-.4 1.3-.4 3.1-.3 2.3.2 3.4.7 1.6.7-.4 0-.6 0-.3.2.2.2 0 .5-.3.7-.6.4-.4.6.7.8.8.2 1.5.6 1.5 1 0 .5.3.6 1.5.5 1.2-.1 1.4 0 1 .2-.3.3.2.5 2 .6 1.6 0 2.3.3 2.3.6s.7.6 1.5.8c.9.2 1.3.5 1 .6h.8c1-.1 1.3 0 1.3.3s.8.7 1.9.9c1 .1 2 .6 2.3 1 .4.6 1 .8 2.3.8 1.3 0 2.1.2 2.7.6.4.4 1.4.7 2.2.8 1.2.1 1.5.4 1.5 1.2 0 1.2-1.5 2-3 1.6-.5-.1-.6-.4-.4-.7.5-.4-.4-.6-1.4-.3-.8.3-5.8.3-5.8 0 0-.2-.4-.1-.7 0-.5.3-.3.6.8 1 1 .2 1.4.4 1 .4l-2-.4c-1.7-.6-3.7-.3-3.7.4 0 .3-.5.5-1.7.5-1 0-2.4.2-3.1.5-.9.4-2 .5-2.9.4-.9 0-1.4 0-1.4.3 0 .2-.5.3-1.2.3-.6 0-1.1.1-1.1.3 0 .5-2.7 1.3-4.7 1.3-2.1 0-5.2.7-5.2 1.3 0 .1-.4.2-.9 0-.5 0-.7 0-.4.1.5.3-.2.7-2.1 1-1.2.3-1.6.6-1.8 1.9-.1 1-.5 1.6-1.1 1.6-.6 0-1 .3-1 .7 0 .5.6.7 2 .8l1 .2c-1.3 0-1.3 1.3 0 1.3a8 8 0 002.3-.5c.8-.3 2-.5 2.7-.4 1 0 1.7 0 2.2-.5.4-.3 1.9-.6 3.3-.8 1.6-.1 3-.5 3.5-.9s2-.8 3.3-1c1.2-.2 2.2-.5 2.2-.7a61.8 61.8 0 009.5-1.5 64 64 0 018.2-1.1c.3 0 .6-.2.6-.4 0-.3.5-.4 2-.3 1.3 0 2.4 0 3.4-.4s2.4-.5 4.6-.5c2.6 0 3.4-.2 4.2-.7a6 6 0 011.7-.8c.7-.1 1-1.2.7-3.1 0-.5-.6-.8-2.2-1-1.1-.2-2-.5-1.7-.7.2-.1-.4-.5-1.2-.8-1-.3-1.6-.6-1.6-.8 0-.1-.7-.3-1.6-.4-1.3-.1-1.5-.3-1.1-.8.4-.5.2-.6-1-.5-1.2.2-1.7 0-2.5-.6-.6-.4-1.8-.9-2.8-1-1 0-1.7-.3-1.7-.6 0-.4-.3-.5-2-.3-1.8.1-2 0-1.5-.5.4-.5.2-.7-1.7-.8-1.7-.1-2.4-.4-3.2-1.2-.5-.5-1.4-1-2-1-.5 0-1-.2-1-.4s-.5-.4-1.1-.4c-.7 0-1.2 0-1.2-.2s-.5-.3-1.1-.3c-.6 0-1.6-.2-2-.5-.6-.3-1.7-.5-2.6-.5l-4.3-.3c-2.4-.3-2.7-.4-2-.7.8-.3.7-.3-.3-.2-1 .1-1.4 0-1.4-.3s-.3-.5-.7-.5c-.5 0-.8-.2-.8-.4s-.6-.4-1.3-.5c-1.2 0-1.3 0-1 1.3zm-203 3.5c0 .5-1.8.7-3.2.4-1.4-.3-2.1 0-1.7.5.5.7-.8.7-2.2 0a9.5 9.5 0 00-5.6-.3c-1 .3-1 .4.2.7 1.2.3 1.4.3 1.6-.2.3-.5.3-.5 1.2.1.6.4 1.7.6 3.4.7 1.5 0 2.4.2 2.4.5 0 .5 1.6.4 2-.2.3-.3 1-.5 1.5-.5.6 0 1-.2 1-.4 0-.7 1.3-.4 2.1.5.7.7.6 1-.3 1.3-1 .3-.9.4 2 .3a21 21 0 004.3-.3c.6-.2 1.5-.4 2-.3.6 0 2 0 3.1-.2 1.5-.1 2.1-.4 2.1-.8 0-.7.1-.7 3.2-.2 1.6.3 2.5.3 2.7.1.2-.1 1.2-.2 2.4-.1l2.7-.1c.3-.2 1.1-.3 1.9-.3 1.6 0 2.5-.9 1.3-1.3a13.9 13.9 0 00-4.5 0c.5 0 1 .2 1 .3 0 .1-.6.2-1.2.1-.8 0-1.1 0-1.1.4s-.5.5-2 .5c-1.6 0-1.8 0-1.2-.4 1.4-.5-.6-.9-4.6-.7-2 0-4.3 0-5.4-.2-1.7-.2-1.8-.2-1.6.4.1.4.6.8 1 .9 1.6.3-1.1 1-3.3.8-1.5 0-2-.3-2-.7 0-.4.4-.6.8-.6s.8 0 .8.2.3.3.7.3c.5 0 .4-.3-.1-.7-1-.7-1.4-.7-2.7-.3a4 4 0 01-2.4-.1c-1.7-.6-2.4-.6-2.4-.1zm32 .2c-1.2.4-1.2 1.3 0 1.2a5 5 0 012 .2c.8.3.5.4-2 .4-1.8 0-3.2 0-3.2.2s-.9.3-2 .2c-2.6 0-5.2.4-4.5.8.3.2 2 .3 3.9.3 2.6 0 3.3 0 3-.4-.4-.3-.1-.3 1.9 0a9 9 0 012.3.4h2c1.2 0 1.8 0 1.8.3s.1.3.7 0c.5-.3.8-.3 1.2 0 .6.3 2 .3 2 0 0-.2-.6-.3-1.2-.3s-1.4-.2-1.7-.4c-.3-.1-1.1-.4-1.8-.4-.9-.2-.8-.2.2-.2 1.6 0 1.9-.5.3-.5a3 3 0 01-1.5-.4c-.5-.5.4-.5 1.5-.2a6 6 0 002.7 0c1.6-.3 1.8-.4 1-.7-.6-.1-2.2-.3-3.6-.3l-3.3-.2c-.5-.2-1-.2-1.7 0zm-52.4.5c-.3.2-.5.5-.4.7.1.3-.5.6-1.3.7-1 .2-1.6.3-1.6.1 0-.4-2.8-.3-3.3.1-.3.3 1 .6 3.5.8.2 0 .7 0 1 .2 1 .4 2.6-.4 2.6-1.2 0-.5.5-1 1.1-1 .9 0 .9-.1 0-.4-.8-.2-1.1-.2-1.6 0zm-15.4.2c-1 .2.5 1.3 1.8 1.3.7 0 1.2-.2 1.2-.5s.6-.5 2-.6c1.7 0 1.4 0-1-.2h-4zm10.4 0c-.2 0 .1.3.8.6.9.3 1.4.4 1.8.1 1-.5-1.4-1.2-2.6-.8zm-144 1c-.2.3-.9.6-1.5.6-1.3 0-2 1.2-.8 1.4.6 0 1.9 0 3-.3 1.5-.3 2-.6 2-1.4 0-1.2-1.9-1.4-2.7-.4zm6.5-.4c0 .3-.6.6-1.3.8-1 .4-1 .5-.4.7.7.3 1.2.2 2.2-.1.8-.3 1-.4.4-.4-1.6 0-1-.5.6-.6h1.6l-1.6-.4c-1.3-.3-1.5-.3-1.5 0zm8 0c-.3 0-.4.3-.1.4.6.2 1.4-.1 1-.5-.2-.3-.4-.3-.9 0zm3.4 0c0 .3.6.5 1.5.5 2 0 1.6-.6-.3-.8-.7 0-1.2.1-1.2.3zm24.3 0s-.6.2-1.3.2c-.7 0-1.9.1-2.5.3-1 .2-1 .2 0 .1a6 6 0 012 .3c.8.4 1 .4 2.5 0 1.9-.6 2.1-1.2.5-1.2-.7 0-1.2.1-1.2.2zm6.1-.2c0 .2.7.5 1.5.7.9.3 1.6.4 1.6.2 0 0-.7-.4-1.6-.6-.8-.3-1.5-.4-1.5-.3zM1186 7c-1.4 1.2 1 1.6 2.7.4.7-.5.7-.7 0-.9-1.6-.3-1.8-.3-2.7.5zm59.3 0c-.5.1-.7.3-.5.4.7.2 2.6-.1 2.6-.5 0-.5-.9-.4-2 0zm-216.6.2l.7.4c.2 0 .3-.2.3-.4s-.3-.4-.7-.4c-.4 0-.6.2-.3.4zm145.7.4c0 .3.2.5.4.3s.2-.5 0-.7c-.2-.1-.4 0-.4.4zm46.9.1c.3.5.6.6 1.4.4 1.5-.5 1.3-1-.3-1-1.1 0-1.4.1-1.1.6zm-194.2.1c-.3.1-.2.3.3.4l1.1-.1c.3-.1.1-.3-.3-.4l-1.1.1zm16.3 0c.6 0 1.4.2 1.8.4.4.2.5.1.3-.1s-1-.4-1.8-.5c-1 0-1.1 0-.3.1zm213.4 0c-.3.2-.2.4.3.5 1.2.1 1.2.7 0 .9-.8 0-.8.2-.2.6 1 .5 5 .8 5 .3 0-.1-.4-.2-.9-.2-1 0-3.2-1.8-2.6-2 .3-.2.1-.3-.3-.3s-1 .1-1.3.3zm-193.2.3l.8.2c.2 0 .3 0 .3-.2s-.4-.3-.8-.3-.6.1-.3.3zm3.9-.1c-.3 0-.5.4-.5.8 0 .6.2.6 3.4.5 4.5-.2 4.8-.3 2.6-1a13 13 0 00-5.5-.3zm-53.2.8c-.9 1.2 2.3 1.9 4 .8.6-.4.6-.5 0-.4-.4.1-1.2 0-1.7-.3-1.2-.7-1.9-.7-2.3-.1zm7.6-.3c-1.6.2-1.8.6-.2.6.6 0 1.1.1 1.1.2 0 .2.7.2 1.6.1 3.2-.3.9-1.1-2.5-.9zm38.2 0c0 .2 2.5.8 3.3.9 1 0 .5-.8-.7-1-1.5-.1-2.6-.1-2.6.1zm10.7.2c0 .2-.7.4-1.5.4-.9 0-1.5-.2-1.5-.4s.6-.4 1.5-.4c.8 0 1.5.2 1.5.4zm-21.1.2c.1.2.7.3 1.2.4.5 0 .7 0 .4-.3-.5-.5-2.1-.6-1.6-.1zm203.2.4c-1.5.2-1.1.5.5.5.9 0 1.6-.2 1.6-.4 0-.3-.5-.3-2.1-.1zm-311.5 1.2c0 .2-1.4.3-4.6.2a24 24 0 00-6.8.5c0-.4-3-.6-4-.3-.6.2-.5.4.1.6.6.2.7.5.4.7-.4.2-.7.2-1-.2-.4-.2-1-.5-1.3-.5-.4 0-1.3 0-2-.2a19 19 0 00-3.3 0c-1 0-1.8 0-1.8-.2 0-.1-.4-.2-.8 0-.4 0-.8.3-.8.6s.4.5.8.5.8.2.8.4.5.4 1.1.4c.6 0 1.1.1 1.1.3 0 .6-1.2.5-1.8 0-.3-.2-1-.3-1.6-.2-.9 0-1.4-.1-2-.7l-.8-.8-1.6.5c-1.2.5-1.8.5-2.9.3-.7-.2-1.6-.2-2-.1-.7.2.7 1 2.7 1.3 3 .5 2.7 2.2-.4 1.8-.5 0-1 0-1 .3 0 .2.8.3 2.7.3 1.5 0 2.7-.2 2.7-.3h1.5c1.9.2 3.6-.2 4.8-1 1.2-.8 4-1 3.2-.3-.6.7.8 1 2.3.6.8-.2 1-.2 1 0 0 .1 1 .3 2 .3 1.7 0 2-.1 1.5-.5-.3-.4-.2-.5.7-.4.6 0 1 .3.7.5-.2.2 0 .4.8.4.7 0 1.2-.2 1.2-.3 0-.1 1.2-.3 2.5-.3 3.8 0 4.7-.3 3.8-1.1-.5-.4-.8-.6-.9-.4 0 .6-1.7.8-3 .5-.8-.1-.7-.2.3-.4s1-.3.5-.5c-.5 0-.9-.4-.9-.7 0-.5-.1-.5-.7-.2-.7.4-.8.3-.8 0s.6-.5 1.5-.5c1.5 0 3.8.6 3.8 1 0 .2.9.4 2 .6 1 0 1.8.4 1.8.6 0 .4 2.5.7 3.7.4h11.2c1.3-.3 1.5-1 .4-1.4-.4-.2-.2-.4.5-.7 1.1-.3 1.2-.3.8 0-.3.3 0 .7.6.9.6.2 1.1.5 1.1.6 0 .6 3 .3 3.8-.3 1-.9 1-1-.3-1-1.2 0-2.3-1-1.2-1.2 1.2 0 .9-.5-.5-.5-.6 0-1.4.2-1.6.5-.5.6-1.4.7-3.1 0-1.2-.3-1.3-.3-1.5.1-.2.3-.7.4-1.4.3-.6 0-1 0-1 .3 0 .5-2.1 1.2-2.5.8-.2-.2-.8-.2-2 0-1 .2-2 .3-2.2.2-.7-.3 2.2-1.2 3.7-1.2 2 0 1-.6-1.4-1-1.8-.2-2.2-.2-3 .2-1 .4-1 .4-1 0 0-.3-.7-.5-2.3-.5-1.3 0-2.3.2-2.3.4zm2.3 1.3c0 .4-.2.4-1.1.1-.7-.1-1.2-.3-1.2-.4h1.2c.6 0 1.1.1 1.1.3zm-45 .3c-.4.2-.7.3-.6.4 3 .2 3.7.1 3.7 0 0-.2.6-.3 1.2-.2.8 0 1.1 0 1-.2-.5-.4-4.2-.5-5.2 0zm489 0c-.2.2 0 .3.4.3.5 0 .8 0 .8-.2s-.1-.3-.3-.3c-.2 0-.6.1-.8.3zm2.5 0c-1.3.4 5.2 2.1 7 1.8.2 0 1 0 1.5.2.8.3.7.4-.2.4-.7 0-1.2 0-1.2.2 0 .3 1.7.8 2.5.8.5 0 .6 0 .3-.1s-.1-.4.3-.7c.6-.4.5-.6 0-.9-.6-.1-.7-.4-.5-.6.3-.1.3-.2 0-.2-2.3.1-4.1-.1-4.1-.5s-.2-.3-1.5 0c-1.3.5-1.6.5-1.6.1s-1.8-.7-2.5-.5zm-443.5 1.2c0 .2-.3.4-.7.4a.9.9 0 01-.8-.8c0-.6.2-.8.8-.5.4.3.7.6.7.9zm411.6-1h1.5l-1-.1c-.9 0-1 0-.5.2zm-471.3.6c-.8 0-2 .2-2.5.4-.5.1-1.4.2-2 0a3 3 0 00-2.1.8c-1.3 1.1-.2 3.2 1.6 3.2 1.6 0 3.9-.6 3.9-1a45.9 45.9 0 0012.7 0c2.8-.4 3-.6 1.3-1.2-.6-.2-1.1-.6-1.1-.8 0-.3.3-.3 1.6 0 .8.1 1.4.4 1.2.6-.5.4.7 1 1.7.8.4-.1.8-.4.8-.6 0-.3.5-.4 2-.2 1.6.1 1.8 0 1.8-.6s-.2-.6-2-.5c-1.2.1-2.3.3-2.4.5l-1 .2c-1 0 0-1 1.2-1.3.6-.2.5-.2-.1-.2-.5 0-1.1 0-1.4.2-.3.2-1.2.3-2 .2-1-.1-2.2 0-3.3.5-2.2.7-3.3.8-3.4.1 0-1.2-.3-1.3-1.7-1h-1.4c0-.3-.8-.3-3.4-.1zm24.9.4c-.5.1-1.2.2-1.5 0-.3 0 0-.2.6-.3 1.4-.3 2-.1.9.3zm466.8-.1c-.3.1-1.2.3-2.1.2-1 0-2.3.1-3.1.4-1.3.5-1.3.5 1 1 1.7.2 2.6.2 2.8 0 .1-.1 1-.2 1.9-.1 1.2 0 1.4 0 1-.2-.5-.2-.3-.3.3-.1 1.3.2 2.4-.4 1.5-1-.3-.2-.5-.4-.3-.5h-1.2c-.8 0-1.6 0-1.8.3zm26.7 0c-1.6.6-1.6 1.2-.1 1.4a5 5 0 012 .8c.7.5 1.3.6 4.2.6 2 0 3-.1 2.4-.3-.5 0-.7-.2-.5-.3 1-.3 2.3.2 2 .8-.2.3-.1.6.2.6.9 0 2.5-1 2-1.2-.7-.2 1-1.1 1.9-1.1.5 0 .6.3.3 1-.5 1.2.9 1.6 2.8.8 1-.4 1-.5.2-.6-.6 0-.9-.4-.6-.7.3-.3 0-.5-.8-.5-.6 0-1.5-.2-2-.4-1-.4-6.1-.5-6.1 0l-1.2.1c-1.5 0-1.4-.2.2-.7 1.2-.4 1.2-.4 0-.5-1.4 0-3.6.5-3.6 1l-1.1.3c-1.3.2-1.6-.2-.4-.4l1.5-.7c.7-.4.6-.5-.6-.5a8 8 0 00-2.7.5zm-528.9 0c-.7.2-1.1.4-.8.6.3.1-.1.2-1 0a14 14 0 00-5.4 1.2 33 33 0 01-4.8 1.3c-.4 0-.6-.1-.4-.2.2-.1 0-.4-.4-.6-.6-.3-.8-.3-1.3 0-.4.2-1 .3-1.4.3-.3 0-.7.2-.9.5-.2.5-2.4.8-2.4.3 0-.1-1-.2-2.3-.1-1.2 0-2.3.3-2.3.4 0 .2-.3.4-.7.5-.4 0-.2.3.4.5 1 .5 1 .5 1 .1 0-.2.3-.4.7-.4 1 0 3.2.7 3.2 1 0 .3-1 .3-2.2 0-.8-.3-1-.3-.7 0 .6.6 3.7.6 4.2 0 .4-.5.7-.5 5.7-.4 6.3.2 10.5-.2 10.5-.9 0-.6.8-.6 2-.2 1.2.4 1.6 0 1-1-.4-.5-.6-.6-.6-.1-.1.7-1.4.7-1.8 0l-.2-.5-1.8.5c-2.5.8-3 .4-.6-.4l2-.8c0-.1 1-.4 2.1-.6 1.1-.1 1.7-.3 1.2-.4-.5 0-.7-.3-.5-.5.5-.4.3-.4-1.5 0zm525.4.5c0 .5.2.6.9.3.7-.2.7-.3 0-.6-.7-.2-1-.2-1 .3zm-513 .4c0 .2.5.4 1.1.4.7 0 1.2.1 1.2.3h-1.5c-.9-.2-1.6-.2-1.6 0 0 0-.7.2-1.7.2h-3.6c-1.2.1-1.9 0-1.9-.2 0-.5 3.2-1 6-1 1.3 0 2 0 2 .3zm502 0c.2.2-.3.4-1.3.5-1 0-1.5.2-1.2.3.8.3 4.3-.4 4.3-.8 0-.2-.5-.4-1-.4-.7 0-1 .2-.8.4zm26.4.6c-.4.6-1.8.6-2.3.1-.2-.2.2-.3.9-.3.6 0 1.2-.1 1.2-.3 0-.2.1-.3.3-.2.2 0 .2.4 0 .7zM941 14.4c-.3.2-.3.3-.1.4.2 0 .5 0 .8-.3.5-.4 0-.5-.7 0zm424.9 0h1.9c.5-.2 0-.2-1-.2s-1.4 0-.9.1zm27.2.3c-.3.1-.3.3-.1.4.5.2 2-.2 2-.5s-1.3-.3-2 0zm20.2 0h-1.2c-.6 0-1.1-.1-1.1-.2l1.1-.1c.7 0 1.2.1 1.2.2zm-497 .3s-.8.2-1.9.2h-1.5c.4-.3 3.4-.4 3.4-.2zm-32.6.7c-.5.2-1.1.2-1.4.1-.3 0 0-.3.5-.4 1.4-.3 2 0 1 .3zm520.2-.2c-.3.3 0 .3 1 .2 1.7-.1 2-.5.5-.5-.6 0-1.3.1-1.5.3zm26.1 0l.8.2c.4 0 .7-.1.7-.3 0-.1-.3-.2-.7-.2-.4 0-.8 0-.8.2zm-539.2.6l-1.6.3c-.6-.2 1.5-1 2.2-.8.3 0 0 .3-.6.5zm-19.8.6c.3.1 0 .2-.7.1-1.3-.2-1.6-.4-.5-.4l1.2.3zm579.6.1s-.7.2-1.6.2h-1.5c0-.2.7-.3 1.5-.3l1.6.1zm-1.2 1c.2 0 0 .2-.3.3-.5.1-.8 0-.8-.2 0-.5.4-.5 1-.2zm-10.3 1c0 .1-.3.2-.7.2l-.8-.2c0-.2.4-.3.8-.3s.8.1.8.3zm-19.4 1.6c.3-.1.3 0 0 .2-.6.6-2.1.5-2.5-.2-.3-.4-.1-.4.8-.2.6.2 1.4.3 1.7.2zm-620 .2l-6.9.4a51.2 51.2 0 00-10 1c.4.3.3.4-.5.2-1.3-.3-4.5-.3-5 0l-3.7.3c-2 0-3.6.3-3.9.4l-2.1.2c-1 0-2.4.3-3.2.6a8 8 0 01-3.7.3c-1.4 0-2.6 0-3.4.2-.7.2-2 .5-3.1.5-1.5 0-2 .3-2.1 1-.3.8-1.3 1-3.4.3-1-.3-1.4-.3-1.4 0 0 .2-.3.2-1-.2-1-.4-1.8-.4-4.6-.3-2.4.2-3.5.3-3.5.6s-.5.4-2 .3c-2.6-.2-5.6.3-4 .6.5 0 .6.3.3.5-.5.2-.9.2-1.6-.2-1-.4-1-.4-1 .1 0 .7-1.2.8-1.9.2-.3-.3-1-.4-2.2-.3a85.3 85.3 0 01-8.4.4c-.4 0-.5.4-.3.8.3.9-.3 1-2 .4-1.1-.4-1.2-.4-1.2 0 0 .3-.5.3-2.1.2l-2.1-.2 2.2.8c1.9.6 2 .7 1.3 1.1-.7.4-.7.5.3.5.6 0 1.1-.1 1.1-.4 0-.3.8-.3 4-.3h4l.4-1c.3-.8.6-1 2.5-1 1.3 0 2 0 2 .3 0 .2-.5.4-1 .4-.7 0-1.2 0-1.2.2s.7.3 1.6.3c1.6 0 1.6 0-.2.5l-1.8.6 4.4-.1c2.7-.1 4.8-.3 5.2-.5.6-.3.8-.3 1.4 0 .6.3 1 .3 2.3-.1.8-.3 1.5-.6 1.5-.8 0-.5 2.4-.5 3.5 0 1.1.6 1.5.5 2.1-.4.3-.3.3-.5 0-.3-.2.2-.8.2-1.8 0-1.7-.2-1.1-1 .7-.9.8 0 1.2 0 1-.4-.2-.4.2-.4 1.7-.3 1 0 2.3.2 2.7.3 1.1.2 0 .7-1.2.5-1.7-.2-1.2.8.6 1.1 2.2.4 5.8.1 7.6-.6 1.1-.5 1.9-.6 2.8-.4h10.2c1.5 0 2.1-.2 2.1-.6 0-.2.5-.4 1.1-.4.7 0 1.2.1 1.2.4 0 .2.7.3 1.5.3s1.5-.1 1.5-.3c0-.3.7-.4 1.9-.4l5.3-.5c2-.3 3.5-.4 3.5-.3 0 .4 2 .3 3.8-.3 1-.2 2.2-.5 2.9-.5a6 6 0 002-.4c.9-.4 1.2-.4 2.2-.1 1 .2 1.3.2 1.3 0s.5-.2 1.4-.1c2.2.2 5.4-.1 5.4-.6 0-.4.2-.4.7 0 1 .5 2.5 0 1.5-.6-.6-.4-.6-.5.1-.3.7.1.8 0 .5-.5-.4-.5-.3-.7.6-.7.8 0 1.2-.3 1.2-.7 0-.6-.3-.6-2-.5-1.6.2-2 .1-1.6-.2.4-.3 0-.4-1.4-.4s-1.7.1-1.4.4c.3.3.2.4-.2.2-1-.4-3.6-.6-5-.3zm-.8 1.5c-.3.2-.5.2-.5-.1 0-.3.1-.4.4-.4.2.1.3.4 0 .5zm-7.7 1c-.2.3-.4.1-.4-.2 0-.4.2-.5.4-.4.2.2.2.5 0 .7zm-4.2 0c-.7.3-.8.3-.4 0 .3-.3.7-.5 1-.4.2.1 0 .3-.6.5zm24.3.7c0 .2.5.3 1.1.3.6 0 1.2-.1 1.2-.3 0-.3-.6-.4-1.2-.4s-1.1.1-1.1.4zM758 26.2c0 .1-.3.3-.8.3-.4 0-.7-.2-.7-.4 0-.3.3-.4.7-.3.5.1.8.3.8.4zm21.7-.3c.2.2.1.3-.3.3-.5 0-.9-.1-.9-.3l.4-.2.8.2zm-18.4.7c.3.2 0 .4-1 .4-1.4 0-1.4 0-.6-.4 1.2-.5 1.1-.5 1.6 0zm-6 1.1c.3.2.2.3-.3.3-.4 0-1-.1-1.2-.3-.2-.1-.1-.2.3-.2l1.2.2zm647.6.4l-.7.4c-.2 0-.3-.2-.3-.4s.3-.4.7-.4c.4 0 .5.2.3.4zm-646.4.7c0 .1.3.2.7 0 .5 0 .8-.1.8-.2h-.8c-.4 0-.7 0-.7.2z" fill="#414141"/><path d="M208.6 73.1c0-.5 1.6-.8 2.9-.4 1.4.3 2 0 1.6-.7-.5-.8.8-.8 2 0 1.4.8 4 1 5.4.4 1-.4 1-.5-.2-.9-1.1-.3-1.3-.3-1.5.3-.3.6-.3.6-1.1-.1-.6-.5-1.6-.8-3.2-.9-1.4 0-2.3-.2-2.3-.5 0-.7-1.5-.6-2 .2-.2.3-.8.6-1.3.6-.6 0-1 .2-1 .4 0 .9-1.2.5-2-.5-.6-.9-.5-1.2.4-1.6 1-.4.8-.5-2-.5-1.6 0-3.4.3-4 .5a5 5 0 01-2 .4c-.4 0-1.7 0-2.8.2-1.5.1-2 .4-2 1 0 .8-.1.9-3 .2-1.5-.3-2.4-.4-2.6-.2-.1.2-1 .3-2.2.2-1.2-.1-2.3 0-2.6.2a4 4 0 01-1.8.3c-1.5 0-2.3 1-1.2 1.5.4.2 1.8.4 3 .4s1.8-.1 1.3-.2-1-.3-1-.5.5-.2 1.1-.1c.8 0 1.1 0 1.1-.5 0-.4.5-.6 1.9-.6 1.5 0 1.7 0 1 .4-1.2.7.6 1.1 4.4 1l5.1.1c1.6.3 1.7.3 1.6-.5-.2-.4-.6-.9-1-1-1.5-.4 1-1.2 3.1-1 1.4.1 1.9.3 1.9.9 0 .4-.4.7-.8.7s-.7-.1-.7-.3c0-.2-.3-.3-.7-.3-.4 0-.4.3.1.8 1 .9 1.4 1 2.6.4.7-.3 1.2-.2 2.2.2 1.6.6 2.3.6 2.3 0zm-30.3-.2c1.1-.5 1.1-1.6 0-1.4-.5 0-1.4 0-1.9-.3-.7-.4-.4-.4 2-.4 1.6 0 3-.2 3-.4s.8-.3 1.9-.2c2.4 0 4.9-.5 4.2-1-.3-.2-2-.3-3.7-.3-2.5 0-3 0-2.8.4.4.4 0 .4-1.8.1a7 7 0 01-2.2-.5c0-.1-.8-.2-1.8 0-1.2 0-1.8 0-1.8-.4 0-.3-.1-.3-.6 0s-.8.4-1.1.1c-.6-.4-1.9-.4-1.9 0 0 .1.5.3 1 .3.6 0 1.4.2 1.7.4.3.2 1 .5 1.6.6.9.2.8.2-.2.2-1.4 0-1.7.7-.2.7.5 0 1.2.2 1.4.4.5.6-.3.7-1.4.2-.5-.2-1.3-.2-2.6 0-1.4.4-1.6.6-.8.9.5.2 2 .3 3.3.3 1.3 0 2.7.2 3.1.4.5.2 1 .1 1.6-.1zm49.4-.7c.3-.2.5-.6.4-.8 0-.3.5-.7 1.3-.9.8-.2 1.4-.2 1.4 0 0 .4 2.7.3 3.1-.2.4-.3-.8-.7-3.2-.9a4 4 0 01-1-.3c-1-.4-2.4.5-2.4 1.5 0 .7-.4 1.1-1 1.2-.9 0-.9.1 0 .4.7.4 1 .4 1.4 0zm14.6-.2c1-.2-.5-1.5-1.7-1.5-.7 0-1.1.2-1.1.6 0 .4-.6.6-2 .7a23 23 0 004.8.3zm-9.8.1c.2 0-.1-.4-.8-.7-.8-.5-1.3-.5-1.7-.2-.8.6 1.3 1.4 2.5 1zM368.3 71c.2-.4.8-.8 1.4-.8 1.3 0 2-1.5.7-1.7a7 7 0 00-2.7.3c-1.5.5-1.9.8-1.9 1.8 0 1.4 1.7 1.7 2.4.4zm-6 .4c0-.3.4-.7 1-1 1-.4 1-.6.4-.9-.6-.2-1-.2-2 .2-.8.3-.9.5-.4.5 1.5 0 1 .6-.6.7l-1.4.1 1.4.4c1.3.3 1.5.3 1.5 0zm-7.7.1c.3-.2.4-.4.1-.6-.6-.2-1.3.2-1 .6.3.4.5.4 1 0zm-3.2-.1c0-.3-.6-.5-1.5-.5-1.7 0-1.5.7.3.8.8.1 1.2 0 1.2-.3zm-23 0s.6-.2 1.3-.2c.7 0 1.8-.2 2.4-.4 1-.3 1-.3 0-.2-.6.1-1.5 0-2-.3-.7-.5-1-.5-2.3 0-1.7.8-2 1.5-.4 1.5.6 0 1-.1 1-.3zm-5.7.2c0-.2-.6-.5-1.4-.8-.8-.3-1.4-.4-1.4-.3 0 .2.6.5 1.4.8.8.3 1.4.5 1.4.3zm-97.8-.7c1.2-1.5-1-1.9-2.6-.5-.7.7-.7 1 0 1.1 1.5.4 1.7.4 2.6-.6zm-56 .1c.4-.2.7-.5.4-.5-.6-.3-2.4.1-2.4.6s.9.5 2 0zm204.3-.3c-.2-.2-.5-.5-.7-.5l-.2.5c0 .3.3.5.7.5.3 0 .5-.2.2-.5zm-137.4-.5c0-.4-.2-.6-.4-.4-.2.3-.2.6 0 .8.2.2.4 0 .4-.4zm-44.3-.1c-.2-.7-.5-.7-1.3-.5-1.4.6-1.2 1.3.3 1.3 1 0 1.3-.2 1-.8zm183.2-.1c.3-.2.2-.4-.2-.5h-1.1c-.3.3-.1.5.2.6l1.1-.1zm-15.4 0c-.6 0-1.3-.3-1.6-.5-.4-.2-.5-.2-.3.1.1.3.9.5 1.6.6 1 0 1.1 0 .3-.2zm-201.2-.1c.3-.2.1-.5-.4-.5-1-.2-1-1 .1-1.1.7-.1.7-.3.1-.8-.8-.6-4.6-1-4.6-.4 0 .2.3.3.8.3 1 0 3 2.1 2.4 2.5-.2.2 0 .3.3.3.4 0 1-.1 1.3-.3zm182.2-.3c-.2-.2-.6-.3-.7-.3-.2 0-.4.1-.4.3 0 .2.4.3.8.3s.6-.1.3-.3zm-3.7.1c.3-.1.5-.5.5-1 0-.7-.2-.7-3.3-.6-4.1.2-4.5.4-2.4 1.2 1.7.6 4.3.8 5.2.4zm50.2-1c.8-1.5-2.2-2.3-3.8-1-.6.5-.6.7 0 .5.4 0 1.1.1 1.6.5 1.1.7 1.8.8 2.2 0zm-7.2.4c1.6-.2 1.7-.7.2-.7-.6 0-1-.2-1-.3 0-.2-.7-.2-1.5-.1-3 .3-.9 1.4 2.3 1zm-36 0c0-.2-2.4-1-3.1-1-1 0-.5.8.6 1 1.5.3 2.4.3 2.4 0zm-10.1-.3c0-.2.6-.4 1.4-.4.8 0 1.5.2 1.5.4 0 .3-.7.5-1.5.5s-1.4-.2-1.4-.5zm20-.2c-.2-.2-.7-.4-1.2-.5-.5 0-.7 0-.4.4.5.6 2 .7 1.5.1zm-191.8-.4c1.4-.3 1.1-.6-.5-.6-.8 0-1.4.1-1.4.4 0 .4.4.4 2 .2zm293.8-1.5c0-.3 1.3-.4 4.4-.3 3 0 4.7-.1 5.4-.4.5-.3 1-.4 1-.2 0 .5 3 .8 3.8.4.5-.2.5-.5-.2-.8-.4-.2-.6-.6-.3-.8.4-.3.7-.2 1 .2.3.3.8.6 1.2.6l1.9.3c.7.1 2 .2 3 0 1 0 1.8 0 1.8.2s.3.2.7.1c.4 0 .7-.4.7-.8 0-.3-.3-.6-.7-.6-.4 0-.7-.2-.7-.5 0-.2-.5-.4-1-.4-.7 0-1.1-.2-1.1-.5 0-.6 1.1-.6 1.7 0 .2.3.9.5 1.5.4.8-.2 1.4 0 2 .7l.7 1 1.4-.6c1.2-.5 1.7-.6 2.8-.3.7.2 1.5.2 1.8.1.8-.3-.6-1.2-2.5-1.6-2.9-.6-2.5-2.7.4-2.2.5 0 1 0 1-.3 0-.4-.8-.5-2.6-.4-1.4 0-2.5.2-2.5.3 0 .2-.6.2-1.4 0-1.8-.2-3.5.2-4.6 1.2-1.1 1-3.7 1.3-3 .4.5-.8-.7-1.2-2.2-.7-.7.2-1 .3-1 0 0-.2-.8-.3-1.8-.3-1.6 0-1.8 0-1.4.6.3.5.2.6-.7.4-.6 0-.9-.4-.7-.6.3-.3 0-.4-.7-.4-.6 0-1.2.1-1.2.3 0 .1-1 .3-2.3.3-3.6 0-4.5.4-3.6 1.4.5.5.8.7.9.4 0-.6 1.6-1 2.9-.6.7.2.6.3-.4.6-.8.2-1 .4-.4.5.4.1.8.5.8 1s.1.5.7.1.7-.4.7.1c0 .3-.5.5-1.4.5-1.4 0-3.6-.7-3.6-1.2 0-.2-.8-.5-1.8-.6-1-.2-1.8-.5-1.8-.8 0-.5-2.3-.8-3.5-.5h-5.1a34 34 0 00-5.4.1c-1.2.3-1.4 1.2-.4 1.7.4.1.2.4-.5.7-1 .4-1.1.4-.7 0 .3-.3 0-.8-.6-1-.6-.3-1-.6-1-.8 0-.7-3-.4-3.6.4-1 1-1 1.1.3 1.1 1.1 0 2.1 1.4 1.1 1.5-1.1.2-.8.7.4.7.7 0 1.4-.3 1.6-.6.4-.8 1.3-.8 3-.1 1 .5 1.1.5 1.4 0 .1-.4.6-.5 1.2-.4.6 0 1 0 1-.3 0-.7 2-1.5 2.3-1 .2.2.8.2 2 0 .9-.3 1.8-.4 2-.3.7.3-2 1.4-3.5 1.4-1.8 0-1 .7 1.4 1.2 1.7.4 2 .4 2.8-.1.9-.5 1-.5 1 0 0 .4.5.5 2 .5 1.3 0 2.2-.2 2.2-.4zm-2.1-1.7c0-.4.2-.4 1 0 .7.1 1.1.4 1.1.4l-1 .1c-.6 0-1.1-.2-1.1-.5zm42.4-.3l.6-.4c-2.8-.3-3.5-.3-3.5 0 0 .2-.5.3-1.2.2-.7-.1-1 0-.8.2.4.5 3.9.6 4.9 0zm-461.3 0c.2-.3.1-.4-.3-.4s-.8.1-.8.3c0 .2.2.3.3.3.2 0 .6-.1.8-.3zm-2.2 0c1.2-.5-5-2.6-6.6-2.2-.3.1-1 0-1.5-.3-.7-.3-.7-.4.2-.4.6 0 1.1-.1 1.1-.3 0-.3-1.5-1-2.4-1-.4 0-.5.1-.2.2.2.2 0 .5-.3.8-.5.5-.5.8 0 1 .5.3.7.7.4.9-.2.1-.2.3.1.2 2.1-.1 3.9.1 3.9.6s.1.5 1.4 0c1.2-.5 1.4-.5 1.4-.1 0 .5 1.7 1 2.5.6zm418.2-1.4c0-.3.3-.6.7-.6.4 0 .7.5.7 1 0 .8-.1 1-.7.6-.4-.3-.7-.7-.7-1zm-388.2 1h-1.4c-.2.1.2.2 1 .2s1-.1.4-.2zm444.6-.6l2.3-.5c.5-.2 1.3-.2 1.9-.2.7.2 1.4-.1 2-.9 1.3-1.3.2-3.8-1.6-3.8-1.5 0-3.6.7-3.6 1.2 0 .4-.1.4-.7 0a35 35 0 00-11.3 0c-2.6.5-2.8.8-1.2 1.5.6.2 1 .6 1 .9 0 .4-.3.4-1.5.1-.8-.2-1.3-.5-1.1-.7.5-.6-.6-1.3-1.6-1-.4 0-.8.4-.8.7 0 .3-.4.4-1.8.3-1.6-.2-1.8-.1-1.8.6s.2.8 2 .6c1-.1 2-.4 2.2-.5.1-.2.6-.3 1-.3.8 0 0 1.3-1.1 1.6-.6.2-.6.3 0 .3.5 0 1-.2 1.3-.4.3-.2 1.1-.2 2-.1.8 0 2-.2 3-.6 2-1 3.2-1 3.2-.3.1 1.5.3 1.7 1.6 1.3.9-.2 1.3-.2 1.3 0 0 .4.8.4 3.3.2zm-23.5-.5c.5-.2 1-.3 1.4-.1.2 0 0 .3-.6.5-1.3.3-1.9 0-.8-.4zM43 63.3c.2-.2 1.1-.3 2-.3 1 0 2.1-.1 2.9-.5 1.2-.6 1.2-.6-1-1-1.6-.4-2.4-.5-2.6-.2-.2.2-1 .3-1.8.2-1.1-.2-1.4-.1-1 .2.5.3.4.3-.2.2-1.3-.4-2.3.4-1.5 1 .4.4.5.7.4.7-.2 0 .3.2 1 .2.8 0 1.6-.2 1.8-.5zm-25.2 0c1.5-.7 1.5-1.5 0-1.7-.5-.1-1.4-.5-1.8-1-.7-.6-1.3-.7-4-.7-1.8 0-2.8.1-2.2.3.5.1.7.3.4.4-1 .4-2.1-.2-1.8-1 .2-.4 0-.7-.3-.7-.8 0-2.3 1.2-1.8 1.5.6.2-.9 1.3-1.8 1.3-.5 0-.6-.4-.3-1.2.5-1.4-.8-2-2.7-1-.9.5-.9.6-.1.7.6.1.8.5.6.9-.3.4 0 .6.6.6a5 5 0 012 .5c.9.4 5.8.5 5.8 0 0 0 .4-.2 1-.2 1.4 0 1.4.2-.1.9-1.1.5-1.1.5 0 .6 1.2.1 3.4-.6 3.4-1.1 0-.2.4-.4 1-.5 1.2-.2 1.5.3.4.6-.4 0-1 .4-1.5.8-.6.5-.5.6.6.6a7 7 0 002.6-.6zm498.8 0c.7-.2 1.1-.5.9-.7-.3-.2 0-.3.9-.2 1 .2 2.3-.2 5-1.3 2.1-.9 4.1-1.6 4.6-1.6.4 0 .6.1.4.3-.2.1 0 .4.3.7.6.3.8.3 1.3 0 .3-.2.9-.4 1.3-.4.3 0 .7-.2.8-.6.2-.6 2.3-1 2.3-.4 0 .2 1 .2 2.2.2 1.1-.1 2.1-.4 2.1-.6 0-.2.3-.4.7-.5.3 0 .2-.4-.4-.7-.9-.5-1-.5-1 0 0 .2-.3.4-.5.4-1 0-3.1-.8-3.1-1.2 0-.4 1-.4 2.1 0 .8.4.9.4.6 0-.5-.8-3.5-.8-4 0-.3.6-.6.7-5.3.5-6-.3-10 .2-10 1s-.7.9-1.8.3c-1.1-.4-1.5 0-1 1.2.5.7.6.8.7.2 0-.9 1.3-1 1.6 0l.2.6 1.7-.7c2.3-1 2.9-.5.6.5l-2 1c0 .2-.8.5-1.9.7-1 .2-1.6.5-1.1.5.5.1.7.4.5.6-.5.6-.3.6 1.3.1zm-495.5-.7c0-.5-.2-.6-.8-.3-.7.3-.7.4 0 .7.6.3.8.2.8-.4zm483.9-.4c0-.3-.5-.5-1.1-.5-.6 0-1-.1-1-.3 0-.2.4-.2 1.4 0 .7.2 1.4.2 1.4 0 0-.1.7-.3 1.6-.3l3.4-.1c1.2 0 1.8 0 1.8.4 0 .6-3 1.2-5.6 1.2-1.2 0-2-.1-2-.4zm-473.5 0c-.3-.3.2-.5 1.2-.6 1-.1 1.4-.3 1.1-.4-.7-.3-4 .5-4 1 0 .2.4.4 1 .4s.9-.2.7-.4zm-25-.8c.5-.7 1.7-.7 2.3 0 .1.1-.3.3-.9.3-.6 0-1.1.2-1.1.4s-.2.3-.4.2c-.1-.1-.1-.5.1-.9zm449.3.3c.3-.2.3-.4.2-.5-.2 0-.6 0-.8.3-.5.6 0 .7.6.2zM55 61.8h-1.8c-.4 0 0 .2 1 .2s1.3-.1.8-.2zm-25.6-.4c.3-.2.3-.4.1-.5-.5-.3-2 .1-2 .5s1.3.4 2 0zm-19 0c0-.2.4-.2 1-.1.6 0 1.1.2 1.1.3l-1 .1c-.7 0-1.1-.1-1.1-.3zm468.7-.4l1.8-.3c1-.1 1.6 0 1.4.1-.4.3-3.2.4-3.2.2zm30.8-1c.4-.1 1-.2 1.3 0 .3 0 0 .3-.5.4-1.3.4-2 .1-.9-.3zm-490.7.3c.3-.3 0-.4-1-.3-1.6.2-1.9.8-.4.8.6 0 1.2-.2 1.4-.5zm484-.7c.6-.3 1.3-.4 1.5-.3.6.2-1.4 1.1-2 1-.4-.1-.1-.4.5-.7zm18.6-.7c-.2-.2 0-.2.7-.1 1.3.2 1.5.4.5.4-.4 0-1-.1-1.2-.3zm67.4-4.7c.7-.2 3.6-.4 6.4-.5a37.6 37.6 0 008.2-.8c1.2 0 1.5 0 1.2-.5-.4-.4-.2-.4.5-.2 1.2.3 4.3.4 4.7 0l3.6-.4a10 10 0 003.6-.5l2-.2c.9 0 2.3-.3 3-.7a6 6 0 013.5-.5 8 8 0 003.2-.2c.6-.3 2-.5 3-.6 1.4 0 1.8-.3 2-1 .2-1.2 1.1-1.4 3-.6 1.1.4 1.4.4 1.4 0 0-.2.3-.2 1 .2.9.5 1.6.6 4.3.4 2.3-.1 3.3-.3 3.3-.7 0-.3.5-.4 2-.3 2.3.2 5.2-.3 3.8-.7-.6-.2-.7-.4-.4-.7.4-.3.8-.2 1.5.2 1 .6 1 .6 1 0 0-.9 1-1 1.7-.3.3.4 1 .5 2 .3a62.4 62.4 0 018-.4c.4 0 .5-.5.4-1-.4-1 .2-1.2 1.9-.4 1 .4 1 .4 1 0s.5-.5 2-.3l2 .2-2-.9c-1.8-.7-2-1-1.3-1.5.7-.4.6-.5-.3-.5-.6 0-1 .2-1 .4 0 .4-.8.5-3.8.4h-3.8l-.3 1.2c-.4 1-.6 1.2-2.4 1.3-1.3 0-2 0-2-.4 0-.2.5-.4 1.1-.4.6 0 1.1-.2 1.1-.4 0-.1-.7-.3-1.5-.3-1.6 0-1.6 0 .1-.6l1.8-.7-4.2.2c-2.5 0-4.5.3-4.9.5-.5.4-.7.4-1.3 0-.6-.4-.9-.4-2.1.1-.9.4-1.5.8-1.5 1 0 .7-2.2.6-3.3 0-1-.7-1.4-.6-2 .5-.3.4-.3.6 0 .4.2-.3.7-.3 1.7-.1 1.6.4 1.1 1.3-.6 1.2-.8 0-1.1 0-1 .4.2.5-.2.6-1.6.4-1 0-2.2-.2-2.6-.3-1-.3 0-.9 1.2-.7 1.6.3 1.2-1-.5-1.3-2.2-.5-5.6-.2-7.2.8-1 .5-1.8.7-2.7.5a19 19 0 00-4.4-.1l-5.2.1c-1.4 0-2 .2-2 .6 0 .3-.5.6-1 .6-.6 0-1.1-.2-1.1-.5s-.7-.5-1.5-.5-1.4.2-1.4.5-.7.5-1.7.5-3.3.3-5 .6c-1.9.3-3.4.5-3.4.3 0-.5-1.8-.3-3.5.3-1 .4-2.2.7-2.8.7a5 5 0 00-2 .5c-.7.4-1 .5-2 .1-.8-.3-1.1-.3-1.1 0 0 .2-.6.3-1.4.1-2-.2-5.1.2-5.1.8 0 .4-.1.4-.6 0-1-.7-2.4 0-1.5.7.6.5.6.6 0 .4-.8-.2-.9 0-.5.6s.2.8-.6.8c-.7 0-1.1.3-1.1.8 0 .8.2.8 1.9.6 1.5-.1 1.8 0 1.4.3-.3.4 0 .5 1.4.5 1.3 0 1.6-.1 1.3-.5-.2-.4-.2-.5.2-.2 1 .5 3.4.7 4.8.4zm.7-2c.2-.2.4-.1.4.2 0 .4-.1.6-.3.5-.3-.1-.3-.4-.1-.6zm7.2-1.2c.2-.2.4 0 .4.4s-.2.6-.4.4a.6.6 0 010-.8zm4 0c.7-.3.8-.3.4.2-.3.3-.7.4-1 .3-.1 0 0-.3.6-.5zm-23-.7c0-.3-.4-.5-1-.5s-1 .2-1 .5c0 .2.4.5 1 .5s1-.3 1-.5zm50.3-3c0-.2.4-.3.8-.3s.7.2.7.5-.3.4-.7.3c-.4-.1-.8-.3-.8-.5zm-20.4.3c-.3-.1-.1-.3.3-.3s.8.2.8.3c0 .2-.2.3-.4.3-.1 0-.5-.1-.7-.3zm17.3-.8c-.3-.3 0-.4 1-.4 1.2 0 1.3 0 .6.4-1.2.6-1.1.6-1.6 0zm5.7-1.4c-.3-.1-.2-.3.2-.3l1.2.3c.2.2.1.3-.3.3s-.9 0-1.1-.3zm-1.1-1.2c0-.2-.3-.3-.7-.2l-.8.4.8.1c.4 0 .7-.2.7-.3z" fill="#414141"/>
</svg>
