<svg width="29" height="69" fill="none" xmlns="http://www.w3.org/2000/svg"><path d="M1 .6V1l.2.1h.5c.1-.1.5 0 .7.3.1.2.3.3.4.3.2.1.2 0 0-.1h.4c0-.1 0-.2.1-.1h.1c0 .2 0 .2.1.1l.4.1.2.5.2.2c.1 0 .1 0 0-.2h.1a79.8 79.8 0 00.7 0c.3 0 .3.1.1.4-.2.4-.1.5.2.3l.3.1.2.2h.2c0 .2 0 .2.1 0 .2 0 .2 0 .1.1l.3.3.4.2.6.3.4.2.8.5H9c0 .2 1.2 1 1.4 1l.3.3s0 .2.2.2c.1 0 .9.5 1 .7.1.1.2.1.4 0 .3 0 .5 0 .4.2-.2.1 0 .4.3.4.2 0 .5.3.8.7.3.3.5.5.7.5.2 0 .2 0 .1.1 0 .1 0 .2.5.3l.3.2.4.2c.2 0 .3.2.3.2l.1.3c.1 0 .1.2 0 .4 0 .2 0 .2.2.2h.1c-.1.1.2.5.3.5.2 0 .5.4.4.5l1 .9.3.4.8.9s.2.1.1.2l.2.2.1.3.1.2.3.2c.1.2.2.2.3.2H20.5c-.4 0-.3.2.2.7l.3.6v.2c0 .1.1.1.2 0 .3 0 .4 0 .2.2v.3l.2.3.2.2c0 .1 0 .2.2.2l.2.2.1.4.1.5s0 .2.2.3c.1 0 .2.1.1.2v.3l.2.3.1.2c.2 0 .3.3.1.6v.2c.2 0 .4.6.4.8h.2c.2 0 .2 0 0 .1s-.2.2 0 .3v.3l.2.4.1.5c0 .2 0 .4.2.5v.5l.2.5v.6c.2 0 .2.2.2.3-.1.3-.1.4 0 .4.2 0 .2.2 0 .4v.6c.2 0 .2.3.2.4 0 .1 0 .3.2.4-.2 0-.2.2 0 .8v.6.5c.2 0 .2.1 0 .2v.8l.1.4v1.1c-.1.4-.1.8 0 .8v.6l-.2 1.3-.1 1.6-.2 1.2c0 .5-.3 1.3-.4 1.4v.2l-.2.4v.3l-.1.5v.4a138.1 138.1 0 00-.4.4v.5l-.1.3c-.2 0-.2.1 0 .3l-.1.1-.3.6c0 .3-.2.7-.3.8v.6c.1 0 .1.2 0 .1l-.1-.1-.1.2-.2.3-.3.3c0 .2-.2.4-.3.5-.3.2-.4.6-.3.9v.1c-.2 0-.5.4-.6.8l-.2.1-.1.5c0 .3-.2.4-.2.4h-.1l-.1.3-.1.1-.1.1-.4.6c-.1.4-.3.7-.4.7-.2 0-.3.3-.5.8l-.2.3-.2.2-.2.4c-.2 0-.2 0 0 .1v.1c-.2 0-.5.3-.4.5 0 .2-.4.7-.7.7v.2c0 .2-.1.3-.2.3-.2.1-.2.1 0 .2l-.3.2-.4.3c.1.1 0 .2-.4.7l-.2.3-.2.5c-.1.2-.1.3 0 .4.2.1.2.1-.1.1-.3 0-.5 0-.8.3-.2 0-.2.1 0 .2s.1.3-.1.2c-.2 0-.2 0-.1.1 0 .2 0 .3-.2.4-.2.1-.4.3-.4.5-.1.2-.2.3-.4.2-.3 0-.4.2-.2.2.1 0 .1.1 0 .2l.1.1s0 .1 0 0c-.3 0-.3 0-.3.3 0 .1 0 .2-.2.1h-.1c0 .2 0 .2-.2.2H12v.2c-.1 0-.2 0-.3.2l-.3.3-.3.3a1 1 0 01-.4.4l-.4.3c0 .1 0 .2-.2.2H10v.5c-.1 0-.3.2-.4.1h-.4v.2c-.1-.1-.2 0-.2 0l-.3.2-.4.4c-.2.3-.4.4-.6.4-.2 0-.8.3-.7.4 0 .1-.4.3-.6.2l-.4.1c0 .1-.2.2-.3.1-.3-.1-.6 0-.7.2l-.2.2c-.2 0-.3.3-.2.5h-.2l-.1-.1c-.2 0-.2-.1-.1-.2v-.3-.3c.1 0 .2-.1.1-.2l.1-.4c.2-.2.1-.5-.1-.3-.1 0-.1-.1 0-.4 0-.2.2-.4.3-.4l.2-.1s0-.1.2 0c.1 0 .2-.1.3-.5.1-.4 0-.4-.1-.5-.1 0-.2 0 0 0l.3-.2c.3-.1.3-.1.2-.4-.1-.3-.1-.3 0-.4.3 0 .3-.1.3-.4-.1-.5 0-.7.3-.7l.2-.1V59l-.1-.2c-.3 0-.2 0 0-.2.2 0 .3-.2.4-.3l.2-.2-.2-.2c-.1 0-.2 0-.1-.2h.2s.2 0 .2-.3L7 57c-.3-.2-.3-.4 0-.4.1 0 .2 0 .2.2v-.4-.5-.1a.7.7 0 01-.4-.2c-.1-.2-.2-.2-.3-.1h-.7c-.5.1-.7.2-.6.4h.2s.1 0 0 0c0 .1 0 .2-.2.2s-.3.1-.3.2 0 .1.1 0l.2.1c0 .2-.2 1-.4.9V57h-.2c-.2 0-.2 0-.1.3 0 .1 0 .2-.2.3-.3 0-.3 0 0 .2.1.1.1.2 0 .2-.2 0-.2.2-.2.2s0 .2-.2.3c-.2.2-.2.3-.2.5 0 .4 0 .4-.1.3-.2 0-.6.6-.6.9 0 .1 0 .1 0 0-.2 0-.3 0-.4.2v.2c.2 0 .2 0 .2.2l-.2.2s-.1 0 0 0c0 .2-.1.2-.3 0h-.4v.4c-.1.4-.1.5.2.6.4.2.4.4-.1.2-.6-.1-.6 0-.4.4 0 .3 0 .3-.1.2-.1 0-.2 0-.1.1l-.1.1c-.3 0-.3.6 0 .9v.2l-.2-.2H1c-.4.1-.3 2.5.1 2.9v.2c0 .2.5.7 1 1l.3.4c.1.1.3.2 1 .3.6.1.7.1.8 0 0-.2.3-.2 1 0l.4-.1h.6l.3-.1H10l.6.1h1.2c.2.1.4.1.4 0h.2l.3-.1h1c.2 0 .6-.1.8 0h1.1l.7-.1.5-.2h.8c0-.2 1.1 0 1.3.2.2.2.3.2.6.2.4-.1.4 0 0 0-.3.2 0 .3.5.2h.6v-.2-.4c.1-.1 0-.2-.4-.4-.3-.1-.5-.2-.6-.1-.1 0 0 0 0 0 .3 0 .3 0 .2.2h-.2s-.1 0 0 .1h-.3c-.2 0-.3 0-.2-.2 0 0 0-.2-.5-.4-.5-.3-.6-.3-.8-.2h-.3-.2c0 .1-.1.2-.3.2h-.2v.1l-.2-.1-.2-.2H16h-.5-.2-.1H12.6h-2.5c-.2.2-.5.1-.5 0 0-.3-.4-.3-1-.2a4 4 0 01-1 0H7h-.3c-.3-.2-1.1-.2-1.6-.1-.4 0-.8 0-.7-.3l-.1-.3a1 1 0 01-.1-.5v-.3c.2.2.2.2.3.1h.1c0 .3 0 .4.2.4l.1.1c0 .2 1 .3 1.1.2h.7c.5 0 1.2-.1 1.3-.3h.1l.8-.4c.1-.1.3-.2.4-.1l.4-.1.8-.4c.2 0 .4-.2.6-.5 0 0 0-.1 0 0l.6-.2c.5-.1.6-.4.3-.4-.2 0-.2 0 0-.1l.2-.2c.4 0 .9-.4 1-.6 0-.3.2-.5.8-1 .2-.1.4-.4.4-.7.1-.5.3-.6.5-.3 0 .2 0 .2 0 0 .1-.2.5-.5.7-.4h.2c0-.1 0-.2-.2-.1-.4 0-.6 0-.5-.2h.5c.7 0 .9-.1.5-.5-.2-.3-.2-.3 0-.2.3.1.3.1.4 0l.2-.3c.3-.1.4-.2.1-.3h-.1c0-.1 0-.2.2-.1l.2-.1s0-.1.2 0l.1-.2v-.1c-.2 0-.1-.1 0-.2.2-.1.2-.1 0-.3l-.2-.2h.3c.1 0 .2 0 .3-.2l.3-.3s.2-.1.2-.3c0-.2.1-.3.2-.2.3 0 .7-.2.7-.4v-.2c.2 0 .2 0 .3-.2l.3-.3c.3-.2.4-.6.2-.8-.2-.2-.2-.2 0 0 .3 0 .3 0 .5-.2v-.4l.3-.1.4-.5.3-.5.5-1 .3-.2s.2-.1.2-.3l.4-.5.5-.8.5-.9.3-.6c0-.2 0-.4.2-.5.2 0 .3-.3.4-.5l.3-.6c.3-.3.4-.6.3-.9l-.2-.1v-.1l.2-.1c.2 0 .5-.4.7-.7l.4-1.2c.3-.8.3-.8 0-.9-.3 0-.3 0 0 0 .4 0 .6-.2.5-.5v-.4c.2-.2.5-1.4.4-1.5 0 0 0-.2.2-.2v-.2-.2c.1-.2.1-.3-.1-.3s-.2 0 0 0c.1-.1.3-.2.3-.4l.2-.3c.2 0 .2-.1 0-.1l.2-1.4c.2-.7.3-1.3.2-1.4v-.5c0-.1 0-.2-.2-.2-.1 0-.1 0 0-.1.2 0 .3-.2.4-.8.1-.4.2-.8.1-1v-.6-.5c-.1 0-.2 0-.1-.1v-.4c0-.2 0-.3-.2-.3-.1 0-.2 0 0 0s.3-.7.2-1.5v-.8l-.2-.5-.1-.3v-.6-.5c0-.1-.1-1-.3-1v-.3-.3-.3c.1-.3.1-.3-.1-.3s-.2 0 0-.1c.1-.2.1-.2 0-.4a1 1 0 01-.3-.6V24l-.1-.1v-.5c0-.2 0-.3-.2-.3v-.3l-.1-.7-.1-.4c0-.2-.2-.7-.4-.7l-.2-.2-.1-.2c-.1 0-.1 0 0 0 .2 0 .3-.2.1-.3l-.1-.2c0-.2-.1-.3-.2-.3l-.2-.5c0-.1 0-.4-.2-.5v-.3l-.2-.1c-.2 0-.2 0 0 0 .1 0 0-.3-.2-.4l-.2-.3a84.4 84.4 0 01-.5-1l-.7-1c0-.2 0-.2-.3-.3-.4 0-.5-.1-.2-.1.2 0 .2 0 .1-.3 0-.2-.2-.3-.5-.4-.3 0-.3 0-.3-.2l-.1-.3-.2-.3-.7-.8a5.2 5.2 0 01-.8-1l-.2-.3c0-.2-.2-.3-.3-.3l-.2-.2c0-.2 0-.2-.3-.3-.4 0-.7-.2-.5-.4l-.2-.4-.3-.4H19a.7.7 0 01-.4-.3c-.2-.2-.5-.3-.6-.2V9l-.3-.3-.3.1c0 .2 0 .2-.1 0 0-.2-.1-.3 0-.4 0-.1-.4-.4-.7-.4-.2 0-.2 0 0-.1.3-.2.1-.4-.4-.4-.3 0-.4-.1-.4-.2.1-.3 0-.4-.3-.5l-.4-.2-.3-.3c-.2 0-.4-.1-.3-.2L14 6l-.6-.3-.5-.3-.6-.3c-.1-.1-.2-.1-.4 0-.2 0-.2 0 0 0 .3 0 .4.1.2.1s-.2 0 0 .1c.2 0 0 .4-.2.4-.1 0-.2 0 0-.1l-.2-.4a.6.6 0 01-.2-.4c0-.3 0-.3-.2-.4-.4 0-.6-.2-.6-.4 0-.1-.4-.3-.6-.2 0 .1-.4 0-.7-.4-.3-.3-.7-.4-1-.4-.4.1-.4.1-.3-.1 0-.2 0-.2-.2-.2H8c.2-.1-.7-.7-1.5-.9l-.7-.2-.8-.3-.8-.3c0-.2-1-.5-1.2-.5-.2 0-.5 0-.7-.2-.4-.2-.5-.2-.9 0-.3.1-.4.2-.3.3zm6.6 2.7v.1c0 .1 0 .2-.1.1v-.1s.1-.1.1 0zm2 1.4c.1 0 .1 0 0 .1h-.3c-.1 0-.1 0 0 0h.4zm1 0c.2 0 .2.1.2.2h-.2v-.1zm4.6 4s.1 0 0 .2l-.2-.1h.2zm.5-.7l.2.1c0 .2 0 .1-.2 0l-.2-.2h.2zm.3.6h.1c0 .1 0 .1 0 0h-.2.1zm.1.5c.1 0 .1.1 0 .1-.2-.2-.2-.2 0-.1zm.6 0s.1 0 0 0h-.2c0-.1 0-.1.2 0zM3 61.7l.2.2v.1c-.1 0-.3-.1-.2-.3 0-.1 0-.1 0 0zm.5 1.5l.2.2h-.2l-.2-.1c0-.1.1-.1.2 0zm1.6-5.6c.1 0 .2 0 .1.1L5 58l-.2-.1c0-.1.1-.2.3-.2zM18.3 9.4v.2c0 .1 0 .1 0 0-.2-.2-.2-.2 0-.2zM6 57.6c.1 0 0 .1 0 0h-.3c0 .1-.1.1-.2 0H6zM3.8 65v.2h-.1V65zM3 68.4v.2l-.2-.1h.2zm3-10c.2.2.1.2-.2 0-.1-.2-.2-.2 0-.2l.2.2zm.4-.1H6.2h.3zm-.7 2.6H6l-.1-.2h-.2v.2zm-1 4l.2.1h-.2v-.1zm1.5-5l.2-.2h-.2c-.1.2-.1.2 0 .1zm8.5-2.8h.1l-.1.2-.2-.1.2-.1zM27 23.4c.1.1 0 .1 0 0h-.2.2zm-.2 2.6v.2h-.1V26zm.2-.7c.1 0 .1.2 0 .2l-.1-.1v-.1zm-1.6 9.1c-.1.2-.2.2-.2 0h.2zm-7.5 33.4l.2.1h-.3c-.2-.2-.2-.2.1-.1zM27 34v.1l-.1.1-.1-.1.2-.1zm-8.4 33.5c0 .1-.2.3-.3.2v-.1h.3zm.6 0h-.2.2zM26.9 41l.1.2s0 .1-.1 0c-.2 0-.2-.2 0-.2zm0 1.8c0 .1 0 .2-.1.1h-.1l.1-.1zm-6.6 25.7c.2 0 .1.2-.1.2-.1 0-.2 0 0-.1 0 0 0-.1.1 0zm.6.1v-.2.2z" fill="#2F67E9"/></svg>
