<svg viewBox="0 0 1123 8" xmlns="http://www.w3.org/2000/svg">
  <path d="M1066.7.9l-1.5.1-1.5-.1-18.5-.1a459.7 459.7 0 00-19.9.1h-3.4l-12.8.1-11.5.1-13.8.1a1191.8 1191.8 0 00-26.1.3 2378 2378 0 00-41.5.3 611 611 0 00-19.2.3 516.2 516.2 0 00-19 .3 1232.5 1232.5 0 00-20.2.2 1731.1 1731.1 0 00-36.2.5 3310.2 3310.2 0 00-30.7.2 2708 2708 0 01-54.8.3 604.3 604.3 0 00-27.1.2 651.1 651.1 0 00-28.8-.2H666.3A4807.4 4807.4 0 01569 2.4a1860.1 1860.1 0 00-38.5-.4 1160.8 1160.8 0 00-31.5-.3 62211.8 62211.8 0 00-67-.5 1502.6 1502.6 0 00-39.4 0H350a2297.2 2297.2 0 00-53 .4A5870.2 5870.2 0 00189.4 3a3835 3835 0 00-62.3 1 180.4 180.4 0 01-10 .2h-3.4l-8 .2a1466.8 1466.8 0 00-44.1 1l-9.6.2c-4.3 0-8.5.2-5.9.3l2 .2h-2.7a209 209 0 00-14.8.2l-7.8.2L8.6 7c-9 .3-9.6.4-7.8.6l3 .2a121.2 121.2 0 0010.5-.4 40.8 40.8 0 006-.1l8.2-.2a3519.3 3519.3 0 0166.4-1.6l11.8-.2a21 21 0 006.3-.4l.6-.4.3.4.2.3 11.2-.2A205325.9 205325.9 0 00261.6 3a7884.2 7884.2 0 01101.6-.8 50.2 50.2 0 008.9-.3l1.7.1 11.1.2a58.5 58.5 0 009.2 0h29.6a1822.8 1822.8 0 0154.2.3l10.7.2a33601.7 33601.7 0 01160.2 1.8 9088.3 9088.3 0 00241.1-1 37395.9 37395.9 0 0189.3-1.2s.7-.2 1.7-.2 1.3 0 .7.1c-1 .3-.6.3 5.8.2a2983.9 2983.9 0 0147.8-.3c19-.2 36.6-.2 64.4-.2h12.2l5.7-.5 5.5-.6a1117.4 1117.4 0 00-27.8 0 2188.7 2188.7 0 00-28.5 0zM603 3.7c-1.5 0-1.7 0-.9-.1a8 8 0 012-.2c.4 0 0 .2-1 .3z" fill="#414141"/>
</svg>
