<svg viewBox="0 0 189 10" xmlns="http://www.w3.org/2000/svg">
  <path d="M179.6 1.5c8.9.9 7.4.2 7.2.6l2.2.6-1.7.7.4.3-.3.2c-2.8-.2-5.4.5-8.2.3-2.8 0-5.6-.2-8.4 0-2.2.2-4.4.3-6.7.3-.6 0-1.2-.3-2 0-.7.2-1.6 0-2.5 0H152l-.3.2 2 .2v.2H148c-.9-.8-2-.7-3.1-.3-.5.2-1.2 0-1.7 0H120c-.8 0-1.8-.2-2.5.4h-.2c-.7-.6-1.5.2-2 0-.8-.4-1.3-.4-2 0l-1-.2c-.5-.2-.4-.4 0-.6l-.3-.2h-.4l-.4.6a2 2 0 01-1 .3c-.5 0-1.2-.3-1.6-.1-.7.2-1.1.2-1.8 0-.4-.1-1 .1-1.7.2h-6.8l-.6-.7-1.2.7c-1 .1-2.6-.5-3.6.6l-.8-.6c-2 .4-3.8.5-5.7 0-2 .6-4 .1-6 .3l.1-.6c-.7-.2-.6.3-.8.6H77l-.4.6-.3-.1a2 2 0 00-2-.5c-1.4.5-3 .2-4.4.3-1.3 0-2.6 0-4 .2l2.5.2c-1.8 0-3.8.8-5.1-.3l-2.5.2h-7l-.4.8-1-1c-.2.4-.6.8-1.3.5-.8-.3-1.2 0-1.9 0-1.2.2-2.6 0-3.9.3l1.9.1-.3.3h-5.4c-1.3 0-2.6-.5-4-.3-.2 0-.4 0-.6.2l2 .1c-2.1.2-4.1.5-6.2 0-1-.2-2 0-3.2.2l1.4.2-.2.2h-2.5c-.4-.7-1 .3-1.7-.1-.5-.3-1.4.4-2.3-.1-.4-.3-1.7 0-2.6.1l2 .2-.4.2h-3.6c-2.4.1-4.9.1-7.2.4l-3.8.3c-1 0-2 .3-2.5 1.3H4.7c-.3-.6-1.4-.7-1.7-1.2-.2-.4-.6-.6-1.2-.8C.6 7.6.4 6.8 1 6l-1-.7V5c1-.7 2-1 3.5-1.2 2.4-.2 4.8-.6 7.3-.6 1.4-.5 3-.2 4.4-.3 1.2 0 2.4-.2 3.5-.3 1.2 0 2.4.2 3.4 0 1.5-.4 2.9-.4 4.3-.3 1.8.1 3.4-.4 5.2-.3 1.8 0 3.7.2 5.4 0 3.3-.6 6.7 0 10-.4 4-.4 8 0 12-.3 5.4-.5 10.7-.1 16-.3h2c.6 0 1.2 0 1.6-.3.3.5 1 0 1.4.2.3.1 1.1-.2 1.7-.2h11.4c.7 0 1.5-.1 2.3.2.3.2 1.2-.2 1.9-.2h6.2c.7 0 1.6.2 2.2-.3.5-.4.8.6 1.4 0h1.4c.6.6 1.3-.4 1.7 0 .7.6 1.1 0 1.7 0h.9c.5.1 1.4.4 1.5.2.7-.5 1.5 0 2.2-.2.8-.2 1.8 0 2.7 0h48.3c2.1 0 4.3.3 6.4-.4 1 .6 2.2 0 3.3 0h10.6c-.2.3-.2.6-.4.7-1.7 0-3.4.4-5.2.3h-10.8l-.4.2.5.1c.4 0 .8.4 1.3 0h1c4.7 0 9.5 0 5.8.2H171l-2.3-.5h-4.3c-.7.5-1.5.3-2.3.3h-35c-.7 0-1.4.2-2-.2h-.7c-.7.5-1.7.2-2.5.2-1.8.1-3.5-.2-5.3.3-.4.1-1.2 0-1.8-.1a7.8 7.8 0 00-3.5 0c-.4.1-.9-.3-1.2.1-.6-.5-1.7-.4-2.2-.2-1 .3-1.6-.3-2.4 0h-.4c-.4.3-.7.2-1.2 0-.5-.1-1.4-.2-1.9 0l-2 .2h-2.4c-6 .2-12-.2-18 .3-4.5.4-9-.1-13.6.3-4.2.4-8.4 0-12.7.4-3.3.3-6.7-.2-10.1.3-1.6.2-3.3 0-5 0-1.4.1-2.9-.1-4.4.2-1.5.4-3.3.1-5 .1l-.7.1c.4.3.7.3 1 .3 2.9-.1 5.7 0 8.6-.3 3.5-.4 7.1 0 10.7-.3 3.3-.4 6.8.3 10.1-.4.5-.1.9.6 1.3 0 .6.5 1 0 1.6 0 4 0 8.1.2 12.1-.3h1.7c.7.5 1-.2 1.6 0h11.6c.8 0 1.8.2 2.5-.3l.8.2c.4 0 1 .2 1.2 0 .4-.3.7 0 1 0l1.3-.2c.7 0 1.5-.2 2 .2.6-.3 1.2-.2 1.8-.2.6 0 1.3-.2 1.8.3.4-.5 1.1-.3 1.8-.3h12.3c4-.1 8 .3 12-.4.6.3 1.2.2 1.8.2l2.2-.1c.8 0 1.7-.2 2.4.2.8-.5 1.9-.2 2.8-.2h32.5l11-.2z" fill="#007ec1"/>
</svg>