<svg viewBox="0 0 39 66" fill="none" xmlns="http://www.w3.org/2000/svg">
  <path d="M6 60.3l.7-.7v-.3l1-1.2c.2-.4.5-.8.8-1 .3-.5.6-.9 1-1.2.3-.4.7-.6.9-1 .2-.5.7-.7 1-1.1l.8-1.1.2.1c1-1 2-2 3.3-2.6V50c.2 0 .2.1.3.2l2-1.2c.8-.5 1.8-.8 2.5-1.5.4-.3.9-.5 1.4-.6.3-.1.2-.3.3-.5l.3.2 1.7-1-.3-.3c.2-.3.2-.7.8-.8L24 44l.5-.6.3.3.5-.4v-.2l-.7-.4c-.1-.5.3-.5.5-.7l-.1-.2.2-.4-.8-.6-2.8-.3c-.4-.1-1 0-1.4-.2-.5-.3-1 0-1.4-.2-.5-.3-1-.1-1.4-.3-.5-.1-1 0-1.4-.2-1.1-.4-2.2-.3-3.2-.9-.5.2-1-.3-1.4 0-.4-.3-1-.4-1.5-.5-.7-.2-1.4-.6-2.2-.6l-.8-.4 2.8-.9.4-.6.7.3c1-.4 2-.5 2.8-1.3.3.4.7 0 1 .2 1.1-.6 2.3-.7 3.5-1l.2-.3c.5-.2 1 0 1.4-.3.3-.2.8-.2 1.2-.2.5 0 1 0 1.3-.3.4-.2.8 0 1.3-.2l.3-.4 3-.2.4-.5h1l-.3-.4c.5 0 .8-.3 1-.7v-.3l1.4-1.8-.2-.8-.3-.2v-.2l.4-.2c0-.7-.3-1-.7-1.5-.5 0-.5 0-.8-.7l.4.2v-.4h-.6l.2-.3-1.1-1.8H27l.3-.3-.4-.1v-.5l-.3-.4c-.3.2-.6.3-.7.7-.3-.5.1-.7.4-1.1h-.5c-.3-.5-.6-1-.6-1.6 0-.5-.5-.8-1-1l.2-.3-.5-.1v-.4c-.1-.3-.5-.7-.6-1.1-.3-.7-.9-.9-1.1-1.5-.2-.6-.6-1.2-1-1.7L20 11h.5l.2.4c.2 0 .3-.2.5-.3l.8.5c.2.2.5.2.5.7.4-.1.6.2.8.4l.2-.2a9 9 0 002.8 2l.8 1h.3l1.3 1 .3-.7.8.5-.2.8 1.9 1.4c-.1-.4-.3-.5-.4-.7.4-.3.4.2.7.3l.4-.3a947.3 947.3 0 00.3.4l-.3.5.7.4.3-.3.2.3-.2.9 2.4 1.5-.2-.4c.5 0 1 .2 1.4.3l.4-1.5.4-.3c-1-.7-1.8-1.6-2.7-2.5-1.1-1.2-2.4-2-3.7-3.1-1.2-1.1-2.6-2-4-3-.7-.7-1.4-1.3-2.2-1.8l-3.3-2.3c-.5-.3-.8-.8-1.4-1-.5-.2-1-.7-1.4-1-1-1-2.2-1.8-3.3-2.8-.6-.7-1.4-1.3-2.2-2h-1.2c0 .3-.1.7.2 1l-.7.1c-.5 1-.6 2-.5 3.1l.7.5.6.3-.3.9.8 1.2c.2.3.2.9.9.8l-.3.3c.4.2.3 1 1 1v.7h.3c.5 1.4 1.3 2.4 2.1 3.6v.3c.2.3.3.8.6 1 .4.1.4.8 1 .8v.8l.4.1v.5l.9 1 .2-.7.5.8-.2.4.4.3.2.5-.3.4.6.4.5-.2v.5c.3.2.6.3.7.8.1.9.6 1.6 1 2.4l.3.2v.2l.7 1c.3.3.7.4 1.2.7 0 .2-.2.3-.7.2l.6.5.5-.3-.3.8.2.3-.3.3c-.4 0-.8.2-1.1.4-.7-.2-1.4.2-2 .3l-2.3.5-2 .6c-.8 0-1.5.4-2.2.5-.8.1-1.5.4-2.2.7-.7.2-1.4.3-2 .6l-2.2.7c-.7.1-1.4.5-2 .7l-2.1.7-2.1.8-2.1.8-.6.8.1.2c0 .5-.3.5-.5.6l-.2 1.4.1.2c-.4.6 0 1.1.2 1.6l1 1.2c1 .2 1.9 1 3 .7v.4l2 .4v.3l1.7.5h.7c.4-.3.7-.3 1.2 0 .2.1.4 0 .7.2h-.8v.3c.6 0 1 .1 1.6.3.4.2.8.2 1 0 .5-.2.8 0 1.3-.2l-.2.4c.5.4.8.5 1.3.3.3-.2.6 0 1 0l-1 .1 1.8.5c-1.6.8-2.8 1.9-4.1 2.9-1.3 1-2 1.6-2.7 2.7l-.6.5-.8 1.1-.9.8c-.7.9-1.2 1.8-2 2.6v.5l-.4.3c-.5.8-1 1.5-1.3 2.3l-1 2-.4 2c-.2.7 0 1.4.3 2.2.7-.7 1.3.1 2 0l-1 .2v.2H5.2c.2 0 .5-.1.6.2.2-.4.4 0 .5-.1.3-.3.4.3.6 0l.5-.1H8l.2-.6.1.5h.5l.6-.6h.4l.2.5.2-.5h.2l.2.5c.6-.3 1.1-.6 1.7-.5.3 0 .6-.3 1-.4.5 0 1-.2 1.7-.4l-.5-.5c.3 0 .6 0 .9.2v-.1l.2-.2.1.2h.1l.9-.3v-1h.1l.3.5-.2.5 1.2-.4v-.3c.6.4 1 0 1.3-.3l.4-.2 1-.4.2-.3h.7c0 .1 0 0 .1 0l1.9-.7h.2c.4-.1.5-.7 1-.7.4 0 .7-.3 1-.4l1.2-.5.3-.2h.5l.3-.4h.7c.4-.5.8-1 1.4-1h.2c.6-.7 1.5-.7 2.2-1.3.6-.5 1.4-.7 2.1-1.1l2.8-2 .2-.2 1.2-2.5-.3-1.6c-.1-.2-.4-.3-.7-.5l-1.5.7-1.5.9-3.2 1.9c-.6.4-1.4.6-1.9 1.2-1.2.3-2.2 1-3.3 1.6L25 55l-1.4.6-4.3 1.7-2.3.9-2.4.7c-1.3.5-2.7.6-4 1-.7.3-1.5.2-2.2.3H6" fill="#FFBE5E"/>
</svg>
