<svg viewBox="0 0 31 35" xmlns="http://www.w3.org/2000/svg">
  <path d="M18 1.4c.3-.3.2-.7.2-1 0-.1.2-.5.3-.4.7.4 1.7-.3 2.3.6 2.6 3.2 6 5.7 8.8 8.7l.6.6c1 1.3 1 1.3-.3 2-1.4.9-1.6.9-3-.2l-8.3-7C17.8 4 17 3.1 16.8 2V1c0-.2.1-.5.5-.6.3 0 .3.4.3.6.1.2.2.4.5.5z" fill="#488EFF"/>
  <path d="M7.1 14.5c1.4 0 2.6.7 3.8 1.4 2.6 1.6 4.9 3.5 7.5 5 .5.3.5.6 0 1-1.3 1.3-2.6.7-3.9 0L7 17.4l-2-1c-.4-.2-.4-.6-.4-1 0-.3.3-.4.6-.5.7-.2 1.3-.5 2-.4" fill="#488EFF"/>
  <path d="M5.6 35H1.1c-.4 0-1 0-1-.6-.2-.6.3-.7.6-.9.5-.5 1.2-.7 1.9-.8 3-.4 6-.6 9 0 .2 0 .6 0 .7.4.2.4-.2.5-.4.8-.8 1.1-2 1.1-3.2 1H5.6z" fill="#488EFF"/>
</svg>