<svg xmlns="http://www.w3.org/2000/svg" xmlns:xlink="http://www.w3.org/1999/xlink" xml:space="preserve" width="400"
   height="216.01">
   <defs>
      <clipPath id="b">
         <use xlink:href="#a" width="100%" height="100%" overflow="visible" />
      </clipPath>
      <path id="a" d="M-36 0h202.3v79.6H-36z" />
   </defs>
   <path fill="#f15a29"
      d="M45.4 23.5c0-2.2.4-4.3 1.1-6.3L43.6 16c-.8 2.3-1.3 4.9-1.3 7.5 0 11.8 9.1 21.6 20.7 22.6V43c-9.9-1-17.6-9.4-17.6-19.5"
      clip-path="url(#b)" transform="translate(-1.1 -.62) scale(3.0902)" />
   <path fill="none" stroke="#f15a29" stroke-miterlimit="10"
      d="M45.4 23.5c0-2.2.4-4.3 1.1-6.3L43.6 16c-.8 2.3-1.3 4.9-1.3 7.5 0 11.8 9.1 21.6 20.7 22.6V43c-9.9-1-17.6-9.4-17.6-19.5Z"
      clip-path="url(#b)" transform="translate(-1.1 -.62) scale(3.0902)" />
   <path fill="#6792a1"
      d="M85.2 12.7a22.82 22.82 0 0 0-40.1-.1l2.9 1.2c3.4-5.9 9.8-10 17.1-10 7.4 0 13.8 4.1 17.2 10.1z"
      clip-path="url(#b)" transform="translate(-1.1 -.62) scale(3.0902)" />
   <path fill="none" stroke="#6792a1" stroke-miterlimit="10"
      d="M85.2 12.7a22.82 22.82 0 0 0-40.1-.1l2.9 1.2c3.4-5.9 9.8-10 17.1-10 7.4 0 13.8 4.1 17.2 10.1z"
      clip-path="url(#b)" transform="translate(-1.1 -.62) scale(3.0902)" />
   <path fill="#a2a190"
      d="M87.9 23.5c0-2.6-.5-5-1.2-7.3l-2.8 1.1c.6 1.9 1 4 1 6.1 0 10.3-8 18.8-18.1 19.6v3.1c11.8-.8 21.1-10.6 21.1-22.6"
      clip-path="url(#b)" transform="translate(-1.1 -.62) scale(3.0902)" />
   <path fill="none" stroke="#a3a790" stroke-miterlimit="10"
      d="M87.9 23.5c0-2.6-.5-5-1.2-7.3l-2.8 1.1c.6 1.9 1 4 1 6.1 0 10.3-8 18.8-18.1 19.6v3.1c11.8-.8 21.1-10.6 21.1-22.6Z"
      clip-path="url(#b)" transform="translate(-1.1 -.62) scale(3.0902)" />
   <path fill="#2a4f5d"
      d="M178.74 99.5c-.93-.92-1.54-1.54-.62-3.09l3.71-6.18c.93-1.54 2.47-1.54 3.71-.61 4.33 3.09 8.96 6.18 15.76 6.18 5.56 0 9.58-3.4 9.58-7.73 0-4.94-4.64-8.65-13.29-12.05-9.89-3.7-19.78-9.89-19.78-21.63 0-8.96 6.8-19.16 23.49-19.16 10.82 0 18.85 5.25 21.01 6.8.93.61 1.24 2.16.62 3.4l-4.02 5.56c-.92 1.23-2.47 1.85-3.7 1.23-4.64-2.78-8.66-5.56-14.53-5.56-5.87 0-9.27 3.1-9.27 7.1 0 4.64 4.02 7.73 12.36 11.13 10.2 4.02 21.94 9.58 21.94 22.56 0 10.2-9.27 19.78-24.1 19.78-13.29 0-20.09-5.25-22.87-7.73zM.44 212.3c-.31-.31-.62-.62-.31-1.24l1.85-2.78c.31-.62 1.24-.62 1.55-.3 1.85 1.23 3.7 2.77 6.8 2.77 2.16 0 4.01-1.54 4.01-3.4 0-2.16-1.85-3.7-5.56-5.25-4.02-1.55-8.34-4.33-8.34-9.58 0-4.02 2.78-8.34 9.89-8.34 4.63 0 8.03 2.16 8.96 3.09.3.3.62.92.3 1.54l-2.16 2.16c-.3.62-.92.93-1.54.62-1.86-1.23-3.71-2.47-6.18-2.47-2.47 0-4.02 1.55-4.02 3.09 0 2.16 1.55 3.4 5.25 4.94 4.33 1.86 9.27 4.33 9.27 9.9 0 4.63-4.01 8.65-10.2 8.65-5.25.3-8.34-2.17-9.57-3.4zM33.5 189.74h-6.8c-.61 0-.92-.31-.92-.93v-3.7c0-.32.3-.93.92-.93h19.16c.62 0 .93.3.93.92v3.71c0 .31-.3.93-.93.93h-6.8v24.72c0 .3-.3.93-.92.93h-4.02c-.3 0-.93-.31-.93-.93v-24.72zM54.52 185.41c0-.3.3-.93.92-.93h4.02c.3 0 .93.31.93.93v29.36c0 .3-.31.93-.93.93h-4.02c-.3 0-.92-.31-.92-.93zM70.58 185.41c0-.3.31-.93.93-.93h17.92c.62 0 .93.31.93.93v3.71c0 .3-.3.93-.93.93H76.15v8.34h10.81c.31 0 .93.31.93.93v3.7c0 .32-.3.93-.93.93H76.15v11.13c0 .3-.31.93-.93.93H71.2c-.62 0-.92-.31-.92-.93V185.4zM102.72 189.74h-6.8c-.61 0-.92-.31-.92-.93v-3.7c0-.32.3-.93.92-.93h19.16c.62 0 .93.3.93.92v3.71c0 .31-.3.93-.93.93h-6.8v24.72c0 .3-.3.93-.92.93h-4.02c-.3 0-.93-.31-.93-.93v-24.72zM123.74 185.41c0-.3.3-.93.92-.93h17.93c.61 0 .92.31.92.93v3.71c0 .3-.3.93-.92.93H129.6v7.1h10.81c.31 0 .93.31.93.93v3.71c0 .62-.3.93-.93.93h-10.81v7.72h12.98c.61 0 .92.31.92.93v3.7c0 .32-.3.94-.92.94h-17.93c-.61 0-.92-.31-.92-.93zM151.86 185.41c0-.3.3-.93.92-.93h12.67a9.63 9.63 0 0 1 9.58 9.58c0 4.02-2.78 7.42-6.49 8.97l6.18 11.12c.31.62 0 1.24-.61 1.24h-5.26c-.3 0-.62-.31-.62-.31l-5.87-11.74h-4.94v11.12c0 .3-.31.93-.93.93h-4.02c-.61 0-.92-.31-.92-.93v-29.05zm12.98 13.29c2.47 0 4.32-2.16 4.32-4.64a4.42 4.42 0 0 0-4.32-4.32h-7.11v8.65h7.1zM179.67 185.72c-.31-.62 0-1.24.62-1.24h4.63c.31 0 .62.31.62.62l8.65 18.85h.31l8.65-18.85c0-.3.31-.62.62-.62h4.64c.62 0 .92.62.62 1.24l-13.6 29.67c0 .3-.31.62-.62.62h-.3c-.32 0-.63-.31-.63-.62zM215.2 185.41c0-.3.32-.93.93-.93h17.93c.61 0 .92.31.92.93v3.71c0 .3-.3.93-.92.93h-12.98v7.1h10.81c.31 0 .93.31.93.93v3.71c0 .62-.3.93-.93.93h-10.81v7.72h12.98c.61 0 .92.31.92.93v3.7c0 .32-.3.94-.92.94h-17.93c-.61 0-.92-.31-.92-.93zM243.33 185.41c0-.3.3-.93.92-.93h12.67a9.63 9.63 0 0 1 9.58 9.58c0 4.02-2.78 7.42-6.49 8.97l6.18 11.12c.31.62 0 1.24-.61 1.24h-4.64c-.3 0-.62-.31-.62-.31l-6.18-11.74h-4.94v11.12c0 .3-.31.93-.93.93h-4.02c-.61 0-.92-.31-.92-.93zm12.98 13.29c2.47 0 4.32-2.16 4.32-4.64a4.42 4.42 0 0 0-4.32-4.32h-7.11v8.65h7.1zM290.92 199.63c2.47.92 5.25 3.09 5.25 7.1 0 4.95-4.33 8.66-9.58 8.66h-10.82c-.61 0-.92-.31-.92-.93V185.1c0-.3.3-.92.92-.92h10.51c5.25 0 9.27 3.4 9.27 8.03a8.1 8.1 0 0 1-4.63 7.42zm-5.26-2.17c2.17 0 3.71-1.85 3.71-4.01 0-2.17-1.54-3.71-3.7-3.71h-4.95v7.72zm.62 12.67a4.1 4.1 0 0 0 4.02-4.01c0-2.17-1.55-3.71-4.02-3.71h-5.56v7.72zM301.11 214.15l13.6-29.67c0-.3.3-.61.62-.61h.3c.32 0 .63.3.63.61l13.6 29.67c.3.62 0 1.24-.63 1.24h-3.7c-.62 0-.93-.31-1.24-.93l-2.16-4.64h-13.3l-2.15 4.64c-.31.3-.62.93-1.24.93h-3.7c-.63 0-.94-.62-.63-1.24zm19.16-9.27-4.32-9.58-4.33 9.58zM336.96 184.8c0-.32.3-.93.93-.93h.62c.3 0 .61 0 .61.3l17.93 19.17V185.1c0-.3.3-.92.92-.92H362c.31 0 .93.3.93.92v29.67c0 .3-.31.93-.93.93h-.62c-.3 0-.62 0-.62-.31l-18.23-20.09v18.85c0 .31-.3.93-.92.93h-4.02c-.31 0-.93-.31-.93-.93V184.8zM373.12 185.41c0-.3.3-.93.92-.93h10.5A15.3 15.3 0 0 1 400 199.94a15.5 15.5 0 0 1-15.45 15.45h-10.5c-.32 0-.93-.31-.93-.93zm10.81 24.72c5.87 0 9.89-4.01 9.89-10.2 0-5.87-4.33-10.2-9.89-10.2H379v20.1h4.94z"
      style="stroke-width:3.0902" />
</svg>