<svg xmlns="http://www.w3.org/2000/svg" width="1118.3" height="1117.6">
<path d="M1026 756c-19-2-40 1-57-8s-35-9-57-13c-11-14 18-4 26-5 11 1 25-6 38-6 33-6 31 19 50 29v3Z" style="fill:#fb7777"/>

<path d="M877 478c90 4 30 48-14 65 77 10-22 45-45 51 18 6 20 17 5 26 28 3 123 8 50 29v1c16-2 70 8 30 22 51 31-28 31-48 29 100 40 138-5 153 23 6 11 16 19 29 24 3 1 6 6 3 11-112 20-59-41-222 5-176 50-245 39-368-38-88-4-152-14-123-116-88 83-205 58-251-46-27-48 11-23 34-13-6-23 10-30 29-21 8-4 18-6 23 5s-12 27 10 23c-3-12-1-21 14-21 18-15 25-2 24 17 23-1 47-12 68-23v-1c-42 0-86-6-128-13-287-61 101-84 165-30 0-14 2-71 21-53 59-48 145-15 101 1 24 26 42 63 21 94-11 22-97 89-43 87 36 4 102-48 100-63-10-135-145-262-72-398 13-21 23 5 22 21h1c35-71 32 12 24 41 22-34 39-27 28 10 37-44 39-6 23 27 36-31 43-11 23 22 29-15 48-9 21 19l1 1c19-11 45-10 25 17 22-4 37-1 25 24 28-12 29 8 14 27 18-4 22 3 16 16l1 1c20-44 35-91 53-136 52-97 39 6 26 45h1c53-122 103-106 37 11 71-98 103-64 44 2l1 1c61-44 106-26 39 28l1 1c41-18 62-7 27 29 57-5 2 36-17 45a34 34 0 0 1-6 4v1c19-8 78-14 62 22-19 21-46 31-71 44v1Zm-357-97c34-60 54-35 44 19 23-23 43-23 32 13 38-16 34 18 27 40 12-11 38-52 38-60-36 28-24 0-5-18a10 10 0 0 0-1-2c-60 41-23-3-6-28l-2-2c-27 10-53 43-52 21 21-27 62-55 4-34-13 4-22 14-34 20-21-6 41-41 41-49-21 4-41 16-58 31-32 7 34-46 36-52v-1c-19 8-36 20-49 37-32 13 31-56 30-65l-1-1c-11 6-21 18-28 29-46 70 0-42 5-59l-2-1c-15 16-26 38-36 59-28 25 8-61 8-68-8 4-14 20-19 28-37 88-5-61-6-75l-2-1c-15 26-20 57-23 87-20 43-4-81-8-87h-1c-41 73-10 158 22 230 12-55 47-88 45-11Zm228-162c-28 40-38 90-57 135 23 1 22 13 18 31 37-12 35 15 26 39 32-5 39 11 25 37 41 0 17 28 1 42 53 12-3 38-24 46 56 28-32 49-54 56 11 18-19 26-33 33 35 17 78 32 114 7 0-9-17-4-20-14 17-14 58-13 77-23v-1c-95-12 44-30 60-50-39-12-78 21-93 14-15-13 125-54 124-70-1-32-102 3-112 9-10 0-7-10 3-13 245-111 62-89 5-42-45 5 102-76 102-83l-1-1c-39 6-74 30-106 53-22 18-26 0-6-12 35-28 79-41 107-77-37 1-108 55-119 67-60 21 115-101 106-112-56 0-121 94-108 50 22-28 51-54 66-88l-1-1c-35 24-56 60-82 96-44 32 52-120 39-129-35 33-49 82-68 126-39 65 17-120 12-125ZM340 448c-4 4-7 5-12 2 0 14-4 30-1 43 19 14 65 22 53 52 0 3 0 4 5 3 68-18-19-31 39-39-22-13-16-19 7-22-7-10-37-15-18-23 20 5 52 31 15 34 14 11 12 19-6 23 8 17-13 33-27 37-8 3-17-3-24 2-19 28-42 59-41 95 10 78 100 52 120 59 17 6 27 17 45 26 121 72 223 39 334 10 45-14 133-8 36-33-94-29-98-59-125-51-44 12-71-10-105-23-9-3-22 5-32-3-7-4-2-15 7-9 22 6 49-6 64-18-2-12-45 5-37-13 40-4 114-24 106-35-6-6-15-6-23-6-86 5 44-24 51-41-12-6-29-3-41 4-42 1 73-47 33-50-60 11-7-14-8-26 7-32-41 6-45 0-2-4-2-5 2-10 42-52 1-52-13-27-2 10-18 16-13 1 14-19 24-66-5-34a531 531 0 0 1-177 209c-68 60-134 51-113 8 13-27 38-41 55-66 19-22 10-43-1-64-9-26-57-24-10-39-31-11-83 1-93 23ZM80 550c67 157 237 109 289-20-11-10-43-32-49-16-71 64-178 69-240 36Zm427-202h-1c-56 62 28 138 20 210 50-33 111-140 85-138-15 3-22 13-32 26-27 16 15-41 9-51-19 10-27 33-37 39-17 5 18-84-1-75-17 14-23 31-30 52-20 31-9-56-13-63ZM61 477v2c77 35 188 43 234 39 71-29-78-49-96-50-47-4-92-1-138 9Zm705 181c58 42 91 34 141 31a6 6 0 0 1 1-2c-11-6-53-13-17-24v-1c-25 0-64-7-19-25v-1c-33-2-68-11-102-3 8 11 7 15-4 25Zm252 95 1-2c-36-37-31-26-73-20-55-5-16 8 9 9 20 11 40 13 63 13ZM153 543l-3-5c-4 0-10 12-16 7-11-16-20-3-11 8 12 6 31 10 30-10Zm28 6c6 16 23 9 18-8-5 6-9 9-18 8Zm688-215-1-2-3 2a4 4 0 0 1 0 1Z" style="fill:#1f0c17;stroke:#000;stroke-miterlimit:10;stroke-width:2px"/>
<path d="M244 732c3 33-15 19-33 11-34-13-35-36-1-45 26-38 34 15 35 34Zm-11 9c2-12-6-70-13-32 0 3-2 5-5 5-44-5 3 23 18 27ZM407 856c-3 13 1 39-11 38-17-10-54-26-42-44 6-9 14-8 24-7 15-17 31-10 29 13Zm-14 23c1-12 5-22 1-35-21 19-15 5-31 12 5 11 19 15 30 23Z" style="fill:#1f0c17"/>
<path d="M879 407Z" style="fill:#fb7777"/>
<path d="M342 447c16-27 74-32 93-23-42 13-8 17 0 25 16 17 29 51 17 68-25 39-126 122-14 107 55-19 135-90 151-114 38-44 73-82 93-136 33-31 12 26 4 38-3 7 6 11 10 3 5-13 16-23 31-22 16 20-30 49-15 54 11-3 54-30 41 3-4 11-11 10-18 18-1 16 24 0 33 4 18 13-71 46-42 50 15-3 29-12 45-4-25 27-111 35-70 43 117-5-36 41-64 39-14 18 64 0 28 20-35 16-39 13-64 11-8 15 23 13 31 11 30 11 58 30 85 27 17 0 35-11 50 3 35 21 66 35 104 47 103 23-34 21-57 35-130 36-216 44-311-10-77-48-64-25-116-33-93-18-52-109-13-153 25 5 56-13 48-37 16-4 23-10 6-23 45-3-14-44-20-30-6 6 20 12 23 19-21 2-31 8-7 22-57 7 29 23-41 39-1-32-14-33-40-47-27-6-13-31-15-51 4 3 8 2 11-2 2 21 25-7 33 19 12 55 28-41-30-20Zm2 33h1c-3 13 14 24 19 8 6-27-19-37-20-8Z" style="fill:#f0fdf9"/>
<path d="M748 220c-5 42-18 84-27 127 5 40 33-48 37-54 13-27 24-55 47-75 2 17-10 33-17 50-11 28-45 82-30 84 33-27 50-78 89-101l2 1c-21 50-80 89-66 99 34-15 64-62 107-61-4 17-21 26-34 37-27 23-96 73-81 79 11 2 16-12 25-17 35-27 89-57 104-54-26 33-69 49-103 74-29 19-19 32 4 13 33-23 63-44 104-51v1c-36 32-118 72-109 82 5 5 11-1 18-5 69-48 175-43 53 14-39 22-77 34-77 42-3 17 108-41 119-6-11 28-153 61-122 74 31-6 58-26 90-16-32 25-150 37-60 49v2c-23 11-89 14-74 27 47 14-21 24-35 23-23-1-40-12-62-20 14-6 44-16 33-33 24-8 110-29 54-56 25-10 75-35 23-46 19-16 40-41 0-42 14-28 4-42-25-37 10-28 7-50-26-39 4-19 5-30-18-31 22-56 36-109 57-135Z" style="fill:#fb7777;stroke:#000;stroke-miterlimit:10;stroke-width:2px"/>
<path d="M80 550c80 41 188 15 244-40 3-3 4-5 10-1 44 23 41 16 19 53-78 118-218 118-273-12Z" style="fill:#fec78a"/>
<path d="M507 348c-1 148 16 16 46 10 12 18-23 93 3 72 8-13 18-27 32-36 5 14-35 66-8 52 8-12 14-21 29-26 39 5-68 136-83 137 0-91-75-152-20-209Z" style="fill:#f0fdf9"/>
<path d="M61 477c88-21 188-9 236 12 7 4 22 9 18 15-26 43-242-13-254-25Zm213 21c0-8-13-15-16-5-5 18 14 18 16 5Z" style="fill:#fec78a"/>
<path d="M766 658c11-10 12-15 4-25 33-8 68 1 102 3v1c-45 18-6 26 19 25v1c-35 11 3 17 17 24a6 6 0 0 0-1 2c-96 9-101-8-141-31Z" style="fill:#f0fdf9"/>
<path d="M344 480c1-26 21-21 21 1s-23 18-20-1ZM274 498c0 7-10 13-15 7-9-18 12-23 15-7Z" style="fill:#1f0c17"/>
<path d="M520 381c1-84-38-35-46 11-36-82-60-159-22-230h1c5 38-11 95 3 95 7 0 5-10 6-18 3-26 8-53 22-77l2 1c0 39-26 119-3 98 9-20 13-39 28-51-50 157 16 15 28 9l2 1c-61 164 6 30 23 30l1 1c-10 22-27 39-40 61 2 18 16-6 24-12 11-9 21-15 35-21v1c-105 104 4 19 22 21-12 19-52 37-44 47 6 5 11-4 17-7 16-10 32-18 50-18-5 16-23 26-34 41-4 24 43-22 52-21l2 2c-22 31-50 66 6 28a10 10 0 0 1 1 2c-23 23-27 44 5 18 0 8-26 49-39 60 9-27 9-54-26-40 12-40-13-33-32-13 11-64-16-71-45-19Z" style="fill:#fb7777"/>

<!-- hearts -->
<path d="M153 543c1 20-17 15-30 10-10-13 0-24 13-7 8 1 5-5 14-8ZM181 549c8 0 11 0 18-8 5 21-14 21-18 8Z" style="fill:#95bc1a"/>
<path d="M748 219h1a4 4 0 0 0-1 1ZM233 741c-51-18-40-33-18-27 7 0 4-8 7-14 11-13 11 35 11 41ZM393 879c-10-8-24-11-30-23 11-3 21 0 31-12 4 10 0 22-1 35Z" style="fill:#95bc1a"/>
</svg>