<svg width="60" height="40" viewBox="0 0 60 40" fill="none" xmlns="http://www.w3.org/2000/svg">
<rect x="1" y="1" width="58" height="38" rx="3" fill="#FFF5E9"/>
<rect x="1" y="1" width="58" height="38" rx="3" stroke="#57534F" stroke-width="2"/>
<rect x="10" y="4.73633" width="42.9282" height="2.63846" fill="black" fill-opacity="0.08"/>
<rect x="24.2109" y="14.375" width="13.9823" height="12.0498" fill="#57534F"/>
<path d="M25.0443 28.625C24.5401 28.625 24.1084 28.4372 23.749 28.0615C23.3897 27.6858 23.2103 27.2348 23.2109 26.7083V13.2917C23.2109 12.7646 23.3906 12.3132 23.7499 11.9375C24.1093 11.5619 24.5407 11.3744 25.0443 11.375H37.8776C38.3818 11.375 38.8135 11.5628 39.1729 11.9385C39.5322 12.3142 39.7115 12.7652 39.7109 13.2917V26.7083C39.7109 27.2354 39.5313 27.6868 39.1719 28.0625C38.8126 28.4381 38.3812 28.6256 37.8776 28.625H25.0443ZM25.9609 24.7917H36.9609L33.5234 20L30.7734 23.8333L28.7109 20.9583L25.9609 24.7917Z" fill="#FFD59D"/>
<rect x="10" y="32.625" width="42.9282" height="2.63846" fill="black" fill-opacity="0.08"/>
</svg>
