<svg xmlns="http://www.w3.org/2000/svg" viewBox="0 0 300 300"><path d="m162 59.1 40.7.5 33.1.5a63 63 0 0 1 9.6 1.2 20.9 20.9 0 0 1 9.5 4.5c3.5 2.7 5 6.6 5.9 10.7a118 118 0 0 1 2.3 24.4 3075 3075 0 0 1-.7 52.6c-.2 8.5-.7 17-2.9 25.4a28.2 28.2 0 0 1-7.8 13.3 31.2 31.2 0 0 1-16 7.7 62.5 62.5 0 0 1-14.9 1.7l-62.3-.5c-2.8 0-2.9-.6-2.8 2.9.2 8.1-.9 16.2-1.5 24.3l-.8 10.5c-.2 3.5-.1 2.1 2 2.1a156.4 156.4 0 0 1 29 1.8 53.1 53.1 0 0 1 12.9 3.8c.7.4 2 .6 1.5 1.7s-1.5 0-2.1-.3a51.5 51.5 0 0 0-13.8-3.8 166.5 166.5 0 0 0-44.6-.5c-6.8.7-13.6 1.7-20.4 2.6a3.4 3.4 0 0 1-1.4.1c-.4 0-.6-.5-.9-.7s.5-.7.9-.8l8.1-1.2 17.5-2c1.2-.1 1.4-.5 1.5-1.6.1-7.7.1-15.5.6-23.1.3-4.9-.1-9.6-.1-14.4 0-1.1-.2-1.3-1.2-1.3-7.7.1-15.5.4-23.2.2s-17.7-.8-26.6-1.3a359 359 0 0 1-14.6-1.2 37.7 37.7 0 0 1-12.2-3.4 19.5 19.5 0 0 1-10.2-12.7 45.6 45.6 0 0 1-1.7-15.2c.3-6.7.1-13.3.1-20l-.2-16.7c.1-12.1.2-24.3.5-36.5a76.2 76.2 0 0 1 .8-12.6c1.4-9.7 7.5-15.4 16.3-18.4A59.2 59.2 0 0 1 91 60.8l39.2-.9 15-.5H162Zm56.2 140.4h6a3.8 3.8 0 0 0 3.6-.5 15.3 15.3 0 0 0 3.7-.1c3-.6 5.9-1.3 8.9-2.2a25.2 25.2 0 0 0 16.4-14.8 49 49 0 0 0 3.4-17.8l.9-22.8c.2-7.6.1-16.4.2-24.6l.2-7c-.1-4.9-.4-9.9-.3-14.8a93.6 93.6 0 0 0-1.8-17.5c-.7-3.8-2.1-7.5-5.3-10.1a22.2 22.2 0 0 0-8.7-4.3 71.4 71.4 0 0 0-15.3-1.3h-22.5c-6.9-.1-13.8-.5-20.7-.5h-25.1c-5.6 0-11.1-.1-16.7.1-9.7.2-19.3.8-29 1S94 61.9 83 63c-5.1.5-10.3 1.1-14.8 3.8s-9.6 7-10.7 13.4a68.2 68.2 0 0 0-1.1 8.8c-.3 5.4-.4 10.8-.4 16.1l.2 56.4-.1 4.4a39.2 39.2 0 0 0 2.2 18.3 17.1 17.1 0 0 0 7.2 8.9 28.9 28.9 0 0 0 11.6 3.8q6.5.9 12.9 1.2c10.4.6 20.9 1.2 31.3 1.4s22.5-.3 33.7-.3l26.9.2 34.4.4Zm-73.4 35.6h.3v4.9c0 .7.2 1.2 1 1.2l4.7-.2c.7 0 .9-.4 1-1.1l.8-11.8.6-10.1.7-15.5c.1-1-.2-1.4-1.3-1.4h-5.5c-.9 0-1.3.4-1.2 1.3l.1 2.5a80.7 80.7 0 0 1 .1 8.5c-.3 7.3-.8 14.5-1.3 21.7Z" fill="#21202f"/><path d="m216.2 199.8-34.3-.4-26.9-.2c-11.2 0-22.5.4-33.7.3s-20.9-.8-31.3-1.4q-6.4-.3-12.9-1.2a28.9 28.9 0 0 1-11.6-3.8 17.1 17.1 0 0 1-7.2-8.9 39.2 39.2 0 0 1-2.2-18.3l.1-4.4-.2-56.4c0-5.3.1-10.7.4-16.1a68.2 68.2 0 0 1 1.1-8.8c1.1-6.4 5.4-10.3 10.7-13.4S77.9 63.5 83 63c11-1.1 22.1-.7 33.1-1s19.3-.8 29-1c5.6-.2 11.1-.1 16.7-.1h25.1c6.9 0 13.8.4 20.7.5h22.5a71.4 71.4 0 0 1 15.3 1.3 22.2 22.2 0 0 1 8.7 4.3c3.2 2.6 4.6 6.3 5.3 10.1a93.6 93.6 0 0 1 1.8 17.5c-.1 4.9.2 9.9.3 14.8l-.2 7c-.1 8.2 0 16.4-.2 24.6s-.4 15.2-.9 22.8-.9 12.2-3.4 17.8a25.2 25.2 0 0 1-16.4 14.8c-3 .9-5.9 1.6-8.9 2.2a15.3 15.3 0 0 1-3.7.1c1-2.2.9-2.7-.8-3.9l-.7-.5 3.3-.9a29 29 0 0 0 13.7-6.7 25.2 25.2 0 0 0 7.3-12.1c2.2-8.2 2.5-16.6 2.8-25 .3-10.9.4-21.8.5-32.6 0-7.1 0-14.2-.3-21.2-.3-5.2-.9-10.4-1.7-15.5s-4.2-10.3-9.8-12.7A22.4 22.4 0 0 0 236 66c-4.6-.5-9.3-.8-13.9-.9-9.1-.2-18.1-.3-27.2-.3-16.1-.1-32.3-.2-48.5-.1-9.1 0-18.1.6-27.1.8s-17.3.2-25.9.5a85 85 0 0 0-11.3 1.3 25 25 0 0 0-15 8.6 13.4 13.4 0 0 0-1.8 2.8c-2 4-2.4 8.4-2.6 12.8l-.4 15.9v49.3a54.2 54.2 0 0 1 0 5.7 39.8 39.8 0 0 0 1.7 16.1c1.1 3.2 2.5 6.2 5.1 8.4a24.8 24.8 0 0 0 8.8 4.6c4.9 1.5 10 1.6 15.1 2 10.6.7 21.3 1.2 31.9 1.6 5.7.2 11.3-.1 17-.1l51.3.2h13.5l-.6.9a2.1 2.1 0 0 0 .2 2.7 2.3 2.3 0 0 0 2.7.5 1.9 1.9 0 0 0 1.4-2.1 15.2 15.2 0 0 0-.6-2h5.2c-1.4 2.4-1.2 3.3 1.2 4.6Zm-71.4 35.3c.5-7.2 1-14.4 1.3-21.6a80.7 80.7 0 0 0-.1-8.5l-.1-2.5c0-.9.3-1.3 1.2-1.3h5.5c1.1 0 1.4.4 1.3 1.4l-.7 15.5-.6 10.1-.8 11.8c-.1.7-.3 1.1-1 1.1l-4.7.2c-.8 0-1-.5-1-1.2v-4.9Z" fill="#0178bf"/><path d="M224.3 194.8c-1.6 2.2-1.6 2.6-.1 4.6h-6c1.1-1.5 1.7-3 .3-4.6Z" fill="#0178bf"/><path d="M218.5 194.9a3.9 3.9 0 0 0-3.5.4h-21.8l-51.3-.2c-5.7 0-11.3.3-17 .1a1135 1135 0 0 1-31.9-1.6c-5.1-.4-10.2-.5-15.1-2a24.8 24.8 0 0 1-8.8-4.6c-2.6-2.2-4-5.2-5.1-8.4a39.8 39.8 0 0 1-1.7-16.1 54.2 54.2 0 0 0 0-5.7v-49.4l.4-15.9c.2-5.3.6-8.8 2.6-12.8a13.4 13.4 0 0 1 1.8-2.8 25 25 0 0 1 15-8.6A85 85 0 0 1 93.4 66c8.6-.3 17.3-.3 25.9-.5s18-.8 27.1-.8a3916.4 3916.4 0 0 1 75.7.4c4.6.1 9.3.4 13.9.9a22.4 22.4 0 0 1 6.1 1.8c5.6 2.4 8.8 6.7 9.8 12.7s1.4 10.3 1.7 15.5c.3 7 .3 14.1.3 21.2-.1 10.8-.2 21.7-.5 32.6-.3 8.4-.6 16.8-2.8 25a25.2 25.2 0 0 1-7.3 12.1 29 29 0 0 1-13.7 6.7l-3.3.9h-1.2l-.8.3h-5.8Zm-49.1-1.7 44.9.3a54.3 54.3 0 0 0 18.4-2.6 24.4 24.4 0 0 0 6.4-2.8c5.5-4 9.5-9.1 10.6-16a107.7 107.7 0 0 0 1.9-15.9c.5-16.1.6-32.3.8-48.4 0-3.6-.3-7.3-.2-11a80.3 80.3 0 0 0-1.7-16.2c-1.2-6.2-5-10.1-10.9-12.1a20 20 0 0 0-3.5-.9c-4.2-.3-8.4-.8-12.7-.9h-22c-21.1-.6-42.3-.7-63.4-.2l-28.6.8c-7.3.2-14.5.5-21.8.9a30.5 30.5 0 0 0-11.1 2.6 19 19 0 0 0-9.8 8.7 29.3 29.3 0 0 0-2.3 8.8c-.4 4.7-.4 9.5-.5 14.3l-.2 44.1c0 6 .2 11.9 0 17.8a39.4 39.4 0 0 0 1.4 12.8c1.8 6.6 6 10.6 12.5 12.6 4.1 1.2 8.4 1.4 12.6 1.9 10.6 1.2 21.3 1.4 31.9 1.7 7.1.2 14.3-.1 21.4-.2Z" fill="#21202f"/><path d="m224.3 194.8.8-.3Z" fill="#0178bf"/><path d="M169.4 193.2h-25.9c-7.1.1-14.3.4-21.4.2-10.6-.3-21.3-.5-31.9-1.7-4.2-.5-8.5-.7-12.6-1.9-6.5-2-10.7-6-12.5-12.6a39.4 39.4 0 0 1-1.4-12.8c.2-5.9 0-11.8 0-17.8l.2-44.1c.1-4.8.1-9.6.5-14.3a29.3 29.3 0 0 1 2.3-8.8 19 19 0 0 1 9.8-8.7 30.5 30.5 0 0 1 11.1-2.6c7.3-.4 14.5-.7 21.8-.9l28.6-.8c21.1-.5 42.3-.4 63.4.2h22c4.3.1 8.5.6 12.7.9a20 20 0 0 1 3.5.9c5.9 2 9.7 5.9 10.9 12.1a80.3 80.3 0 0 1 1.7 16.2c-.1 3.7.2 7.4.2 11-.2 16.1-.3 32.3-.8 48.4a107.7 107.7 0 0 1-1.9 15.9c-1.1 6.9-5.1 12-10.6 16a24.4 24.4 0 0 1-6.4 2.8 54.3 54.3 0 0 1-18.4 2.6l-44.9-.3ZM156.9 181c3.2-.2 6.5-.3 9.7-.7a33.8 33.8 0 0 0 6.3-1.4 2 2 0 0 0 1.3-1.5 2.3 2.3 0 0 0-1.2-1.4 19.1 19.1 0 0 0-4.1-1.1l-10.1-.8c-1.2 0-1.6-.4-1.5-1.6a38.4 38.4 0 0 0 0-4.8c0-1 .3-1.2 1.2-1.3a48.7 48.7 0 0 0 6.6-.4 41.7 41.7 0 0 0 27.9-15.3 45.6 45.6 0 0 0 8.2-41.9 53.6 53.6 0 0 0-9.2-18.7c-1.1-1.5-1.1-1.5.1-2.8l2.5-2.4.2-.7c.1-.3-.6 0-.8.2l-1.5 1.4c-.7.6-1.3 1.5-2.1 1.7s-1.2-1-1.8-1.5a3.2 3.2 0 0 0-.9-.3 3.3 3.3 0 0 0 0 1c.5.7 1.5 1.5 1.4 2s-1.1 1.4-1.8 2.1a6.3 6.3 0 0 1-1.2 1.1c-1.3 1.3-1.3 1.3-2.6.1a40 40 0 0 0-34.6-9.1 38.7 38.7 0 0 0-31.6 41.2 38.4 38.4 0 0 0 9.8 22.5c2 2.2 2 2.2-.2 4.4-.6.5-1.1 1.3-1.7 1.5s-1.1-.7-1.7-1.1h-.7a2.8 2.8 0 0 0-.1.9l.3.3c1.4.8.8 1.4 0 2.2l-3.2 3.1-.2.7h.8l3.5-3.4c1.1-1.2 1.2-.7 2-.1 2.7 1.8 5.4 3.7 8.2 5.2a50.4 50.4 0 0 0 20.3 6.1c1.3.1 2 .4 1.8 1.8a22.6 22.6 0 0 0-.1 4.5c.1 1.2-.4 1.4-1.5 1.5-3.7.3-7.3.8-11 1.3a7.9 7.9 0 0 0-2.9 1.1 1.2 1.2 0 0 0 0 2.1 6.9 6.9 0 0 0 2.5 1 63.1 63.1 0 0 0 13.7 1.3Zm-41.5-80.2.3-.3 2-3.7-.3-.2a39.6 39.6 0 0 0-2.2 3.4.8.8 0 0 0-.2.4Zm-4.4 18.5-.5-1.7a16.2 16.2 0 0 0-.4 1.9l.2 2.2Zm-.5-5.1.4.8c.1-.3.4-.5.4-.8l.6-3.2-.4-.5-.4.4ZM147.8 76l-.2-.3-3.4.9-.1.3 2.4-.3 1-.3Zm-26 15.1h-.7l-2.2 2.9v.6h.5l2.3-2.8a1.8 1.8 0 0 1 .1-.7Zm63.6-7.5v-.4l-2.9-1.9-.4.2.2.5 2.5 1.6h.6Zm-62 5.9h.4l2.4-2.6-.3-.2-2.5 2.2v.6ZM170 76l-.4.3a.9.9 0 0 0 .3.5l3 .9.5-.2c.1-.1 0-.4-.1-.5Zm-54.3 65.9c-.1-.9 0-1.2-.2-1.5l-1.4-2.4-.3.2 1.1 2.7Zm47.6-67.3v.2h-.6l-.7.4.6.4h3Zm-51.5 57-.3.3.9 2.8h.3a.9.9 0 0 0 .3-.5 22.5 22.5 0 0 0-.8-2.4Zm6.6 14.1c0 .2-.2.5-.1.6l1.3 2.2.6.2c0-.2.2-.5.1-.6a16.4 16.4 0 0 0-1.4-2.2Zm12.9-62.9c-.1 0-.4-.2-.5-.1l-2.8 2v.4h.5l2.7-2c.1.1.1-.1.1-.3Zm-19.7 45.4-.9-2.8h-.1a26.2 26.2 0 0 0 .1 2.8c0 .2.3.4.4.6Zm1.3-21.6.3-.2.9-2.8-.3-.2-1.2 2.5v.4l.3.3Zm24-26.6c-.5-.2-.7-.4-.8-.3l-2.6 1.3s-.1.3 0 .4l.3.2Zm2.3-1 2.6-1.1.2-.3-.5-.3-2.5 1a.8.8 0 0 0-.2.5Zm11.8-3.2 2.4-.6-.1-.3h-2.4l-.7.4Zm28.6 4.1-.1-.3-2.9-1.1v.3l2.2 1.2.5.2.3-.3Zm-22.3-4.5 1.9-.4a6.7 6.7 0 0 0-1.9-.5 3.2 3.2 0 0 0-1.6.4Z" fill="#e4eca7"/><path d="M156.9 181a63.1 63.1 0 0 1-13.7-1.4 6.9 6.9 0 0 1-2.5-1 1.2 1.2 0 0 1 0-2.1 7.9 7.9 0 0 1 2.9-1.1c3.7-.5 7.3-1 11-1.3 1.1-.1 1.6-.3 1.5-1.5a22.6 22.6 0 0 1 .1-4.5c.2-1.4-.5-1.7-1.8-1.8a50.4 50.4 0 0 1-20.3-6.1c-2.8-1.5-5.5-3.4-8.2-5.2-.8-.6-1.3-.7-2 .1l-3.5 3.4h-.8l.2-.7 3.2-3.1c.8-.8 1.4-1.4 0-2.2l-.3-.3a2.8 2.8 0 0 1 .1-.9h.7c.6.4 1.2 1.2 1.7 1.1s1.1-1 1.7-1.5c2.2-2.2 2.2-2.2.2-4.4a38.4 38.4 0 0 1-9.8-22.5 38.7 38.7 0 0 1 31.6-41.2 40 40 0 0 1 34.6 9.1c1.3 1.2 1.3 1.2 2.6-.1a6.3 6.3 0 0 0 1.2-1.1c.7-.7 1.6-1.3 1.8-2.1s-.9-1.3-1.4-2a3.3 3.3 0 0 1 0-1 3.2 3.2 0 0 1 .9.3c.6.5 1.3 1.6 1.8 1.5s1.4-1.1 2.1-1.7l1.5-1.4c.2-.2.5-.1.8-.2s-.1.6-.2.7l-2.5 2.4c-1.2 1.3-1.2 1.3-.1 2.8a53.6 53.6 0 0 1 9.2 18.7 45.6 45.6 0 0 1-8.2 41.9 41.7 41.7 0 0 1-27.9 15.3 48.7 48.7 0 0 1-6.6.4c-.9.1-1.2.3-1.2 1.3a38.4 38.4 0 0 1 0 4.8c-.1 1.2.3 1.6 1.5 1.6l10.1.8a19.1 19.1 0 0 1 4.1 1.2 2.3 2.3 0 0 1 1.2 1.4 2 2 0 0 1-1.3 1.5 33.8 33.8 0 0 1-6.3 1.4c-3.2.4-6.5.5-9.7.7Zm39-60.1c-.2-1.8-.3-3.8-.6-5.6a34.3 34.3 0 0 0-.9-4.4l-.5-1a3.5 3.5 0 0 0-1.3.8c-.2.2-.2.6-.4.9s-.6 1.4-1.2 1.7a4.3 4.3 0 0 0-2.7 4.9l-.1.4c-.4 1.6-1.6 2.1-2.8 1a3.3 3.3 0 0 1-1.1-1.5c-.8-2-1.9-4-1.7-6.3a2.7 2.7 0 0 0-1.9-2.9c-.9-.3-1.5-.7-1.5-1.7s-.6-1-1.4-.7-2 .5-1.9-1.4-.4-2.1-1.8-2.3-2-.7-2-2.1-.5-1.4-1.3-1.7l-1.4-.4c-2.3-1-2.9-3.1-1.4-5.2a6.4 6.4 0 0 0 1-1.3c.3-.6.6-1.5.4-1.9a4.1 4.1 0 0 0-2-.9c-.4-.1-.9.3-1.3.3s-1.3-.1-1.6-.5-1.3-.4-1.6.4l-.4 1.2c-.8 2.3-2.3 3-4.5 2.2s-3.6-3.2-2.6-5.1A25.5 25.5 0 0 1 158 84l.5-.7c-.3-.1-.6-.4-.9-.4-2.4.2-4.8.1-7.2.5a38 38 0 0 0-32.2 41.2 37 37 0 0 0 20.1 29.5 3.2 3.2 0 0 0 .9.3 3.3 3.3 0 0 1 0-1 5.5 5.5 0 0 1 .6-1.8c.6-.5 1.3-.3 1.9.3a2.9 2.9 0 0 0 1.2.7c3.5.8 4.7.2 6.8-2.6a12 12 0 0 1 3.5-3.6c1.4-1.1 2.7-.4 3.1 1.3a11.7 11.7 0 0 0 1.1 3.3c1.3 1.6 2.4 3.6 4.9 3.6s3.9 1.8 6.1 1.4c.6 1 1.4.6 2.2.3a38.2 38.2 0 0 0 25.3-35.4Zm6-.6a52.5 52.5 0 0 0-10.2-28.5c-1.7-2.5-1.7-2.5-4-.3l-.6.6c-1.7 1.7-1.6 1.6-.1 3.5 10.3 12.6 12.8 26.5 6 41.3a40 40 0 0 1-60.2 14.8c-1-.7-2.2-2.1-3-2s-2.1 1.6-3 2.5-1.2 1.2.2 2.2 4.2 2.9 6.4 4.1a48.8 48.8 0 0 0 33.6 6.1c20.8-3.9 34.8-21 34.9-44.3Zm-41.4-37.2a1.3 1.3 0 0 0-.9.2 33.2 33.2 0 0 0-3.2 4.2 3.2 3.2 0 0 0 2.5 4.8 2.1 2.1 0 0 0 2.6-1.3l.8-2.2c.3-.7 1.3-1.3 2.5-.6a3.3 3.3 0 0 0 1.7.4 10.9 10.9 0 0 1 1.8.1c2.1.4 2.7 1.7 1.6 3.5a13.3 13.3 0 0 1-1.4 1.9 2.2 2.2 0 0 0 .9 3.5 6.7 6.7 0 0 0 1.5.6c1.2.4 2.1 1.1 2.1 2.4s.6 1.3 1.4 1.5 2.5 1 2.3 2.7.3 1.2 1.1.9 1.7-.1 2.1 1.1a2.9 2.9 0 0 0 1.3 1.4 3.3 3.3 0 0 1 2.1 3.3 14.2 14.2 0 0 0 1.6 6.1 4.2 4.2 0 0 0 .9 1.4c.7.6 1.4.4 1.6-.5s0-.9.1-1.3a4.3 4.3 0 0 1 2.2-4c.8-.4 1.3-1.5 1.9-2.3s.4-.9.7-1.1 1.1-1.9.7-3.1a37.1 37.1 0 0 0-5.9-9.7 39.4 39.4 0 0 0-26.6-13.9Zm-3 75.7c1.4-.1 3.3-.2 5.3-.5a19.7 19.7 0 0 0 3.5-.7 4.6 4.6 0 0 0 1.4-.7h-1.8l-4.8-1.4-1.2-.5a10.9 10.9 0 0 1-4.4-6.5c-.3-1.6-1.1-2-2.4-.9a18.3 18.3 0 0 0-3.2 3.6 6.1 6.1 0 0 1-8.7 1.7l-.9-.4c-.1.4-.4.8-.3 1.1a3.5 3.5 0 0 0 2.4 2.7 45.5 45.5 0 0 0 15.1 2.5Zm-.6 21.2 13.4-1.5a9.1 9.1 0 0 0 2.5-1.1 9.7 9.7 0 0 0-2.6-1.1 61.5 61.5 0 0 0-14.8-1c-3.8.2-7.6.7-11.3 1.1a8 8 0 0 0-2.5 1.1 9.7 9.7 0 0 0 2.6 1.1c4.1.6 8.4.9 12.7 1.4Zm-41.5-79.2-.4-.4a.8.8 0 0 1 .2-.4 39.6 39.6 0 0 1 2.2-3.4l.3.2-2 3.7-.3.3Zm-4.4 18.5-.7 2.4-.2-2.2a16.2 16.2 0 0 1 .4-1.9Zm-.5-5.1.6-3.3.4-.4.4.5-.6 3.2c-.3 1.1-.3.5-.4.8ZM147.8 76l-.3.3-1 .3-2.4.3.1-.3 3.4-.9Zm-26 15.1a1.8 1.8 0 0 0-.1.6l-2.3 2.8h-.5v-.6l2.2-2.8Z" fill="#21202f"/><path d="M185.4 83.6h-.6l-2.5-1.6-.2-.5.4-.2 2.9 1.9Zm-62 5.9v-.7l2.5-2.2.3.2-2.4 2.6ZM170 76l3.3 1c.1.1.2.4.1.5l-.5.2-3-.9a.9.9 0 0 1-.3-.5Zm-54.3 65.9-.8-1-1.1-2.7.3-.2 1.4 2.4c.4.8.1.6.2 1.5Zm47.6-67.3 2.2.9h-3l-.6-.4.7-.4h.6Zm-51.5 57 .4.3a22.5 22.5 0 0 1 .8 2.4.9.9 0 0 1-.3.5h-.3l-.9-2.8Zm6.6 14.1.5.2a16.4 16.4 0 0 1 1.4 2.2c.1.1-.1.4-.1.6l-.6-.2-1.3-2.2c-.4-.8.1-.4.1-.6Zm12.9-62.9-.1.4-2.7 2h-.5v-.4l2.8-2c.1-.2.4 0 .5 0Zm-19.7 45.4-.5.6c-.1-.2-.4-.4-.4-.6a26.2 26.2 0 0 1-.1-2.8h.1Zm1.3-21.6-.3-.3v-.4l1.2-2.5.3.2-.9 2.8Zm24-26.6-3.1 1.6-.3-.2c-.1-.1 0-.4 0-.4l2.6-1.3c.1-.1.3.1.8.3Zm2.3-1-.4-.2a.8.8 0 0 1 .2-.5l2.5-1 .5.3-.2.3Zm11.8-3.2-.8-.4.7-.4h2.4l.1.3Zm28.6 4.1c-.1.1-.2.3-.4.3l-.5-.2-2.2-1.2v-.3l2.9 1.1c.1.1.2.1.2.3Zm-22.3-4.5-1.6-.5a3.2 3.2 0 0 1 1.6-.4 6.7 6.7 0 0 1 1.9.5Z" fill="#21202f"/><path d="M195.9 120.9a38.2 38.2 0 0 1-25.3 35.4c-.8.3-1.6.7-2.2-.3-2.2.4-3.9-1.4-6.1-1.4s-3.6-2-4.9-3.6a11.7 11.7 0 0 1-1.1-3.3c-.4-1.7-1.7-2.4-3.1-1.3a12 12 0 0 0-3.5 3.6c-2.1 2.8-3.3 3.4-6.8 2.6a2.9 2.9 0 0 1-1.2-.7c-.6-.6-1.3-.8-1.9-.3a5.5 5.5 0 0 0-.6 1.8 3.3 3.3 0 0 0 0 1 3.2 3.2 0 0 1-.9-.3 37 37 0 0 1-20.1-29.5 38 38 0 0 1 32.2-41.2c2.4-.4 4.8-.3 7.2-.5.3 0 .6.3.9.4l-.5.7a25.5 25.5 0 0 0-2.6 3.8c-1 1.9.3 4.2 2.6 5.1s3.7.1 4.5-2.2l.4-1.2c.2-.4.7-1.5 1.6-.4s1.1.4 1.6.5.9-.4 1.3-.3a4.1 4.1 0 0 1 2 .9c.2.4-.1 1.3-.4 1.9a6.4 6.4 0 0 1-1 1.3c-1.5 2.1-.9 4.2 1.4 5.2l1.4.4c.8.3 1.4.8 1.3 1.7s.8 1.9 2 2.1 1.8.9 1.8 2.3.1 2 1.9 1.4 1.3-.1 1.4.7.6 1.4 1.5 1.7a2.7 2.7 0 0 1 1.9 2.9c-.2 2.3.9 4.3 1.7 6.3a3.3 3.3 0 0 0 1.1 1.5c1.2 1.1 2.4.6 2.8-1l.1-.4a4.3 4.3 0 0 1 2.7-4.9c.6-.3.9-1.1 1.2-1.7s.2-.7.4-.9a3.5 3.5 0 0 1 1.3-.8l.5 1a34.3 34.3 0 0 1 .9 4.4c.3 1.8.4 3.8.6 5.6Zm-51.7-10.6h.3c-.5-2.5-.8-5-1.4-7.4s-1.4-2.2-3.4-1.7c-.5.1-1.2.4-1.6.2s-3.1-.4-4.6.4a1.5 1.5 0 0 1-2.3-.6 2.1 2.1 0 0 0-3-.6c-1.6 1.1-3.5 1.9-4.1 4.2a34.2 34.2 0 0 1-2.9 7.5 12 12 0 0 0-.7 9.8 53.2 53.2 0 0 1 1.6 6.9 14.9 14.9 0 0 0 2.6 6.7c2.5 3.2 5.7 5.6 8.8 8.2a4.7 4.7 0 0 0 1.2.7c1.4.5 1.9.2 1.9-1.3a20.8 20.8 0 0 1 0-2.5 9.6 9.6 0 0 0-2.1-6.7c-1-1.2-.9-2.7-.9-4.2a50.4 50.4 0 0 0 0-5.5l-.5-2.9c-.1-1 1.2-3.8 3.6-3.3l1.9.4c3 .6 5.1-.7 5.6-3.8a32.3 32.3 0 0 0 0-4.5Zm14.7 13c-2.6-.6-3.8 1.1-3 3.1a15.5 15.5 0 0 0 1.2 2.2 2.6 2.6 0 0 1 .3 1.7l-1.7 4.3a2.5 2.5 0 0 0-.1 1.9 2.3 2.3 0 0 0 1.8.6c2.2-.7 3.7.3 5.3 1.7s1.5 1.3 2.2 1.3a1.8 1.8 0 0 1 2 1.7 12.1 12.1 0 0 0 .5 1.8c.7 2.7 1 5.3-.3 7.8a2.8 2.8 0 0 0-.4 1.2c-.1.4.1.8.1 1.2a5.9 5.9 0 0 0 1.4-.2 29 29 0 0 0 3.6-2.5 6.3 6.3 0 0 0 2-2.6c1-3.4 2-6.8 1.7-10.4 0-.8-.1-1.9.4-2.4a20.7 20.7 0 0 0 2-4.6 8 8 0 0 1 1.3-1.9l3-4.5a3.4 3.4 0 0 0-.6-4.3 4.9 4.9 0 0 1-1.1-2.9c-.2-2.5-2.3-3.6-4.3-2.1a20.2 20.2 0 0 1-8.6 3.4 2.3 2.3 0 0 0-1.5.5c-1.1 2.1-3 2.7-5.1 3.2Zm-12-36.4c-2 0-4-.2-4.7 2.2a1.4 1.4 0 0 1-.9.9c-1.6.3-2.4 1.4-3.5 2.5a4.4 4.4 0 0 1-1.7.7 4.4 4.4 0 0 0-3.2 3.5 1.6 1.6 0 0 0 1.9 1.8 3.6 3.6 0 0 1 1.4-.2 5.3 5.3 0 0 0 3.7-.7c1.7-1 2.4-.6 3 1.3a7.1 7.1 0 0 0 1.6 2.6c1.2 1 2.3.6 3-.8a7.1 7.1 0 0 1 1-1.4c1.7-1.8 1.9-2.7.7-4.9s-.6-1.9.5-2.8 1.4-2.1.2-3.6a2.9 2.9 0 0 0-3-1.1Z" fill="#39a5d1"/><path d="M201.9 120.3c-.1 23.3-14.1 40.4-34.9 44.3a48.8 48.8 0 0 1-33.6-6.1c-2.2-1.2-4.3-2.7-6.4-4.1s-1.3-1.1-.2-2.2 1.9-2.3 3-2.5 2 1.3 3 2a40 40 0 0 0 60.2-14.8c6.8-14.8 4.3-28.7-6-41.3-1.5-1.9-1.6-1.8.1-3.5l.6-.6c2.3-2.2 2.3-2.2 4 .3 6.5 9.2 10 19.3 10.2 28.5Z" fill="#e4eca7"/><path d="M160.5 83.1A39.4 39.4 0 0 1 187.1 97a37.1 37.1 0 0 1 5.9 9.7c.4 1.2.7 2.3-.7 3.1s-.4.7-.7 1.1-1.1 1.9-1.9 2.3a4.3 4.3 0 0 0-2.2 4l-.1 1.3c-.1.4-.9 1.1-1.6.5a4.2 4.2 0 0 1-.9-1.4 14.2 14.2 0 0 1-1.6-6.1 3.3 3.3 0 0 0-2.1-3.3 2.9 2.9 0 0 1-1.3-1.4c-.4-1.2-1-1.5-2.1-1.1s-1.2 0-1.1-.9-.8-2.5-2.3-2.7-1.4-.5-1.4-1.5-.9-2-2.1-2.4a6.7 6.7 0 0 1-1.5-.6 2.2 2.2 0 0 1-.9-3.5 13.3 13.3 0 0 0 1.4-1.9c1.1-1.8.5-3.1-1.6-3.5a10.9 10.9 0 0 0-1.8-.1 3.3 3.3 0 0 1-1.7-.4c-1.2-.7-1.9-.6-2.5.6s-.5 1.5-.8 2.2a2.1 2.1 0 0 1-2.6 1.3 3.2 3.2 0 0 1-2.5-4.8 33.2 33.2 0 0 1 3.2-4.2 1.3 1.3 0 0 1 .9-.2Zm-3 75.7a45.5 45.5 0 0 1-15.1-2.7 3.5 3.5 0 0 1-2.4-2.7c-.1-.3.2-.7.3-1.1l.9.4a6.1 6.1 0 0 0 8.7-1.7 18.3 18.3 0 0 1 3.2-3.6c1.3-1.1 2.1-.7 2.4.9a10.9 10.9 0 0 0 4.4 6.5l1.2.5 4.8 1.4h1.8a4.6 4.6 0 0 1-1.4.7 19.7 19.7 0 0 1-3.5.7c-2 .5-3.9.6-5.3.7Z" fill="#83c300"/><path d="M156.9 180c-4.3-.5-8.6-.8-12.7-1.4a9.7 9.7 0 0 1-2.6-1.1 8 8 0 0 1 2.5-1.1c3.7-.4 7.5-.9 11.3-1.1a61.5 61.5 0 0 1 14.8 1 9.7 9.7 0 0 1 2.6 1.1 9.1 9.1 0 0 1-2.5 1.1Z" fill="#0178bf"/><path d="M144.2 110.3a32.3 32.3 0 0 1 0 4.4c-.5 3.1-2.6 4.4-5.6 3.8l-1.9-.4c-2.4-.5-3.8.8-3.6 3.3s.4 1.9.5 2.9a50.4 50.4 0 0 1 0 5.5c0 1.5-.1 3 .9 4.2a9.6 9.6 0 0 1 2.1 6.7 20.8 20.8 0 0 0 0 2.5c0 1.5-.5 1.8-1.9 1.3a4.7 4.7 0 0 1-1.2-.7c-3.1-2.6-6.3-5-8.8-8.2a14.9 14.9 0 0 1-2.6-6.7 53.2 53.2 0 0 0-1.6-6.9 12 12 0 0 1 .7-9.8 34.2 34.2 0 0 0 2.9-7.5c.6-2.3 2.5-3.1 4.1-4.2a2.1 2.1 0 0 1 3 .6 1.5 1.5 0 0 0 2.3.6c1.5-.8 2.9-1.5 4.6-.4s1.1-.1 1.6-.2c2-.5 2.8-.3 3.4 1.7s.9 4.9 1.4 7.4Zm-.5 2.8h-.2l-.3-6.3a19.1 19.1 0 0 0-1.1-4.1c-.1-.4-.8-1.1-1.1-1a6.6 6.6 0 0 1-4.8-.1c-.3-.2-.8.2-1.2.3l-1.6.7c-1 .5-2 .7-2.6-.7a1.5 1.5 0 0 0-2-.7c-1.4 1-3.1 1.5-3.8 3.4s-2.2 5.9-3.5 8.8a10.5 10.5 0 0 0-.5 7.4c.8 2.8 1.4 5.7 2 8.6a13.7 13.7 0 0 0 2.1 5.5c2.5 3.3 5.8 5.8 9 8.4a1.3 1.3 0 0 0 .9.5c.2 0 .7-.3.7-.5.1-3.1.4-6.2-1.9-8.9s-1.1-2.7-1-4.4a37.5 37.5 0 0 0-.1-5.8 27 27 0 0 0-.4-2.8c-.2-3 1.8-4.7 4.8-4l2.3.5a3.3 3.3 0 0 0 3.8-2.5 18.9 18.9 0 0 0 .5-2.3Zm15.2 10.2 2.1-.8c2.1-.5 4-1.1 5.1-3.2a2.3 2.3 0 0 1 1.5-.5 20.2 20.2 0 0 0 8.6-3.4c2-1.5 4.1-.4 4.3 2.1a4.9 4.9 0 0 0 1.1 2.9 3.4 3.4 0 0 1 .6 4.3l-3 4.5a8 8 0 0 0-1.3 1.9 20.7 20.7 0 0 1-2 4.6c-.5.5-.4 1.6-.4 2.4.3 3.6-.7 7-1.7 10.4a6.3 6.3 0 0 1-2 2.6 29 29 0 0 1-3.6 2.5 5.9 5.9 0 0 1-1.4.2c0-.4-.2-.8-.1-1.2a2.8 2.8 0 0 1 .4-1.2c1.3-2.5 1-5.1.3-7.8a12.1 12.1 0 0 1-.5-1.8 1.8 1.8 0 0 0-2-1.7c-.7 0-1.6-.8-2.2-1.3s-3.1-2.4-5.3-1.7a2.3 2.3 0 0 1-1.8-.6 2.5 2.5 0 0 1 .1-1.9l1.7-4.3a2.6 2.6 0 0 0-.3-1.7 15.5 15.5 0 0 1-1.2-2.2c-.8-2 .4-3.7 3-3.1Zm0 .9-.2-.4c-.7.2-1.9.4-1.9.7a6.7 6.7 0 0 0 .3 2.8c0 .2.2.3.4.5a2.3 2.3 0 0 1 .7 3l-1.7 4c-.5 1.3-.2 1.7.8 1.5 2.6-.7 4.5.4 6.2 2.2a2.7 2.7 0 0 0 1.5.9c1.9-.2 2.4.9 2.7 2.3a11.4 11.4 0 0 1 .6 2.5 37.5 37.5 0 0 1 .2 5.8 8.6 8.6 0 0 1-.5 2.3l2.2-1.1c1.4-.7 2.6-1.5 2.9-3.1s1.2-6.1 1.5-9.2 0-3.8 1.6-5.3a2.9 2.9 0 0 0 .5-1.3c.2-1.5 1.1-2.5 1.9-3.7a36.4 36.4 0 0 0 3-4.6 2.4 2.4 0 0 0-.4-2.9 5.1 5.1 0 0 1-1.5-3.6c-.1-1.9-1.7-2.5-3.2-1.4a20.5 20.5 0 0 1-8.9 3.6c-.4.1-1 .2-1.1.4a5.5 5.5 0 0 1-4.8 3l-.7.4Z" fill="#21202f"/><path d="M146.9 86.9a2.9 2.9 0 0 1 3 1.1c1.2 1.5 1.3 2.4-.2 3.6s-1.3 1.6-.5 2.8 1 3.1-.7 4.9a7.1 7.1 0 0 0-1 1.4c-.7 1.4-1.8 1.8-3 .8a7.1 7.1 0 0 1-1.6-2.6c-.6-1.9-1.3-2.3-3-1.3a5.3 5.3 0 0 1-3.7.7 3.6 3.6 0 0 0-1.4.2 1.6 1.6 0 0 1-1.9-1.8 4.4 4.4 0 0 1 3.2-3.5 4.4 4.4 0 0 0 1.7-.7c1.1-1.1 1.9-2.2 3.5-2.5a1.4 1.4 0 0 0 .9-.9c.7-2.4 2.7-2.2 4.7-2.2Zm3.1 3.3a2.8 2.8 0 0 0-2.7-2.5l-2.1.2a1.9 1.9 0 0 0-2 1.1c-1.5 2.3-4.2 3.1-6.2 4.9-.2.2-.7 0-1 .1a3.3 3.3 0 0 0-2.1 2.7c-.1.3.5 1 .6 1 1.7-.5 3.6.2 5.3-.9s3.3-.3 3.8 1.7a10.4 10.4 0 0 0 .6 1.6c.8 1.4 1.9 1.3 2.7-.1l.8-1c1.8-1.9 1.8-2.1.6-4.4s-.9-1.9.7-3.4l1-1Z" fill="#21202f"/><path d="M143.7 113.1a18.9 18.9 0 0 1-.5 2.3 3.3 3.3 0 0 1-3.8 2.5l-2.3-.5c-3-.7-5 1-4.8 4a27 27 0 0 1 .4 2.8 37.5 37.5 0 0 1 .1 5.8c-.1 1.7 0 3.2 1 4.4s2 5.8 1.9 8.9c0 .2-.5.5-.7.5a1.3 1.3 0 0 1-.9-.5c-3.2-2.6-6.5-5.1-9-8.4a13.7 13.7 0 0 1-2.1-5.5c-.6-2.9-1.2-5.8-2-8.6a10.5 10.5 0 0 1 .5-7.4c1.3-2.9 2.5-5.8 3.5-8.8s2.4-2.4 3.8-3.4a1.5 1.5 0 0 1 2 .7c.6 1.4 1.6 1.2 2.6.7l1.6-.7c.4-.1.9-.5 1.2-.3a6.6 6.6 0 0 0 4.8.1c.3-.1 1 .6 1.1 1a19.1 19.1 0 0 1 1.1 4.1l.3 6.3Z" fill="#e4eca7"/><path d="m158.9 124.2 2.1-.7.7-.4a5.5 5.5 0 0 0 4.8-3c.1-.2.7-.3 1.1-.4a20.5 20.5 0 0 0 8.9-3.6c1.5-1.1 3.1-.5 3.2 1.4a5.1 5.1 0 0 0 1.5 3.6 2.4 2.4 0 0 1 .4 2.9 36.4 36.4 0 0 1-3 4.6c-.8 1.2-1.7 2.2-1.9 3.7a2.9 2.9 0 0 1-.5 1.3c-1.6 1.5-1.4 3.4-1.6 5.3s-.9 6.1-1.5 9.2-1.5 2.4-2.9 3.1l-2.2 1.1a8.6 8.6 0 0 0 .5-2.3 37.5 37.5 0 0 0-.2-5.8 11.4 11.4 0 0 0-.6-2.5c-.3-1.4-.8-2.5-2.7-2.3a2.7 2.7 0 0 1-1.5-.9c-1.7-1.8-3.6-2.9-6.2-2.2-1 .2-1.3-.4-.8-1.5l1.7-4a2.3 2.3 0 0 0-.7-3c-.2-.2-.4-.3-.4-.5a6.7 6.7 0 0 1-.3-2.8c0-.3 1.2-.5 1.9-.7Zm-8.9-34-1 1c-.4.3-1.6 1.6-.7 3.4s1.2 2.5-.6 4.4l-.8 1c-.8 1.4-1.9 1.5-2.7.1a10.4 10.4 0 0 1-.6-1.6c-.5-2-2.1-2.9-3.8-1.7s-3.6.4-5.3.9c-.1 0-.7-.7-.6-1A3.3 3.3 0 0 1 136 94c.3-.1.8.1 1-.1 2-1.8 4.7-2.6 6.2-4.9a1.9 1.9 0 0 1 2-1.1l2.1-.2a2.8 2.8 0 0 1 2.7 2.5Z" fill="#83c300"/></svg>