<svg xmlns="http://www.w3.org/2000/svg" viewBox="0 0 300 300"><path d="M85.7 229.8c-.5-.1-1.2 0-1.6-.3a30.2 30.2 0 0 1-7.1-6.2 119.2 119.2 0 0 1-11.4-16 1.5 1.5 0 0 1 .4-2.3l9.3-7.9 1.1-1.5.3-.2c3-2.3 4.3-5.5 4.7-9.1l.6-4.5.9-3.5a15.5 15.5 0 0 1 .6-2.3l5.1-12.4c.2-.3.1-.6.1-1 .3-.2.6-.3.7-.6l1.5-4.1.5-1.7h.1v-.2c2.3-5.3 3.5-11 4.9-16.6a78.3 78.3 0 0 1 3.4-9.2c.9-2.3 2.8-2.5 4.8-1.1a7.1 7.1 0 0 1 3 6l-.4 7.6c-.3 4.2-.5 8.5-2.3 12.5v.4c.1.4.1 1 .3 1.2a1.3 1.3 0 0 0 1.2-.1 34 34 0 0 0 3-2.3l6.9-6 1.4-1.3.3-.3.3-.3.3-.3c.9-.2 1.6-.5 1.7-1.5h.1c1-.4 2-.8 2.3-2.1a2.8 2.8 0 0 0 2.4-2 3.5 3.5 0 0 0 2.3-2.1l.3-.3 1.2-.9.3-.3.3-.3 1.2-.9.4-.3.3-.5a111.5 111.5 0 0 1 18.2-12 8.7 8.7 0 0 1 6.9-.5l2.4 2.2 2 1.5c-.2.3-.2.7-.5.9s-2.1 1.3-3.1 2.1c-5 4-10 7.9-14.8 12.1l-17.9 16.1a30.7 30.7 0 0 0-2.5 2.6c-.2.2 0 .6 0 1s.7 0 1-.2l1.4-1.5c7.9-7.8 16.3-15 24.9-22 4.5-3.7 8.8-7.6 14-10.5 1.5-.8 3-1.8 4.9-1.7l1.5.7a18.5 18.5 0 0 1 5.5 4.9 4.2 4.2 0 0 1-.4 1.6 26.7 26.7 0 0 1-3.2 4.3 106.9 106.9 0 0 1-13.6 11.6l-20.2 15.5c-1.8 1.4-3.3 3-4.9 4.5s-.3.7-.5 1.1h1.4l.6-.6c1.6-1.4 3.1-3 4.7-4.3l14.1-10.8c6.2-4.8 12.7-9.1 18.2-14.8 1.2-1.2 1.7-1.1 2.6.6l1.1 1.5a7.5 7.5 0 0 1-.1 5.7l-.8 2.4-.2.7-.3.3a28.6 28.6 0 0 1-7.6 7.9l-23 18.1a82 82 0 0 0-6.2 5.7c-.2.2-.2.7-.2 1.1s.8 0 1.1-.2a3.4 3.4 0 0 0 .9-.8c1.4-1.3 2.7-2.7 4.2-3.9a3271 3271 0 0 1 29-23.2l2.2.6a2.3 2.3 0 0 1 .7.7 2 2 0 0 1 .4.8c.4 1.6 1.7 3.2.9 5l-1.6 3.2a44.7 44.7 0 0 1-4.3 4.4l-15.2 11.2-.4.3-2.6 1.8-3.6 3.5a8.6 8.6 0 0 0-1.4 1.3 19.9 19.9 0 0 0-1.2 1.9l-.3.2c-1.2.3-1.7 1.3-2.1 2.4l-.4.3h-.2l-1.7 2.2-.3.2-.3.3-2.1 2.4-.3.3-.3.3-.3.3-.2.3h-.1l-.6.3a4.4 4.4 0 0 1-.8 1.1 57.8 57.8 0 0 1-28.5 13.6c-3.3.5-6.7 1.4-9.3 3.7s-4.7 4.4-7 6.7Z" fill="#007bc3"/><path d="m229.2 129.2 4.2-1 2.4-.3c.9-.1 1.4.2 1.7 1.2a51.1 51.1 0 0 1 2 11.8 60.4 60.4 0 0 1 .2 7.4c-.2 4.2-.7 8.4-1.2 12.6-.2 1.7-.3 1.7-2.1 1.8l-7.6.6-.6.3h-1.3l-10.8-.4a8.6 8.6 0 0 0-7.9 3.7 27 27 0 0 1-11.3 9c-8.9 4-17.2 9.2-25.5 14.5q-6.7 4.3-13.8 8.4c-2.6 1.5-3.9.9-5.3-1.8-3-6-.1-12.3 4.5-15.9s9.6-7 14.3-10.6a23 23 0 0 0 6.1-6.7c2.8-4.3.5-8.3-3.1-10.2-.7-.4-.7-.5-.3-1.2a47.1 47.1 0 0 0 3.5-6.2 6.1 6.1 0 0 0 .4-3.3c-.2-2.4-1.7-4.1-3.4-5.6s-.6-.8-.1-1.3l1.7-2.4c1.5-2.7.9-5.2-1.5-7.2s-7.4-3.5-11.5-1.1c-.2.2-.7 0-1.1-.1s.4-.6.7-.8a35.7 35.7 0 0 1 12.9-2.5c5.3-.2 10.4.7 15.6 1.6s9.6 2 13.8 4.7l.9.5c4.6 2.1 9.3 3.4 14.4 2.7l10.2-.9a49.9 49.9 0 0 0 5.4-.7c.4 0 .8-.6 1.1-.9s-.9-.4-1.3-.3Z" fill="#e4eca7"/><path d="M60.2 94.7c-1.3-1.2-1.5-1.6-.6-2.8a74 74 0 0 1 16.8-19.3 23.2 23.2 0 0 1 3.8-2.1c4.3 1 7.2 4.2 10.2 7.1a13.1 13.1 0 0 1 1.2 1.1c2.7 2.7 5.9 3.2 9.5 2.8a69.6 69.6 0 0 1 10.2-.4c5.6.3 10.7 2.3 16 3.9.9.3.9.8.5 1.5s-1.9 3.9-3 5.8a12.9 12.9 0 0 0-1.7 6.9c.2 7.5-.4 15 1 22.4.2.9-.2 1-.9 1a31.2 31.2 0 0 0-4.3-.1c-4.2.1-6.3 2.6-6.1 7.6.2 3.1 1.5 4.5 4.5 4.9s6.6.4 9.8.6h1l-.6.8-.5.3-.3.3h.1l-4.9 3.7-7.3 5.9-5.1-2.8a1.8 1.8 0 0 1-.9-1.9c.2-2.4.2-4.8.2-7.1a7.7 7.7 0 0 0-3.3-6.7c-2.7-2.2-5.4-1.7-7 1.3a44 44 0 0 0-2.1 5c-.3 1.1-.7 1.1-1.4.4l-4.4-3.7a10.5 10.5 0 0 1-.8-1.1l-.4-.3-.4-.3h.1l-.4-.3h.1l-.3-.3-2.5-3.1v-.4a70 70 0 0 1-4.2-7.6 18.9 18.9 0 0 0-3.6-6.1 16.7 16.7 0 0 0-6.5-8.1 43.7 43.7 0 0 1-10.1-9.1c-.6-.8-1.1-.6-1.4.3Z" fill="#39a7d2"/><path d="M209.9 68.1c4.5 4.9 8.9 9.8 13.2 14.8a37.8 37.8 0 0 1 6.1 9.2c-.3.1-.7.1-.9.4L215 103.8a12.4 12.4 0 0 0-4.9 7.9l-2.9 14.7c-.3 1.4-.4 1.4-1.7.8s-4.3-2.4-6.5-3.4a57 57 0 0 0-16.4-3.4 44.5 44.5 0 0 0-18.1 1.8c-1.7.6-1.7.6-1.6-1.1 0-3.6.2-7.2 0-10.8s-1.8-7.9-5.7-10a18.6 18.6 0 0 0-3.7-1.4c-.6-.2-1-.2-.4-.8l8.8-7.3 1.9-.9 3.6-1a116.7 116.7 0 0 0 17-6.5l.6-.4a29.6 29.6 0 0 0 14.8-6.2Z" fill="#85c400"/><path d="m161.9 90.8-8.8 7.3c-.6.6-.2.6.4.8a18.6 18.6 0 0 1 3.7 1.4c3.9 2.1 5.6 5.7 5.7 10s0 7.2 0 10.8c-.1 1.7-.1 1.7 1.6 1.1a44.5 44.5 0 0 1 18.1-1.8 57 57 0 0 1 16.4 3.4c2.2 1 4.4 2.2 6.5 3.4s1.4.6 1.7-.8l2.9-14.7a12.4 12.4 0 0 1 4.9-7.9l13.3-11.3c.2-.3.6-.3.9-.4s.1 1.5-.5 2c-4 3.4-7.9 7-12.1 10.1a12.9 12.9 0 0 0-5.4 8.8l-2.8 14.6c-.1.8.3.9.7 1a19.1 19.1 0 0 0 8.8 1.6l8.9-.8 2.3-.2h.1l6.3-.6c.4-.1.9.2 1.3.3s-.7.9-1.1.9a49.9 49.9 0 0 1-5.4.7l-10.2.9c-5.1.7-9.8-.6-14.4-2.7l-.9-.5c-4.2-2.7-8.9-3.9-13.8-4.7s-10.3-1.8-15.6-1.6a35.7 35.7 0 0 0-12.9 2.5l-.7.8c-.3.2.9.3 1.1.1 4.1-2.4 7.9-1.8 11.5 1.1s3 4.5 1.5 7.2l-1.7 2.4c-.5.5-.5.8.1 1.3s3.2 3.2 3.4 5.6a6.1 6.1 0 0 1-.4 3.3 47.1 47.1 0 0 1-3.5 6.2c-.4.7-.4.8.3 1.2 3.6 1.9 5.9 5.9 3.1 10.2a23 23 0 0 1-6.1 6.7l-14.3 10.6c-4.7 3.6-7.5 9.9-4.5 15.9 1.4 2.7 2.7 3.3 5.3 1.8q7.1-4.1 13.8-8.4c8.3-5.3 16.6-10.5 25.5-14.5a27 27 0 0 0 11.3-9 8.6 8.6 0 0 1 7.9-3.7l10.8.4h3.9l5.3-.3c.2 0 .5-.2.7-.1l1.1.5c-.3.3-.6.7-.9.8a21.9 21.9 0 0 1-3.6.3c-4.1 0-8.1-.2-12.1-.3h-6.9a5.7 5.7 0 0 0-4.3 2.2 37.6 37.6 0 0 1-16.1 12 98.1 98.1 0 0 0-16.6 9.6 2.6 2.6 0 0 0-1.1 1.6 30.3 30.3 0 0 1-5.7 14.7 18.3 18.3 0 0 0-2.9 11.4l.2 17c0 .7.5 1.8-.6 1.8s-.6-1.2-.7-1.8l-.2-14.9.1-5a17.8 17.8 0 0 1 3.6-10.2 26.2 26.2 0 0 0 4.7-11.9v-.9c-.3.1-.7.1-.9.3l-13.8 8.6-3 1.5c-2.4 1-4.2.4-5.5-1.9a13.1 13.1 0 0 1-1.1-11.1l.2-.4.3-.4.3-.8-.7.5-.2.3-.3.4c-2.5 2.7-5 5.3-7.4 8.1a58.7 58.7 0 0 1-10.3 9.6c-.8.5-.9.9-.1 1.4a6.8 6.8 0 0 1 2.4 5.8 110.7 110.7 0 0 0 .5 18.2 10.1 10.1 0 0 1 .3 1.7c0 .3-.3.6-.4.9s-.8-.4-.9-.6a7.5 7.5 0 0 1-.3-2l-.6-16.8-.1-3.1c-.1-1-1.3-2.8-2.6-3.7s-1 .1-1.4.4a57.6 57.6 0 0 1-22.8 8.6 15.1 15.1 0 0 0-8.4 3.8c-3.6 3.4-7 6.9-10.4 10.4a2.7 2.7 0 0 1-.7.8l-1.2.3v-1.1l5.4-5.5c2.3-2.3 4.6-4.6 7-6.7s6-3.2 9.3-3.7a57.8 57.8 0 0 0 28.5-13.6 4.4 4.4 0 0 0 .8-1.1l.6-.3h.1l.2-.3.3-.3.3-.3.3-.3 2.1-2.4.3-.3.3-.2 1.7-2.2h.2l.4-.3 2.1-2.4.3-.2 2.7-2.8 3.7-3.6 2.4-2.1.4-.3 15.2-11.2a44.7 44.7 0 0 0 4.3-4.4l2-2.9a4.9 4.9 0 0 0-.8-5.5l-.9-.6-.7-.7-2.2-.6-29 23.2c-1.5 1.2-2.8 2.6-4.2 3.9a3.4 3.4 0 0 1-.9.8c-.3.2-.7.1-1.1.2s0-.9.2-1.1a82 82 0 0 1 6.2-5.7l23-18.1a28.6 28.6 0 0 0 7.6-7.9l.3-.3.4-.6.7-1.1c1.2-2.3 2.1-4.7.3-7.2l-1.4-1.4c-.9-1.7-1.4-1.8-2.6-.6-5.5 5.7-12 10-18.2 14.8l-14.1 10.8c-1.6 1.3-3.1 2.9-4.7 4.3l-.6.6h-1.4c.2-.4.2-.9.5-1.1s3.1-3.1 4.9-4.5l20.2-15.5a106.9 106.9 0 0 0 13.6-11.6 26.7 26.7 0 0 0 3.2-4.3 4.2 4.2 0 0 0 .4-1.6 3.4 3.4 0 0 0-1.5-3.1 32.5 32.5 0 0 0-3.7-2.1l-1.8-.4c-1.9-.1-3.4.9-4.9 1.7-5.2 2.9-9.5 6.8-14 10.5-8.6 7-17 14.2-24.9 22l-1.4 1.5c-.5.4-.7.1-1 .2s-.2-.8 0-1a30.7 30.7 0 0 1 2.5-2.6c5.9-5.4 11.8-10.8 17.9-16.1s9.8-8.1 14.8-12.1c1-.8 2.1-1.4 3.1-2.1s.3-.6.5-.9a8 8 0 0 0-4.4-3.7 8.7 8.7 0 0 0-6.9.5 111.5 111.5 0 0 0-18.3 12.1l-.3.5-.4.3-1.2.9-.3.3-.3.3-1.2.9-.3.3-2.3 2.1-2.4 2-2.3 2.1h-.1l-1.7 1.5-.3.3-.3.3-.3.3-1.4 1.3-6.9 6a34 34 0 0 1-3 2.3 1.3 1.3 0 0 1-1.2.1c-.2-.2-.2-.8-.3-1.2v-.4c1.8-4 2-8.3 2.3-12.5l.4-7.6a7.1 7.1 0 0 0-3-6c-2-1.4-3.9-1.2-4.8 1.1a78.3 78.3 0 0 0-3.4 9.2c-1.4 5.6-2.6 11.3-4.9 16.6v.3l-.8 1.7-.6 1.5-1.3 3.2-1.9 3.2a29.7 29.7 0 0 0-4.4 12.6l-.4 3.4-.6 4.5c-.4 3.6-1.7 6.8-4.7 9.1l-.3.2-1.4.6-9.9 7.2a4.2 4.2 0 0 1-1.2.3c.1-.4.1-1 .4-1.2l4.7-3.8a71 71 0 0 1 5.3-3.7c3.7-2.2 5.4-5.6 5.9-9.8l1.4-10.9c.1-.4.4-1-.5-.9s-4.6-.1-6.9-.7-7.2-.4-10.8-.5h-.8l-1-.6c.3-.2.6-.7.9-.7 4.5-.2 8.9-.5 13.3.7a23.2 23.2 0 0 0 5.3.4c.7 0 1.2-.4 1.5-1.3s1.5-3.3 2.4-4.9a99.2 99.2 0 0 0 10-26.6c.5-2.2.2-3.6-1.8-4.8s-1.9-1.9-2.8-1.8-1.7 1.3-2.4 2.2c-2.6 3.2-6.3 3.7-10.1 3.9s-5.4-.1-8.1.1-3.7.5-5.6.7c-.3.1-.7-.2-1.1-.3s.5-.8.8-.9a34.4 34.4 0 0 1 5.6-.9c2-.2 4.1.1 6.2 0l7.2-.8a6.7 6.7 0 0 0 3.7-2.4l2.7-2.8a35.8 35.8 0 0 0-2.6-2.9 38.2 38.2 0 0 1-9.7-16.7 12.9 12.9 0 0 0-4.4-6.5l-4.5-3.3a37 37 0 0 1-7.9-7.9c.3-.9.8-1.1 1.4-.3a43.7 43.7 0 0 0 10.1 9.1 16.7 16.7 0 0 1 6.5 8.1 30.6 30.6 0 0 0 5.6 11.8l1.6 2.2.6-.3v.9a30.7 30.7 0 0 0 2.5 2.6l.3.3h-.1l.4.3H89l.4.3h-.1l.5.3a10.5 10.5 0 0 0 .8 1.1l4.4 3.7c1.4 1.3 1.1.7 1.4-.4a44 44 0 0 1 2.1-5c1.6-3 4.3-3.5 7-1.3a7.7 7.7 0 0 1 3.3 6.7c0 2.3 0 4.7-.2 7.1a1.8 1.8 0 0 0 .9 1.9l5.1 2.8c.5.5.8.5 1.4 0l10.8-9.6h-.1l.3-.3.5-.3.6-.8h-1c-3.2-.2-6.5-.2-9.8-.6s-4.3-1.8-4.5-4.9c-.2-5 1.9-7.5 6.1-7.6a31.2 31.2 0 0 1 4.3.1c.7 0 1.1-.1.9-1-1.4-7.4-.8-14.9-1-22.4a12.9 12.9 0 0 1 1.7-6.9c1.1-1.9 2-3.8 3-5.8s.4-1.2-.5-1.5c-5.3-1.6-10.4-3.6-16-3.9a69.6 69.6 0 0 0-10.2.4c-3.6.4-6.8-.1-9.5-2.8a13.1 13.1 0 0 0-1.2-1.1c-3-2.9-5.9-6.1-10.2-7.1.1-.8.6-1 1.3-.9a8.3 8.3 0 0 1 2.2.8l6 4.6 4.4 3.9a5.4 5.4 0 0 0 3.6 1.4 40.5 40.5 0 0 0 5-.4 45 45 0 0 1 19.9 2.3 50.8 50.8 0 0 1 5.1 1.7c1 .3 1.3 0 1.6-.8a24.7 24.7 0 0 0 1.3-9.3c0-3.3-.1-6.6.1-9.9a45.8 45.8 0 0 1 .8-6.2 2 2 0 0 1 .3-1.1l1-.5c.3-.2.3.7.2.9l-.6 2.7a49 49 0 0 0-.4 5.4l-.2 12.4c-.1 4.1-1.9 7.8-3.6 11.4l-1.4 2.5a17.2 17.2 0 0 0-2.4 10.2l.1 7.4.2.7a2.1 2.1 0 0 0 .4-.6l.8-2.2a5.1 5.1 0 0 1 3.3-2.8 10 10 0 0 1 6.4-.3c.7.2.8-.1.8-.6v-1.5a6.5 6.5 0 0 1 4.4-5.7c3.1-1.2 7.7-.9 9.4 2.1.6.9.9.1 1.3-.2 2.4-2.2 4.8-4.6 7.4-6.6a92.9 92.9 0 0 1 8.5-5.3c.8-.4 1.1-.7.3-1.4l-2.2-2.2a4.7 4.7 0 0 1-1.4-3.9c.1-3.1.4-6.2.2-9.4s-.9-6.3-1.4-9.5a13 13 0 0 0-1-2.5 3.4 3.4 0 0 1 0-1c.4.1.9.1 1.1.4a6.1 6.1 0 0 1 .9 1.8 32.7 32.7 0 0 1 1.7 10.3c.1 3.1-.1 6.3-.2 9.5a4.1 4.1 0 0 0 1.3 3.6 30.7 30.7 0 0 0 2.5 2.6 1.3 1.3 0 0 0 1.1.3c5.3-2.3 10.9-3.3 16.5-4.3a28 28 0 0 0 11.8-5.2l9.9-7.7a6.6 6.6 0 0 1 1.5-.3v1l-10.1 7.7A29.6 29.6 0 0 1 185 82l-1.1.3-2.3.3a52.2 52.2 0 0 0-18.1 7.1ZM107 154.1h.6l6.3-5.5c.4-.4.2-.6-.2-.8l-4.5-2.6c-.7-.4-.8-.1-.9.5l-.3 3-1 5.5h-.1Zm42.5-50.9h.2V101c-.2-2.3-1.3-3.7-3.5-4.1a8.1 8.1 0 0 0-5.3.5 4.5 4.5 0 0 0-3 3.9 43.5 43.5 0 0 0-.2 5.1l.1 15.8c0 1 .5 1.2 1.3 1.2a35.7 35.7 0 0 1 4.7.4c2.2.3 3.5-1.3 5.2-2.1s.2-.6.3-.9l.2-17.6Zm-24.9 31.1v-.2h5a2.2 2.2 0 0 0 1.3-.4l11.4-8 .6-.5-.8-.2-12.5-.7-10-.5c-3.8 0-5.5 1.8-5.5 5.6s1 4 3.7 4.4 4.5.4 6.8.5Zm26.4-23.6h-.4v9c-.1 1 0 1.5 1.3 1.2a9.1 9.1 0 0 1 8.2 2.2 5.3 5.3 0 0 0 1 .6 5.3 5.3 0 0 0 .3-1.2l.4-7.2c.1-2.4 0-6-1-8.8a10 10 0 0 0-8.8-6.4c-.8 0-1.1.2-1.1 1.1l.1 9.5Zm-14.5 4.4h-.3v-3.8a26.3 26.3 0 0 0-.3-4.9 2.3 2.3 0 0 0-1.3-1.6 6.6 6.6 0 0 0-8.2 4.5c-1.1 4.1-.9 8.3-.8 12.5 0 .8.5.9 1.1.9l8.9.5c.8 0 .9-.2.9-.9Z" fill="#131511"/><path d="m75 196.7 1.4-1.1-1.1 1.5Z" fill="#39a7d2"/><path d="m229.1 129.2-2.3.2Zm1.7 34.5Zm-60.7-38.2a32.5 32.5 0 0 1 3.7 2.1 3.4 3.4 0 0 1 1.5 3.1 18.5 18.5 0 0 0-5.5-4.9Zm5.4 15.2c1.8 2.5.9 4.9-.3 7.2l-.7 1.1h-.2l.8-2.4a7.5 7.5 0 0 0 .1-5.7Zm-19-18.2a8 8 0 0 1 4.4 3.7l-2-1.5Zm19.3 34.1a4.9 4.9 0 0 1 .8 5.5l-.4-.3c.8-1.8-.5-3.4-.9-5Zm-87.1 6 1.3-3.2.6-1.5h.3l-1.5 4.1c-.1.3-.4.4-.7.6Zm63.6 20.4-3.7 3.6a.6.6 0 0 1-.1-.4l3.6-3.5Z" fill="#e4eca7"/><path d="M148.5 186.2a.6.6 0 0 0 .1.4l-2.7 2.8a19.9 19.9 0 0 1 1.2-1.9 8.6 8.6 0 0 1 1.4-1.3Zm27.7-24.4.4.3-2 2.9Zm-93.8 16.6h.5l-.9 3.5.4-3.5Zm69.9 4.6-.2-.3 2.6-1.8Zm-29.7-40.4 2.4-2a2.8 2.8 0 0 1-2.4 2Zm23 47.1-2.1 2.4c.4-1.1.9-2.1 2.1-2.4Zm-25.3-45 2.3-2.1c-.3 1.3-1.3 1.7-2.3 2.1Zm4.7-4.1 2.3-2.1a3.5 3.5 0 0 1-2.3 2.1Zm15.6 54.7-2.1 2.4Zm2.3-2.8-1.7 2.2Zm-24.4-46.3 1.7-1.5c-.1 1-.8 1.3-1.7 1.5Zm57-5.5h-.3l-1.1-1.5Zm-5.4-15.2-.3.3-1.5-.7Zm1.9 29.2 2.2.6Zm-81.1 3.2h-.3l.8-1.7Zm25.3-9.6 1.4-1.3Zm13.2-11.6 1.2-.9Zm-1.8 1.5 1.2-.9Zm48.2 18.4-.5.2a2 2 0 0 0-.4-.8Zm-1.5-7.7h.2a2.1 2.1 0 0 1-.4.6l.2-.6Zm-37 50-.6.3Zm36.8-49.2-.3.3Zm-82.7 6.5v-.1Zm26.5-9.4.3-.3Zm.3-.3.3-.3Zm36.9 34.1-.4.3Zm-27.8-42.1.3-.3Zm1.5-1.2.3-.3Zm.3-.3.3-.3Zm16.8 52.5-.3.2Zm-15.3-53.6.4-.3Zm12.9 56.2-.4.3Zm-2.3 2.7-.3.2Zm-.3.2-.3.3Zm-64.5.6.3-.2Zm62.1 2.1-.3.3Zm-.3.3-.3.3Zm-.3.3-.3.3Zm-.3.3-.2.3Zm-20-51.6.3-.3Z" fill="#39a7d2"/><path d="m126.8 137-10.8 9.6c-.6.5-.9.5-1.4 0l7.3-5.9Zm-38.3-8.2a30.7 30.7 0 0 1-2.5-2.6v-.5Zm38.5 8-.3.3ZM89.8 130l-.5-.3Zm-.4-.3-.4-.3Zm-.3-.3-.4-.3Zm-.3-.3-.3-.3Zm74.7-39.4.3.2-1.9.9Z" fill="#e4eca7"/><path d="M184.4 82.4h-.5l1.1-.4Z" fill="#39a7d2"/><path d="M124.6 134.3c-2.3-.1-4.5-.2-6.8-.5s-3.7-1.6-3.7-4.4 1.7-5.6 5.5-5.6l10 .5 12.5.7.8.2-.6.5-11.4 8a2.2 2.2 0 0 1-1.3.4h-5Z" fill="#e4eca7"/><path d="m150.4 186.7.2-.3.7-.5-.3.8-.3.4Z" fill="#39a7d2"/></svg>