<svg xmlns="http://www.w3.org/2000/svg" viewBox="0 0 300 300"><path d="m76.8 192.8-14.9 4.8c-1.6.4-3.3.6-4.9.9a4.2 4.2 0 0 1-1.6-.1c-1.1 0-1.1-.5-.8-1.3 1.2-2.7 2.1-5.5 3.4-8a77.8 77.8 0 0 1 31.5-32.3c1.9-1 4-1.8 6-2.7a3.8 3.8 0 0 0 1.5-1.3c13.7-25 31.9-46.1 54.1-64a163.2 163.2 0 0 1 43.4-25.9c4.2-1.6 8.5-2.8 12.7-4.2a3.6 3.6 0 0 0 1.6-1.1l15.6-23.5a1.9 1.9 0 0 0 .2-1.9 2.3 2.3 0 0 1 1.7-3.1 2.2 2.2 0 1 1 .8 4.4 2.3 2.3 0 0 0-2 1.4l-15.5 23.4a2.8 2.8 0 0 0-.4 2.5 71.5 71.5 0 0 1 3.2 23.9c-.4 18.4-4.6 36.1-11 53.3s-15.6 34.6-27.8 49.4a14.4 14.4 0 0 0-3.1 8c-1 10-4.8 19.2-10 27.8a64.9 64.9 0 0 1-15.7 18.1 32.9 32.9 0 0 1-12.9 6.2c-1 .2-1-.3-1-.9l.8-7.5.3-2.2-.1-.8-.8.5-3.4 4.6c-.9 1.2-1.1 1.2-1.9-.1l-6.8-11-.9-1.1-.6 1.2-8.9 23.2a.8.8 0 0 1-.1.4 6.1 6.1 0 0 0-.7 1 4.8 4.8 0 0 1-1.1-.9l-10.6-14.8a9.4 9.4 0 0 0-1-1l-.7 1.2-13.6 30.8a4.1 4.1 0 0 1-1 1.3 9.4 9.4 0 0 1-.6-1.5l-1.8-21.6c-.1-1.3-.1-1.3-1.3-.8l-25.7 11.1H50l-1.5.2a8.4 8.4 0 0 1 .6-1.4l18.6-24.8.5-.5.3-.8h-.8l-15.8 2.8a14.1 14.1 0 0 1-2-.1 15.3 15.3 0 0 1 1.1-1.6L80.4 204l.9-1.1-1.4-.4-10.1-1.5-1.5-.6a11.3 11.3 0 0 1 1-1.3l7.8-6.2.5-.4Zm100.9-88.9-1.4-.7 1.1 1.1 3.3 2.7a58.2 58.2 0 0 0 24.6 10.6c1.2.1 1.4-.2 1.6-1.2a142 142 0 0 0 4.3-29 76.4 76.4 0 0 0-3-26.5c-.3-1-.7-1.2-1.8-.9a119.4 119.4 0 0 0-29.2 12.4c-5.6 3.3-10.9 6.9-16.4 10.4-.8.5-1 1-.4 1.8l1.8 2.9.6.2h-.3l3.8 5.4h.5a.7.7 0 0 0-.1-.5l-1.6-2.5c-.5-.9 0-.6 0-1s.7.2.8.4l2.1 2.9.2.9h-1.4l.1.4 3.6 4.1h.3l.1-.4a9.3 9.3 0 0 1-1.3-1.5c-.2-.2-.1-.6-.1-.9s.6 0 .8.2l2.6 2.7c.5.6.3 1.1-.5 1h-.5a1.4 1.4 0 0 0 .2.6l2.3 2.1 1.3.8-.7-1.2-.1-.1v-.9c.2.1.6 0 .7.2l3.3 2.8c.2.2.2.5.3.8h-1Zm-33.6 105.7 1.2-.4c2.8-1.5 5.7-2.8 8.4-4.5a94 94 0 0 0 22-21.6 166.6 166.6 0 0 0 21.7-38.3c2.5-6 4.5-12.2 6.7-18.4.5-1.3.4-1.3-1-1.4a46.3 46.3 0 0 1-5.2-.7 55 55 0 0 1-20.4-9.7 105.3 105.3 0 0 1-24.1-24.4c-.7-.9-1.2-1.2-2-.3s-.4.3-.6.5a217.2 217.2 0 0 0-35.4 36.3 175.4 175.4 0 0 0-25.5 44.2 2.1 2.1 0 0 0 .4 2.5 119.3 119.3 0 0 0 22 20.6 92.2 92.2 0 0 0 28.7 14.8Zm-74.2 20.3c.1.1.5.1.6.3a1 1 0 0 1-.2.9 17.7 17.7 0 0 1-1.2 1.7l-17.5 23.1a9.3 9.3 0 0 0-.5 1l1.1-.3h.3l24-10.4c1.5-.6 1.8-.6 1.9 1.1l1.7 19.5a6.1 6.1 0 0 0 .3 1.3l.7-1.2 10.4-23.5 2.8-6.2c1-2 .8-1.1 1.5-.2l.6.8 9.8 13.7 1.3 1.4a8.9 8.9 0 0 0 .8-1.7l8.8-22.7a14.8 14.8 0 0 1 .8-1.3 3.6 3.6 0 0 1 1.1 1l7.1 11.4c.5.9.8 1.1 1.4.1s3.3-4.3 4.8-6.5a5.3 5.3 0 0 0 .8-1.7c1.7-7.1 3.5-14.2 6.4-20.9.3-.6.3-.9-.4-1.1a79.7 79.7 0 0 1-14.1-6c-.8-.5-1-.3-1.1.6l-.6 7.7-1.1 15.4a11.7 11.7 0 0 1-.5 1.1 2.3 2.3 0 0 1-1-.5l-3.7-3.6-3.4-3.4c-.6-.7-.9-.5-1 .3a1.9 1.9 0 0 1-.2.8l-2.2 12a5.2 5.2 0 0 1-.6 1.3 10 10 0 0 1-1.1-1c-2.6-4-5.3-8.1-7.8-12.2-.6-1-1-1.2-2-.5l-11.9 7.9a6.6 6.6 0 0 1-1.5.5 7.6 7.6 0 0 1 .1-1.5l4.4-12.4.3-1.3h-1.2L78.7 217c-.4.1-.8-.1-1.2-.1a6 6 0 0 1 .6-1.1l.4-.3 19.6-14.4c1-.8 1-.8-.1-1.4l-3.3-1.7-1-.9a5.4 5.4 0 0 1 1.2-.9l2.7-1.1 8.3-3.6c.3-.1 1.2-.1.4-.8l-9.4-8.4a.5.5 0 0 0-.7 0c-3 3.2-6.9 5-10.8 6.7a28.5 28.5 0 0 0-3.5 1.7L71 199.3l-.5.7.7.2 10.9 1.7c.4 0 .7.3 1.1.5a4.1 4.1 0 0 1-.7 1.1l-15.7 15.2-13.7 13.2a5.6 5.6 0 0 0-.5.8h1l7.3-1.3Zm52.8-25.2.1-.9c.1-.3-.3-1.7-1.2-2.4-4.4-2.8-8.6-5.8-12.9-8.7a1.5 1.5 0 0 0-1.8-.3c-3 1.4-6.1 2.6-9.1 3.9l-1.6.7c-.6.2-.5.4 0 .7l2.5 1.2c2.5 1.3 2.5 1.3.3 3l-17.5 12.8-.5.6h.8l8.1-1.9h1.6a6.8 6.8 0 0 1-.2 1.5L87.1 227l-.2.8.8-.3 11.1-7.5c1.4-.8 1.4-.8 2.3.5l7.2 11.3a3.9 3.9 0 0 0 .8 1l.4-1.2 2.2-11.7a9.4 9.4 0 0 1 .6-1.5 4.3 4.3 0 0 1 1.3.9l6.8 6.6.5.4c.1.2.3-.5.3-.8Zm9.4 40.3c-.3 1.1.2 1.3 1.1 1l.6-.2c5.5-1.5 10-4.8 14.1-8.6a70.3 70.3 0 0 0 16.5-23.8 61.3 61.3 0 0 0 5.3-19.7v-1.3l-1 .7-3.4 3.5a62.9 62.9 0 0 1-19.5 13.6 3.9 3.9 0 0 1-3 .3c-1.9-.5-1.9-.5-2.7 1.3l-.3.7a125.2 125.2 0 0 0-7.7 32.5Zm-75.4-47.5a12.8 12.8 0 0 0 2.7-.5 144.7 144.7 0 0 0 29.9-10.9 52.3 52.3 0 0 0 5.6-4c.7-.5.8-1.1 0-1.9l-6.3-7.1a1.3 1.3 0 0 1-.3-1.3c2.2-5.2 4.6-10.3 6.9-15.5l.3-.8h-1c-2 1-4 1.8-5.9 2.9a77.6 77.6 0 0 0-27.4 27.2c-2 3.4-3.5 7.1-5.2 10.6-.3.8-.4 1.4.7 1.3Zm145.8-73.6c2.4 0 2.4 0 3-2.1l.6-2.3c.3-.6.1-.8-.6-.9l-2.9-.4a58.2 58.2 0 0 1-23.3-11 71 71 0 0 1-19.8-22.1c-.5-.9-.9-.8-1.6-.2l-3.6 2.7c-.9.6-.8 1.1-.2 1.7 3.5 4.3 6.8 8.7 10.6 12.7a79.5 79.5 0 0 0 24.4 18.2 35 35 0 0 0 13.4 3.7Z" fill="#15150f"/><path d="m76.8 192.8.8-.2-.5.4Z" fill="#c1e2f0"/><path d="m144.1 209.6-3.1-.8a92.2 92.2 0 0 1-28.7-14.8 119.3 119.3 0 0 1-22-20.6 2.1 2.1 0 0 1-.4-2.5c6.2-16.1 15-30.6 25.5-44.2a217.2 217.2 0 0 1 35.4-36.3l.6-.5c.1-.2 1.3-.6 2 .3a105.3 105.3 0 0 0 24.1 24.4 55 55 0 0 0 20.4 9.7 46.3 46.3 0 0 0 5.2.7c1.4.1 1.5.1 1 1.4-2.2 6.2-4.2 12.4-6.7 18.4a166.6 166.6 0 0 1-21.7 38.3 94 94 0 0 1-22 21.6c-2.7 1.7-5.6 3-8.4 4.5Zm-15.5-40.1.3 2.4c.8 4.8 3.9 6.8 8.5 5.9a22.3 22.3 0 0 0 9.7-4.9 72.4 72.4 0 0 0 24.6-38.8 17.5 17.5 0 0 0-.1-7.9c-1-3.1-3.2-4.9-6.3-4.8a15.1 15.1 0 0 0-3.6.6 26.2 26.2 0 0 0-8.4 4.8 73.8 73.8 0 0 0-21.2 28.5 37.1 37.1 0 0 0-3.5 14.2Zm-22.4 15.2a5 5 0 0 0 4.7-4.7 3.2 3.2 0 0 0-3.2-3.2 4.8 4.8 0 0 0-4.7 4.7 3 3 0 0 0 3.2 3.2Zm23 7.9a3.1 3.1 0 0 0-3-3.4 4.8 4.8 0 0 0-4.6 4.6 3.4 3.4 0 0 0 3.2 3.6 4.7 4.7 0 0 0 4.4-4.8Zm-14.3-1.4a5 5 0 0 0 4.8-4.7 3.2 3.2 0 0 0-3.3-3.2 4.9 4.9 0 0 0-4.6 4.6 3.1 3.1 0 0 0 3.1 3.3Zm24.2 6.2a3.2 3.2 0 0 0-3.2-3.3c-2.3-.1-4.4 2.2-4.4 4.7s1.2 3.4 3 3.4a4.8 4.8 0 0 0 4.6-4.8Zm44.5-75.8.5-.3c0-.1-.1-.6-.3-.8a37.9 37.9 0 0 0-3.4-2h-.8c.1.3.1.7.3.8l3 2Zm-24.5-20.8c.1-.3.3-.7.2-.8a25.1 25.1 0 0 0-2.5-3.2.5.5 0 0 0-.6-.1c-.1.1-.2.5-.1.6a39.2 39.2 0 0 0 2.5 3.2Zm12 10.9-.3-.7-3-2.7c-.1-.2-.6-.1-.6 0a.8.8 0 0 0 0 .7 24.4 24.4 0 0 0 2.9 2.7c.1.2.6 0 1 0ZM154 95l.4-.2c.1-.2.3-.6.2-.7a32.1 32.1 0 0 0-1.9-3.1c-.1-.2-.6-.1-.9-.1a3.5 3.5 0 0 0 .3 1.1l1.9 3Zm19.7 18.4-.5.3a.6.6 0 0 0 0 .6l2.9 2.3c.1.1.4 0 .6-.1s.2-.5.1-.5Zm16.6 11.7c.2-.1.6-.2.6-.4s-.1-.6-.3-.7l-3.2-1.3c-.2-.1-.5.1-.7.3s.1.5.3.6Zm-28.6-22.3c-.1.3-.3.8-.2.9a27.2 27.2 0 0 0 2.4 2.4c.1.1.5 0 .7-.1s.1-.5 0-.6l-2.3-2.3Zm35.2 24.2 1-.5a3.4 3.4 0 0 0-1.1-.7 8.3 8.3 0 0 0-2.2-.3c-.3 0-.5.2-.8.3s.3.6.6.7Zm5.1-.6-.2.2h-1.2c-.3 0-.5.3-.8.5s.5.5.7.5h1.3a7.6 7.6 0 0 0 1.6-.6Z" fill="#007bc3"/><path d="m69.9 229.9-9 1.6-7.3 1.3h-1a5.6 5.6 0 0 1 .5-.8l13.7-13.2 15.7-15.2a4.1 4.1 0 0 0 .7-1.1c-.4-.2-.7-.5-1.1-.5l-10.9-1.7-.7-.2.5-.7 10.9-8.5a28.5 28.5 0 0 1 3.5-1.7c3.9-1.7 7.8-3.5 10.8-6.7a.5.5 0 0 1 .7 0l9.4 8.4c.8.7-.1.7-.4.8l-8.3 3.6-2.7 1.1a5.4 5.4 0 0 0-1.2.9l1 .9 3.3 1.7c1.1.6 1.1.6.1 1.4l-19.6 14.3-.4.3a6 6 0 0 0-.6 1.1c.4 0 .8.2 1.2.1l10.2-2.3h1.2l-.3 1.3-4.4 12.3a7.6 7.6 0 0 0-.1 1.5 6.6 6.6 0 0 0 1.5-.5l11.9-7.9c1-.7 1.4-.5 2 .5 2.5 4.1 5.2 8.2 7.8 12.2a10 10 0 0 0 1.1 1 5.2 5.2 0 0 0 .6-1.3l2.2-12a1.9 1.9 0 0 0 .2-.8c.1-.8.4-1 1-.3l3.4 3.4 3.7 3.6a2.3 2.3 0 0 0 1 .5 11.7 11.7 0 0 0 .5-1.1l1.1-15.4.6-7.7c.1-.9.3-1.1 1.1-.6a79.7 79.7 0 0 0 14.1 6c.7.2.7.5.4 1.1-2.9 6.7-4.7 13.8-6.4 20.9a5.3 5.3 0 0 1-.8 1.7c-1.5 2.2-3.2 4.3-4.8 6.5s-.9.8-1.4-.1l-7.1-11.4a3.6 3.6 0 0 0-1.1-1 14.8 14.8 0 0 0-.8 1.3l-8.8 22.7a8.9 8.9 0 0 1-.8 1.7l-1.3-1.4-9.8-13.7-.6-.8c-.7-.9-1.1-.8-1.5.2l-2.8 6.2-10.4 23.5-.7 1.2a6.1 6.1 0 0 1-.3-1.3l-1.7-19.5c-.1-1.7-.4-1.7-1.9-1.1l-24 10.4h-.3l-1.1.3a9.3 9.3 0 0 1 .5-1l17.5-23.1a17.7 17.7 0 0 0 1.2-1.7 1 1 0 0 0 .2-.9c-.1-.2-.5-.2-.6-.3Z" fill="#84c300"/><path d="m162.8 87.7-.6-.2-1.8-2.9c-.6-.9-.4-1.3.4-1.8 5.5-3.5 10.8-7.1 16.4-10.4A119.4 119.4 0 0 1 206.4 60c1.1-.3 1.5-.1 1.8.9a76.4 76.4 0 0 1 3 26.5 142 142 0 0 1-4.3 29c-.2 1-.4 1.3-1.6 1.2a58.2 58.2 0 0 1-24.6-10.6l-3.3-2.7.3-.4.5.3h1c-.1-.3-.1-.6-.3-.8l-3.3-2.8c-.1-.2-.5-.1-.7-.2v.9l.1.1.7 1.2-1.3-.8-2.3-2.1a1.4 1.4 0 0 1-.2-.6h.5c.8.1 1-.4.5-1l-2.6-2.7c-.2-.2-.5-.1-.8-.2s-.1.7.1.9a9.3 9.3 0 0 0 1.3 1.5l-.1.4h-.3l-3.6-4.1c-1.1-1.4-.1-.2-.1-.4h1.4l-.2-.9-2.1-2.9c-.1-.2-.5-.3-.8-.4s-.2.8 0 1l1.6 2.5a.7.7 0 0 1 .1.5h-.5l-3.8-5.4h.2l1.2.2-.2-1.2-1.5-2.4c-.2-.3-.7-.4-1-.7s-.1.9.1 1.2a26.4 26.4 0 0 0 1.5 2.7Zm28.2 15.2h.4a2.8 2.8 0 0 0 .4-1.2l1-7.6c.1-.8.4-1.1 1.2-1.1h5.9a4.5 4.5 0 0 0 1.1-.3 2.8 2.8 0 0 0-.8-1.1l-4.4-2.8a1.2 1.2 0 0 1-.7-1.6l1.6-7a2.6 2.6 0 0 0-.1-1.2 6 6 0 0 0-1.1.6c-1.2 1.3-2.5 2.6-3.6 4s-1.4 1-2.4.2l-3.6-2.5c-1.2-.8-.8-.1-1.2-.2a3.7 3.7 0 0 0 .1 1.1l2 5.5c.6 1.9.7 1.7-1.1 2l-5.6 1.2a3.5 3.5 0 0 0-1.3.8 2.9 2.9 0 0 0 1.3.5c2.5.3 5.1.6 7.7.7s1.6.5 1.8 1.7l.9 7.1a6.1 6.1 0 0 0 .5 1.2Zm-4.7 5.8-.6-.7-4.2-2.7c-.1-.1-.4.1-.7.2s.1.6.2.7l4.2 2.7c.2.1.6-.1 1.1-.2Zm12.3 6.3.7-.5-.6-.7-4.2-1.2c-.2-.1-.5.1-.8.2s.3.7.6.8Zm-10.2-5.3-.4.3c0 .3.1.7.3.7l3.3 1.5.6-.2c.1-.2.1-.6-.1-.6Zm15.5 6.6h.6l1-.6c-.2-.2-.5-.5-.8-.5l-3-.3c-1-.1-.5.3-.7.5l.6.6Z" fill="#c1e2f0"/><path d="m122.7 204.7-1.5 20.8c0 .3-.2.5-.3.8s-.4-.3-.5-.4l-6.8-6.6a4.3 4.3 0 0 0-1.3-.9 9.4 9.4 0 0 0-.6 1.5l-2.2 11.7-.4 1.2a3.9 3.9 0 0 1-.8-1l-7.2-11.3c-.9-1.3-.9-1.3-2.3-.5l-11.1 7.5-.8.3.2-.8 4.2-12.1a6.8 6.8 0 0 0 .2-1.5h-1.6l-8.1 1.9H81l.5-.6L99 201.9c2.2-1.7 2.2-1.7-.3-3l-2.5-1.2c-.5-.3-.6-.5 0-.7l1.6-.7c3-1.3 6.1-2.5 9.1-3.9a1.5 1.5 0 0 1 1.8.3c4.3 2.9 8.5 5.9 12.9 8.7.9.7 1.6 1.2 1.2 2.4s0 .6-.1.9Z" fill="#e4eca7"/><path d="m177.4 104.3-1.1-1.1 1.4.7Z" fill="#c1e2f0"/><path d="M128.6 169.5a37.1 37.1 0 0 1 3.5-14.2 73.8 73.8 0 0 1 21.2-28.5 26.2 26.2 0 0 1 8.4-4.8 15.1 15.1 0 0 1 3.6-.6c3.1-.1 5.3 1.7 6.3 4.8a17.5 17.5 0 0 1 .1 7.9 72.4 72.4 0 0 1-24.6 38.8 22.3 22.3 0 0 1-9.7 4.9c-4.6.9-7.7-1.1-8.5-5.9l-.3-2.4Zm1.2-.5v1.6c.3 5.1 3.4 7.3 8.3 6a24.6 24.6 0 0 0 8.9-5 73.4 73.4 0 0 0 21.7-30.4 30.8 30.8 0 0 0 2.3-11.3c-.1-6.3-3.6-8.8-9.6-6.6a27.1 27.1 0 0 0-8 4.8 73.4 73.4 0 0 0-19.9 26.6 36.1 36.1 0 0 0-3.7 14.3Zm53.8-47.4-.7-.3-3-2c-.2-.1-.2-.5-.3-.8h.8a37.9 37.9 0 0 1 3.4 2c.2.2.2.5.3.8s-.3.2-.5.3Zm-24.5-20.8-.5-.3a39.2 39.2 0 0 1-2.5-3.2c-.1-.1 0-.5.1-.6a.5.5 0 0 1 .6.1 25.1 25.1 0 0 1 2.5 3.2c.1.1-.1.5-.2.8Zm12 10.9c-.4 0-.9.2-1 0a24.4 24.4 0 0 1-2.9-2.7.8.8 0 0 1 0-.7c0-.1.5-.2.6 0l3 2.7.3.7ZM154 95l-1.9-3a3.5 3.5 0 0 1-.3-1.1c.3 0 .8-.1.9.1a32.1 32.1 0 0 1 1.9 3.1c.1.1-.1.5-.2.7Zm19.7 18.4 3.1 2.6-.1.5c-.1.1-.5.2-.6.1l-2.9-2.3a.6.6 0 0 1 0-.6l.5-.3Zm16.6 11.7-3.3-1.5c-.2-.1-.3-.6-.3-.6s.5-.4.7-.3l3.2 1.3c.2.1.3.5.3.7s-.4.3-.6.4Zm-28.6-22.3.6.3 2.3 2.3v.6c-.1 0-.6.2-.7.1a27.2 27.2 0 0 1-2.4-2.4c-.1-.1.1-.6.2-.9Zm35.2 24.2-2.5-.5c-.3-.1-.4-.4-.6-.7s.5-.3.8-.3a8.3 8.3 0 0 1 2.2.3 3.4 3.4 0 0 1 1.1.7Zm5.1-.6 1.4.7a7.6 7.6 0 0 1-1.6.6h-1.3c-.2 0-.5-.3-.7-.5s.5-.5.8-.5h1.2Zm-11-23.5a6.1 6.1 0 0 1-.5-1.2c-.3-2.4-.7-4.7-.9-7.1s-.5-1.7-1.8-1.7-5.2-.4-7.7-.7a2.9 2.9 0 0 1-1.3-.5 3.5 3.5 0 0 1 1.3-.8l5.6-1.2c1.8-.3 1.8-.3 1.1-2l-2-5.5a3.7 3.7 0 0 1-.1-1.1c.4.1.9 0 1.2.2s2.5 1.6 3.6 2.5 1.6.8 2.4-.2l3.6-4a6 6 0 0 1 1.1-.6 2.6 2.6 0 0 1 .1 1.2l-1.6 7a1.2 1.2 0 0 0 .7 1.6l4.4 2.8a2.8 2.8 0 0 1 .8 1.1 4.5 4.5 0 0 1-1.1.3H194c-.8 0-1.1.3-1.2 1.1l-1 7.6a2.8 2.8 0 0 1-.4 1.2Zm4.2-20.5v-.5l-.6.4a23.5 23.5 0 0 0-2.6 2.9c-.6 1-1.1.8-1.9.3a32.1 32.1 0 0 0-3-2.1l-.6-.2a1.1 1.1 0 0 1 .1.5l2 5.3c.3.8.2 1.2-.8 1.4l-3 .6-.9.4h.9l4.4.4c.9 0 1.3.4 1.4 1.3l.5 3.5.2.4.2-.4c.1-1.1.4-2.1.4-3.2s.6-1.6 1.8-1.5h4.6l-.5-.6-2.8-1.7a1.8 1.8 0 0 1-1-2.4Zm-8.9 26.3c-.5.1-.9.3-1.1.2l-4.2-2.7-.2-.7c-.1-.2.6-.3.7-.2l4.2 2.7.6.7Zm12.3 6.3-4.3-1.4c-.3-.1-.4-.5-.6-.8s.6-.3.8-.2l4.2 1.2.6.7Zm-10.2-5.3 3.7 1.7c.2 0 .2.4.1.6l-.6.2-3.3-1.5c-.2 0-.3-.4-.3-.7Zm15.5 6.6-2.3-.3-.6-.6c.2-.2.5-.5.7-.5l3 .3c1 .2.6.3.8.5l-1 .6Zm-41.1-28.6a26.4 26.4 0 0 1-1.5-2.9c-.2-.3-.1-.8-.1-1.2s.8.4 1 .7l1.5 2.4.2 1.2-1.2-.2Z" fill="#15150f"/><path d="M131.8 167.9a28.6 28.6 0 0 1 2.2-9.6 73.9 73.9 0 0 1 19.3-27.6 41.5 41.5 0 0 1 6.8-4.8 9.8 9.8 0 0 1 3.8-1.1c2.7-.4 4.5 1.1 5.1 3.9s-.1 5.3-.8 8a51.4 51.4 0 0 1-5.2 12.1 71 71 0 0 1-16.6 20.4 54.2 54.2 0 0 1-5.6 3.7 3.6 3.6 0 0 1-1.7.7c-4.4 1.4-7.2-.6-7.3-5.2Zm1.1-.4a10.6 10.6 0 0 0 .2 2.5c.5 2.3 2.1 3.5 4.4 2.9a10.4 10.4 0 0 0 3.9-1.6 53.7 53.7 0 0 0 6.6-4.9 71.2 71.2 0 0 0 13.6-17.3 54.2 54.2 0 0 0 6-14.5 12.6 12.6 0 0 0 .2-6.1c-.6-2.1-1.9-3-4-2.6a8.5 8.5 0 0 0-3.6 1.2 43.9 43.9 0 0 0-6.6 4.7 74.3 74.3 0 0 0-18.6 27 29.1 29.1 0 0 0-2.1 8.7Z" fill="#15150f"/><path d="M132.9 167.5a29.1 29.1 0 0 1 2.1-8.7 74.3 74.3 0 0 1 18.6-27 43.9 43.9 0 0 1 6.6-4.7 8.5 8.5 0 0 1 3.6-1.2c2.1-.4 3.4.5 4 2.6a12.6 12.6 0 0 1-.2 6.1 54.2 54.2 0 0 1-6 14.5 71.2 71.2 0 0 1-13.6 17.3 53.7 53.7 0 0 1-6.6 4.9 10.4 10.4 0 0 1-3.9 1.6c-2.3.6-3.9-.6-4.4-2.9a10.6 10.6 0 0 1-.2-2.5Z" fill="#e4eca7"/></svg>