<svg xmlns="http://www.w3.org/2000/svg" viewBox="0 0 1000 1000"><defs><style>.cls-1{fill:#1f0c17}.cls-2{fill:#0c0a08}.cls-3{fill:#868fc7}.cls-4{fill:#e5a5e6}.cls-5{fill:#f0fdf9}.cls-6{fill:#e9a8eb}.cls-7{fill:#fec78a}.cls-8{fill:#effcf7}</style></defs><path d="M784 427c13 0 26-1 36 8s7 16 0 24c-13 12-29 17-43 24a33 33 0 00-4 3h4l8 1c5 2 11 3 12 9s-3 11-8 14c-17 9-35 15-53 20l-3 1a18 18 0 003 2c13 6 13 10 2 20a5 5 0 00-1 1l3 1 57 7c4 0 8 2 8 6s-3 6-7 7l-17 6 18 1 11 2c5 1 10 2 10 8s-4 7-9 8l-2 1 2 2c6 3 13 6 12 14s-10 10-17 10h-41a17 17 0 002 2c26 11 53 14 80 15 13 0 26-6 40-5 7 1 13 4 16 10 5 10 14 16 25 20 3 1 5 3 4 7s-3 5-7 5c-21 2-42 6-61-4a73 73 0 00-36-8c-23 0-47 2-70 8-47 12-93 26-142 31-59 7-114-1-166-32-13-8-28-14-40-23-16-12-36-4-54-6-36-3-62-20-69-50a75 75 0 014-44 28 28 0 002-5 20 20 0 00-5 2c-33 28-70 46-115 39-52-9-86-40-107-87l-4-8c-1-4-6-9 0-13s10 0 14 2l8 4c4-1 14 15 13-4 0-11 13-16 23-10 2 1 3 3 6 1 5-4 10-4 15 0s5 9 5 15c0 3-9 11 4 11 4 0 4-1 3-4-2-9 1-15 12-15a5 5 0 003-1c4-5 9-7 14-4s6 10 6 16c0 4 1 5 4 4 19-4 37-9 53-19a21 21 0 003-2 20 20 0 00-3-1c-58 0-115-10-171-27-10-2-19-8-29-12-3-2-5-4-5-8s3-5 6-7c33-11 67-13 102-12 39 0 78 4 116 18l13 7c6 4 5-1 5-4 1-14-1-27 7-39 3-5 7-7 11-2 2 2 3 0 4-1 26-20 55-25 86-18 5 2 11 4 12 11s-5 8-9 9c-3 1-1 1-1 2 12 12 20 25 25 41 7 25-7 42-21 59-12 15-29 26-38 44-6 12-2 17 11 17 26 0 47-13 66-28 11-8 24-14 26-30 2-9 0-18-3-27-12-31-17-65-33-94s-29-61-38-94c-13-45-15-91 7-134 2-6 4-15 12-13s9 10 10 17l1 6 3-5c4-6 6-19 17-16s7 15 7 24l-5 33c1 2 1 1 2 1l9-12c3-4 7-7 13-5s5 8 4 13l-2 13 8-9c3-3 9-9 15-6s6 10 5 16l-1 2-7 21 17-11a9 9 0 0111 2c4 4 3 8 1 12l-8 16a25 25 0 00-1 3l3-1 14-6c5-2 9-2 12 2s0 9-2 13a106 106 0 01-8 9l12-4c5-1 12-4 16 2s0 11-4 16a8 8 0 00-1 2h2l10-1c5 0 10 0 13 5s0 10-2 14l-2 3a15 15 0 003 0c6-3 13-6 17 0s1 12-2 18l-4 7 6-2c7 0 11 2 11 10a2 2 0 010 2l1-2c17-33 26-69 40-103 6-14 11-29 22-41 3-4 6-7 12-5s7 7 6 12l-10 53a6 6 0 000 1l-1 3c2 2-1 4-1 6a3 3 0 010 1 3 3 0 000-2l4-6c10-22 21-44 38-62 4-4 9-8 15-6s6 9 6 15c-2 20-13 36-21 54l-3 7a8 8 0 01-1 3 2 2 0 011-1c13-15 24-31 40-43 6-4 13-9 20-3s2 13-1 19l-16 25a1 1 0 00-1 1l-1 2a1 1 0 00-1 1 1 1 0 00-1 1 1 1 0 00-1 1v2h-1 1l2-1h1c13-8 26-15 41-18 6-1 12-2 16 4s2 10-1 15c-6 12-17 19-27 28 0 2 1 1 2 1l19-7c6-2 15-3 19 5s-2 13-6 19l-8 7c0 3 2 1 3 1 7-1 14-2 18 5s-4 13-9 17l-29 20a9 9 0 01-1 2h2l3-1c12-2 25-5 38-1s16 18 6 28c-15 14-35 21-52 31l-5 3c2 2 5 1 7 0z" class="cls-1"/><path d="M218 652v16a7 7 0 01-9 6c-13-6-26-9-37-19-4-4-7-9-5-16s7-10 13-11 8-2 10-7 7-8 14-7 9 5 11 11c3 9 3 20 3 27zM365 763l-4 31c0 3-1 5-4 6s-4-1-6-2l-28-18c-6-4-11-10-7-17s10-11 18-9c3 1 5 0 7-2 4-5 9-8 15-6s8 10 9 17z" class="cls-2"/><path d="M672 253a10 10 0 01-1 2l-4 8 2-9z" class="cls-3"/><path d="M784 427l-6 1a28 28 0 01-4 0l3-2z" class="cls-4"/><path d="M790 366l-8 2 4-3zM600 334c-1 2 0 5-3 6l2-6z" class="cls-3"/><path d="M707 263l-2 3-1-1 3-4a22 22 0 010 2zM747 268l-3 2-1-1 2-2zM779 298l-5 1 3-2z" class="cls-4"/><path d="M806 323h-5l2-1z" class="cls-3"/><path d="M441 192l-2 2v-3zM747 265zM748 264zM746 266zM748 268h-1zM749 262zM750 261z" class="cls-4"/><path d="M670 251a6 6 0 000-1 6 6 0 010 1z" class="cls-3"/><path d="M307 397c16-17 37-20 59-21a26 26 0 016 0l16 3-12 5c-3 1-5 3-4 6s2 4 5 5c23 10 38 43 29 65-7 16-20 28-32 40-9 9-19 18-24 30-9 22 0 33 24 32 34-2 58-24 84-43 12-9 26-18 37-28 23-20 40-46 61-69 17-18 31-38 43-60 4-6 6-14 9-22 2-5 5-9 10-12 2-2 5-2 8 0s1 4 1 6a83 83 0 01-12 32c-2 3-4 6 0 8s7 0 8-3c4-10 11-16 21-19 8-2 11 1 9 9-2 12-8 22-16 31-2 2-4 5-1 7s5 1 8-1c8-6 16-11 27-10 5 1 7 3 5 8-2 8-6 15-13 18-3 2-8 3-5 7a9 9 0 0010 4c8-2 18-7 22-1s-8 12-14 17c-7 7-16 12-26 16-3 2-7 3-4 8s6 3 9 1c10-5 19-6 30-5l6 2-5 5c-18 10-37 19-57 23-5 1-12 1-10 8s9 4 14 3c10-2 20-3 30 2 4 2 5 5 1 7-23 12-46 19-71 23l-19 1c-3 1-5 2-5 5s1 4 4 4l22 1 9 3-7 5c-17 8-35 18-55 10-3-1-5 1-5 3a5 5 0 002 6c5 2 10 6 15 4 17-5 30 6 43 12 24 11 47 14 72 7 11-4 17 7 25 11 32 19 67 32 103 42a61 61 0 0012 2c3 0 4 1 4 4s1 6-4 6c-51 1-98 21-146 31-65 14-128 16-189-13-22-11-43-24-64-36-14-8-30-3-44-4-27-2-53-5-66-34-11-24-2-47 10-69 5-10 12-19 19-29 3-5 6-7 12-6 16 2 37-9 38-24 1-10 6-11 11-16s0-8-3-12l-3-2a24 24 0 014-1c4-1 9-1 11-7s-3-7-6-9c-6-6-13-11-21-13-4-2-7-1-8 3s2 4 5 6l14 8c3 2 3 3 0 3l-6 1c-4 1-9 0-10 5s3 7 6 9a41 41 0 015 4l-6 2c-4 1-10-1-11 5s4 6 7 9c1 1 3 2 2 4-2 8-21 18-29 15a3 3 0 01-1-2c7-17-6-25-18-32a78 78 0 00-20-10c-9-2-11-8-10-17 1-5 2-10 1-15-3-10 5-10 10-13l1 1c1 14 10 4 15 5 13 1 14 10 16 19 0 3 0 7 5 6s5-4 4-8c-2-21-14-29-35-25a2 2 0 01-2-2z" class="cls-5"/><path d="M643 590c-22 0-40-11-59-18l-1-1 2-1 22-11c4-3 8-7 7-12-4-9 3-8 8-9 16-5 33-9 48-19 10-8 8-18-3-24a51 51 0 01-6-4l6-2 24-13c5-3 11-7 9-15s-9-9-15-10l-4-1 3-2 10-12c5-4 9-9 6-16s-10-7-16-7c-3-1-4-1-2-4 4-8 8-16 2-24s-15-8-24-6c-4 1-3-1-2-2l4-12c2-7 3-14-3-19s-13-5-20-2c-3 1-5 1-4-3 3-13 3-24-14-24-3 0-2-1-1-2 13-36 24-73 41-107 2-5 6-8 9-12-1 5 0 10-2 14l-22 98c-1 4-3 9 2 11s8-3 10-7c12-30 23-61 40-89l18-25 5-3v6c-4 19-14 36-22 54l-23 47c-1 4-4 9 1 12s8-3 11-6c17-26 35-51 57-73 4-4 8-9 14-10 1 6-4 10-7 15-14 23-33 42-50 63-3 3-6 7-2 11s7-1 9-3c22-20 45-39 74-50 4-1 11-5 13-1s-2 9-6 12l-52 44a493 493 0 00-43 37c-3 3-6 6-2 10s6 0 9-3c27-25 58-44 93-58 4-2 10-5 12-2s-3 8-7 10c-23 21-50 34-76 51-7 4-14 10-20 16-3 2-5 5-2 8s6 2 9 0c18-13 35-27 56-37 13-6 26-13 41-16a22 22 0 015 1l-3 3-88 60c-4 3-9 6-5 10s7 1 10-1c27-18 55-32 88-32 6 0 13 0 15 6s-4 8-8 11c-20 14-42 24-63 35l-42 21c-4 2-8 3-6 8s7 2 10 1c23-11 47-18 72-18a53 53 0 019 1c5 1 13 1 14 7s-6 10-11 13c-31 17-64 30-96 44-4 2-6 4-4 8s4 3 8 2c21-9 42-17 66-15l8 2-7 5c-22 10-44 17-67 23-4 1-8 2-8 7s5 5 8 5l15 2 6 2a42 42 0 01-6 4c-18 6-37 10-57 13-2 0-5 1-5 5a5 5 0 004 4c5 2 14 1 13 8s-9 6-15 8l-25 5z" class="cls-6"/><path d="M191 581c-53-3-91-30-114-77l-4-11 10 4c53 21 105 15 156-6 20-8 37-21 52-36l4-2c11 5 23 10 32 18 5 3 4 7 2 10-28 51-66 90-126 99a57 57 0 01-6 1z" class="cls-7"/><path d="M406 146c2 26-2 51-3 76 0 4 1 7 4 8a1 1 0 002 0c6-3 4-10 5-15 2-23 6-46 18-67a2 2 0 012 0c0 27-7 52-10 77a84 84 0 000 9v1l1 1 3 1c6-1 6-7 8-12a2 2 0 010-1l8-18a1 1 0 011-1l6-11a1 1 0 011-1l1-1 1-1v-1a3 3 0 012 0v2a3 3 0 010 2l-15 47c-1 4-3 9 2 12a3 3 0 003 0l5-7a1 1 0 011-1l5-11a1 1 0 011-1l10-18a8 8 0 001-2l10-13a4 4 0 011-1l2-2c1-1 1 0 2 1l-9 24a2 2 0 010 1l-6 15a1 1 0 01-1 1l-2 7a3 3 0 01-1 1l-2 7a1 1 0 01-1 1l-1 5a1 1 0 01-1 1v6a3 3 0 011 1v1a3 3 0 011 0 6 6 0 005 0l1-1a1 1 0 011 0v-1a2 2 0 011-1l3-6a1 1 0 011 0l1-2 6-10a1 1 0 011-1l1-1 1-2a1 1 0 011-1 4 4 0 011-1l6-8a2 2 0 010-1h1l1-2h2a1 1 0 010-1h1a1 1 0 010-1l6-4c2-1 2 0 1 2l-8 14a1 1 0 01-1 1l-17 25-6 8c-2 3-4 6-1 9s6 0 8-2a1 1 0 011-1v-1l2-2 1-1a1 1 0 011 0v-1l1-1a1 1 0 010-1h1v-1l1-1 3-3h1a1 1 0 011-1l6-4 1-1 2-1 4-3a3 3 0 002-1l2-1 5-3 2-1h4l-16 17-1 1a2 2 0 01-1 0l-17 17c-3 4-4 7-1 10a18 18 0 013 1l5-3 1-1a2 2 0 011-1 3 3 0 011-1 2 2 0 011-1 1 1 0 011 0l2-2 1-1h1l1-1h1l1-1 9-5 1-1h1a1 1 0 010-1l3-1 2-1 4-2 2-1 3-1 2-1h1l2-1 3-1c1-1 3-1 4 1l-4 4a3 3 0 01-1 1 2 2 0 01-1 1 1 1 0 01-1 0l-4 3a2 2 0 01-1 1l-3 2-1 1-1 1a1 1 0 01-1 1l-3 2-1 1a2 2 0 01-1 1 1 1 0 010 1c-5 6-15 8-17 18a2 2 0 01-1 1l-3-1a34 34 0 00-5 0l-8 4a4 4 0 01-1 1 1 1 0 01-1 1l-16 22-2-1-2-27c0-4-3-8-8-10a5 5 0 00-3 0c-16 10-20 27-25 43l-1 4a1 1 0 01-2 1c-25-56-48-113-30-176a3 3 0 000-1l5-14a1 1 0 010-1l5-9a2 2 0 013-1z" class="cls-6"/><path d="M454 342v22c1 4 0 8 5 9s6-4 7-7c5-16 11-31 23-42l6-4 2 7c1 18-4 35-9 52 0 3-1 7 3 9s6-2 7-5c7-11 14-21 25-28a14 14 0 013-2v4c-2 13-8 24-14 35-2 3-4 7 0 9s7-1 9-4c4-10 12-18 23-21 6-2 9 0 8 7-2 20-13 36-23 52s-21 30-34 43c-6 7-14 12-22 19a19 19 0 01-2 1 3 3 0 01-1-2c4-21-5-40-12-59l-23-69c-6-19 3-39 15-55l3-2a16 16 0 011 3l1 28z" class="cls-8"/><path d="M242 465c-63-4-125-10-183-34a42 42 0 01-4-3l4-2a369 369 0 01220 19c4 3 4 4 1 8-11 12-24 12-38 12z" class="cls-7"/><path d="M797 593l-5 2c-4 1-7 2-7 7s3 5 7 6l15 4 5 3a23 23 0 01-5 2c-15 3-30-2-45 0-30 5-50-14-74-26-3-1-3-2 0-4 7-5 8-11 3-18-3-4 1-3 2-3 22-6 45-2 67 1l14 2 7 1-6 3c-5 3-14 3-13 11s11 6 17 7l18 1a1 1 0 010 1z" class="cls-8"/><path d="M500 311l1-2c5 7 9 2 12 0 14-11 29-18 46-21a30 30 0 014 0l-1 5c-7 11-17 19-26 29-2 2-5 5-2 9s6 1 9-1a129 129 0 0133-21l4-1a13 13 0 01-1 4l-21 28c-1 2-3 5-1 8s6 1 9-1c6-4 13-10 21-12l-14 18c-2 2-4 5-1 8s5 1 8-1l12-8c-2 4-3 9-6 13-8 13-16 27-27 39l-1-1 4-19c1-14-9-22-23-16l-5 1 1-5 1-7c1-5 0-9-3-12s-8-2-11 0a18 18 0 00-5 2l-13 12 3-19c0-10 2-21-7-29z" class="cls-4"/><path fill="#f8554c" d="M894 674c-17 3-29-10-44-13l-24-3c-3 0-4-1-4-4s3-2 5-2c15 5 29 0 44-2 12-3 23-2 29 11v1l11 11z"/><path d="M137 485c-3 5 0 14-6 14-8-1-21 3-24-11-1-3-1-6 2-8s6 0 8 3c4 7 8 8 13 0 1-2 3-3 5-2s1 3 2 4zM179 492c0 4 0 6-5 7s-10 1-12-6c0-3 1-3 3-2s6 0 8-2l4-4z" class="cls-3"/><path d="M521 253h-5l7-3z" class="cls-4"/><path d="M558 403a17 17 0 011 1l-3 3z" class="cls-3"/><path d="M541 271l-4-1 5-1z" class="cls-4"/><path d="M743 269a8 8 0 011 1l-3 2z" class="cls-3"/><path d="M465 337l2 1-2 3z" class="cls-4"/><path d="M704 265l1 1-2 3 1-4z" class="cls-3"/><path d="M423 347h2v3zM493 310z" class="cls-4"/><path d="M797 593a4 4 0 000-1l4 1z" class="cls-3"/><path d="M457 190h-3l2-2 1 2zM434 148h-2l2-2v2zM467 269a3 3 0 01-4 0zM504 226l-1-2h2l-1 2zM484 198l-2-1 1-1zM452 300zM446 253z" class="cls-4"/><path d="M309 399h-4a18 18 0 002-2z" class="cls-5"/><path d="M428 237l-3-1zM487 299l-2-1zM516 253l-2 1zM409 230zM509 257l-2 1zM521 277l-2 1zM527 274l-2 1zM532 272l-2 1zM535 271l-3 1zM501 262l-1 1zM470 267h-1zM478 267a1 1 0 011 0zM500 263h-2zM461 268v-1zM469 268zM493 268a1 1 0 01-1 0zM462 269h-1zM468 269h-1zM492 269h-1zM469 214l-1 1zM503 270l1-1zM502 271l1-1zM445 205l-1 1zM474 260zM488 272l-1 1zM461 261v-1zM468 215v1zM486 274l-1 1zM475 258l-1 2 1-2zM485 276h-1zM537 276v-1zM484 277h-1zM536 277v-1zM483 277a2 2 0 01-1 1zM507 258h-1zM535 278a5 5 0 010-1zM516 280a1 1 0 01-1 0zM481 280l-1 1zM515 280l-1 1zM480 281v1zM530 282l1-1zM526 285l1-1zM504 286a1 1 0 010 1zM524 287l1-1zM503 287l-1 1zM501 288a1 1 0 010 1zM501 289l-2 1zM520 290a4 4 0 011-1zM519 291l1-1zM498 291l-1 1zM518 291h1zM497 292l-1 1zM496 293l-1 1zM495 294l-1 1zM494 295l-1 1zM463 255a1 1 0 010-1zM482 247a1 1 0 01-1 1zM483 246l-1 1zM484 315l1-1zM483 316a1 1 0 011-1zM465 247l1-1zM452 245a2 2 0 01-1 1 2 2 0 001-1zM485 243l-1 1zM486 242l-1 1zM480 199l-1 1a4 4 0 011-1zM496 242a1 1 0 010-1zM468 239l1-1zM425 236a6 6 0 00-1-1 6 6 0 011 1zM424 235l-1-1zM493 233l-1 1zM456 194v-2 2zM458 233a1 1 0 01-1 1zM494 233h-1zM452 193l-1 1zM496 230l-1 1zM497 230h-1zM453 192l-1 1zM454 191l-1 1zM498 229h-1z" class="cls-4"/><path fill="#fff" d="M486 226h-1 1z"/><path d="M436 224v1zM394 170v2zM399 156v1zM475 223a10 10 0 011-1 10 10 0 00-1 1zM406 146h-2l1-1 1 1z" class="cls-4"/><path d="M405 145a2 2 0 010 1zM487 273l-1 1a3 3 0 011-1z" class="cls-4"/><path d="M209 654c1 8-1 10-8 6l-20-10c-3-1-7-4-5-9s8-5 13-3c6 2 8 0 8-6 0-4 0-8 4-8s5 3 5 6l3 24zM355 767l-3 19-19-11c-4-2-10-4-8-9s8-3 12-1 6-3 9-5 4-6 7-4 2 5 2 11z" class="cls-3"/><path d="M309 426c1-3-2-12 8-12s9 9 9 15 0 14-7 14-11-6-10-17z" class="cls-2"/><path d="M245 446c-1 5-3 8-8 8-7 0-7-5-7-10s2-7 6-7 9 4 9 9z" class="cls-1"/></svg>