<svg xmlns="http://www.w3.org/2000/svg" viewBox="0 0 1000 1000"><defs><style>.cls-1{fill:#072d21}.cls-4{fill:#c88c94}.cls-5{fill:#99975b}.cls-7{fill:#494735}.cls-8{fill:#9e995c}.cls-9{fill:#524f32}.cls-10{fill:#012b1e}</style></defs><path d="M795 720l19 21c3 3 6 7 3 11s-8 4-12 2c-31-11-55-31-73-57l-25-41c-2-3-3-3-5-2-43 21-87 27-134 21-4-1-5 1-6 4l-4 30c-1 4-3 9-7 11-8 2-8 6-8 13 2 53-3 106-11 159-1 10 2 16 9 22l22 18c3 2 4 4 2 7s-5 2-8 0l-19-15-2-2a11 11 0 000 3l11 21c1 3 2 6-1 8s-6 0-8-3l-10-20a39 39 0 00-3-4l-2 4-5 30c0 3-1 6-5 6s-5-3-4-7l3-26a28 28 0 000-5 17 17 0 00-3 3c-6 12-9 25-12 37-1 4-3 6-7 5s-4-4-3-7c4-14 7-27 14-39 1-3 2-6 4-6 18-7 17-23 19-38 7-52 11-104 10-156 0-1 1-4-2-4-13-1-14-11-16-21l-3-29c-1-4-3-6-7-7l-66-7c-3 0-4 1-4 3 2 19-3 34-24 39-4 2-2 8-3 12-1 24-2 49-1 73 0 17-11 26-18 39l-38 59c-3 5 1 9 3 11 9 10 18 20 30 26 2 1 3 4 2 7s-4 2-7 1c-10-4-16-13-25-19a11 11 0 00-2-2 9 9 0 000 3l13 22c2 2 3 5 0 7s-6 2-8-1l-10-17v-1l-1-1v-1l-2-3a1 1 0 00-1 1l3 25c1 3-1 5-4 6s-5-1-6-4l-3-30-1-5c-1 2-3 3-3 5l-8 23c-2 4-3 7-7 6s-4-5-3-9a116 116 0 0125-44c16-19 27-42 40-63l8-12c18-18 12-41 13-61 2-15 1-29 2-43 0-4 0-6-4-7-10-4-8-14-8-21 0-13 2-25 3-38 1-3 0-4-3-6-31-21-61-44-82-75-27-41-34-87-29-135 4-34 14-67 16-101a13 13 0 011-4c5-1 8 2 10 7a11 11 0 00-1 6c0 12-2 25-4 38l-5 20c-6 27-8 55-6 83a170 170 0 0063 118c15 13 29 25 45 35a156 156 0 0065 20l72 7c28 4 55 8 83 7a181 181 0 0047-9l35-13c16-8 25-21 28-37 3-12 4-24 3-36a304 304 0 00-135-211c-22-13-44-26-64-40-14-10-28-21-40-33a58 58 0 01-17-38c-2-21-2-41 1-61 2-10 1-17-7-25l-32-36a77 77 0 00-65-22c-14 1-27 5-38 14s-18 25-19 40c-1 4 2 6 4 7l24 14c8 4 16 9 25 12 4 1 6 5 6 9a14 14 0 01-6 11l-20 17a11 11 0 00-4 7c-3 13-6 27-12 39-1 3-2 6-5 7-4 1-6-2-8-6s1-4 2-6c3-7 6-14 7-22v-4c-1-1-2 1-3 2l-13 11c-3 2-5 4-8 4a7 7 0 01-7-7c0-3 3-4 5-6l32-24h1-2c-15 7-31 15-47 21a4 4 0 01-1-1c-5-2-5-2-7 4a15 15 0 01-10 6l-11-5c-1-3 2-4 4-5 16-9 34-16 51-24l39-16 3-2-3-3-37-20c-3-2-5-2-7 1-15 19-33 36-49 54l-19 21a6 6 0 01-1 1l1-1 13-6c2-1 4-2 6 1s1 5 0 7c-2 5-7 7-11 10l-5-2h-3l1 4 5 7c1 3-2 7-3 11 0 2 0 2 2 2l9-5c4 1 8 4 9 9l-25 11c-2 1-5 2-8-1s-2-5-1-8l1-4 6-21-18 8a5 5 0 01-6-2c-2-2-2-5 0-7l11-12a2 2 0 011-1c5-1 5-1 4-6 3-7 9-11 14-15 3-1 5-3 5-6a23 23 0 018-8c5 1 6-2 7-6 9-10 17-20 27-29s10-15 10-26c-2-31 1-62 21-88 35-43 121-56 163 10 13 21 21 44 33 65 22 41 26 42 70 30l16-4c2-1 5-1 6 2s0 4-2 6c-26 30-77 33-109 7l-7-5-2 9c-2 21-3 42 0 63 5 26 27 37 45 51 30 21 62 39 91 61 46 34 78 79 102 132 3 9 15 15 24 21 42 34 92 55 138 82 6 3 16 4 12 15v1l-2 1c-6 3-12 1-18 0-15-1-29-4-44-6a4 4 0 01-1-1h-2l-11-3h-1l-3-1h-1l-7-2h-1c-3-2-7-2-11-3l-1-1a3 3 0 00-1 0h1l8 5c38 20 78 34 118 49 5 1 11 2 10 9s-6 6-11 6c-50 4-96-8-140-32l-5-3h-1v1l2 3a619 619 0 00135 94c5 3 9 6 7 12s-7 6-11 6c-37 0-70-13-101-31l-14-9c-1 0-3-3-3 1l1 1a2 2 0 001 1 1 1 0 001 1 2 2 0 001 1 2 2 0 001 1 5 5 0 001 1 4 4 0 001 1z" class="cls-1"/><path fill="#07282a" d="M226 250c1 2 3 4 1 6s-5 1-7 1l-54-58c-16-17-25-38-34-60-5-10 1-13 16-12 33 4 55 26 75 49l36 39c0 2 2 4 0 6s-5 1-7 1-5-5-7-8l-20-22-30-31c-2-2-3-2-5 0-6 8-6 8 1 15 16 17 34 31 50 48 2 1 4 2 4 5 0 4 0 7-6 7-2 0-4-2-5-4l-52-48c-1-2-3-5-6-3s-4 4-5 7a924 924 0 0028 33l22 22 5 7z"/><path fill="#06282a" d="M260 293l-9-9c-5-1-7-4-9-8l-2-3c-2-2-8-5-4-9s6 1 9 2l15 14 40 35 17 16c2 2 3 4 6 2s4-6 2-9a34 34 0 00-5-4c-9-7-16-16-24-24l-34-33-7-5v-9c4-1 7 2 11 4 6 3 10 9 15 13l44 43a29 29 0 004 4c2 1 4 4 7 1s3-5-1-8l-42-40-12-11c-3-2-5-4-6-7 0-3-1-6 2-7s5 1 7 3a39 39 0 0112 9 9 9 0 006 7c5 5 12 9 16 15 2 3 4 6 7 7h1a4 4 0 011 0c6 7 14 12 21 18l2 4c1 5 6 7 10 11 8 6 9 11 3 19a164 164 0 01-15 18c-5 6-11 6-16 2-4-3-7-7-13-6a1 1 0 01-1 0c-6-5-12-9-15-17-3-2-5-6-9-6-5-9-15-14-22-22l-12-10z"/><path d="M819 609l11 3zM807 606l7 2z" class="cls-4"/><path d="M344 918v-4l1 3z" class="cls-5"/><path d="M815 608l3 1zM897 618v-1 1zM789 714l-1-1zM790 715l-1-1zM791 716l-1-1zM792 717l-1-1zM793 718l-1-1zM794 719a9 9 0 00-1-1 9 9 0 011 1zM795 720l-1-1z" class="cls-4"/><path d="M347 920v1-1zM348 922v1-1z" class="cls-5"/><path fill="#367f66" d="M303 332l5 5c7 11 19 12 29 17s13-7 19-13c13-14 10-16-3-30-9-10-20-18-28-28a1 1 0 000-1c9-15 11-32 16-48 2-10 14-14 21-21 5-4 9-7 8-14s-6-5-10-7l-46-26c-8-6-2-15 0-21 8-29 39-46 71-43 36 3 56 27 76 52l6 7c19 12 7 29 7 44 0 32-5 65 25 89 17 13 34 27 52 38 46 27 91 57 123 101s56 95 57 153c0 34-15 54-48 67-44 17-90 16-137 10l-90-10c-34-4-63-18-89-40-29-24-56-49-70-86-12-32-13-65-10-99 3-29 14-57 14-87 1-3-2-7 2-9z"/><path d="M546 196c-31 2-49-17-68-37s-34-46-61-59c-34-16-79-7-102 20a42 42 0 00-5 8l-4 8v-10c6-48 41-79 90-79 39 0 69 21 85 57 12 26 22 54 41 76 9 10 19 14 32 14a22 22 0 015 0 28 28 0 01-5 2h-8z" class="cls-7"/><path d="M898 743q-77-9-129-64c-14-14-26-30-39-46a4 4 0 010-3l7-17 11 14c31 33 65 59 102 84l49 28a31 31 0 014 3zM874 609c-47-6-92-17-132-42-5-4-3-9-4-14l-7-30-1-3a20 20 0 013 1c36 31 79 52 120 74l21 12a16 16 0 012 2zM255 249l-20 9a17 17 0 01-3 0l2-2 72-80c1-1 2-2 4-1l42 24 4 2a24 24 0 01-4 3l-86 38-11 7zM896 663c-54-4-103-19-145-56-7-7-14-11-11-22l1-2a20 20 0 012 1c45 31 95 52 145 70l10 4 9 4z" class="cls-8"/><path d="M226 250l-57-60c-3-4 4-8 6-12s4 1 5 2l59 56zM255 258c9 2 13 10 19 15l53 51c4 5-2 8-4 12s-4-1-5-2l-69-63-4-5zM245 229l-62-58c-3-4 6-7 7-12 1-1 2-3 4-1 19 20 40 40 58 62a5 5 0 010 2z" class="cls-4"/><path d="M802 743l-5-2c-33-16-55-43-73-75l-8-12c-3-4-3-7 2-10s3 3 4 5c22 34 50 61 77 90z" class="cls-5"/><path d="M275 248l55 51c5 5 15 8 6 18-2 1-2 2-4 1l-66-65z" class="cls-4"/><path d="M397 683l4-30c0-4 1-5 5-3a27 27 0 009 4c19 3 12 16 10 26-3 12-15 13-25 15-4 0-1-7-3-12zM536 713c-6 2-8-1-9-6l-4-33a8 8 0 010-3c9 1 19 1 28 3 4 1 2 6 1 9-1 7-3 13-3 20s-6 11-13 10z" class="cls-9"/><path d="M296 254c-5-2-9-6-12-10l48-20zM242 276l9 8c-3 5-8 6-13 7l4-15z" class="cls-5"/><path d="M563 194l-1-1h2z" class="cls-7"/><path d="M332 224l1-1-1 1z" class="cls-5"/><path d="M186 151l-4 5-10 12-10 13-13-24c-2-3 16-16 19-15 8 2 18 7 18 9zM338 349c-3-4-8-8-7-9a96 96 0 0115-22c1-1 11 4 10 7-3 9-11 15-18 24z" class="cls-4"/><path d="M325 282a1 1 0 010 1 1 1 0 010-1zM427 156c0 22-9 33-26 32-8-1-11-6-14-12-7-12-10-25-8-39 1-9 4-17 14-19 14-2 22 6 28 16 4 7 6 15 6 22z" class="cls-1"/><path d="M480 572l18 15c14 10 27 20 42 26 3 2 5 4 4 7s-4 4-7 2c-23-9-43-24-61-41l-1-6c0-2 3-2 5-3zM366 381c4 0 5 2 5 6 2 21 7 41 16 60 1 3 1 6-2 8s-5-1-6-3c-11-21-15-43-17-66-1-3 2-5 4-5zM323 430c1-7 0-13 7-13s2 6 3 10c4 18 12 34 23 48 2 3 5 5 2 8s-6 2-8-1c-14-15-21-34-27-52zM326 527c0-5 1-7 4-8s4 1 5 3c8 20 18 39 32 54 2 2 2 5 0 8s-4 1-6 0c-17-17-26-38-35-57zM509 368l-7-1c-5-1-9-3-8-8s6-3 10-2c13 3 24-1 33-9 3-3 6-6 9-3s1 8-2 10c-10 8-21 12-35 13zM605 443c13-1 22-8 30-17 2-2 4-5 7-3s3 5 2 8c-5 11-31 24-42 21-3-1-6-2-6-6 1-5 6-3 9-3zM389 508l3-4c1-1 5 0 6 2 8 12 19 22 29 32 2 2 3 5 1 7s-4 3-6 1c-12-10-23-21-32-34l-1-4zM463 615l40 18 1 6c0 2-4 3-6 2-14-5-26-10-38-17-2-2-3-4-2-6a4 4 0 015-3zM444 612c-4 0-35-20-37-25-1-2 0-4 2-5s4-1 6 0l32 21c2 2 3 4 2 6s-2 3-5 3zM443 483c6 1 7 5 9 8l19 22c2 3 3 5 0 8s-4 2-7 0c-9-9-17-20-24-31-2-4 0-6 3-7zM546 391c9 0 17-4 23-12 2-2 4-4 7-2s3 5 1 8c-8 10-19 16-32 16-4 0-8-1-8-6s5-4 9-4zM508 447c-7-1-13-2-18-6-2-2-3-4-2-6s5-3 7-2c10 6 19 4 29-1 3-1 5-1 7 2s0 6-3 7c-6 4-13 5-20 6zM524 524c1 1 3 2 3 4a62 62 0 0014 25c3 2 4 6 1 9s-6 0-9-3a73 73 0 01-15-26c-1-4 0-8 6-9zM662 501c-4-2-10-1-9-7s5-3 8-4c8 0 16-4 22-9 3-2 6-4 8-1s1 7-2 9a61 61 0 01-27 12zM603 491c-4 0-9-1-10-6s6-4 10-4a50 50 0 0012-3c3-2 6-2 7 1s0 6-3 7c-5 3-10 5-16 5z" class="cls-10"/><path fill="#f4f6f6" d="M417 164l-1 5c-1 3-2 8-6 7s1-4 1-7c0-5 0-9-4-13s-9-4-14-1-4 1-4-2l-1-11c0-5 0-12 6-14s12 2 16 7c6 7 7 16 7 29z"/></svg>