<svg xmlns="http://www.w3.org/2000/svg" viewBox="0 0 1000 1000"><defs><style>.cls-1{fill:#070504}.cls-2{fill:#a36f4f}.cls-3{fill:#5c5b56}.cls-5{fill:#b99130}.cls-9{fill:#361912}.cls-10{fill:#fff}</style></defs><path d="M757 824l9 31c1 7 1 15-6 21s-17 3-25-1c-12-5-22-14-32-23-2 0-1 1-1 2l14 36c3 8 4 16-4 22s-16 0-23-5l-26-21h-1l17 46c2 5 4 13-2 17s-13 2-19-1-12-11-12 4c0 4-3 7-8 8s-7 0-10-4c-1-1-2-2-3-1-14 12-16-2-19-11-2-3-1-3-4-1-9 6-13 0-16-7-4-14-1-27 1-40 2-6 2-10-6-11l-30-6c-4 0-5 0-5 4 1 18 2 37-3 54-3 7-5 15-13 15s-12-7-14-14l-3-14-6 13a58 58 0 01-4 6c-2 4-6 7-11 6s-7-4-8-8l-1-7c-1-1 9-20-9-9-6 3-10-4-10-10-1-21 8-40 21-56 6-7 3-9-2-13a201 201 0 01-101-161c-4-40 3-79 1-119s-1-79-12-117c-6-16-12-32-30-40-7-3-13-1-19 2-2 1 0 2 0 3l10 21c10 21 8 26-13 35a32 32 0 00-4 2c-11 7-18 6-24-7-3-4-6-8-7-12-5-17-14-14-25-7l-26 16c-3 1-6 3-9 1s-2-6 0-9c7-18 17-32 31-45 3-2 4-4 1-7s-4 2-5 3l-38 43c-1 1-2 4-4 3s-3-4-2-7a340 340 0 0120-64l8-17c2-8-6-13-9-20-6-14-15-27-22-40-2-4-5-7-10-7-39-5-83-52-66-103 14-39 58-69 96-59 25 7 39 26 46 50 9 30 12 60-9 86-11 14 1 20 4 29 2 7 6 16 11 18s12-6 19-6c18 0 22-12 28-26 26-59 70-98 132-118 10-3 9-15 11-23 9-34 22-66 48-92a109 109 0 0114-10c4-3 9-4 14-1s3 9 1 14c-5 19-13 37-14 57a30 30 0 001 4 25 25 0 003-2c16-15 31-31 50-43a74 74 0 0114-7c11-4 19 3 16 14l-17 47v7l6-3c15-11 29-22 47-29 8-4 17-7 25 0s4 17 1 25l-29 70c-12 27-12 53-1 81 14 39 13 82 20 123 3 15 6 31 11 46 5 11 15 20 20 31 14 31 21 63 29 96 11 48 20 96 42 141 13 25 29 48 40 74 6 13 11 25 13 39 1 9 2 18-7 24s-17 1-25-3c-12-6-21-15-30-25-1 0-2 1-1 2z" class="cls-1"/><path d="M702 855l-2-5 3 2a18 18 0 00-1 3z" class="cls-2"/><path d="M662 886l-1-2a27 27 0 002 2z" class="cls-3"/><path fill="#691f10" d="M390 650c0-29 5-58 3-87l-2-30c0-3 1-5 4-3 46 20 74-15 69-62-3-24-13-45-19-68-6-26 7-47 22-67 12-15 26-28 32-47 11-33-16-71-52-72-40 0-66 23-91 50-14 17-23 35-28 56a14 14 0 01-1 3 13 13 0 01-1-3c-4-10 1-20 5-29 30-66 79-108 150-119 59-9 121 18 143 75 16 41 23 83 27 126a313 313 0 0011 56 16 16 0 010 3 10 10 0 01-3-1c-26-18-55-17-84-12-47 9-83 47-94 95-15 65-9 128 13 190 15 41 30 83 53 120 10 17 23 33 34 49a22 22 0 011 3l-2-1c-38-4-71-21-102-43-48-34-78-78-85-137l-3-45z"/><path d="M483 590c-1-39 4-78 25-112 28-46 55-53 107-51 48 2 68 37 81 77 16 46 24 94 36 141 7 28 18 54 30 81 1 2 5 4 1 8s-8 5-12 3a56 56 0 01-13-9c-7-5-12-5-16 3-12 25-22 29-42 16-7-4-11-10-16-16-2-2-5-5-8-4s-5 4-6 8c-2 13-2 25-7 37-7 15-16 17-29 7l-13-15c-2-3-5-4-8-4s-4 3-5 7c-2 13-2 27-6 40a49 49 0 01-5 10c-8 12-16 12-23 0-19-32-32-67-45-101-16-41-26-82-26-126z" class="cls-5"/><path fill="#e9bc8e" d="M811 832c0 14-8 12-15 8-19-10-33-26-46-43l-5-6c-2-2-5-4-8-2s-3 5-2 8c6 17 15 34 19 52 1 6 5 14-1 19s-11-1-17-4c-21-11-35-30-50-48-3-3-5-6-10-4s-2 7 0 10l28 65c3 5 7 12 2 16s-10-3-14-6c-17-11-30-27-43-43-2-3-5-8-10-5s-2 7 0 10c10 24 22 48 30 73 1 3 2 7 0 9s-5-1-7-3a343 343 0 01-92-99c-1-1-3-3 0-4 19-8 22-26 26-44l2-13 9 8c20 17 41 9 48-16l4-23a17 17 0 011-3 27 27 0 012 2c10 10 22 18 36 18 17 1 25-11 31-24 1-3 2-4 5-1 11 9 22 13 35 3 1-1 2 0 3 1 14 26 30 51 37 81l2 8z"/><path fill="#ba5a4c" d="M342 390c0-17-6-32-8-47-1-9 3-19 7-29 15-42 42-72 85-87 21-7 45 1 57 18 13 18 10 40-7 61-10 13-21 25-29 38-17 27-16 53-5 82 9 24 16 49 8 76-3 12-12 19-23 22-12 3-25-1-36-8l-1-7c-2-30-5-60-20-86-5-8-11-16-20-20-7-3-9-8-8-13z"/><path fill="#8ec2b5" d="M266 225c-1 18-5 40-28 52-47 23-106-11-104-61 2-39 41-76 77-74 20 1 41 19 48 40 4 13 7 25 7 43z"/><path d="M594 145c5-1 10-5 15-8 15-12 31-24 49-30 8-2 11 1 9 9-7 23-19 45-28 68l-12 40a16 16 0 01-1 3l-2-2c-35-53-87-69-148-63-4 1-4 1-3-3 7-23 12-45 23-66 9-15 19-28 33-39a20 20 0 014-2 25 25 0 01-1 4c-6 19-13 37-13 57 0 5 0 11 6 15s10-2 14-5c17-16 33-34 54-46l9-3-2 10c-6 17-15 33-15 51 0 6 2 9 9 10z" class="cls-5"/><path d="M310 317c6 0 4 5 6 7 9 15 4 22-10 29-31 15-58 37-80 64a14 14 0 01-2 2 12 12 0 010-3c9-30 20-60 47-81 12-9 24-16 39-18z" class="cls-2"/><path d="M304 466a14 14 0 01-3-3l-19-36c-5-10-10-19-16-27-3-4-2-7 1-10a161 161 0 0016-11c6-6 8-5 12 3 9 21 20 42 31 63 2 6 2 9-4 11s-12 7-18 10zM245 286l4 7c4 6 8 11 10 17 2 8-7 10-12 13s-11 12-16 7c-7-9-12-21-17-31a3 3 0 010-2c11-2 20-8 31-11z" class="cls-3"/><path d="M523 912c0-12 2-23 5-35 0-1 1-4 3-3s4 1 4 4c2 19 3 39-3 58 0 2-2 3-3 4l-2-4c-4-7-4-15-4-24zM493 931c1-23 9-43 18-62l3-2 1 3c-3 22-9 45-19 65l-2 2z" class="cls-9"/><path d="M332 390c1 13-12 6-15 12-6-5-11-12-10-17 3-9 14-15 21-14s2 13 4 19zM264 416l6 12-3 3-25 13a17 17 0 01-2 1v-2a114 114 0 0123-26 5 5 0 011-1z" class="cls-2"/><path d="M474 909c2-18 10-33 21-46a8 8 0 012-1 8 8 0 010 3l-20 44a11 11 0 01-2 2l-1-2zM623 922l-4 21-2 2a9 9 0 01-1-2c-3-10-2-20-2-30l1-1 5 4 3 6z" class="cls-9"/><path d="M325 353a19 19 0 012 3c0 1 1 3-2 4l-21 12h-2s-2-4-1-5l24-14z" class="cls-10"/><path d="M242 350l-4-7c-1-1 1-2 2-2l23-16c1-1 2-3 3-1a3 3 0 010 3c-8 6-16 13-22 22z" class="cls-3"/><path d="M594 917l3-18 2-4c1 1 3 2 3 4 0 10-3 19-5 29l-1 1a6 6 0 01-1-2l-1-10zM638 937l-2 11-2-10c0-4 1-4 2-6l2 5z" class="cls-9"/><path d="M757 824l-1-3 2 1a17 17 0 00-1 2z" class="cls-10"/><path d="M469 280c0 27-19 51-41 51s-40-20-39-46c0-23 22-47 42-47 23 0 39 17 38 42zM255 216c1 22-6 41-25 53-3 2-7 4-10 0s1-6 4-8c18-13 26-38 19-62-2-10-6-19-10-27-2-3-3-6 0-9s6 1 9 4c6 9 13 34 13 49z" class="cls-1"/><path d="M460 278c-3 18-7 35-26 42l-6 1-12-4 6-6c15-19 12-38-9-50-5-2-1-3 0-5 10-9 20-10 32-4s13 16 15 26z" class="cls-10"/></svg>