<svg xmlns="http://www.w3.org/2000/svg" viewBox="0 0 920 200">
<path style="fill:#86bc24;stroke:none" d="M3054.83 974.39a4.32 4.32 0 1 1 8.64 0 4.32 4.32 0 0 1-8.64 0" transform="matrix(5.4348 0 0 5.4348 -15746.43 -5136.26)"/>
<path style="stroke:none" d="M2917.05 962.95c0-2.74-.52-4.77-1.58-6.1-1.06-1.31-2.66-1.97-4.82-1.97h-2.3v16.73h1.76c2.4 0 4.15-.71 5.27-2.14 1.11-1.42 1.67-3.6 1.67-6.52m8.18-.29c0 4.99-1.34 8.83-4.02 11.52-2.68 2.7-6.44 4.05-11.3 4.05h-9.44v-29.87h10.1c4.68 0 8.3 1.22 10.84 3.68 2.55 2.45 3.82 5.99 3.82 10.62M2951.37 978.23h7.51v-30h-7.5v30zM2969.43 967.04c0 1.91.25 3.37.75 4.37s1.34 1.5 2.51 1.5c1.17 0 2-.5 2.47-1.5.48-1 .72-2.46.72-4.37 0-1.9-.24-3.34-.73-4.3-.48-.98-1.32-1.46-2.5-1.46-1.15 0-1.97.48-2.47 1.44-.5.97-.75 2.4-.75 4.32m14.1 0c0 3.64-.96 6.49-2.88 8.52-1.91 2.04-4.59 3.06-8.03 3.06-3.3 0-5.93-1.04-7.88-3.12-1.96-2.09-2.93-4.9-2.93-8.46 0-3.63.95-6.45 2.87-8.47 1.91-2.01 4.6-3.02 8.05-3.02 2.14 0 4.03.47 5.67 1.4a9.43 9.43 0 0 1 3.79 4 13.17 13.17 0 0 1 1.33 6.09M2986.5 978.23h7.52v-22.28h-7.51v22.28zM2986.5 953.25h7.52v-5.02h-7.51v5.02zM3009.23 972.55c1.01 0 2.22-.26 3.63-.77v5.6c-1.01.45-1.97.77-2.89.96-.91.19-1.99.28-3.22.28-2.52 0-4.34-.63-5.45-1.9-1.11-1.26-1.67-3.2-1.67-5.83v-9.18H2997v-5.76h2.63v-5.69l7.57-1.32v7.01h4.79v5.76h-4.8v8.67c0 1.44.69 2.17 2.04 2.17M3026.61 972.55c1.02 0 2.22-.26 3.63-.77v5.6c-1.01.45-1.97.77-2.89.96-.91.19-1.98.28-3.22.28-2.52 0-4.33-.63-5.45-1.9-1.11-1.26-1.67-3.2-1.67-5.83v-9.18h-2.63v-5.76h2.63v-5.78l7.57-1.23v7.01h4.79v5.76h-4.8v8.67c0 1.44.69 2.17 2.04 2.17M3039.72 964.33c.1-1.22.45-2.12 1.04-2.69.6-.57 1.34-.85 2.22-.85.96 0 1.73.32 2.3.96.57.64.86 1.5.89 2.58h-6.45zm10.59-6.15c-1.79-1.75-4.32-2.63-7.6-2.63-3.44 0-6.09 1.01-7.95 3.02-1.85 2.02-2.78 4.9-2.78 8.67 0 3.64 1 6.45 3 8.42 2 1.97 4.82 2.96 8.44 2.96 1.74 0 3.24-.12 4.5-.35a13 13 0 0 0 3.62-1.27l-1.15-5.02c-.85.35-1.66.61-2.43.8-1.1.25-2.31.38-3.63.38a5.14 5.14 0 0 1-3.43-1.07 3.86 3.86 0 0 1-1.34-2.93H3053v-3.42c0-3.29-.9-5.81-2.68-7.56M2935.2 964.33c.1-1.22.45-2.12 1.05-2.69.6-.57 1.33-.85 2.22-.85.96 0 1.72.32 2.29.96.57.64.87 1.5.9 2.58h-6.46zm10.6-6.15c-1.8-1.75-4.33-2.63-7.6-2.63-3.45 0-6.1 1.01-7.95 3.02-1.86 2.02-2.79 4.9-2.79 8.67 0 3.64 1 6.45 3 8.42 2.01 1.97 4.82 2.96 8.45 2.96 1.74 0 3.24-.12 4.5-.35 1.24-.24 2.45-.66 3.62-1.27l-1.16-5.02a16 16 0 0 1-2.42.8c-1.1.25-2.32.38-3.64.38a5.15 5.15 0 0 1-3.43-1.07 3.85 3.85 0 0 1-1.33-2.93h13.42v-3.42c0-3.29-.9-5.81-2.68-7.56" transform="matrix(5.4348 0 0 5.4348 -15746.43 -5136.26)"/>
</svg>