<svg xmlns="http://www.w3.org/2000/svg" viewBox="0 0 306 142.6">
<defs>
<clipPath id="a">
<path style="fill:none" d="M-1.3-.9H307v223.23H-1.3z"/>
</clipPath>
</defs>
<g style="clip-path:url(#a)">
<path d="M157 61.8h4.1a.9.9 0 0 0 .8-.8V48.3h11.7V61a.9.9 0 0 0 .8.8h4.1a.8.8 0 0 0 .8-.8V31.9a.8.8 0 0 0-.8-.8h-4.1a.9.9 0 0 0-.8.8v11.4h-11.7V31.9a.9.9 0 0 0-.8-.8H157a.8.8 0 0 0-.8.8V61a.8.8 0 0 0 .8.8Zm34.4.3a10.7 10.7 0 0 0 5.8-1.8v.7a.9.9 0 0 0 .8.8h3.5a.9.9 0 0 0 .9-.8V46.1c0-5.3-3.3-7.9-9.1-7.9a37.7 37.7 0 0 0-6.9.7.9.9 0 0 0-.8.9v2.6c0 .6.3.7.8.7h.2a57 57 0 0 1 6.7-.3c2.4 0 3.6.6 3.6 3.3v1.8h-2.6c-7.2 0-10 2.5-10 7.2 0 5.6 3.7 6.9 7.1 6.9Zm-1.7-7c0-2.3.9-3.5 4.6-3.5h2.6v5a8.6 8.6 0 0 1-4.2 1.2c-2 0-3-.5-3-2.6Zm20.7-5 5.6 3.5c1.3.8 1.8 1.3 1.8 2.1s-.3 2-2.9 2a65.6 65.6 0 0 1-6.9-.5h-.2a.7.7 0 0 0-.7.7v2.4a1 1 0 0 0 .8 1 35.3 35.3 0 0 0 7.4.8c5.4 0 8.1-2.8 8.1-6.4s-.5-4.2-4-6.3l-5.4-3.3c-1-.6-1.7-1-1.7-1.7s.9-1.7 2.9-1.7a54.6 54.6 0 0 1 6.8.5h.2c.4 0 .6-.3.6-.8V40a.8.8 0 0 0-.7-.9 28 28 0 0 0-7.4-.9c-5.2 0-7.8 2.1-7.8 6.2a6.6 6.6 0 0 0 3.5 5.7Zm29.2-.7-5.4-3.3c-1.1-.6-1.7-1-1.7-1.7s.9-1.7 2.9-1.7a54.6 54.6 0 0 1 6.8.5h.1a.7.7 0 0 0 .7-.8V40a.9.9 0 0 0-.7-.9 28 28 0 0 0-7.4-.9c-5.2 0-7.8 2.1-7.8 6.2a6.7 6.7 0 0 0 3.4 5.7l5.7 3.5c1.3.8 1.8 1.3 1.8 2.1s-.4 2-2.9 2a65.5 65.5 0 0 1-7-.5h-.1a.7.7 0 0 0-.7.7v2.4a1 1 0 0 0 .8 1 34.4 34.4 0 0 0 7.3.8c5.5 0 8.1-2.8 8.1-6.4s-.5-4.2-3.9-6.3Zm17.6 12.7c6.5 0 9.9-4.4 9.9-10.3v-3.3c0-5.9-3.4-10.3-9.9-10.3s-9.8 4.4-9.8 10.3v3.3c0 5.9 3.4 10.3 9.8 10.3Zm-4.4-13.6c0-3.4 1.5-5.6 4.4-5.6s4.4 2.2 4.4 5.6v3.3c0 3.4-1.5 5.6-4.4 5.6s-4.4-2.2-4.4-5.6Zm-75.3 32.2v-.4c0-7.3-5.6-9.5-11.9-9.5a61.5 61.5 0 0 0-8.1.5c-.8.2-1.3.5-1.3 1.3V101a.8.8 0 0 0 .8.8h4.1a.8.8 0 0 0 .8-.8V90.2l3.7.2c6.3 0 11.9-2.4 11.9-9.7Zm-5.7 0c0 3.3-1.8 5-6.2 5l-3.7-.2v-9.8h3.7c4.1 0 6.2 1.3 6.2 4.7Zm10.5 21.1h3.9a.8.8 0 0 0 .7-.9V71.2a.8.8 0 0 0-.7-.8h-3.9a.9.9 0 0 0-.8.8v29.7a.9.9 0 0 0 .8.9Zm22-1.5v.7a.9.9 0 0 0 .8.8h3.5a.9.9 0 0 0 .9-.8V86.1c0-5.3-3.3-7.9-9.1-7.9a36.7 36.7 0 0 0-6.9.7.9.9 0 0 0-.8.9v2.6c0 .6.3.7.8.7h.2a55.8 55.8 0 0 1 6.7-.3c2.4 0 3.6.6 3.6 3.3v1.8h-2.6c-7.2 0-10 2.5-10 7.2 0 5.6 3.7 6.9 7.1 6.9a10.7 10.7 0 0 0 5.8-1.8Zm-7.5-5.1c0-2.3.9-3.5 4.6-3.5h2.6v5a8.6 8.6 0 0 1-4.2 1.2c-2.1-.1-3-.6-3-2.7Zm19.8.4c0 5.5 1.9 6.5 6.6 6.5l2.8-.3c.5-.1.8-.3.8-.7v-2.6q0-.6-.9-.6h-2.2c-1.5 0-1.6-.3-1.6-2.3v-13h2.5a.9.9 0 0 0 .9-.8v-2.4a.9.9 0 0 0-.9-.9h-2.5v-4.2a.6.6 0 0 0-.6-.6h-.2l-3.8.6c-.5.1-.9.4-.9.8v3.4h-3.8a.9.9 0 0 0-.9.9v1.8c0 .5.4.7.9.8l3.8.6v13Zm24.6 2.3H239c-1.5 0-1.6-.3-1.6-2.3v-13h3.7a.8.8 0 0 0 .8-.8v-2.4a.8.8 0 0 0-.8-.9h-3.7v-4.2c0-.4-.3-.6-.7-.6h-.1l-3.9.6c-.4.1-.8.4-.8.8v3.4h-2.7a.9.9 0 0 0-.8.9v1.8c0 .5.4.7.8.8l2.7.6v13c0 5.5 1.9 6.5 6.6 6.5l2.8-.3c.5-.1.7-.3.7-.7v-2.6c0-.4-.3-.6-.8-.6Zm24.4 3V87.5c0-5.3-1.2-9.3-7.2-9.3a11 11 0 0 0-6.7 2v-.8a.8.8 0 0 0-.8-.9h-3.6a.9.9 0 0 0-.8.9v21.5a.9.9 0 0 0 .8.9h3.8a.8.8 0 0 0 .8-.9V84.3a10.8 10.8 0 0 1 4.7-1.4c3.2 0 3.5 1 3.5 4.6v13.4a.9.9 0 0 0 .8.9h3.8a.9.9 0 0 0 .9-.9Zm23.2-8.8c.6 0 .8-.4.8-1.1v-2.3c0-6.1-3.4-10.5-9.8-10.5s-9.9 4.1-9.9 10.5v3.1c0 8.1 5.9 10.3 10 10.3a36.6 36.6 0 0 0 8-.7c.8-.1.9-.4.9-1.1v-2.7c0-.4-.3-.6-.8-.6h-.1a70.9 70.9 0 0 1-7.6.4c-3.9 0-4.9-2.8-4.9-5.2h13.4ZM275.4 88c0-3.2 1.9-5.1 4.4-5.1s4.4 1.9 4.4 5.1v.2h-8.8Zm29.8-9.8a9.3 9.3 0 0 0-5.9 2v-.8a.9.9 0 0 0-.9-.9h-3.6a.9.9 0 0 0-.8.9v21.5a.9.9 0 0 0 .8.9h3.8a.9.9 0 0 0 .9-.9V84.3a11.5 11.5 0 0 1 5.7-1.4.9.9 0 0 0 .8-.9v-2.9a.9.9 0 0 0-.8-.9Zm-144 32.9H157a.9.9 0 0 0-.8.8V141a.9.9 0 0 0 .8.8h4.2a.9.9 0 0 0 .8-.8v-29.1a.9.9 0 0 0-.8-.8Zm19.9 7.1a11 11 0 0 0-6.7 2v-.9a.9.9 0 0 0-.9-.8h-3.6a.9.9 0 0 0-.8.8v21.6a.9.9 0 0 0 .8.9h3.8a.9.9 0 0 0 .9-.9v-16.6a10.4 10.4 0 0 1 4.7-1.4c3.2 0 3.5 1 3.5 4.6v13.4a.9.9 0 0 0 .9.9h3.8a.9.9 0 0 0 .8-.9v-13.4c0-5.3-1.2-9.3-7.2-9.3Zm25.7 11.2-5.5-3.3c-1-.6-1.6-1-1.6-1.7s.8-1.7 2.8-1.7a54.9 54.9 0 0 1 6.9.5h.2c.4 0 .6-.3.6-.8V120a.8.8 0 0 0-.7-.9 28.6 28.6 0 0 0-7.4-.9c-5.3 0-7.9 2.1-7.9 6.2a6.6 6.6 0 0 0 3.5 5.7l5.7 3.5c1.3.8 1.8 1.3 1.8 2.1s-.4 2-3 2a67.3 67.3 0 0 1-7-.5h-.1a.7.7 0 0 0-.7.7v2.4a1 1 0 0 0 .8 1 35.3 35.3 0 0 0 7.4.8c5.5 0 8.2-2.8 8.2-6.4 0-2.1-.5-4.2-4-6.3Zm21.6 8.5h-2.2c-1.5 0-1.6-.3-1.6-2.3v-13h3.8a.9.9 0 0 0 .8-.8v-2.5a.9.9 0 0 0-.8-.8h-3.8v-4.2c0-.4-.3-.6-.7-.6h-.1l-3.9.6c-.5.1-.8.4-.8.8v3.4h-3.9a.9.9 0 0 0-.9.8v1.9c0 .5.4.7.9.8l3.9.6v13c0 5.5 1.9 6.5 6.6 6.5l2.8-.3c.6-.1.8-.3.8-.7v-2.6q0-.6-.9-.6Zm10.7-19.4h-3.8a.9.9 0 0 0-.9.8v21.6a.9.9 0 0 0 .9.9h3.8a.8.8 0 0 0 .8-.9v-21.6a.8.8 0 0 0-.8-.8Zm.1-8.3h-4a.8.8 0 0 0-.9.8v3.6a.8.8 0 0 0 .9.8h4a.8.8 0 0 0 .9-.8V111a.8.8 0 0 0-.9-.8Zm19.8 27.7h-2.2c-1.5 0-1.6-.3-1.6-2.3v-13h3.7a.8.8 0 0 0 .8-.8v-2.5a.8.8 0 0 0-.8-.8h-3.7v-4.2c0-.4-.3-.6-.7-.6h-.2l-3.9.6c-.4.1-.8.4-.8.8v3.4h-3.9a.8.8 0 0 0-.8.8v1.9c0 .5.3.7.8.8l3.9.6v13c0 5.5 1.9 6.5 6.6 6.5a14.3 14.3 0 0 0 2.9-.3c.5-.1.8-.3.8-.7v-2.6c0-.4-.4-.6-.9-.6Zm24.3-19.4h-3.9a.9.9 0 0 0-.8.9v16.5a12.5 12.5 0 0 1-4.7 1.6 3.7 3.7 0 0 1-2.6-.7c-.8-.7-.9-1.9-.9-4v-13.4a.9.9 0 0 0-.9-.9h-3.8a.8.8 0 0 0-.8.9v13.4c0 3.5.5 6 2 7.5a7.3 7.3 0 0 0 5.2 1.8 11 11 0 0 0 6.5-2.1v1a.9.9 0 0 0 .8.8h3.9a.9.9 0 0 0 .8-.8v-21.6a.9.9 0 0 0-.8-.9Zm19.7 19.4h-2.2c-1.5 0-1.6-.3-1.6-2.3v-13h3.7a.9.9 0 0 0 .9-.8v-2.5a.9.9 0 0 0-.9-.8h-3.7v-4.2c0-.4-.3-.6-.7-.6h-.1l-3.9.6c-.5.1-.9.4-.9.8v3.4h-3.9a.9.9 0 0 0-.8.8v1.9c0 .5.4.7.8.8l3.9.6v13c0 5.5 2 6.5 6.7 6.5l2.8-.3c.5-.1.8-.3.8-.7v-2.6q0-.6-.9-.6" style="fill:#4f5358"/>
<path d="M0 141.7h124v-124H0Z" style="fill:#b00c36"/>
<path d="M35.4 106.3h106.3V0H35.4Z" style="fill:#f89c0e"/>
<path d="M35.4 106.3H124V17.7H35.4Z" style="fill:#e25617"/>
<path d="M71.5 31.5h-4.1a.7.7 0 0 0-.8.8v11.3H54.8V32.3a.7.7 0 0 0-.8-.8h-4.1a.8.8 0 0 0-.8.8v29a.8.8 0 0 0 .8.8H54a.7.7 0 0 0 .8-.8V48.7h11.8v12.6a.7.7 0 0 0 .8.8h4.1a.8.8 0 0 0 .8-.8v-29a.8.8 0 0 0-.8-.8Zm16.4-.4a58.2 58.2 0 0 0-8 .6c-.9.1-1.4.4-1.4 1.2v28.4a.8.8 0 0 0 .9.8h4.1a.8.8 0 0 0 .8-.8V50.5l3.6.2c6.4 0 11.9-2.4 11.9-9.7v-.3c0-7.3-5.5-9.6-11.9-9.6Zm6.2 9.9c0 3.3-1.7 5-6.2 5h-3.6v-9.9l3.6-.2c4.2 0 6.2 1.3 6.2 4.8Zm15.4-9.5h-4.1a.8.8 0 0 0-.8.8v29a.8.8 0 0 0 .8.8h4.1a.7.7 0 0 0 .8-.8v-29a.7.7 0 0 0-.8-.8" style="fill:#fff"/>
</g>
</svg>