<?xml version="1.0" encoding="utf-8"?>
<svg xmlns="http://www.w3.org/2000/svg" xmlns:xlink="http://www.w3.org/1999/xlink"
	 viewBox="330 -149 760 398" style="enable-background:new 330 -149 760 398;" xml:space="preserve">
<path d="M365.5-113.4v326.9h326.7v-326.9H365.5z M431.9,188.4h-43.1V75.9h11v104.2h32.1V188.4z M549.4,188.4h-21.7V93.7
	c0-0.6-0.4-0.8-1.2-0.8c-0.4,0-0.7,0.3-0.7,0.8c-0.9,4.4-1.8,9.4-2.8,14.9c-1,5.5-2.2,11.9-3.7,19.3c-1.4,7.4-3.2,16-5.2,25.8
	c-2.1,9.9-4.5,21.4-7.3,34.7h-22.6c-2.8-13.1-5.1-24.4-7.1-33.9c-2-9.5-3.7-17.9-5.1-25.1c-1.4-7.2-2.7-13.6-3.8-19.3
	c-1.1-5.6-2.2-11.1-3.3-16.4c0-0.6-0.4-0.8-1.2-0.8c-0.4,0-0.7,0.3-0.7,0.8v94.7h-19.9V75.9h36.2c0.6,2.4,1.2,5.6,2,9.5
	c0.8,3.9,1.6,8.2,2.6,13c1,4.8,1.9,10,2.9,15.4c1,5.5,2,11.1,3,16.8c1,5.7,1.9,11.3,2.8,16.8c0.8,5.5,1.6,10.7,2.3,15.5
	c0,0.8,0.4,1.2,1.2,1.2c0.5,0,0.8-0.4,0.8-1.2c1-7.3,2.3-15.3,3.8-24c1.6-8.7,3.1-17.2,4.7-25.4c1.6-8.2,3.1-15.8,4.5-22.5
	c1.4-6.8,2.6-11.8,3.3-15.1h36.1V188.4z M666.6,145.5c0,8.3-1.2,15.4-3.8,21.2c-2.5,5.8-6,10.5-10.5,14.2c-4.5,3.7-10,6.3-16.4,8
	c-6.4,1.7-13.4,2.5-21.1,2.5c-7.6,0-14.5-0.8-20.9-2.5c-6.3-1.6-11.8-4.3-16.4-8c-4.6-3.7-8.1-8.4-10.7-14.2
	c-2.6-5.8-3.8-12.9-3.8-21.2V75.9h38.6v73.4c0,5.2,1.2,8.9,3.6,11.1c2.4,2.2,5.6,3.3,9.6,3.3c4,0,7.2-1.1,9.7-3.3
	c2.4-2.2,3.7-5.9,3.7-11.1V75.9h38.4V145.5z"/>
<g>
	<path d="M818.2,44.5c0-5.6-2.7-8.4-7.9-8.4h-2.5v17.1h2.5C815.4,53.2,818.2,50.9,818.2,44.5z"/>
	<polygon points="968.1,135.4 975.6,135.4 971.8,124.9 	"/>
	<path d="M887.8,127.2c0-1.8-1.4-3.3-4.3-3.3h-3.8v6.9h3.8C887,130.8,887.8,129.1,887.8,127.2z"/>
	<polygon points="791.7,91.5 799.3,91.5 795.5,81 	"/>
	<polygon points="947.6,91.5 955.2,91.5 951.4,81 	"/>
	<path d="M727.8-113.4v326.9h326.7v-326.9H727.8z M968.5,113.7c1.3,0,2.3,1.1,2.3,2.3c0,1.2-1.1,2.3-2.3,2.3
		c-1.3,0-2.3-1.1-2.3-2.3C966.2,114.8,967.2,113.7,968.5,113.7z M928.6,76.6h4.5v23.9h-4.5V76.6z M924.9,120.5h4.5v23.9h-4.5V120.5z
		 M907.2,44.4h9.4v3h-9.4V44.4z M892.1,32.2c3.9,0,6.4,1.2,8.1,2.7l-1.8,3.3c-1.3-1.5-3.1-2.8-6.2-2.8c-4,0-7,3.6-7,9
		c0,5.6,3,9.4,7.2,9.4c2.4,0,3.8-0.6,4.4-1.2v-6.1h-5.4v-3.3h9.6v11.5c-2.1,1.3-4.8,2.3-8.9,2.3c-7.3,0-11.6-5-11.6-12.6
		C880.5,36.2,886.6,32.2,892.1,32.2z M867.8,32.7h4.5v23.9h-4.5V32.7z M832.7,32.7l4.9,18.7l4.6-16.8h4.7l4.6,16.8l4.8-18.7h4.7
		l-7.2,23.9H849l-4.6-16.8l-4.6,16.8H835l-7.3-23.9H832.7z M841.5,100.5V76.6h4.5v23.9H841.5z M844.4,120.5l-9.5,23.9h-4.7
		l-9.5-23.9h5l7,19.4l7-19.4H844.4z M828.9,76.6h5.4l-8.4,11.5l9.2,12.4h-5.6l-6.5-9.6l-6.6,9.6h-5.4l9.2-12.4l-8.5-11.5h5.6
		l5.9,8.9L828.9,76.6z M803.4,32.7h7.2c8.5,0,12.3,4.9,12.3,11.8c0,7.9-4.6,12.1-12.3,12.1h-7.2V32.7z M774.4,32.7h4.5v14.7
		c0,3.8,1.8,6.3,5.5,6.3c3.6,0,5.4-2.4,5.4-6.3V32.7h4.5V47c0,7.6-4.9,10-9.9,10c-5.1,0-10-1.8-10-10V32.7z M751.8,32.7h4.5v20.3
		h11.9v3.5h-16.3V32.7z M773.4,188.3l-0.8-18.2l-6.1,14.9h-4.1l-6.2-14.9l-0.7,18.2h-4.4l1.4-23.9h5.6l6.5,15.8l6.2-15.8h5.6
		l1.4,23.9H773.4z M761.4,141.6c3.6,0,5.4-2.4,5.4-6.4v-14.7h4.5v14.3c0,7.6-4.9,10-9.9,10c-5.2,0-10-1.9-10-10v-14.3h4.5v14.7
		C755.9,139,757.7,141.6,761.4,141.6z M773.4,100.5l-0.8-18.2l-6.1,14.9h-4.1l-6.2-14.9l-0.7,18.2h-4.4l1.4-23.9h5.6l6.5,15.8
		l6.2-15.8h5.6l1.4,23.9H773.4z M784.8,144.4h-4.4v-23.9h5.8l10,17.8v-17.8h4.4v23.9h-5.8l-10-17.8V144.4z M801.7,159.9
		c0,1.2-1.1,2.3-2.4,2.3c-1.3,0-2.3-1.1-2.3-2.3c0-1.2,1-2.3,2.3-2.3C800.7,157.6,801.7,158.7,801.7,159.9z M795.1,159.9
		c0,1.2-1.1,2.3-2.4,2.3c-1.3,0-2.3-1.1-2.3-2.3c0-1.2,1-2.3,2.3-2.3C794.1,157.6,795.1,158.7,795.1,159.9z M806.3,178.7
		c0,7.6-4.9,10-9.9,10c-5.2,0-10-1.8-10-10v-14.3h4.5v14.8c0,3.8,1.8,6.4,5.5,6.4c3.6,0,5.4-2.4,5.4-6.4v-14.8h4.5V178.7z
		 M802.5,100.5l-2.1-5.8h-9.8l-2.1,5.8h-4.7l9.5-23.9h4.7l9.5,23.9H802.5z M814.7,144.4h-4.5v-23.9h4.5V144.4z M835.6,188.3h-5.8
		l-10-17.8v17.8h-4.4v-23.9h5.8l10,17.8v-17.8h4.4V188.3z M855.1,188.8c-7.8,0-11.4-6-11.4-12.6c0-6.5,4.4-12.3,11.4-12.3
		c3.4,0,6.1,1.1,7.9,3l-1.8,3.3c-1.3-1.5-2.7-3.1-6.1-3.1c-4.1,0-6.8,3.9-6.8,9c0,5,2.9,9.3,6.8,9.3c2.9,0,4.7-1,6.8-3.1l1.7,3.4
		C860.9,187.9,858.9,188.8,855.1,188.8z M867.6,144.4H851v-23.9h16.1v3.5h-11.6v6.3h10.7v3.4h-10.7v7.2h12.1V144.4z M866.3,97.2
		l-6.2-14.9l-0.7,18.2H855l1.4-23.9h5.6l6.5,15.8l6.2-15.8h5.6l1.4,23.9h-4.5l-0.8-18.2l-6.1,14.9H866.3z M890.3,188.3h-4.5v-10.8
		h-10.7v10.8h-4.5v-23.9h4.5v9.8h10.7v-9.8h4.5V188.3z M889.1,144.4l-4.8-7.2c-1.2-1.8-2.3-3.1-3.4-3.1h-1.1v10.3h-4.5v-23.9h9.2
		c4.2,0,8,2.2,8,6.7c0,4.5-4.1,6.2-6.1,6.4c0.7,0.4,1.6,1.6,1.9,2.1l6.2,8.8H889.1z M895.1,100.5h-4.5V76.6h4.5V100.5z M916.3,188.3
		h-16.5v-23.9h16.1v3.5h-11.6v6.3h10.7v3.4h-10.7v7.2h12.1V188.3z M907.7,144.9c-4.7,0-7.4-2.2-8.6-3.5l1.9-3
		c1.7,1.9,3.7,3.3,6.8,3.3c3,0,4.4-1.7,4.4-3.2c0-1.9-1.4-2.8-3.3-3.6l-4.7-2c-2.6-1.1-4.6-3-4.6-6c0-4.6,4.6-6.9,8.4-6.9
		c3.2,0,6.2,1.2,7.9,3.2l-1.9,3c-1.4-1.7-3.1-3-6-3c-2.6,0-3.8,1.5-3.8,2.9c0,1.7,1.5,2.5,3,3.1l4.7,2c2.7,1.2,4.9,2.9,4.9,6.5
		C916.8,140.2,914.9,144.9,907.7,144.9z M921,100.5h-16.3V76.6h4.5V97H921V100.5z M944.2,188.3h-5.8l-10-17.8v17.8h-4.4v-23.9h5.8
		l10,17.8v-17.8h4.4V188.3z M956.6,124.1h-8.1v20.3h-4.5v-20.3H936v-3.6h20.6V124.1z M956.3,94.7h-9.8l-2.1,5.8h-4.7l9.5-23.9h4.7
		l9.5,23.9h-4.9L956.3,94.7z M978.9,144.4l-2.1-5.8H967l-2.1,5.8h-4.7l9.5-23.9h4.7l9.5,23.9H978.9z M972.8,116c0-1.2,1-2.3,2.3-2.3
		s2.3,1.1,2.3,2.3c0,1.2-1.1,2.3-2.3,2.3C973.9,118.3,972.8,117.2,972.8,116z M974.3,82.7v17.8h-4.4V76.6h5.8l10,17.8V76.6h4.4v23.9
		h-5.8L974.3,82.7z M1008,124.1h-8.1v20.3h-4.5v-20.3h-8.1v-3.6h20.6V124.1z M1006.4,101c-4.7,0-7.4-2.2-8.6-3.5l1.9-3
		c1.7,1.9,3.7,3.3,6.8,3.3c3,0,4.4-1.7,4.4-3.2c0-1.9-1.4-2.8-3.3-3.6l-4.7-2c-2.6-1.1-4.6-3-4.6-6c0-4.6,4.6-6.9,8.4-6.9
		c3.2,0,6.2,1.2,7.9,3.2l-1.9,3c-1.4-1.7-3.1-3-6-3c-2.6,0-3.8,1.5-3.8,2.9c0,1.7,1.5,2.5,3,3.1l4.7,2c2.7,1.2,4.9,2.9,4.9,6.5
		C1015.5,96.3,1013.6,101,1006.4,101z M1030.6,91.3h-9.4v-3h9.4V91.3z"/>
</g>
</svg>
