<svg xmlns="http://www.w3.org/2000/svg" width="1822" height="590">
    <g fill="none" fill-rule="evenodd">
        <path fill="#3070B3" d="M880 590h942V0H880v590ZM.06 590H823V0H.06v590Z" />
        <path fill="#FFF"
            d="M1351 100v320h-80V100H981v70h70v320h70V170h80v320h220V170h80v320h70V170h80v320h70V100h-370M130.995 109.966h-29.649V100h71.132v9.966h-29.649v78.98h-11.834v-78.98M222.431 168.515c-1.415 7.144-4.536 12.583-9.363 16.32s-10.904 5.605-18.227 5.605c-5.162 0-9.635-.851-13.42-2.553-3.788-1.701-6.971-4.049-9.55-7.038-2.581-2.99-4.516-6.56-5.806-10.713-1.291-4.153-2.019-8.678-2.184-13.579 0-4.816.747-9.281 2.242-13.392 1.496-4.111 3.591-7.662 6.291-10.651a28.528 28.528 0 0 1 9.592-6.976c3.695-1.661 7.744-2.492 12.147-2.492 5.73 0 10.483 1.183 14.263 3.551 3.778 2.366 6.809 5.378 9.094 9.031 2.283 3.656 3.861 7.641 4.734 11.959.872 4.32 1.224 8.431 1.058 12.334h-48.21c-.083 2.823.25 5.501.997 8.034.747 2.534 1.95 4.776 3.613 6.727 1.66 1.952 3.778 3.51 6.353 4.671 2.573 1.164 5.606 1.745 9.094 1.745 4.401 0 8.055-1.038 10.963-3.115 2.906-2.075 4.815-5.232 5.73-9.468h10.589Zm-10.34-17.939a21.711 21.711 0 0 0-1.682-7.1c-.956-2.242-2.242-4.173-3.861-5.793-1.62-1.618-3.551-2.906-5.793-3.861-2.242-.954-4.652-1.433-7.225-1.433-2.741 0-5.213.479-7.412 1.433-2.202.955-4.092 2.264-5.669 3.924-1.578 1.662-2.824 3.592-3.737 5.793-.915 2.201-1.454 4.546-1.62 7.037h36.999ZM278.612 145.22c-.832-4.068-2.597-7.225-5.295-9.467-2.7-2.243-6.25-3.364-10.651-3.364-3.821 0-7.019.707-9.592 2.117-2.575 1.414-4.631 3.283-6.167 5.606-1.537 2.327-2.637 5.005-3.301 8.035a43.8 43.8 0 0 0-.996 9.406c0 2.989.352 5.897 1.059 8.721.705 2.824 1.806 5.337 3.301 7.536 1.494 2.202 3.426 3.967 5.792 5.294 2.368 1.33 5.252 1.994 8.659 1.994 5.148 0 9.218-1.39 12.208-4.174 2.99-2.782 4.816-6.621 5.481-11.523h10.838c-1.164 7.892-4.154 14.036-8.97 18.437-4.817 4.403-11.294 6.602-19.433 6.602-4.902 0-9.24-.809-13.018-2.429-3.78-1.619-6.935-3.881-9.468-6.789-2.534-2.907-4.444-6.373-5.73-10.402-1.289-4.027-1.931-8.449-1.931-13.267 0-4.816.623-9.321 1.868-13.516 1.246-4.193 3.135-7.849 5.669-10.963 2.532-3.114 5.688-5.563 9.468-7.35 3.778-1.784 8.24-2.678 13.391-2.678 3.654 0 7.079.436 10.277 1.308 3.196.872 6.042 2.224 8.533 4.048 2.493 1.829 4.505 4.133 6.043 6.914 1.536 2.784 2.511 6.085 2.927 9.904h-10.962M302.404 100h10.589v34.008h.249a14.556 14.556 0 0 1 3.55-4.982 20.404 20.404 0 0 1 5.044-3.426 25.022 25.022 0 0 1 5.794-1.93 29.503 29.503 0 0 1 5.917-.624c4.235 0 7.764.582 10.589 1.743 2.822 1.165 5.108 2.785 6.851 4.859 1.744 2.078 2.968 4.548 3.675 7.413.705 2.865 1.059 6.041 1.059 9.53v42.355h-10.589v-43.601c0-3.986-1.164-7.142-3.488-9.468-2.326-2.325-5.524-3.488-9.592-3.488-3.239 0-6.042.498-8.409 1.496-2.366.996-4.341 2.408-5.917 4.234-1.578 1.828-2.762 3.967-3.551 6.416-.79 2.451-1.182 5.129-1.182 8.035v36.376h-10.589V100M371.667 124.54h9.965v10.215h.25c2.242-3.985 5.127-6.932 8.658-8.844 3.529-1.909 7.617-2.865 12.27-2.865 4.235 0 7.764.582 10.589 1.743 2.822 1.165 5.108 2.785 6.851 4.859 1.744 2.078 2.968 4.548 3.675 7.413.705 2.865 1.059 6.041 1.059 9.53v42.355h-10.589v-43.601c0-3.986-1.164-7.142-3.488-9.468-2.326-2.325-5.524-3.488-9.592-3.488-3.239 0-6.042.498-8.409 1.496-2.366.996-4.341 2.408-5.918 4.234-1.577 1.828-2.761 3.967-3.55 6.416-.79 2.451-1.182 5.129-1.182 8.035v36.376h-10.589V124.54M440.307 112.956h10.589V100h-10.589v12.956Zm0 75.989h10.589V124.54h-10.589v64.405ZM474.437 168.64c.082 2.41.623 4.404 1.62 5.98a11.446 11.446 0 0 0 3.924 3.8c1.62.956 3.445 1.64 5.481 2.054 2.034.418 4.13.624 6.291.624 1.661 0 3.404-.125 5.232-.375 1.826-.249 3.508-.704 5.046-1.37 1.535-.663 2.803-1.638 3.799-2.927.997-1.287 1.495-2.927 1.495-4.921 0-2.074-.604-3.756-1.807-5.045-1.205-1.287-2.783-2.345-4.734-3.177-1.952-.829-4.194-1.515-6.726-2.055-2.535-.539-5.129-1.1-7.786-1.682a74.411 74.411 0 0 1-7.723-2.117c-2.492-.83-4.734-1.91-6.728-3.24a15.215 15.215 0 0 1-4.796-5.107c-1.204-2.074-1.806-4.65-1.806-7.723 0-3.24.726-6.02 2.18-8.347a17.81 17.81 0 0 1 5.606-5.668c2.283-1.452 4.858-2.532 7.723-3.239a35.609 35.609 0 0 1 8.534-1.059c3.569 0 6.913.311 10.028.934 3.114.623 5.855 1.704 8.222 3.239 2.367 1.538 4.255 3.613 5.668 6.229 1.411 2.617 2.242 5.876 2.492 9.779h-10.589c-.168-2.075-.728-3.799-1.682-5.17a11.512 11.512 0 0 0-3.488-3.302c-1.371-.828-2.909-1.431-4.61-1.805a23.958 23.958 0 0 0-5.169-.561c-1.579 0-3.177.126-4.797.377-1.619.252-3.094.69-4.422 1.316-1.329.627-2.41 1.485-3.239 2.572-.83 1.086-1.246 2.423-1.246 4.011 0 1.924.642 3.471 1.932 4.642 1.286 1.171 2.927 2.152 4.92 2.946 1.993.794 4.235 1.464 6.727 2.007 2.491.544 4.983 1.105 7.474 1.685a80.217 80.217 0 0 1 7.786 2.11c2.533.829 4.775 1.925 6.728 3.292a16.127 16.127 0 0 1 4.733 5.151c1.203 2.073 1.806 4.637 1.806 7.701 0 3.809-.809 7.018-2.429 9.626a18.748 18.748 0 0 1-6.353 6.269c-2.616 1.573-5.565 2.691-8.845 3.354-3.282.66-6.539.992-9.779.992-3.655 0-7.081-.395-10.277-1.183-3.198-.788-6.042-2.034-8.534-3.737-2.491-1.701-4.484-3.943-5.979-6.728-1.495-2.78-2.326-6.165-2.491-10.152h10.588M574.595 145.22c-.831-4.068-2.596-7.225-5.295-9.467-2.7-2.243-6.25-3.364-10.651-3.364-3.821 0-7.019.707-9.592 2.117-2.575 1.414-4.631 3.283-6.167 5.606-1.537 2.327-2.636 5.005-3.301 8.035a43.8 43.8 0 0 0-.996 9.406c0 2.989.352 5.897 1.059 8.721.705 2.824 1.806 5.337 3.301 7.536 1.495 2.202 3.426 3.967 5.792 5.294 2.368 1.33 5.253 1.994 8.659 1.994 5.148 0 9.218-1.39 12.208-4.174 2.99-2.782 4.816-6.621 5.481-11.523h10.838c-1.163 7.892-4.154 14.036-8.97 18.437-4.817 4.403-11.294 6.602-19.433 6.602-4.901 0-9.24-.809-13.018-2.429-3.779-1.619-6.935-3.881-9.467-6.789-2.535-2.907-4.445-6.373-5.731-10.402-1.289-4.027-1.931-8.449-1.931-13.267 0-4.816.623-9.321 1.869-13.516 1.245-4.193 3.134-7.849 5.668-10.963 2.533-3.114 5.688-5.563 9.468-7.35 3.778-1.784 8.241-2.678 13.392-2.678 3.653 0 7.079.436 10.276 1.308 3.196.872 6.043 2.224 8.534 4.048 2.491 1.829 4.504 4.133 6.042 6.914 1.536 2.784 2.511 6.085 2.927 9.904h-10.962M598.387 100h10.589v34.008h.249a14.556 14.556 0 0 1 3.55-4.982 20.391 20.391 0 0 1 5.045-3.426 24.982 24.982 0 0 1 5.793-1.93 29.503 29.503 0 0 1 5.917-.624c4.235 0 7.764.582 10.589 1.743 2.822 1.165 5.108 2.785 6.852 4.859 1.743 2.078 2.967 4.548 3.674 7.413.705 2.865 1.06 6.041 1.06 9.53v42.355h-10.589v-43.601c0-3.986-1.165-7.142-3.489-9.468-2.326-2.325-5.523-3.488-9.592-3.488-3.238 0-6.041.498-8.409 1.496-2.366.996-4.341 2.408-5.917 4.234-1.578 1.828-2.762 3.967-3.551 6.416-.79 2.451-1.182 5.129-1.182 8.035v36.376h-10.589V100M722.088 168.515c-1.414 7.144-4.535 12.583-9.362 16.32s-10.904 5.605-18.227 5.605c-5.162 0-9.635-.851-13.421-2.553-3.788-1.701-6.97-4.049-9.549-7.038-2.581-2.99-4.516-6.56-5.806-10.713-1.291-4.153-2.019-8.678-2.184-13.579 0-4.816.747-9.281 2.241-13.392 1.496-4.111 3.592-7.662 6.292-10.651a28.508 28.508 0 0 1 9.592-6.976c3.694-1.661 7.744-2.492 12.146-2.492 5.731 0 10.484 1.183 14.264 3.551 3.778 2.366 6.808 5.378 9.094 9.031 2.282 3.656 3.861 7.641 4.734 11.959.872 4.32 1.224 8.431 1.058 12.334h-48.21c-.084 2.823.249 5.501.997 8.034.747 2.534 1.95 4.776 3.613 6.727 1.66 1.952 3.778 3.51 6.353 4.671 2.573 1.164 5.605 1.745 9.094 1.745 4.4 0 8.054-1.038 10.962-3.115 2.906-2.075 4.816-5.232 5.731-9.468h10.588Zm-10.34-17.939a21.71 21.71 0 0 0-1.681-7.1c-.956-2.242-2.242-4.173-3.862-5.793-1.62-1.618-3.551-2.906-5.792-3.861-2.242-.954-4.652-1.433-7.226-1.433-2.74 0-5.212.479-7.412 1.433-2.201.955-4.092 2.264-5.668 3.924-1.579 1.662-2.824 3.592-3.738 5.793-.914 2.201-1.454 4.546-1.619 7.037h36.998ZM179.844 307.086c0 11.294-3.053 19.828-9.157 25.599-6.104 5.774-14.721 8.659-25.849 8.659-5.73 0-10.859-.666-15.385-1.994-4.528-1.328-8.346-3.404-11.461-6.228-3.114-2.824-5.502-6.394-7.163-10.714-1.662-4.318-2.491-9.425-2.491-15.322V250.28h11.834v56.806c0 7.89 2.138 13.911 6.416 18.062 4.276 4.154 10.359 6.23 18.25 6.23 7.556 0 13.308-2.076 17.254-6.23 3.943-4.151 5.917-10.172 5.917-18.062V250.28h11.835v56.806M195.787 274.82h9.965v10.215h.25c2.242-3.985 5.127-6.932 8.658-8.844 3.529-1.91 7.618-2.865 12.271-2.865 4.234 0 7.763.582 10.588 1.743 2.823 1.165 5.108 2.785 6.852 4.859 1.743 2.077 2.968 4.547 3.675 7.413.704 2.865 1.059 6.041 1.059 9.529v42.356h-10.589v-43.601c0-3.987-1.164-7.142-3.488-9.468-2.326-2.325-5.524-3.488-9.593-3.488-3.238 0-6.041.498-8.408 1.495-2.367.997-4.341 2.409-5.918 4.235-1.578 1.828-2.761 3.967-3.55 6.416-.79 2.45-1.183 5.129-1.183 8.035v36.376h-10.589V274.82M265.05 263.236h10.589V250.28H265.05v12.956Zm0 75.989h10.589V274.82H265.05v64.405ZM322.476 339.226H311.14l-23.919-64.406h11.835l18.063 53.692h.249l17.566-53.692h11.087l-23.545 64.406M409.553 318.795c-1.414 7.144-4.535 12.583-9.362 16.319-4.827 3.738-10.904 5.606-18.227 5.606-5.162 0-9.635-.851-13.421-2.553-3.788-1.701-6.97-4.049-9.549-7.038-2.582-2.99-4.516-6.56-5.806-10.713-1.291-4.153-2.019-8.678-2.184-13.579 0-4.816.747-9.281 2.242-13.392 1.495-4.111 3.591-7.662 6.291-10.652a28.529 28.529 0 0 1 9.592-6.975c3.694-1.661 7.744-2.492 12.146-2.492 5.731 0 10.484 1.183 14.264 3.551 3.778 2.366 6.809 5.378 9.094 9.031 2.282 3.656 3.861 7.641 4.734 11.959.872 4.32 1.224 8.431 1.058 12.333h-48.21c-.084 2.824.249 5.502.997 8.035.747 2.534 1.95 4.776 3.613 6.727 1.66 1.952 3.778 3.51 6.353 4.671 2.573 1.164 5.605 1.745 9.094 1.745 4.401 0 8.054-1.038 10.962-3.115 2.906-2.075 4.816-5.232 5.731-9.468h10.588Zm-10.339-17.939a21.711 21.711 0 0 0-1.682-7.1c-.956-2.242-2.242-4.173-3.861-5.793-1.62-1.619-3.551-2.906-5.793-3.861-2.242-.954-4.652-1.433-7.226-1.433-2.74 0-5.212.479-7.412 1.433-2.201.955-4.091 2.264-5.668 3.923-1.579 1.663-2.824 3.593-3.738 5.794-.914 2.201-1.453 4.546-1.619 7.037h36.999ZM422.258 274.82h9.966v13.579h.249c2.574-5.232 5.731-9.093 9.467-11.585 3.738-2.492 8.472-3.654 14.202-3.488v11.211c-4.236 0-7.849.582-10.838 1.745-2.99 1.163-5.399 2.865-7.225 5.107-1.828 2.242-3.157 4.983-3.986 8.222-.832 3.239-1.246 6.894-1.246 10.962v28.653h-10.589V274.82M471.837 318.92c.082 2.41.623 4.404 1.62 5.979a11.431 11.431 0 0 0 3.924 3.801c1.619.955 3.445 1.64 5.481 2.054a31.24 31.24 0 0 0 6.291.624 38.81 38.81 0 0 0 5.232-.375c1.826-.249 3.508-.705 5.046-1.37 1.535-.663 2.803-1.638 3.799-2.927.996-1.287 1.494-2.928 1.494-4.921 0-2.074-.603-3.756-1.806-5.045-1.205-1.287-2.783-2.345-4.734-3.177-1.952-.829-4.194-1.515-6.726-2.055-2.535-.539-5.129-1.1-7.786-1.682a74.413 74.413 0 0 1-7.723-2.118c-2.492-.829-4.734-1.91-6.728-3.239a15.224 15.224 0 0 1-4.796-5.107c-1.205-2.074-1.806-4.65-1.806-7.724 0-3.239.726-6.02 2.18-8.346a17.81 17.81 0 0 1 5.606-5.668c2.283-1.452 4.858-2.533 7.723-3.239a35.609 35.609 0 0 1 8.534-1.059c3.569 0 6.913.311 10.028.934 3.114.623 5.855 1.703 8.222 3.239 2.366 1.538 4.255 3.612 5.667 6.229 1.412 2.616 2.243 5.876 2.493 9.779h-10.589c-.168-2.075-.728-3.8-1.682-5.17-.956-1.371-2.118-2.47-3.489-3.302-1.37-.828-2.908-1.431-4.609-1.805a23.958 23.958 0 0 0-5.169-.561c-1.579 0-3.177.126-4.797.377-1.619.251-3.094.69-4.422 1.316-1.329.627-2.41 1.485-3.239 2.571-.831 1.087-1.246 2.424-1.246 4.012 0 1.923.642 3.471 1.931 4.641 1.287 1.171 2.928 2.152 4.921 2.947 1.993.794 4.235 1.464 6.727 2.006 2.491.545 4.983 1.106 7.474 1.686a79.65 79.65 0 0 1 7.786 2.11c2.533.829 4.774 1.925 6.728 3.291a16.13 16.13 0 0 1 4.733 5.152c1.203 2.072 1.806 4.637 1.806 7.701 0 3.809-.809 7.017-2.429 9.625a18.742 18.742 0 0 1-6.353 6.27c-2.616 1.573-5.565 2.691-8.845 3.354a49.49 49.49 0 0 1-9.779.992c-3.655 0-7.081-.395-10.277-1.184-3.198-.787-6.042-2.033-8.534-3.736-2.491-1.701-4.484-3.943-5.979-6.728-1.495-2.78-2.326-6.166-2.491-10.152h10.588M527.647 263.236h10.589V250.28h-10.589v12.956Zm0 75.989h10.589V274.82h-10.589v64.405ZM572.491 274.82h12.832v9.344h-12.832v39.988c0 1.245.103 2.242.312 2.989.206.749.601 1.331 1.184 1.745.579.416 1.389.685 2.429.81 1.037.124 2.386.186 4.048.186h4.859v9.344h-8.098c-2.74 0-5.088-.188-7.039-.56-1.952-.375-3.53-1.061-4.733-2.057-1.205-.996-2.099-2.408-2.679-4.235-.581-1.826-.872-4.235-.872-7.226v-40.984H550.94v-9.344h10.962v-19.308h10.589v19.308M655.332 338.976c-1.912 1.163-4.444 1.744-7.6 1.744-2.74 0-4.92-.79-6.54-2.366-1.619-1.577-2.429-4.112-2.429-7.6-2.909 3.488-6.291 6.023-10.153 7.6-3.862 1.576-8.035 2.366-12.519 2.366-2.909 0-5.669-.332-8.285-.996-2.616-.665-4.879-1.723-6.789-3.177-1.912-1.452-3.426-3.321-4.547-5.605-1.121-2.284-1.682-5.046-1.682-8.285 0-3.653.623-6.643 1.869-8.969 1.245-2.324 2.885-4.192 4.921-5.606 2.033-1.411 4.36-2.51 6.976-3.301a73.035 73.035 0 0 1 8.035-1.931 97.552 97.552 0 0 1 8.284-1.308c2.616-.29 4.921-.705 6.914-1.246 1.993-.539 3.569-1.327 4.734-2.367 1.161-1.037 1.743-2.553 1.743-4.547 0-2.324-.435-4.193-1.308-5.606-.872-1.41-1.993-2.492-3.362-3.239-1.371-.747-2.909-1.245-4.61-1.495a34.843 34.843 0 0 0-5.046-.373c-4.483 0-8.221.852-11.211 2.554-2.99 1.703-4.61 4.92-4.859 9.655h-10.589c.167-3.988.998-7.351 2.492-10.092 1.495-2.74 3.488-4.961 5.98-6.664 2.491-1.701 5.357-2.927 8.596-3.675 3.238-.747 6.643-1.121 10.215-1.121 2.905 0 5.792.208 8.658.623 2.864.416 5.46 1.267 7.786 2.553 2.323 1.289 4.192 3.096 5.605 5.419 1.411 2.326 2.118 5.357 2.118 9.095v33.136c0 2.491.143 4.32.436 5.481.29 1.164 1.265 1.745 2.927 1.745.997 0 2.075-.207 3.24-.624v8.222Zm-17.192-33.012c-.996.747-2.242 1.33-3.737 1.744a49.696 49.696 0 0 1-4.733 1.06c-1.663.291-3.427.54-5.295.747a71.94 71.94 0 0 0-5.419.809 43.868 43.868 0 0 0-4.983 1.245c-1.579.5-2.949 1.184-4.111 2.057a9.808 9.808 0 0 0-2.803 3.3c-.706 1.331-1.059 2.991-1.059 4.984 0 1.744.353 3.219 1.059 4.422a8.816 8.816 0 0 0 2.74 2.928c1.121.747 2.43 1.288 3.925 1.62 1.495.332 3.071.498 4.733.498 3.488 0 6.479-.477 8.97-1.433 2.492-.954 4.525-2.159 6.103-3.613 1.577-1.452 2.742-3.031 3.489-4.734.747-1.701 1.121-3.301 1.121-4.796v-10.838Zm-31.268-41.732h11.212v-12.956h-11.212v12.956Zm23.42 0h11.212v-12.956h-11.212v12.956ZM681.116 274.82h12.831v9.344h-12.831v39.988c0 1.245.103 2.242.312 2.989.206.749.601 1.331 1.183 1.745.579.416 1.39.685 2.429.81 1.038.124 2.386.186 4.049.186h4.858v9.344h-8.098c-2.739 0-5.088-.188-7.038-.56-1.952-.375-3.531-1.061-4.733-2.057-1.205-.996-2.099-2.408-2.679-4.235-.581-1.826-.872-4.235-.872-7.226v-40.984h-10.962v-9.344h10.962v-19.308h10.589v19.308M109.085 400.559h16.195l28.029 74.746 28.154-74.746h16.195v88.946h-11.212v-73.996h-.249l-27.781 73.996h-10.09l-27.78-73.996h-.249v73.996h-11.212v-88.946M267.667 489.505h-9.966V479.29h-.249c-2.243 3.987-5.129 6.935-8.658 8.844-3.531 1.91-7.621 2.866-12.271 2.866-4.236 0-7.766-.581-10.589-1.744-2.824-1.162-5.107-2.781-6.852-4.858-1.744-2.075-2.97-4.548-3.675-7.412-.706-2.865-1.058-6.042-1.058-9.53V425.1h10.589v43.602c0 3.986 1.161 7.143 3.487 9.467 2.324 2.326 5.523 3.489 9.593 3.489 3.239 0 6.042-.498 8.408-1.496 2.368-.996 4.339-2.407 5.918-4.236 1.577-1.824 2.76-3.964 3.55-6.414.789-2.449 1.184-5.127 1.184-8.036V425.1h10.589v64.405Zm-44.1-74.993h11.212v-12.956h-11.212v12.956Zm23.42 0h11.212v-12.956h-11.212v12.956ZM284.235 425.1h9.965v10.215h.25c2.242-3.986 5.127-6.932 8.658-8.844 3.529-1.91 7.617-2.866 12.27-2.866 4.235 0 7.764.583 10.589 1.744 2.822 1.164 5.108 2.785 6.851 4.859 1.744 2.077 2.968 4.547 3.675 7.413.705 2.864 1.059 6.041 1.059 9.529v42.355h-10.589v-43.6c0-3.987-1.164-7.142-3.488-9.468-2.326-2.325-5.524-3.488-9.592-3.488-3.239 0-6.041.498-8.409 1.495-2.366.997-4.341 2.409-5.917 4.235-1.578 1.828-2.762 3.967-3.551 6.416-.79 2.45-1.182 5.129-1.182 8.035v36.375h-10.589V425.1M397.846 445.779c-.832-4.067-2.597-7.225-5.295-9.467-2.7-2.242-6.25-3.363-10.651-3.363-3.821 0-7.019.706-9.592 2.117-2.575 1.413-4.631 3.283-6.167 5.606-1.537 2.327-2.637 5.005-3.301 8.035a43.786 43.786 0 0 0-.997 9.406c0 2.989.353 5.897 1.06 8.72.705 2.824 1.806 5.338 3.301 7.537 1.494 2.201 3.425 3.966 5.792 5.294 2.367 1.329 5.252 1.994 8.659 1.994 5.148 0 9.217-1.391 12.207-4.174 2.991-2.782 4.817-6.622 5.482-11.524h10.838c-1.164 7.893-4.154 14.037-8.97 18.438-4.817 4.403-11.295 6.602-19.433 6.602-4.902 0-9.24-.809-13.018-2.429-3.78-1.619-6.935-3.882-9.468-6.79-2.534-2.906-4.444-6.372-5.73-10.401-1.289-4.027-1.931-8.449-1.931-13.267 0-4.816.623-9.321 1.868-13.516 1.246-4.194 3.135-7.849 5.669-10.964 2.532-3.114 5.688-5.562 9.468-7.349 3.778-1.785 8.24-2.679 13.391-2.679 3.654 0 7.079.437 10.277 1.309 3.196.871 6.042 2.223 8.533 4.048 2.492 1.829 4.504 4.132 6.043 6.914 1.536 2.784 2.511 6.085 2.927 9.903h-10.962M421.638 400.559h10.588v34.009h.25a14.547 14.547 0 0 1 3.55-4.982 20.364 20.364 0 0 1 5.045-3.426 24.93 24.93 0 0 1 5.792-1.931c2.035-.415 4.006-.624 5.918-.624 4.235 0 7.764.583 10.589 1.744 2.822 1.164 5.107 2.785 6.851 4.859 1.744 2.077 2.968 4.547 3.675 7.413.705 2.864 1.059 6.041 1.059 9.529v42.355h-10.589v-43.6c0-3.987-1.164-7.142-3.488-9.468-2.326-2.325-5.524-3.488-9.592-3.488-3.239 0-6.042.498-8.409 1.495-2.367.997-4.341 2.409-5.918 4.235-1.577 1.828-2.761 3.967-3.55 6.416-.79 2.45-1.183 5.129-1.183 8.035v36.375h-10.588v-88.946M545.339 469.075c-1.415 7.144-4.535 12.583-9.363 16.319-4.826 3.738-10.903 5.606-18.227 5.606-5.161 0-9.634-.852-13.42-2.553-3.788-1.701-6.97-4.049-9.549-7.038-2.582-2.991-4.517-6.56-5.807-10.714-1.29-4.152-2.019-8.678-2.184-13.579 0-4.816.748-9.28 2.242-13.391 1.496-4.111 3.592-7.663 6.292-10.652a28.535 28.535 0 0 1 9.592-6.976c3.694-1.66 7.743-2.492 12.146-2.492 5.731 0 10.484 1.184 14.264 3.552 3.778 2.366 6.808 5.378 9.094 9.031 2.282 3.655 3.861 7.641 4.734 11.959.871 4.32 1.224 8.431 1.058 12.333h-48.21c-.084 2.823.249 5.502.996 8.035.747 2.534 1.951 4.776 3.613 6.727 1.661 1.952 3.778 3.509 6.353 4.671 2.573 1.164 5.606 1.745 9.095 1.745 4.4 0 8.054-1.038 10.962-3.115 2.906-2.075 4.816-5.232 5.73-9.468h10.589Zm-10.34-17.939a21.705 21.705 0 0 0-1.682-7.1c-.955-2.242-2.242-4.173-3.861-5.793-1.62-1.619-3.551-2.907-5.793-3.862-2.242-.953-4.652-1.432-7.225-1.432-2.741 0-5.212.479-7.412 1.432-2.201.955-4.092 2.265-5.668 3.924-1.579 1.663-2.825 3.593-3.738 5.793-.914 2.202-1.454 4.547-1.619 7.038h36.998ZM557.795 425.1h9.965v10.215h.25c2.242-3.986 5.127-6.932 8.658-8.844 3.529-1.91 7.618-2.866 12.27-2.866 4.235 0 7.764.583 10.589 1.744 2.823 1.164 5.108 2.785 6.851 4.859 1.744 2.077 2.968 4.547 3.675 7.413.705 2.864 1.059 6.041 1.059 9.529v42.355h-10.588v-43.6c0-3.987-1.165-7.142-3.489-9.468-2.326-2.325-5.523-3.488-9.592-3.488-3.238 0-6.042.498-8.409 1.495-2.366.997-4.341 2.409-5.917 4.235-1.578 1.828-2.762 3.967-3.551 6.416-.789 2.45-1.182 5.129-1.182 8.035v36.375h-10.589V425.1" />
    </g>
</svg>