<svg version="1.1" xmlns="http://www.w3.org/2000/svg" viewBox="100 -53.7 300 207.7" style="enable-background:new 100 -53.7 300 207.7" xml:space="preserve">
<style>.st1{opacity:.7}</style>
<path d="M161.3 154h129.2v-7.4H161.3v7.4z"/>
<path class="st1" d="M308.9-53.7s26.9 42 31.9 49.7c4.9 7.7 10.6 13.8 30.5 18 19.9 4.1 28.6 6.1 28.6 6.1v1.5s-12.7-2.6-29-6.2-23-4.8-30.4-14.9c-6.2-8.4-31.6-44.3-31.6-44.3v-9.9z"/>
<path class="st1" d="M308.9-41.8S336.7-1.9 340.4 3c3.7 4.9 8.7 12.8 30.7 17.4 5.7 1.2 28.8 5.8 28.8 5.8v1.3s-17.6-3.4-28.8-5.8-23.1-4.5-30.6-14c-6.8-8.6-31.7-40.5-31.7-40.5l.1-9z"/>
<path class="st1" d="M308.9-29.8s26.2 33.9 31.5 40.7c5.3 6.8 12.6 12.4 30.7 15.8 10.4 2 28.8 5.4 28.8 5.4v1.3s-16.1-3-28.8-5.3-23.2-4.5-30.7-12.9c-6.6-7.4-31.6-36.5-31.6-36.5l.1-8.5z"/>
<path class="st1" d="M308.9-18s26.6 30.8 31.7 36.2c8 8.5 11.8 11.5 30.6 15.1 7.5 1.4 28.8 5.1 28.8 5.1v1.3s-17.6-3.2-28.8-5.1c-11.2-2-20.6-2.7-30.7-12.4-7.7-7.4-31.5-32.3-31.5-32.3l-.1-7.9z"/>
<path class="st1" d="M308.9-5.8s24.5 25.2 31.6 32.4c7.5 7.7 17.2 10.5 30.5 12.9 12.8 2.2 28.8 4.8 28.8 4.8v1.4S384.7 43.3 371 41c-13.5-2.3-22.9-3.5-30.6-10.5-6.9-6.2-31.5-28.9-31.5-28.9v-7.4z"/>
<path class="st1" d="M308.9 5.6s23.3 21.2 31.6 28.5c7.6 6.7 13.8 8.8 30.6 11.7 16.8 2.9 28.8 4.7 28.8 4.7V52s-15.2-2.4-28.8-4.6c-13.7-2.1-22.4-3-30.5-9.5-9.4-7.5-31.6-25.4-31.6-25.4l-.1-6.9z"/>
<path class="st1" d="M308.9 17.7s26.6 20.7 31.6 24.3c5 3.6 11.6 7.9 30.7 10.6 19 2.7 28.7 4 28.7 4v1.6s-17.2-2.5-28.7-3.9-20.3-2-30.6-8.8C330.6 39 309 24.1 309 24.1l-.1-6.4z"/>
<path class="st1" d="M308.9 29.3s26.7 17.4 31.8 20.2c5.1 2.8 11 7.3 30.5 9.7 19.5 2.4 28.7 3.5 28.7 3.5v1.5s-16.1-1.7-28.8-3.1c-12.6-1.3-21.2-3.2-30.6-8.2-9.4-5-31.5-17.7-31.5-17.7l-.1-5.9z"/>
<path class="st1" d="M308.9 40.9s23.6 12.6 31.6 16.5c8.9 4.4 16.6 6.5 30.6 8.1 13.7 1.6 28.8 3.2 28.8 3.2v1.4s-13.9-1.5-28.8-2.8c-14.7-1.4-20-2-30.6-6.6-9.5-4.1-31.7-14.2-31.7-14.2l.1-5.6z"/>
<path class="st1" d="M308.9 52.8s18.6 7.8 31.7 12.9c12.9 5 22.8 5.4 30.6 6.3 3.5.4 28.6 2.9 28.6 2.9v1.4s-15-1.2-28.7-2.4-19.5-1.7-30.6-5.3C329.4 65 308.9 58 308.9 58v-5.2z"/>
<path class="st1" d="M308.9 64.7s18.9 5.7 31.7 9 24.7 4.7 30.6 5c5.9.4 28.6 2.2 28.6 2.2v1.3l-28.7-2c-12.8-.9-23.1-1.8-30.6-3.5-8.3-1.8-31.7-7.3-31.7-7.3l.1-4.7z"/>
<path class="st1" d="M308.9 76.6s15.5 2.6 31.8 5.3c12.2 2 28.8 3.2 30.5 3.3 1.8.1 28.8 1.9 28.8 1.9v1.4L371.2 87c-12-.7-23.8-1.4-30.6-2-15.1-1.6-31.7-3.6-31.7-3.6v-4.8z"/>
<path class="st1" d="M308.9 88.8s24.3.9 31.7 1.1c7.4.2 59.3 2.2 59.3 2.2v1.4l-91-.1v-4.6z"/>
<path d="M168.9 102c0-.3.1-.4.4-.4h7.5c.2 0 .4.1.4.4v1.3c0 .2-.1.4-.4.4h-5.6v3.5h4.9c.3 0 .4.1.4.4v1.3c0 .2-.1.4-.4.4h-4.9v4h5.7c.2 0 .4.1.4.4v1.2c0 .3-.1.4-.4.4h-7.6c-.3 0-.4-.1-.4-.4V102z"/>
<path d="M186.7 115.1h-1.4c-.3 0-.4-.1-.4-.4v-.6c-.8.6-2.2 1.2-3.4 1.2-2.8 0-3-1.6-3-3.8v-6c0-.2.1-.4.4-.4h1.5c.3 0 .4.1.4.4v5.7c0 1.2.2 2 1.5 2 .9 0 2.2-.7 2.8-.9v-6.8c0-.2.1-.4.4-.4h1.4c.3 0 .4.1.4.4v9.2c-.2.3-.3.4-.6.4"/>
<path d="M191.1 114.7c0 .2-.1.4-.4.4h-1.5c-.3 0-.4-.1-.4-.4v-9.2c0-.3.1-.4.4-.4h1.4c.3 0 .4.2.4.4v.9c.6-.6 2.1-1.3 3-1.4.3-.1.4 0 .5.3l.1 1.4c0 .3 0 .4-.4.5-1.1.2-2.6.6-3.3.9l.2 6.6z"/>
<path d="M199.7 106.9c-1.7 0-2.1 1.1-2.1 3.2 0 2.2.4 3.2 2.1 3.2 1.9 0 2.2-1 2.2-3.2s-.4-3.2-2.2-3.2m-.1 8.4c-4.1 0-4.4-3-4.4-5.3 0-1.9.4-5 4.4-5s4.5 2.6 4.5 5c0 2.3-.2 5.3-4.5 5.3"/>
<path d="M210.2 107c-.8 0-2.1.6-2.7.9v5.1c.9.3 1.7.3 2.3.3 1.5 0 2-.8 2-3.3 0-2.6-.5-3-1.6-3m-.1 8.3c-.7 0-1.6-.1-2.5-.5v3.6c0 .2-.1.4-.4.4h-1.4c-.3 0-.4-.1-.4-.4v-12.9c0-.3.1-.4.4-.4h1.4c.3 0 .4.2.4.4v.6h.1c.7-.5 2-1.2 3.2-1.2 2.7 0 3.4 2 3.4 5.1-.2 3.4-1 5.3-4.2 5.3"/>
<path d="M217.7 109.2h4c0-1.2-.3-2.4-2-2.4-1.5 0-1.9.9-2 2.4m-.1 1.5c.1 2.1.8 2.6 2.5 2.6.7 0 1.9-.1 2.6-.2.4 0 .5 0 .6.3l.1.7c.1.3 0 .5-.3.6-.8.3-2.3.5-3.3.5-3.9 0-4.5-2.5-4.5-5.1 0-2 .4-5.2 4.3-5.2 3.6 0 4.3 2.4 4.4 4.6 0 .7-.2 1.2-1 1.2h-5.4z"/>
<path d="M231.2 110.6h-2.5c-1 0-1.7.4-1.7 1.7 0 .9.3 1.2 1.3 1.2.9 0 2.1-.5 2.9-1v-1.9zm.2 3.3c-1 .8-2.4 1.3-3.8 1.3-2.2 0-2.8-1.2-2.8-2.9 0-2.4 1.3-3.4 3.8-3.4h2.6v-.5c0-1.2-.5-1.7-2.1-1.7-.7 0-2 .1-2.8.2-.4.1-.5 0-.6-.2l-.2-.8c0-.3 0-.4.5-.6.9-.3 2.5-.4 3.4-.4 3.5 0 4 1.4 4 3.7v3.9c0 .8.1.9.7.9.3 0 .4.1.4.3v.9c0 .2-.1.4-.5.4-.3.1-.7.1-1 .1-.8.1-1.4-.2-1.6-1.2z"/>
<path d="M243.5 115.1H242c-.3 0-.4-.1-.4-.4V109c0-1.2-.3-2-1.5-2-.8 0-2.2.7-2.8.9v6.8c0 .2-.1.4-.4.4h-1.4c-.3 0-.4-.1-.4-.4v-9.2c0-.3.1-.4.4-.4h1.4c.3 0 .4.1.4.4v.6h.1c.8-.5 2.2-1.2 3.4-1.2 2.8 0 3 1.8 3 3.9v5.9c.1.3 0 .4-.3.4"/>
<path d="M174.2 122.9c1 0 2.6.1 3.7.6.3.1.4.3.4.6l-.2.8c-.1.2-.2.3-.5.3-1-.1-2.2-.3-3.3-.3-2.8 0-3.2 2.2-3.2 4.9s.5 4.8 3.2 4.8c1.2 0 2.2-.1 3.3-.3.4 0 .5.1.6.3l.2.8c.1.3 0 .5-.3.7-1 .4-2.8.6-3.8.6-4.5 0-5.5-3.4-5.5-6.8-.1-3.4.7-7 5.4-7"/>
<path d="M182.9 128.4c-1.7 0-2.1 1.1-2.1 3.2 0 2.2.4 3.2 2.1 3.2 1.9 0 2.2-1 2.2-3.2s-.3-3.2-2.2-3.2m0 8.4c-4.1 0-4.4-3-4.4-5.3 0-1.9.4-5 4.4-5s4.5 2.6 4.5 5c0 2.3-.3 5.3-4.5 5.3"/>
<path d="M202.8 136.6h-1.5c-.3 0-.4-.1-.4-.4v-5.8c0-1.5-.4-1.9-1.4-1.9-.8 0-2 .6-2.6.9v6.8c0 .2-.1.4-.4.4H195c-.3 0-.3-.1-.3-.4v-5.9c0-1.2-.3-1.8-1.3-1.8-.7 0-1.9.5-2.6.9v6.8c0 .2-.1.4-.4.4h-1.5c-.3 0-.4-.1-.4-.4V127c0-.3.1-.4.4-.4h1.4c.3 0 .4.2.4.4v.6c.8-.6 1.9-1.2 3-1.2 1.2 0 2.2.2 2.8 1.4 1-.8 2.3-1.4 3.6-1.4 2.7 0 3 1.8 3 3.8v6c.1.3 0 .4-.3.4"/>
<path d="M218.8 136.6h-1.5c-.3 0-.4-.1-.4-.4v-5.8c0-1.5-.4-1.9-1.4-1.9-.8 0-2 .6-2.6.9v6.8c0 .2-.1.4-.4.4H211c-.3 0-.3-.1-.3-.4v-5.9c0-1.2-.3-1.8-1.3-1.8-.7 0-1.9.5-2.6.9v6.8c0 .2-.1.4-.4.4h-1.5c-.3 0-.4-.1-.4-.4V127c0-.3.1-.4.4-.4h1.4c.3 0 .4.2.4.4v.6c.8-.6 1.9-1.2 3-1.2 1.2 0 2.2.2 2.8 1.4 1-.8 2.3-1.4 3.6-1.4 2.7 0 3 1.8 3 3.8v6c.1.3 0 .4-.3.4"/>
<path d="M223.1 136.2c0 .2-.1.4-.4.4h-1.4c-.3 0-.4-.1-.4-.4V127c0-.3.1-.4.4-.4h1.4c.3 0 .4.2.4.4v9.2zm-1.1-11c-1.1 0-1.2-.6-1.2-1.2 0-.7.2-1.2 1.2-1.2s1.2.5 1.2 1.2c0 .6-.2 1.2-1.2 1.2"/>
<path d="M228.1 136.8c-1 0-2.4-.1-3.2-.4-.4-.2-.5-.4-.4-.7l.1-.7c.1-.3.2-.3.5-.3.9.1 2.2.2 2.9.2 1.3 0 1.8-.3 1.8-1.2 0-.9-.4-1.1-1.6-1.3-2-.3-3.7-.7-3.7-2.9 0-2 1.5-3.1 3.8-3.1.8 0 2.2.1 3.1.4.3.1.5.3.4.6l-.2.7c-.1.3-.2.3-.5.3-.9-.1-2-.2-2.8-.2-1.3 0-1.6.4-1.6 1.1 0 .8.5.9 1.7 1.1 1.9.3 3.7.7 3.7 3.1.1 2.5-1.9 3.3-4 3.3"/>
<path d="M236.6 136.8c-1 0-2.4-.1-3.2-.4-.4-.2-.5-.4-.4-.7l.1-.7c.1-.3.2-.3.5-.3.9.1 2.2.2 2.9.2 1.3 0 1.8-.3 1.8-1.2 0-.9-.4-1.1-1.6-1.3-2-.3-3.7-.7-3.7-2.9 0-2 1.5-3.1 3.8-3.1.8 0 2.2.1 3.1.4.3.1.5.3.4.6l-.2.7c-.1.3-.2.3-.5.3-.9-.1-2-.2-2.8-.2-1.3 0-1.6.4-1.6 1.1 0 .8.5.9 1.7 1.1 1.9.3 3.7.7 3.7 3.1.2 2.5-1.9 3.3-4 3.3"/>
<path d="M244.4 136.2c0 .2-.1.4-.4.4h-1.4c-.3 0-.4-.1-.4-.4V127c0-.3.1-.4.4-.4h1.4c.3 0 .4.2.4.4v9.2zm-1.1-11c-1.1 0-1.2-.6-1.2-1.2 0-.7.2-1.2 1.2-1.2s1.2.5 1.2 1.2c0 .6-.2 1.2-1.2 1.2"/>
<path d="M250.2 128.4c-1.7 0-2.1 1.1-2.1 3.2 0 2.2.4 3.2 2.1 3.2 1.9 0 2.2-1 2.2-3.2s-.3-3.2-2.2-3.2m0 8.4c-4.1 0-4.4-3-4.4-5.3 0-1.9.4-5 4.4-5s4.5 2.6 4.5 5c0 2.3-.3 5.3-4.5 5.3"/>
<path d="M264.1 136.6h-1.5c-.3 0-.4-.1-.4-.4v-5.7c0-1.2-.3-2-1.5-2-.8 0-2.2.7-2.8.9v6.8c0 .2-.1.4-.4.4h-1.4c-.3 0-.4-.1-.4-.4V127c0-.3.1-.4.4-.4h1.4c.3 0 .4.1.4.4v.6h.1c.8-.5 2.2-1.2 3.4-1.2 2.8 0 3 1.8 3 3.9v5.9c.1.3 0 .4-.3.4"/>
<g style="opacity:.7">
<path d="M183.4 12.1c4.7-.3 9.6-1.3 14.4-2 .4-.1.8-.1 1.3-.2h-33v3.4l11.6-.8c1.8-.2 3.7-.3 5.7-.4zM201.8-13.3c7.2-2 13.8-5 19.7-8.9 5.6-3.8 10.8-9.2 16-15.3 3.3-3.8 6.7-8.8 10-13.6v-2.3c-3.8 5.7-7.6 10.6-11.5 14.9a78.1 78.1 0 0 1-16 13.9c-5.7 3.7-12.1 6.4-19 8.1-3.1.8-6.4 1.4-10.2 1.9l-7.4.9L100-4.8V1s88.9-11.5 91.4-11.9c3.8-.8 7.3-1.5 10.4-2.4z"/>
<path d="M183.7-1.2c2.2-.2 4.5-.5 6.7-.8 3.9-.5 7.3-1.1 10.4-1.8a68.7 68.7 0 0 0 19.8-7.7c5.7-3.4 10.8-8.3 16.2-14.1 3.4-3.7 7.2-8.8 10.7-13.7v-2.1c-4.2 5.6-8.1 10.4-12 14.4-5.3 5.5-10.8 9.9-16.3 13-5.6 3.2-12 5.5-19.1 7-3 .6-6.3 1.1-10.1 1.5l-6.7.6-3.6.3c-27.2 2.4-54.3 5-79.7 7.5v5.8c25.5-3.1 52.8-6.3 80.1-9.4 1.2-.2 2.4-.4 3.6-.5z"/>
<path d="M189 6.8c3.8-.4 7.2-.9 10.2-1.5 7.6-1.4 14.1-3.6 19.9-6.5 5.9-3 11.8-8 17.3-13.3 3.7-3.5 7.2-8.1 11-12.9v-1.9c-4.4 5.5-8.6 10-12.8 13.8-5.4 5-11.1 8.9-16.8 11.6C212.3-1.1 206 .8 198.7 2c-3 .5-6.3.9-10 1.3L100 10.5v5.8l78.8-8.4L189 6.8zM235 8.3c5.3-3.8 12.5-11.3 12.6-11.4v-2c-4.8 4.6-7.5 7.3-12.7 10.7-2.7 1.8-6.2 3.2-9.6 4.4h7.4c.7-.6 1.5-1.2 2.3-1.7zM137.1 23.5 100 26v5.8l37.4-3.4c8.8-.8 18.6-1.7 28.6-2.5v-4.1c-9.6.4-19.2 1.1-28.9 1.7zM100 33.6v5.7c22.3-1.7 44.2-3.4 66-5v-4.1l-66 3.4zM100 41.5v5.7c22.2-1.5 44.1-3 66-4.4v-4.1c-21.7.9-43.6 1.8-66 2.8zM100 48.9v5.8l66-3.5v-4.1zM100 56.8v5.7l66-2.9v-4zM100 64.4v5.7c21.2-.7 43.5-1.5 66-2.1v-4.1c-21.9.1-43.8.3-66 .5zM135.3 72.2H100V78l35.4-.9c9.8-.2 20.1-.5 30.6-.7v-4c-10.5-.2-20.8-.2-30.7-.2zM100 79.9v5.7c21.3-.1 43.7-.3 66-.5V81c-21.9-.3-43.7-.7-66-1.1zM166 93.4v-4l-66-1.7v5.8M100 18.1v5.8l66-6.4v-4.2z"/>
<path d="M218 8.5c6-2.7 12.2-7 17.9-11.8 3.9-3.2 7.6-7.3 11.6-11.8v-2.1c-4.9 5.1-9 9.1-13.3 12.6-5.6 4.5-9.9 7.7-16.8 10.4C211.8 8 205.8 9 199 9.9h15.4c1.2-.4 2.4-.9 3.6-1.4z"/>
</g>
<path d="M161.3 7v86.5h129.2V7H161.3zM251 29.5l1.3 4.2h4.5l-3.6 2.7 1.4 4.3L251 38l-3.6 2.7 1.4-4.3-3.7-2.7h4.5l1.4-4.2zm-11.9-6.4 1.4-4.2 1.3 4.2h4.5l-3.6 2.7 1.4 4.3-3.6-2.7-3.6 2.7 1.4-4.3-3.7-2.7h4.5zm-29 .1 1.4-4.2 1.3 4.2h4.5l-3.6 2.7 1.4 4.3-3.6-2.7-3.6 2.7 1.4-4.3-3.7-2.7h4.5zm-10.3 10.6 1.4-4.2 1.3 4.2h4.5l-3.6 2.7 1.4 4.3-3.6-2.7-3.6 2.7 1.4-4.3-3.7-2.7h4.5zM191.5 48h4.5l1.4-4.2 1.3 4.2h4.5l-3.6 2.7L201 55l-3.6-2.7-3.6 2.7 1.4-4.3-3.7-2.7zm9.7 19.1-3.6 2.7 1.4-4.3-3.7-2.7h4.5l1.4-4.2 1.3 4.2h4.5l-3.6 2.7 1.4 4.3-3.6-2.7zm14 13.1-3.6-2.7-3.6 2.7 1.4-4.3-3.7-2.7h4.5l1.4-4.2 1.3 4.2h4.5l-3.6 2.7 1.4 4.3zm9.4-60.9 1.4-4.4 1.3 4.4h4.5l-3.6 2.8 1.4 4.5-3.6-2.8-3.6 2.8 1.4-4.5-3.7-2.8h4.5zm5.2 64.7-3.6-2.6-3.6 2.6 1.4-4.3-3.7-2.7h4.5l1.4-4.2 1.3 4.2h4.5l-3.6 2.7 1.4 4.3zm14.2-3.8-3.6-2.7-3.6 2.7 1.4-4.3-3.7-2.7h4.5l1.4-4.2 1.3 4.2h4.5l-3.6 2.7 1.4 4.3zm10.6-10.5L251 67l-3.6 2.7 1.4-4.3-3.7-2.7h4.5l1.4-4.2 1.3 4.2h4.5l-3.6 2.7 1.4 4.3zm4-14.7-3.6-2.7-3.6 2.7 1.4-4.3-3.7-2.7h4.5l1.4-4.2 1.3 4.2h4.5l-3.6 2.7 1.4 4.3z"/>
</svg>