<svg xmlns="http://www.w3.org/2000/svg" viewBox="0 0 207.3 52.1" style="enable-background:new 0 0 207.3 52.1" xml:space="preserve">
<path d="M74.9 20.3H79c1.9 0 2.9.8 2.9 2.4 0 1.2-.9 2.1-2.9 2.1h-4.2v-4.5h.1zM73.6 32H79c4.1 0 4.6-2.4 4.6-3.6 0-1.7-1-2.9-2.7-3.1 1.3-.3 2.2-1.5 2.2-2.9 0-2.4-1.9-3.1-4.1-3.1h-5.4V32zm1.3-6.1H79c2.1 0 3.4.8 3.4 2.5 0 2.1-1.5 2.6-3.4 2.6h-4.2v-5.1h.1zm11.4.9c.2-1.7 1.2-3.3 3-3.3s2.9 1.6 2.9 3.3h-5.9zm7.1.9c.1-2.6-1.1-5.2-4-5.2s-4.1 2.4-4.1 4.9c0 2.6 1.2 4.9 4.1 4.9 2.3 0 3.5-1.2 4-3.3h-1.1c-.4 1.4-1.2 2.4-2.9 2.4-2.1 0-3-2-3-3.6l7-.1zm1.9-6.6h1.1v-1.8h-1.1v1.8zm0 10.9h1.1v-9.2h-1.1V32zm10.1-6.5c-.1-2-1.5-3-3.4-3-1.6 0-3.5.7-3.5 2.6 0 1.5 1.1 2.1 2.6 2.5l1.4.3c1 .2 2 .6 2 1.7 0 1.3-1.4 1.8-2.5 1.8-1.5 0-2.6-.8-2.7-2.3h-1.1c.2 2.3 1.6 3.2 3.8 3.2 1.7 0 3.7-.8 3.7-2.8 0-1.6-1.3-2.4-2.6-2.5l-1.5-.3c-.8-.2-1.9-.6-1.9-1.5 0-1.2 1.2-1.6 2.2-1.6 1.3 0 2.4.6 2.4 2l1.1-.1zm2.3 6.5h1.1v-5.4c0-1.8 1.1-3.1 2.9-3.1 1.8 0 2.3 1.2 2.3 2.8V32h1.1v-5.9c0-2.2-.8-3.5-3.4-3.5-1.3 0-2.5.8-2.9 1.9v-5.1h-1.1V32zm10.5-5.2c.2-1.7 1.2-3.3 3-3.3s2.9 1.6 2.9 3.3h-5.9zm7.1.9c.1-2.6-1.1-5.2-4-5.2s-4.1 2.4-4.1 4.9c0 2.6 1.2 4.9 4.1 4.9 2.3 0 3.5-1.2 4-3.3h-1.1c-.4 1.4-1.2 2.4-2.9 2.4-2.1 0-3-2-3-3.6l7-.1zm1.9-6.6h1.1v-1.8h-1.1v1.8zm0 10.9h1.1v-9.2h-1.1V32zm3.5 0h1.1v-5.1c0-1.9.8-3.4 2.7-3.4 1.4 0 1.9 1 1.9 2.3V32h1.1v-5.2c0-1.7.5-3.3 2.5-3.3 1.6 0 2.2.8 2.2 2.3V32h1.1v-6.2c0-2.1-1-3.2-3-3.2-1.2 0-2.4.6-2.9 1.8-.3-1.2-1.4-1.8-2.6-1.8-1.5 0-2.4.7-3 1.8v-1.5h-1l-.1 9.1zm17.4-4.2c-.1 3.1 2.1 4.5 5.1 4.5 4.5 0 4.9-2.8 4.9-3.6 0-2.1-1.5-2.9-3.3-3.4l-3.1-.8c-1-.2-1.9-.8-1.9-1.9 0-1.9 1.5-2.5 3.2-2.5 1.8 0 3.4 1 3.5 2.9h1.2c0-2.6-2.2-4-4.7-4-3.6 0-4.4 2.3-4.4 3.6 0 2 1.4 2.7 2.9 3.1l2.8.7c1.2.3 2.6.9 2.6 2.3 0 1.9-2 2.6-3.4 2.6-2.3 0-4.2-.8-4.1-3.4l-1.3-.1zm13.7-7.7h-1.1v2.8h-1.6v.9h1.6V30c0 1.6.5 2.1 2 2.1h1v-1h-1c-.8 0-.9-.5-.9-1.2v-6.2h1.9v-.9h-1.9v-2.7zm3.6 1h1.1v-1.8h-1.1v1.8zm0 10.9h1.1v-9.2h-1.1V32zm7.1-9.2h-1.8V22c0-1 0-1.8 1.2-1.8.3 0 .5 0 .8.1v-1c-.4 0-.6-.1-.9-.1-1.8 0-2.2 1.1-2.2 2.7v.8H168v.9h1.6V32h1.1v-8.2h1.8v-1zm3.7-2.7h-1.1v2.8h-1.6v.9h1.6V30c0 1.6.5 2.1 2 2.1h1v-1h-1c-.8 0-.9-.5-.9-1.2v-6.2h1.9v-.9h-1.9v-2.7zm11.1 2.7h-1.1v4.8c0 1.9-.8 3.7-2.8 3.7-1.8 0-2.4-.9-2.5-2.5v-6h-1.1v6c0 2.1.9 3.5 3.2 3.5 1.4 0 2.6-.7 3.2-1.9V32h1l.1-9.2zm2.4 9.2h1.1v-5.4c0-1.8 1.1-3.1 2.9-3.1 1.8 0 2.3 1.2 2.3 2.8V32h1.1v-5.9c0-2.2-.8-3.5-3.4-3.5-1.3 0-2.5.8-2.9 1.9v-1.6h-1.1V32zm17.6-9.2h-1.1v1.6c-.4-1-1.6-1.9-2.9-1.9-2.6 0-4.1 2.1-4.1 4.6 0 2.6 1.2 4.7 4.1 4.7 1.3 0 2.4-.8 2.9-1.9v1.2c0 2.3-.9 3.5-3 3.5-1.2 0-2.5-.5-2.7-1.8h-1.1c.1 1.9 2 2.8 3.8 2.8 3 0 4.1-1.7 4.1-4.4v-8.4zm-4.1 8.2c-2.1 0-3-1.8-3-3.6 0-1.9.9-3.8 3-3.8s3 2 3 3.8c0 1.8-1 3.6-3 3.6z" style="fill:#0e0e09"/>
<path d="M38.7.1c3.8 2.1 7 5.1 9.5 8.6a28 28 0 0 1 4.9 11.8c.7 4.2.6 8.6-.5 12.7s-3.2 8-6.1 11.1l-.7-.7a26 26 0 0 0 5.6-10.8c1-4 1-8.1.2-12.1s-2.5-7.8-4.9-11c-2.4-3.3-5.5-6-9-7.9l1-1.7z" style="fill:#6bb5b4"/>
<path d="M7.7 18.5c-1.6 4.7-1.6 10-.2 14.8 1.4 4.8 4.3 9.2 8.3 12.3 3.9 3.2 8.9 5 13.9 5.3 5.1.3 10.2-1.1 14.4-4l.6.8c-4.4 3-9.7 4.6-15 4.4-5.3-.2-10.6-2.1-14.8-5.4-4.2-3.3-7.4-7.9-9-13-1.6-5.1-1.6-10.7 0-15.9l1.8.7z" style="fill:#cd96b7"/>
<path d="M45 10.3c3.8 4.2 6 9.9 6.1 15.5.1 5.7-2 11.3-5.6 15.6-3.7 4.3-8.9 7.1-14.5 7.8-5.6.7-11.4-.7-15.9-3.8l.6-.8a21.72 21.72 0 0 0 28.7-4.2c3.3-4.1 5.2-9.3 5-14.6-.1-5.2-2.3-10.4-5.8-14.2l1.4-1.3z" style="fill:#eaca55"/>
<path d="M43.1 8.9C37.8 3.7 30.1 1 22.6 2c-3.7.5-7.3 1.8-10.4 3.8-3.1 2.1-5.8 4.9-7.7 8.2-1.9 3.2-3 7-3.1 10.7-.2 3.8.5 7.6 2.1 11 1.6 3.4 3.9 6.5 6.8 8.9 2.9 2.4 6.4 4.1 10.1 5l-.2 1A26.12 26.12 0 0 1 2.3 36.2C.6 32.6-.1 28.6 0 24.6c.1-4 1.2-7.9 3.2-11.4A25.7 25.7 0 0 1 22.3.3c7.9-1.2 16.3 1.6 22.1 7.2l-1.3 1.4z" style="fill:#7458a3"/>
</svg>