<svg xmlns="http://www.w3.org/2000/svg" version="1.1" viewBox="60 -3 108.46 108.46" xml:space="preserve" width="108.46" height="108.46">
<style type="text/css">.st1{display:inline}.st2{fill:gray}.st3{fill:#404040}</style>
<g transform="matrix(1.42708 0 0 1.42708 -128.09 2.14)" style="stroke-width:0.7">
<g style="stroke-width:0.7">
<g style="stroke-width:0.7">
<circle cx="169.9" cy="10" r="12.2" style="stroke-width:0.7"/>
<path d="m194.6 7.3-6.9 6.9c5.6 4.9 9.1 12.1 9.1 20.2a26.9 26.9 0 1 1-44.7-20.2l-6.9-6.9A36.62 36.62 0 0 0 169.8 71c20.2 0 36.6-16.4 36.6-36.6a36.3 36.3 0 0 0-11.8-27.1Z" id="path86" style="stroke-width:0.7"/>
<path d="m167.5 29.5-11.8-11.8c-4.7 4-7.7 10-7.7 16.7 0 11.3 8.5 20.6 19.5 21.8zm16.7-11.8-11.8 11.8v26.7a21.9 21.9 0 0 0 19.5-21.8c0-6.7-3-12.6-7.7-16.7z" id="path88" style="stroke-width:0.7"/>
</g>
<path style="stroke-width:0.7" d="M169.1 49.2h1.6v1.1h-1.6z"/>
</g>
</g>
</svg>