<svg xmlns="http://www.w3.org/2000/svg" viewBox="0 0 61 40" fill="none">
  <path fill="#FFF5E9" d="M.084 0h60v40h-60z" />
  <path fill="#000" fillOpacity=".08" d="M8.62 4.042h42.928V6.68H8.62z" />
  <path
    fill="#57534F"
    d="M10.558 15.026h.831v-2.442l-.773.192v-.67l.778-.187h.718v3.107h.832v.655h-2.386v-.655Zm.62 8h1.584v.655h-2.388v-.635l.403-.428c.479-.51.77-.823.872-.94.126-.145.216-.272.272-.383a.749.749 0 0 0 .083-.333c0-.168-.051-.297-.154-.388-.1-.092-.244-.138-.43-.138-.133 0-.283.027-.45.08a2.778 2.778 0 0 0-.516.23v-.693c.18-.066.356-.115.527-.149.173-.035.338-.053.496-.053.398 0 .71.093.938.28.228.185.342.437.342.758 0 .148-.025.287-.075.416-.05.13-.134.273-.255.43-.089.115-.333.372-.733.772-.217.216-.389.39-.517.519Zm8.233-2.167h.615l.335 2.162.305-1.424h.597l.3 1.424.34-2.162h.615l-.512 2.822h-.7l-.343-1.467-.34 1.467h-.7l-.512-2.822Zm4.661.532a.47.47 0 0 0-.416.234c-.1.154-.15.37-.15.647s.05.494.15.65c.101.155.24.232.416.232a.474.474 0 0 0 .418-.232c.101-.156.152-.373.152-.65s-.05-.493-.152-.647a.473.473 0 0 0-.418-.234Zm-1.305.881c0-.455.118-.815.353-1.08.236-.268.554-.401.952-.401.4 0 .717.133.952.4.237.266.356.626.356 1.081 0 .456-.119.817-.356 1.084-.235.265-.552.398-.952.398-.398 0-.715-.133-.952-.398-.235-.267-.353-.628-.353-1.084Zm5.762-.634a.79.79 0 0 0-.285-.167 1.086 1.086 0 0 0-.355-.055.954.954 0 0 0-.41.083.608.608 0 0 0-.356.469c-.015.09-.023.228-.023.413v1.3h-.738v-2.822h.739v.438a.799.799 0 0 1 .332-.373c.15-.088.324-.133.524-.133.1 0 .2.012.295.038.097.023.19.058.277.105v.703Zm1.184.866v-2.177h-.748v-.567h1.486v2.744c0 .222.035.379.104.471.069.093.185.139.35.139h.59v.567h-.797c-.35 0-.603-.09-.756-.272-.152-.182-.229-.483-.229-.905Zm4.127-1.244v-1.5h.736v3.92h-.736v-.418a.887.887 0 0 1-.307.368.78.78 0 0 1-.441.124.86.86 0 0 1-.751-.388c-.178-.259-.267-.623-.267-1.094 0-.477.09-.843.27-1.098.18-.255.439-.383.773-.383.151 0 .286.04.406.118.12.078.226.194.317.35Zm-1.028 1.017c0 .272.046.486.136.64.09.155.216.232.376.232s.285-.077.378-.232c.092-.154.138-.368.138-.64s-.046-.485-.139-.64c-.092-.154-.218-.231-.377-.231-.16 0-.285.077-.376.232-.09.154-.136.367-.136.64Zm4.472-2.512c-.221.402-.386.79-.494 1.167a4.092 4.092 0 0 0-.16 1.129c0 .373.053.749.16 1.128.108.378.273.769.494 1.172h-.574a4.776 4.776 0 0 1-.595-1.146 3.542 3.542 0 0 1 0-2.306c.131-.38.33-.76.595-1.143h.574Zm1.56 0h.574c.266.383.463.765.592 1.144a3.49 3.49 0 0 1 .003 2.306c-.13.376-.328.758-.595 1.146h-.574c.221-.403.386-.794.493-1.172.108-.38.162-.755.162-1.128 0-.377-.054-.753-.162-1.129a5.621 5.621 0 0 0-.493-1.166Zm3.462 2.991h.839v.683l-.494.965h-.542l.197-.965v-.683Zm0-1.753h.839v.92h-.84v-.92Z"
  />
  <path
    fill="#FFBB62"
    d="M22.11 13.85v1.83h-.734v-1.717c0-.204-.03-.349-.088-.436-.057-.088-.151-.131-.282-.131-.134 0-.24.06-.315.178-.076.118-.113.282-.113.492v1.615h-.734v-3.92h.734v1.521a.686.686 0 0 1 .267-.363.792.792 0 0 1 .456-.128c.267 0 .468.089.604.267.136.176.204.44.204.791Zm3.187 1.692a2.803 2.803 0 0 1-1.089.212c-.472 0-.833-.126-1.083-.378-.249-.254-.373-.618-.373-1.093 0-.46.12-.824.36-1.091.24-.268.568-.401.983-.401.418 0 .742.124.972.373.232.247.348.595.348 1.045v.3h-1.912c.001.222.067.387.196.497.13.109.323.163.58.163.17 0 .336-.024.501-.073.165-.049.337-.126.517-.232v.678Zm-.625-1.587c-.004-.195-.054-.342-.152-.441-.095-.1-.237-.151-.425-.151a.538.538 0 0 0-.406.156c-.1.102-.16.249-.179.438l1.162-.002Zm1.932.55v-2.178h-.748v-.566h1.486v2.743c0 .222.035.379.104.471.069.093.185.139.35.139h.59v.567h-.797c-.35 0-.603-.09-.756-.272-.152-.182-.229-.483-.229-.905Zm3.11 0v-2.178h-.75v-.566h1.487v2.743c0 .222.035.379.104.471.069.093.185.139.35.139h.59v.567h-.797c-.35 0-.603-.09-.756-.272-.152-.182-.229-.483-.229-.905Zm3.685-1.114a.47.47 0 0 0-.416.234c-.1.154-.15.37-.15.647s.05.494.15.65c.101.155.24.232.416.232a.474.474 0 0 0 .418-.232c.101-.156.152-.373.152-.65s-.05-.493-.152-.647a.473.473 0 0 0-.418-.234Zm-1.305.881c0-.455.118-.815.353-1.08.237-.268.554-.401.952-.401.4 0 .717.133.953.4.236.266.355.626.355 1.081 0 .456-.119.817-.355 1.084-.236.265-.553.398-.953.398-.398 0-.715-.133-.952-.398-.235-.267-.353-.628-.353-1.084Zm5.19-2.507c-.221.402-.386.79-.494 1.167a4.092 4.092 0 0 0-.16 1.129c0 .373.053.749.16 1.129.108.377.273.768.494 1.171h-.574a4.776 4.776 0 0 1-.595-1.146 3.542 3.542 0 0 1 0-2.306c.131-.38.33-.76.595-1.144h.574Zm1.56 0h.574c.266.383.463.765.592 1.144a3.49 3.49 0 0 1 .003 2.306c-.13.376-.328.758-.595 1.146h-.574c.221-.403.386-.794.493-1.171.108-.38.162-.756.162-1.13 0-.376-.054-.752-.162-1.128a5.621 5.621 0 0 0-.493-1.167Zm3.462 2.991h.839v.683l-.494.965h-.542l.197-.965v-.683Zm0-1.753h.839v.92h-.84v-.92Z"
  />
  <path fill="#EBE1D6" d="M8.62 28.681h42.928v2.638H8.62z" />
  <path fill="#000" fillOpacity=".08" d="M8.62 33.319h42.928v2.638H8.62z" />
</svg>
